<?xml version="1.0" encoding="utf-8" standalone="no"?>
<!DOCTYPE svg PUBLIC "-//W3C//DTD SVG 1.1//EN"
  "http://www.w3.org/Graphics/SVG/1.1/DTD/svg11.dtd">
<svg xmlns:xlink="http://www.w3.org/1999/xlink" width="1001.033125pt" height="784.521562pt" viewBox="0 0 1001.033125 784.521562" xmlns="http://www.w3.org/2000/svg" version="1.1">
 <metadata>
  <rdf:RDF xmlns:dc="http://purl.org/dc/elements/1.1/" xmlns:cc="http://creativecommons.org/ns#" xmlns:rdf="http://www.w3.org/1999/02/22-rdf-syntax-ns#">
   <cc:Work>
    <dc:type rdf:resource="http://purl.org/dc/dcmitype/StillImage"/>
    <dc:date>2026-02-26T17:49:18.122464</dc:date>
    <dc:format>image/svg+xml</dc:format>
    <dc:creator>
     <cc:Agent>
      <dc:title>Matplotlib v3.10.8, https://matplotlib.org/</dc:title>
     </cc:Agent>
    </dc:creator>
   </cc:Work>
  </rdf:RDF>
 </metadata>
 <defs>
  <style type="text/css">*{stroke-linejoin: round; stroke-linecap: butt}</style>
 </defs>
 <g id="figure_1">
  <g id="patch_1">
   <path d="M 0 784.521562 
L 1001.033125 784.521562 
L 1001.033125 0 
L 0 0 
z
" style="fill: #1a1a1d"/>
  </g>
  <g id="axes_1">
   <g id="patch_2">
    <path d="M 43.588125 745.9975 
L 993.833125 745.9975 
L 993.833125 39.3575 
L 43.588125 39.3575 
z
" style="fill: #1a1a1d"/>
   </g>
   <g id="PathCollection_1">
    <defs>
     <path id="m8b9a1e945d" d="M 0 5 
C 1.326016 5 2.597899 4.473168 3.535534 3.535534 
C 4.473168 2.597899 5 1.326016 5 0 
C 5 -1.326016 4.473168 -2.597899 3.535534 -3.535534 
C 2.597899 -4.473168 1.326016 -5 0 -5 
C -1.326016 -5 -2.597899 -4.473168 -3.535534 -3.535534 
C -4.473168 -2.597899 -5 -1.326016 -5 0 
C -5 1.326016 -4.473168 2.597899 -3.535534 3.535534 
C -2.597899 4.473168 -1.326016 5 0 5 
z
" style="stroke: #ffffff; stroke-opacity: 0.8; stroke-width: 0.8"/>
    </defs>
    <g clip-path="url(#pd8452230ef)">
     <use xlink:href="#m8b9a1e945d" x="183.315071" y="545.102824" style="fill: #2e7d32; fill-opacity: 0.8; stroke: #ffffff; stroke-opacity: 0.8; stroke-width: 0.8"/>
     <use xlink:href="#m8b9a1e945d" x="236.205398" y="500.040569" style="fill: #2e7d32; fill-opacity: 0.8; stroke: #ffffff; stroke-opacity: 0.8; stroke-width: 0.8"/>
     <use xlink:href="#m8b9a1e945d" x="238.973286" y="501.59331" style="fill: #2e7d32; fill-opacity: 0.8; stroke: #ffffff; stroke-opacity: 0.8; stroke-width: 0.8"/>
     <use xlink:href="#m8b9a1e945d" x="237.249232" y="662.226419" style="fill: #2e7d32; fill-opacity: 0.8; stroke: #ffffff; stroke-opacity: 0.8; stroke-width: 0.8"/>
     <use xlink:href="#m8b9a1e945d" x="194.395939" y="525.495223" style="fill: #2e7d32; fill-opacity: 0.8; stroke: #ffffff; stroke-opacity: 0.8; stroke-width: 0.8"/>
     <use xlink:href="#m8b9a1e945d" x="185.033906" y="548.777925" style="fill: #2e7d32; fill-opacity: 0.8; stroke: #ffffff; stroke-opacity: 0.8; stroke-width: 0.8"/>
     <use xlink:href="#m8b9a1e945d" x="193.228844" y="516.094424" style="fill: #2e7d32; fill-opacity: 0.8; stroke: #ffffff; stroke-opacity: 0.8; stroke-width: 0.8"/>
     <use xlink:href="#m8b9a1e945d" x="276.757473" y="661.314271" style="fill: #2e7d32; fill-opacity: 0.8; stroke: #ffffff; stroke-opacity: 0.8; stroke-width: 0.8"/>
     <use xlink:href="#m8b9a1e945d" x="269.990427" y="626.556119" style="fill: #2e7d32; fill-opacity: 0.8; stroke: #ffffff; stroke-opacity: 0.8; stroke-width: 0.8"/>
     <use xlink:href="#m8b9a1e945d" x="272.738195" y="643.785587" style="fill: #2e7d32; fill-opacity: 0.8; stroke: #ffffff; stroke-opacity: 0.8; stroke-width: 0.8"/>
     <use xlink:href="#m8b9a1e945d" x="291.711284" y="538.968395" style="fill: #2e7d32; fill-opacity: 0.8; stroke: #ffffff; stroke-opacity: 0.8; stroke-width: 0.8"/>
     <use xlink:href="#m8b9a1e945d" x="260.519797" y="685.98134" style="fill: #2e7d32; fill-opacity: 0.8; stroke: #ffffff; stroke-opacity: 0.8; stroke-width: 0.8"/>
     <use xlink:href="#m8b9a1e945d" x="231.661982" y="673.435464" style="fill: #2e7d32; fill-opacity: 0.8; stroke: #ffffff; stroke-opacity: 0.8; stroke-width: 0.8"/>
     <use xlink:href="#m8b9a1e945d" x="257.648379" y="669.863257" style="fill: #2e7d32; fill-opacity: 0.8; stroke: #ffffff; stroke-opacity: 0.8; stroke-width: 0.8"/>
     <use xlink:href="#m8b9a1e945d" x="244.252061" y="679.36966" style="fill: #2e7d32; fill-opacity: 0.8; stroke: #ffffff; stroke-opacity: 0.8; stroke-width: 0.8"/>
     <use xlink:href="#m8b9a1e945d" x="266.07994" y="693.007039" style="fill: #2e7d32; fill-opacity: 0.8; stroke: #ffffff; stroke-opacity: 0.8; stroke-width: 0.8"/>
     <use xlink:href="#m8b9a1e945d" x="198.768286" y="509.238177" style="fill: #2e7d32; fill-opacity: 0.8; stroke: #ffffff; stroke-opacity: 0.8; stroke-width: 0.8"/>
     <use xlink:href="#m8b9a1e945d" x="252.034627" y="496.144568" style="fill: #2e7d32; fill-opacity: 0.8; stroke: #ffffff; stroke-opacity: 0.8; stroke-width: 0.8"/>
     <use xlink:href="#m8b9a1e945d" x="200.856515" y="500.575266" style="fill: #2e7d32; fill-opacity: 0.8; stroke: #ffffff; stroke-opacity: 0.8; stroke-width: 0.8"/>
     <use xlink:href="#m8b9a1e945d" x="228.730164" y="670.785346" style="fill: #2e7d32; fill-opacity: 0.8; stroke: #ffffff; stroke-opacity: 0.8; stroke-width: 0.8"/>
     <use xlink:href="#m8b9a1e945d" x="171.110948" y="518.992018" style="fill: #2e7d32; fill-opacity: 0.8; stroke: #ffffff; stroke-opacity: 0.8; stroke-width: 0.8"/>
     <use xlink:href="#m8b9a1e945d" x="192.125859" y="552.089172" style="fill: #2e7d32; fill-opacity: 0.8; stroke: #ffffff; stroke-opacity: 0.8; stroke-width: 0.8"/>
     <use xlink:href="#m8b9a1e945d" x="289.390593" y="607.177714" style="fill: #2e7d32; fill-opacity: 0.8; stroke: #ffffff; stroke-opacity: 0.8; stroke-width: 0.8"/>
     <use xlink:href="#m8b9a1e945d" x="305.614511" y="562.418805" style="fill: #2e7d32; fill-opacity: 0.8; stroke: #ffffff; stroke-opacity: 0.8; stroke-width: 0.8"/>
     <use xlink:href="#m8b9a1e945d" x="272.626471" y="516.582276" style="fill: #2e7d32; fill-opacity: 0.8; stroke: #ffffff; stroke-opacity: 0.8; stroke-width: 0.8"/>
     <use xlink:href="#m8b9a1e945d" x="309.046704" y="581.39434" style="fill: #2e7d32; fill-opacity: 0.8; stroke: #ffffff; stroke-opacity: 0.8; stroke-width: 0.8"/>
     <use xlink:href="#m8b9a1e945d" x="304.305243" y="585.060958" style="fill: #2e7d32; fill-opacity: 0.8; stroke: #ffffff; stroke-opacity: 0.8; stroke-width: 0.8"/>
     <use xlink:href="#m8b9a1e945d" x="272.21906" y="517.686062" style="fill: #2e7d32; fill-opacity: 0.8; stroke: #ffffff; stroke-opacity: 0.8; stroke-width: 0.8"/>
     <use xlink:href="#m8b9a1e945d" x="280.859017" y="663.503207" style="fill: #2e7d32; fill-opacity: 0.8; stroke: #ffffff; stroke-opacity: 0.8; stroke-width: 0.8"/>
     <use xlink:href="#m8b9a1e945d" x="220.482782" y="677.991198" style="fill: #2e7d32; fill-opacity: 0.8; stroke: #ffffff; stroke-opacity: 0.8; stroke-width: 0.8"/>
     <use xlink:href="#m8b9a1e945d" x="233.720259" y="686.148911" style="fill: #2e7d32; fill-opacity: 0.8; stroke: #ffffff; stroke-opacity: 0.8; stroke-width: 0.8"/>
     <use xlink:href="#m8b9a1e945d" x="198.923699" y="500.168166" style="fill: #2e7d32; fill-opacity: 0.8; stroke: #ffffff; stroke-opacity: 0.8; stroke-width: 0.8"/>
     <use xlink:href="#m8b9a1e945d" x="294.777533" y="608.038241" style="fill: #2e7d32; fill-opacity: 0.8; stroke: #ffffff; stroke-opacity: 0.8; stroke-width: 0.8"/>
    </g>
   </g>
   <g id="patch_3">
    <path d="M 156.452207 505.059475 
L 215.698408 695.85849 
L 231.58338 705.647746 
L 270.414998 713.8775 
L 288.14989 678.472902 
L 321.975115 579.942261 
L 317.856483 557.171619 
L 301.17261 529.031127 
L 278.270835 502.167784 
L 253.560622 477.642535 
L 189.827509 482.470852 
z
" clip-path="url(#pd8452230ef)" style="fill: #2e7d32; opacity: 0.08"/>
   </g>
   <g id="PathCollection_2">
    <defs>
     <path id="me08c7a57a9" d="M 0 5 
C 1.326016 5 2.597899 4.473168 3.535534 3.535534 
C 4.473168 2.597899 5 1.326016 5 0 
C 5 -1.326016 4.473168 -2.597899 3.535534 -3.535534 
C 2.597899 -4.473168 1.326016 -5 0 -5 
C -1.326016 -5 -2.597899 -4.473168 -3.535534 -3.535534 
C -4.473168 -2.597899 -5 -1.326016 -5 0 
C -5 1.326016 -4.473168 2.597899 -3.535534 3.535534 
C -2.597899 4.473168 -1.326016 5 0 5 
z
" style="stroke: #ffffff; stroke-opacity: 0.8; stroke-width: 0.8"/>
    </defs>
    <g clip-path="url(#pd8452230ef)">
     <use xlink:href="#me08c7a57a9" x="769.270784" y="591.011149" style="fill: #c62828; fill-opacity: 0.8; stroke: #ffffff; stroke-opacity: 0.8; stroke-width: 0.8"/>
     <use xlink:href="#me08c7a57a9" x="920.744168" y="617.789361" style="fill: #c62828; fill-opacity: 0.8; stroke: #ffffff; stroke-opacity: 0.8; stroke-width: 0.8"/>
     <use xlink:href="#me08c7a57a9" x="933.225412" y="608.625375" style="fill: #c62828; fill-opacity: 0.8; stroke: #ffffff; stroke-opacity: 0.8; stroke-width: 0.8"/>
     <use xlink:href="#me08c7a57a9" x="770.196447" y="607.064331" style="fill: #c62828; fill-opacity: 0.8; stroke: #ffffff; stroke-opacity: 0.8; stroke-width: 0.8"/>
     <use xlink:href="#me08c7a57a9" x="824.68293" y="635.136447" style="fill: #c62828; fill-opacity: 0.8; stroke: #ffffff; stroke-opacity: 0.8; stroke-width: 0.8"/>
     <use xlink:href="#me08c7a57a9" x="936.676065" y="603.536944" style="fill: #c62828; fill-opacity: 0.8; stroke: #ffffff; stroke-opacity: 0.8; stroke-width: 0.8"/>
     <use xlink:href="#me08c7a57a9" x="928.145847" y="608.861023" style="fill: #c62828; fill-opacity: 0.8; stroke: #ffffff; stroke-opacity: 0.8; stroke-width: 0.8"/>
     <use xlink:href="#me08c7a57a9" x="909.212135" y="568.698632" style="fill: #c62828; fill-opacity: 0.8; stroke: #ffffff; stroke-opacity: 0.8; stroke-width: 0.8"/>
     <use xlink:href="#me08c7a57a9" x="893.366302" y="555.075466" style="fill: #c62828; fill-opacity: 0.8; stroke: #ffffff; stroke-opacity: 0.8; stroke-width: 0.8"/>
     <use xlink:href="#me08c7a57a9" x="815.073708" y="584.866679" style="fill: #c62828; fill-opacity: 0.8; stroke: #ffffff; stroke-opacity: 0.8; stroke-width: 0.8"/>
     <use xlink:href="#me08c7a57a9" x="890.136164" y="562.92376" style="fill: #c62828; fill-opacity: 0.8; stroke: #ffffff; stroke-opacity: 0.8; stroke-width: 0.8"/>
     <use xlink:href="#me08c7a57a9" x="909.355451" y="659.78493" style="fill: #c62828; fill-opacity: 0.8; stroke: #ffffff; stroke-opacity: 0.8; stroke-width: 0.8"/>
     <use xlink:href="#me08c7a57a9" x="895.85157" y="661.088576" style="fill: #c62828; fill-opacity: 0.8; stroke: #ffffff; stroke-opacity: 0.8; stroke-width: 0.8"/>
     <use xlink:href="#me08c7a57a9" x="870.330333" y="670.107164" style="fill: #c62828; fill-opacity: 0.8; stroke: #ffffff; stroke-opacity: 0.8; stroke-width: 0.8"/>
     <use xlink:href="#me08c7a57a9" x="873.853333" y="627.454341" style="fill: #c62828; fill-opacity: 0.8; stroke: #ffffff; stroke-opacity: 0.8; stroke-width: 0.8"/>
     <use xlink:href="#me08c7a57a9" x="888.725157" y="651.441534" style="fill: #c62828; fill-opacity: 0.8; stroke: #ffffff; stroke-opacity: 0.8; stroke-width: 0.8"/>
     <use xlink:href="#me08c7a57a9" x="870.114606" y="680.376057" style="fill: #c62828; fill-opacity: 0.8; stroke: #ffffff; stroke-opacity: 0.8; stroke-width: 0.8"/>
     <use xlink:href="#me08c7a57a9" x="871.137027" y="645.848235" style="fill: #c62828; fill-opacity: 0.8; stroke: #ffffff; stroke-opacity: 0.8; stroke-width: 0.8"/>
     <use xlink:href="#me08c7a57a9" x="908.111372" y="649.731119" style="fill: #c62828; fill-opacity: 0.8; stroke: #ffffff; stroke-opacity: 0.8; stroke-width: 0.8"/>
     <use xlink:href="#me08c7a57a9" x="851.864951" y="581.946993" style="fill: #c62828; fill-opacity: 0.8; stroke: #ffffff; stroke-opacity: 0.8; stroke-width: 0.8"/>
     <use xlink:href="#me08c7a57a9" x="868.836369" y="577.917316" style="fill: #c62828; fill-opacity: 0.8; stroke: #ffffff; stroke-opacity: 0.8; stroke-width: 0.8"/>
     <use xlink:href="#me08c7a57a9" x="898.569666" y="577.119872" style="fill: #c62828; fill-opacity: 0.8; stroke: #ffffff; stroke-opacity: 0.8; stroke-width: 0.8"/>
     <use xlink:href="#me08c7a57a9" x="876.072414" y="657.195153" style="fill: #c62828; fill-opacity: 0.8; stroke: #ffffff; stroke-opacity: 0.8; stroke-width: 0.8"/>
     <use xlink:href="#me08c7a57a9" x="774.306919" y="610.526655" style="fill: #c62828; fill-opacity: 0.8; stroke: #ffffff; stroke-opacity: 0.8; stroke-width: 0.8"/>
     <use xlink:href="#me08c7a57a9" x="924.120597" y="634.808069" style="fill: #c62828; fill-opacity: 0.8; stroke: #ffffff; stroke-opacity: 0.8; stroke-width: 0.8"/>
     <use xlink:href="#me08c7a57a9" x="866.882873" y="622.732904" style="fill: #c62828; fill-opacity: 0.8; stroke: #ffffff; stroke-opacity: 0.8; stroke-width: 0.8"/>
     <use xlink:href="#me08c7a57a9" x="752.135134" y="608.535211" style="fill: #c62828; fill-opacity: 0.8; stroke: #ffffff; stroke-opacity: 0.8; stroke-width: 0.8"/>
     <use xlink:href="#me08c7a57a9" x="759.896373" y="589.346401" style="fill: #c62828; fill-opacity: 0.8; stroke: #ffffff; stroke-opacity: 0.8; stroke-width: 0.8"/>
     <use xlink:href="#me08c7a57a9" x="887.916415" y="558.300734" style="fill: #c62828; fill-opacity: 0.8; stroke: #ffffff; stroke-opacity: 0.8; stroke-width: 0.8"/>
    </g>
   </g>
   <g id="patch_4">
    <path d="M 729.191053 607.429492 
L 870.76642 693.638507 
L 917.855434 668.929155 
L 935.573609 638.956921 
L 950.64017 601.431571 
L 917.683455 559.625597 
L 898.668455 543.277797 
L 738.504541 584.402919 
z
" clip-path="url(#pd8452230ef)" style="fill: #c62828; opacity: 0.08"/>
   </g>
   <g id="PathCollection_3">
    <defs>
     <path id="m0c7b4319b2" d="M 0 5 
C 1.326016 5 2.597899 4.473168 3.535534 3.535534 
C 4.473168 2.597899 5 1.326016 5 0 
C 5 -1.326016 4.473168 -2.597899 3.535534 -3.535534 
C 2.597899 -4.473168 1.326016 -5 0 -5 
C -1.326016 -5 -2.597899 -4.473168 -3.535534 -3.535534 
C -4.473168 -2.597899 -5 -1.326016 -5 0 
C -5 1.326016 -4.473168 2.597899 -3.535534 3.535534 
C -2.597899 4.473168 -1.326016 5 0 5 
z
" style="stroke: #ffffff; stroke-opacity: 0.8; stroke-width: 0.8"/>
    </defs>
    <g clip-path="url(#pd8452230ef)">
     <use xlink:href="#m0c7b4319b2" x="103.949272" y="205.929941" style="fill: #1565c0; fill-opacity: 0.8; stroke: #ffffff; stroke-opacity: 0.8; stroke-width: 0.8"/>
     <use xlink:href="#m0c7b4319b2" x="119.958368" y="298.275601" style="fill: #1565c0; fill-opacity: 0.8; stroke: #ffffff; stroke-opacity: 0.8; stroke-width: 0.8"/>
     <use xlink:href="#m0c7b4319b2" x="127.279139" y="305.090453" style="fill: #1565c0; fill-opacity: 0.8; stroke: #ffffff; stroke-opacity: 0.8; stroke-width: 0.8"/>
     <use xlink:href="#m0c7b4319b2" x="126.816588" y="189.160932" style="fill: #1565c0; fill-opacity: 0.8; stroke: #ffffff; stroke-opacity: 0.8; stroke-width: 0.8"/>
     <use xlink:href="#m0c7b4319b2" x="128.11173" y="192.932501" style="fill: #1565c0; fill-opacity: 0.8; stroke: #ffffff; stroke-opacity: 0.8; stroke-width: 0.8"/>
     <use xlink:href="#m0c7b4319b2" x="142.394702" y="170.112749" style="fill: #1565c0; fill-opacity: 0.8; stroke: #ffffff; stroke-opacity: 0.8; stroke-width: 0.8"/>
     <use xlink:href="#m0c7b4319b2" x="148.301942" y="188.758847" style="fill: #1565c0; fill-opacity: 0.8; stroke: #ffffff; stroke-opacity: 0.8; stroke-width: 0.8"/>
     <use xlink:href="#m0c7b4319b2" x="299.464803" y="111.300984" style="fill: #1565c0; fill-opacity: 0.8; stroke: #ffffff; stroke-opacity: 0.8; stroke-width: 0.8"/>
     <use xlink:href="#m0c7b4319b2" x="293.840571" y="116.087993" style="fill: #1565c0; fill-opacity: 0.8; stroke: #ffffff; stroke-opacity: 0.8; stroke-width: 0.8"/>
     <use xlink:href="#m0c7b4319b2" x="251.574793" y="204.950152" style="fill: #1565c0; fill-opacity: 0.8; stroke: #ffffff; stroke-opacity: 0.8; stroke-width: 0.8"/>
     <use xlink:href="#m0c7b4319b2" x="227.971731" y="122.586414" style="fill: #1565c0; fill-opacity: 0.8; stroke: #ffffff; stroke-opacity: 0.8; stroke-width: 0.8"/>
     <use xlink:href="#m0c7b4319b2" x="193.702652" y="291.798942" style="fill: #1565c0; fill-opacity: 0.8; stroke: #ffffff; stroke-opacity: 0.8; stroke-width: 0.8"/>
     <use xlink:href="#m0c7b4319b2" x="204.544805" y="294.405759" style="fill: #1565c0; fill-opacity: 0.8; stroke: #ffffff; stroke-opacity: 0.8; stroke-width: 0.8"/>
     <use xlink:href="#m0c7b4319b2" x="157.891606" y="314.335572" style="fill: #1565c0; fill-opacity: 0.8; stroke: #ffffff; stroke-opacity: 0.8; stroke-width: 0.8"/>
     <use xlink:href="#m0c7b4319b2" x="108.795729" y="255.061267" style="fill: #1565c0; fill-opacity: 0.8; stroke: #ffffff; stroke-opacity: 0.8; stroke-width: 0.8"/>
     <use xlink:href="#m0c7b4319b2" x="120.88416" y="295.946212" style="fill: #1565c0; fill-opacity: 0.8; stroke: #ffffff; stroke-opacity: 0.8; stroke-width: 0.8"/>
     <use xlink:href="#m0c7b4319b2" x="141.230411" y="302.109491" style="fill: #1565c0; fill-opacity: 0.8; stroke: #ffffff; stroke-opacity: 0.8; stroke-width: 0.8"/>
     <use xlink:href="#m0c7b4319b2" x="117.124666" y="311.658783" style="fill: #1565c0; fill-opacity: 0.8; stroke: #ffffff; stroke-opacity: 0.8; stroke-width: 0.8"/>
     <use xlink:href="#m0c7b4319b2" x="234.702873" y="173.114452" style="fill: #1565c0; fill-opacity: 0.8; stroke: #ffffff; stroke-opacity: 0.8; stroke-width: 0.8"/>
     <use xlink:href="#m0c7b4319b2" x="244.840762" y="218.094659" style="fill: #1565c0; fill-opacity: 0.8; stroke: #ffffff; stroke-opacity: 0.8; stroke-width: 0.8"/>
     <use xlink:href="#m0c7b4319b2" x="223.791973" y="131.150424" style="fill: #1565c0; fill-opacity: 0.8; stroke: #ffffff; stroke-opacity: 0.8; stroke-width: 0.8"/>
     <use xlink:href="#m0c7b4319b2" x="217.71994" y="108.368366" style="fill: #1565c0; fill-opacity: 0.8; stroke: #ffffff; stroke-opacity: 0.8; stroke-width: 0.8"/>
     <use xlink:href="#m0c7b4319b2" x="192.554727" y="139.968181" style="fill: #1565c0; fill-opacity: 0.8; stroke: #ffffff; stroke-opacity: 0.8; stroke-width: 0.8"/>
     <use xlink:href="#m0c7b4319b2" x="228.586934" y="111.388631" style="fill: #1565c0; fill-opacity: 0.8; stroke: #ffffff; stroke-opacity: 0.8; stroke-width: 0.8"/>
     <use xlink:href="#m0c7b4319b2" x="208.428335" y="115.27119" style="fill: #1565c0; fill-opacity: 0.8; stroke: #ffffff; stroke-opacity: 0.8; stroke-width: 0.8"/>
     <use xlink:href="#m0c7b4319b2" x="218.298959" y="264.245284" style="fill: #1565c0; fill-opacity: 0.8; stroke: #ffffff; stroke-opacity: 0.8; stroke-width: 0.8"/>
     <use xlink:href="#m0c7b4319b2" x="249.654678" y="197.589111" style="fill: #1565c0; fill-opacity: 0.8; stroke: #ffffff; stroke-opacity: 0.8; stroke-width: 0.8"/>
     <use xlink:href="#m0c7b4319b2" x="250.167064" y="205.692237" style="fill: #1565c0; fill-opacity: 0.8; stroke: #ffffff; stroke-opacity: 0.8; stroke-width: 0.8"/>
     <use xlink:href="#m0c7b4319b2" x="238.996187" y="227.277318" style="fill: #1565c0; fill-opacity: 0.8; stroke: #ffffff; stroke-opacity: 0.8; stroke-width: 0.8"/>
     <use xlink:href="#m0c7b4319b2" x="194.802014" y="286.31129" style="fill: #1565c0; fill-opacity: 0.8; stroke: #ffffff; stroke-opacity: 0.8; stroke-width: 0.8"/>
     <use xlink:href="#m0c7b4319b2" x="165.516474" y="146.584968" style="fill: #1565c0; fill-opacity: 0.8; stroke: #ffffff; stroke-opacity: 0.8; stroke-width: 0.8"/>
     <use xlink:href="#m0c7b4319b2" x="305.297345" y="113.213675" style="fill: #1565c0; fill-opacity: 0.8; stroke: #ffffff; stroke-opacity: 0.8; stroke-width: 0.8"/>
     <use xlink:href="#m0c7b4319b2" x="140.65633" y="158.948798" style="fill: #1565c0; fill-opacity: 0.8; stroke: #ffffff; stroke-opacity: 0.8; stroke-width: 0.8"/>
     <use xlink:href="#m0c7b4319b2" x="252.598357" y="105.060994" style="fill: #1565c0; fill-opacity: 0.8; stroke: #ffffff; stroke-opacity: 0.8; stroke-width: 0.8"/>
     <use xlink:href="#m0c7b4319b2" x="219.485591" y="150.975249" style="fill: #1565c0; fill-opacity: 0.8; stroke: #ffffff; stroke-opacity: 0.8; stroke-width: 0.8"/>
     <use xlink:href="#m0c7b4319b2" x="221.00733" y="112.980331" style="fill: #1565c0; fill-opacity: 0.8; stroke: #ffffff; stroke-opacity: 0.8; stroke-width: 0.8"/>
     <use xlink:href="#m0c7b4319b2" x="107.239789" y="192.550147" style="fill: #1565c0; fill-opacity: 0.8; stroke: #ffffff; stroke-opacity: 0.8; stroke-width: 0.8"/>
     <use xlink:href="#m0c7b4319b2" x="153.640881" y="154.336161" style="fill: #1565c0; fill-opacity: 0.8; stroke: #ffffff; stroke-opacity: 0.8; stroke-width: 0.8"/>
     <use xlink:href="#m0c7b4319b2" x="107.841213" y="207.291686" style="fill: #1565c0; fill-opacity: 0.8; stroke: #ffffff; stroke-opacity: 0.8; stroke-width: 0.8"/>
     <use xlink:href="#m0c7b4319b2" x="201.94406" y="91.993371" style="fill: #1565c0; fill-opacity: 0.8; stroke: #ffffff; stroke-opacity: 0.8; stroke-width: 0.8"/>
    </g>
   </g>
   <g id="patch_5">
    <path d="M 102.591552 335.075994 
L 151.51188 338.28814 
L 207.495718 314.372366 
L 328.398767 96.941864 
L 321.399716 94.646635 
L 204.374825 71.4775 
L 90.7297 192.145631 
L 86.78108 208.201384 
L 92.596827 267.158975 
z
" clip-path="url(#pd8452230ef)" style="fill: #1565c0; opacity: 0.08"/>
   </g>
   <g id="matplotlib.axis_1">
    <g id="xtick_1">
     <g id="line2d_1">
      <path d="M 173.967551 745.9975 
L 173.967551 39.3575 
" clip-path="url(#pd8452230ef)" style="fill: none; stroke: #4a4a3d; stroke-opacity: 0.1; stroke-width: 0.5; stroke-linecap: square"/>
     </g>
     <g id="line2d_2">
      <defs>
       <path id="mf06982f8a9" d="M 0 0 
L 0 3.5 
" style="stroke: #666666; stroke-width: 0.8"/>
      </defs>
      <g>
       <use xlink:href="#mf06982f8a9" x="173.967551" y="745.9975" style="fill: #666666; stroke: #666666; stroke-width: 0.8"/>
      </g>
     </g>
     <g id="text_1">
      <!-- −4 -->
      <g style="fill: #666666" transform="translate(166.596457 760.595937) scale(0.1 -0.1)">
       <defs>
        <path id="DejaVuSans-2212" d="M 678 2272 
L 4684 2272 
L 4684 1741 
L 678 1741 
L 678 2272 
z
" transform="scale(0.015625)"/>
        <path id="DejaVuSans-34" d="M 2419 4116 
L 825 1625 
L 2419 1625 
L 2419 4116 
z
M 2253 4666 
L 3047 4666 
L 3047 1625 
L 3713 1625 
L 3713 1100 
L 3047 1100 
L 3047 0 
L 2419 0 
L 2419 1100 
L 313 1100 
L 313 1709 
L 2253 4666 
z
" transform="scale(0.015625)"/>
       </defs>
       <use xlink:href="#DejaVuSans-2212"/>
       <use xlink:href="#DejaVuSans-34" transform="translate(83.789062 0)"/>
      </g>
     </g>
    </g>
    <g id="xtick_2">
     <g id="line2d_3">
      <path d="M 354.860755 745.9975 
L 354.860755 39.3575 
" clip-path="url(#pd8452230ef)" style="fill: none; stroke: #4a4a3d; stroke-opacity: 0.1; stroke-width: 0.5; stroke-linecap: square"/>
     </g>
     <g id="line2d_4">
      <g>
       <use xlink:href="#mf06982f8a9" x="354.860755" y="745.9975" style="fill: #666666; stroke: #666666; stroke-width: 0.8"/>
      </g>
     </g>
     <g id="text_2">
      <!-- −2 -->
      <g style="fill: #666666" transform="translate(347.489661 760.595937) scale(0.1 -0.1)">
       <defs>
        <path id="DejaVuSans-32" d="M 1228 531 
L 3431 531 
L 3431 0 
L 469 0 
L 469 531 
Q 828 903 1448 1529 
Q 2069 2156 2228 2338 
Q 2531 2678 2651 2914 
Q 2772 3150 2772 3378 
Q 2772 3750 2511 3984 
Q 2250 4219 1831 4219 
Q 1534 4219 1204 4116 
Q 875 4013 500 3803 
L 500 4441 
Q 881 4594 1212 4672 
Q 1544 4750 1819 4750 
Q 2544 4750 2975 4387 
Q 3406 4025 3406 3419 
Q 3406 3131 3298 2873 
Q 3191 2616 2906 2266 
Q 2828 2175 2409 1742 
Q 1991 1309 1228 531 
z
" transform="scale(0.015625)"/>
       </defs>
       <use xlink:href="#DejaVuSans-2212"/>
       <use xlink:href="#DejaVuSans-32" transform="translate(83.789062 0)"/>
      </g>
     </g>
    </g>
    <g id="xtick_3">
     <g id="line2d_5">
      <path d="M 535.753959 745.9975 
L 535.753959 39.3575 
" clip-path="url(#pd8452230ef)" style="fill: none; stroke: #4a4a3d; stroke-opacity: 0.1; stroke-width: 0.5; stroke-linecap: square"/>
     </g>
     <g id="line2d_6">
      <g>
       <use xlink:href="#mf06982f8a9" x="535.753959" y="745.9975" style="fill: #666666; stroke: #666666; stroke-width: 0.8"/>
      </g>
     </g>
     <g id="text_3">
      <!-- 0 -->
      <g style="fill: #666666" transform="translate(532.572709 760.595937) scale(0.1 -0.1)">
       <defs>
        <path id="DejaVuSans-30" d="M 2034 4250 
Q 1547 4250 1301 3770 
Q 1056 3291 1056 2328 
Q 1056 1369 1301 889 
Q 1547 409 2034 409 
Q 2525 409 2770 889 
Q 3016 1369 3016 2328 
Q 3016 3291 2770 3770 
Q 2525 4250 2034 4250 
z
M 2034 4750 
Q 2819 4750 3233 4129 
Q 3647 3509 3647 2328 
Q 3647 1150 3233 529 
Q 2819 -91 2034 -91 
Q 1250 -91 836 529 
Q 422 1150 422 2328 
Q 422 3509 836 4129 
Q 1250 4750 2034 4750 
z
" transform="scale(0.015625)"/>
       </defs>
       <use xlink:href="#DejaVuSans-30"/>
      </g>
     </g>
    </g>
    <g id="xtick_4">
     <g id="line2d_7">
      <path d="M 716.647163 745.9975 
L 716.647163 39.3575 
" clip-path="url(#pd8452230ef)" style="fill: none; stroke: #4a4a3d; stroke-opacity: 0.1; stroke-width: 0.5; stroke-linecap: square"/>
     </g>
     <g id="line2d_8">
      <g>
       <use xlink:href="#mf06982f8a9" x="716.647163" y="745.9975" style="fill: #666666; stroke: #666666; stroke-width: 0.8"/>
      </g>
     </g>
     <g id="text_4">
      <!-- 2 -->
      <g style="fill: #666666" transform="translate(713.465913 760.595937) scale(0.1 -0.1)">
       <use xlink:href="#DejaVuSans-32"/>
      </g>
     </g>
    </g>
    <g id="xtick_5">
     <g id="line2d_9">
      <path d="M 897.540366 745.9975 
L 897.540366 39.3575 
" clip-path="url(#pd8452230ef)" style="fill: none; stroke: #4a4a3d; stroke-opacity: 0.1; stroke-width: 0.5; stroke-linecap: square"/>
     </g>
     <g id="line2d_10">
      <g>
       <use xlink:href="#mf06982f8a9" x="897.540366" y="745.9975" style="fill: #666666; stroke: #666666; stroke-width: 0.8"/>
      </g>
     </g>
     <g id="text_5">
      <!-- 4 -->
      <g style="fill: #666666" transform="translate(894.359116 760.595937) scale(0.1 -0.1)">
       <use xlink:href="#DejaVuSans-34"/>
      </g>
     </g>
    </g>
    <g id="text_6">
     <!-- Dimension 1 -->
     <g style="fill: #c5c5b0" transform="translate(484.229063 775.033906) scale(0.11 -0.11)">
      <defs>
       <path id="DejaVuSans-44" d="M 1259 4147 
L 1259 519 
L 2022 519 
Q 2988 519 3436 956 
Q 3884 1394 3884 2338 
Q 3884 3275 3436 3711 
Q 2988 4147 2022 4147 
L 1259 4147 
z
M 628 4666 
L 1925 4666 
Q 3281 4666 3915 4102 
Q 4550 3538 4550 2338 
Q 4550 1131 3912 565 
Q 3275 0 1925 0 
L 628 0 
L 628 4666 
z
" transform="scale(0.015625)"/>
       <path id="DejaVuSans-69" d="M 603 3500 
L 1178 3500 
L 1178 0 
L 603 0 
L 603 3500 
z
M 603 4863 
L 1178 4863 
L 1178 4134 
L 603 4134 
L 603 4863 
z
" transform="scale(0.015625)"/>
       <path id="DejaVuSans-6d" d="M 3328 2828 
Q 3544 3216 3844 3400 
Q 4144 3584 4550 3584 
Q 5097 3584 5394 3201 
Q 5691 2819 5691 2113 
L 5691 0 
L 5113 0 
L 5113 2094 
Q 5113 2597 4934 2840 
Q 4756 3084 4391 3084 
Q 3944 3084 3684 2787 
Q 3425 2491 3425 1978 
L 3425 0 
L 2847 0 
L 2847 2094 
Q 2847 2600 2669 2842 
Q 2491 3084 2119 3084 
Q 1678 3084 1418 2786 
Q 1159 2488 1159 1978 
L 1159 0 
L 581 0 
L 581 3500 
L 1159 3500 
L 1159 2956 
Q 1356 3278 1631 3431 
Q 1906 3584 2284 3584 
Q 2666 3584 2933 3390 
Q 3200 3197 3328 2828 
z
" transform="scale(0.015625)"/>
       <path id="DejaVuSans-65" d="M 3597 1894 
L 3597 1613 
L 953 1613 
Q 991 1019 1311 708 
Q 1631 397 2203 397 
Q 2534 397 2845 478 
Q 3156 559 3463 722 
L 3463 178 
Q 3153 47 2828 -22 
Q 2503 -91 2169 -91 
Q 1331 -91 842 396 
Q 353 884 353 1716 
Q 353 2575 817 3079 
Q 1281 3584 2069 3584 
Q 2775 3584 3186 3129 
Q 3597 2675 3597 1894 
z
M 3022 2063 
Q 3016 2534 2758 2815 
Q 2500 3097 2075 3097 
Q 1594 3097 1305 2825 
Q 1016 2553 972 2059 
L 3022 2063 
z
" transform="scale(0.015625)"/>
       <path id="DejaVuSans-6e" d="M 3513 2113 
L 3513 0 
L 2938 0 
L 2938 2094 
Q 2938 2591 2744 2837 
Q 2550 3084 2163 3084 
Q 1697 3084 1428 2787 
Q 1159 2491 1159 1978 
L 1159 0 
L 581 0 
L 581 3500 
L 1159 3500 
L 1159 2956 
Q 1366 3272 1645 3428 
Q 1925 3584 2291 3584 
Q 2894 3584 3203 3211 
Q 3513 2838 3513 2113 
z
" transform="scale(0.015625)"/>
       <path id="DejaVuSans-73" d="M 2834 3397 
L 2834 2853 
Q 2591 2978 2328 3040 
Q 2066 3103 1784 3103 
Q 1356 3103 1142 2972 
Q 928 2841 928 2578 
Q 928 2378 1081 2264 
Q 1234 2150 1697 2047 
L 1894 2003 
Q 2506 1872 2764 1633 
Q 3022 1394 3022 966 
Q 3022 478 2636 193 
Q 2250 -91 1575 -91 
Q 1294 -91 989 -36 
Q 684 19 347 128 
L 347 722 
Q 666 556 975 473 
Q 1284 391 1588 391 
Q 1994 391 2212 530 
Q 2431 669 2431 922 
Q 2431 1156 2273 1281 
Q 2116 1406 1581 1522 
L 1381 1569 
Q 847 1681 609 1914 
Q 372 2147 372 2553 
Q 372 3047 722 3315 
Q 1072 3584 1716 3584 
Q 2034 3584 2315 3537 
Q 2597 3491 2834 3397 
z
" transform="scale(0.015625)"/>
       <path id="DejaVuSans-6f" d="M 1959 3097 
Q 1497 3097 1228 2736 
Q 959 2375 959 1747 
Q 959 1119 1226 758 
Q 1494 397 1959 397 
Q 2419 397 2687 759 
Q 2956 1122 2956 1747 
Q 2956 2369 2687 2733 
Q 2419 3097 1959 3097 
z
M 1959 3584 
Q 2709 3584 3137 3096 
Q 3566 2609 3566 1747 
Q 3566 888 3137 398 
Q 2709 -91 1959 -91 
Q 1206 -91 779 398 
Q 353 888 353 1747 
Q 353 2609 779 3096 
Q 1206 3584 1959 3584 
z
" transform="scale(0.015625)"/>
       <path id="DejaVuSans-20" transform="scale(0.015625)"/>
       <path id="DejaVuSans-31" d="M 794 531 
L 1825 531 
L 1825 4091 
L 703 3866 
L 703 4441 
L 1819 4666 
L 2450 4666 
L 2450 531 
L 3481 531 
L 3481 0 
L 794 0 
L 794 531 
z
" transform="scale(0.015625)"/>
      </defs>
      <use xlink:href="#DejaVuSans-44"/>
      <use xlink:href="#DejaVuSans-69" transform="translate(77.001953 0)"/>
      <use xlink:href="#DejaVuSans-6d" transform="translate(104.785156 0)"/>
      <use xlink:href="#DejaVuSans-65" transform="translate(202.197266 0)"/>
      <use xlink:href="#DejaVuSans-6e" transform="translate(263.720703 0)"/>
      <use xlink:href="#DejaVuSans-73" transform="translate(327.099609 0)"/>
      <use xlink:href="#DejaVuSans-69" transform="translate(379.199219 0)"/>
      <use xlink:href="#DejaVuSans-6f" transform="translate(406.982422 0)"/>
      <use xlink:href="#DejaVuSans-6e" transform="translate(468.164062 0)"/>
      <use xlink:href="#DejaVuSans-20" transform="translate(531.542969 0)"/>
      <use xlink:href="#DejaVuSans-31" transform="translate(563.330078 0)"/>
     </g>
    </g>
   </g>
   <g id="matplotlib.axis_2">
    <g id="ytick_1">
     <g id="line2d_11">
      <path d="M 43.588125 642.801861 
L 993.833125 642.801861 
" clip-path="url(#pd8452230ef)" style="fill: none; stroke: #4a4a3d; stroke-opacity: 0.1; stroke-width: 0.5; stroke-linecap: square"/>
     </g>
     <g id="line2d_12">
      <defs>
       <path id="mcb82c93604" d="M 0 0 
L -3.5 0 
" style="stroke: #666666; stroke-width: 0.8"/>
      </defs>
      <g>
       <use xlink:href="#mcb82c93604" x="43.588125" y="642.801861" style="fill: #666666; stroke: #666666; stroke-width: 0.8"/>
      </g>
     </g>
     <g id="text_7">
      <!-- −4 -->
      <g style="fill: #666666" transform="translate(21.845938 646.60108) scale(0.1 -0.1)">
       <use xlink:href="#DejaVuSans-2212"/>
       <use xlink:href="#DejaVuSans-34" transform="translate(83.789062 0)"/>
      </g>
     </g>
    </g>
    <g id="ytick_2">
     <g id="line2d_13">
      <path d="M 43.588125 538.305323 
L 993.833125 538.305323 
" clip-path="url(#pd8452230ef)" style="fill: none; stroke: #4a4a3d; stroke-opacity: 0.1; stroke-width: 0.5; stroke-linecap: square"/>
     </g>
     <g id="line2d_14">
      <g>
       <use xlink:href="#mcb82c93604" x="43.588125" y="538.305323" style="fill: #666666; stroke: #666666; stroke-width: 0.8"/>
      </g>
     </g>
     <g id="text_8">
      <!-- −2 -->
      <g style="fill: #666666" transform="translate(21.845938 542.104542) scale(0.1 -0.1)">
       <use xlink:href="#DejaVuSans-2212"/>
       <use xlink:href="#DejaVuSans-32" transform="translate(83.789062 0)"/>
      </g>
     </g>
    </g>
    <g id="ytick_3">
     <g id="line2d_15">
      <path d="M 43.588125 433.808786 
L 993.833125 433.808786 
" clip-path="url(#pd8452230ef)" style="fill: none; stroke: #4a4a3d; stroke-opacity: 0.1; stroke-width: 0.5; stroke-linecap: square"/>
     </g>
     <g id="line2d_16">
      <g>
       <use xlink:href="#mcb82c93604" x="43.588125" y="433.808786" style="fill: #666666; stroke: #666666; stroke-width: 0.8"/>
      </g>
     </g>
     <g id="text_9">
      <!-- 0 -->
      <g style="fill: #666666" transform="translate(30.225625 437.608005) scale(0.1 -0.1)">
       <use xlink:href="#DejaVuSans-30"/>
      </g>
     </g>
    </g>
    <g id="ytick_4">
     <g id="line2d_17">
      <path d="M 43.588125 329.312248 
L 993.833125 329.312248 
" clip-path="url(#pd8452230ef)" style="fill: none; stroke: #4a4a3d; stroke-opacity: 0.1; stroke-width: 0.5; stroke-linecap: square"/>
     </g>
     <g id="line2d_18">
      <g>
       <use xlink:href="#mcb82c93604" x="43.588125" y="329.312248" style="fill: #666666; stroke: #666666; stroke-width: 0.8"/>
      </g>
     </g>
     <g id="text_10">
      <!-- 2 -->
      <g style="fill: #666666" transform="translate(30.225625 333.111467) scale(0.1 -0.1)">
       <use xlink:href="#DejaVuSans-32"/>
      </g>
     </g>
    </g>
    <g id="ytick_5">
     <g id="line2d_19">
      <path d="M 43.588125 224.815711 
L 993.833125 224.815711 
" clip-path="url(#pd8452230ef)" style="fill: none; stroke: #4a4a3d; stroke-opacity: 0.1; stroke-width: 0.5; stroke-linecap: square"/>
     </g>
     <g id="line2d_20">
      <g>
       <use xlink:href="#mcb82c93604" x="43.588125" y="224.815711" style="fill: #666666; stroke: #666666; stroke-width: 0.8"/>
      </g>
     </g>
     <g id="text_11">
      <!-- 4 -->
      <g style="fill: #666666" transform="translate(30.225625 228.61493) scale(0.1 -0.1)">
       <use xlink:href="#DejaVuSans-34"/>
      </g>
     </g>
    </g>
    <g id="ytick_6">
     <g id="line2d_21">
      <path d="M 43.588125 120.319173 
L 993.833125 120.319173 
" clip-path="url(#pd8452230ef)" style="fill: none; stroke: #4a4a3d; stroke-opacity: 0.1; stroke-width: 0.5; stroke-linecap: square"/>
     </g>
     <g id="line2d_22">
      <g>
       <use xlink:href="#mcb82c93604" x="43.588125" y="120.319173" style="fill: #666666; stroke: #666666; stroke-width: 0.8"/>
      </g>
     </g>
     <g id="text_12">
      <!-- 6 -->
      <g style="fill: #666666" transform="translate(30.225625 124.118392) scale(0.1 -0.1)">
       <defs>
        <path id="DejaVuSans-36" d="M 2113 2584 
Q 1688 2584 1439 2293 
Q 1191 2003 1191 1497 
Q 1191 994 1439 701 
Q 1688 409 2113 409 
Q 2538 409 2786 701 
Q 3034 994 3034 1497 
Q 3034 2003 2786 2293 
Q 2538 2584 2113 2584 
z
M 3366 4563 
L 3366 3988 
Q 3128 4100 2886 4159 
Q 2644 4219 2406 4219 
Q 1781 4219 1451 3797 
Q 1122 3375 1075 2522 
Q 1259 2794 1537 2939 
Q 1816 3084 2150 3084 
Q 2853 3084 3261 2657 
Q 3669 2231 3669 1497 
Q 3669 778 3244 343 
Q 2819 -91 2113 -91 
Q 1303 -91 875 529 
Q 447 1150 447 2328 
Q 447 3434 972 4092 
Q 1497 4750 2381 4750 
Q 2619 4750 2861 4703 
Q 3103 4656 3366 4563 
z
" transform="scale(0.015625)"/>
       </defs>
       <use xlink:href="#DejaVuSans-36"/>
      </g>
     </g>
    </g>
    <g id="text_13">
     <!-- Dimension 2 -->
     <g style="fill: #c5c5b0" transform="translate(15.558281 427.159062) rotate(-90) scale(0.11 -0.11)">
      <use xlink:href="#DejaVuSans-44"/>
      <use xlink:href="#DejaVuSans-69" transform="translate(77.001953 0)"/>
      <use xlink:href="#DejaVuSans-6d" transform="translate(104.785156 0)"/>
      <use xlink:href="#DejaVuSans-65" transform="translate(202.197266 0)"/>
      <use xlink:href="#DejaVuSans-6e" transform="translate(263.720703 0)"/>
      <use xlink:href="#DejaVuSans-73" transform="translate(327.099609 0)"/>
      <use xlink:href="#DejaVuSans-69" transform="translate(379.199219 0)"/>
      <use xlink:href="#DejaVuSans-6f" transform="translate(406.982422 0)"/>
      <use xlink:href="#DejaVuSans-6e" transform="translate(468.164062 0)"/>
      <use xlink:href="#DejaVuSans-20" transform="translate(531.542969 0)"/>
      <use xlink:href="#DejaVuSans-32" transform="translate(563.330078 0)"/>
     </g>
    </g>
   </g>
   <g id="line2d_23">
    <path d="M 215.698408 695.85849 
L 156.452207 505.059475 
" clip-path="url(#pd8452230ef)" style="fill: none; stroke: #2e7d32; stroke-opacity: 0.3; stroke-width: 2; stroke-linecap: square"/>
   </g>
   <g id="line2d_24">
    <path d="M 288.14989 678.472902 
L 321.975115 579.942261 
" clip-path="url(#pd8452230ef)" style="fill: none; stroke: #2e7d32; stroke-opacity: 0.3; stroke-width: 2; stroke-linecap: square"/>
   </g>
   <g id="line2d_25">
    <path d="M 288.14989 678.472902 
L 270.414998 713.8775 
" clip-path="url(#pd8452230ef)" style="fill: none; stroke: #2e7d32; stroke-opacity: 0.3; stroke-width: 2; stroke-linecap: square"/>
   </g>
   <g id="line2d_26">
    <path d="M 189.827509 482.470852 
L 156.452207 505.059475 
" clip-path="url(#pd8452230ef)" style="fill: none; stroke: #2e7d32; stroke-opacity: 0.3; stroke-width: 2; stroke-linecap: square"/>
   </g>
   <g id="line2d_27">
    <path d="M 189.827509 482.470852 
L 253.560622 477.642535 
" clip-path="url(#pd8452230ef)" style="fill: none; stroke: #2e7d32; stroke-opacity: 0.3; stroke-width: 2; stroke-linecap: square"/>
   </g>
   <g id="line2d_28">
    <path d="M 231.58338 705.647746 
L 270.414998 713.8775 
" clip-path="url(#pd8452230ef)" style="fill: none; stroke: #2e7d32; stroke-opacity: 0.3; stroke-width: 2; stroke-linecap: square"/>
   </g>
   <g id="line2d_29">
    <path d="M 231.58338 705.647746 
L 215.698408 695.85849 
" clip-path="url(#pd8452230ef)" style="fill: none; stroke: #2e7d32; stroke-opacity: 0.3; stroke-width: 2; stroke-linecap: square"/>
   </g>
   <g id="line2d_30">
    <path d="M 317.856483 557.171619 
L 321.975115 579.942261 
" clip-path="url(#pd8452230ef)" style="fill: none; stroke: #2e7d32; stroke-opacity: 0.3; stroke-width: 2; stroke-linecap: square"/>
   </g>
   <g id="line2d_31">
    <path d="M 317.856483 557.171619 
L 301.17261 529.031127 
" clip-path="url(#pd8452230ef)" style="fill: none; stroke: #2e7d32; stroke-opacity: 0.3; stroke-width: 2; stroke-linecap: square"/>
   </g>
   <g id="line2d_32">
    <path d="M 278.270835 502.167784 
L 253.560622 477.642535 
" clip-path="url(#pd8452230ef)" style="fill: none; stroke: #2e7d32; stroke-opacity: 0.3; stroke-width: 2; stroke-linecap: square"/>
   </g>
   <g id="line2d_33">
    <path d="M 278.270835 502.167784 
L 301.17261 529.031127 
" clip-path="url(#pd8452230ef)" style="fill: none; stroke: #2e7d32; stroke-opacity: 0.3; stroke-width: 2; stroke-linecap: square"/>
   </g>
   <g id="line2d_34">
    <path d="M 870.76642 693.638507 
L 729.191053 607.429492 
" clip-path="url(#pd8452230ef)" style="fill: none; stroke: #c62828; stroke-opacity: 0.3; stroke-width: 2; stroke-linecap: square"/>
   </g>
   <g id="line2d_35">
    <path d="M 917.855434 668.929155 
L 870.76642 693.638507 
" clip-path="url(#pd8452230ef)" style="fill: none; stroke: #c62828; stroke-opacity: 0.3; stroke-width: 2; stroke-linecap: square"/>
   </g>
   <g id="line2d_36">
    <path d="M 738.504541 584.402919 
L 729.191053 607.429492 
" clip-path="url(#pd8452230ef)" style="fill: none; stroke: #c62828; stroke-opacity: 0.3; stroke-width: 2; stroke-linecap: square"/>
   </g>
   <g id="line2d_37">
    <path d="M 738.504541 584.402919 
L 898.668455 543.277797 
" clip-path="url(#pd8452230ef)" style="fill: none; stroke: #c62828; stroke-opacity: 0.3; stroke-width: 2; stroke-linecap: square"/>
   </g>
   <g id="line2d_38">
    <path d="M 917.683455 559.625597 
L 950.64017 601.431571 
" clip-path="url(#pd8452230ef)" style="fill: none; stroke: #c62828; stroke-opacity: 0.3; stroke-width: 2; stroke-linecap: square"/>
   </g>
   <g id="line2d_39">
    <path d="M 917.683455 559.625597 
L 898.668455 543.277797 
" clip-path="url(#pd8452230ef)" style="fill: none; stroke: #c62828; stroke-opacity: 0.3; stroke-width: 2; stroke-linecap: square"/>
   </g>
   <g id="line2d_40">
    <path d="M 935.573609 638.956921 
L 950.64017 601.431571 
" clip-path="url(#pd8452230ef)" style="fill: none; stroke: #c62828; stroke-opacity: 0.3; stroke-width: 2; stroke-linecap: square"/>
   </g>
   <g id="line2d_41">
    <path d="M 935.573609 638.956921 
L 917.855434 668.929155 
" clip-path="url(#pd8452230ef)" style="fill: none; stroke: #c62828; stroke-opacity: 0.3; stroke-width: 2; stroke-linecap: square"/>
   </g>
   <g id="line2d_42">
    <path d="M 102.591552 335.075994 
L 151.51188 338.28814 
" clip-path="url(#pd8452230ef)" style="fill: none; stroke: #1565c0; stroke-opacity: 0.3; stroke-width: 2; stroke-linecap: square"/>
   </g>
   <g id="line2d_43">
    <path d="M 207.495718 314.372366 
L 328.398767 96.941864 
" clip-path="url(#pd8452230ef)" style="fill: none; stroke: #1565c0; stroke-opacity: 0.3; stroke-width: 2; stroke-linecap: square"/>
   </g>
   <g id="line2d_44">
    <path d="M 207.495718 314.372366 
L 151.51188 338.28814 
" clip-path="url(#pd8452230ef)" style="fill: none; stroke: #1565c0; stroke-opacity: 0.3; stroke-width: 2; stroke-linecap: square"/>
   </g>
   <g id="line2d_45">
    <path d="M 90.7297 192.145631 
L 86.78108 208.201384 
" clip-path="url(#pd8452230ef)" style="fill: none; stroke: #1565c0; stroke-opacity: 0.3; stroke-width: 2; stroke-linecap: square"/>
   </g>
   <g id="line2d_46">
    <path d="M 90.7297 192.145631 
L 204.374825 71.4775 
" clip-path="url(#pd8452230ef)" style="fill: none; stroke: #1565c0; stroke-opacity: 0.3; stroke-width: 2; stroke-linecap: square"/>
   </g>
   <g id="line2d_47">
    <path d="M 321.399716 94.646635 
L 328.398767 96.941864 
" clip-path="url(#pd8452230ef)" style="fill: none; stroke: #1565c0; stroke-opacity: 0.3; stroke-width: 2; stroke-linecap: square"/>
   </g>
   <g id="line2d_48">
    <path d="M 321.399716 94.646635 
L 204.374825 71.4775 
" clip-path="url(#pd8452230ef)" style="fill: none; stroke: #1565c0; stroke-opacity: 0.3; stroke-width: 2; stroke-linecap: square"/>
   </g>
   <g id="line2d_49">
    <path d="M 92.596827 267.158975 
L 86.78108 208.201384 
" clip-path="url(#pd8452230ef)" style="fill: none; stroke: #1565c0; stroke-opacity: 0.3; stroke-width: 2; stroke-linecap: square"/>
   </g>
   <g id="line2d_50">
    <path d="M 92.596827 267.158975 
L 102.591552 335.075994 
" clip-path="url(#pd8452230ef)" style="fill: none; stroke: #1565c0; stroke-opacity: 0.3; stroke-width: 2; stroke-linecap: square"/>
   </g>
   <g id="patch_6">
    <path d="M 43.588125 745.9975 
L 43.588125 39.3575 
" style="fill: none; stroke: #4a4a3d; stroke-width: 0.5; stroke-linejoin: miter; stroke-linecap: square"/>
   </g>
   <g id="patch_7">
    <path d="M 993.833125 745.9975 
L 993.833125 39.3575 
" style="fill: none; stroke: #4a4a3d; stroke-width: 0.5; stroke-linejoin: miter; stroke-linecap: square"/>
   </g>
   <g id="patch_8">
    <path d="M 43.588125 745.9975 
L 993.833125 745.9975 
" style="fill: none; stroke: #4a4a3d; stroke-width: 0.5; stroke-linejoin: miter; stroke-linecap: square"/>
   </g>
   <g id="patch_9">
    <path d="M 43.588125 39.3575 
L 993.833125 39.3575 
" style="fill: none; stroke: #4a4a3d; stroke-width: 0.5; stroke-linejoin: miter; stroke-linecap: square"/>
   </g>
   <g id="text_14">
    <g id="patch_10">
     <path d="M 178.870276 597.493797 
L 309.939026 597.493797 
Q 313.939026 597.493797 313.939026 593.493797 
L 313.939026 583.815672 
Q 313.939026 579.815672 309.939026 579.815672 
L 178.870276 579.815672 
Q 174.870276 579.815672 174.870276 583.815672 
L 174.870276 593.493797 
Q 174.870276 597.493797 178.870276 597.493797 
z
" style="fill: #1a1a1d; opacity: 0.8; stroke: #2e7d32; stroke-width: 1.5; stroke-linejoin: miter"/>
    </g>
    <!-- Mixed Stirred Cocktails -->
    <g style="fill: #ffffff; opacity: 0.9" transform="translate(178.870276 591.41411) scale(0.1 -0.1)">
     <defs>
      <path id="DejaVuSans-Bold-4d" d="M 588 4666 
L 2119 4666 
L 3181 2169 
L 4250 4666 
L 5778 4666 
L 5778 0 
L 4641 0 
L 4641 3413 
L 3566 897 
L 2803 897 
L 1728 3413 
L 1728 0 
L 588 0 
L 588 4666 
z
" transform="scale(0.015625)"/>
      <path id="DejaVuSans-Bold-69" d="M 538 3500 
L 1656 3500 
L 1656 0 
L 538 0 
L 538 3500 
z
M 538 4863 
L 1656 4863 
L 1656 3950 
L 538 3950 
L 538 4863 
z
" transform="scale(0.015625)"/>
      <path id="DejaVuSans-Bold-78" d="M 1422 1791 
L 159 3500 
L 1344 3500 
L 2059 2463 
L 2784 3500 
L 3969 3500 
L 2706 1797 
L 4031 0 
L 2847 0 
L 2059 1106 
L 1281 0 
L 97 0 
L 1422 1791 
z
" transform="scale(0.015625)"/>
      <path id="DejaVuSans-Bold-65" d="M 4031 1759 
L 4031 1441 
L 1416 1441 
Q 1456 1047 1700 850 
Q 1944 653 2381 653 
Q 2734 653 3104 758 
Q 3475 863 3866 1075 
L 3866 213 
Q 3469 63 3072 -14 
Q 2675 -91 2278 -91 
Q 1328 -91 801 392 
Q 275 875 275 1747 
Q 275 2603 792 3093 
Q 1309 3584 2216 3584 
Q 3041 3584 3536 3087 
Q 4031 2591 4031 1759 
z
M 2881 2131 
Q 2881 2450 2695 2645 
Q 2509 2841 2209 2841 
Q 1884 2841 1681 2658 
Q 1478 2475 1428 2131 
L 2881 2131 
z
" transform="scale(0.015625)"/>
      <path id="DejaVuSans-Bold-64" d="M 2919 2988 
L 2919 4863 
L 4044 4863 
L 4044 0 
L 2919 0 
L 2919 506 
Q 2688 197 2409 53 
Q 2131 -91 1766 -91 
Q 1119 -91 703 423 
Q 288 938 288 1747 
Q 288 2556 703 3070 
Q 1119 3584 1766 3584 
Q 2128 3584 2408 3439 
Q 2688 3294 2919 2988 
z
M 2181 722 
Q 2541 722 2730 984 
Q 2919 1247 2919 1747 
Q 2919 2247 2730 2509 
Q 2541 2772 2181 2772 
Q 1825 2772 1636 2509 
Q 1447 2247 1447 1747 
Q 1447 1247 1636 984 
Q 1825 722 2181 722 
z
" transform="scale(0.015625)"/>
      <path id="DejaVuSans-Bold-20" transform="scale(0.015625)"/>
      <path id="DejaVuSans-Bold-53" d="M 3834 4519 
L 3834 3531 
Q 3450 3703 3084 3790 
Q 2719 3878 2394 3878 
Q 1963 3878 1756 3759 
Q 1550 3641 1550 3391 
Q 1550 3203 1689 3098 
Q 1828 2994 2194 2919 
L 2706 2816 
Q 3484 2659 3812 2340 
Q 4141 2022 4141 1434 
Q 4141 663 3683 286 
Q 3225 -91 2284 -91 
Q 1841 -91 1394 -6 
Q 947 78 500 244 
L 500 1259 
Q 947 1022 1364 901 
Q 1781 781 2169 781 
Q 2563 781 2772 912 
Q 2981 1044 2981 1288 
Q 2981 1506 2839 1625 
Q 2697 1744 2272 1838 
L 1806 1941 
Q 1106 2091 782 2419 
Q 459 2747 459 3303 
Q 459 4000 909 4375 
Q 1359 4750 2203 4750 
Q 2588 4750 2994 4692 
Q 3400 4634 3834 4519 
z
" transform="scale(0.015625)"/>
      <path id="DejaVuSans-Bold-74" d="M 1759 4494 
L 1759 3500 
L 2913 3500 
L 2913 2700 
L 1759 2700 
L 1759 1216 
Q 1759 972 1856 886 
Q 1953 800 2241 800 
L 2816 800 
L 2816 0 
L 1856 0 
Q 1194 0 917 276 
Q 641 553 641 1216 
L 641 2700 
L 84 2700 
L 84 3500 
L 641 3500 
L 641 4494 
L 1759 4494 
z
" transform="scale(0.015625)"/>
      <path id="DejaVuSans-Bold-72" d="M 3138 2547 
Q 2991 2616 2845 2648 
Q 2700 2681 2553 2681 
Q 2122 2681 1889 2404 
Q 1656 2128 1656 1613 
L 1656 0 
L 538 0 
L 538 3500 
L 1656 3500 
L 1656 2925 
Q 1872 3269 2151 3426 
Q 2431 3584 2822 3584 
Q 2878 3584 2943 3579 
Q 3009 3575 3134 3559 
L 3138 2547 
z
" transform="scale(0.015625)"/>
      <path id="DejaVuSans-Bold-43" d="M 4288 256 
Q 3956 84 3597 -3 
Q 3238 -91 2847 -91 
Q 1681 -91 1000 561 
Q 319 1213 319 2328 
Q 319 3447 1000 4098 
Q 1681 4750 2847 4750 
Q 3238 4750 3597 4662 
Q 3956 4575 4288 4403 
L 4288 3438 
Q 3953 3666 3628 3772 
Q 3303 3878 2944 3878 
Q 2300 3878 1931 3465 
Q 1563 3053 1563 2328 
Q 1563 1606 1931 1193 
Q 2300 781 2944 781 
Q 3303 781 3628 887 
Q 3953 994 4288 1222 
L 4288 256 
z
" transform="scale(0.015625)"/>
      <path id="DejaVuSans-Bold-6f" d="M 2203 2784 
Q 1831 2784 1636 2517 
Q 1441 2250 1441 1747 
Q 1441 1244 1636 976 
Q 1831 709 2203 709 
Q 2569 709 2762 976 
Q 2956 1244 2956 1747 
Q 2956 2250 2762 2517 
Q 2569 2784 2203 2784 
z
M 2203 3584 
Q 3106 3584 3614 3096 
Q 4122 2609 4122 1747 
Q 4122 884 3614 396 
Q 3106 -91 2203 -91 
Q 1297 -91 786 396 
Q 275 884 275 1747 
Q 275 2609 786 3096 
Q 1297 3584 2203 3584 
z
" transform="scale(0.015625)"/>
      <path id="DejaVuSans-Bold-63" d="M 3366 3391 
L 3366 2478 
Q 3138 2634 2908 2709 
Q 2678 2784 2431 2784 
Q 1963 2784 1702 2511 
Q 1441 2238 1441 1747 
Q 1441 1256 1702 982 
Q 1963 709 2431 709 
Q 2694 709 2930 787 
Q 3166 866 3366 1019 
L 3366 103 
Q 3103 6 2833 -42 
Q 2563 -91 2291 -91 
Q 1344 -91 809 395 
Q 275 881 275 1747 
Q 275 2613 809 3098 
Q 1344 3584 2291 3584 
Q 2566 3584 2833 3536 
Q 3100 3488 3366 3391 
z
" transform="scale(0.015625)"/>
      <path id="DejaVuSans-Bold-6b" d="M 538 4863 
L 1656 4863 
L 1656 2216 
L 2944 3500 
L 4244 3500 
L 2534 1894 
L 4378 0 
L 3022 0 
L 1656 1459 
L 1656 0 
L 538 0 
L 538 4863 
z
" transform="scale(0.015625)"/>
      <path id="DejaVuSans-Bold-61" d="M 2106 1575 
Q 1756 1575 1579 1456 
Q 1403 1338 1403 1106 
Q 1403 894 1545 773 
Q 1688 653 1941 653 
Q 2256 653 2472 879 
Q 2688 1106 2688 1447 
L 2688 1575 
L 2106 1575 
z
M 3816 1997 
L 3816 0 
L 2688 0 
L 2688 519 
Q 2463 200 2181 54 
Q 1900 -91 1497 -91 
Q 953 -91 614 226 
Q 275 544 275 1050 
Q 275 1666 698 1953 
Q 1122 2241 2028 2241 
L 2688 2241 
L 2688 2328 
Q 2688 2594 2478 2717 
Q 2269 2841 1825 2841 
Q 1466 2841 1156 2769 
Q 847 2697 581 2553 
L 581 3406 
Q 941 3494 1303 3539 
Q 1666 3584 2028 3584 
Q 2975 3584 3395 3211 
Q 3816 2838 3816 1997 
z
" transform="scale(0.015625)"/>
      <path id="DejaVuSans-Bold-6c" d="M 538 4863 
L 1656 4863 
L 1656 0 
L 538 0 
L 538 4863 
z
" transform="scale(0.015625)"/>
      <path id="DejaVuSans-Bold-73" d="M 3272 3391 
L 3272 2541 
Q 2913 2691 2578 2766 
Q 2244 2841 1947 2841 
Q 1628 2841 1473 2761 
Q 1319 2681 1319 2516 
Q 1319 2381 1436 2309 
Q 1553 2238 1856 2203 
L 2053 2175 
Q 2913 2066 3209 1816 
Q 3506 1566 3506 1031 
Q 3506 472 3093 190 
Q 2681 -91 1863 -91 
Q 1516 -91 1145 -36 
Q 775 19 384 128 
L 384 978 
Q 719 816 1070 734 
Q 1422 653 1784 653 
Q 2113 653 2278 743 
Q 2444 834 2444 1013 
Q 2444 1163 2330 1236 
Q 2216 1309 1875 1350 
L 1678 1375 
Q 931 1469 631 1722 
Q 331 1975 331 2491 
Q 331 3047 712 3315 
Q 1094 3584 1881 3584 
Q 2191 3584 2531 3537 
Q 2872 3491 3272 3391 
z
" transform="scale(0.015625)"/>
     </defs>
     <use xlink:href="#DejaVuSans-Bold-4d"/>
     <use xlink:href="#DejaVuSans-Bold-69" transform="translate(99.511719 0)"/>
     <use xlink:href="#DejaVuSans-Bold-78" transform="translate(133.789062 0)"/>
     <use xlink:href="#DejaVuSans-Bold-65" transform="translate(198.291016 0)"/>
     <use xlink:href="#DejaVuSans-Bold-64" transform="translate(266.113281 0)"/>
     <use xlink:href="#DejaVuSans-Bold-20" transform="translate(337.695312 0)"/>
     <use xlink:href="#DejaVuSans-Bold-53" transform="translate(372.509766 0)"/>
     <use xlink:href="#DejaVuSans-Bold-74" transform="translate(444.53125 0)"/>
     <use xlink:href="#DejaVuSans-Bold-69" transform="translate(492.333984 0)"/>
     <use xlink:href="#DejaVuSans-Bold-72" transform="translate(526.611328 0)"/>
     <use xlink:href="#DejaVuSans-Bold-72" transform="translate(575.927734 0)"/>
     <use xlink:href="#DejaVuSans-Bold-65" transform="translate(625.244141 0)"/>
     <use xlink:href="#DejaVuSans-Bold-64" transform="translate(693.066406 0)"/>
     <use xlink:href="#DejaVuSans-Bold-20" transform="translate(764.648438 0)"/>
     <use xlink:href="#DejaVuSans-Bold-43" transform="translate(799.462891 0)"/>
     <use xlink:href="#DejaVuSans-Bold-6f" transform="translate(872.851562 0)"/>
     <use xlink:href="#DejaVuSans-Bold-63" transform="translate(941.552734 0)"/>
     <use xlink:href="#DejaVuSans-Bold-6b" transform="translate(1000.830078 0)"/>
     <use xlink:href="#DejaVuSans-Bold-74" transform="translate(1067.333984 0)"/>
     <use xlink:href="#DejaVuSans-Bold-61" transform="translate(1115.136719 0)"/>
     <use xlink:href="#DejaVuSans-Bold-69" transform="translate(1182.617188 0)"/>
     <use xlink:href="#DejaVuSans-Bold-6c" transform="translate(1216.894531 0)"/>
     <use xlink:href="#DejaVuSans-Bold-73" transform="translate(1251.171875 0)"/>
    </g>
   </g>
   <g id="text_15">
    <g id="patch_11">
     <path d="M 800.248504 622.90287 
L 933.462567 622.90287 
Q 937.462567 622.90287 937.462567 618.90287 
L 937.462567 609.224745 
Q 937.462567 605.224745 933.462567 605.224745 
L 800.248504 605.224745 
Q 796.248504 605.224745 796.248504 609.224745 
L 796.248504 618.90287 
Q 796.248504 622.90287 800.248504 622.90287 
z
" style="fill: #1a1a1d; opacity: 0.8; stroke: #c62828; stroke-width: 1.5; stroke-linejoin: miter"/>
    </g>
    <!-- Mixed Shaken Cocktails -->
    <g style="fill: #ffffff; opacity: 0.9" transform="translate(800.248504 616.823183) scale(0.1 -0.1)">
     <defs>
      <path id="DejaVuSans-Bold-68" d="M 4056 2131 
L 4056 0 
L 2931 0 
L 2931 347 
L 2931 1625 
Q 2931 2084 2911 2256 
Q 2891 2428 2841 2509 
Q 2775 2619 2662 2680 
Q 2550 2741 2406 2741 
Q 2056 2741 1856 2470 
Q 1656 2200 1656 1722 
L 1656 0 
L 538 0 
L 538 4863 
L 1656 4863 
L 1656 2988 
Q 1909 3294 2193 3439 
Q 2478 3584 2822 3584 
Q 3428 3584 3742 3212 
Q 4056 2841 4056 2131 
z
" transform="scale(0.015625)"/>
      <path id="DejaVuSans-Bold-6e" d="M 4056 2131 
L 4056 0 
L 2931 0 
L 2931 347 
L 2931 1631 
Q 2931 2084 2911 2256 
Q 2891 2428 2841 2509 
Q 2775 2619 2662 2680 
Q 2550 2741 2406 2741 
Q 2056 2741 1856 2470 
Q 1656 2200 1656 1722 
L 1656 0 
L 538 0 
L 538 3500 
L 1656 3500 
L 1656 2988 
Q 1909 3294 2193 3439 
Q 2478 3584 2822 3584 
Q 3428 3584 3742 3212 
Q 4056 2841 4056 2131 
z
" transform="scale(0.015625)"/>
     </defs>
     <use xlink:href="#DejaVuSans-Bold-4d"/>
     <use xlink:href="#DejaVuSans-Bold-69" transform="translate(99.511719 0)"/>
     <use xlink:href="#DejaVuSans-Bold-78" transform="translate(133.789062 0)"/>
     <use xlink:href="#DejaVuSans-Bold-65" transform="translate(198.291016 0)"/>
     <use xlink:href="#DejaVuSans-Bold-64" transform="translate(266.113281 0)"/>
     <use xlink:href="#DejaVuSans-Bold-20" transform="translate(337.695312 0)"/>
     <use xlink:href="#DejaVuSans-Bold-53" transform="translate(372.509766 0)"/>
     <use xlink:href="#DejaVuSans-Bold-68" transform="translate(444.53125 0)"/>
     <use xlink:href="#DejaVuSans-Bold-61" transform="translate(515.722656 0)"/>
     <use xlink:href="#DejaVuSans-Bold-6b" transform="translate(583.203125 0)"/>
     <use xlink:href="#DejaVuSans-Bold-65" transform="translate(647.082031 0)"/>
     <use xlink:href="#DejaVuSans-Bold-6e" transform="translate(714.904297 0)"/>
     <use xlink:href="#DejaVuSans-Bold-20" transform="translate(786.095703 0)"/>
     <use xlink:href="#DejaVuSans-Bold-43" transform="translate(820.910156 0)"/>
     <use xlink:href="#DejaVuSans-Bold-6f" transform="translate(894.298828 0)"/>
     <use xlink:href="#DejaVuSans-Bold-63" transform="translate(963 0)"/>
     <use xlink:href="#DejaVuSans-Bold-6b" transform="translate(1022.277344 0)"/>
     <use xlink:href="#DejaVuSans-Bold-74" transform="translate(1088.78125 0)"/>
     <use xlink:href="#DejaVuSans-Bold-61" transform="translate(1136.583984 0)"/>
     <use xlink:href="#DejaVuSans-Bold-69" transform="translate(1204.064453 0)"/>
     <use xlink:href="#DejaVuSans-Bold-6c" transform="translate(1238.341797 0)"/>
     <use xlink:href="#DejaVuSans-Bold-73" transform="translate(1272.619141 0)"/>
    </g>
   </g>
   <g id="text_16">
    <g id="patch_12">
     <path d="M 139.891018 203.41179 
L 239.689456 203.41179 
Q 243.689456 203.41179 243.689456 199.41179 
L 243.689456 189.733665 
Q 243.689456 185.733665 239.689456 185.733665 
L 139.891018 185.733665 
Q 135.891018 185.733665 135.891018 189.733665 
L 135.891018 199.41179 
Q 135.891018 203.41179 139.891018 203.41179 
z
" style="fill: #1a1a1d; opacity: 0.8; stroke: #1565c0; stroke-width: 1.5; stroke-linejoin: miter"/>
    </g>
    <!-- Equal Parts Sours -->
    <g style="fill: #ffffff; opacity: 0.9" transform="translate(139.891018 197.332103) scale(0.1 -0.1)">
     <defs>
      <path id="DejaVuSans-Bold-45" d="M 588 4666 
L 3834 4666 
L 3834 3756 
L 1791 3756 
L 1791 2888 
L 3713 2888 
L 3713 1978 
L 1791 1978 
L 1791 909 
L 3903 909 
L 3903 0 
L 588 0 
L 588 4666 
z
" transform="scale(0.015625)"/>
      <path id="DejaVuSans-Bold-71" d="M 2181 2772 
Q 1825 2772 1636 2509 
Q 1447 2247 1447 1747 
Q 1447 1247 1636 984 
Q 1825 722 2181 722 
Q 2541 722 2730 984 
Q 2919 1247 2919 1747 
Q 2919 2247 2730 2509 
Q 2541 2772 2181 2772 
z
M 2919 506 
Q 2688 197 2409 53 
Q 2131 -91 1766 -91 
Q 1119 -91 703 423 
Q 288 938 288 1747 
Q 288 2556 703 3067 
Q 1119 3578 1766 3578 
Q 2131 3578 2409 3434 
Q 2688 3291 2919 2981 
L 2919 3500 
L 4044 3500 
L 4044 -1331 
L 2919 -1331 
L 2919 506 
z
" transform="scale(0.015625)"/>
      <path id="DejaVuSans-Bold-75" d="M 500 1363 
L 500 3500 
L 1625 3500 
L 1625 3150 
Q 1625 2866 1622 2436 
Q 1619 2006 1619 1863 
Q 1619 1441 1641 1255 
Q 1663 1069 1716 984 
Q 1784 875 1895 815 
Q 2006 756 2150 756 
Q 2500 756 2700 1025 
Q 2900 1294 2900 1772 
L 2900 3500 
L 4019 3500 
L 4019 0 
L 2900 0 
L 2900 506 
Q 2647 200 2364 54 
Q 2081 -91 1741 -91 
Q 1134 -91 817 281 
Q 500 653 500 1363 
z
" transform="scale(0.015625)"/>
      <path id="DejaVuSans-Bold-50" d="M 588 4666 
L 2584 4666 
Q 3475 4666 3951 4270 
Q 4428 3875 4428 3144 
Q 4428 2409 3951 2014 
Q 3475 1619 2584 1619 
L 1791 1619 
L 1791 0 
L 588 0 
L 588 4666 
z
M 1791 3794 
L 1791 2491 
L 2456 2491 
Q 2806 2491 2997 2661 
Q 3188 2831 3188 3144 
Q 3188 3456 2997 3625 
Q 2806 3794 2456 3794 
L 1791 3794 
z
" transform="scale(0.015625)"/>
     </defs>
     <use xlink:href="#DejaVuSans-Bold-45"/>
     <use xlink:href="#DejaVuSans-Bold-71" transform="translate(68.310547 0)"/>
     <use xlink:href="#DejaVuSans-Bold-75" transform="translate(139.892578 0)"/>
     <use xlink:href="#DejaVuSans-Bold-61" transform="translate(211.083984 0)"/>
     <use xlink:href="#DejaVuSans-Bold-6c" transform="translate(278.564453 0)"/>
     <use xlink:href="#DejaVuSans-Bold-20" transform="translate(312.841797 0)"/>
     <use xlink:href="#DejaVuSans-Bold-50" transform="translate(347.65625 0)"/>
     <use xlink:href="#DejaVuSans-Bold-61" transform="translate(418.322266 0)"/>
     <use xlink:href="#DejaVuSans-Bold-72" transform="translate(485.802734 0)"/>
     <use xlink:href="#DejaVuSans-Bold-74" transform="translate(535.119141 0)"/>
     <use xlink:href="#DejaVuSans-Bold-73" transform="translate(582.921875 0)"/>
     <use xlink:href="#DejaVuSans-Bold-20" transform="translate(642.443359 0)"/>
     <use xlink:href="#DejaVuSans-Bold-53" transform="translate(677.257812 0)"/>
     <use xlink:href="#DejaVuSans-Bold-6f" transform="translate(749.279297 0)"/>
     <use xlink:href="#DejaVuSans-Bold-75" transform="translate(817.980469 0)"/>
     <use xlink:href="#DejaVuSans-Bold-72" transform="translate(889.171875 0)"/>
     <use xlink:href="#DejaVuSans-Bold-73" transform="translate(938.488281 0)"/>
    </g>
   </g>
   <g id="text_17">
    <g id="patch_13">
     <path d="M 528.2239 429.385746 
L 571.3164 429.385746 
Q 572.9164 429.385746 572.9164 427.785746 
L 572.9164 420.043246 
Q 572.9164 418.443246 571.3164 418.443246 
L 528.2239 418.443246 
Q 526.6239 418.443246 526.6239 420.043246 
L 526.6239 427.785746 
Q 526.6239 429.385746 528.2239 429.385746 
z
" style="fill: #2e7d32; opacity: 0.6; stroke: #ffffff; stroke-width: 0.5; stroke-linejoin: miter"/>
    </g>
    <!-- Manhattan -->
    <g style="fill: #ffffff; opacity: 0.95" transform="translate(528.2239 426.121996) scale(0.08 -0.08)">
     <defs>
      <path id="DejaVuSans-4d" d="M 628 4666 
L 1569 4666 
L 2759 1491 
L 3956 4666 
L 4897 4666 
L 4897 0 
L 4281 0 
L 4281 4097 
L 3078 897 
L 2444 897 
L 1241 4097 
L 1241 0 
L 628 0 
L 628 4666 
z
" transform="scale(0.015625)"/>
      <path id="DejaVuSans-61" d="M 2194 1759 
Q 1497 1759 1228 1600 
Q 959 1441 959 1056 
Q 959 750 1161 570 
Q 1363 391 1709 391 
Q 2188 391 2477 730 
Q 2766 1069 2766 1631 
L 2766 1759 
L 2194 1759 
z
M 3341 1997 
L 3341 0 
L 2766 0 
L 2766 531 
Q 2569 213 2275 61 
Q 1981 -91 1556 -91 
Q 1019 -91 701 211 
Q 384 513 384 1019 
Q 384 1609 779 1909 
Q 1175 2209 1959 2209 
L 2766 2209 
L 2766 2266 
Q 2766 2663 2505 2880 
Q 2244 3097 1772 3097 
Q 1472 3097 1187 3025 
Q 903 2953 641 2809 
L 641 3341 
Q 956 3463 1253 3523 
Q 1550 3584 1831 3584 
Q 2591 3584 2966 3190 
Q 3341 2797 3341 1997 
z
" transform="scale(0.015625)"/>
      <path id="DejaVuSans-68" d="M 3513 2113 
L 3513 0 
L 2938 0 
L 2938 2094 
Q 2938 2591 2744 2837 
Q 2550 3084 2163 3084 
Q 1697 3084 1428 2787 
Q 1159 2491 1159 1978 
L 1159 0 
L 581 0 
L 581 4863 
L 1159 4863 
L 1159 2956 
Q 1366 3272 1645 3428 
Q 1925 3584 2291 3584 
Q 2894 3584 3203 3211 
Q 3513 2838 3513 2113 
z
" transform="scale(0.015625)"/>
      <path id="DejaVuSans-74" d="M 1172 4494 
L 1172 3500 
L 2356 3500 
L 2356 3053 
L 1172 3053 
L 1172 1153 
Q 1172 725 1289 603 
Q 1406 481 1766 481 
L 2356 481 
L 2356 0 
L 1766 0 
Q 1100 0 847 248 
Q 594 497 594 1153 
L 594 3053 
L 172 3053 
L 172 3500 
L 594 3500 
L 594 4494 
L 1172 4494 
z
" transform="scale(0.015625)"/>
     </defs>
     <use xlink:href="#DejaVuSans-4d"/>
     <use xlink:href="#DejaVuSans-61" transform="translate(86.279297 0)"/>
     <use xlink:href="#DejaVuSans-6e" transform="translate(147.558594 0)"/>
     <use xlink:href="#DejaVuSans-68" transform="translate(210.9375 0)"/>
     <use xlink:href="#DejaVuSans-61" transform="translate(274.316406 0)"/>
     <use xlink:href="#DejaVuSans-74" transform="translate(335.595703 0)"/>
     <use xlink:href="#DejaVuSans-74" transform="translate(374.804688 0)"/>
     <use xlink:href="#DejaVuSans-61" transform="translate(414.013672 0)"/>
     <use xlink:href="#DejaVuSans-6e" transform="translate(475.292969 0)"/>
    </g>
   </g>
   <g id="text_18">
    <g id="patch_14">
     <path d="M 535.753959 437.072536 
L 563.498959 437.072536 
Q 565.098959 437.072536 565.098959 435.472536 
L 565.098959 427.730036 
Q 565.098959 426.130036 563.498959 426.130036 
L 535.753959 426.130036 
Q 534.153959 426.130036 534.153959 427.730036 
L 534.153959 435.472536 
Q 534.153959 437.072536 535.753959 437.072536 
z
" style="fill: #2e7d32; opacity: 0.6; stroke: #ffffff; stroke-width: 0.5; stroke-linejoin: miter"/>
    </g>
    <!-- Martini -->
    <g style="fill: #ffffff; opacity: 0.95" transform="translate(535.753959 433.808786) scale(0.08 -0.08)">
     <defs>
      <path id="DejaVuSans-72" d="M 2631 2963 
Q 2534 3019 2420 3045 
Q 2306 3072 2169 3072 
Q 1681 3072 1420 2755 
Q 1159 2438 1159 1844 
L 1159 0 
L 581 0 
L 581 3500 
L 1159 3500 
L 1159 2956 
Q 1341 3275 1631 3429 
Q 1922 3584 2338 3584 
Q 2397 3584 2469 3576 
Q 2541 3569 2628 3553 
L 2631 2963 
z
" transform="scale(0.015625)"/>
     </defs>
     <use xlink:href="#DejaVuSans-4d"/>
     <use xlink:href="#DejaVuSans-61" transform="translate(86.279297 0)"/>
     <use xlink:href="#DejaVuSans-72" transform="translate(147.558594 0)"/>
     <use xlink:href="#DejaVuSans-74" transform="translate(188.671875 0)"/>
     <use xlink:href="#DejaVuSans-69" transform="translate(227.880859 0)"/>
     <use xlink:href="#DejaVuSans-6e" transform="translate(255.664062 0)"/>
     <use xlink:href="#DejaVuSans-69" transform="translate(319.042969 0)"/>
    </g>
   </g>
   <g id="text_19">
    <g id="patch_15">
     <path d="M 534.102888 435.026933 
L 590.444138 435.026933 
Q 592.044138 435.026933 592.044138 433.426933 
L 592.044138 425.684433 
Q 592.044138 424.084433 590.444138 424.084433 
L 534.102888 424.084433 
Q 532.502888 424.084433 532.502888 425.684433 
L 532.502888 433.426933 
Q 532.502888 435.026933 534.102888 435.026933 
z
" style="fill: #c62828; opacity: 0.6; stroke: #ffffff; stroke-width: 0.5; stroke-linejoin: miter"/>
    </g>
    <!-- Old Fashioned -->
    <g style="fill: #ffffff; opacity: 0.95" transform="translate(534.102888 431.763183) scale(0.08 -0.08)">
     <defs>
      <path id="DejaVuSans-4f" d="M 2522 4238 
Q 1834 4238 1429 3725 
Q 1025 3213 1025 2328 
Q 1025 1447 1429 934 
Q 1834 422 2522 422 
Q 3209 422 3611 934 
Q 4013 1447 4013 2328 
Q 4013 3213 3611 3725 
Q 3209 4238 2522 4238 
z
M 2522 4750 
Q 3503 4750 4090 4092 
Q 4678 3434 4678 2328 
Q 4678 1225 4090 567 
Q 3503 -91 2522 -91 
Q 1538 -91 948 565 
Q 359 1222 359 2328 
Q 359 3434 948 4092 
Q 1538 4750 2522 4750 
z
" transform="scale(0.015625)"/>
      <path id="DejaVuSans-6c" d="M 603 4863 
L 1178 4863 
L 1178 0 
L 603 0 
L 603 4863 
z
" transform="scale(0.015625)"/>
      <path id="DejaVuSans-64" d="M 2906 2969 
L 2906 4863 
L 3481 4863 
L 3481 0 
L 2906 0 
L 2906 525 
Q 2725 213 2448 61 
Q 2172 -91 1784 -91 
Q 1150 -91 751 415 
Q 353 922 353 1747 
Q 353 2572 751 3078 
Q 1150 3584 1784 3584 
Q 2172 3584 2448 3432 
Q 2725 3281 2906 2969 
z
M 947 1747 
Q 947 1113 1208 752 
Q 1469 391 1925 391 
Q 2381 391 2643 752 
Q 2906 1113 2906 1747 
Q 2906 2381 2643 2742 
Q 2381 3103 1925 3103 
Q 1469 3103 1208 2742 
Q 947 2381 947 1747 
z
" transform="scale(0.015625)"/>
      <path id="DejaVuSans-46" d="M 628 4666 
L 3309 4666 
L 3309 4134 
L 1259 4134 
L 1259 2759 
L 3109 2759 
L 3109 2228 
L 1259 2228 
L 1259 0 
L 628 0 
L 628 4666 
z
" transform="scale(0.015625)"/>
     </defs>
     <use xlink:href="#DejaVuSans-4f"/>
     <use xlink:href="#DejaVuSans-6c" transform="translate(78.710938 0)"/>
     <use xlink:href="#DejaVuSans-64" transform="translate(106.494141 0)"/>
     <use xlink:href="#DejaVuSans-20" transform="translate(169.970703 0)"/>
     <use xlink:href="#DejaVuSans-46" transform="translate(201.757812 0)"/>
     <use xlink:href="#DejaVuSans-61" transform="translate(250.152344 0)"/>
     <use xlink:href="#DejaVuSans-73" transform="translate(311.431641 0)"/>
     <use xlink:href="#DejaVuSans-68" transform="translate(363.53125 0)"/>
     <use xlink:href="#DejaVuSans-69" transform="translate(426.910156 0)"/>
     <use xlink:href="#DejaVuSans-6f" transform="translate(454.693359 0)"/>
     <use xlink:href="#DejaVuSans-6e" transform="translate(515.875 0)"/>
     <use xlink:href="#DejaVuSans-65" transform="translate(579.253906 0)"/>
     <use xlink:href="#DejaVuSans-64" transform="translate(640.777344 0)"/>
    </g>
   </g>
   <g id="text_20">
    <g id="patch_16">
     <path d="M 537.572783 420.571063 
L 568.855283 420.571063 
Q 570.455283 420.571063 570.455283 418.971063 
L 570.455283 411.228563 
Q 570.455283 409.628563 568.855283 409.628563 
L 537.572783 409.628563 
Q 535.972783 409.628563 535.972783 411.228563 
L 535.972783 418.971063 
Q 535.972783 420.571063 537.572783 420.571063 
z
" style="fill: #c62828; opacity: 0.6; stroke: #ffffff; stroke-width: 0.5; stroke-linejoin: miter"/>
    </g>
    <!-- Negroni -->
    <g style="fill: #ffffff; opacity: 0.95" transform="translate(537.572783 417.307313) scale(0.08 -0.08)">
     <defs>
      <path id="DejaVuSans-4e" d="M 628 4666 
L 1478 4666 
L 3547 763 
L 3547 4666 
L 4159 4666 
L 4159 0 
L 3309 0 
L 1241 3903 
L 1241 0 
L 628 0 
L 628 4666 
z
" transform="scale(0.015625)"/>
      <path id="DejaVuSans-67" d="M 2906 1791 
Q 2906 2416 2648 2759 
Q 2391 3103 1925 3103 
Q 1463 3103 1205 2759 
Q 947 2416 947 1791 
Q 947 1169 1205 825 
Q 1463 481 1925 481 
Q 2391 481 2648 825 
Q 2906 1169 2906 1791 
z
M 3481 434 
Q 3481 -459 3084 -895 
Q 2688 -1331 1869 -1331 
Q 1566 -1331 1297 -1286 
Q 1028 -1241 775 -1147 
L 775 -588 
Q 1028 -725 1275 -790 
Q 1522 -856 1778 -856 
Q 2344 -856 2625 -561 
Q 2906 -266 2906 331 
L 2906 616 
Q 2728 306 2450 153 
Q 2172 0 1784 0 
Q 1141 0 747 490 
Q 353 981 353 1791 
Q 353 2603 747 3093 
Q 1141 3584 1784 3584 
Q 2172 3584 2450 3431 
Q 2728 3278 2906 2969 
L 2906 3500 
L 3481 3500 
L 3481 434 
z
" transform="scale(0.015625)"/>
     </defs>
     <use xlink:href="#DejaVuSans-4e"/>
     <use xlink:href="#DejaVuSans-65" transform="translate(74.804688 0)"/>
     <use xlink:href="#DejaVuSans-67" transform="translate(136.328125 0)"/>
     <use xlink:href="#DejaVuSans-72" transform="translate(199.804688 0)"/>
     <use xlink:href="#DejaVuSans-6f" transform="translate(238.667969 0)"/>
     <use xlink:href="#DejaVuSans-6e" transform="translate(299.849609 0)"/>
     <use xlink:href="#DejaVuSans-69" transform="translate(363.228516 0)"/>
    </g>
   </g>
   <g id="text_21">
    <g id="patch_17">
     <path d="M 543.429968 422.089332 
L 574.597468 422.089332 
Q 576.197468 422.089332 576.197468 420.489332 
L 576.197468 412.746832 
Q 576.197468 411.146832 574.597468 411.146832 
L 543.429968 411.146832 
Q 541.829968 411.146832 541.829968 412.746832 
L 541.829968 420.489332 
Q 541.829968 422.089332 543.429968 422.089332 
z
" style="fill: #1565c0; opacity: 0.6; stroke: #ffffff; stroke-width: 0.5; stroke-linejoin: miter"/>
    </g>
    <!-- Daiquiri -->
    <g style="fill: #ffffff; opacity: 0.95" transform="translate(543.429968 418.825582) scale(0.08 -0.08)">
     <defs>
      <path id="DejaVuSans-71" d="M 947 1747 
Q 947 1113 1208 752 
Q 1469 391 1925 391 
Q 2381 391 2643 752 
Q 2906 1113 2906 1747 
Q 2906 2381 2643 2742 
Q 2381 3103 1925 3103 
Q 1469 3103 1208 2742 
Q 947 2381 947 1747 
z
M 2906 525 
Q 2725 213 2448 61 
Q 2172 -91 1784 -91 
Q 1150 -91 751 415 
Q 353 922 353 1747 
Q 353 2572 751 3078 
Q 1150 3584 1784 3584 
Q 2172 3584 2448 3432 
Q 2725 3281 2906 2969 
L 2906 3500 
L 3481 3500 
L 3481 -1331 
L 2906 -1331 
L 2906 525 
z
" transform="scale(0.015625)"/>
      <path id="DejaVuSans-75" d="M 544 1381 
L 544 3500 
L 1119 3500 
L 1119 1403 
Q 1119 906 1312 657 
Q 1506 409 1894 409 
Q 2359 409 2629 706 
Q 2900 1003 2900 1516 
L 2900 3500 
L 3475 3500 
L 3475 0 
L 2900 0 
L 2900 538 
Q 2691 219 2414 64 
Q 2138 -91 1772 -91 
Q 1169 -91 856 284 
Q 544 659 544 1381 
z
M 1991 3584 
L 1991 3584 
z
" transform="scale(0.015625)"/>
     </defs>
     <use xlink:href="#DejaVuSans-44"/>
     <use xlink:href="#DejaVuSans-61" transform="translate(77.001953 0)"/>
     <use xlink:href="#DejaVuSans-69" transform="translate(138.28125 0)"/>
     <use xlink:href="#DejaVuSans-71" transform="translate(166.064453 0)"/>
     <use xlink:href="#DejaVuSans-75" transform="translate(229.541016 0)"/>
     <use xlink:href="#DejaVuSans-69" transform="translate(292.919922 0)"/>
     <use xlink:href="#DejaVuSans-72" transform="translate(320.703125 0)"/>
     <use xlink:href="#DejaVuSans-69" transform="translate(361.816406 0)"/>
    </g>
   </g>
   <g id="text_22">
    <g id="patch_18">
     <path d="M 535.753959 437.072536 
L 574.238959 437.072536 
Q 575.838959 437.072536 575.838959 435.472536 
L 575.838959 427.730036 
Q 575.838959 426.130036 574.238959 426.130036 
L 535.753959 426.130036 
Q 534.153959 426.130036 534.153959 427.730036 
L 534.153959 435.472536 
Q 534.153959 437.072536 535.753959 437.072536 
z
" style="fill: #1565c0; opacity: 0.6; stroke: #ffffff; stroke-width: 0.5; stroke-linejoin: miter"/>
    </g>
    <!-- Margarita -->
    <g style="fill: #ffffff; opacity: 0.95" transform="translate(535.753959 433.808786) scale(0.08 -0.08)">
     <use xlink:href="#DejaVuSans-4d"/>
     <use xlink:href="#DejaVuSans-61" transform="translate(86.279297 0)"/>
     <use xlink:href="#DejaVuSans-72" transform="translate(147.558594 0)"/>
     <use xlink:href="#DejaVuSans-67" transform="translate(186.921875 0)"/>
     <use xlink:href="#DejaVuSans-61" transform="translate(250.398438 0)"/>
     <use xlink:href="#DejaVuSans-72" transform="translate(311.677734 0)"/>
     <use xlink:href="#DejaVuSans-69" transform="translate(352.791016 0)"/>
     <use xlink:href="#DejaVuSans-74" transform="translate(380.574219 0)"/>
     <use xlink:href="#DejaVuSans-61" transform="translate(419.783203 0)"/>
    </g>
   </g>
   <g id="text_23">
    <g id="patch_19">
     <path d="M 543.715655 433.671373 
L 597.960655 433.671373 
Q 599.560655 433.671373 599.560655 432.071373 
L 599.560655 424.328873 
Q 599.560655 422.728873 597.960655 422.728873 
L 543.715655 422.728873 
Q 542.115655 422.728873 542.115655 424.328873 
L 542.115655 432.071373 
Q 542.115655 433.671373 543.715655 433.671373 
z
" style="fill: #1565c0; opacity: 0.6; stroke: #ffffff; stroke-width: 0.5; stroke-linejoin: miter"/>
    </g>
    <!-- Whiskey Sour -->
    <g style="fill: #ffffff; opacity: 0.95" transform="translate(543.715655 430.407623) scale(0.08 -0.08)">
     <defs>
      <path id="DejaVuSans-57" d="M 213 4666 
L 850 4666 
L 1831 722 
L 2809 4666 
L 3519 4666 
L 4500 722 
L 5478 4666 
L 6119 4666 
L 4947 0 
L 4153 0 
L 3169 4050 
L 2175 0 
L 1381 0 
L 213 4666 
z
" transform="scale(0.015625)"/>
      <path id="DejaVuSans-6b" d="M 581 4863 
L 1159 4863 
L 1159 1991 
L 2875 3500 
L 3609 3500 
L 1753 1863 
L 3688 0 
L 2938 0 
L 1159 1709 
L 1159 0 
L 581 0 
L 581 4863 
z
" transform="scale(0.015625)"/>
      <path id="DejaVuSans-79" d="M 2059 -325 
Q 1816 -950 1584 -1140 
Q 1353 -1331 966 -1331 
L 506 -1331 
L 506 -850 
L 844 -850 
Q 1081 -850 1212 -737 
Q 1344 -625 1503 -206 
L 1606 56 
L 191 3500 
L 800 3500 
L 1894 763 
L 2988 3500 
L 3597 3500 
L 2059 -325 
z
" transform="scale(0.015625)"/>
      <path id="DejaVuSans-53" d="M 3425 4513 
L 3425 3897 
Q 3066 4069 2747 4153 
Q 2428 4238 2131 4238 
Q 1616 4238 1336 4038 
Q 1056 3838 1056 3469 
Q 1056 3159 1242 3001 
Q 1428 2844 1947 2747 
L 2328 2669 
Q 3034 2534 3370 2195 
Q 3706 1856 3706 1288 
Q 3706 609 3251 259 
Q 2797 -91 1919 -91 
Q 1588 -91 1214 -16 
Q 841 59 441 206 
L 441 856 
Q 825 641 1194 531 
Q 1563 422 1919 422 
Q 2459 422 2753 634 
Q 3047 847 3047 1241 
Q 3047 1584 2836 1778 
Q 2625 1972 2144 2069 
L 1759 2144 
Q 1053 2284 737 2584 
Q 422 2884 422 3419 
Q 422 4038 858 4394 
Q 1294 4750 2059 4750 
Q 2388 4750 2728 4690 
Q 3069 4631 3425 4513 
z
" transform="scale(0.015625)"/>
     </defs>
     <use xlink:href="#DejaVuSans-57"/>
     <use xlink:href="#DejaVuSans-68" transform="translate(98.876953 0)"/>
     <use xlink:href="#DejaVuSans-69" transform="translate(162.255859 0)"/>
     <use xlink:href="#DejaVuSans-73" transform="translate(190.039062 0)"/>
     <use xlink:href="#DejaVuSans-6b" transform="translate(242.138672 0)"/>
     <use xlink:href="#DejaVuSans-65" transform="translate(296.423828 0)"/>
     <use xlink:href="#DejaVuSans-79" transform="translate(357.947266 0)"/>
     <use xlink:href="#DejaVuSans-20" transform="translate(417.126953 0)"/>
     <use xlink:href="#DejaVuSans-53" transform="translate(448.914062 0)"/>
     <use xlink:href="#DejaVuSans-6f" transform="translate(512.390625 0)"/>
     <use xlink:href="#DejaVuSans-75" transform="translate(573.572266 0)"/>
     <use xlink:href="#DejaVuSans-72" transform="translate(636.951172 0)"/>
    </g>
   </g>
   <g id="text_24">
    <g id="patch_20">
     <path d="M 527.792262 440.473699 
L 578.689762 440.473699 
Q 580.289762 440.473699 580.289762 438.873699 
L 580.289762 431.131199 
Q 580.289762 429.531199 578.689762 429.531199 
L 527.792262 429.531199 
Q 526.192262 429.531199 526.192262 431.131199 
L 526.192262 438.873699 
Q 526.192262 440.473699 527.792262 440.473699 
z
" style="fill: #1565c0; opacity: 0.6; stroke: #ffffff; stroke-width: 0.5; stroke-linejoin: miter"/>
    </g>
    <!-- Boulevardier -->
    <g style="fill: #ffffff; opacity: 0.95" transform="translate(527.792262 437.209949) scale(0.08 -0.08)">
     <defs>
      <path id="DejaVuSans-42" d="M 1259 2228 
L 1259 519 
L 2272 519 
Q 2781 519 3026 730 
Q 3272 941 3272 1375 
Q 3272 1813 3026 2020 
Q 2781 2228 2272 2228 
L 1259 2228 
z
M 1259 4147 
L 1259 2741 
L 2194 2741 
Q 2656 2741 2882 2914 
Q 3109 3088 3109 3444 
Q 3109 3797 2882 3972 
Q 2656 4147 2194 4147 
L 1259 4147 
z
M 628 4666 
L 2241 4666 
Q 2963 4666 3353 4366 
Q 3744 4066 3744 3513 
Q 3744 3084 3544 2831 
Q 3344 2578 2956 2516 
Q 3422 2416 3680 2098 
Q 3938 1781 3938 1306 
Q 3938 681 3513 340 
Q 3088 0 2303 0 
L 628 0 
L 628 4666 
z
" transform="scale(0.015625)"/>
      <path id="DejaVuSans-76" d="M 191 3500 
L 800 3500 
L 1894 563 
L 2988 3500 
L 3597 3500 
L 2284 0 
L 1503 0 
L 191 3500 
z
" transform="scale(0.015625)"/>
     </defs>
     <use xlink:href="#DejaVuSans-42"/>
     <use xlink:href="#DejaVuSans-6f" transform="translate(68.603516 0)"/>
     <use xlink:href="#DejaVuSans-75" transform="translate(129.785156 0)"/>
     <use xlink:href="#DejaVuSans-6c" transform="translate(193.164062 0)"/>
     <use xlink:href="#DejaVuSans-65" transform="translate(220.947266 0)"/>
     <use xlink:href="#DejaVuSans-76" transform="translate(282.470703 0)"/>
     <use xlink:href="#DejaVuSans-61" transform="translate(341.650391 0)"/>
     <use xlink:href="#DejaVuSans-72" transform="translate(402.929688 0)"/>
     <use xlink:href="#DejaVuSans-64" transform="translate(442.292969 0)"/>
     <use xlink:href="#DejaVuSans-69" transform="translate(505.769531 0)"/>
     <use xlink:href="#DejaVuSans-65" transform="translate(533.552734 0)"/>
     <use xlink:href="#DejaVuSans-72" transform="translate(595.076172 0)"/>
    </g>
   </g>
   <g id="text_25">
    <g id="patch_21">
     <path d="M 507.602775 437.599369 
L 547.371525 437.599369 
Q 548.971525 437.599369 548.971525 435.999369 
L 548.971525 428.256869 
Q 548.971525 426.656869 547.371525 426.656869 
L 507.602775 426.656869 
Q 506.002775 426.656869 506.002775 428.256869 
L 506.002775 435.999369 
Q 506.002775 437.599369 507.602775 437.599369 
z
" style="fill: #1565c0; opacity: 0.6; stroke: #ffffff; stroke-width: 0.5; stroke-linejoin: miter"/>
    </g>
    <!-- Last Word -->
    <g style="fill: #ffffff; opacity: 0.95" transform="translate(507.602775 434.335619) scale(0.08 -0.08)">
     <defs>
      <path id="DejaVuSans-4c" d="M 628 4666 
L 1259 4666 
L 1259 531 
L 3531 531 
L 3531 0 
L 628 0 
L 628 4666 
z
" transform="scale(0.015625)"/>
     </defs>
     <use xlink:href="#DejaVuSans-4c"/>
     <use xlink:href="#DejaVuSans-61" transform="translate(55.712891 0)"/>
     <use xlink:href="#DejaVuSans-73" transform="translate(116.992188 0)"/>
     <use xlink:href="#DejaVuSans-74" transform="translate(169.091797 0)"/>
     <use xlink:href="#DejaVuSans-20" transform="translate(208.300781 0)"/>
     <use xlink:href="#DejaVuSans-57" transform="translate(240.087891 0)"/>
     <use xlink:href="#DejaVuSans-6f" transform="translate(333.089844 0)"/>
     <use xlink:href="#DejaVuSans-72" transform="translate(394.271484 0)"/>
     <use xlink:href="#DejaVuSans-64" transform="translate(433.634766 0)"/>
    </g>
   </g>
   <g id="text_26">
    <g id="patch_22">
     <path d="M 535.753959 437.072536 
L 567.940209 437.072536 
Q 569.540209 437.072536 569.540209 435.472536 
L 569.540209 427.730036 
Q 569.540209 426.130036 567.940209 426.130036 
L 535.753959 426.130036 
Q 534.153959 426.130036 534.153959 427.730036 
L 534.153959 435.472536 
Q 534.153959 437.072536 535.753959 437.072536 
z
" style="fill: #1565c0; opacity: 0.6; stroke: #ffffff; stroke-width: 0.5; stroke-linejoin: miter"/>
    </g>
    <!-- Aviation -->
    <g style="fill: #ffffff; opacity: 0.95" transform="translate(535.753959 433.808786) scale(0.08 -0.08)">
     <defs>
      <path id="DejaVuSans-41" d="M 2188 4044 
L 1331 1722 
L 3047 1722 
L 2188 4044 
z
M 1831 4666 
L 2547 4666 
L 4325 0 
L 3669 0 
L 3244 1197 
L 1141 1197 
L 716 0 
L 50 0 
L 1831 4666 
z
" transform="scale(0.015625)"/>
     </defs>
     <use xlink:href="#DejaVuSans-41"/>
     <use xlink:href="#DejaVuSans-76" transform="translate(62.533203 0)"/>
     <use xlink:href="#DejaVuSans-69" transform="translate(121.712891 0)"/>
     <use xlink:href="#DejaVuSans-61" transform="translate(149.496094 0)"/>
     <use xlink:href="#DejaVuSans-74" transform="translate(210.775391 0)"/>
     <use xlink:href="#DejaVuSans-69" transform="translate(249.984375 0)"/>
     <use xlink:href="#DejaVuSans-6f" transform="translate(277.767578 0)"/>
     <use xlink:href="#DejaVuSans-6e" transform="translate(338.949219 0)"/>
    </g>
   </g>
   <g id="text_27">
    <g id="patch_23">
     <path d="M 506.307634 432.120318 
L 541.415134 432.120318 
Q 543.015134 432.120318 543.015134 430.520318 
L 543.015134 422.777818 
Q 543.015134 421.177818 541.415134 421.177818 
L 506.307634 421.177818 
Q 504.707634 421.177818 504.707634 422.777818 
L 504.707634 430.520318 
Q 504.707634 432.120318 506.307634 432.120318 
z
" style="fill: #c62828; opacity: 0.6; stroke: #ffffff; stroke-width: 0.5; stroke-linejoin: miter"/>
    </g>
    <!-- Penicillin -->
    <g style="fill: #ffffff; opacity: 0.95" transform="translate(506.307634 428.856568) scale(0.08 -0.08)">
     <defs>
      <path id="DejaVuSans-50" d="M 1259 4147 
L 1259 2394 
L 2053 2394 
Q 2494 2394 2734 2622 
Q 2975 2850 2975 3272 
Q 2975 3691 2734 3919 
Q 2494 4147 2053 4147 
L 1259 4147 
z
M 628 4666 
L 2053 4666 
Q 2838 4666 3239 4311 
Q 3641 3956 3641 3272 
Q 3641 2581 3239 2228 
Q 2838 1875 2053 1875 
L 1259 1875 
L 1259 0 
L 628 0 
L 628 4666 
z
" transform="scale(0.015625)"/>
      <path id="DejaVuSans-63" d="M 3122 3366 
L 3122 2828 
Q 2878 2963 2633 3030 
Q 2388 3097 2138 3097 
Q 1578 3097 1268 2742 
Q 959 2388 959 1747 
Q 959 1106 1268 751 
Q 1578 397 2138 397 
Q 2388 397 2633 464 
Q 2878 531 3122 666 
L 3122 134 
Q 2881 22 2623 -34 
Q 2366 -91 2075 -91 
Q 1284 -91 818 406 
Q 353 903 353 1747 
Q 353 2603 823 3093 
Q 1294 3584 2113 3584 
Q 2378 3584 2631 3529 
Q 2884 3475 3122 3366 
z
" transform="scale(0.015625)"/>
     </defs>
     <use xlink:href="#DejaVuSans-50"/>
     <use xlink:href="#DejaVuSans-65" transform="translate(56.677734 0)"/>
     <use xlink:href="#DejaVuSans-6e" transform="translate(118.201172 0)"/>
     <use xlink:href="#DejaVuSans-69" transform="translate(181.580078 0)"/>
     <use xlink:href="#DejaVuSans-63" transform="translate(209.363281 0)"/>
     <use xlink:href="#DejaVuSans-69" transform="translate(264.34375 0)"/>
     <use xlink:href="#DejaVuSans-6c" transform="translate(292.126953 0)"/>
     <use xlink:href="#DejaVuSans-6c" transform="translate(319.910156 0)"/>
     <use xlink:href="#DejaVuSans-69" transform="translate(347.693359 0)"/>
     <use xlink:href="#DejaVuSans-6e" transform="translate(375.476562 0)"/>
    </g>
   </g>
   <g id="text_28">
    <g id="patch_24">
     <path d="M 563.905143 436.545703 
L 611.045143 436.545703 
Q 612.645143 436.545703 612.645143 434.945703 
L 612.645143 427.203203 
Q 612.645143 425.603203 611.045143 425.603203 
L 563.905143 425.603203 
Q 562.305143 425.603203 562.305143 427.203203 
L 562.305143 434.945703 
Q 562.305143 436.545703 563.905143 436.545703 
z
" style="fill: #1565c0; opacity: 0.6; stroke: #ffffff; stroke-width: 0.5; stroke-linejoin: miter"/>
    </g>
    <!-- Paper Plane -->
    <g style="fill: #ffffff; opacity: 0.95" transform="translate(563.905143 433.281953) scale(0.08 -0.08)">
     <defs>
      <path id="DejaVuSans-70" d="M 1159 525 
L 1159 -1331 
L 581 -1331 
L 581 3500 
L 1159 3500 
L 1159 2969 
Q 1341 3281 1617 3432 
Q 1894 3584 2278 3584 
Q 2916 3584 3314 3078 
Q 3713 2572 3713 1747 
Q 3713 922 3314 415 
Q 2916 -91 2278 -91 
Q 1894 -91 1617 61 
Q 1341 213 1159 525 
z
M 3116 1747 
Q 3116 2381 2855 2742 
Q 2594 3103 2138 3103 
Q 1681 3103 1420 2742 
Q 1159 2381 1159 1747 
Q 1159 1113 1420 752 
Q 1681 391 2138 391 
Q 2594 391 2855 752 
Q 3116 1113 3116 1747 
z
" transform="scale(0.015625)"/>
     </defs>
     <use xlink:href="#DejaVuSans-50"/>
     <use xlink:href="#DejaVuSans-61" transform="translate(55.802734 0)"/>
     <use xlink:href="#DejaVuSans-70" transform="translate(117.082031 0)"/>
     <use xlink:href="#DejaVuSans-65" transform="translate(180.558594 0)"/>
     <use xlink:href="#DejaVuSans-72" transform="translate(242.082031 0)"/>
     <use xlink:href="#DejaVuSans-20" transform="translate(283.195312 0)"/>
     <use xlink:href="#DejaVuSans-50" transform="translate(314.982422 0)"/>
     <use xlink:href="#DejaVuSans-6c" transform="translate(375.285156 0)"/>
     <use xlink:href="#DejaVuSans-61" transform="translate(403.068359 0)"/>
     <use xlink:href="#DejaVuSans-6e" transform="translate(464.347656 0)"/>
     <use xlink:href="#DejaVuSans-65" transform="translate(527.726562 0)"/>
    </g>
   </g>
   <g id="text_29">
    <g id="patch_25">
     <path d="M 537.316498 425.761037 
L 564.577748 425.761037 
Q 566.177748 425.761037 566.177748 424.161037 
L 566.177748 416.418537 
Q 566.177748 414.818537 564.577748 414.818537 
L 537.316498 414.818537 
Q 535.716498 414.818537 535.716498 416.418537 
L 535.716498 424.161037 
Q 535.716498 425.761037 537.316498 425.761037 
z
" style="fill: #c62828; opacity: 0.6; stroke: #ffffff; stroke-width: 0.5; stroke-linejoin: miter"/>
    </g>
    <!-- Mai Tai -->
    <g style="fill: #ffffff; opacity: 0.95" transform="translate(537.316498 422.497287) scale(0.08 -0.08)">
     <defs>
      <path id="DejaVuSans-54" d="M -19 4666 
L 3928 4666 
L 3928 4134 
L 2272 4134 
L 2272 0 
L 1638 0 
L 1638 4134 
L -19 4134 
L -19 4666 
z
" transform="scale(0.015625)"/>
     </defs>
     <use xlink:href="#DejaVuSans-4d"/>
     <use xlink:href="#DejaVuSans-61" transform="translate(86.279297 0)"/>
     <use xlink:href="#DejaVuSans-69" transform="translate(147.558594 0)"/>
     <use xlink:href="#DejaVuSans-20" transform="translate(175.341797 0)"/>
     <use xlink:href="#DejaVuSans-54" transform="translate(207.128906 0)"/>
     <use xlink:href="#DejaVuSans-61" transform="translate(251.712891 0)"/>
     <use xlink:href="#DejaVuSans-69" transform="translate(312.992188 0)"/>
    </g>
   </g>
   <g id="text_30">
    <g id="patch_26">
     <path d="M 542.132278 458.484209 
L 566.406028 458.484209 
Q 568.006028 458.484209 568.006028 456.884209 
L 568.006028 449.141709 
Q 568.006028 447.541709 566.406028 447.541709 
L 542.132278 447.541709 
Q 540.532278 447.541709 540.532278 449.141709 
L 540.532278 456.884209 
Q 540.532278 458.484209 542.132278 458.484209 
z
" style="fill: #c62828; opacity: 0.6; stroke: #ffffff; stroke-width: 0.5; stroke-linejoin: miter"/>
    </g>
    <!-- Mojito -->
    <g style="fill: #ffffff; opacity: 0.95" transform="translate(542.132278 455.220459) scale(0.08 -0.08)">
     <defs>
      <path id="DejaVuSans-6a" d="M 603 3500 
L 1178 3500 
L 1178 -63 
Q 1178 -731 923 -1031 
Q 669 -1331 103 -1331 
L -116 -1331 
L -116 -844 
L 38 -844 
Q 366 -844 484 -692 
Q 603 -541 603 -63 
L 603 3500 
z
M 603 4863 
L 1178 4863 
L 1178 4134 
L 603 4134 
L 603 4863 
z
" transform="scale(0.015625)"/>
     </defs>
     <use xlink:href="#DejaVuSans-4d"/>
     <use xlink:href="#DejaVuSans-6f" transform="translate(86.279297 0)"/>
     <use xlink:href="#DejaVuSans-6a" transform="translate(147.460938 0)"/>
     <use xlink:href="#DejaVuSans-69" transform="translate(175.244141 0)"/>
     <use xlink:href="#DejaVuSans-74" transform="translate(203.027344 0)"/>
     <use xlink:href="#DejaVuSans-6f" transform="translate(242.236328 0)"/>
    </g>
   </g>
   <g id="text_31">
    <g id="patch_27">
     <path d="M 557.091672 450.471656 
L 608.337922 450.471656 
Q 609.937922 450.471656 609.937922 448.871656 
L 609.937922 441.129156 
Q 609.937922 439.529156 608.337922 439.529156 
L 557.091672 439.529156 
Q 555.491672 439.529156 555.491672 441.129156 
L 555.491672 448.871656 
Q 555.491672 450.471656 557.091672 450.471656 
z
" style="fill: #c62828; opacity: 0.6; stroke: #ffffff; stroke-width: 0.5; stroke-linejoin: miter"/>
    </g>
    <!-- Aperol Spritz -->
    <g style="fill: #ffffff; opacity: 0.95" transform="translate(557.091672 447.207906) scale(0.08 -0.08)">
     <defs>
      <path id="DejaVuSans-7a" d="M 353 3500 
L 3084 3500 
L 3084 2975 
L 922 459 
L 3084 459 
L 3084 0 
L 275 0 
L 275 525 
L 2438 3041 
L 353 3041 
L 353 3500 
z
" transform="scale(0.015625)"/>
     </defs>
     <use xlink:href="#DejaVuSans-41"/>
     <use xlink:href="#DejaVuSans-70" transform="translate(68.408203 0)"/>
     <use xlink:href="#DejaVuSans-65" transform="translate(131.884766 0)"/>
     <use xlink:href="#DejaVuSans-72" transform="translate(193.408203 0)"/>
     <use xlink:href="#DejaVuSans-6f" transform="translate(232.271484 0)"/>
     <use xlink:href="#DejaVuSans-6c" transform="translate(293.453125 0)"/>
     <use xlink:href="#DejaVuSans-20" transform="translate(321.236328 0)"/>
     <use xlink:href="#DejaVuSans-53" transform="translate(353.023438 0)"/>
     <use xlink:href="#DejaVuSans-70" transform="translate(416.5 0)"/>
     <use xlink:href="#DejaVuSans-72" transform="translate(479.976562 0)"/>
     <use xlink:href="#DejaVuSans-69" transform="translate(521.089844 0)"/>
     <use xlink:href="#DejaVuSans-74" transform="translate(548.873047 0)"/>
     <use xlink:href="#DejaVuSans-7a" transform="translate(588.082031 0)"/>
    </g>
   </g>
   <g id="text_32">
    <g id="patch_28">
     <path d="M 543.284017 444.759326 
L 574.976517 444.759326 
Q 576.576517 444.759326 576.576517 443.159326 
L 576.576517 435.416826 
Q 576.576517 433.816826 574.976517 433.816826 
L 543.284017 433.816826 
Q 541.684017 433.816826 541.684017 435.416826 
L 541.684017 443.159326 
Q 541.684017 444.759326 543.284017 444.759326 
z
" style="fill: #2e7d32; opacity: 0.6; stroke: #ffffff; stroke-width: 0.5; stroke-linejoin: miter"/>
    </g>
    <!-- Sazerac -->
    <g style="fill: #ffffff; opacity: 0.95" transform="translate(543.284017 441.495576) scale(0.08 -0.08)">
     <use xlink:href="#DejaVuSans-53"/>
     <use xlink:href="#DejaVuSans-61" transform="translate(63.476562 0)"/>
     <use xlink:href="#DejaVuSans-7a" transform="translate(124.755859 0)"/>
     <use xlink:href="#DejaVuSans-65" transform="translate(177.246094 0)"/>
     <use xlink:href="#DejaVuSans-72" transform="translate(238.769531 0)"/>
     <use xlink:href="#DejaVuSans-61" transform="translate(279.882812 0)"/>
     <use xlink:href="#DejaVuSans-63" transform="translate(341.162109 0)"/>
    </g>
   </g>
   <g id="text_33">
    <g id="patch_29">
     <path d="M 528.077949 452.05574 
L 557.970449 452.05574 
Q 559.570449 452.05574 559.570449 450.45574 
L 559.570449 442.71324 
Q 559.570449 441.11324 557.970449 441.11324 
L 528.077949 441.11324 
Q 526.477949 441.11324 526.477949 442.71324 
L 526.477949 450.45574 
Q 526.477949 452.05574 528.077949 452.05574 
z
" style="fill: #1565c0; opacity: 0.6; stroke: #ffffff; stroke-width: 0.5; stroke-linejoin: miter"/>
    </g>
    <!-- Sidecar -->
    <g style="fill: #ffffff; opacity: 0.95" transform="translate(528.077949 448.79199) scale(0.08 -0.08)">
     <use xlink:href="#DejaVuSans-53"/>
     <use xlink:href="#DejaVuSans-69" transform="translate(63.476562 0)"/>
     <use xlink:href="#DejaVuSans-64" transform="translate(91.259766 0)"/>
     <use xlink:href="#DejaVuSans-65" transform="translate(154.736328 0)"/>
     <use xlink:href="#DejaVuSans-63" transform="translate(216.259766 0)"/>
     <use xlink:href="#DejaVuSans-61" transform="translate(271.240234 0)"/>
     <use xlink:href="#DejaVuSans-72" transform="translate(332.519531 0)"/>
    </g>
   </g>
   <g id="text_34">
    <!-- Alpha=0.55 (Sweet Spot) - K-Means k=3 -->
    <g style="fill: #d4af37" transform="translate(337.670625 19.3575) scale(0.16 -0.16)">
     <defs>
      <path id="DejaVuSans-Bold-41" d="M 3419 850 
L 1538 850 
L 1241 0 
L 31 0 
L 1759 4666 
L 3194 4666 
L 4922 0 
L 3713 0 
L 3419 850 
z
M 1838 1716 
L 3116 1716 
L 2478 3572 
L 1838 1716 
z
" transform="scale(0.015625)"/>
      <path id="DejaVuSans-Bold-70" d="M 1656 506 
L 1656 -1331 
L 538 -1331 
L 538 3500 
L 1656 3500 
L 1656 2988 
Q 1888 3294 2169 3439 
Q 2450 3584 2816 3584 
Q 3463 3584 3878 3070 
Q 4294 2556 4294 1747 
Q 4294 938 3878 423 
Q 3463 -91 2816 -91 
Q 2450 -91 2169 54 
Q 1888 200 1656 506 
z
M 2400 2772 
Q 2041 2772 1848 2508 
Q 1656 2244 1656 1747 
Q 1656 1250 1848 986 
Q 2041 722 2400 722 
Q 2759 722 2948 984 
Q 3138 1247 3138 1747 
Q 3138 2247 2948 2509 
Q 2759 2772 2400 2772 
z
" transform="scale(0.015625)"/>
      <path id="DejaVuSans-Bold-3d" d="M 678 3084 
L 4684 3084 
L 4684 2350 
L 678 2350 
L 678 3084 
z
M 678 1663 
L 4684 1663 
L 4684 922 
L 678 922 
L 678 1663 
z
" transform="scale(0.015625)"/>
      <path id="DejaVuSans-Bold-30" d="M 2944 2338 
Q 2944 3213 2780 3570 
Q 2616 3928 2228 3928 
Q 1841 3928 1675 3570 
Q 1509 3213 1509 2338 
Q 1509 1453 1675 1090 
Q 1841 728 2228 728 
Q 2613 728 2778 1090 
Q 2944 1453 2944 2338 
z
M 4147 2328 
Q 4147 1169 3647 539 
Q 3147 -91 2228 -91 
Q 1306 -91 806 539 
Q 306 1169 306 2328 
Q 306 3491 806 4120 
Q 1306 4750 2228 4750 
Q 3147 4750 3647 4120 
Q 4147 3491 4147 2328 
z
" transform="scale(0.015625)"/>
      <path id="DejaVuSans-Bold-2e" d="M 653 1209 
L 1778 1209 
L 1778 0 
L 653 0 
L 653 1209 
z
" transform="scale(0.015625)"/>
      <path id="DejaVuSans-Bold-35" d="M 678 4666 
L 3669 4666 
L 3669 3781 
L 1638 3781 
L 1638 3059 
Q 1775 3097 1914 3117 
Q 2053 3138 2203 3138 
Q 3056 3138 3531 2711 
Q 4006 2284 4006 1522 
Q 4006 766 3489 337 
Q 2972 -91 2053 -91 
Q 1656 -91 1267 -14 
Q 878 63 494 219 
L 494 1166 
Q 875 947 1217 837 
Q 1559 728 1863 728 
Q 2300 728 2551 942 
Q 2803 1156 2803 1522 
Q 2803 1891 2551 2103 
Q 2300 2316 1863 2316 
Q 1603 2316 1309 2248 
Q 1016 2181 678 2041 
L 678 4666 
z
" transform="scale(0.015625)"/>
      <path id="DejaVuSans-Bold-28" d="M 2413 -844 
L 1484 -844 
Q 1006 -72 778 623 
Q 550 1319 550 2003 
Q 550 2688 779 3389 
Q 1009 4091 1484 4856 
L 2413 4856 
Q 2013 4116 1813 3408 
Q 1613 2700 1613 2009 
Q 1613 1319 1811 609 
Q 2009 -100 2413 -844 
z
" transform="scale(0.015625)"/>
      <path id="DejaVuSans-Bold-77" d="M 225 3500 
L 1313 3500 
L 1900 1088 
L 2491 3500 
L 3425 3500 
L 4013 1113 
L 4603 3500 
L 5691 3500 
L 4769 0 
L 3547 0 
L 2956 2406 
L 2369 0 
L 1147 0 
L 225 3500 
z
" transform="scale(0.015625)"/>
      <path id="DejaVuSans-Bold-29" d="M 513 -844 
Q 913 -100 1113 609 
Q 1313 1319 1313 2009 
Q 1313 2700 1113 3408 
Q 913 4116 513 4856 
L 1441 4856 
Q 1916 4091 2145 3389 
Q 2375 2688 2375 2003 
Q 2375 1319 2147 623 
Q 1919 -72 1441 -844 
L 513 -844 
z
" transform="scale(0.015625)"/>
      <path id="DejaVuSans-Bold-2d" d="M 347 2297 
L 2309 2297 
L 2309 1388 
L 347 1388 
L 347 2297 
z
" transform="scale(0.015625)"/>
      <path id="DejaVuSans-Bold-4b" d="M 588 4666 
L 1791 4666 
L 1791 2963 
L 3525 4666 
L 4922 4666 
L 2675 2456 
L 5153 0 
L 3647 0 
L 1791 1838 
L 1791 0 
L 588 0 
L 588 4666 
z
" transform="scale(0.015625)"/>
      <path id="DejaVuSans-Bold-33" d="M 2981 2516 
Q 3453 2394 3698 2092 
Q 3944 1791 3944 1325 
Q 3944 631 3412 270 
Q 2881 -91 1863 -91 
Q 1503 -91 1142 -33 
Q 781 25 428 141 
L 428 1069 
Q 766 900 1098 814 
Q 1431 728 1753 728 
Q 2231 728 2486 893 
Q 2741 1059 2741 1369 
Q 2741 1688 2480 1852 
Q 2219 2016 1709 2016 
L 1228 2016 
L 1228 2791 
L 1734 2791 
Q 2188 2791 2409 2933 
Q 2631 3075 2631 3366 
Q 2631 3634 2415 3781 
Q 2200 3928 1806 3928 
Q 1516 3928 1219 3862 
Q 922 3797 628 3669 
L 628 4550 
Q 984 4650 1334 4700 
Q 1684 4750 2022 4750 
Q 2931 4750 3382 4451 
Q 3834 4153 3834 3553 
Q 3834 3144 3618 2883 
Q 3403 2622 2981 2516 
z
" transform="scale(0.015625)"/>
     </defs>
     <use xlink:href="#DejaVuSans-Bold-41"/>
     <use xlink:href="#DejaVuSans-Bold-6c" transform="translate(77.392578 0)"/>
     <use xlink:href="#DejaVuSans-Bold-70" transform="translate(111.669922 0)"/>
     <use xlink:href="#DejaVuSans-Bold-68" transform="translate(183.251953 0)"/>
     <use xlink:href="#DejaVuSans-Bold-61" transform="translate(254.443359 0)"/>
     <use xlink:href="#DejaVuSans-Bold-3d" transform="translate(321.923828 0)"/>
     <use xlink:href="#DejaVuSans-Bold-30" transform="translate(405.712891 0)"/>
     <use xlink:href="#DejaVuSans-Bold-2e" transform="translate(475.292969 0)"/>
     <use xlink:href="#DejaVuSans-Bold-35" transform="translate(513.28125 0)"/>
     <use xlink:href="#DejaVuSans-Bold-35" transform="translate(582.861328 0)"/>
     <use xlink:href="#DejaVuSans-Bold-20" transform="translate(652.441406 0)"/>
     <use xlink:href="#DejaVuSans-Bold-28" transform="translate(687.255859 0)"/>
     <use xlink:href="#DejaVuSans-Bold-53" transform="translate(732.958984 0)"/>
     <use xlink:href="#DejaVuSans-Bold-77" transform="translate(804.980469 0)"/>
     <use xlink:href="#DejaVuSans-Bold-65" transform="translate(897.363281 0)"/>
     <use xlink:href="#DejaVuSans-Bold-65" transform="translate(965.185547 0)"/>
     <use xlink:href="#DejaVuSans-Bold-74" transform="translate(1033.007812 0)"/>
     <use xlink:href="#DejaVuSans-Bold-20" transform="translate(1080.810547 0)"/>
     <use xlink:href="#DejaVuSans-Bold-53" transform="translate(1115.625 0)"/>
     <use xlink:href="#DejaVuSans-Bold-70" transform="translate(1187.646484 0)"/>
     <use xlink:href="#DejaVuSans-Bold-6f" transform="translate(1259.228516 0)"/>
     <use xlink:href="#DejaVuSans-Bold-74" transform="translate(1327.929688 0)"/>
     <use xlink:href="#DejaVuSans-Bold-29" transform="translate(1375.732422 0)"/>
     <use xlink:href="#DejaVuSans-Bold-20" transform="translate(1421.435547 0)"/>
     <use xlink:href="#DejaVuSans-Bold-2d" transform="translate(1456.25 0)"/>
     <use xlink:href="#DejaVuSans-Bold-20" transform="translate(1497.753906 0)"/>
     <use xlink:href="#DejaVuSans-Bold-4b" transform="translate(1532.568359 0)"/>
     <use xlink:href="#DejaVuSans-Bold-2d" transform="translate(1601.308594 0)"/>
     <use xlink:href="#DejaVuSans-Bold-4d" transform="translate(1642.8125 0)"/>
     <use xlink:href="#DejaVuSans-Bold-65" transform="translate(1742.324219 0)"/>
     <use xlink:href="#DejaVuSans-Bold-61" transform="translate(1810.146484 0)"/>
     <use xlink:href="#DejaVuSans-Bold-6e" transform="translate(1877.626953 0)"/>
     <use xlink:href="#DejaVuSans-Bold-73" transform="translate(1948.818359 0)"/>
     <use xlink:href="#DejaVuSans-Bold-20" transform="translate(2008.339844 0)"/>
     <use xlink:href="#DejaVuSans-Bold-6b" transform="translate(2043.154297 0)"/>
     <use xlink:href="#DejaVuSans-Bold-3d" transform="translate(2109.658203 0)"/>
     <use xlink:href="#DejaVuSans-Bold-33" transform="translate(2193.447266 0)"/>
    </g>
   </g>
  </g>
 </g>
 <defs>
  <clipPath id="pd8452230ef">
   <rect x="43.588125" y="39.3575" width="950.245" height="706.64"/>
  </clipPath>
 </defs>
</svg>
