<?xml version="1.0" encoding="utf-8" standalone="no"?>
<!DOCTYPE svg PUBLIC "-//W3C//DTD SVG 1.1//EN"
  "http://www.w3.org/Graphics/SVG/1.1/DTD/svg11.dtd">
<svg xmlns:xlink="http://www.w3.org/1999/xlink" width="864pt" height="720pt" viewBox="0 0 864 720" xmlns="http://www.w3.org/2000/svg" version="1.1">
 <metadata>
  <rdf:RDF xmlns:dc="http://purl.org/dc/elements/1.1/" xmlns:cc="http://creativecommons.org/ns#" xmlns:rdf="http://www.w3.org/1999/02/22-rdf-syntax-ns#">
   <cc:Work>
    <dc:type rdf:resource="http://purl.org/dc/dcmitype/StillImage"/>
    <dc:date>2026-02-26T10:41:11.805731</dc:date>
    <dc:format>image/svg+xml</dc:format>
    <dc:creator>
     <cc:Agent>
      <dc:title>Matplotlib v3.10.8, https://matplotlib.org/</dc:title>
     </cc:Agent>
    </dc:creator>
   </cc:Work>
  </rdf:RDF>
 </metadata>
 <defs>
  <style type="text/css">*{stroke-linejoin: round; stroke-linecap: butt}</style>
 </defs>
 <g id="figure_1">
  <g id="patch_1">
   <path d="M 0 720 
L 864 720 
L 864 0 
L 0 0 
z
" style="fill: #1a1a1d"/>
  </g>
  <g id="axes_1">
   <g id="patch_2">
    <path d="M 46.415 676.24 
L 836.725841 676.24 
L 836.725841 43.04 
L 46.415 43.04 
z
" style="fill: #1a1a1d"/>
   </g>
   <g id="PathCollection_1">
    <defs>
     <path id="m4e034d3bfc" d="M 0 3.872983 
C 1.027127 3.872983 2.012324 3.464901 2.738613 2.738613 
C 3.464901 2.012324 3.872983 1.027127 3.872983 0 
C 3.872983 -1.027127 3.464901 -2.012324 2.738613 -2.738613 
C 2.012324 -3.464901 1.027127 -3.872983 0 -3.872983 
C -1.027127 -3.872983 -2.012324 -3.464901 -2.738613 -2.738613 
C -3.464901 -2.012324 -3.872983 -1.027127 -3.872983 0 
C -3.872983 1.027127 -3.464901 2.012324 -2.738613 2.738613 
C -2.012324 3.464901 -1.027127 3.872983 0 3.872983 
z
" style="stroke: #f5f5dc; stroke-opacity: 0.7; stroke-width: 0.5"/>
    </defs>
    <g clip-path="url(#p38924938eb)">
     <use xlink:href="#m4e034d3bfc" x="291.701577" y="572.254093" style="fill: #50c878; fill-opacity: 0.7; stroke: #f5f5dc; stroke-opacity: 0.7; stroke-width: 0.5"/>
     <use xlink:href="#m4e034d3bfc" x="297.689888" y="647.458182" style="fill: #50c878; fill-opacity: 0.7; stroke: #f5f5dc; stroke-opacity: 0.7; stroke-width: 0.5"/>
     <use xlink:href="#m4e034d3bfc" x="301.502271" y="643.501715" style="fill: #50c878; fill-opacity: 0.7; stroke: #f5f5dc; stroke-opacity: 0.7; stroke-width: 0.5"/>
     <use xlink:href="#m4e034d3bfc" x="301.431838" y="616.451808" style="fill: #50c878; fill-opacity: 0.7; stroke: #f5f5dc; stroke-opacity: 0.7; stroke-width: 0.5"/>
     <use xlink:href="#m4e034d3bfc" x="295.238952" y="604.347444" style="fill: #50c878; fill-opacity: 0.7; stroke: #f5f5dc; stroke-opacity: 0.7; stroke-width: 0.5"/>
     <use xlink:href="#m4e034d3bfc" x="293.664306" y="619.564278" style="fill: #50c878; fill-opacity: 0.7; stroke: #f5f5dc; stroke-opacity: 0.7; stroke-width: 0.5"/>
     <use xlink:href="#m4e034d3bfc" x="295.540867" y="584.665162" style="fill: #50c878; fill-opacity: 0.7; stroke: #f5f5dc; stroke-opacity: 0.7; stroke-width: 0.5"/>
     <use xlink:href="#m4e034d3bfc" x="282.268161" y="563.914237" style="fill: #50c878; fill-opacity: 0.7; stroke: #f5f5dc; stroke-opacity: 0.7; stroke-width: 0.5"/>
     <use xlink:href="#m4e034d3bfc" x="277.751565" y="562.645157" style="fill: #50c878; fill-opacity: 0.7; stroke: #f5f5dc; stroke-opacity: 0.7; stroke-width: 0.5"/>
     <use xlink:href="#m4e034d3bfc" x="311.260705" y="612.785567" style="fill: #50c878; fill-opacity: 0.7; stroke: #f5f5dc; stroke-opacity: 0.7; stroke-width: 0.5"/>
     <use xlink:href="#m4e034d3bfc" x="296.39413" y="625.917589" style="fill: #50c878; fill-opacity: 0.7; stroke: #f5f5dc; stroke-opacity: 0.7; stroke-width: 0.5"/>
     <use xlink:href="#m4e034d3bfc" x="304.75264" y="615.502469" style="fill: #50c878; fill-opacity: 0.7; stroke: #f5f5dc; stroke-opacity: 0.7; stroke-width: 0.5"/>
     <use xlink:href="#m4e034d3bfc" x="271.678931" y="573.520485" style="fill: #50c878; fill-opacity: 0.7; stroke: #f5f5dc; stroke-opacity: 0.7; stroke-width: 0.5"/>
     <use xlink:href="#m4e034d3bfc" x="284.810483" y="551.325989" style="fill: #50c878; fill-opacity: 0.7; stroke: #f5f5dc; stroke-opacity: 0.7; stroke-width: 0.5"/>
     <use xlink:href="#m4e034d3bfc" x="285.145924" y="593.805882" style="fill: #50c878; fill-opacity: 0.7; stroke: #f5f5dc; stroke-opacity: 0.7; stroke-width: 0.5"/>
     <use xlink:href="#m4e034d3bfc" x="314.922932" y="593.92162" style="fill: #50c878; fill-opacity: 0.7; stroke: #f5f5dc; stroke-opacity: 0.7; stroke-width: 0.5"/>
     <use xlink:href="#m4e034d3bfc" x="298.415339" y="549.850872" style="fill: #50c878; fill-opacity: 0.7; stroke: #f5f5dc; stroke-opacity: 0.7; stroke-width: 0.5"/>
     <use xlink:href="#m4e034d3bfc" x="293.850252" y="537.017693" style="fill: #50c878; fill-opacity: 0.7; stroke: #f5f5dc; stroke-opacity: 0.7; stroke-width: 0.5"/>
     <use xlink:href="#m4e034d3bfc" x="307.429658" y="540.414019" style="fill: #50c878; fill-opacity: 0.7; stroke: #f5f5dc; stroke-opacity: 0.7; stroke-width: 0.5"/>
     <use xlink:href="#m4e034d3bfc" x="265.523649" y="580.006643" style="fill: #50c878; fill-opacity: 0.7; stroke: #f5f5dc; stroke-opacity: 0.7; stroke-width: 0.5"/>
     <use xlink:href="#m4e034d3bfc" x="299.977185" y="533.003045" style="fill: #50c878; fill-opacity: 0.7; stroke: #f5f5dc; stroke-opacity: 0.7; stroke-width: 0.5"/>
     <use xlink:href="#m4e034d3bfc" x="297.782008" y="647.291052" style="fill: #50c878; fill-opacity: 0.7; stroke: #f5f5dc; stroke-opacity: 0.7; stroke-width: 0.5"/>
     <use xlink:href="#m4e034d3bfc" x="292.66578" y="637.918944" style="fill: #50c878; fill-opacity: 0.7; stroke: #f5f5dc; stroke-opacity: 0.7; stroke-width: 0.5"/>
    </g>
   </g>
   <g id="patch_3">
    <path d="M 265.523649 580.006643 
L 292.66578 637.918944 
L 297.689888 647.458182 
L 301.502271 643.501715 
L 311.260705 612.785567 
L 314.922932 593.92162 
L 307.429658 540.414019 
L 299.977185 533.003045 
L 293.850252 537.017693 
z
" clip-path="url(#p38924938eb)" style="fill: #50c878; opacity: 0.05"/>
   </g>
   <g id="PathCollection_2">
    <defs>
     <path id="m1e58fe335b" d="M 0 3.872983 
C 1.027127 3.872983 2.012324 3.464901 2.738613 2.738613 
C 3.464901 2.012324 3.872983 1.027127 3.872983 0 
C 3.872983 -1.027127 3.464901 -2.012324 2.738613 -2.738613 
C 2.012324 -3.464901 1.027127 -3.872983 0 -3.872983 
C -1.027127 -3.872983 -2.012324 -3.464901 -2.738613 -2.738613 
C -3.464901 -2.012324 -3.872983 -1.027127 -3.872983 0 
C -3.872983 1.027127 -3.464901 2.012324 -2.738613 2.738613 
C -2.012324 3.464901 -1.027127 3.872983 0 3.872983 
z
" style="stroke: #f5f5dc; stroke-opacity: 0.7; stroke-width: 0.5"/>
    </defs>
    <g clip-path="url(#p38924938eb)">
     <use xlink:href="#m1e58fe335b" x="706.464397" y="217.597957" style="fill: #cd7f32; fill-opacity: 0.7; stroke: #f5f5dc; stroke-opacity: 0.7; stroke-width: 0.5"/>
     <use xlink:href="#m1e58fe335b" x="696.861379" y="176.230889" style="fill: #cd7f32; fill-opacity: 0.7; stroke: #f5f5dc; stroke-opacity: 0.7; stroke-width: 0.5"/>
     <use xlink:href="#m1e58fe335b" x="741.143323" y="226.132396" style="fill: #cd7f32; fill-opacity: 0.7; stroke: #f5f5dc; stroke-opacity: 0.7; stroke-width: 0.5"/>
     <use xlink:href="#m1e58fe335b" x="712.87921" y="104.177193" style="fill: #cd7f32; fill-opacity: 0.7; stroke: #f5f5dc; stroke-opacity: 0.7; stroke-width: 0.5"/>
     <use xlink:href="#m1e58fe335b" x="739.699822" y="263.181053" style="fill: #cd7f32; fill-opacity: 0.7; stroke: #f5f5dc; stroke-opacity: 0.7; stroke-width: 0.5"/>
     <use xlink:href="#m1e58fe335b" x="766.844909" y="269.820729" style="fill: #cd7f32; fill-opacity: 0.7; stroke: #f5f5dc; stroke-opacity: 0.7; stroke-width: 0.5"/>
     <use xlink:href="#m1e58fe335b" x="771.211007" y="249.229188" style="fill: #cd7f32; fill-opacity: 0.7; stroke: #f5f5dc; stroke-opacity: 0.7; stroke-width: 0.5"/>
     <use xlink:href="#m1e58fe335b" x="799.941638" y="228.470694" style="fill: #cd7f32; fill-opacity: 0.7; stroke: #f5f5dc; stroke-opacity: 0.7; stroke-width: 0.5"/>
     <use xlink:href="#m1e58fe335b" x="719.25041" y="265.006502" style="fill: #cd7f32; fill-opacity: 0.7; stroke: #f5f5dc; stroke-opacity: 0.7; stroke-width: 0.5"/>
     <use xlink:href="#m1e58fe335b" x="725.724133" y="72.476811" style="fill: #cd7f32; fill-opacity: 0.7; stroke: #f5f5dc; stroke-opacity: 0.7; stroke-width: 0.5"/>
     <use xlink:href="#m1e58fe335b" x="726.907318" y="75.996072" style="fill: #cd7f32; fill-opacity: 0.7; stroke: #f5f5dc; stroke-opacity: 0.7; stroke-width: 0.5"/>
     <use xlink:href="#m1e58fe335b" x="716.892846" y="81.559368" style="fill: #cd7f32; fill-opacity: 0.7; stroke: #f5f5dc; stroke-opacity: 0.7; stroke-width: 0.5"/>
     <use xlink:href="#m1e58fe335b" x="698.220176" y="225.804946" style="fill: #cd7f32; fill-opacity: 0.7; stroke: #f5f5dc; stroke-opacity: 0.7; stroke-width: 0.5"/>
     <use xlink:href="#m1e58fe335b" x="752.020019" y="103.767609" style="fill: #cd7f32; fill-opacity: 0.7; stroke: #f5f5dc; stroke-opacity: 0.7; stroke-width: 0.5"/>
     <use xlink:href="#m1e58fe335b" x="743.893988" y="283.934062" style="fill: #cd7f32; fill-opacity: 0.7; stroke: #f5f5dc; stroke-opacity: 0.7; stroke-width: 0.5"/>
     <use xlink:href="#m1e58fe335b" x="702.494747" y="250.028593" style="fill: #cd7f32; fill-opacity: 0.7; stroke: #f5f5dc; stroke-opacity: 0.7; stroke-width: 0.5"/>
     <use xlink:href="#m1e58fe335b" x="735.653528" y="291.791546" style="fill: #cd7f32; fill-opacity: 0.7; stroke: #f5f5dc; stroke-opacity: 0.7; stroke-width: 0.5"/>
     <use xlink:href="#m1e58fe335b" x="725.811815" y="252.183251" style="fill: #cd7f32; fill-opacity: 0.7; stroke: #f5f5dc; stroke-opacity: 0.7; stroke-width: 0.5"/>
     <use xlink:href="#m1e58fe335b" x="715.703046" y="270.391412" style="fill: #cd7f32; fill-opacity: 0.7; stroke: #f5f5dc; stroke-opacity: 0.7; stroke-width: 0.5"/>
     <use xlink:href="#m1e58fe335b" x="724.241069" y="190.218972" style="fill: #cd7f32; fill-opacity: 0.7; stroke: #f5f5dc; stroke-opacity: 0.7; stroke-width: 0.5"/>
     <use xlink:href="#m1e58fe335b" x="740.811282" y="71.821818" style="fill: #cd7f32; fill-opacity: 0.7; stroke: #f5f5dc; stroke-opacity: 0.7; stroke-width: 0.5"/>
     <use xlink:href="#m1e58fe335b" x="742.250774" y="88.126005" style="fill: #cd7f32; fill-opacity: 0.7; stroke: #f5f5dc; stroke-opacity: 0.7; stroke-width: 0.5"/>
     <use xlink:href="#m1e58fe335b" x="798.054437" y="244.1428" style="fill: #cd7f32; fill-opacity: 0.7; stroke: #f5f5dc; stroke-opacity: 0.7; stroke-width: 0.5"/>
     <use xlink:href="#m1e58fe335b" x="800.802621" y="226.542953" style="fill: #cd7f32; fill-opacity: 0.7; stroke: #f5f5dc; stroke-opacity: 0.7; stroke-width: 0.5"/>
     <use xlink:href="#m1e58fe335b" x="736.764203" y="288.193853" style="fill: #cd7f32; fill-opacity: 0.7; stroke: #f5f5dc; stroke-opacity: 0.7; stroke-width: 0.5"/>
     <use xlink:href="#m1e58fe335b" x="758.842897" y="101.014334" style="fill: #cd7f32; fill-opacity: 0.7; stroke: #f5f5dc; stroke-opacity: 0.7; stroke-width: 0.5"/>
     <use xlink:href="#m1e58fe335b" x="755.147082" y="109.102159" style="fill: #cd7f32; fill-opacity: 0.7; stroke: #f5f5dc; stroke-opacity: 0.7; stroke-width: 0.5"/>
     <use xlink:href="#m1e58fe335b" x="718.649578" y="80.262944" style="fill: #cd7f32; fill-opacity: 0.7; stroke: #f5f5dc; stroke-opacity: 0.7; stroke-width: 0.5"/>
     <use xlink:href="#m1e58fe335b" x="715.303952" y="222.314937" style="fill: #cd7f32; fill-opacity: 0.7; stroke: #f5f5dc; stroke-opacity: 0.7; stroke-width: 0.5"/>
     <use xlink:href="#m1e58fe335b" x="704.34003" y="142.651157" style="fill: #cd7f32; fill-opacity: 0.7; stroke: #f5f5dc; stroke-opacity: 0.7; stroke-width: 0.5"/>
     <use xlink:href="#m1e58fe335b" x="729.869725" y="123.289272" style="fill: #cd7f32; fill-opacity: 0.7; stroke: #f5f5dc; stroke-opacity: 0.7; stroke-width: 0.5"/>
     <use xlink:href="#m1e58fe335b" x="757.581208" y="226.085207" style="fill: #cd7f32; fill-opacity: 0.7; stroke: #f5f5dc; stroke-opacity: 0.7; stroke-width: 0.5"/>
     <use xlink:href="#m1e58fe335b" x="772.547314" y="244.713992" style="fill: #cd7f32; fill-opacity: 0.7; stroke: #f5f5dc; stroke-opacity: 0.7; stroke-width: 0.5"/>
     <use xlink:href="#m1e58fe335b" x="707.837745" y="262.821156" style="fill: #cd7f32; fill-opacity: 0.7; stroke: #f5f5dc; stroke-opacity: 0.7; stroke-width: 0.5"/>
     <use xlink:href="#m1e58fe335b" x="720.342772" y="259.515644" style="fill: #cd7f32; fill-opacity: 0.7; stroke: #f5f5dc; stroke-opacity: 0.7; stroke-width: 0.5"/>
     <use xlink:href="#m1e58fe335b" x="686.403249" y="234.528972" style="fill: #cd7f32; fill-opacity: 0.7; stroke: #f5f5dc; stroke-opacity: 0.7; stroke-width: 0.5"/>
     <use xlink:href="#m1e58fe335b" x="742.874219" y="286.117372" style="fill: #cd7f32; fill-opacity: 0.7; stroke: #f5f5dc; stroke-opacity: 0.7; stroke-width: 0.5"/>
     <use xlink:href="#m1e58fe335b" x="691.431113" y="247.066777" style="fill: #cd7f32; fill-opacity: 0.7; stroke: #f5f5dc; stroke-opacity: 0.7; stroke-width: 0.5"/>
     <use xlink:href="#m1e58fe335b" x="716.943735" y="203.773958" style="fill: #cd7f32; fill-opacity: 0.7; stroke: #f5f5dc; stroke-opacity: 0.7; stroke-width: 0.5"/>
     <use xlink:href="#m1e58fe335b" x="758.872331" y="227.835581" style="fill: #cd7f32; fill-opacity: 0.7; stroke: #f5f5dc; stroke-opacity: 0.7; stroke-width: 0.5"/>
     <use xlink:href="#m1e58fe335b" x="726.436748" y="166.903617" style="fill: #cd7f32; fill-opacity: 0.7; stroke: #f5f5dc; stroke-opacity: 0.7; stroke-width: 0.5"/>
     <use xlink:href="#m1e58fe335b" x="701.933312" y="130.188011" style="fill: #cd7f32; fill-opacity: 0.7; stroke: #f5f5dc; stroke-opacity: 0.7; stroke-width: 0.5"/>
     <use xlink:href="#m1e58fe335b" x="732.911132" y="135.412031" style="fill: #cd7f32; fill-opacity: 0.7; stroke: #f5f5dc; stroke-opacity: 0.7; stroke-width: 0.5"/>
     <use xlink:href="#m1e58fe335b" x="779.322073" y="250.610732" style="fill: #cd7f32; fill-opacity: 0.7; stroke: #f5f5dc; stroke-opacity: 0.7; stroke-width: 0.5"/>
     <use xlink:href="#m1e58fe335b" x="752.231637" y="81.017498" style="fill: #cd7f32; fill-opacity: 0.7; stroke: #f5f5dc; stroke-opacity: 0.7; stroke-width: 0.5"/>
     <use xlink:href="#m1e58fe335b" x="703.571235" y="212.368013" style="fill: #cd7f32; fill-opacity: 0.7; stroke: #f5f5dc; stroke-opacity: 0.7; stroke-width: 0.5"/>
     <use xlink:href="#m1e58fe335b" x="714.799483" y="140.15102" style="fill: #cd7f32; fill-opacity: 0.7; stroke: #f5f5dc; stroke-opacity: 0.7; stroke-width: 0.5"/>
     <use xlink:href="#m1e58fe335b" x="724.244914" y="137.224266" style="fill: #cd7f32; fill-opacity: 0.7; stroke: #f5f5dc; stroke-opacity: 0.7; stroke-width: 0.5"/>
     <use xlink:href="#m1e58fe335b" x="706.558982" y="116.706111" style="fill: #cd7f32; fill-opacity: 0.7; stroke: #f5f5dc; stroke-opacity: 0.7; stroke-width: 0.5"/>
     <use xlink:href="#m1e58fe335b" x="694.117164" y="203.842646" style="fill: #cd7f32; fill-opacity: 0.7; stroke: #f5f5dc; stroke-opacity: 0.7; stroke-width: 0.5"/>
     <use xlink:href="#m1e58fe335b" x="793.834558" y="235.026315" style="fill: #cd7f32; fill-opacity: 0.7; stroke: #f5f5dc; stroke-opacity: 0.7; stroke-width: 0.5"/>
     <use xlink:href="#m1e58fe335b" x="718.810225" y="144.536292" style="fill: #cd7f32; fill-opacity: 0.7; stroke: #f5f5dc; stroke-opacity: 0.7; stroke-width: 0.5"/>
    </g>
   </g>
   <g id="patch_4">
    <path d="M 800.802621 226.542953 
L 752.231637 81.017498 
L 740.811282 71.821818 
L 725.724133 72.476811 
L 716.892846 81.559368 
L 701.933312 130.188011 
L 686.403249 234.528972 
L 691.431113 247.066777 
L 735.653528 291.791546 
L 766.844909 269.820729 
L 798.054437 244.1428 
z
" clip-path="url(#p38924938eb)" style="fill: #cd7f32; opacity: 0.05"/>
   </g>
   <g id="PathCollection_3">
    <defs>
     <path id="m0f59b75df4" d="M 0 3.872983 
C 1.027127 3.872983 2.012324 3.464901 2.738613 2.738613 
C 3.464901 2.012324 3.872983 1.027127 3.872983 0 
C 3.872983 -1.027127 3.464901 -2.012324 2.738613 -2.738613 
C 2.012324 -3.464901 1.027127 -3.872983 0 -3.872983 
C -1.027127 -3.872983 -2.012324 -3.464901 -2.738613 -2.738613 
C -3.464901 -2.012324 -3.872983 -1.027127 -3.872983 0 
C -3.872983 1.027127 -3.464901 2.012324 -2.738613 2.738613 
C -2.012324 3.464901 -1.027127 3.872983 0 3.872983 
z
" style="stroke: #f5f5dc; stroke-opacity: 0.7; stroke-width: 0.5"/>
    </defs>
    <g clip-path="url(#p38924938eb)">
     <use xlink:href="#m0f59b75df4" x="96.341172" y="388.752486" style="fill: #c0c0c0; fill-opacity: 0.7; stroke: #f5f5dc; stroke-opacity: 0.7; stroke-width: 0.5"/>
     <use xlink:href="#m0f59b75df4" x="129.451007" y="357.044166" style="fill: #c0c0c0; fill-opacity: 0.7; stroke: #f5f5dc; stroke-opacity: 0.7; stroke-width: 0.5"/>
     <use xlink:href="#m0f59b75df4" x="111.068366" y="386.707248" style="fill: #c0c0c0; fill-opacity: 0.7; stroke: #f5f5dc; stroke-opacity: 0.7; stroke-width: 0.5"/>
     <use xlink:href="#m0f59b75df4" x="82.33822" y="398.918089" style="fill: #c0c0c0; fill-opacity: 0.7; stroke: #f5f5dc; stroke-opacity: 0.7; stroke-width: 0.5"/>
     <use xlink:href="#m0f59b75df4" x="153.421816" y="419.018674" style="fill: #c0c0c0; fill-opacity: 0.7; stroke: #f5f5dc; stroke-opacity: 0.7; stroke-width: 0.5"/>
     <use xlink:href="#m0f59b75df4" x="130.135211" y="371.242873" style="fill: #c0c0c0; fill-opacity: 0.7; stroke: #f5f5dc; stroke-opacity: 0.7; stroke-width: 0.5"/>
     <use xlink:href="#m0f59b75df4" x="133.235919" y="404.706612" style="fill: #c0c0c0; fill-opacity: 0.7; stroke: #f5f5dc; stroke-opacity: 0.7; stroke-width: 0.5"/>
     <use xlink:href="#m0f59b75df4" x="112.169574" y="413.798022" style="fill: #c0c0c0; fill-opacity: 0.7; stroke: #f5f5dc; stroke-opacity: 0.7; stroke-width: 0.5"/>
     <use xlink:href="#m0f59b75df4" x="94.595095" y="413.255481" style="fill: #c0c0c0; fill-opacity: 0.7; stroke: #f5f5dc; stroke-opacity: 0.7; stroke-width: 0.5"/>
     <use xlink:href="#m0f59b75df4" x="113.023044" y="379.962757" style="fill: #c0c0c0; fill-opacity: 0.7; stroke: #f5f5dc; stroke-opacity: 0.7; stroke-width: 0.5"/>
     <use xlink:href="#m0f59b75df4" x="92.484628" y="361.175119" style="fill: #c0c0c0; fill-opacity: 0.7; stroke: #f5f5dc; stroke-opacity: 0.7; stroke-width: 0.5"/>
     <use xlink:href="#m0f59b75df4" x="103.851489" y="365.461455" style="fill: #c0c0c0; fill-opacity: 0.7; stroke: #f5f5dc; stroke-opacity: 0.7; stroke-width: 0.5"/>
     <use xlink:href="#m0f59b75df4" x="115.202362" y="352.422234" style="fill: #c0c0c0; fill-opacity: 0.7; stroke: #f5f5dc; stroke-opacity: 0.7; stroke-width: 0.5"/>
     <use xlink:href="#m0f59b75df4" x="128.452703" y="392.409818" style="fill: #c0c0c0; fill-opacity: 0.7; stroke: #f5f5dc; stroke-opacity: 0.7; stroke-width: 0.5"/>
     <use xlink:href="#m0f59b75df4" x="138.980678" y="377.01559" style="fill: #c0c0c0; fill-opacity: 0.7; stroke: #f5f5dc; stroke-opacity: 0.7; stroke-width: 0.5"/>
     <use xlink:href="#m0f59b75df4" x="115.344529" y="383.203377" style="fill: #c0c0c0; fill-opacity: 0.7; stroke: #f5f5dc; stroke-opacity: 0.7; stroke-width: 0.5"/>
     <use xlink:href="#m0f59b75df4" x="85.4152" y="375.48364" style="fill: #c0c0c0; fill-opacity: 0.7; stroke: #f5f5dc; stroke-opacity: 0.7; stroke-width: 0.5"/>
     <use xlink:href="#m0f59b75df4" x="97.493611" y="383.749065" style="fill: #c0c0c0; fill-opacity: 0.7; stroke: #f5f5dc; stroke-opacity: 0.7; stroke-width: 0.5"/>
     <use xlink:href="#m0f59b75df4" x="114.718976" y="403.804383" style="fill: #c0c0c0; fill-opacity: 0.7; stroke: #f5f5dc; stroke-opacity: 0.7; stroke-width: 0.5"/>
     <use xlink:href="#m0f59b75df4" x="154.892188" y="402.813863" style="fill: #c0c0c0; fill-opacity: 0.7; stroke: #f5f5dc; stroke-opacity: 0.7; stroke-width: 0.5"/>
     <use xlink:href="#m0f59b75df4" x="158.228115" y="414.217604" style="fill: #c0c0c0; fill-opacity: 0.7; stroke: #f5f5dc; stroke-opacity: 0.7; stroke-width: 0.5"/>
     <use xlink:href="#m0f59b75df4" x="131.111976" y="352.999859" style="fill: #c0c0c0; fill-opacity: 0.7; stroke: #f5f5dc; stroke-opacity: 0.7; stroke-width: 0.5"/>
     <use xlink:href="#m0f59b75df4" x="108.790101" y="346.973079" style="fill: #c0c0c0; fill-opacity: 0.7; stroke: #f5f5dc; stroke-opacity: 0.7; stroke-width: 0.5"/>
     <use xlink:href="#m0f59b75df4" x="138.940278" y="361.752236" style="fill: #c0c0c0; fill-opacity: 0.7; stroke: #f5f5dc; stroke-opacity: 0.7; stroke-width: 0.5"/>
     <use xlink:href="#m0f59b75df4" x="91.982919" y="396.758131" style="fill: #c0c0c0; fill-opacity: 0.7; stroke: #f5f5dc; stroke-opacity: 0.7; stroke-width: 0.5"/>
     <use xlink:href="#m0f59b75df4" x="86.593124" y="399.09703" style="fill: #c0c0c0; fill-opacity: 0.7; stroke: #f5f5dc; stroke-opacity: 0.7; stroke-width: 0.5"/>
     <use xlink:href="#m0f59b75df4" x="150.407114" y="406.719751" style="fill: #c0c0c0; fill-opacity: 0.7; stroke: #f5f5dc; stroke-opacity: 0.7; stroke-width: 0.5"/>
    </g>
   </g>
   <g id="patch_5">
    <path d="M 82.33822 398.918089 
L 94.595095 413.255481 
L 153.421816 419.018674 
L 158.228115 414.217604 
L 154.892188 402.813863 
L 138.940278 361.752236 
L 131.111976 352.999859 
L 108.790101 346.973079 
L 92.484628 361.175119 
L 85.4152 375.48364 
z
" clip-path="url(#p38924938eb)" style="fill: #c0c0c0; opacity: 0.05"/>
   </g>
   <g id="matplotlib.axis_1">
    <g id="xtick_1">
     <g id="line2d_1">
      <defs>
       <path id="m71c989205f" d="M 0 0 
L 0 3.5 
" style="stroke: #666666; stroke-width: 0.8"/>
      </defs>
      <g>
       <use xlink:href="#m71c989205f" x="119.420112" y="676.24" style="fill: #666666; stroke: #666666; stroke-width: 0.8"/>
      </g>
     </g>
     <g id="text_1">
      <!-- −2.5 -->
      <g style="fill: #666666" transform="translate(107.278706 690.838437) scale(0.1 -0.1)">
       <defs>
        <path id="DejaVuSans-2212" d="M 678 2272 
L 4684 2272 
L 4684 1741 
L 678 1741 
L 678 2272 
z
" transform="scale(0.015625)"/>
        <path id="DejaVuSans-32" d="M 1228 531 
L 3431 531 
L 3431 0 
L 469 0 
L 469 531 
Q 828 903 1448 1529 
Q 2069 2156 2228 2338 
Q 2531 2678 2651 2914 
Q 2772 3150 2772 3378 
Q 2772 3750 2511 3984 
Q 2250 4219 1831 4219 
Q 1534 4219 1204 4116 
Q 875 4013 500 3803 
L 500 4441 
Q 881 4594 1212 4672 
Q 1544 4750 1819 4750 
Q 2544 4750 2975 4387 
Q 3406 4025 3406 3419 
Q 3406 3131 3298 2873 
Q 3191 2616 2906 2266 
Q 2828 2175 2409 1742 
Q 1991 1309 1228 531 
z
" transform="scale(0.015625)"/>
        <path id="DejaVuSans-2e" d="M 684 794 
L 1344 794 
L 1344 0 
L 684 0 
L 684 794 
z
" transform="scale(0.015625)"/>
        <path id="DejaVuSans-35" d="M 691 4666 
L 3169 4666 
L 3169 4134 
L 1269 4134 
L 1269 2991 
Q 1406 3038 1543 3061 
Q 1681 3084 1819 3084 
Q 2600 3084 3056 2656 
Q 3513 2228 3513 1497 
Q 3513 744 3044 326 
Q 2575 -91 1722 -91 
Q 1428 -91 1123 -41 
Q 819 9 494 109 
L 494 744 
Q 775 591 1075 516 
Q 1375 441 1709 441 
Q 2250 441 2565 725 
Q 2881 1009 2881 1497 
Q 2881 1984 2565 2268 
Q 2250 2553 1709 2553 
Q 1456 2553 1204 2497 
Q 953 2441 691 2322 
L 691 4666 
z
" transform="scale(0.015625)"/>
       </defs>
       <use xlink:href="#DejaVuSans-2212"/>
       <use xlink:href="#DejaVuSans-32" transform="translate(83.789062 0)"/>
       <use xlink:href="#DejaVuSans-2e" transform="translate(147.412109 0)"/>
       <use xlink:href="#DejaVuSans-35" transform="translate(179.199219 0)"/>
      </g>
     </g>
    </g>
    <g id="xtick_2">
     <g id="line2d_2">
      <g>
       <use xlink:href="#m71c989205f" x="227.789793" y="676.24" style="fill: #666666; stroke: #666666; stroke-width: 0.8"/>
      </g>
     </g>
     <g id="text_2">
      <!-- 0.0 -->
      <g style="fill: #666666" transform="translate(219.83823 690.838437) scale(0.1 -0.1)">
       <defs>
        <path id="DejaVuSans-30" d="M 2034 4250 
Q 1547 4250 1301 3770 
Q 1056 3291 1056 2328 
Q 1056 1369 1301 889 
Q 1547 409 2034 409 
Q 2525 409 2770 889 
Q 3016 1369 3016 2328 
Q 3016 3291 2770 3770 
Q 2525 4250 2034 4250 
z
M 2034 4750 
Q 2819 4750 3233 4129 
Q 3647 3509 3647 2328 
Q 3647 1150 3233 529 
Q 2819 -91 2034 -91 
Q 1250 -91 836 529 
Q 422 1150 422 2328 
Q 422 3509 836 4129 
Q 1250 4750 2034 4750 
z
" transform="scale(0.015625)"/>
       </defs>
       <use xlink:href="#DejaVuSans-30"/>
       <use xlink:href="#DejaVuSans-2e" transform="translate(63.623047 0)"/>
       <use xlink:href="#DejaVuSans-30" transform="translate(95.410156 0)"/>
      </g>
     </g>
    </g>
    <g id="xtick_3">
     <g id="line2d_3">
      <g>
       <use xlink:href="#m71c989205f" x="336.159473" y="676.24" style="fill: #666666; stroke: #666666; stroke-width: 0.8"/>
      </g>
     </g>
     <g id="text_3">
      <!-- 2.5 -->
      <g style="fill: #666666" transform="translate(328.20791 690.838437) scale(0.1 -0.1)">
       <use xlink:href="#DejaVuSans-32"/>
       <use xlink:href="#DejaVuSans-2e" transform="translate(63.623047 0)"/>
       <use xlink:href="#DejaVuSans-35" transform="translate(95.410156 0)"/>
      </g>
     </g>
    </g>
    <g id="xtick_4">
     <g id="line2d_4">
      <g>
       <use xlink:href="#m71c989205f" x="444.529153" y="676.24" style="fill: #666666; stroke: #666666; stroke-width: 0.8"/>
      </g>
     </g>
     <g id="text_4">
      <!-- 5.0 -->
      <g style="fill: #666666" transform="translate(436.577591 690.838437) scale(0.1 -0.1)">
       <use xlink:href="#DejaVuSans-35"/>
       <use xlink:href="#DejaVuSans-2e" transform="translate(63.623047 0)"/>
       <use xlink:href="#DejaVuSans-30" transform="translate(95.410156 0)"/>
      </g>
     </g>
    </g>
    <g id="xtick_5">
     <g id="line2d_5">
      <g>
       <use xlink:href="#m71c989205f" x="552.898834" y="676.24" style="fill: #666666; stroke: #666666; stroke-width: 0.8"/>
      </g>
     </g>
     <g id="text_5">
      <!-- 7.5 -->
      <g style="fill: #666666" transform="translate(544.947271 690.838437) scale(0.1 -0.1)">
       <defs>
        <path id="DejaVuSans-37" d="M 525 4666 
L 3525 4666 
L 3525 4397 
L 1831 0 
L 1172 0 
L 2766 4134 
L 525 4134 
L 525 4666 
z
" transform="scale(0.015625)"/>
       </defs>
       <use xlink:href="#DejaVuSans-37"/>
       <use xlink:href="#DejaVuSans-2e" transform="translate(63.623047 0)"/>
       <use xlink:href="#DejaVuSans-35" transform="translate(95.410156 0)"/>
      </g>
     </g>
    </g>
    <g id="xtick_6">
     <g id="line2d_6">
      <g>
       <use xlink:href="#m71c989205f" x="661.268514" y="676.24" style="fill: #666666; stroke: #666666; stroke-width: 0.8"/>
      </g>
     </g>
     <g id="text_6">
      <!-- 10.0 -->
      <g style="fill: #666666" transform="translate(650.135702 690.838437) scale(0.1 -0.1)">
       <defs>
        <path id="DejaVuSans-31" d="M 794 531 
L 1825 531 
L 1825 4091 
L 703 3866 
L 703 4441 
L 1819 4666 
L 2450 4666 
L 2450 531 
L 3481 531 
L 3481 0 
L 794 0 
L 794 531 
z
" transform="scale(0.015625)"/>
       </defs>
       <use xlink:href="#DejaVuSans-31"/>
       <use xlink:href="#DejaVuSans-30" transform="translate(63.623047 0)"/>
       <use xlink:href="#DejaVuSans-2e" transform="translate(127.246094 0)"/>
       <use xlink:href="#DejaVuSans-30" transform="translate(159.033203 0)"/>
      </g>
     </g>
    </g>
    <g id="xtick_7">
     <g id="line2d_7">
      <g>
       <use xlink:href="#m71c989205f" x="769.638194" y="676.24" style="fill: #666666; stroke: #666666; stroke-width: 0.8"/>
      </g>
     </g>
     <g id="text_7">
      <!-- 12.5 -->
      <g style="fill: #666666" transform="translate(758.505382 690.838437) scale(0.1 -0.1)">
       <use xlink:href="#DejaVuSans-31"/>
       <use xlink:href="#DejaVuSans-32" transform="translate(63.623047 0)"/>
       <use xlink:href="#DejaVuSans-2e" transform="translate(127.246094 0)"/>
       <use xlink:href="#DejaVuSans-35" transform="translate(159.033203 0)"/>
      </g>
     </g>
    </g>
    <g id="text_8">
     <!-- UMAP Dimension 1 -->
     <g style="fill: #c5c5b0" transform="translate(384.756983 706.03625) scale(0.12 -0.12)">
      <defs>
       <path id="DejaVuSans-55" d="M 556 4666 
L 1191 4666 
L 1191 1831 
Q 1191 1081 1462 751 
Q 1734 422 2344 422 
Q 2950 422 3222 751 
Q 3494 1081 3494 1831 
L 3494 4666 
L 4128 4666 
L 4128 1753 
Q 4128 841 3676 375 
Q 3225 -91 2344 -91 
Q 1459 -91 1007 375 
Q 556 841 556 1753 
L 556 4666 
z
" transform="scale(0.015625)"/>
       <path id="DejaVuSans-4d" d="M 628 4666 
L 1569 4666 
L 2759 1491 
L 3956 4666 
L 4897 4666 
L 4897 0 
L 4281 0 
L 4281 4097 
L 3078 897 
L 2444 897 
L 1241 4097 
L 1241 0 
L 628 0 
L 628 4666 
z
" transform="scale(0.015625)"/>
       <path id="DejaVuSans-41" d="M 2188 4044 
L 1331 1722 
L 3047 1722 
L 2188 4044 
z
M 1831 4666 
L 2547 4666 
L 4325 0 
L 3669 0 
L 3244 1197 
L 1141 1197 
L 716 0 
L 50 0 
L 1831 4666 
z
" transform="scale(0.015625)"/>
       <path id="DejaVuSans-50" d="M 1259 4147 
L 1259 2394 
L 2053 2394 
Q 2494 2394 2734 2622 
Q 2975 2850 2975 3272 
Q 2975 3691 2734 3919 
Q 2494 4147 2053 4147 
L 1259 4147 
z
M 628 4666 
L 2053 4666 
Q 2838 4666 3239 4311 
Q 3641 3956 3641 3272 
Q 3641 2581 3239 2228 
Q 2838 1875 2053 1875 
L 1259 1875 
L 1259 0 
L 628 0 
L 628 4666 
z
" transform="scale(0.015625)"/>
       <path id="DejaVuSans-20" transform="scale(0.015625)"/>
       <path id="DejaVuSans-44" d="M 1259 4147 
L 1259 519 
L 2022 519 
Q 2988 519 3436 956 
Q 3884 1394 3884 2338 
Q 3884 3275 3436 3711 
Q 2988 4147 2022 4147 
L 1259 4147 
z
M 628 4666 
L 1925 4666 
Q 3281 4666 3915 4102 
Q 4550 3538 4550 2338 
Q 4550 1131 3912 565 
Q 3275 0 1925 0 
L 628 0 
L 628 4666 
z
" transform="scale(0.015625)"/>
       <path id="DejaVuSans-69" d="M 603 3500 
L 1178 3500 
L 1178 0 
L 603 0 
L 603 3500 
z
M 603 4863 
L 1178 4863 
L 1178 4134 
L 603 4134 
L 603 4863 
z
" transform="scale(0.015625)"/>
       <path id="DejaVuSans-6d" d="M 3328 2828 
Q 3544 3216 3844 3400 
Q 4144 3584 4550 3584 
Q 5097 3584 5394 3201 
Q 5691 2819 5691 2113 
L 5691 0 
L 5113 0 
L 5113 2094 
Q 5113 2597 4934 2840 
Q 4756 3084 4391 3084 
Q 3944 3084 3684 2787 
Q 3425 2491 3425 1978 
L 3425 0 
L 2847 0 
L 2847 2094 
Q 2847 2600 2669 2842 
Q 2491 3084 2119 3084 
Q 1678 3084 1418 2786 
Q 1159 2488 1159 1978 
L 1159 0 
L 581 0 
L 581 3500 
L 1159 3500 
L 1159 2956 
Q 1356 3278 1631 3431 
Q 1906 3584 2284 3584 
Q 2666 3584 2933 3390 
Q 3200 3197 3328 2828 
z
" transform="scale(0.015625)"/>
       <path id="DejaVuSans-65" d="M 3597 1894 
L 3597 1613 
L 953 1613 
Q 991 1019 1311 708 
Q 1631 397 2203 397 
Q 2534 397 2845 478 
Q 3156 559 3463 722 
L 3463 178 
Q 3153 47 2828 -22 
Q 2503 -91 2169 -91 
Q 1331 -91 842 396 
Q 353 884 353 1716 
Q 353 2575 817 3079 
Q 1281 3584 2069 3584 
Q 2775 3584 3186 3129 
Q 3597 2675 3597 1894 
z
M 3022 2063 
Q 3016 2534 2758 2815 
Q 2500 3097 2075 3097 
Q 1594 3097 1305 2825 
Q 1016 2553 972 2059 
L 3022 2063 
z
" transform="scale(0.015625)"/>
       <path id="DejaVuSans-6e" d="M 3513 2113 
L 3513 0 
L 2938 0 
L 2938 2094 
Q 2938 2591 2744 2837 
Q 2550 3084 2163 3084 
Q 1697 3084 1428 2787 
Q 1159 2491 1159 1978 
L 1159 0 
L 581 0 
L 581 3500 
L 1159 3500 
L 1159 2956 
Q 1366 3272 1645 3428 
Q 1925 3584 2291 3584 
Q 2894 3584 3203 3211 
Q 3513 2838 3513 2113 
z
" transform="scale(0.015625)"/>
       <path id="DejaVuSans-73" d="M 2834 3397 
L 2834 2853 
Q 2591 2978 2328 3040 
Q 2066 3103 1784 3103 
Q 1356 3103 1142 2972 
Q 928 2841 928 2578 
Q 928 2378 1081 2264 
Q 1234 2150 1697 2047 
L 1894 2003 
Q 2506 1872 2764 1633 
Q 3022 1394 3022 966 
Q 3022 478 2636 193 
Q 2250 -91 1575 -91 
Q 1294 -91 989 -36 
Q 684 19 347 128 
L 347 722 
Q 666 556 975 473 
Q 1284 391 1588 391 
Q 1994 391 2212 530 
Q 2431 669 2431 922 
Q 2431 1156 2273 1281 
Q 2116 1406 1581 1522 
L 1381 1569 
Q 847 1681 609 1914 
Q 372 2147 372 2553 
Q 372 3047 722 3315 
Q 1072 3584 1716 3584 
Q 2034 3584 2315 3537 
Q 2597 3491 2834 3397 
z
" transform="scale(0.015625)"/>
       <path id="DejaVuSans-6f" d="M 1959 3097 
Q 1497 3097 1228 2736 
Q 959 2375 959 1747 
Q 959 1119 1226 758 
Q 1494 397 1959 397 
Q 2419 397 2687 759 
Q 2956 1122 2956 1747 
Q 2956 2369 2687 2733 
Q 2419 3097 1959 3097 
z
M 1959 3584 
Q 2709 3584 3137 3096 
Q 3566 2609 3566 1747 
Q 3566 888 3137 398 
Q 2709 -91 1959 -91 
Q 1206 -91 779 398 
Q 353 888 353 1747 
Q 353 2609 779 3096 
Q 1206 3584 1959 3584 
z
" transform="scale(0.015625)"/>
      </defs>
      <use xlink:href="#DejaVuSans-55"/>
      <use xlink:href="#DejaVuSans-4d" transform="translate(73.193359 0)"/>
      <use xlink:href="#DejaVuSans-41" transform="translate(159.472656 0)"/>
      <use xlink:href="#DejaVuSans-50" transform="translate(227.880859 0)"/>
      <use xlink:href="#DejaVuSans-20" transform="translate(288.183594 0)"/>
      <use xlink:href="#DejaVuSans-44" transform="translate(319.970703 0)"/>
      <use xlink:href="#DejaVuSans-69" transform="translate(396.972656 0)"/>
      <use xlink:href="#DejaVuSans-6d" transform="translate(424.755859 0)"/>
      <use xlink:href="#DejaVuSans-65" transform="translate(522.167969 0)"/>
      <use xlink:href="#DejaVuSans-6e" transform="translate(583.691406 0)"/>
      <use xlink:href="#DejaVuSans-73" transform="translate(647.070312 0)"/>
      <use xlink:href="#DejaVuSans-69" transform="translate(699.169922 0)"/>
      <use xlink:href="#DejaVuSans-6f" transform="translate(726.953125 0)"/>
      <use xlink:href="#DejaVuSans-6e" transform="translate(788.134766 0)"/>
      <use xlink:href="#DejaVuSans-20" transform="translate(851.513672 0)"/>
      <use xlink:href="#DejaVuSans-31" transform="translate(883.300781 0)"/>
     </g>
    </g>
   </g>
   <g id="matplotlib.axis_2">
    <g id="ytick_1">
     <g id="line2d_8">
      <defs>
       <path id="m9d75773249" d="M 0 0 
L -3.5 0 
" style="stroke: #666666; stroke-width: 0.8"/>
      </defs>
      <g>
       <use xlink:href="#m9d75773249" x="46.415" y="606.218906" style="fill: #666666; stroke: #666666; stroke-width: 0.8"/>
      </g>
     </g>
     <g id="text_9">
      <!-- 0 -->
      <g style="fill: #666666" transform="translate(33.0525 610.018125) scale(0.1 -0.1)">
       <use xlink:href="#DejaVuSans-30"/>
      </g>
     </g>
    </g>
    <g id="ytick_2">
     <g id="line2d_9">
      <g>
       <use xlink:href="#m9d75773249" x="46.415" y="509.150189" style="fill: #666666; stroke: #666666; stroke-width: 0.8"/>
      </g>
     </g>
     <g id="text_10">
      <!-- 2 -->
      <g style="fill: #666666" transform="translate(33.0525 512.949408) scale(0.1 -0.1)">
       <use xlink:href="#DejaVuSans-32"/>
      </g>
     </g>
    </g>
    <g id="ytick_3">
     <g id="line2d_10">
      <g>
       <use xlink:href="#m9d75773249" x="46.415" y="412.081472" style="fill: #666666; stroke: #666666; stroke-width: 0.8"/>
      </g>
     </g>
     <g id="text_11">
      <!-- 4 -->
      <g style="fill: #666666" transform="translate(33.0525 415.88069) scale(0.1 -0.1)">
       <defs>
        <path id="DejaVuSans-34" d="M 2419 4116 
L 825 1625 
L 2419 1625 
L 2419 4116 
z
M 2253 4666 
L 3047 4666 
L 3047 1625 
L 3713 1625 
L 3713 1100 
L 3047 1100 
L 3047 0 
L 2419 0 
L 2419 1100 
L 313 1100 
L 313 1709 
L 2253 4666 
z
" transform="scale(0.015625)"/>
       </defs>
       <use xlink:href="#DejaVuSans-34"/>
      </g>
     </g>
    </g>
    <g id="ytick_4">
     <g id="line2d_11">
      <g>
       <use xlink:href="#m9d75773249" x="46.415" y="315.012755" style="fill: #666666; stroke: #666666; stroke-width: 0.8"/>
      </g>
     </g>
     <g id="text_12">
      <!-- 6 -->
      <g style="fill: #666666" transform="translate(33.0525 318.811973) scale(0.1 -0.1)">
       <defs>
        <path id="DejaVuSans-36" d="M 2113 2584 
Q 1688 2584 1439 2293 
Q 1191 2003 1191 1497 
Q 1191 994 1439 701 
Q 1688 409 2113 409 
Q 2538 409 2786 701 
Q 3034 994 3034 1497 
Q 3034 2003 2786 2293 
Q 2538 2584 2113 2584 
z
M 3366 4563 
L 3366 3988 
Q 3128 4100 2886 4159 
Q 2644 4219 2406 4219 
Q 1781 4219 1451 3797 
Q 1122 3375 1075 2522 
Q 1259 2794 1537 2939 
Q 1816 3084 2150 3084 
Q 2853 3084 3261 2657 
Q 3669 2231 3669 1497 
Q 3669 778 3244 343 
Q 2819 -91 2113 -91 
Q 1303 -91 875 529 
Q 447 1150 447 2328 
Q 447 3434 972 4092 
Q 1497 4750 2381 4750 
Q 2619 4750 2861 4703 
Q 3103 4656 3366 4563 
z
" transform="scale(0.015625)"/>
       </defs>
       <use xlink:href="#DejaVuSans-36"/>
      </g>
     </g>
    </g>
    <g id="ytick_5">
     <g id="line2d_12">
      <g>
       <use xlink:href="#m9d75773249" x="46.415" y="217.944037" style="fill: #666666; stroke: #666666; stroke-width: 0.8"/>
      </g>
     </g>
     <g id="text_13">
      <!-- 8 -->
      <g style="fill: #666666" transform="translate(33.0525 221.743256) scale(0.1 -0.1)">
       <defs>
        <path id="DejaVuSans-38" d="M 2034 2216 
Q 1584 2216 1326 1975 
Q 1069 1734 1069 1313 
Q 1069 891 1326 650 
Q 1584 409 2034 409 
Q 2484 409 2743 651 
Q 3003 894 3003 1313 
Q 3003 1734 2745 1975 
Q 2488 2216 2034 2216 
z
M 1403 2484 
Q 997 2584 770 2862 
Q 544 3141 544 3541 
Q 544 4100 942 4425 
Q 1341 4750 2034 4750 
Q 2731 4750 3128 4425 
Q 3525 4100 3525 3541 
Q 3525 3141 3298 2862 
Q 3072 2584 2669 2484 
Q 3125 2378 3379 2068 
Q 3634 1759 3634 1313 
Q 3634 634 3220 271 
Q 2806 -91 2034 -91 
Q 1263 -91 848 271 
Q 434 634 434 1313 
Q 434 1759 690 2068 
Q 947 2378 1403 2484 
z
M 1172 3481 
Q 1172 3119 1398 2916 
Q 1625 2713 2034 2713 
Q 2441 2713 2670 2916 
Q 2900 3119 2900 3481 
Q 2900 3844 2670 4047 
Q 2441 4250 2034 4250 
Q 1625 4250 1398 4047 
Q 1172 3844 1172 3481 
z
" transform="scale(0.015625)"/>
       </defs>
       <use xlink:href="#DejaVuSans-38"/>
      </g>
     </g>
    </g>
    <g id="ytick_6">
     <g id="line2d_13">
      <g>
       <use xlink:href="#m9d75773249" x="46.415" y="120.87532" style="fill: #666666; stroke: #666666; stroke-width: 0.8"/>
      </g>
     </g>
     <g id="text_14">
      <!-- 10 -->
      <g style="fill: #666666" transform="translate(26.69 124.674539) scale(0.1 -0.1)">
       <use xlink:href="#DejaVuSans-31"/>
       <use xlink:href="#DejaVuSans-30" transform="translate(63.623047 0)"/>
      </g>
     </g>
    </g>
    <g id="text_15">
     <!-- UMAP Dimension 2 -->
     <g style="fill: #c5c5b0" transform="translate(20.194375 416.453438) rotate(-90) scale(0.12 -0.12)">
      <use xlink:href="#DejaVuSans-55"/>
      <use xlink:href="#DejaVuSans-4d" transform="translate(73.193359 0)"/>
      <use xlink:href="#DejaVuSans-41" transform="translate(159.472656 0)"/>
      <use xlink:href="#DejaVuSans-50" transform="translate(227.880859 0)"/>
      <use xlink:href="#DejaVuSans-20" transform="translate(288.183594 0)"/>
      <use xlink:href="#DejaVuSans-44" transform="translate(319.970703 0)"/>
      <use xlink:href="#DejaVuSans-69" transform="translate(396.972656 0)"/>
      <use xlink:href="#DejaVuSans-6d" transform="translate(424.755859 0)"/>
      <use xlink:href="#DejaVuSans-65" transform="translate(522.167969 0)"/>
      <use xlink:href="#DejaVuSans-6e" transform="translate(583.691406 0)"/>
      <use xlink:href="#DejaVuSans-73" transform="translate(647.070312 0)"/>
      <use xlink:href="#DejaVuSans-69" transform="translate(699.169922 0)"/>
      <use xlink:href="#DejaVuSans-6f" transform="translate(726.953125 0)"/>
      <use xlink:href="#DejaVuSans-6e" transform="translate(788.134766 0)"/>
      <use xlink:href="#DejaVuSans-20" transform="translate(851.513672 0)"/>
      <use xlink:href="#DejaVuSans-32" transform="translate(883.300781 0)"/>
     </g>
    </g>
   </g>
   <g id="line2d_14">
    <path d="M 292.66578 637.918944 
L 265.523649 580.006643 
" clip-path="url(#p38924938eb)" style="fill: none; stroke-dasharray: 5.55,2.4; stroke-dashoffset: 0; stroke: #50c878; stroke-opacity: 0.3; stroke-width: 1.5"/>
   </g>
   <g id="line2d_15">
    <path d="M 292.66578 637.918944 
L 297.689888 647.458182 
" clip-path="url(#p38924938eb)" style="fill: none; stroke-dasharray: 5.55,2.4; stroke-dashoffset: 0; stroke: #50c878; stroke-opacity: 0.3; stroke-width: 1.5"/>
   </g>
   <g id="line2d_16">
    <path d="M 301.502271 643.501715 
L 297.689888 647.458182 
" clip-path="url(#p38924938eb)" style="fill: none; stroke-dasharray: 5.55,2.4; stroke-dashoffset: 0; stroke: #50c878; stroke-opacity: 0.3; stroke-width: 1.5"/>
   </g>
   <g id="line2d_17">
    <path d="M 293.850252 537.017693 
L 265.523649 580.006643 
" clip-path="url(#p38924938eb)" style="fill: none; stroke-dasharray: 5.55,2.4; stroke-dashoffset: 0; stroke: #50c878; stroke-opacity: 0.3; stroke-width: 1.5"/>
   </g>
   <g id="line2d_18">
    <path d="M 293.850252 537.017693 
L 299.977185 533.003045 
" clip-path="url(#p38924938eb)" style="fill: none; stroke-dasharray: 5.55,2.4; stroke-dashoffset: 0; stroke: #50c878; stroke-opacity: 0.3; stroke-width: 1.5"/>
   </g>
   <g id="line2d_19">
    <path d="M 307.429658 540.414019 
L 314.922932 593.92162 
" clip-path="url(#p38924938eb)" style="fill: none; stroke-dasharray: 5.55,2.4; stroke-dashoffset: 0; stroke: #50c878; stroke-opacity: 0.3; stroke-width: 1.5"/>
   </g>
   <g id="line2d_20">
    <path d="M 307.429658 540.414019 
L 299.977185 533.003045 
" clip-path="url(#p38924938eb)" style="fill: none; stroke-dasharray: 5.55,2.4; stroke-dashoffset: 0; stroke: #50c878; stroke-opacity: 0.3; stroke-width: 1.5"/>
   </g>
   <g id="line2d_21">
    <path d="M 311.260705 612.785567 
L 314.922932 593.92162 
" clip-path="url(#p38924938eb)" style="fill: none; stroke-dasharray: 5.55,2.4; stroke-dashoffset: 0; stroke: #50c878; stroke-opacity: 0.3; stroke-width: 1.5"/>
   </g>
   <g id="line2d_22">
    <path d="M 311.260705 612.785567 
L 301.502271 643.501715 
" clip-path="url(#p38924938eb)" style="fill: none; stroke-dasharray: 5.55,2.4; stroke-dashoffset: 0; stroke: #50c878; stroke-opacity: 0.3; stroke-width: 1.5"/>
   </g>
   <g id="line2d_23">
    <path d="M 752.231637 81.017498 
L 800.802621 226.542953 
" clip-path="url(#p38924938eb)" style="fill: none; stroke-dasharray: 5.55,2.4; stroke-dashoffset: 0; stroke: #cd7f32; stroke-opacity: 0.3; stroke-width: 1.5"/>
   </g>
   <g id="line2d_24">
    <path d="M 752.231637 81.017498 
L 740.811282 71.821818 
" clip-path="url(#p38924938eb)" style="fill: none; stroke-dasharray: 5.55,2.4; stroke-dashoffset: 0; stroke: #cd7f32; stroke-opacity: 0.3; stroke-width: 1.5"/>
   </g>
   <g id="line2d_25">
    <path d="M 691.431113 247.066777 
L 686.403249 234.528972 
" clip-path="url(#p38924938eb)" style="fill: none; stroke-dasharray: 5.55,2.4; stroke-dashoffset: 0; stroke: #cd7f32; stroke-opacity: 0.3; stroke-width: 1.5"/>
   </g>
   <g id="line2d_26">
    <path d="M 691.431113 247.066777 
L 735.653528 291.791546 
" clip-path="url(#p38924938eb)" style="fill: none; stroke-dasharray: 5.55,2.4; stroke-dashoffset: 0; stroke: #cd7f32; stroke-opacity: 0.3; stroke-width: 1.5"/>
   </g>
   <g id="line2d_27">
    <path d="M 798.054437 244.1428 
L 800.802621 226.542953 
" clip-path="url(#p38924938eb)" style="fill: none; stroke-dasharray: 5.55,2.4; stroke-dashoffset: 0; stroke: #cd7f32; stroke-opacity: 0.3; stroke-width: 1.5"/>
   </g>
   <g id="line2d_28">
    <path d="M 701.933312 130.188011 
L 686.403249 234.528972 
" clip-path="url(#p38924938eb)" style="fill: none; stroke-dasharray: 5.55,2.4; stroke-dashoffset: 0; stroke: #cd7f32; stroke-opacity: 0.3; stroke-width: 1.5"/>
   </g>
   <g id="line2d_29">
    <path d="M 701.933312 130.188011 
L 716.892846 81.559368 
" clip-path="url(#p38924938eb)" style="fill: none; stroke-dasharray: 5.55,2.4; stroke-dashoffset: 0; stroke: #cd7f32; stroke-opacity: 0.3; stroke-width: 1.5"/>
   </g>
   <g id="line2d_30">
    <path d="M 725.724133 72.476811 
L 740.811282 71.821818 
" clip-path="url(#p38924938eb)" style="fill: none; stroke-dasharray: 5.55,2.4; stroke-dashoffset: 0; stroke: #cd7f32; stroke-opacity: 0.3; stroke-width: 1.5"/>
   </g>
   <g id="line2d_31">
    <path d="M 725.724133 72.476811 
L 716.892846 81.559368 
" clip-path="url(#p38924938eb)" style="fill: none; stroke-dasharray: 5.55,2.4; stroke-dashoffset: 0; stroke: #cd7f32; stroke-opacity: 0.3; stroke-width: 1.5"/>
   </g>
   <g id="line2d_32">
    <path d="M 766.844909 269.820729 
L 735.653528 291.791546 
" clip-path="url(#p38924938eb)" style="fill: none; stroke-dasharray: 5.55,2.4; stroke-dashoffset: 0; stroke: #cd7f32; stroke-opacity: 0.3; stroke-width: 1.5"/>
   </g>
   <g id="line2d_33">
    <path d="M 766.844909 269.820729 
L 798.054437 244.1428 
" clip-path="url(#p38924938eb)" style="fill: none; stroke-dasharray: 5.55,2.4; stroke-dashoffset: 0; stroke: #cd7f32; stroke-opacity: 0.3; stroke-width: 1.5"/>
   </g>
   <g id="line2d_34">
    <path d="M 94.595095 413.255481 
L 82.33822 398.918089 
" clip-path="url(#p38924938eb)" style="fill: none; stroke-dasharray: 5.55,2.4; stroke-dashoffset: 0; stroke: #c0c0c0; stroke-opacity: 0.3; stroke-width: 1.5"/>
   </g>
   <g id="line2d_35">
    <path d="M 92.484628 361.175119 
L 108.790101 346.973079 
" clip-path="url(#p38924938eb)" style="fill: none; stroke-dasharray: 5.55,2.4; stroke-dashoffset: 0; stroke: #c0c0c0; stroke-opacity: 0.3; stroke-width: 1.5"/>
   </g>
   <g id="line2d_36">
    <path d="M 154.892188 402.813863 
L 158.228115 414.217604 
" clip-path="url(#p38924938eb)" style="fill: none; stroke-dasharray: 5.55,2.4; stroke-dashoffset: 0; stroke: #c0c0c0; stroke-opacity: 0.3; stroke-width: 1.5"/>
   </g>
   <g id="line2d_37">
    <path d="M 154.892188 402.813863 
L 138.940278 361.752236 
" clip-path="url(#p38924938eb)" style="fill: none; stroke-dasharray: 5.55,2.4; stroke-dashoffset: 0; stroke: #c0c0c0; stroke-opacity: 0.3; stroke-width: 1.5"/>
   </g>
   <g id="line2d_38">
    <path d="M 131.111976 352.999859 
L 108.790101 346.973079 
" clip-path="url(#p38924938eb)" style="fill: none; stroke-dasharray: 5.55,2.4; stroke-dashoffset: 0; stroke: #c0c0c0; stroke-opacity: 0.3; stroke-width: 1.5"/>
   </g>
   <g id="line2d_39">
    <path d="M 131.111976 352.999859 
L 138.940278 361.752236 
" clip-path="url(#p38924938eb)" style="fill: none; stroke-dasharray: 5.55,2.4; stroke-dashoffset: 0; stroke: #c0c0c0; stroke-opacity: 0.3; stroke-width: 1.5"/>
   </g>
   <g id="line2d_40">
    <path d="M 153.421816 419.018674 
L 158.228115 414.217604 
" clip-path="url(#p38924938eb)" style="fill: none; stroke-dasharray: 5.55,2.4; stroke-dashoffset: 0; stroke: #c0c0c0; stroke-opacity: 0.3; stroke-width: 1.5"/>
   </g>
   <g id="line2d_41">
    <path d="M 153.421816 419.018674 
L 94.595095 413.255481 
" clip-path="url(#p38924938eb)" style="fill: none; stroke-dasharray: 5.55,2.4; stroke-dashoffset: 0; stroke: #c0c0c0; stroke-opacity: 0.3; stroke-width: 1.5"/>
   </g>
   <g id="line2d_42">
    <path d="M 85.4152 375.48364 
L 82.33822 398.918089 
" clip-path="url(#p38924938eb)" style="fill: none; stroke-dasharray: 5.55,2.4; stroke-dashoffset: 0; stroke: #c0c0c0; stroke-opacity: 0.3; stroke-width: 1.5"/>
   </g>
   <g id="line2d_43">
    <path d="M 85.4152 375.48364 
L 92.484628 361.175119 
" clip-path="url(#p38924938eb)" style="fill: none; stroke-dasharray: 5.55,2.4; stroke-dashoffset: 0; stroke: #c0c0c0; stroke-opacity: 0.3; stroke-width: 1.5"/>
   </g>
   <g id="patch_6">
    <path d="M 46.415 676.24 
L 46.415 43.04 
" style="fill: none; stroke: #4a4a3d; stroke-width: 0.8; stroke-linejoin: miter; stroke-linecap: square"/>
   </g>
   <g id="patch_7">
    <path d="M 836.725841 676.24 
L 836.725841 43.04 
" style="fill: none; stroke: #4a4a3d; stroke-width: 0.8; stroke-linejoin: miter; stroke-linecap: square"/>
   </g>
   <g id="patch_8">
    <path d="M 46.415 676.24 
L 836.725841 676.24 
" style="fill: none; stroke: #4a4a3d; stroke-width: 0.8; stroke-linejoin: miter; stroke-linecap: square"/>
   </g>
   <g id="patch_9">
    <path d="M 46.415 43.04 
L 836.725841 43.04 
" style="fill: none; stroke: #4a4a3d; stroke-width: 0.8; stroke-linejoin: miter; stroke-linecap: square"/>
   </g>
   <g id="text_16">
    <g id="patch_10">
     <path d="M 300.689888 649.537869 
L 341.075825 649.537869 
Q 344.075825 649.537869 344.075825 646.537869 
L 344.075825 636.859744 
Q 344.075825 633.859744 341.075825 633.859744 
L 300.689888 633.859744 
Q 297.689888 633.859744 297.689888 636.859744 
L 297.689888 646.537869 
Q 297.689888 649.537869 300.689888 649.537869 
z
" style="fill: #50c878; opacity: 0.3"/>
    </g>
    <!-- Martini -->
    <g style="fill: #f5f5dc" transform="translate(300.689888 644.458182) scale(0.1 -0.1)">
     <defs>
      <path id="DejaVuSans-Bold-4d" d="M 588 4666 
L 2119 4666 
L 3181 2169 
L 4250 4666 
L 5778 4666 
L 5778 0 
L 4641 0 
L 4641 3413 
L 3566 897 
L 2803 897 
L 1728 3413 
L 1728 0 
L 588 0 
L 588 4666 
z
" transform="scale(0.015625)"/>
      <path id="DejaVuSans-Bold-61" d="M 2106 1575 
Q 1756 1575 1579 1456 
Q 1403 1338 1403 1106 
Q 1403 894 1545 773 
Q 1688 653 1941 653 
Q 2256 653 2472 879 
Q 2688 1106 2688 1447 
L 2688 1575 
L 2106 1575 
z
M 3816 1997 
L 3816 0 
L 2688 0 
L 2688 519 
Q 2463 200 2181 54 
Q 1900 -91 1497 -91 
Q 953 -91 614 226 
Q 275 544 275 1050 
Q 275 1666 698 1953 
Q 1122 2241 2028 2241 
L 2688 2241 
L 2688 2328 
Q 2688 2594 2478 2717 
Q 2269 2841 1825 2841 
Q 1466 2841 1156 2769 
Q 847 2697 581 2553 
L 581 3406 
Q 941 3494 1303 3539 
Q 1666 3584 2028 3584 
Q 2975 3584 3395 3211 
Q 3816 2838 3816 1997 
z
" transform="scale(0.015625)"/>
      <path id="DejaVuSans-Bold-72" d="M 3138 2547 
Q 2991 2616 2845 2648 
Q 2700 2681 2553 2681 
Q 2122 2681 1889 2404 
Q 1656 2128 1656 1613 
L 1656 0 
L 538 0 
L 538 3500 
L 1656 3500 
L 1656 2925 
Q 1872 3269 2151 3426 
Q 2431 3584 2822 3584 
Q 2878 3584 2943 3579 
Q 3009 3575 3134 3559 
L 3138 2547 
z
" transform="scale(0.015625)"/>
      <path id="DejaVuSans-Bold-74" d="M 1759 4494 
L 1759 3500 
L 2913 3500 
L 2913 2700 
L 1759 2700 
L 1759 1216 
Q 1759 972 1856 886 
Q 1953 800 2241 800 
L 2816 800 
L 2816 0 
L 1856 0 
Q 1194 0 917 276 
Q 641 553 641 1216 
L 641 2700 
L 84 2700 
L 84 3500 
L 641 3500 
L 641 4494 
L 1759 4494 
z
" transform="scale(0.015625)"/>
      <path id="DejaVuSans-Bold-69" d="M 538 3500 
L 1656 3500 
L 1656 0 
L 538 0 
L 538 3500 
z
M 538 4863 
L 1656 4863 
L 1656 3950 
L 538 3950 
L 538 4863 
z
" transform="scale(0.015625)"/>
      <path id="DejaVuSans-Bold-6e" d="M 4056 2131 
L 4056 0 
L 2931 0 
L 2931 347 
L 2931 1631 
Q 2931 2084 2911 2256 
Q 2891 2428 2841 2509 
Q 2775 2619 2662 2680 
Q 2550 2741 2406 2741 
Q 2056 2741 1856 2470 
Q 1656 2200 1656 1722 
L 1656 0 
L 538 0 
L 538 3500 
L 1656 3500 
L 1656 2988 
Q 1909 3294 2193 3439 
Q 2478 3584 2822 3584 
Q 3428 3584 3742 3212 
Q 4056 2841 4056 2131 
z
" transform="scale(0.015625)"/>
     </defs>
     <use xlink:href="#DejaVuSans-Bold-4d"/>
     <use xlink:href="#DejaVuSans-Bold-61" transform="translate(99.511719 0)"/>
     <use xlink:href="#DejaVuSans-Bold-72" transform="translate(166.992188 0)"/>
     <use xlink:href="#DejaVuSans-Bold-74" transform="translate(216.308594 0)"/>
     <use xlink:href="#DejaVuSans-Bold-69" transform="translate(264.111328 0)"/>
     <use xlink:href="#DejaVuSans-Bold-6e" transform="translate(298.388672 0)"/>
     <use xlink:href="#DejaVuSans-Bold-69" transform="translate(369.580078 0)"/>
    </g>
   </g>
   <g id="text_17">
    <g id="patch_11">
     <path d="M 99.341172 390.832173 
L 160.453672 390.832173 
Q 163.453672 390.832173 163.453672 387.832173 
L 163.453672 378.154048 
Q 163.453672 375.154048 160.453672 375.154048 
L 99.341172 375.154048 
Q 96.341172 375.154048 96.341172 378.154048 
L 96.341172 387.832173 
Q 96.341172 390.832173 99.341172 390.832173 
z
" style="fill: #c0c0c0; opacity: 0.3"/>
    </g>
    <!-- Manhattan -->
    <g style="fill: #f5f5dc" transform="translate(99.341172 385.752486) scale(0.1 -0.1)">
     <defs>
      <path id="DejaVuSans-Bold-68" d="M 4056 2131 
L 4056 0 
L 2931 0 
L 2931 347 
L 2931 1625 
Q 2931 2084 2911 2256 
Q 2891 2428 2841 2509 
Q 2775 2619 2662 2680 
Q 2550 2741 2406 2741 
Q 2056 2741 1856 2470 
Q 1656 2200 1656 1722 
L 1656 0 
L 538 0 
L 538 4863 
L 1656 4863 
L 1656 2988 
Q 1909 3294 2193 3439 
Q 2478 3584 2822 3584 
Q 3428 3584 3742 3212 
Q 4056 2841 4056 2131 
z
" transform="scale(0.015625)"/>
     </defs>
     <use xlink:href="#DejaVuSans-Bold-4d"/>
     <use xlink:href="#DejaVuSans-Bold-61" transform="translate(99.511719 0)"/>
     <use xlink:href="#DejaVuSans-Bold-6e" transform="translate(166.992188 0)"/>
     <use xlink:href="#DejaVuSans-Bold-68" transform="translate(238.183594 0)"/>
     <use xlink:href="#DejaVuSans-Bold-61" transform="translate(309.375 0)"/>
     <use xlink:href="#DejaVuSans-Bold-74" transform="translate(376.855469 0)"/>
     <use xlink:href="#DejaVuSans-Bold-74" transform="translate(424.658203 0)"/>
     <use xlink:href="#DejaVuSans-Bold-61" transform="translate(472.460938 0)"/>
     <use xlink:href="#DejaVuSans-Bold-6e" transform="translate(539.941406 0)"/>
    </g>
   </g>
   <g id="text_18">
    <g id="patch_12">
     <path d="M 285.268161 566.07205 
L 329.925973 566.07205 
Q 332.925973 566.07205 332.925973 563.07205 
L 332.925973 553.3158 
Q 332.925973 550.3158 329.925973 550.3158 
L 285.268161 550.3158 
Q 282.268161 550.3158 282.268161 553.3158 
L 282.268161 563.07205 
Q 282.268161 566.07205 285.268161 566.07205 
z
" style="fill: #50c878; opacity: 0.3"/>
    </g>
    <!-- Negroni -->
    <g style="fill: #f5f5dc" transform="translate(285.268161 560.914237) scale(0.1 -0.1)">
     <defs>
      <path id="DejaVuSans-Bold-4e" d="M 588 4666 
L 1931 4666 
L 3628 1466 
L 3628 4666 
L 4769 4666 
L 4769 0 
L 3425 0 
L 1728 3200 
L 1728 0 
L 588 0 
L 588 4666 
z
" transform="scale(0.015625)"/>
      <path id="DejaVuSans-Bold-65" d="M 4031 1759 
L 4031 1441 
L 1416 1441 
Q 1456 1047 1700 850 
Q 1944 653 2381 653 
Q 2734 653 3104 758 
Q 3475 863 3866 1075 
L 3866 213 
Q 3469 63 3072 -14 
Q 2675 -91 2278 -91 
Q 1328 -91 801 392 
Q 275 875 275 1747 
Q 275 2603 792 3093 
Q 1309 3584 2216 3584 
Q 3041 3584 3536 3087 
Q 4031 2591 4031 1759 
z
M 2881 2131 
Q 2881 2450 2695 2645 
Q 2509 2841 2209 2841 
Q 1884 2841 1681 2658 
Q 1478 2475 1428 2131 
L 2881 2131 
z
" transform="scale(0.015625)"/>
      <path id="DejaVuSans-Bold-67" d="M 2919 594 
Q 2688 288 2409 144 
Q 2131 0 1766 0 
Q 1125 0 706 504 
Q 288 1009 288 1791 
Q 288 2575 706 3076 
Q 1125 3578 1766 3578 
Q 2131 3578 2409 3434 
Q 2688 3291 2919 2981 
L 2919 3500 
L 4044 3500 
L 4044 353 
Q 4044 -491 3511 -936 
Q 2978 -1381 1966 -1381 
Q 1638 -1381 1331 -1331 
Q 1025 -1281 716 -1178 
L 716 -306 
Q 1009 -475 1290 -558 
Q 1572 -641 1856 -641 
Q 2406 -641 2662 -400 
Q 2919 -159 2919 353 
L 2919 594 
z
M 2181 2772 
Q 1834 2772 1640 2515 
Q 1447 2259 1447 1791 
Q 1447 1309 1634 1061 
Q 1822 813 2181 813 
Q 2531 813 2725 1069 
Q 2919 1325 2919 1791 
Q 2919 2259 2725 2515 
Q 2531 2772 2181 2772 
z
" transform="scale(0.015625)"/>
      <path id="DejaVuSans-Bold-6f" d="M 2203 2784 
Q 1831 2784 1636 2517 
Q 1441 2250 1441 1747 
Q 1441 1244 1636 976 
Q 1831 709 2203 709 
Q 2569 709 2762 976 
Q 2956 1244 2956 1747 
Q 2956 2250 2762 2517 
Q 2569 2784 2203 2784 
z
M 2203 3584 
Q 3106 3584 3614 3096 
Q 4122 2609 4122 1747 
Q 4122 884 3614 396 
Q 3106 -91 2203 -91 
Q 1297 -91 786 396 
Q 275 884 275 1747 
Q 275 2609 786 3096 
Q 1297 3584 2203 3584 
z
" transform="scale(0.015625)"/>
     </defs>
     <use xlink:href="#DejaVuSans-Bold-4e"/>
     <use xlink:href="#DejaVuSans-Bold-65" transform="translate(83.691406 0)"/>
     <use xlink:href="#DejaVuSans-Bold-67" transform="translate(151.513672 0)"/>
     <use xlink:href="#DejaVuSans-Bold-72" transform="translate(223.095703 0)"/>
     <use xlink:href="#DejaVuSans-Bold-6f" transform="translate(272.412109 0)"/>
     <use xlink:href="#DejaVuSans-Bold-6e" transform="translate(341.113281 0)"/>
     <use xlink:href="#DejaVuSans-Bold-69" transform="translate(412.304688 0)"/>
    </g>
   </g>
   <g id="text_19">
    <g id="patch_13">
     <path d="M 802.941638 230.550381 
L 847.483826 230.550381 
Q 850.483826 230.550381 850.483826 227.550381 
L 850.483826 217.872256 
Q 850.483826 214.872256 847.483826 214.872256 
L 802.941638 214.872256 
Q 799.941638 214.872256 799.941638 217.872256 
L 799.941638 227.550381 
Q 799.941638 230.550381 802.941638 230.550381 
z
" style="fill: #cd7f32; opacity: 0.3"/>
    </g>
    <!-- Daiquiri -->
    <g style="fill: #f5f5dc" transform="translate(802.941638 225.470694) scale(0.1 -0.1)">
     <defs>
      <path id="DejaVuSans-Bold-44" d="M 1791 3756 
L 1791 909 
L 2222 909 
Q 2959 909 3348 1275 
Q 3738 1641 3738 2338 
Q 3738 3031 3350 3393 
Q 2963 3756 2222 3756 
L 1791 3756 
z
M 588 4666 
L 1856 4666 
Q 2919 4666 3439 4514 
Q 3959 4363 4331 4000 
Q 4659 3684 4818 3271 
Q 4978 2859 4978 2338 
Q 4978 1809 4818 1395 
Q 4659 981 4331 666 
Q 3956 303 3431 151 
Q 2906 0 1856 0 
L 588 0 
L 588 4666 
z
" transform="scale(0.015625)"/>
      <path id="DejaVuSans-Bold-71" d="M 2181 2772 
Q 1825 2772 1636 2509 
Q 1447 2247 1447 1747 
Q 1447 1247 1636 984 
Q 1825 722 2181 722 
Q 2541 722 2730 984 
Q 2919 1247 2919 1747 
Q 2919 2247 2730 2509 
Q 2541 2772 2181 2772 
z
M 2919 506 
Q 2688 197 2409 53 
Q 2131 -91 1766 -91 
Q 1119 -91 703 423 
Q 288 938 288 1747 
Q 288 2556 703 3067 
Q 1119 3578 1766 3578 
Q 2131 3578 2409 3434 
Q 2688 3291 2919 2981 
L 2919 3500 
L 4044 3500 
L 4044 -1331 
L 2919 -1331 
L 2919 506 
z
" transform="scale(0.015625)"/>
      <path id="DejaVuSans-Bold-75" d="M 500 1363 
L 500 3500 
L 1625 3500 
L 1625 3150 
Q 1625 2866 1622 2436 
Q 1619 2006 1619 1863 
Q 1619 1441 1641 1255 
Q 1663 1069 1716 984 
Q 1784 875 1895 815 
Q 2006 756 2150 756 
Q 2500 756 2700 1025 
Q 2900 1294 2900 1772 
L 2900 3500 
L 4019 3500 
L 4019 0 
L 2900 0 
L 2900 506 
Q 2647 200 2364 54 
Q 2081 -91 1741 -91 
Q 1134 -91 817 281 
Q 500 653 500 1363 
z
" transform="scale(0.015625)"/>
     </defs>
     <use xlink:href="#DejaVuSans-Bold-44"/>
     <use xlink:href="#DejaVuSans-Bold-61" transform="translate(83.007812 0)"/>
     <use xlink:href="#DejaVuSans-Bold-69" transform="translate(150.488281 0)"/>
     <use xlink:href="#DejaVuSans-Bold-71" transform="translate(184.765625 0)"/>
     <use xlink:href="#DejaVuSans-Bold-75" transform="translate(256.347656 0)"/>
     <use xlink:href="#DejaVuSans-Bold-69" transform="translate(327.539062 0)"/>
     <use xlink:href="#DejaVuSans-Bold-72" transform="translate(361.816406 0)"/>
     <use xlink:href="#DejaVuSans-Bold-69" transform="translate(411.132812 0)"/>
    </g>
   </g>
   <g id="text_20">
    <g id="patch_14">
     <path d="M 132.451007 359.123853 
L 212.440069 359.123853 
Q 215.440069 359.123853 215.440069 356.123853 
L 215.440069 346.445728 
Q 215.440069 343.445728 212.440069 343.445728 
L 132.451007 343.445728 
Q 129.451007 343.445728 129.451007 346.445728 
L 129.451007 356.123853 
Q 129.451007 359.123853 132.451007 359.123853 
z
" style="fill: #c0c0c0; opacity: 0.3"/>
    </g>
    <!-- Old Fashioned -->
    <g style="fill: #f5f5dc" transform="translate(132.451007 354.044166) scale(0.1 -0.1)">
     <defs>
      <path id="DejaVuSans-Bold-4f" d="M 2719 3878 
Q 2169 3878 1866 3472 
Q 1563 3066 1563 2328 
Q 1563 1594 1866 1187 
Q 2169 781 2719 781 
Q 3272 781 3575 1187 
Q 3878 1594 3878 2328 
Q 3878 3066 3575 3472 
Q 3272 3878 2719 3878 
z
M 2719 4750 
Q 3844 4750 4481 4106 
Q 5119 3463 5119 2328 
Q 5119 1197 4481 553 
Q 3844 -91 2719 -91 
Q 1597 -91 958 553 
Q 319 1197 319 2328 
Q 319 3463 958 4106 
Q 1597 4750 2719 4750 
z
" transform="scale(0.015625)"/>
      <path id="DejaVuSans-Bold-6c" d="M 538 4863 
L 1656 4863 
L 1656 0 
L 538 0 
L 538 4863 
z
" transform="scale(0.015625)"/>
      <path id="DejaVuSans-Bold-64" d="M 2919 2988 
L 2919 4863 
L 4044 4863 
L 4044 0 
L 2919 0 
L 2919 506 
Q 2688 197 2409 53 
Q 2131 -91 1766 -91 
Q 1119 -91 703 423 
Q 288 938 288 1747 
Q 288 2556 703 3070 
Q 1119 3584 1766 3584 
Q 2128 3584 2408 3439 
Q 2688 3294 2919 2988 
z
M 2181 722 
Q 2541 722 2730 984 
Q 2919 1247 2919 1747 
Q 2919 2247 2730 2509 
Q 2541 2772 2181 2772 
Q 1825 2772 1636 2509 
Q 1447 2247 1447 1747 
Q 1447 1247 1636 984 
Q 1825 722 2181 722 
z
" transform="scale(0.015625)"/>
      <path id="DejaVuSans-Bold-20" transform="scale(0.015625)"/>
      <path id="DejaVuSans-Bold-46" d="M 588 4666 
L 3834 4666 
L 3834 3756 
L 1791 3756 
L 1791 2888 
L 3713 2888 
L 3713 1978 
L 1791 1978 
L 1791 0 
L 588 0 
L 588 4666 
z
" transform="scale(0.015625)"/>
      <path id="DejaVuSans-Bold-73" d="M 3272 3391 
L 3272 2541 
Q 2913 2691 2578 2766 
Q 2244 2841 1947 2841 
Q 1628 2841 1473 2761 
Q 1319 2681 1319 2516 
Q 1319 2381 1436 2309 
Q 1553 2238 1856 2203 
L 2053 2175 
Q 2913 2066 3209 1816 
Q 3506 1566 3506 1031 
Q 3506 472 3093 190 
Q 2681 -91 1863 -91 
Q 1516 -91 1145 -36 
Q 775 19 384 128 
L 384 978 
Q 719 816 1070 734 
Q 1422 653 1784 653 
Q 2113 653 2278 743 
Q 2444 834 2444 1013 
Q 2444 1163 2330 1236 
Q 2216 1309 1875 1350 
L 1678 1375 
Q 931 1469 631 1722 
Q 331 1975 331 2491 
Q 331 3047 712 3315 
Q 1094 3584 1881 3584 
Q 2191 3584 2531 3537 
Q 2872 3491 3272 3391 
z
" transform="scale(0.015625)"/>
     </defs>
     <use xlink:href="#DejaVuSans-Bold-4f"/>
     <use xlink:href="#DejaVuSans-Bold-6c" transform="translate(85.009766 0)"/>
     <use xlink:href="#DejaVuSans-Bold-64" transform="translate(119.287109 0)"/>
     <use xlink:href="#DejaVuSans-Bold-20" transform="translate(190.869141 0)"/>
     <use xlink:href="#DejaVuSans-Bold-46" transform="translate(225.683594 0)"/>
     <use xlink:href="#DejaVuSans-Bold-61" transform="translate(288.119141 0)"/>
     <use xlink:href="#DejaVuSans-Bold-73" transform="translate(355.599609 0)"/>
     <use xlink:href="#DejaVuSans-Bold-68" transform="translate(415.121094 0)"/>
     <use xlink:href="#DejaVuSans-Bold-69" transform="translate(486.3125 0)"/>
     <use xlink:href="#DejaVuSans-Bold-6f" transform="translate(520.589844 0)"/>
     <use xlink:href="#DejaVuSans-Bold-6e" transform="translate(589.291016 0)"/>
     <use xlink:href="#DejaVuSans-Bold-65" transform="translate(660.482422 0)"/>
     <use xlink:href="#DejaVuSans-Bold-64" transform="translate(728.304688 0)"/>
    </g>
   </g>
   <g id="text_21">
    <g id="patch_15">
     <path d="M 769.844909 271.978542 
L 825.269909 271.978542 
Q 828.269909 271.978542 828.269909 268.978542 
L 828.269909 259.222292 
Q 828.269909 256.222292 825.269909 256.222292 
L 769.844909 256.222292 
Q 766.844909 256.222292 766.844909 259.222292 
L 766.844909 268.978542 
Q 766.844909 271.978542 769.844909 271.978542 
z
" style="fill: #cd7f32; opacity: 0.3"/>
    </g>
    <!-- Margarita -->
    <g style="fill: #f5f5dc" transform="translate(769.844909 266.820729) scale(0.1 -0.1)">
     <use xlink:href="#DejaVuSans-Bold-4d"/>
     <use xlink:href="#DejaVuSans-Bold-61" transform="translate(99.511719 0)"/>
     <use xlink:href="#DejaVuSans-Bold-72" transform="translate(166.992188 0)"/>
     <use xlink:href="#DejaVuSans-Bold-67" transform="translate(216.308594 0)"/>
     <use xlink:href="#DejaVuSans-Bold-61" transform="translate(287.890625 0)"/>
     <use xlink:href="#DejaVuSans-Bold-72" transform="translate(355.371094 0)"/>
     <use xlink:href="#DejaVuSans-Bold-69" transform="translate(404.6875 0)"/>
     <use xlink:href="#DejaVuSans-Bold-74" transform="translate(438.964844 0)"/>
     <use xlink:href="#DejaVuSans-Bold-61" transform="translate(486.767578 0)"/>
    </g>
   </g>
   <g id="text_22">
    <g id="patch_16">
     <path d="M 796.834558 237.184127 
L 832.162683 237.184127 
Q 835.162683 237.184127 835.162683 234.184127 
L 835.162683 224.427877 
Q 835.162683 221.427877 832.162683 221.427877 
L 796.834558 221.427877 
Q 793.834558 221.427877 793.834558 224.427877 
L 793.834558 234.184127 
Q 793.834558 237.184127 796.834558 237.184127 
z
" style="fill: #cd7f32; opacity: 0.3"/>
    </g>
    <!-- Mojito -->
    <g style="fill: #f5f5dc" transform="translate(796.834558 232.026315) scale(0.1 -0.1)">
     <defs>
      <path id="DejaVuSans-Bold-6a" d="M 538 3500 
L 1656 3500 
L 1656 63 
Q 1656 -641 1318 -1011 
Q 981 -1381 341 -1381 
L -213 -1381 
L -213 -647 
L -19 -647 
Q 300 -647 419 -503 
Q 538 -359 538 63 
L 538 3500 
z
M 538 4863 
L 1656 4863 
L 1656 3950 
L 538 3950 
L 538 4863 
z
" transform="scale(0.015625)"/>
     </defs>
     <use xlink:href="#DejaVuSans-Bold-4d"/>
     <use xlink:href="#DejaVuSans-Bold-6f" transform="translate(99.511719 0)"/>
     <use xlink:href="#DejaVuSans-Bold-6a" transform="translate(168.212891 0)"/>
     <use xlink:href="#DejaVuSans-Bold-69" transform="translate(202.490234 0)"/>
     <use xlink:href="#DejaVuSans-Bold-74" transform="translate(236.767578 0)"/>
     <use xlink:href="#DejaVuSans-Bold-6f" transform="translate(284.570312 0)"/>
    </g>
   </g>
   <g id="text_23">
    <g id="patch_17">
     <path d="M 115.169574 415.877709 
L 187.489887 415.877709 
Q 190.489887 415.877709 190.489887 412.877709 
L 190.489887 403.199584 
Q 190.489887 400.199584 187.489887 400.199584 
L 115.169574 400.199584 
Q 112.169574 400.199584 112.169574 403.199584 
L 112.169574 412.877709 
Q 112.169574 415.877709 115.169574 415.877709 
z
" style="fill: #c0c0c0; opacity: 0.3"/>
    </g>
    <!-- Boulevardier -->
    <g style="fill: #f5f5dc" transform="translate(115.169574 410.798022) scale(0.1 -0.1)">
     <defs>
      <path id="DejaVuSans-Bold-42" d="M 2456 2859 
Q 2741 2859 2887 2984 
Q 3034 3109 3034 3353 
Q 3034 3594 2887 3720 
Q 2741 3847 2456 3847 
L 1791 3847 
L 1791 2859 
L 2456 2859 
z
M 2497 819 
Q 2859 819 3042 972 
Q 3225 1125 3225 1434 
Q 3225 1738 3044 1889 
Q 2863 2041 2497 2041 
L 1791 2041 
L 1791 819 
L 2497 819 
z
M 3616 2497 
Q 4003 2384 4215 2081 
Q 4428 1778 4428 1338 
Q 4428 663 3972 331 
Q 3516 0 2584 0 
L 588 0 
L 588 4666 
L 2394 4666 
Q 3366 4666 3802 4372 
Q 4238 4078 4238 3431 
Q 4238 3091 4078 2852 
Q 3919 2613 3616 2497 
z
" transform="scale(0.015625)"/>
      <path id="DejaVuSans-Bold-76" d="M 97 3500 
L 1216 3500 
L 2088 1081 
L 2956 3500 
L 4078 3500 
L 2700 0 
L 1472 0 
L 97 3500 
z
" transform="scale(0.015625)"/>
     </defs>
     <use xlink:href="#DejaVuSans-Bold-42"/>
     <use xlink:href="#DejaVuSans-Bold-6f" transform="translate(76.220703 0)"/>
     <use xlink:href="#DejaVuSans-Bold-75" transform="translate(144.921875 0)"/>
     <use xlink:href="#DejaVuSans-Bold-6c" transform="translate(216.113281 0)"/>
     <use xlink:href="#DejaVuSans-Bold-65" transform="translate(250.390625 0)"/>
     <use xlink:href="#DejaVuSans-Bold-76" transform="translate(318.212891 0)"/>
     <use xlink:href="#DejaVuSans-Bold-61" transform="translate(383.398438 0)"/>
     <use xlink:href="#DejaVuSans-Bold-72" transform="translate(450.878906 0)"/>
     <use xlink:href="#DejaVuSans-Bold-64" transform="translate(500.195312 0)"/>
     <use xlink:href="#DejaVuSans-Bold-69" transform="translate(571.777344 0)"/>
     <use xlink:href="#DejaVuSans-Bold-65" transform="translate(606.054688 0)"/>
     <use xlink:href="#DejaVuSans-Bold-72" transform="translate(673.876953 0)"/>
    </g>
   </g>
   <g id="text_24">
    <g id="patch_18">
     <path d="M 709.464397 219.677645 
L 766.423772 219.677645 
Q 769.423772 219.677645 769.423772 216.677645 
L 769.423772 206.99952 
Q 769.423772 203.99952 766.423772 203.99952 
L 709.464397 203.99952 
Q 706.464397 203.99952 706.464397 206.99952 
L 706.464397 216.677645 
Q 706.464397 219.677645 709.464397 219.677645 
z
" style="fill: #cd7f32; opacity: 0.3"/>
    </g>
    <!-- Last Word -->
    <g style="fill: #f5f5dc" transform="translate(709.464397 214.597957) scale(0.1 -0.1)">
     <defs>
      <path id="DejaVuSans-Bold-4c" d="M 588 4666 
L 1791 4666 
L 1791 909 
L 3903 909 
L 3903 0 
L 588 0 
L 588 4666 
z
" transform="scale(0.015625)"/>
      <path id="DejaVuSans-Bold-57" d="M 191 4666 
L 1344 4666 
L 2150 1275 
L 2950 4666 
L 4109 4666 
L 4909 1275 
L 5716 4666 
L 6859 4666 
L 5759 0 
L 4372 0 
L 3525 3547 
L 2688 0 
L 1300 0 
L 191 4666 
z
" transform="scale(0.015625)"/>
     </defs>
     <use xlink:href="#DejaVuSans-Bold-4c"/>
     <use xlink:href="#DejaVuSans-Bold-61" transform="translate(63.720703 0)"/>
     <use xlink:href="#DejaVuSans-Bold-73" transform="translate(131.201172 0)"/>
     <use xlink:href="#DejaVuSans-Bold-74" transform="translate(190.722656 0)"/>
     <use xlink:href="#DejaVuSans-Bold-20" transform="translate(238.525391 0)"/>
     <use xlink:href="#DejaVuSans-Bold-57" transform="translate(273.339844 0)"/>
     <use xlink:href="#DejaVuSans-Bold-6f" transform="translate(380.017578 0)"/>
     <use xlink:href="#DejaVuSans-Bold-72" transform="translate(448.71875 0)"/>
     <use xlink:href="#DejaVuSans-Bold-64" transform="translate(498.035156 0)"/>
    </g>
   </g>
   <g id="text_25">
    <g id="patch_19">
     <path d="M 705.494747 252.108281 
L 751.763497 252.108281 
Q 754.763497 252.108281 754.763497 249.108281 
L 754.763497 239.430156 
Q 754.763497 236.430156 751.763497 236.430156 
L 705.494747 236.430156 
Q 702.494747 236.430156 702.494747 239.430156 
L 702.494747 249.108281 
Q 702.494747 252.108281 705.494747 252.108281 
z
" style="fill: #cd7f32; opacity: 0.3"/>
    </g>
    <!-- Aviation -->
    <g style="fill: #f5f5dc" transform="translate(705.494747 247.028593) scale(0.1 -0.1)">
     <defs>
      <path id="DejaVuSans-Bold-41" d="M 3419 850 
L 1538 850 
L 1241 0 
L 31 0 
L 1759 4666 
L 3194 4666 
L 4922 0 
L 3713 0 
L 3419 850 
z
M 1838 1716 
L 3116 1716 
L 2478 3572 
L 1838 1716 
z
" transform="scale(0.015625)"/>
     </defs>
     <use xlink:href="#DejaVuSans-Bold-41"/>
     <use xlink:href="#DejaVuSans-Bold-76" transform="translate(73.767578 0)"/>
     <use xlink:href="#DejaVuSans-Bold-69" transform="translate(138.953125 0)"/>
     <use xlink:href="#DejaVuSans-Bold-61" transform="translate(173.230469 0)"/>
     <use xlink:href="#DejaVuSans-Bold-74" transform="translate(240.710938 0)"/>
     <use xlink:href="#DejaVuSans-Bold-69" transform="translate(288.513672 0)"/>
     <use xlink:href="#DejaVuSans-Bold-6f" transform="translate(322.791016 0)"/>
     <use xlink:href="#DejaVuSans-Bold-6e" transform="translate(391.492188 0)"/>
    </g>
   </g>
   <g id="text_26">
    <g id="patch_20">
     <path d="M 729.907318 78.153885 
L 806.727631 78.153885 
Q 809.727631 78.153885 809.727631 75.153885 
L 809.727631 65.397635 
Q 809.727631 62.397635 806.727631 62.397635 
L 729.907318 62.397635 
Q 726.907318 62.397635 726.907318 65.397635 
L 726.907318 75.153885 
Q 726.907318 78.153885 729.907318 78.153885 
z
" style="fill: #cd7f32; opacity: 0.3"/>
    </g>
    <!-- Whiskey Sour -->
    <g style="fill: #f5f5dc" transform="translate(729.907318 72.996072) scale(0.1 -0.1)">
     <defs>
      <path id="DejaVuSans-Bold-6b" d="M 538 4863 
L 1656 4863 
L 1656 2216 
L 2944 3500 
L 4244 3500 
L 2534 1894 
L 4378 0 
L 3022 0 
L 1656 1459 
L 1656 0 
L 538 0 
L 538 4863 
z
" transform="scale(0.015625)"/>
      <path id="DejaVuSans-Bold-79" d="M 78 3500 
L 1197 3500 
L 2138 1125 
L 2938 3500 
L 4056 3500 
L 2584 -331 
Q 2363 -916 2067 -1148 
Q 1772 -1381 1288 -1381 
L 641 -1381 
L 641 -647 
L 991 -647 
Q 1275 -647 1404 -556 
Q 1534 -466 1606 -231 
L 1638 -134 
L 78 3500 
z
" transform="scale(0.015625)"/>
      <path id="DejaVuSans-Bold-53" d="M 3834 4519 
L 3834 3531 
Q 3450 3703 3084 3790 
Q 2719 3878 2394 3878 
Q 1963 3878 1756 3759 
Q 1550 3641 1550 3391 
Q 1550 3203 1689 3098 
Q 1828 2994 2194 2919 
L 2706 2816 
Q 3484 2659 3812 2340 
Q 4141 2022 4141 1434 
Q 4141 663 3683 286 
Q 3225 -91 2284 -91 
Q 1841 -91 1394 -6 
Q 947 78 500 244 
L 500 1259 
Q 947 1022 1364 901 
Q 1781 781 2169 781 
Q 2563 781 2772 912 
Q 2981 1044 2981 1288 
Q 2981 1506 2839 1625 
Q 2697 1744 2272 1838 
L 1806 1941 
Q 1106 2091 782 2419 
Q 459 2747 459 3303 
Q 459 4000 909 4375 
Q 1359 4750 2203 4750 
Q 2588 4750 2994 4692 
Q 3400 4634 3834 4519 
z
" transform="scale(0.015625)"/>
     </defs>
     <use xlink:href="#DejaVuSans-Bold-57"/>
     <use xlink:href="#DejaVuSans-Bold-68" transform="translate(110.302734 0)"/>
     <use xlink:href="#DejaVuSans-Bold-69" transform="translate(181.494141 0)"/>
     <use xlink:href="#DejaVuSans-Bold-73" transform="translate(215.771484 0)"/>
     <use xlink:href="#DejaVuSans-Bold-6b" transform="translate(275.292969 0)"/>
     <use xlink:href="#DejaVuSans-Bold-65" transform="translate(339.171875 0)"/>
     <use xlink:href="#DejaVuSans-Bold-79" transform="translate(406.994141 0)"/>
     <use xlink:href="#DejaVuSans-Bold-20" transform="translate(472.179688 0)"/>
     <use xlink:href="#DejaVuSans-Bold-53" transform="translate(506.994141 0)"/>
     <use xlink:href="#DejaVuSans-Bold-6f" transform="translate(579.015625 0)"/>
     <use xlink:href="#DejaVuSans-Bold-75" transform="translate(647.716797 0)"/>
     <use xlink:href="#DejaVuSans-Bold-72" transform="translate(718.908203 0)"/>
    </g>
   </g>
   <g id="text_27">
    <g id="patch_21">
     <path d="M 728.811815 254.262939 
L 765.85869 254.262939 
Q 768.85869 254.262939 768.85869 251.262939 
L 768.85869 241.584814 
Q 768.85869 238.584814 765.85869 238.584814 
L 728.811815 238.584814 
Q 725.811815 238.584814 725.811815 241.584814 
L 725.811815 251.262939 
Q 725.811815 254.262939 728.811815 254.262939 
z
" style="fill: #cd7f32; opacity: 0.3"/>
    </g>
    <!-- Gimlet -->
    <g style="fill: #f5f5dc" transform="translate(728.811815 249.183251) scale(0.1 -0.1)">
     <defs>
      <path id="DejaVuSans-Bold-47" d="M 4781 347 
Q 4331 128 3847 18 
Q 3363 -91 2847 -91 
Q 1681 -91 1000 561 
Q 319 1213 319 2328 
Q 319 3456 1012 4103 
Q 1706 4750 2913 4750 
Q 3378 4750 3804 4662 
Q 4231 4575 4609 4403 
L 4609 3438 
Q 4219 3659 3833 3768 
Q 3447 3878 3059 3878 
Q 2341 3878 1952 3476 
Q 1563 3075 1563 2328 
Q 1563 1588 1938 1184 
Q 2313 781 3003 781 
Q 3191 781 3352 804 
Q 3513 828 3641 878 
L 3641 1784 
L 2906 1784 
L 2906 2591 
L 4781 2591 
L 4781 347 
z
" transform="scale(0.015625)"/>
      <path id="DejaVuSans-Bold-6d" d="M 3781 2919 
Q 3994 3244 4286 3414 
Q 4578 3584 4928 3584 
Q 5531 3584 5847 3212 
Q 6163 2841 6163 2131 
L 6163 0 
L 5038 0 
L 5038 1825 
Q 5041 1866 5042 1909 
Q 5044 1953 5044 2034 
Q 5044 2406 4934 2573 
Q 4825 2741 4581 2741 
Q 4263 2741 4089 2478 
Q 3916 2216 3909 1719 
L 3909 0 
L 2784 0 
L 2784 1825 
Q 2784 2406 2684 2573 
Q 2584 2741 2328 2741 
Q 2006 2741 1831 2477 
Q 1656 2213 1656 1722 
L 1656 0 
L 531 0 
L 531 3500 
L 1656 3500 
L 1656 2988 
Q 1863 3284 2130 3434 
Q 2397 3584 2719 3584 
Q 3081 3584 3359 3409 
Q 3638 3234 3781 2919 
z
" transform="scale(0.015625)"/>
     </defs>
     <use xlink:href="#DejaVuSans-Bold-47"/>
     <use xlink:href="#DejaVuSans-Bold-69" transform="translate(82.080078 0)"/>
     <use xlink:href="#DejaVuSans-Bold-6d" transform="translate(116.357422 0)"/>
     <use xlink:href="#DejaVuSans-Bold-6c" transform="translate(220.556641 0)"/>
     <use xlink:href="#DejaVuSans-Bold-65" transform="translate(254.833984 0)"/>
     <use xlink:href="#DejaVuSans-Bold-74" transform="translate(322.65625 0)"/>
    </g>
   </g>
   <g id="text_28">
    <g id="patch_22">
     <path d="M 268.523649 582.08633 
L 342.233024 582.08633 
Q 345.233024 582.08633 345.233024 579.08633 
L 345.233024 569.408205 
Q 345.233024 566.408205 342.233024 566.408205 
L 268.523649 566.408205 
Q 265.523649 566.408205 265.523649 569.408205 
L 265.523649 579.08633 
Q 265.523649 582.08633 268.523649 582.08633 
z
" style="fill: #50c878; opacity: 0.3"/>
    </g>
    <!-- Aperol Spritz -->
    <g style="fill: #f5f5dc" transform="translate(268.523649 577.006643) scale(0.1 -0.1)">
     <defs>
      <path id="DejaVuSans-Bold-70" d="M 1656 506 
L 1656 -1331 
L 538 -1331 
L 538 3500 
L 1656 3500 
L 1656 2988 
Q 1888 3294 2169 3439 
Q 2450 3584 2816 3584 
Q 3463 3584 3878 3070 
Q 4294 2556 4294 1747 
Q 4294 938 3878 423 
Q 3463 -91 2816 -91 
Q 2450 -91 2169 54 
Q 1888 200 1656 506 
z
M 2400 2772 
Q 2041 2772 1848 2508 
Q 1656 2244 1656 1747 
Q 1656 1250 1848 986 
Q 2041 722 2400 722 
Q 2759 722 2948 984 
Q 3138 1247 3138 1747 
Q 3138 2247 2948 2509 
Q 2759 2772 2400 2772 
z
" transform="scale(0.015625)"/>
      <path id="DejaVuSans-Bold-7a" d="M 366 3500 
L 3419 3500 
L 3419 2719 
L 1575 800 
L 3419 800 
L 3419 0 
L 288 0 
L 288 781 
L 2131 2700 
L 366 2700 
L 366 3500 
z
" transform="scale(0.015625)"/>
     </defs>
     <use xlink:href="#DejaVuSans-Bold-41"/>
     <use xlink:href="#DejaVuSans-Bold-70" transform="translate(77.392578 0)"/>
     <use xlink:href="#DejaVuSans-Bold-65" transform="translate(148.974609 0)"/>
     <use xlink:href="#DejaVuSans-Bold-72" transform="translate(216.796875 0)"/>
     <use xlink:href="#DejaVuSans-Bold-6f" transform="translate(266.113281 0)"/>
     <use xlink:href="#DejaVuSans-Bold-6c" transform="translate(334.814453 0)"/>
     <use xlink:href="#DejaVuSans-Bold-20" transform="translate(369.091797 0)"/>
     <use xlink:href="#DejaVuSans-Bold-53" transform="translate(403.90625 0)"/>
     <use xlink:href="#DejaVuSans-Bold-70" transform="translate(475.927734 0)"/>
     <use xlink:href="#DejaVuSans-Bold-72" transform="translate(547.509766 0)"/>
     <use xlink:href="#DejaVuSans-Bold-69" transform="translate(596.826172 0)"/>
     <use xlink:href="#DejaVuSans-Bold-74" transform="translate(631.103516 0)"/>
     <use xlink:href="#DejaVuSans-Bold-7a" transform="translate(678.90625 0)"/>
    </g>
   </g>
   <g id="text_29">
    <!-- Intensity-Weighted (PERCEPTUAL) -->
    <g style="fill: #d4af37" transform="translate(287.572921 23.04) scale(0.16 -0.16)">
     <defs>
      <path id="DejaVuSans-Bold-49" d="M 588 4666 
L 1791 4666 
L 1791 0 
L 588 0 
L 588 4666 
z
" transform="scale(0.015625)"/>
      <path id="DejaVuSans-Bold-2d" d="M 347 2297 
L 2309 2297 
L 2309 1388 
L 347 1388 
L 347 2297 
z
" transform="scale(0.015625)"/>
      <path id="DejaVuSans-Bold-28" d="M 2413 -844 
L 1484 -844 
Q 1006 -72 778 623 
Q 550 1319 550 2003 
Q 550 2688 779 3389 
Q 1009 4091 1484 4856 
L 2413 4856 
Q 2013 4116 1813 3408 
Q 1613 2700 1613 2009 
Q 1613 1319 1811 609 
Q 2009 -100 2413 -844 
z
" transform="scale(0.015625)"/>
      <path id="DejaVuSans-Bold-50" d="M 588 4666 
L 2584 4666 
Q 3475 4666 3951 4270 
Q 4428 3875 4428 3144 
Q 4428 2409 3951 2014 
Q 3475 1619 2584 1619 
L 1791 1619 
L 1791 0 
L 588 0 
L 588 4666 
z
M 1791 3794 
L 1791 2491 
L 2456 2491 
Q 2806 2491 2997 2661 
Q 3188 2831 3188 3144 
Q 3188 3456 2997 3625 
Q 2806 3794 2456 3794 
L 1791 3794 
z
" transform="scale(0.015625)"/>
      <path id="DejaVuSans-Bold-45" d="M 588 4666 
L 3834 4666 
L 3834 3756 
L 1791 3756 
L 1791 2888 
L 3713 2888 
L 3713 1978 
L 1791 1978 
L 1791 909 
L 3903 909 
L 3903 0 
L 588 0 
L 588 4666 
z
" transform="scale(0.015625)"/>
      <path id="DejaVuSans-Bold-52" d="M 2297 2597 
Q 2675 2597 2839 2737 
Q 3003 2878 3003 3200 
Q 3003 3519 2839 3656 
Q 2675 3794 2297 3794 
L 1791 3794 
L 1791 2597 
L 2297 2597 
z
M 1791 1766 
L 1791 0 
L 588 0 
L 588 4666 
L 2425 4666 
Q 3347 4666 3776 4356 
Q 4206 4047 4206 3378 
Q 4206 2916 3982 2619 
Q 3759 2322 3309 2181 
Q 3556 2125 3751 1926 
Q 3947 1728 4147 1325 
L 4800 0 
L 3519 0 
L 2950 1159 
Q 2778 1509 2601 1637 
Q 2425 1766 2131 1766 
L 1791 1766 
z
" transform="scale(0.015625)"/>
      <path id="DejaVuSans-Bold-43" d="M 4288 256 
Q 3956 84 3597 -3 
Q 3238 -91 2847 -91 
Q 1681 -91 1000 561 
Q 319 1213 319 2328 
Q 319 3447 1000 4098 
Q 1681 4750 2847 4750 
Q 3238 4750 3597 4662 
Q 3956 4575 4288 4403 
L 4288 3438 
Q 3953 3666 3628 3772 
Q 3303 3878 2944 3878 
Q 2300 3878 1931 3465 
Q 1563 3053 1563 2328 
Q 1563 1606 1931 1193 
Q 2300 781 2944 781 
Q 3303 781 3628 887 
Q 3953 994 4288 1222 
L 4288 256 
z
" transform="scale(0.015625)"/>
      <path id="DejaVuSans-Bold-54" d="M 31 4666 
L 4331 4666 
L 4331 3756 
L 2784 3756 
L 2784 0 
L 1581 0 
L 1581 3756 
L 31 3756 
L 31 4666 
z
" transform="scale(0.015625)"/>
      <path id="DejaVuSans-Bold-55" d="M 588 4666 
L 1791 4666 
L 1791 1869 
Q 1791 1291 1980 1042 
Q 2169 794 2597 794 
Q 3028 794 3217 1042 
Q 3406 1291 3406 1869 
L 3406 4666 
L 4609 4666 
L 4609 1869 
Q 4609 878 4112 393 
Q 3616 -91 2597 -91 
Q 1581 -91 1084 393 
Q 588 878 588 1869 
L 588 4666 
z
" transform="scale(0.015625)"/>
      <path id="DejaVuSans-Bold-29" d="M 513 -844 
Q 913 -100 1113 609 
Q 1313 1319 1313 2009 
Q 1313 2700 1113 3408 
Q 913 4116 513 4856 
L 1441 4856 
Q 1916 4091 2145 3389 
Q 2375 2688 2375 2003 
Q 2375 1319 2147 623 
Q 1919 -72 1441 -844 
L 513 -844 
z
" transform="scale(0.015625)"/>
     </defs>
     <use xlink:href="#DejaVuSans-Bold-49"/>
     <use xlink:href="#DejaVuSans-Bold-6e" transform="translate(37.207031 0)"/>
     <use xlink:href="#DejaVuSans-Bold-74" transform="translate(108.398438 0)"/>
     <use xlink:href="#DejaVuSans-Bold-65" transform="translate(156.201172 0)"/>
     <use xlink:href="#DejaVuSans-Bold-6e" transform="translate(224.023438 0)"/>
     <use xlink:href="#DejaVuSans-Bold-73" transform="translate(295.214844 0)"/>
     <use xlink:href="#DejaVuSans-Bold-69" transform="translate(354.736328 0)"/>
     <use xlink:href="#DejaVuSans-Bold-74" transform="translate(389.013672 0)"/>
     <use xlink:href="#DejaVuSans-Bold-79" transform="translate(436.816406 0)"/>
     <use xlink:href="#DejaVuSans-Bold-2d" transform="translate(502.001953 0)"/>
     <use xlink:href="#DejaVuSans-Bold-57" transform="translate(539.005859 0)"/>
     <use xlink:href="#DejaVuSans-Bold-65" transform="translate(645.683594 0)"/>
     <use xlink:href="#DejaVuSans-Bold-69" transform="translate(713.505859 0)"/>
     <use xlink:href="#DejaVuSans-Bold-67" transform="translate(747.783203 0)"/>
     <use xlink:href="#DejaVuSans-Bold-68" transform="translate(819.365234 0)"/>
     <use xlink:href="#DejaVuSans-Bold-74" transform="translate(890.556641 0)"/>
     <use xlink:href="#DejaVuSans-Bold-65" transform="translate(938.359375 0)"/>
     <use xlink:href="#DejaVuSans-Bold-64" transform="translate(1006.181641 0)"/>
     <use xlink:href="#DejaVuSans-Bold-20" transform="translate(1077.763672 0)"/>
     <use xlink:href="#DejaVuSans-Bold-28" transform="translate(1112.578125 0)"/>
     <use xlink:href="#DejaVuSans-Bold-50" transform="translate(1158.28125 0)"/>
     <use xlink:href="#DejaVuSans-Bold-45" transform="translate(1231.572266 0)"/>
     <use xlink:href="#DejaVuSans-Bold-52" transform="translate(1299.882812 0)"/>
     <use xlink:href="#DejaVuSans-Bold-43" transform="translate(1376.884766 0)"/>
     <use xlink:href="#DejaVuSans-Bold-45" transform="translate(1450.273438 0)"/>
     <use xlink:href="#DejaVuSans-Bold-50" transform="translate(1518.583984 0)"/>
     <use xlink:href="#DejaVuSans-Bold-54" transform="translate(1591.875 0)"/>
     <use xlink:href="#DejaVuSans-Bold-55" transform="translate(1660.087891 0)"/>
     <use xlink:href="#DejaVuSans-Bold-41" transform="translate(1738.164062 0)"/>
     <use xlink:href="#DejaVuSans-Bold-4c" transform="translate(1815.556641 0)"/>
     <use xlink:href="#DejaVuSans-Bold-29" transform="translate(1879.277344 0)"/>
    </g>
   </g>
   <g id="legend_1">
    <g id="patch_23">
     <path d="M 752.693029 95.074375 
L 829.725841 95.074375 
Q 831.725841 95.074375 831.725841 93.074375 
L 831.725841 50.04 
Q 831.725841 48.04 829.725841 48.04 
L 752.693029 48.04 
Q 750.693029 48.04 750.693029 50.04 
L 750.693029 93.074375 
Q 750.693029 95.074375 752.693029 95.074375 
z
" style="fill: #2d2d30; opacity: 0.9; stroke: #4a4a3d; stroke-linejoin: miter"/>
    </g>
    <g id="PathCollection_4">
     <g>
      <use xlink:href="#m4e034d3bfc" x="764.693029" y="57.013438" style="fill: #50c878; fill-opacity: 0.7; stroke: #f5f5dc; stroke-opacity: 0.7; stroke-width: 0.5"/>
     </g>
    </g>
    <g id="text_30">
     <!-- Cluster 1 -->
     <g style="fill: #c5c5b0" transform="translate(782.693029 59.638438) scale(0.1 -0.1)">
      <defs>
       <path id="DejaVuSans-43" d="M 4122 4306 
L 4122 3641 
Q 3803 3938 3442 4084 
Q 3081 4231 2675 4231 
Q 1875 4231 1450 3742 
Q 1025 3253 1025 2328 
Q 1025 1406 1450 917 
Q 1875 428 2675 428 
Q 3081 428 3442 575 
Q 3803 722 4122 1019 
L 4122 359 
Q 3791 134 3420 21 
Q 3050 -91 2638 -91 
Q 1578 -91 968 557 
Q 359 1206 359 2328 
Q 359 3453 968 4101 
Q 1578 4750 2638 4750 
Q 3056 4750 3426 4639 
Q 3797 4528 4122 4306 
z
" transform="scale(0.015625)"/>
       <path id="DejaVuSans-6c" d="M 603 4863 
L 1178 4863 
L 1178 0 
L 603 0 
L 603 4863 
z
" transform="scale(0.015625)"/>
       <path id="DejaVuSans-75" d="M 544 1381 
L 544 3500 
L 1119 3500 
L 1119 1403 
Q 1119 906 1312 657 
Q 1506 409 1894 409 
Q 2359 409 2629 706 
Q 2900 1003 2900 1516 
L 2900 3500 
L 3475 3500 
L 3475 0 
L 2900 0 
L 2900 538 
Q 2691 219 2414 64 
Q 2138 -91 1772 -91 
Q 1169 -91 856 284 
Q 544 659 544 1381 
z
M 1991 3584 
L 1991 3584 
z
" transform="scale(0.015625)"/>
       <path id="DejaVuSans-74" d="M 1172 4494 
L 1172 3500 
L 2356 3500 
L 2356 3053 
L 1172 3053 
L 1172 1153 
Q 1172 725 1289 603 
Q 1406 481 1766 481 
L 2356 481 
L 2356 0 
L 1766 0 
Q 1100 0 847 248 
Q 594 497 594 1153 
L 594 3053 
L 172 3053 
L 172 3500 
L 594 3500 
L 594 4494 
L 1172 4494 
z
" transform="scale(0.015625)"/>
       <path id="DejaVuSans-72" d="M 2631 2963 
Q 2534 3019 2420 3045 
Q 2306 3072 2169 3072 
Q 1681 3072 1420 2755 
Q 1159 2438 1159 1844 
L 1159 0 
L 581 0 
L 581 3500 
L 1159 3500 
L 1159 2956 
Q 1341 3275 1631 3429 
Q 1922 3584 2338 3584 
Q 2397 3584 2469 3576 
Q 2541 3569 2628 3553 
L 2631 2963 
z
" transform="scale(0.015625)"/>
      </defs>
      <use xlink:href="#DejaVuSans-43"/>
      <use xlink:href="#DejaVuSans-6c" transform="translate(69.824219 0)"/>
      <use xlink:href="#DejaVuSans-75" transform="translate(97.607422 0)"/>
      <use xlink:href="#DejaVuSans-73" transform="translate(160.986328 0)"/>
      <use xlink:href="#DejaVuSans-74" transform="translate(213.085938 0)"/>
      <use xlink:href="#DejaVuSans-65" transform="translate(252.294922 0)"/>
      <use xlink:href="#DejaVuSans-72" transform="translate(313.818359 0)"/>
      <use xlink:href="#DejaVuSans-20" transform="translate(354.931641 0)"/>
      <use xlink:href="#DejaVuSans-31" transform="translate(386.71875 0)"/>
     </g>
    </g>
    <g id="PathCollection_5">
     <g>
      <use xlink:href="#m1e58fe335b" x="764.693029" y="71.691563" style="fill: #cd7f32; fill-opacity: 0.7; stroke: #f5f5dc; stroke-opacity: 0.7; stroke-width: 0.5"/>
     </g>
    </g>
    <g id="text_31">
     <!-- Cluster 2 -->
     <g style="fill: #c5c5b0" transform="translate(782.693029 74.316563) scale(0.1 -0.1)">
      <use xlink:href="#DejaVuSans-43"/>
      <use xlink:href="#DejaVuSans-6c" transform="translate(69.824219 0)"/>
      <use xlink:href="#DejaVuSans-75" transform="translate(97.607422 0)"/>
      <use xlink:href="#DejaVuSans-73" transform="translate(160.986328 0)"/>
      <use xlink:href="#DejaVuSans-74" transform="translate(213.085938 0)"/>
      <use xlink:href="#DejaVuSans-65" transform="translate(252.294922 0)"/>
      <use xlink:href="#DejaVuSans-72" transform="translate(313.818359 0)"/>
      <use xlink:href="#DejaVuSans-20" transform="translate(354.931641 0)"/>
      <use xlink:href="#DejaVuSans-32" transform="translate(386.71875 0)"/>
     </g>
    </g>
    <g id="PathCollection_6">
     <g>
      <use xlink:href="#m0f59b75df4" x="764.693029" y="86.369688" style="fill: #c0c0c0; fill-opacity: 0.7; stroke: #f5f5dc; stroke-opacity: 0.7; stroke-width: 0.5"/>
     </g>
    </g>
    <g id="text_32">
     <!-- Cluster 3 -->
     <g style="fill: #c5c5b0" transform="translate(782.693029 88.994688) scale(0.1 -0.1)">
      <defs>
       <path id="DejaVuSans-33" d="M 2597 2516 
Q 3050 2419 3304 2112 
Q 3559 1806 3559 1356 
Q 3559 666 3084 287 
Q 2609 -91 1734 -91 
Q 1441 -91 1130 -33 
Q 819 25 488 141 
L 488 750 
Q 750 597 1062 519 
Q 1375 441 1716 441 
Q 2309 441 2620 675 
Q 2931 909 2931 1356 
Q 2931 1769 2642 2001 
Q 2353 2234 1838 2234 
L 1294 2234 
L 1294 2753 
L 1863 2753 
Q 2328 2753 2575 2939 
Q 2822 3125 2822 3475 
Q 2822 3834 2567 4026 
Q 2313 4219 1838 4219 
Q 1578 4219 1281 4162 
Q 984 4106 628 3988 
L 628 4550 
Q 988 4650 1302 4700 
Q 1616 4750 1894 4750 
Q 2613 4750 3031 4423 
Q 3450 4097 3450 3541 
Q 3450 3153 3228 2886 
Q 3006 2619 2597 2516 
z
" transform="scale(0.015625)"/>
      </defs>
      <use xlink:href="#DejaVuSans-43"/>
      <use xlink:href="#DejaVuSans-6c" transform="translate(69.824219 0)"/>
      <use xlink:href="#DejaVuSans-75" transform="translate(97.607422 0)"/>
      <use xlink:href="#DejaVuSans-73" transform="translate(160.986328 0)"/>
      <use xlink:href="#DejaVuSans-74" transform="translate(213.085938 0)"/>
      <use xlink:href="#DejaVuSans-65" transform="translate(252.294922 0)"/>
      <use xlink:href="#DejaVuSans-72" transform="translate(313.818359 0)"/>
      <use xlink:href="#DejaVuSans-20" transform="translate(354.931641 0)"/>
      <use xlink:href="#DejaVuSans-33" transform="translate(386.71875 0)"/>
     </g>
    </g>
   </g>
  </g>
 </g>
 <defs>
  <clipPath id="p38924938eb">
   <rect x="46.415" y="43.04" width="790.310841" height="633.2"/>
  </clipPath>
 </defs>
</svg>
