<?xml version="1.0" encoding="utf-8" standalone="no"?>
<!DOCTYPE svg PUBLIC "-//W3C//DTD SVG 1.1//EN"
  "http://www.w3.org/Graphics/SVG/1.1/DTD/svg11.dtd">
<svg xmlns:xlink="http://www.w3.org/1999/xlink" width="864pt" height="720pt" viewBox="0 0 864 720" xmlns="http://www.w3.org/2000/svg" version="1.1">
 <metadata>
  <rdf:RDF xmlns:dc="http://purl.org/dc/elements/1.1/" xmlns:cc="http://creativecommons.org/ns#" xmlns:rdf="http://www.w3.org/1999/02/22-rdf-syntax-ns#">
   <cc:Work>
    <dc:type rdf:resource="http://purl.org/dc/dcmitype/StillImage"/>
    <dc:date>2026-02-26T10:41:11.944519</dc:date>
    <dc:format>image/svg+xml</dc:format>
    <dc:creator>
     <cc:Agent>
      <dc:title>Matplotlib v3.10.8, https://matplotlib.org/</dc:title>
     </cc:Agent>
    </dc:creator>
   </cc:Work>
  </rdf:RDF>
 </metadata>
 <defs>
  <style type="text/css">*{stroke-linejoin: round; stroke-linecap: butt}</style>
 </defs>
 <g id="figure_1">
  <g id="patch_1">
   <path d="M 0 720 
L 864 720 
L 864 0 
L 0 0 
z
" style="fill: #1a1a1d"/>
  </g>
  <g id="axes_1">
   <g id="patch_2">
    <path d="M 48.395 676.24 
L 853.2 676.24 
L 853.2 43.04 
L 48.395 43.04 
z
" style="fill: #1a1a1d"/>
   </g>
   <g id="PathCollection_1">
    <defs>
     <path id="m1e858fc3dc" d="M 0 3.872983 
C 1.027127 3.872983 2.012324 3.464901 2.738613 2.738613 
C 3.464901 2.012324 3.872983 1.027127 3.872983 0 
C 3.872983 -1.027127 3.464901 -2.012324 2.738613 -2.738613 
C 2.012324 -3.464901 1.027127 -3.872983 0 -3.872983 
C -1.027127 -3.872983 -2.012324 -3.464901 -2.738613 -2.738613 
C -3.464901 -2.012324 -3.872983 -1.027127 -3.872983 0 
C -3.872983 1.027127 -3.464901 2.012324 -2.738613 2.738613 
C -2.012324 3.464901 -1.027127 3.872983 0 3.872983 
z
" style="stroke: #f5f5dc; stroke-opacity: 0.7; stroke-width: 0.5"/>
    </defs>
    <g clip-path="url(#p04b0539ea5)">
     <use xlink:href="#m1e858fc3dc" x="196.994309" y="477.717698" style="fill: #50c878; fill-opacity: 0.7; stroke: #f5f5dc; stroke-opacity: 0.7; stroke-width: 0.5"/>
     <use xlink:href="#m1e858fc3dc" x="246.78856" y="448.738784" style="fill: #50c878; fill-opacity: 0.7; stroke: #f5f5dc; stroke-opacity: 0.7; stroke-width: 0.5"/>
     <use xlink:href="#m1e858fc3dc" x="255.516073" y="453.694944" style="fill: #50c878; fill-opacity: 0.7; stroke: #f5f5dc; stroke-opacity: 0.7; stroke-width: 0.5"/>
     <use xlink:href="#m1e858fc3dc" x="193.52927" y="617.210014" style="fill: #50c878; fill-opacity: 0.7; stroke: #f5f5dc; stroke-opacity: 0.7; stroke-width: 0.5"/>
     <use xlink:href="#m1e858fc3dc" x="195.590295" y="473.748698" style="fill: #50c878; fill-opacity: 0.7; stroke: #f5f5dc; stroke-opacity: 0.7; stroke-width: 0.5"/>
     <use xlink:href="#m1e858fc3dc" x="193.269204" y="481.996237" style="fill: #50c878; fill-opacity: 0.7; stroke: #f5f5dc; stroke-opacity: 0.7; stroke-width: 0.5"/>
     <use xlink:href="#m1e858fc3dc" x="212.5669" y="463.814198" style="fill: #50c878; fill-opacity: 0.7; stroke: #f5f5dc; stroke-opacity: 0.7; stroke-width: 0.5"/>
     <use xlink:href="#m1e858fc3dc" x="220.298455" y="627.148298" style="fill: #50c878; fill-opacity: 0.7; stroke: #f5f5dc; stroke-opacity: 0.7; stroke-width: 0.5"/>
     <use xlink:href="#m1e858fc3dc" x="225.906787" y="578.668181" style="fill: #50c878; fill-opacity: 0.7; stroke: #f5f5dc; stroke-opacity: 0.7; stroke-width: 0.5"/>
     <use xlink:href="#m1e858fc3dc" x="217.106628" y="598.424387" style="fill: #50c878; fill-opacity: 0.7; stroke: #f5f5dc; stroke-opacity: 0.7; stroke-width: 0.5"/>
     <use xlink:href="#m1e858fc3dc" x="257.405996" y="503.568873" style="fill: #50c878; fill-opacity: 0.7; stroke: #f5f5dc; stroke-opacity: 0.7; stroke-width: 0.5"/>
     <use xlink:href="#m1e858fc3dc" x="213.925646" y="642.03487" style="fill: #50c878; fill-opacity: 0.7; stroke: #f5f5dc; stroke-opacity: 0.7; stroke-width: 0.5"/>
     <use xlink:href="#m1e858fc3dc" x="190.445041" y="619.462184" style="fill: #50c878; fill-opacity: 0.7; stroke: #f5f5dc; stroke-opacity: 0.7; stroke-width: 0.5"/>
     <use xlink:href="#m1e858fc3dc" x="221.691738" y="627.64504" style="fill: #50c878; fill-opacity: 0.7; stroke: #f5f5dc; stroke-opacity: 0.7; stroke-width: 0.5"/>
     <use xlink:href="#m1e858fc3dc" x="207.703421" y="646.617756" style="fill: #50c878; fill-opacity: 0.7; stroke: #f5f5dc; stroke-opacity: 0.7; stroke-width: 0.5"/>
     <use xlink:href="#m1e858fc3dc" x="213.064284" y="646.708163" style="fill: #50c878; fill-opacity: 0.7; stroke: #f5f5dc; stroke-opacity: 0.7; stroke-width: 0.5"/>
     <use xlink:href="#m1e858fc3dc" x="218.276118" y="454.089546" style="fill: #50c878; fill-opacity: 0.7; stroke: #f5f5dc; stroke-opacity: 0.7; stroke-width: 0.5"/>
     <use xlink:href="#m1e858fc3dc" x="260.694807" y="463.061203" style="fill: #50c878; fill-opacity: 0.7; stroke: #f5f5dc; stroke-opacity: 0.7; stroke-width: 0.5"/>
     <use xlink:href="#m1e858fc3dc" x="230.700067" y="446.084118" style="fill: #50c878; fill-opacity: 0.7; stroke: #f5f5dc; stroke-opacity: 0.7; stroke-width: 0.5"/>
     <use xlink:href="#m1e858fc3dc" x="192.980667" y="638.225532" style="fill: #50c878; fill-opacity: 0.7; stroke: #f5f5dc; stroke-opacity: 0.7; stroke-width: 0.5"/>
     <use xlink:href="#m1e858fc3dc" x="198.208141" y="461.919914" style="fill: #50c878; fill-opacity: 0.7; stroke: #f5f5dc; stroke-opacity: 0.7; stroke-width: 0.5"/>
     <use xlink:href="#m1e858fc3dc" x="199.951861" y="494.864258" style="fill: #50c878; fill-opacity: 0.7; stroke: #f5f5dc; stroke-opacity: 0.7; stroke-width: 0.5"/>
     <use xlink:href="#m1e858fc3dc" x="234.108727" y="566.51701" style="fill: #50c878; fill-opacity: 0.7; stroke: #f5f5dc; stroke-opacity: 0.7; stroke-width: 0.5"/>
     <use xlink:href="#m1e858fc3dc" x="245.780681" y="525.437132" style="fill: #50c878; fill-opacity: 0.7; stroke: #f5f5dc; stroke-opacity: 0.7; stroke-width: 0.5"/>
     <use xlink:href="#m1e858fc3dc" x="265.772804" y="478.877939" style="fill: #50c878; fill-opacity: 0.7; stroke: #f5f5dc; stroke-opacity: 0.7; stroke-width: 0.5"/>
     <use xlink:href="#m1e858fc3dc" x="243.594864" y="542.946937" style="fill: #50c878; fill-opacity: 0.7; stroke: #f5f5dc; stroke-opacity: 0.7; stroke-width: 0.5"/>
     <use xlink:href="#m1e858fc3dc" x="235.48508" y="544.522015" style="fill: #50c878; fill-opacity: 0.7; stroke: #f5f5dc; stroke-opacity: 0.7; stroke-width: 0.5"/>
     <use xlink:href="#m1e858fc3dc" x="255.863567" y="484.687577" style="fill: #50c878; fill-opacity: 0.7; stroke: #f5f5dc; stroke-opacity: 0.7; stroke-width: 0.5"/>
     <use xlink:href="#m1e858fc3dc" x="209.780334" y="621.224924" style="fill: #50c878; fill-opacity: 0.7; stroke: #f5f5dc; stroke-opacity: 0.7; stroke-width: 0.5"/>
     <use xlink:href="#m1e858fc3dc" x="198.725298" y="628.878667" style="fill: #50c878; fill-opacity: 0.7; stroke: #f5f5dc; stroke-opacity: 0.7; stroke-width: 0.5"/>
     <use xlink:href="#m1e858fc3dc" x="192.615598" y="647.458182" style="fill: #50c878; fill-opacity: 0.7; stroke: #f5f5dc; stroke-opacity: 0.7; stroke-width: 0.5"/>
     <use xlink:href="#m1e858fc3dc" x="228.230342" y="446.384955" style="fill: #50c878; fill-opacity: 0.7; stroke: #f5f5dc; stroke-opacity: 0.7; stroke-width: 0.5"/>
     <use xlink:href="#m1e858fc3dc" x="222.968942" y="559.554204" style="fill: #50c878; fill-opacity: 0.7; stroke: #f5f5dc; stroke-opacity: 0.7; stroke-width: 0.5"/>
    </g>
   </g>
   <g id="patch_3">
    <path d="M 193.269204 481.996237 
L 190.445041 619.462184 
L 192.615598 647.458182 
L 213.064284 646.708163 
L 221.691738 627.64504 
L 265.772804 478.877939 
L 260.694807 463.061203 
L 255.516073 453.694944 
L 246.78856 448.738784 
L 230.700067 446.084118 
L 228.230342 446.384955 
L 198.208141 461.919914 
z
" clip-path="url(#p04b0539ea5)" style="fill: #50c878; opacity: 0.05"/>
   </g>
   <g id="PathCollection_2">
    <defs>
     <path id="m7228e58d65" d="M 0 3.872983 
C 1.027127 3.872983 2.012324 3.464901 2.738613 2.738613 
C 3.464901 2.012324 3.872983 1.027127 3.872983 0 
C 3.872983 -1.027127 3.464901 -2.012324 2.738613 -2.738613 
C 2.012324 -3.464901 1.027127 -3.872983 0 -3.872983 
C -1.027127 -3.872983 -2.012324 -3.464901 -2.738613 -2.738613 
C -3.464901 -2.012324 -3.872983 -1.027127 -3.872983 0 
C -3.872983 1.027127 -3.464901 2.012324 -2.738613 2.738613 
C -2.012324 3.464901 -1.027127 3.872983 0 3.872983 
z
" style="stroke: #f5f5dc; stroke-opacity: 0.7; stroke-width: 0.5"/>
    </defs>
    <g clip-path="url(#p04b0539ea5)">
     <use xlink:href="#m7228e58d65" x="731.955795" y="527.376943" style="fill: #cd7f32; fill-opacity: 0.7; stroke: #f5f5dc; stroke-opacity: 0.7; stroke-width: 0.5"/>
     <use xlink:href="#m7228e58d65" x="709.632462" y="643.631289" style="fill: #cd7f32; fill-opacity: 0.7; stroke: #f5f5dc; stroke-opacity: 0.7; stroke-width: 0.5"/>
     <use xlink:href="#m7228e58d65" x="704.515926" y="636.689673" style="fill: #cd7f32; fill-opacity: 0.7; stroke: #f5f5dc; stroke-opacity: 0.7; stroke-width: 0.5"/>
     <use xlink:href="#m7228e58d65" x="728.778848" y="546.615391" style="fill: #cd7f32; fill-opacity: 0.7; stroke: #f5f5dc; stroke-opacity: 0.7; stroke-width: 0.5"/>
     <use xlink:href="#m7228e58d65" x="731.728762" y="579.150258" style="fill: #cd7f32; fill-opacity: 0.7; stroke: #f5f5dc; stroke-opacity: 0.7; stroke-width: 0.5"/>
     <use xlink:href="#m7228e58d65" x="689.339783" y="634.861349" style="fill: #cd7f32; fill-opacity: 0.7; stroke: #f5f5dc; stroke-opacity: 0.7; stroke-width: 0.5"/>
     <use xlink:href="#m7228e58d65" x="695.156763" y="639.523708" style="fill: #cd7f32; fill-opacity: 0.7; stroke: #f5f5dc; stroke-opacity: 0.7; stroke-width: 0.5"/>
     <use xlink:href="#m7228e58d65" x="816.617955" y="502.12301" style="fill: #cd7f32; fill-opacity: 0.7; stroke: #f5f5dc; stroke-opacity: 0.7; stroke-width: 0.5"/>
     <use xlink:href="#m7228e58d65" x="795.888899" y="494.017395" style="fill: #cd7f32; fill-opacity: 0.7; stroke: #f5f5dc; stroke-opacity: 0.7; stroke-width: 0.5"/>
     <use xlink:href="#m7228e58d65" x="753.228362" y="514.254556" style="fill: #cd7f32; fill-opacity: 0.7; stroke: #f5f5dc; stroke-opacity: 0.7; stroke-width: 0.5"/>
     <use xlink:href="#m7228e58d65" x="807.449519" y="503.566738" style="fill: #cd7f32; fill-opacity: 0.7; stroke: #f5f5dc; stroke-opacity: 0.7; stroke-width: 0.5"/>
     <use xlink:href="#m7228e58d65" x="730.423898" y="613.88616" style="fill: #cd7f32; fill-opacity: 0.7; stroke: #f5f5dc; stroke-opacity: 0.7; stroke-width: 0.5"/>
     <use xlink:href="#m7228e58d65" x="748.186804" y="608.993277" style="fill: #cd7f32; fill-opacity: 0.7; stroke: #f5f5dc; stroke-opacity: 0.7; stroke-width: 0.5"/>
     <use xlink:href="#m7228e58d65" x="734.997171" y="603.365299" style="fill: #cd7f32; fill-opacity: 0.7; stroke: #f5f5dc; stroke-opacity: 0.7; stroke-width: 0.5"/>
     <use xlink:href="#m7228e58d65" x="720.812605" y="625.527509" style="fill: #cd7f32; fill-opacity: 0.7; stroke: #f5f5dc; stroke-opacity: 0.7; stroke-width: 0.5"/>
     <use xlink:href="#m7228e58d65" x="779.039648" y="620.205388" style="fill: #cd7f32; fill-opacity: 0.7; stroke: #f5f5dc; stroke-opacity: 0.7; stroke-width: 0.5"/>
     <use xlink:href="#m7228e58d65" x="749.582435" y="608.825252" style="fill: #cd7f32; fill-opacity: 0.7; stroke: #f5f5dc; stroke-opacity: 0.7; stroke-width: 0.5"/>
     <use xlink:href="#m7228e58d65" x="766.254913" y="608.6318" style="fill: #cd7f32; fill-opacity: 0.7; stroke: #f5f5dc; stroke-opacity: 0.7; stroke-width: 0.5"/>
     <use xlink:href="#m7228e58d65" x="751.256484" y="608.239505" style="fill: #cd7f32; fill-opacity: 0.7; stroke: #f5f5dc; stroke-opacity: 0.7; stroke-width: 0.5"/>
     <use xlink:href="#m7228e58d65" x="780.081833" y="496.595306" style="fill: #cd7f32; fill-opacity: 0.7; stroke: #f5f5dc; stroke-opacity: 0.7; stroke-width: 0.5"/>
     <use xlink:href="#m7228e58d65" x="774.585017" y="506.208572" style="fill: #cd7f32; fill-opacity: 0.7; stroke: #f5f5dc; stroke-opacity: 0.7; stroke-width: 0.5"/>
     <use xlink:href="#m7228e58d65" x="811.285148" y="507.119358" style="fill: #cd7f32; fill-opacity: 0.7; stroke: #f5f5dc; stroke-opacity: 0.7; stroke-width: 0.5"/>
     <use xlink:href="#m7228e58d65" x="757.150824" y="621.497632" style="fill: #cd7f32; fill-opacity: 0.7; stroke: #f5f5dc; stroke-opacity: 0.7; stroke-width: 0.5"/>
     <use xlink:href="#m7228e58d65" x="723.455828" y="549.709691" style="fill: #cd7f32; fill-opacity: 0.7; stroke: #f5f5dc; stroke-opacity: 0.7; stroke-width: 0.5"/>
     <use xlink:href="#m7228e58d65" x="722.414057" y="645.396336" style="fill: #cd7f32; fill-opacity: 0.7; stroke: #f5f5dc; stroke-opacity: 0.7; stroke-width: 0.5"/>
     <use xlink:href="#m7228e58d65" x="722.724351" y="620.904618" style="fill: #cd7f32; fill-opacity: 0.7; stroke: #f5f5dc; stroke-opacity: 0.7; stroke-width: 0.5"/>
     <use xlink:href="#m7228e58d65" x="729.728943" y="531.39608" style="fill: #cd7f32; fill-opacity: 0.7; stroke: #f5f5dc; stroke-opacity: 0.7; stroke-width: 0.5"/>
     <use xlink:href="#m7228e58d65" x="737.772395" y="523.672656" style="fill: #cd7f32; fill-opacity: 0.7; stroke: #f5f5dc; stroke-opacity: 0.7; stroke-width: 0.5"/>
     <use xlink:href="#m7228e58d65" x="797.691642" y="495.68343" style="fill: #cd7f32; fill-opacity: 0.7; stroke: #f5f5dc; stroke-opacity: 0.7; stroke-width: 0.5"/>
    </g>
   </g>
   <g id="patch_4">
    <path d="M 689.339783 634.861349 
L 695.156763 639.523708 
L 709.632462 643.631289 
L 722.414057 645.396336 
L 779.039648 620.205388 
L 816.617955 502.12301 
L 795.888899 494.017395 
L 780.081833 496.595306 
L 731.955795 527.376943 
L 729.728943 531.39608 
z
" clip-path="url(#p04b0539ea5)" style="fill: #cd7f32; opacity: 0.05"/>
   </g>
   <g id="PathCollection_3">
    <defs>
     <path id="m443898051e" d="M 0 3.872983 
C 1.027127 3.872983 2.012324 3.464901 2.738613 2.738613 
C 3.464901 2.012324 3.872983 1.027127 3.872983 0 
C 3.872983 -1.027127 3.464901 -2.012324 2.738613 -2.738613 
C 2.012324 -3.464901 1.027127 -3.872983 0 -3.872983 
C -1.027127 -3.872983 -2.012324 -3.464901 -2.738613 -2.738613 
C -3.464901 -2.012324 -3.872983 -1.027127 -3.872983 0 
C -3.872983 1.027127 -3.464901 2.012324 -2.738613 2.738613 
C -2.012324 3.464901 -1.027127 3.872983 0 3.872983 
z
" style="stroke: #f5f5dc; stroke-opacity: 0.7; stroke-width: 0.5"/>
    </defs>
    <g clip-path="url(#p04b0539ea5)">
     <use xlink:href="#m443898051e" x="113.152773" y="183.08359" style="fill: #c0c0c0; fill-opacity: 0.7; stroke: #f5f5dc; stroke-opacity: 0.7; stroke-width: 0.5"/>
     <use xlink:href="#m443898051e" x="143.342307" y="231.678268" style="fill: #c0c0c0; fill-opacity: 0.7; stroke: #f5f5dc; stroke-opacity: 0.7; stroke-width: 0.5"/>
     <use xlink:href="#m443898051e" x="157.905549" y="236.557305" style="fill: #c0c0c0; fill-opacity: 0.7; stroke: #f5f5dc; stroke-opacity: 0.7; stroke-width: 0.5"/>
     <use xlink:href="#m443898051e" x="103.094324" y="154.068358" style="fill: #c0c0c0; fill-opacity: 0.7; stroke: #f5f5dc; stroke-opacity: 0.7; stroke-width: 0.5"/>
     <use xlink:href="#m443898051e" x="92.596654" y="160.726008" style="fill: #c0c0c0; fill-opacity: 0.7; stroke: #f5f5dc; stroke-opacity: 0.7; stroke-width: 0.5"/>
     <use xlink:href="#m443898051e" x="111.217169" y="140.456777" style="fill: #c0c0c0; fill-opacity: 0.7; stroke: #f5f5dc; stroke-opacity: 0.7; stroke-width: 0.5"/>
     <use xlink:href="#m443898051e" x="94.483221" y="156.85361" style="fill: #c0c0c0; fill-opacity: 0.7; stroke: #f5f5dc; stroke-opacity: 0.7; stroke-width: 0.5"/>
     <use xlink:href="#m443898051e" x="265.530676" y="126.947788" style="fill: #c0c0c0; fill-opacity: 0.7; stroke: #f5f5dc; stroke-opacity: 0.7; stroke-width: 0.5"/>
     <use xlink:href="#m443898051e" x="268.384367" y="128.916359" style="fill: #c0c0c0; fill-opacity: 0.7; stroke: #f5f5dc; stroke-opacity: 0.7; stroke-width: 0.5"/>
     <use xlink:href="#m443898051e" x="195.526196" y="161.08384" style="fill: #c0c0c0; fill-opacity: 0.7; stroke: #f5f5dc; stroke-opacity: 0.7; stroke-width: 0.5"/>
     <use xlink:href="#m443898051e" x="191.821675" y="92.406416" style="fill: #c0c0c0; fill-opacity: 0.7; stroke: #f5f5dc; stroke-opacity: 0.7; stroke-width: 0.5"/>
     <use xlink:href="#m443898051e" x="178.89282" y="215.5165" style="fill: #c0c0c0; fill-opacity: 0.7; stroke: #f5f5dc; stroke-opacity: 0.7; stroke-width: 0.5"/>
     <use xlink:href="#m443898051e" x="263.79299" y="156.625845" style="fill: #c0c0c0; fill-opacity: 0.7; stroke: #f5f5dc; stroke-opacity: 0.7; stroke-width: 0.5"/>
     <use xlink:href="#m443898051e" x="182.804749" y="247.747052" style="fill: #c0c0c0; fill-opacity: 0.7; stroke: #f5f5dc; stroke-opacity: 0.7; stroke-width: 0.5"/>
     <use xlink:href="#m443898051e" x="110.746734" y="208.148956" style="fill: #c0c0c0; fill-opacity: 0.7; stroke: #f5f5dc; stroke-opacity: 0.7; stroke-width: 0.5"/>
     <use xlink:href="#m443898051e" x="127.633283" y="226.92588" style="fill: #c0c0c0; fill-opacity: 0.7; stroke: #f5f5dc; stroke-opacity: 0.7; stroke-width: 0.5"/>
     <use xlink:href="#m443898051e" x="150.050574" y="235.579975" style="fill: #c0c0c0; fill-opacity: 0.7; stroke: #f5f5dc; stroke-opacity: 0.7; stroke-width: 0.5"/>
     <use xlink:href="#m443898051e" x="146.579204" y="244.7802" style="fill: #c0c0c0; fill-opacity: 0.7; stroke: #f5f5dc; stroke-opacity: 0.7; stroke-width: 0.5"/>
     <use xlink:href="#m443898051e" x="180.097939" y="134.65713" style="fill: #c0c0c0; fill-opacity: 0.7; stroke: #f5f5dc; stroke-opacity: 0.7; stroke-width: 0.5"/>
     <use xlink:href="#m443898051e" x="201.207952" y="189.729076" style="fill: #c0c0c0; fill-opacity: 0.7; stroke: #f5f5dc; stroke-opacity: 0.7; stroke-width: 0.5"/>
     <use xlink:href="#m443898051e" x="196.661711" y="106.015883" style="fill: #c0c0c0; fill-opacity: 0.7; stroke: #f5f5dc; stroke-opacity: 0.7; stroke-width: 0.5"/>
     <use xlink:href="#m443898051e" x="209.019924" y="80.38707" style="fill: #c0c0c0; fill-opacity: 0.7; stroke: #f5f5dc; stroke-opacity: 0.7; stroke-width: 0.5"/>
     <use xlink:href="#m443898051e" x="200.08497" y="90.773852" style="fill: #c0c0c0; fill-opacity: 0.7; stroke: #f5f5dc; stroke-opacity: 0.7; stroke-width: 0.5"/>
     <use xlink:href="#m443898051e" x="191.545141" y="99.245721" style="fill: #c0c0c0; fill-opacity: 0.7; stroke: #f5f5dc; stroke-opacity: 0.7; stroke-width: 0.5"/>
     <use xlink:href="#m443898051e" x="193.165293" y="95.778255" style="fill: #c0c0c0; fill-opacity: 0.7; stroke: #f5f5dc; stroke-opacity: 0.7; stroke-width: 0.5"/>
     <use xlink:href="#m443898051e" x="208.340047" y="195.573431" style="fill: #c0c0c0; fill-opacity: 0.7; stroke: #f5f5dc; stroke-opacity: 0.7; stroke-width: 0.5"/>
     <use xlink:href="#m443898051e" x="195.351953" y="151.486608" style="fill: #c0c0c0; fill-opacity: 0.7; stroke: #f5f5dc; stroke-opacity: 0.7; stroke-width: 0.5"/>
     <use xlink:href="#m443898051e" x="200.893904" y="171.734833" style="fill: #c0c0c0; fill-opacity: 0.7; stroke: #f5f5dc; stroke-opacity: 0.7; stroke-width: 0.5"/>
     <use xlink:href="#m443898051e" x="219.274787" y="180.126151" style="fill: #c0c0c0; fill-opacity: 0.7; stroke: #f5f5dc; stroke-opacity: 0.7; stroke-width: 0.5"/>
     <use xlink:href="#m443898051e" x="189.410643" y="206.157352" style="fill: #c0c0c0; fill-opacity: 0.7; stroke: #f5f5dc; stroke-opacity: 0.7; stroke-width: 0.5"/>
     <use xlink:href="#m443898051e" x="145.423965" y="132.225289" style="fill: #c0c0c0; fill-opacity: 0.7; stroke: #f5f5dc; stroke-opacity: 0.7; stroke-width: 0.5"/>
     <use xlink:href="#m443898051e" x="263.353208" y="123.648262" style="fill: #c0c0c0; fill-opacity: 0.7; stroke: #f5f5dc; stroke-opacity: 0.7; stroke-width: 0.5"/>
     <use xlink:href="#m443898051e" x="84.977045" y="152.33152" style="fill: #c0c0c0; fill-opacity: 0.7; stroke: #f5f5dc; stroke-opacity: 0.7; stroke-width: 0.5"/>
     <use xlink:href="#m443898051e" x="186.084765" y="87.889243" style="fill: #c0c0c0; fill-opacity: 0.7; stroke: #f5f5dc; stroke-opacity: 0.7; stroke-width: 0.5"/>
     <use xlink:href="#m443898051e" x="182.936452" y="123.693681" style="fill: #c0c0c0; fill-opacity: 0.7; stroke: #f5f5dc; stroke-opacity: 0.7; stroke-width: 0.5"/>
     <use xlink:href="#m443898051e" x="175.313785" y="90.27366" style="fill: #c0c0c0; fill-opacity: 0.7; stroke: #f5f5dc; stroke-opacity: 0.7; stroke-width: 0.5"/>
     <use xlink:href="#m443898051e" x="108.268214" y="167.883074" style="fill: #c0c0c0; fill-opacity: 0.7; stroke: #f5f5dc; stroke-opacity: 0.7; stroke-width: 0.5"/>
     <use xlink:href="#m443898051e" x="141.27447" y="144.098975" style="fill: #c0c0c0; fill-opacity: 0.7; stroke: #f5f5dc; stroke-opacity: 0.7; stroke-width: 0.5"/>
     <use xlink:href="#m443898051e" x="96.825806" y="178.373591" style="fill: #c0c0c0; fill-opacity: 0.7; stroke: #f5f5dc; stroke-opacity: 0.7; stroke-width: 0.5"/>
     <use xlink:href="#m443898051e" x="194.547416" y="71.821818" style="fill: #c0c0c0; fill-opacity: 0.7; stroke: #f5f5dc; stroke-opacity: 0.7; stroke-width: 0.5"/>
    </g>
   </g>
   <g id="patch_5">
    <path d="M 194.547416 71.821818 
L 84.977045 152.33152 
L 96.825806 178.373591 
L 110.746734 208.148956 
L 127.633283 226.92588 
L 146.579204 244.7802 
L 182.804749 247.747052 
L 263.79299 156.625845 
L 268.384367 128.916359 
L 263.353208 123.648262 
L 209.019924 80.38707 
z
" clip-path="url(#p04b0539ea5)" style="fill: #c0c0c0; opacity: 0.05"/>
   </g>
   <g id="matplotlib.axis_1">
    <g id="xtick_1">
     <g id="line2d_1">
      <defs>
       <path id="m955b7159a3" d="M 0 0 
L 0 3.5 
" style="stroke: #666666; stroke-width: 0.8"/>
      </defs>
      <g>
       <use xlink:href="#m955b7159a3" x="168.747836" y="676.24" style="fill: #666666; stroke: #666666; stroke-width: 0.8"/>
      </g>
     </g>
     <g id="text_1">
      <!-- −4 -->
      <g style="fill: #666666" transform="translate(161.376742 690.838437) scale(0.1 -0.1)">
       <defs>
        <path id="DejaVuSans-2212" d="M 678 2272 
L 4684 2272 
L 4684 1741 
L 678 1741 
L 678 2272 
z
" transform="scale(0.015625)"/>
        <path id="DejaVuSans-34" d="M 2419 4116 
L 825 1625 
L 2419 1625 
L 2419 4116 
z
M 2253 4666 
L 3047 4666 
L 3047 1625 
L 3713 1625 
L 3713 1100 
L 3047 1100 
L 3047 0 
L 2419 0 
L 2419 1100 
L 313 1100 
L 313 1709 
L 2253 4666 
z
" transform="scale(0.015625)"/>
       </defs>
       <use xlink:href="#DejaVuSans-2212"/>
       <use xlink:href="#DejaVuSans-34" transform="translate(83.789062 0)"/>
      </g>
     </g>
    </g>
    <g id="xtick_2">
     <g id="line2d_2">
      <g>
       <use xlink:href="#m955b7159a3" x="307.43811" y="676.24" style="fill: #666666; stroke: #666666; stroke-width: 0.8"/>
      </g>
     </g>
     <g id="text_2">
      <!-- −2 -->
      <g style="fill: #666666" transform="translate(300.067016 690.838437) scale(0.1 -0.1)">
       <defs>
        <path id="DejaVuSans-32" d="M 1228 531 
L 3431 531 
L 3431 0 
L 469 0 
L 469 531 
Q 828 903 1448 1529 
Q 2069 2156 2228 2338 
Q 2531 2678 2651 2914 
Q 2772 3150 2772 3378 
Q 2772 3750 2511 3984 
Q 2250 4219 1831 4219 
Q 1534 4219 1204 4116 
Q 875 4013 500 3803 
L 500 4441 
Q 881 4594 1212 4672 
Q 1544 4750 1819 4750 
Q 2544 4750 2975 4387 
Q 3406 4025 3406 3419 
Q 3406 3131 3298 2873 
Q 3191 2616 2906 2266 
Q 2828 2175 2409 1742 
Q 1991 1309 1228 531 
z
" transform="scale(0.015625)"/>
       </defs>
       <use xlink:href="#DejaVuSans-2212"/>
       <use xlink:href="#DejaVuSans-32" transform="translate(83.789062 0)"/>
      </g>
     </g>
    </g>
    <g id="xtick_3">
     <g id="line2d_3">
      <g>
       <use xlink:href="#m955b7159a3" x="446.128384" y="676.24" style="fill: #666666; stroke: #666666; stroke-width: 0.8"/>
      </g>
     </g>
     <g id="text_3">
      <!-- 0 -->
      <g style="fill: #666666" transform="translate(442.947134 690.838437) scale(0.1 -0.1)">
       <defs>
        <path id="DejaVuSans-30" d="M 2034 4250 
Q 1547 4250 1301 3770 
Q 1056 3291 1056 2328 
Q 1056 1369 1301 889 
Q 1547 409 2034 409 
Q 2525 409 2770 889 
Q 3016 1369 3016 2328 
Q 3016 3291 2770 3770 
Q 2525 4250 2034 4250 
z
M 2034 4750 
Q 2819 4750 3233 4129 
Q 3647 3509 3647 2328 
Q 3647 1150 3233 529 
Q 2819 -91 2034 -91 
Q 1250 -91 836 529 
Q 422 1150 422 2328 
Q 422 3509 836 4129 
Q 1250 4750 2034 4750 
z
" transform="scale(0.015625)"/>
       </defs>
       <use xlink:href="#DejaVuSans-30"/>
      </g>
     </g>
    </g>
    <g id="xtick_4">
     <g id="line2d_4">
      <g>
       <use xlink:href="#m955b7159a3" x="584.818659" y="676.24" style="fill: #666666; stroke: #666666; stroke-width: 0.8"/>
      </g>
     </g>
     <g id="text_4">
      <!-- 2 -->
      <g style="fill: #666666" transform="translate(581.637409 690.838437) scale(0.1 -0.1)">
       <use xlink:href="#DejaVuSans-32"/>
      </g>
     </g>
    </g>
    <g id="xtick_5">
     <g id="line2d_5">
      <g>
       <use xlink:href="#m955b7159a3" x="723.508933" y="676.24" style="fill: #666666; stroke: #666666; stroke-width: 0.8"/>
      </g>
     </g>
     <g id="text_5">
      <!-- 4 -->
      <g style="fill: #666666" transform="translate(720.327683 690.838437) scale(0.1 -0.1)">
       <use xlink:href="#DejaVuSans-34"/>
      </g>
     </g>
    </g>
    <g id="text_6">
     <!-- UMAP Dimension 1 -->
     <g style="fill: #c5c5b0" transform="translate(393.984062 706.03625) scale(0.12 -0.12)">
      <defs>
       <path id="DejaVuSans-55" d="M 556 4666 
L 1191 4666 
L 1191 1831 
Q 1191 1081 1462 751 
Q 1734 422 2344 422 
Q 2950 422 3222 751 
Q 3494 1081 3494 1831 
L 3494 4666 
L 4128 4666 
L 4128 1753 
Q 4128 841 3676 375 
Q 3225 -91 2344 -91 
Q 1459 -91 1007 375 
Q 556 841 556 1753 
L 556 4666 
z
" transform="scale(0.015625)"/>
       <path id="DejaVuSans-4d" d="M 628 4666 
L 1569 4666 
L 2759 1491 
L 3956 4666 
L 4897 4666 
L 4897 0 
L 4281 0 
L 4281 4097 
L 3078 897 
L 2444 897 
L 1241 4097 
L 1241 0 
L 628 0 
L 628 4666 
z
" transform="scale(0.015625)"/>
       <path id="DejaVuSans-41" d="M 2188 4044 
L 1331 1722 
L 3047 1722 
L 2188 4044 
z
M 1831 4666 
L 2547 4666 
L 4325 0 
L 3669 0 
L 3244 1197 
L 1141 1197 
L 716 0 
L 50 0 
L 1831 4666 
z
" transform="scale(0.015625)"/>
       <path id="DejaVuSans-50" d="M 1259 4147 
L 1259 2394 
L 2053 2394 
Q 2494 2394 2734 2622 
Q 2975 2850 2975 3272 
Q 2975 3691 2734 3919 
Q 2494 4147 2053 4147 
L 1259 4147 
z
M 628 4666 
L 2053 4666 
Q 2838 4666 3239 4311 
Q 3641 3956 3641 3272 
Q 3641 2581 3239 2228 
Q 2838 1875 2053 1875 
L 1259 1875 
L 1259 0 
L 628 0 
L 628 4666 
z
" transform="scale(0.015625)"/>
       <path id="DejaVuSans-20" transform="scale(0.015625)"/>
       <path id="DejaVuSans-44" d="M 1259 4147 
L 1259 519 
L 2022 519 
Q 2988 519 3436 956 
Q 3884 1394 3884 2338 
Q 3884 3275 3436 3711 
Q 2988 4147 2022 4147 
L 1259 4147 
z
M 628 4666 
L 1925 4666 
Q 3281 4666 3915 4102 
Q 4550 3538 4550 2338 
Q 4550 1131 3912 565 
Q 3275 0 1925 0 
L 628 0 
L 628 4666 
z
" transform="scale(0.015625)"/>
       <path id="DejaVuSans-69" d="M 603 3500 
L 1178 3500 
L 1178 0 
L 603 0 
L 603 3500 
z
M 603 4863 
L 1178 4863 
L 1178 4134 
L 603 4134 
L 603 4863 
z
" transform="scale(0.015625)"/>
       <path id="DejaVuSans-6d" d="M 3328 2828 
Q 3544 3216 3844 3400 
Q 4144 3584 4550 3584 
Q 5097 3584 5394 3201 
Q 5691 2819 5691 2113 
L 5691 0 
L 5113 0 
L 5113 2094 
Q 5113 2597 4934 2840 
Q 4756 3084 4391 3084 
Q 3944 3084 3684 2787 
Q 3425 2491 3425 1978 
L 3425 0 
L 2847 0 
L 2847 2094 
Q 2847 2600 2669 2842 
Q 2491 3084 2119 3084 
Q 1678 3084 1418 2786 
Q 1159 2488 1159 1978 
L 1159 0 
L 581 0 
L 581 3500 
L 1159 3500 
L 1159 2956 
Q 1356 3278 1631 3431 
Q 1906 3584 2284 3584 
Q 2666 3584 2933 3390 
Q 3200 3197 3328 2828 
z
" transform="scale(0.015625)"/>
       <path id="DejaVuSans-65" d="M 3597 1894 
L 3597 1613 
L 953 1613 
Q 991 1019 1311 708 
Q 1631 397 2203 397 
Q 2534 397 2845 478 
Q 3156 559 3463 722 
L 3463 178 
Q 3153 47 2828 -22 
Q 2503 -91 2169 -91 
Q 1331 -91 842 396 
Q 353 884 353 1716 
Q 353 2575 817 3079 
Q 1281 3584 2069 3584 
Q 2775 3584 3186 3129 
Q 3597 2675 3597 1894 
z
M 3022 2063 
Q 3016 2534 2758 2815 
Q 2500 3097 2075 3097 
Q 1594 3097 1305 2825 
Q 1016 2553 972 2059 
L 3022 2063 
z
" transform="scale(0.015625)"/>
       <path id="DejaVuSans-6e" d="M 3513 2113 
L 3513 0 
L 2938 0 
L 2938 2094 
Q 2938 2591 2744 2837 
Q 2550 3084 2163 3084 
Q 1697 3084 1428 2787 
Q 1159 2491 1159 1978 
L 1159 0 
L 581 0 
L 581 3500 
L 1159 3500 
L 1159 2956 
Q 1366 3272 1645 3428 
Q 1925 3584 2291 3584 
Q 2894 3584 3203 3211 
Q 3513 2838 3513 2113 
z
" transform="scale(0.015625)"/>
       <path id="DejaVuSans-73" d="M 2834 3397 
L 2834 2853 
Q 2591 2978 2328 3040 
Q 2066 3103 1784 3103 
Q 1356 3103 1142 2972 
Q 928 2841 928 2578 
Q 928 2378 1081 2264 
Q 1234 2150 1697 2047 
L 1894 2003 
Q 2506 1872 2764 1633 
Q 3022 1394 3022 966 
Q 3022 478 2636 193 
Q 2250 -91 1575 -91 
Q 1294 -91 989 -36 
Q 684 19 347 128 
L 347 722 
Q 666 556 975 473 
Q 1284 391 1588 391 
Q 1994 391 2212 530 
Q 2431 669 2431 922 
Q 2431 1156 2273 1281 
Q 2116 1406 1581 1522 
L 1381 1569 
Q 847 1681 609 1914 
Q 372 2147 372 2553 
Q 372 3047 722 3315 
Q 1072 3584 1716 3584 
Q 2034 3584 2315 3537 
Q 2597 3491 2834 3397 
z
" transform="scale(0.015625)"/>
       <path id="DejaVuSans-6f" d="M 1959 3097 
Q 1497 3097 1228 2736 
Q 959 2375 959 1747 
Q 959 1119 1226 758 
Q 1494 397 1959 397 
Q 2419 397 2687 759 
Q 2956 1122 2956 1747 
Q 2956 2369 2687 2733 
Q 2419 3097 1959 3097 
z
M 1959 3584 
Q 2709 3584 3137 3096 
Q 3566 2609 3566 1747 
Q 3566 888 3137 398 
Q 2709 -91 1959 -91 
Q 1206 -91 779 398 
Q 353 888 353 1747 
Q 353 2609 779 3096 
Q 1206 3584 1959 3584 
z
" transform="scale(0.015625)"/>
       <path id="DejaVuSans-31" d="M 794 531 
L 1825 531 
L 1825 4091 
L 703 3866 
L 703 4441 
L 1819 4666 
L 2450 4666 
L 2450 531 
L 3481 531 
L 3481 0 
L 794 0 
L 794 531 
z
" transform="scale(0.015625)"/>
      </defs>
      <use xlink:href="#DejaVuSans-55"/>
      <use xlink:href="#DejaVuSans-4d" transform="translate(73.193359 0)"/>
      <use xlink:href="#DejaVuSans-41" transform="translate(159.472656 0)"/>
      <use xlink:href="#DejaVuSans-50" transform="translate(227.880859 0)"/>
      <use xlink:href="#DejaVuSans-20" transform="translate(288.183594 0)"/>
      <use xlink:href="#DejaVuSans-44" transform="translate(319.970703 0)"/>
      <use xlink:href="#DejaVuSans-69" transform="translate(396.972656 0)"/>
      <use xlink:href="#DejaVuSans-6d" transform="translate(424.755859 0)"/>
      <use xlink:href="#DejaVuSans-65" transform="translate(522.167969 0)"/>
      <use xlink:href="#DejaVuSans-6e" transform="translate(583.691406 0)"/>
      <use xlink:href="#DejaVuSans-73" transform="translate(647.070312 0)"/>
      <use xlink:href="#DejaVuSans-69" transform="translate(699.169922 0)"/>
      <use xlink:href="#DejaVuSans-6f" transform="translate(726.953125 0)"/>
      <use xlink:href="#DejaVuSans-6e" transform="translate(788.134766 0)"/>
      <use xlink:href="#DejaVuSans-20" transform="translate(851.513672 0)"/>
      <use xlink:href="#DejaVuSans-31" transform="translate(883.300781 0)"/>
     </g>
    </g>
   </g>
   <g id="matplotlib.axis_2">
    <g id="ytick_1">
     <g id="line2d_6">
      <defs>
       <path id="m8bb12d38f0" d="M 0 0 
L -3.5 0 
" style="stroke: #666666; stroke-width: 0.8"/>
      </defs>
      <g>
       <use xlink:href="#m8bb12d38f0" x="48.395" y="664.174608" style="fill: #666666; stroke: #666666; stroke-width: 0.8"/>
      </g>
     </g>
     <g id="text_7">
      <!-- −6 -->
      <g style="fill: #666666" transform="translate(26.652813 667.973827) scale(0.1 -0.1)">
       <defs>
        <path id="DejaVuSans-36" d="M 2113 2584 
Q 1688 2584 1439 2293 
Q 1191 2003 1191 1497 
Q 1191 994 1439 701 
Q 1688 409 2113 409 
Q 2538 409 2786 701 
Q 3034 994 3034 1497 
Q 3034 2003 2786 2293 
Q 2538 2584 2113 2584 
z
M 3366 4563 
L 3366 3988 
Q 3128 4100 2886 4159 
Q 2644 4219 2406 4219 
Q 1781 4219 1451 3797 
Q 1122 3375 1075 2522 
Q 1259 2794 1537 2939 
Q 1816 3084 2150 3084 
Q 2853 3084 3261 2657 
Q 3669 2231 3669 1497 
Q 3669 778 3244 343 
Q 2819 -91 2113 -91 
Q 1303 -91 875 529 
Q 447 1150 447 2328 
Q 447 3434 972 4092 
Q 1497 4750 2381 4750 
Q 2619 4750 2861 4703 
Q 3103 4656 3366 4563 
z
" transform="scale(0.015625)"/>
       </defs>
       <use xlink:href="#DejaVuSans-2212"/>
       <use xlink:href="#DejaVuSans-36" transform="translate(83.789062 0)"/>
      </g>
     </g>
    </g>
    <g id="ytick_2">
     <g id="line2d_7">
      <g>
       <use xlink:href="#m8bb12d38f0" x="48.395" y="573.71806" style="fill: #666666; stroke: #666666; stroke-width: 0.8"/>
      </g>
     </g>
     <g id="text_8">
      <!-- −4 -->
      <g style="fill: #666666" transform="translate(26.652813 577.517279) scale(0.1 -0.1)">
       <use xlink:href="#DejaVuSans-2212"/>
       <use xlink:href="#DejaVuSans-34" transform="translate(83.789062 0)"/>
      </g>
     </g>
    </g>
    <g id="ytick_3">
     <g id="line2d_8">
      <g>
       <use xlink:href="#m8bb12d38f0" x="48.395" y="483.261513" style="fill: #666666; stroke: #666666; stroke-width: 0.8"/>
      </g>
     </g>
     <g id="text_9">
      <!-- −2 -->
      <g style="fill: #666666" transform="translate(26.652813 487.060731) scale(0.1 -0.1)">
       <use xlink:href="#DejaVuSans-2212"/>
       <use xlink:href="#DejaVuSans-32" transform="translate(83.789062 0)"/>
      </g>
     </g>
    </g>
    <g id="ytick_4">
     <g id="line2d_9">
      <g>
       <use xlink:href="#m8bb12d38f0" x="48.395" y="392.804965" style="fill: #666666; stroke: #666666; stroke-width: 0.8"/>
      </g>
     </g>
     <g id="text_10">
      <!-- 0 -->
      <g style="fill: #666666" transform="translate(35.0325 396.604183) scale(0.1 -0.1)">
       <use xlink:href="#DejaVuSans-30"/>
      </g>
     </g>
    </g>
    <g id="ytick_5">
     <g id="line2d_10">
      <g>
       <use xlink:href="#m8bb12d38f0" x="48.395" y="302.348417" style="fill: #666666; stroke: #666666; stroke-width: 0.8"/>
      </g>
     </g>
     <g id="text_11">
      <!-- 2 -->
      <g style="fill: #666666" transform="translate(35.0325 306.147635) scale(0.1 -0.1)">
       <use xlink:href="#DejaVuSans-32"/>
      </g>
     </g>
    </g>
    <g id="ytick_6">
     <g id="line2d_11">
      <g>
       <use xlink:href="#m8bb12d38f0" x="48.395" y="211.891869" style="fill: #666666; stroke: #666666; stroke-width: 0.8"/>
      </g>
     </g>
     <g id="text_12">
      <!-- 4 -->
      <g style="fill: #666666" transform="translate(35.0325 215.691088) scale(0.1 -0.1)">
       <use xlink:href="#DejaVuSans-34"/>
      </g>
     </g>
    </g>
    <g id="ytick_7">
     <g id="line2d_12">
      <g>
       <use xlink:href="#m8bb12d38f0" x="48.395" y="121.435321" style="fill: #666666; stroke: #666666; stroke-width: 0.8"/>
      </g>
     </g>
     <g id="text_13">
      <!-- 6 -->
      <g style="fill: #666666" transform="translate(35.0325 125.23454) scale(0.1 -0.1)">
       <use xlink:href="#DejaVuSans-36"/>
      </g>
     </g>
    </g>
    <g id="text_14">
     <!-- UMAP Dimension 2 -->
     <g style="fill: #c5c5b0" transform="translate(20.157187 416.453438) rotate(-90) scale(0.12 -0.12)">
      <use xlink:href="#DejaVuSans-55"/>
      <use xlink:href="#DejaVuSans-4d" transform="translate(73.193359 0)"/>
      <use xlink:href="#DejaVuSans-41" transform="translate(159.472656 0)"/>
      <use xlink:href="#DejaVuSans-50" transform="translate(227.880859 0)"/>
      <use xlink:href="#DejaVuSans-20" transform="translate(288.183594 0)"/>
      <use xlink:href="#DejaVuSans-44" transform="translate(319.970703 0)"/>
      <use xlink:href="#DejaVuSans-69" transform="translate(396.972656 0)"/>
      <use xlink:href="#DejaVuSans-6d" transform="translate(424.755859 0)"/>
      <use xlink:href="#DejaVuSans-65" transform="translate(522.167969 0)"/>
      <use xlink:href="#DejaVuSans-6e" transform="translate(583.691406 0)"/>
      <use xlink:href="#DejaVuSans-73" transform="translate(647.070312 0)"/>
      <use xlink:href="#DejaVuSans-69" transform="translate(699.169922 0)"/>
      <use xlink:href="#DejaVuSans-6f" transform="translate(726.953125 0)"/>
      <use xlink:href="#DejaVuSans-6e" transform="translate(788.134766 0)"/>
      <use xlink:href="#DejaVuSans-20" transform="translate(851.513672 0)"/>
      <use xlink:href="#DejaVuSans-32" transform="translate(883.300781 0)"/>
     </g>
    </g>
   </g>
   <g id="line2d_13">
    <path d="M 193.269204 481.996237 
L 190.445041 619.462184 
" clip-path="url(#p04b0539ea5)" style="fill: none; stroke-dasharray: 5.55,2.4; stroke-dashoffset: 0; stroke: #50c878; stroke-opacity: 0.3; stroke-width: 1.5"/>
   </g>
   <g id="line2d_14">
    <path d="M 192.615598 647.458182 
L 190.445041 619.462184 
" clip-path="url(#p04b0539ea5)" style="fill: none; stroke-dasharray: 5.55,2.4; stroke-dashoffset: 0; stroke: #50c878; stroke-opacity: 0.3; stroke-width: 1.5"/>
   </g>
   <g id="line2d_15">
    <path d="M 192.615598 647.458182 
L 213.064284 646.708163 
" clip-path="url(#p04b0539ea5)" style="fill: none; stroke-dasharray: 5.55,2.4; stroke-dashoffset: 0; stroke: #50c878; stroke-opacity: 0.3; stroke-width: 1.5"/>
   </g>
   <g id="line2d_16">
    <path d="M 221.691738 627.64504 
L 265.772804 478.877939 
" clip-path="url(#p04b0539ea5)" style="fill: none; stroke-dasharray: 5.55,2.4; stroke-dashoffset: 0; stroke: #50c878; stroke-opacity: 0.3; stroke-width: 1.5"/>
   </g>
   <g id="line2d_17">
    <path d="M 221.691738 627.64504 
L 213.064284 646.708163 
" clip-path="url(#p04b0539ea5)" style="fill: none; stroke-dasharray: 5.55,2.4; stroke-dashoffset: 0; stroke: #50c878; stroke-opacity: 0.3; stroke-width: 1.5"/>
   </g>
   <g id="line2d_18">
    <path d="M 198.208141 461.919914 
L 193.269204 481.996237 
" clip-path="url(#p04b0539ea5)" style="fill: none; stroke-dasharray: 5.55,2.4; stroke-dashoffset: 0; stroke: #50c878; stroke-opacity: 0.3; stroke-width: 1.5"/>
   </g>
   <g id="line2d_19">
    <path d="M 260.694807 463.061203 
L 265.772804 478.877939 
" clip-path="url(#p04b0539ea5)" style="fill: none; stroke-dasharray: 5.55,2.4; stroke-dashoffset: 0; stroke: #50c878; stroke-opacity: 0.3; stroke-width: 1.5"/>
   </g>
   <g id="line2d_20">
    <path d="M 260.694807 463.061203 
L 255.516073 453.694944 
" clip-path="url(#p04b0539ea5)" style="fill: none; stroke-dasharray: 5.55,2.4; stroke-dashoffset: 0; stroke: #50c878; stroke-opacity: 0.3; stroke-width: 1.5"/>
   </g>
   <g id="line2d_21">
    <path d="M 246.78856 448.738784 
L 230.700067 446.084118 
" clip-path="url(#p04b0539ea5)" style="fill: none; stroke-dasharray: 5.55,2.4; stroke-dashoffset: 0; stroke: #50c878; stroke-opacity: 0.3; stroke-width: 1.5"/>
   </g>
   <g id="line2d_22">
    <path d="M 246.78856 448.738784 
L 255.516073 453.694944 
" clip-path="url(#p04b0539ea5)" style="fill: none; stroke-dasharray: 5.55,2.4; stroke-dashoffset: 0; stroke: #50c878; stroke-opacity: 0.3; stroke-width: 1.5"/>
   </g>
   <g id="line2d_23">
    <path d="M 228.230342 446.384955 
L 230.700067 446.084118 
" clip-path="url(#p04b0539ea5)" style="fill: none; stroke-dasharray: 5.55,2.4; stroke-dashoffset: 0; stroke: #50c878; stroke-opacity: 0.3; stroke-width: 1.5"/>
   </g>
   <g id="line2d_24">
    <path d="M 228.230342 446.384955 
L 198.208141 461.919914 
" clip-path="url(#p04b0539ea5)" style="fill: none; stroke-dasharray: 5.55,2.4; stroke-dashoffset: 0; stroke: #50c878; stroke-opacity: 0.3; stroke-width: 1.5"/>
   </g>
   <g id="line2d_25">
    <path d="M 695.156763 639.523708 
L 689.339783 634.861349 
" clip-path="url(#p04b0539ea5)" style="fill: none; stroke-dasharray: 5.55,2.4; stroke-dashoffset: 0; stroke: #cd7f32; stroke-opacity: 0.3; stroke-width: 1.5"/>
   </g>
   <g id="line2d_26">
    <path d="M 779.039648 620.205388 
L 816.617955 502.12301 
" clip-path="url(#p04b0539ea5)" style="fill: none; stroke-dasharray: 5.55,2.4; stroke-dashoffset: 0; stroke: #cd7f32; stroke-opacity: 0.3; stroke-width: 1.5"/>
   </g>
   <g id="line2d_27">
    <path d="M 779.039648 620.205388 
L 722.414057 645.396336 
" clip-path="url(#p04b0539ea5)" style="fill: none; stroke-dasharray: 5.55,2.4; stroke-dashoffset: 0; stroke: #cd7f32; stroke-opacity: 0.3; stroke-width: 1.5"/>
   </g>
   <g id="line2d_28">
    <path d="M 729.728943 531.39608 
L 689.339783 634.861349 
" clip-path="url(#p04b0539ea5)" style="fill: none; stroke-dasharray: 5.55,2.4; stroke-dashoffset: 0; stroke: #cd7f32; stroke-opacity: 0.3; stroke-width: 1.5"/>
   </g>
   <g id="line2d_29">
    <path d="M 729.728943 531.39608 
L 731.955795 527.376943 
" clip-path="url(#p04b0539ea5)" style="fill: none; stroke-dasharray: 5.55,2.4; stroke-dashoffset: 0; stroke: #cd7f32; stroke-opacity: 0.3; stroke-width: 1.5"/>
   </g>
   <g id="line2d_30">
    <path d="M 780.081833 496.595306 
L 731.955795 527.376943 
" clip-path="url(#p04b0539ea5)" style="fill: none; stroke-dasharray: 5.55,2.4; stroke-dashoffset: 0; stroke: #cd7f32; stroke-opacity: 0.3; stroke-width: 1.5"/>
   </g>
   <g id="line2d_31">
    <path d="M 709.632462 643.631289 
L 722.414057 645.396336 
" clip-path="url(#p04b0539ea5)" style="fill: none; stroke-dasharray: 5.55,2.4; stroke-dashoffset: 0; stroke: #cd7f32; stroke-opacity: 0.3; stroke-width: 1.5"/>
   </g>
   <g id="line2d_32">
    <path d="M 709.632462 643.631289 
L 695.156763 639.523708 
" clip-path="url(#p04b0539ea5)" style="fill: none; stroke-dasharray: 5.55,2.4; stroke-dashoffset: 0; stroke: #cd7f32; stroke-opacity: 0.3; stroke-width: 1.5"/>
   </g>
   <g id="line2d_33">
    <path d="M 795.888899 494.017395 
L 816.617955 502.12301 
" clip-path="url(#p04b0539ea5)" style="fill: none; stroke-dasharray: 5.55,2.4; stroke-dashoffset: 0; stroke: #cd7f32; stroke-opacity: 0.3; stroke-width: 1.5"/>
   </g>
   <g id="line2d_34">
    <path d="M 795.888899 494.017395 
L 780.081833 496.595306 
" clip-path="url(#p04b0539ea5)" style="fill: none; stroke-dasharray: 5.55,2.4; stroke-dashoffset: 0; stroke: #cd7f32; stroke-opacity: 0.3; stroke-width: 1.5"/>
   </g>
   <g id="line2d_35">
    <path d="M 194.547416 71.821818 
L 84.977045 152.33152 
" clip-path="url(#p04b0539ea5)" style="fill: none; stroke-dasharray: 5.55,2.4; stroke-dashoffset: 0; stroke: #c0c0c0; stroke-opacity: 0.3; stroke-width: 1.5"/>
   </g>
   <g id="line2d_36">
    <path d="M 263.79299 156.625845 
L 268.384367 128.916359 
" clip-path="url(#p04b0539ea5)" style="fill: none; stroke-dasharray: 5.55,2.4; stroke-dashoffset: 0; stroke: #c0c0c0; stroke-opacity: 0.3; stroke-width: 1.5"/>
   </g>
   <g id="line2d_37">
    <path d="M 263.79299 156.625845 
L 182.804749 247.747052 
" clip-path="url(#p04b0539ea5)" style="fill: none; stroke-dasharray: 5.55,2.4; stroke-dashoffset: 0; stroke: #c0c0c0; stroke-opacity: 0.3; stroke-width: 1.5"/>
   </g>
   <g id="line2d_38">
    <path d="M 209.019924 80.38707 
L 194.547416 71.821818 
" clip-path="url(#p04b0539ea5)" style="fill: none; stroke-dasharray: 5.55,2.4; stroke-dashoffset: 0; stroke: #c0c0c0; stroke-opacity: 0.3; stroke-width: 1.5"/>
   </g>
   <g id="line2d_39">
    <path d="M 110.746734 208.148956 
L 127.633283 226.92588 
" clip-path="url(#p04b0539ea5)" style="fill: none; stroke-dasharray: 5.55,2.4; stroke-dashoffset: 0; stroke: #c0c0c0; stroke-opacity: 0.3; stroke-width: 1.5"/>
   </g>
   <g id="line2d_40">
    <path d="M 146.579204 244.7802 
L 182.804749 247.747052 
" clip-path="url(#p04b0539ea5)" style="fill: none; stroke-dasharray: 5.55,2.4; stroke-dashoffset: 0; stroke: #c0c0c0; stroke-opacity: 0.3; stroke-width: 1.5"/>
   </g>
   <g id="line2d_41">
    <path d="M 146.579204 244.7802 
L 127.633283 226.92588 
" clip-path="url(#p04b0539ea5)" style="fill: none; stroke-dasharray: 5.55,2.4; stroke-dashoffset: 0; stroke: #c0c0c0; stroke-opacity: 0.3; stroke-width: 1.5"/>
   </g>
   <g id="line2d_42">
    <path d="M 263.353208 123.648262 
L 268.384367 128.916359 
" clip-path="url(#p04b0539ea5)" style="fill: none; stroke-dasharray: 5.55,2.4; stroke-dashoffset: 0; stroke: #c0c0c0; stroke-opacity: 0.3; stroke-width: 1.5"/>
   </g>
   <g id="line2d_43">
    <path d="M 263.353208 123.648262 
L 209.019924 80.38707 
" clip-path="url(#p04b0539ea5)" style="fill: none; stroke-dasharray: 5.55,2.4; stroke-dashoffset: 0; stroke: #c0c0c0; stroke-opacity: 0.3; stroke-width: 1.5"/>
   </g>
   <g id="line2d_44">
    <path d="M 96.825806 178.373591 
L 84.977045 152.33152 
" clip-path="url(#p04b0539ea5)" style="fill: none; stroke-dasharray: 5.55,2.4; stroke-dashoffset: 0; stroke: #c0c0c0; stroke-opacity: 0.3; stroke-width: 1.5"/>
   </g>
   <g id="line2d_45">
    <path d="M 96.825806 178.373591 
L 110.746734 208.148956 
" clip-path="url(#p04b0539ea5)" style="fill: none; stroke-dasharray: 5.55,2.4; stroke-dashoffset: 0; stroke: #c0c0c0; stroke-opacity: 0.3; stroke-width: 1.5"/>
   </g>
   <g id="patch_6">
    <path d="M 48.395 676.24 
L 48.395 43.04 
" style="fill: none; stroke: #4a4a3d; stroke-width: 0.8; stroke-linejoin: miter; stroke-linecap: square"/>
   </g>
   <g id="patch_7">
    <path d="M 853.2 676.24 
L 853.2 43.04 
" style="fill: none; stroke: #4a4a3d; stroke-width: 0.8; stroke-linejoin: miter; stroke-linecap: square"/>
   </g>
   <g id="patch_8">
    <path d="M 48.395 676.24 
L 853.2 676.24 
" style="fill: none; stroke: #4a4a3d; stroke-width: 0.8; stroke-linejoin: miter; stroke-linecap: square"/>
   </g>
   <g id="patch_9">
    <path d="M 48.395 43.04 
L 853.2 43.04 
" style="fill: none; stroke: #4a4a3d; stroke-width: 0.8; stroke-linejoin: miter; stroke-linecap: square"/>
   </g>
   <g id="text_15">
    <g id="patch_10">
     <path d="M 249.78856 450.818472 
L 290.174497 450.818472 
Q 293.174497 450.818472 293.174497 447.818472 
L 293.174497 438.140347 
Q 293.174497 435.140347 290.174497 435.140347 
L 249.78856 435.140347 
Q 246.78856 435.140347 246.78856 438.140347 
L 246.78856 447.818472 
Q 246.78856 450.818472 249.78856 450.818472 
z
" style="fill: #50c878; opacity: 0.3"/>
    </g>
    <!-- Martini -->
    <g style="fill: #f5f5dc" transform="translate(249.78856 445.738784) scale(0.1 -0.1)">
     <defs>
      <path id="DejaVuSans-Bold-4d" d="M 588 4666 
L 2119 4666 
L 3181 2169 
L 4250 4666 
L 5778 4666 
L 5778 0 
L 4641 0 
L 4641 3413 
L 3566 897 
L 2803 897 
L 1728 3413 
L 1728 0 
L 588 0 
L 588 4666 
z
" transform="scale(0.015625)"/>
      <path id="DejaVuSans-Bold-61" d="M 2106 1575 
Q 1756 1575 1579 1456 
Q 1403 1338 1403 1106 
Q 1403 894 1545 773 
Q 1688 653 1941 653 
Q 2256 653 2472 879 
Q 2688 1106 2688 1447 
L 2688 1575 
L 2106 1575 
z
M 3816 1997 
L 3816 0 
L 2688 0 
L 2688 519 
Q 2463 200 2181 54 
Q 1900 -91 1497 -91 
Q 953 -91 614 226 
Q 275 544 275 1050 
Q 275 1666 698 1953 
Q 1122 2241 2028 2241 
L 2688 2241 
L 2688 2328 
Q 2688 2594 2478 2717 
Q 2269 2841 1825 2841 
Q 1466 2841 1156 2769 
Q 847 2697 581 2553 
L 581 3406 
Q 941 3494 1303 3539 
Q 1666 3584 2028 3584 
Q 2975 3584 3395 3211 
Q 3816 2838 3816 1997 
z
" transform="scale(0.015625)"/>
      <path id="DejaVuSans-Bold-72" d="M 3138 2547 
Q 2991 2616 2845 2648 
Q 2700 2681 2553 2681 
Q 2122 2681 1889 2404 
Q 1656 2128 1656 1613 
L 1656 0 
L 538 0 
L 538 3500 
L 1656 3500 
L 1656 2925 
Q 1872 3269 2151 3426 
Q 2431 3584 2822 3584 
Q 2878 3584 2943 3579 
Q 3009 3575 3134 3559 
L 3138 2547 
z
" transform="scale(0.015625)"/>
      <path id="DejaVuSans-Bold-74" d="M 1759 4494 
L 1759 3500 
L 2913 3500 
L 2913 2700 
L 1759 2700 
L 1759 1216 
Q 1759 972 1856 886 
Q 1953 800 2241 800 
L 2816 800 
L 2816 0 
L 1856 0 
Q 1194 0 917 276 
Q 641 553 641 1216 
L 641 2700 
L 84 2700 
L 84 3500 
L 641 3500 
L 641 4494 
L 1759 4494 
z
" transform="scale(0.015625)"/>
      <path id="DejaVuSans-Bold-69" d="M 538 3500 
L 1656 3500 
L 1656 0 
L 538 0 
L 538 3500 
z
M 538 4863 
L 1656 4863 
L 1656 3950 
L 538 3950 
L 538 4863 
z
" transform="scale(0.015625)"/>
      <path id="DejaVuSans-Bold-6e" d="M 4056 2131 
L 4056 0 
L 2931 0 
L 2931 347 
L 2931 1631 
Q 2931 2084 2911 2256 
Q 2891 2428 2841 2509 
Q 2775 2619 2662 2680 
Q 2550 2741 2406 2741 
Q 2056 2741 1856 2470 
Q 1656 2200 1656 1722 
L 1656 0 
L 538 0 
L 538 3500 
L 1656 3500 
L 1656 2988 
Q 1909 3294 2193 3439 
Q 2478 3584 2822 3584 
Q 3428 3584 3742 3212 
Q 4056 2841 4056 2131 
z
" transform="scale(0.015625)"/>
     </defs>
     <use xlink:href="#DejaVuSans-Bold-4d"/>
     <use xlink:href="#DejaVuSans-Bold-61" transform="translate(99.511719 0)"/>
     <use xlink:href="#DejaVuSans-Bold-72" transform="translate(166.992188 0)"/>
     <use xlink:href="#DejaVuSans-Bold-74" transform="translate(216.308594 0)"/>
     <use xlink:href="#DejaVuSans-Bold-69" transform="translate(264.111328 0)"/>
     <use xlink:href="#DejaVuSans-Bold-6e" transform="translate(298.388672 0)"/>
     <use xlink:href="#DejaVuSans-Bold-69" transform="translate(369.580078 0)"/>
    </g>
   </g>
   <g id="text_16">
    <g id="patch_11">
     <path d="M 196.52927 619.289701 
L 257.64177 619.289701 
Q 260.64177 619.289701 260.64177 616.289701 
L 260.64177 606.611576 
Q 260.64177 603.611576 257.64177 603.611576 
L 196.52927 603.611576 
Q 193.52927 603.611576 193.52927 606.611576 
L 193.52927 616.289701 
Q 193.52927 619.289701 196.52927 619.289701 
z
" style="fill: #50c878; opacity: 0.3"/>
    </g>
    <!-- Manhattan -->
    <g style="fill: #f5f5dc" transform="translate(196.52927 614.210014) scale(0.1 -0.1)">
     <defs>
      <path id="DejaVuSans-Bold-68" d="M 4056 2131 
L 4056 0 
L 2931 0 
L 2931 347 
L 2931 1625 
Q 2931 2084 2911 2256 
Q 2891 2428 2841 2509 
Q 2775 2619 2662 2680 
Q 2550 2741 2406 2741 
Q 2056 2741 1856 2470 
Q 1656 2200 1656 1722 
L 1656 0 
L 538 0 
L 538 4863 
L 1656 4863 
L 1656 2988 
Q 1909 3294 2193 3439 
Q 2478 3584 2822 3584 
Q 3428 3584 3742 3212 
Q 4056 2841 4056 2131 
z
" transform="scale(0.015625)"/>
     </defs>
     <use xlink:href="#DejaVuSans-Bold-4d"/>
     <use xlink:href="#DejaVuSans-Bold-61" transform="translate(99.511719 0)"/>
     <use xlink:href="#DejaVuSans-Bold-6e" transform="translate(166.992188 0)"/>
     <use xlink:href="#DejaVuSans-Bold-68" transform="translate(238.183594 0)"/>
     <use xlink:href="#DejaVuSans-Bold-61" transform="translate(309.375 0)"/>
     <use xlink:href="#DejaVuSans-Bold-74" transform="translate(376.855469 0)"/>
     <use xlink:href="#DejaVuSans-Bold-74" transform="translate(424.658203 0)"/>
     <use xlink:href="#DejaVuSans-Bold-61" transform="translate(472.460938 0)"/>
     <use xlink:href="#DejaVuSans-Bold-6e" transform="translate(539.941406 0)"/>
    </g>
   </g>
   <g id="text_17">
    <g id="patch_12">
     <path d="M 712.632462 645.789101 
L 757.290275 645.789101 
Q 760.290275 645.789101 760.290275 642.789101 
L 760.290275 633.032851 
Q 760.290275 630.032851 757.290275 630.032851 
L 712.632462 630.032851 
Q 709.632462 630.032851 709.632462 633.032851 
L 709.632462 642.789101 
Q 709.632462 645.789101 712.632462 645.789101 
z
" style="fill: #cd7f32; opacity: 0.3"/>
    </g>
    <!-- Negroni -->
    <g style="fill: #f5f5dc" transform="translate(712.632462 640.631289) scale(0.1 -0.1)">
     <defs>
      <path id="DejaVuSans-Bold-4e" d="M 588 4666 
L 1931 4666 
L 3628 1466 
L 3628 4666 
L 4769 4666 
L 4769 0 
L 3425 0 
L 1728 3200 
L 1728 0 
L 588 0 
L 588 4666 
z
" transform="scale(0.015625)"/>
      <path id="DejaVuSans-Bold-65" d="M 4031 1759 
L 4031 1441 
L 1416 1441 
Q 1456 1047 1700 850 
Q 1944 653 2381 653 
Q 2734 653 3104 758 
Q 3475 863 3866 1075 
L 3866 213 
Q 3469 63 3072 -14 
Q 2675 -91 2278 -91 
Q 1328 -91 801 392 
Q 275 875 275 1747 
Q 275 2603 792 3093 
Q 1309 3584 2216 3584 
Q 3041 3584 3536 3087 
Q 4031 2591 4031 1759 
z
M 2881 2131 
Q 2881 2450 2695 2645 
Q 2509 2841 2209 2841 
Q 1884 2841 1681 2658 
Q 1478 2475 1428 2131 
L 2881 2131 
z
" transform="scale(0.015625)"/>
      <path id="DejaVuSans-Bold-67" d="M 2919 594 
Q 2688 288 2409 144 
Q 2131 0 1766 0 
Q 1125 0 706 504 
Q 288 1009 288 1791 
Q 288 2575 706 3076 
Q 1125 3578 1766 3578 
Q 2131 3578 2409 3434 
Q 2688 3291 2919 2981 
L 2919 3500 
L 4044 3500 
L 4044 353 
Q 4044 -491 3511 -936 
Q 2978 -1381 1966 -1381 
Q 1638 -1381 1331 -1331 
Q 1025 -1281 716 -1178 
L 716 -306 
Q 1009 -475 1290 -558 
Q 1572 -641 1856 -641 
Q 2406 -641 2662 -400 
Q 2919 -159 2919 353 
L 2919 594 
z
M 2181 2772 
Q 1834 2772 1640 2515 
Q 1447 2259 1447 1791 
Q 1447 1309 1634 1061 
Q 1822 813 2181 813 
Q 2531 813 2725 1069 
Q 2919 1325 2919 1791 
Q 2919 2259 2725 2515 
Q 2531 2772 2181 2772 
z
" transform="scale(0.015625)"/>
      <path id="DejaVuSans-Bold-6f" d="M 2203 2784 
Q 1831 2784 1636 2517 
Q 1441 2250 1441 1747 
Q 1441 1244 1636 976 
Q 1831 709 2203 709 
Q 2569 709 2762 976 
Q 2956 1244 2956 1747 
Q 2956 2250 2762 2517 
Q 2569 2784 2203 2784 
z
M 2203 3584 
Q 3106 3584 3614 3096 
Q 4122 2609 4122 1747 
Q 4122 884 3614 396 
Q 3106 -91 2203 -91 
Q 1297 -91 786 396 
Q 275 884 275 1747 
Q 275 2609 786 3096 
Q 1297 3584 2203 3584 
z
" transform="scale(0.015625)"/>
     </defs>
     <use xlink:href="#DejaVuSans-Bold-4e"/>
     <use xlink:href="#DejaVuSans-Bold-65" transform="translate(83.691406 0)"/>
     <use xlink:href="#DejaVuSans-Bold-67" transform="translate(151.513672 0)"/>
     <use xlink:href="#DejaVuSans-Bold-72" transform="translate(223.095703 0)"/>
     <use xlink:href="#DejaVuSans-Bold-6f" transform="translate(272.412109 0)"/>
     <use xlink:href="#DejaVuSans-Bold-6e" transform="translate(341.113281 0)"/>
     <use xlink:href="#DejaVuSans-Bold-69" transform="translate(412.304688 0)"/>
    </g>
   </g>
   <g id="text_18">
    <g id="patch_13">
     <path d="M 198.526196 163.163527 
L 243.068384 163.163527 
Q 246.068384 163.163527 246.068384 160.163527 
L 246.068384 150.485402 
Q 246.068384 147.485402 243.068384 147.485402 
L 198.526196 147.485402 
Q 195.526196 147.485402 195.526196 150.485402 
L 195.526196 160.163527 
Q 195.526196 163.163527 198.526196 163.163527 
z
" style="fill: #c0c0c0; opacity: 0.3"/>
    </g>
    <!-- Daiquiri -->
    <g style="fill: #f5f5dc" transform="translate(198.526196 158.08384) scale(0.1 -0.1)">
     <defs>
      <path id="DejaVuSans-Bold-44" d="M 1791 3756 
L 1791 909 
L 2222 909 
Q 2959 909 3348 1275 
Q 3738 1641 3738 2338 
Q 3738 3031 3350 3393 
Q 2963 3756 2222 3756 
L 1791 3756 
z
M 588 4666 
L 1856 4666 
Q 2919 4666 3439 4514 
Q 3959 4363 4331 4000 
Q 4659 3684 4818 3271 
Q 4978 2859 4978 2338 
Q 4978 1809 4818 1395 
Q 4659 981 4331 666 
Q 3956 303 3431 151 
Q 2906 0 1856 0 
L 588 0 
L 588 4666 
z
" transform="scale(0.015625)"/>
      <path id="DejaVuSans-Bold-71" d="M 2181 2772 
Q 1825 2772 1636 2509 
Q 1447 2247 1447 1747 
Q 1447 1247 1636 984 
Q 1825 722 2181 722 
Q 2541 722 2730 984 
Q 2919 1247 2919 1747 
Q 2919 2247 2730 2509 
Q 2541 2772 2181 2772 
z
M 2919 506 
Q 2688 197 2409 53 
Q 2131 -91 1766 -91 
Q 1119 -91 703 423 
Q 288 938 288 1747 
Q 288 2556 703 3067 
Q 1119 3578 1766 3578 
Q 2131 3578 2409 3434 
Q 2688 3291 2919 2981 
L 2919 3500 
L 4044 3500 
L 4044 -1331 
L 2919 -1331 
L 2919 506 
z
" transform="scale(0.015625)"/>
      <path id="DejaVuSans-Bold-75" d="M 500 1363 
L 500 3500 
L 1625 3500 
L 1625 3150 
Q 1625 2866 1622 2436 
Q 1619 2006 1619 1863 
Q 1619 1441 1641 1255 
Q 1663 1069 1716 984 
Q 1784 875 1895 815 
Q 2006 756 2150 756 
Q 2500 756 2700 1025 
Q 2900 1294 2900 1772 
L 2900 3500 
L 4019 3500 
L 4019 0 
L 2900 0 
L 2900 506 
Q 2647 200 2364 54 
Q 2081 -91 1741 -91 
Q 1134 -91 817 281 
Q 500 653 500 1363 
z
" transform="scale(0.015625)"/>
     </defs>
     <use xlink:href="#DejaVuSans-Bold-44"/>
     <use xlink:href="#DejaVuSans-Bold-61" transform="translate(83.007812 0)"/>
     <use xlink:href="#DejaVuSans-Bold-69" transform="translate(150.488281 0)"/>
     <use xlink:href="#DejaVuSans-Bold-71" transform="translate(184.765625 0)"/>
     <use xlink:href="#DejaVuSans-Bold-75" transform="translate(256.347656 0)"/>
     <use xlink:href="#DejaVuSans-Bold-69" transform="translate(327.539062 0)"/>
     <use xlink:href="#DejaVuSans-Bold-72" transform="translate(361.816406 0)"/>
     <use xlink:href="#DejaVuSans-Bold-69" transform="translate(411.132812 0)"/>
    </g>
   </g>
   <g id="text_19">
    <g id="patch_14">
     <path d="M 734.955795 529.456631 
L 814.944858 529.456631 
Q 817.944858 529.456631 817.944858 526.456631 
L 817.944858 516.778506 
Q 817.944858 513.778506 814.944858 513.778506 
L 734.955795 513.778506 
Q 731.955795 513.778506 731.955795 516.778506 
L 731.955795 526.456631 
Q 731.955795 529.456631 734.955795 529.456631 
z
" style="fill: #cd7f32; opacity: 0.3"/>
    </g>
    <!-- Old Fashioned -->
    <g style="fill: #f5f5dc" transform="translate(734.955795 524.376943) scale(0.1 -0.1)">
     <defs>
      <path id="DejaVuSans-Bold-4f" d="M 2719 3878 
Q 2169 3878 1866 3472 
Q 1563 3066 1563 2328 
Q 1563 1594 1866 1187 
Q 2169 781 2719 781 
Q 3272 781 3575 1187 
Q 3878 1594 3878 2328 
Q 3878 3066 3575 3472 
Q 3272 3878 2719 3878 
z
M 2719 4750 
Q 3844 4750 4481 4106 
Q 5119 3463 5119 2328 
Q 5119 1197 4481 553 
Q 3844 -91 2719 -91 
Q 1597 -91 958 553 
Q 319 1197 319 2328 
Q 319 3463 958 4106 
Q 1597 4750 2719 4750 
z
" transform="scale(0.015625)"/>
      <path id="DejaVuSans-Bold-6c" d="M 538 4863 
L 1656 4863 
L 1656 0 
L 538 0 
L 538 4863 
z
" transform="scale(0.015625)"/>
      <path id="DejaVuSans-Bold-64" d="M 2919 2988 
L 2919 4863 
L 4044 4863 
L 4044 0 
L 2919 0 
L 2919 506 
Q 2688 197 2409 53 
Q 2131 -91 1766 -91 
Q 1119 -91 703 423 
Q 288 938 288 1747 
Q 288 2556 703 3070 
Q 1119 3584 1766 3584 
Q 2128 3584 2408 3439 
Q 2688 3294 2919 2988 
z
M 2181 722 
Q 2541 722 2730 984 
Q 2919 1247 2919 1747 
Q 2919 2247 2730 2509 
Q 2541 2772 2181 2772 
Q 1825 2772 1636 2509 
Q 1447 2247 1447 1747 
Q 1447 1247 1636 984 
Q 1825 722 2181 722 
z
" transform="scale(0.015625)"/>
      <path id="DejaVuSans-Bold-20" transform="scale(0.015625)"/>
      <path id="DejaVuSans-Bold-46" d="M 588 4666 
L 3834 4666 
L 3834 3756 
L 1791 3756 
L 1791 2888 
L 3713 2888 
L 3713 1978 
L 1791 1978 
L 1791 0 
L 588 0 
L 588 4666 
z
" transform="scale(0.015625)"/>
      <path id="DejaVuSans-Bold-73" d="M 3272 3391 
L 3272 2541 
Q 2913 2691 2578 2766 
Q 2244 2841 1947 2841 
Q 1628 2841 1473 2761 
Q 1319 2681 1319 2516 
Q 1319 2381 1436 2309 
Q 1553 2238 1856 2203 
L 2053 2175 
Q 2913 2066 3209 1816 
Q 3506 1566 3506 1031 
Q 3506 472 3093 190 
Q 2681 -91 1863 -91 
Q 1516 -91 1145 -36 
Q 775 19 384 128 
L 384 978 
Q 719 816 1070 734 
Q 1422 653 1784 653 
Q 2113 653 2278 743 
Q 2444 834 2444 1013 
Q 2444 1163 2330 1236 
Q 2216 1309 1875 1350 
L 1678 1375 
Q 931 1469 631 1722 
Q 331 1975 331 2491 
Q 331 3047 712 3315 
Q 1094 3584 1881 3584 
Q 2191 3584 2531 3537 
Q 2872 3491 3272 3391 
z
" transform="scale(0.015625)"/>
     </defs>
     <use xlink:href="#DejaVuSans-Bold-4f"/>
     <use xlink:href="#DejaVuSans-Bold-6c" transform="translate(85.009766 0)"/>
     <use xlink:href="#DejaVuSans-Bold-64" transform="translate(119.287109 0)"/>
     <use xlink:href="#DejaVuSans-Bold-20" transform="translate(190.869141 0)"/>
     <use xlink:href="#DejaVuSans-Bold-46" transform="translate(225.683594 0)"/>
     <use xlink:href="#DejaVuSans-Bold-61" transform="translate(288.119141 0)"/>
     <use xlink:href="#DejaVuSans-Bold-73" transform="translate(355.599609 0)"/>
     <use xlink:href="#DejaVuSans-Bold-68" transform="translate(415.121094 0)"/>
     <use xlink:href="#DejaVuSans-Bold-69" transform="translate(486.3125 0)"/>
     <use xlink:href="#DejaVuSans-Bold-6f" transform="translate(520.589844 0)"/>
     <use xlink:href="#DejaVuSans-Bold-6e" transform="translate(589.291016 0)"/>
     <use xlink:href="#DejaVuSans-Bold-65" transform="translate(660.482422 0)"/>
     <use xlink:href="#DejaVuSans-Bold-64" transform="translate(728.304688 0)"/>
    </g>
   </g>
   <g id="text_20">
    <g id="patch_15">
     <path d="M 268.530676 129.105601 
L 323.955676 129.105601 
Q 326.955676 129.105601 326.955676 126.105601 
L 326.955676 116.349351 
Q 326.955676 113.349351 323.955676 113.349351 
L 268.530676 113.349351 
Q 265.530676 113.349351 265.530676 116.349351 
L 265.530676 126.105601 
Q 265.530676 129.105601 268.530676 129.105601 
z
" style="fill: #c0c0c0; opacity: 0.3"/>
    </g>
    <!-- Margarita -->
    <g style="fill: #f5f5dc" transform="translate(268.530676 123.947788) scale(0.1 -0.1)">
     <use xlink:href="#DejaVuSans-Bold-4d"/>
     <use xlink:href="#DejaVuSans-Bold-61" transform="translate(99.511719 0)"/>
     <use xlink:href="#DejaVuSans-Bold-72" transform="translate(166.992188 0)"/>
     <use xlink:href="#DejaVuSans-Bold-67" transform="translate(216.308594 0)"/>
     <use xlink:href="#DejaVuSans-Bold-61" transform="translate(287.890625 0)"/>
     <use xlink:href="#DejaVuSans-Bold-72" transform="translate(355.371094 0)"/>
     <use xlink:href="#DejaVuSans-Bold-69" transform="translate(404.6875 0)"/>
     <use xlink:href="#DejaVuSans-Bold-74" transform="translate(438.964844 0)"/>
     <use xlink:href="#DejaVuSans-Bold-61" transform="translate(486.767578 0)"/>
    </g>
   </g>
   <g id="text_21">
    <g id="patch_16">
     <path d="M 760.150824 623.655445 
L 795.478949 623.655445 
Q 798.478949 623.655445 798.478949 620.655445 
L 798.478949 610.899195 
Q 798.478949 607.899195 795.478949 607.899195 
L 760.150824 607.899195 
Q 757.150824 607.899195 757.150824 610.899195 
L 757.150824 620.655445 
Q 757.150824 623.655445 760.150824 623.655445 
z
" style="fill: #cd7f32; opacity: 0.3"/>
    </g>
    <!-- Mojito -->
    <g style="fill: #f5f5dc" transform="translate(760.150824 618.497632) scale(0.1 -0.1)">
     <defs>
      <path id="DejaVuSans-Bold-6a" d="M 538 3500 
L 1656 3500 
L 1656 63 
Q 1656 -641 1318 -1011 
Q 981 -1381 341 -1381 
L -213 -1381 
L -213 -647 
L -19 -647 
Q 300 -647 419 -503 
Q 538 -359 538 63 
L 538 3500 
z
M 538 4863 
L 1656 4863 
L 1656 3950 
L 538 3950 
L 538 4863 
z
" transform="scale(0.015625)"/>
     </defs>
     <use xlink:href="#DejaVuSans-Bold-4d"/>
     <use xlink:href="#DejaVuSans-Bold-6f" transform="translate(99.511719 0)"/>
     <use xlink:href="#DejaVuSans-Bold-6a" transform="translate(168.212891 0)"/>
     <use xlink:href="#DejaVuSans-Bold-69" transform="translate(202.490234 0)"/>
     <use xlink:href="#DejaVuSans-Bold-74" transform="translate(236.767578 0)"/>
     <use xlink:href="#DejaVuSans-Bold-6f" transform="translate(284.570312 0)"/>
    </g>
   </g>
   <g id="text_22">
    <g id="patch_17">
     <path d="M 185.804749 249.82674 
L 258.125062 249.82674 
Q 261.125062 249.82674 261.125062 246.82674 
L 261.125062 237.148615 
Q 261.125062 234.148615 258.125062 234.148615 
L 185.804749 234.148615 
Q 182.804749 234.148615 182.804749 237.148615 
L 182.804749 246.82674 
Q 182.804749 249.82674 185.804749 249.82674 
z
" style="fill: #c0c0c0; opacity: 0.3"/>
    </g>
    <!-- Boulevardier -->
    <g style="fill: #f5f5dc" transform="translate(185.804749 244.747052) scale(0.1 -0.1)">
     <defs>
      <path id="DejaVuSans-Bold-42" d="M 2456 2859 
Q 2741 2859 2887 2984 
Q 3034 3109 3034 3353 
Q 3034 3594 2887 3720 
Q 2741 3847 2456 3847 
L 1791 3847 
L 1791 2859 
L 2456 2859 
z
M 2497 819 
Q 2859 819 3042 972 
Q 3225 1125 3225 1434 
Q 3225 1738 3044 1889 
Q 2863 2041 2497 2041 
L 1791 2041 
L 1791 819 
L 2497 819 
z
M 3616 2497 
Q 4003 2384 4215 2081 
Q 4428 1778 4428 1338 
Q 4428 663 3972 331 
Q 3516 0 2584 0 
L 588 0 
L 588 4666 
L 2394 4666 
Q 3366 4666 3802 4372 
Q 4238 4078 4238 3431 
Q 4238 3091 4078 2852 
Q 3919 2613 3616 2497 
z
" transform="scale(0.015625)"/>
      <path id="DejaVuSans-Bold-76" d="M 97 3500 
L 1216 3500 
L 2088 1081 
L 2956 3500 
L 4078 3500 
L 2700 0 
L 1472 0 
L 97 3500 
z
" transform="scale(0.015625)"/>
     </defs>
     <use xlink:href="#DejaVuSans-Bold-42"/>
     <use xlink:href="#DejaVuSans-Bold-6f" transform="translate(76.220703 0)"/>
     <use xlink:href="#DejaVuSans-Bold-75" transform="translate(144.921875 0)"/>
     <use xlink:href="#DejaVuSans-Bold-6c" transform="translate(216.113281 0)"/>
     <use xlink:href="#DejaVuSans-Bold-65" transform="translate(250.390625 0)"/>
     <use xlink:href="#DejaVuSans-Bold-76" transform="translate(318.212891 0)"/>
     <use xlink:href="#DejaVuSans-Bold-61" transform="translate(383.398438 0)"/>
     <use xlink:href="#DejaVuSans-Bold-72" transform="translate(450.878906 0)"/>
     <use xlink:href="#DejaVuSans-Bold-64" transform="translate(500.195312 0)"/>
     <use xlink:href="#DejaVuSans-Bold-69" transform="translate(571.777344 0)"/>
     <use xlink:href="#DejaVuSans-Bold-65" transform="translate(606.054688 0)"/>
     <use xlink:href="#DejaVuSans-Bold-72" transform="translate(673.876953 0)"/>
    </g>
   </g>
   <g id="text_23">
    <g id="patch_18">
     <path d="M 106.094324 156.148045 
L 163.053699 156.148045 
Q 166.053699 156.148045 166.053699 153.148045 
L 166.053699 143.46992 
Q 166.053699 140.46992 163.053699 140.46992 
L 106.094324 140.46992 
Q 103.094324 140.46992 103.094324 143.46992 
L 103.094324 153.148045 
Q 103.094324 156.148045 106.094324 156.148045 
z
" style="fill: #c0c0c0; opacity: 0.3"/>
    </g>
    <!-- Last Word -->
    <g style="fill: #f5f5dc" transform="translate(106.094324 151.068358) scale(0.1 -0.1)">
     <defs>
      <path id="DejaVuSans-Bold-4c" d="M 588 4666 
L 1791 4666 
L 1791 909 
L 3903 909 
L 3903 0 
L 588 0 
L 588 4666 
z
" transform="scale(0.015625)"/>
      <path id="DejaVuSans-Bold-57" d="M 191 4666 
L 1344 4666 
L 2150 1275 
L 2950 4666 
L 4109 4666 
L 4909 1275 
L 5716 4666 
L 6859 4666 
L 5759 0 
L 4372 0 
L 3525 3547 
L 2688 0 
L 1300 0 
L 191 4666 
z
" transform="scale(0.015625)"/>
     </defs>
     <use xlink:href="#DejaVuSans-Bold-4c"/>
     <use xlink:href="#DejaVuSans-Bold-61" transform="translate(63.720703 0)"/>
     <use xlink:href="#DejaVuSans-Bold-73" transform="translate(131.201172 0)"/>
     <use xlink:href="#DejaVuSans-Bold-74" transform="translate(190.722656 0)"/>
     <use xlink:href="#DejaVuSans-Bold-20" transform="translate(238.525391 0)"/>
     <use xlink:href="#DejaVuSans-Bold-57" transform="translate(273.339844 0)"/>
     <use xlink:href="#DejaVuSans-Bold-6f" transform="translate(380.017578 0)"/>
     <use xlink:href="#DejaVuSans-Bold-72" transform="translate(448.71875 0)"/>
     <use xlink:href="#DejaVuSans-Bold-64" transform="translate(498.035156 0)"/>
    </g>
   </g>
   <g id="text_24">
    <g id="patch_19">
     <path d="M 212.019924 82.466758 
L 258.288674 82.466758 
Q 261.288674 82.466758 261.288674 79.466758 
L 261.288674 69.788633 
Q 261.288674 66.788633 258.288674 66.788633 
L 212.019924 66.788633 
Q 209.019924 66.788633 209.019924 69.788633 
L 209.019924 79.466758 
Q 209.019924 82.466758 212.019924 82.466758 
z
" style="fill: #c0c0c0; opacity: 0.3"/>
    </g>
    <!-- Aviation -->
    <g style="fill: #f5f5dc" transform="translate(212.019924 77.38707) scale(0.1 -0.1)">
     <defs>
      <path id="DejaVuSans-Bold-41" d="M 3419 850 
L 1538 850 
L 1241 0 
L 31 0 
L 1759 4666 
L 3194 4666 
L 4922 0 
L 3713 0 
L 3419 850 
z
M 1838 1716 
L 3116 1716 
L 2478 3572 
L 1838 1716 
z
" transform="scale(0.015625)"/>
     </defs>
     <use xlink:href="#DejaVuSans-Bold-41"/>
     <use xlink:href="#DejaVuSans-Bold-76" transform="translate(73.767578 0)"/>
     <use xlink:href="#DejaVuSans-Bold-69" transform="translate(138.953125 0)"/>
     <use xlink:href="#DejaVuSans-Bold-61" transform="translate(173.230469 0)"/>
     <use xlink:href="#DejaVuSans-Bold-74" transform="translate(240.710938 0)"/>
     <use xlink:href="#DejaVuSans-Bold-69" transform="translate(288.513672 0)"/>
     <use xlink:href="#DejaVuSans-Bold-6f" transform="translate(322.791016 0)"/>
     <use xlink:href="#DejaVuSans-Bold-6e" transform="translate(391.492188 0)"/>
    </g>
   </g>
   <g id="text_25">
    <g id="patch_20">
     <path d="M 266.79299 158.783658 
L 343.613303 158.783658 
Q 346.613303 158.783658 346.613303 155.783658 
L 346.613303 146.027408 
Q 346.613303 143.027408 343.613303 143.027408 
L 266.79299 143.027408 
Q 263.79299 143.027408 263.79299 146.027408 
L 263.79299 155.783658 
Q 263.79299 158.783658 266.79299 158.783658 
z
" style="fill: #c0c0c0; opacity: 0.3"/>
    </g>
    <!-- Whiskey Sour -->
    <g style="fill: #f5f5dc" transform="translate(266.79299 153.625845) scale(0.1 -0.1)">
     <defs>
      <path id="DejaVuSans-Bold-6b" d="M 538 4863 
L 1656 4863 
L 1656 2216 
L 2944 3500 
L 4244 3500 
L 2534 1894 
L 4378 0 
L 3022 0 
L 1656 1459 
L 1656 0 
L 538 0 
L 538 4863 
z
" transform="scale(0.015625)"/>
      <path id="DejaVuSans-Bold-79" d="M 78 3500 
L 1197 3500 
L 2138 1125 
L 2938 3500 
L 4056 3500 
L 2584 -331 
Q 2363 -916 2067 -1148 
Q 1772 -1381 1288 -1381 
L 641 -1381 
L 641 -647 
L 991 -647 
Q 1275 -647 1404 -556 
Q 1534 -466 1606 -231 
L 1638 -134 
L 78 3500 
z
" transform="scale(0.015625)"/>
      <path id="DejaVuSans-Bold-53" d="M 3834 4519 
L 3834 3531 
Q 3450 3703 3084 3790 
Q 2719 3878 2394 3878 
Q 1963 3878 1756 3759 
Q 1550 3641 1550 3391 
Q 1550 3203 1689 3098 
Q 1828 2994 2194 2919 
L 2706 2816 
Q 3484 2659 3812 2340 
Q 4141 2022 4141 1434 
Q 4141 663 3683 286 
Q 3225 -91 2284 -91 
Q 1841 -91 1394 -6 
Q 947 78 500 244 
L 500 1259 
Q 947 1022 1364 901 
Q 1781 781 2169 781 
Q 2563 781 2772 912 
Q 2981 1044 2981 1288 
Q 2981 1506 2839 1625 
Q 2697 1744 2272 1838 
L 1806 1941 
Q 1106 2091 782 2419 
Q 459 2747 459 3303 
Q 459 4000 909 4375 
Q 1359 4750 2203 4750 
Q 2588 4750 2994 4692 
Q 3400 4634 3834 4519 
z
" transform="scale(0.015625)"/>
     </defs>
     <use xlink:href="#DejaVuSans-Bold-57"/>
     <use xlink:href="#DejaVuSans-Bold-68" transform="translate(110.302734 0)"/>
     <use xlink:href="#DejaVuSans-Bold-69" transform="translate(181.494141 0)"/>
     <use xlink:href="#DejaVuSans-Bold-73" transform="translate(215.771484 0)"/>
     <use xlink:href="#DejaVuSans-Bold-6b" transform="translate(275.292969 0)"/>
     <use xlink:href="#DejaVuSans-Bold-65" transform="translate(339.171875 0)"/>
     <use xlink:href="#DejaVuSans-Bold-79" transform="translate(406.994141 0)"/>
     <use xlink:href="#DejaVuSans-Bold-20" transform="translate(472.179688 0)"/>
     <use xlink:href="#DejaVuSans-Bold-53" transform="translate(506.994141 0)"/>
     <use xlink:href="#DejaVuSans-Bold-6f" transform="translate(579.015625 0)"/>
     <use xlink:href="#DejaVuSans-Bold-75" transform="translate(647.716797 0)"/>
     <use xlink:href="#DejaVuSans-Bold-72" transform="translate(718.908203 0)"/>
    </g>
   </g>
   <g id="text_26">
    <g id="patch_21">
     <path d="M 194.545141 101.325408 
L 231.592016 101.325408 
Q 234.592016 101.325408 234.592016 98.325408 
L 234.592016 88.647283 
Q 234.592016 85.647283 231.592016 85.647283 
L 194.545141 85.647283 
Q 191.545141 85.647283 191.545141 88.647283 
L 191.545141 98.325408 
Q 191.545141 101.325408 194.545141 101.325408 
z
" style="fill: #c0c0c0; opacity: 0.3"/>
    </g>
    <!-- Gimlet -->
    <g style="fill: #f5f5dc" transform="translate(194.545141 96.245721) scale(0.1 -0.1)">
     <defs>
      <path id="DejaVuSans-Bold-47" d="M 4781 347 
Q 4331 128 3847 18 
Q 3363 -91 2847 -91 
Q 1681 -91 1000 561 
Q 319 1213 319 2328 
Q 319 3456 1012 4103 
Q 1706 4750 2913 4750 
Q 3378 4750 3804 4662 
Q 4231 4575 4609 4403 
L 4609 3438 
Q 4219 3659 3833 3768 
Q 3447 3878 3059 3878 
Q 2341 3878 1952 3476 
Q 1563 3075 1563 2328 
Q 1563 1588 1938 1184 
Q 2313 781 3003 781 
Q 3191 781 3352 804 
Q 3513 828 3641 878 
L 3641 1784 
L 2906 1784 
L 2906 2591 
L 4781 2591 
L 4781 347 
z
" transform="scale(0.015625)"/>
      <path id="DejaVuSans-Bold-6d" d="M 3781 2919 
Q 3994 3244 4286 3414 
Q 4578 3584 4928 3584 
Q 5531 3584 5847 3212 
Q 6163 2841 6163 2131 
L 6163 0 
L 5038 0 
L 5038 1825 
Q 5041 1866 5042 1909 
Q 5044 1953 5044 2034 
Q 5044 2406 4934 2573 
Q 4825 2741 4581 2741 
Q 4263 2741 4089 2478 
Q 3916 2216 3909 1719 
L 3909 0 
L 2784 0 
L 2784 1825 
Q 2784 2406 2684 2573 
Q 2584 2741 2328 2741 
Q 2006 2741 1831 2477 
Q 1656 2213 1656 1722 
L 1656 0 
L 531 0 
L 531 3500 
L 1656 3500 
L 1656 2988 
Q 1863 3284 2130 3434 
Q 2397 3584 2719 3584 
Q 3081 3584 3359 3409 
Q 3638 3234 3781 2919 
z
" transform="scale(0.015625)"/>
     </defs>
     <use xlink:href="#DejaVuSans-Bold-47"/>
     <use xlink:href="#DejaVuSans-Bold-69" transform="translate(82.080078 0)"/>
     <use xlink:href="#DejaVuSans-Bold-6d" transform="translate(116.357422 0)"/>
     <use xlink:href="#DejaVuSans-Bold-6c" transform="translate(220.556641 0)"/>
     <use xlink:href="#DejaVuSans-Bold-65" transform="translate(254.833984 0)"/>
     <use xlink:href="#DejaVuSans-Bold-74" transform="translate(322.65625 0)"/>
    </g>
   </g>
   <g id="text_27">
    <g id="patch_22">
     <path d="M 725.414057 647.476024 
L 799.123432 647.476024 
Q 802.123432 647.476024 802.123432 644.476024 
L 802.123432 634.797899 
Q 802.123432 631.797899 799.123432 631.797899 
L 725.414057 631.797899 
Q 722.414057 631.797899 722.414057 634.797899 
L 722.414057 644.476024 
Q 722.414057 647.476024 725.414057 647.476024 
z
" style="fill: #cd7f32; opacity: 0.3"/>
    </g>
    <!-- Aperol Spritz -->
    <g style="fill: #f5f5dc" transform="translate(725.414057 642.396336) scale(0.1 -0.1)">
     <defs>
      <path id="DejaVuSans-Bold-70" d="M 1656 506 
L 1656 -1331 
L 538 -1331 
L 538 3500 
L 1656 3500 
L 1656 2988 
Q 1888 3294 2169 3439 
Q 2450 3584 2816 3584 
Q 3463 3584 3878 3070 
Q 4294 2556 4294 1747 
Q 4294 938 3878 423 
Q 3463 -91 2816 -91 
Q 2450 -91 2169 54 
Q 1888 200 1656 506 
z
M 2400 2772 
Q 2041 2772 1848 2508 
Q 1656 2244 1656 1747 
Q 1656 1250 1848 986 
Q 2041 722 2400 722 
Q 2759 722 2948 984 
Q 3138 1247 3138 1747 
Q 3138 2247 2948 2509 
Q 2759 2772 2400 2772 
z
" transform="scale(0.015625)"/>
      <path id="DejaVuSans-Bold-7a" d="M 366 3500 
L 3419 3500 
L 3419 2719 
L 1575 800 
L 3419 800 
L 3419 0 
L 288 0 
L 288 781 
L 2131 2700 
L 366 2700 
L 366 3500 
z
" transform="scale(0.015625)"/>
     </defs>
     <use xlink:href="#DejaVuSans-Bold-41"/>
     <use xlink:href="#DejaVuSans-Bold-70" transform="translate(77.392578 0)"/>
     <use xlink:href="#DejaVuSans-Bold-65" transform="translate(148.974609 0)"/>
     <use xlink:href="#DejaVuSans-Bold-72" transform="translate(216.796875 0)"/>
     <use xlink:href="#DejaVuSans-Bold-6f" transform="translate(266.113281 0)"/>
     <use xlink:href="#DejaVuSans-Bold-6c" transform="translate(334.814453 0)"/>
     <use xlink:href="#DejaVuSans-Bold-20" transform="translate(369.091797 0)"/>
     <use xlink:href="#DejaVuSans-Bold-53" transform="translate(403.90625 0)"/>
     <use xlink:href="#DejaVuSans-Bold-70" transform="translate(475.927734 0)"/>
     <use xlink:href="#DejaVuSans-Bold-72" transform="translate(547.509766 0)"/>
     <use xlink:href="#DejaVuSans-Bold-69" transform="translate(596.826172 0)"/>
     <use xlink:href="#DejaVuSans-Bold-74" transform="translate(631.103516 0)"/>
     <use xlink:href="#DejaVuSans-Bold-7a" transform="translate(678.90625 0)"/>
    </g>
   </g>
   <g id="text_28">
    <!-- Balanced Mix (50% Structure) -->
    <g style="fill: #d4af37" transform="translate(316.0325 23.04) scale(0.16 -0.16)">
     <defs>
      <path id="DejaVuSans-Bold-63" d="M 3366 3391 
L 3366 2478 
Q 3138 2634 2908 2709 
Q 2678 2784 2431 2784 
Q 1963 2784 1702 2511 
Q 1441 2238 1441 1747 
Q 1441 1256 1702 982 
Q 1963 709 2431 709 
Q 2694 709 2930 787 
Q 3166 866 3366 1019 
L 3366 103 
Q 3103 6 2833 -42 
Q 2563 -91 2291 -91 
Q 1344 -91 809 395 
Q 275 881 275 1747 
Q 275 2613 809 3098 
Q 1344 3584 2291 3584 
Q 2566 3584 2833 3536 
Q 3100 3488 3366 3391 
z
" transform="scale(0.015625)"/>
      <path id="DejaVuSans-Bold-78" d="M 1422 1791 
L 159 3500 
L 1344 3500 
L 2059 2463 
L 2784 3500 
L 3969 3500 
L 2706 1797 
L 4031 0 
L 2847 0 
L 2059 1106 
L 1281 0 
L 97 0 
L 1422 1791 
z
" transform="scale(0.015625)"/>
      <path id="DejaVuSans-Bold-28" d="M 2413 -844 
L 1484 -844 
Q 1006 -72 778 623 
Q 550 1319 550 2003 
Q 550 2688 779 3389 
Q 1009 4091 1484 4856 
L 2413 4856 
Q 2013 4116 1813 3408 
Q 1613 2700 1613 2009 
Q 1613 1319 1811 609 
Q 2009 -100 2413 -844 
z
" transform="scale(0.015625)"/>
      <path id="DejaVuSans-Bold-35" d="M 678 4666 
L 3669 4666 
L 3669 3781 
L 1638 3781 
L 1638 3059 
Q 1775 3097 1914 3117 
Q 2053 3138 2203 3138 
Q 3056 3138 3531 2711 
Q 4006 2284 4006 1522 
Q 4006 766 3489 337 
Q 2972 -91 2053 -91 
Q 1656 -91 1267 -14 
Q 878 63 494 219 
L 494 1166 
Q 875 947 1217 837 
Q 1559 728 1863 728 
Q 2300 728 2551 942 
Q 2803 1156 2803 1522 
Q 2803 1891 2551 2103 
Q 2300 2316 1863 2316 
Q 1603 2316 1309 2248 
Q 1016 2181 678 2041 
L 678 4666 
z
" transform="scale(0.015625)"/>
      <path id="DejaVuSans-Bold-30" d="M 2944 2338 
Q 2944 3213 2780 3570 
Q 2616 3928 2228 3928 
Q 1841 3928 1675 3570 
Q 1509 3213 1509 2338 
Q 1509 1453 1675 1090 
Q 1841 728 2228 728 
Q 2613 728 2778 1090 
Q 2944 1453 2944 2338 
z
M 4147 2328 
Q 4147 1169 3647 539 
Q 3147 -91 2228 -91 
Q 1306 -91 806 539 
Q 306 1169 306 2328 
Q 306 3491 806 4120 
Q 1306 4750 2228 4750 
Q 3147 4750 3647 4120 
Q 4147 3491 4147 2328 
z
" transform="scale(0.015625)"/>
      <path id="DejaVuSans-Bold-25" d="M 4959 1925 
Q 4738 1925 4616 1733 
Q 4494 1541 4494 1184 
Q 4494 825 4614 633 
Q 4734 441 4959 441 
Q 5184 441 5303 633 
Q 5422 825 5422 1184 
Q 5422 1541 5301 1733 
Q 5181 1925 4959 1925 
z
M 4959 2450 
Q 5541 2450 5875 2112 
Q 6209 1775 6209 1184 
Q 6209 594 5875 251 
Q 5541 -91 4959 -91 
Q 4378 -91 4042 251 
Q 3706 594 3706 1184 
Q 3706 1772 4042 2111 
Q 4378 2450 4959 2450 
z
M 2094 -91 
L 1403 -91 
L 4319 4750 
L 5013 4750 
L 2094 -91 
z
M 1453 4750 
Q 2034 4750 2367 4411 
Q 2700 4072 2700 3481 
Q 2700 2891 2367 2550 
Q 2034 2209 1453 2209 
Q 872 2209 539 2550 
Q 206 2891 206 3481 
Q 206 4072 539 4411 
Q 872 4750 1453 4750 
z
M 1453 4225 
Q 1228 4225 1106 4031 
Q 984 3838 984 3481 
Q 984 3122 1106 2926 
Q 1228 2731 1453 2731 
Q 1678 2731 1798 2926 
Q 1919 3122 1919 3481 
Q 1919 3838 1797 4031 
Q 1675 4225 1453 4225 
z
" transform="scale(0.015625)"/>
      <path id="DejaVuSans-Bold-29" d="M 513 -844 
Q 913 -100 1113 609 
Q 1313 1319 1313 2009 
Q 1313 2700 1113 3408 
Q 913 4116 513 4856 
L 1441 4856 
Q 1916 4091 2145 3389 
Q 2375 2688 2375 2003 
Q 2375 1319 2147 623 
Q 1919 -72 1441 -844 
L 513 -844 
z
" transform="scale(0.015625)"/>
     </defs>
     <use xlink:href="#DejaVuSans-Bold-42"/>
     <use xlink:href="#DejaVuSans-Bold-61" transform="translate(76.220703 0)"/>
     <use xlink:href="#DejaVuSans-Bold-6c" transform="translate(143.701172 0)"/>
     <use xlink:href="#DejaVuSans-Bold-61" transform="translate(177.978516 0)"/>
     <use xlink:href="#DejaVuSans-Bold-6e" transform="translate(245.458984 0)"/>
     <use xlink:href="#DejaVuSans-Bold-63" transform="translate(316.650391 0)"/>
     <use xlink:href="#DejaVuSans-Bold-65" transform="translate(375.927734 0)"/>
     <use xlink:href="#DejaVuSans-Bold-64" transform="translate(443.75 0)"/>
     <use xlink:href="#DejaVuSans-Bold-20" transform="translate(515.332031 0)"/>
     <use xlink:href="#DejaVuSans-Bold-4d" transform="translate(550.146484 0)"/>
     <use xlink:href="#DejaVuSans-Bold-69" transform="translate(649.658203 0)"/>
     <use xlink:href="#DejaVuSans-Bold-78" transform="translate(683.935547 0)"/>
     <use xlink:href="#DejaVuSans-Bold-20" transform="translate(748.4375 0)"/>
     <use xlink:href="#DejaVuSans-Bold-28" transform="translate(783.251953 0)"/>
     <use xlink:href="#DejaVuSans-Bold-35" transform="translate(828.955078 0)"/>
     <use xlink:href="#DejaVuSans-Bold-30" transform="translate(898.535156 0)"/>
     <use xlink:href="#DejaVuSans-Bold-25" transform="translate(968.115234 0)"/>
     <use xlink:href="#DejaVuSans-Bold-20" transform="translate(1068.310547 0)"/>
     <use xlink:href="#DejaVuSans-Bold-53" transform="translate(1103.125 0)"/>
     <use xlink:href="#DejaVuSans-Bold-74" transform="translate(1175.146484 0)"/>
     <use xlink:href="#DejaVuSans-Bold-72" transform="translate(1222.949219 0)"/>
     <use xlink:href="#DejaVuSans-Bold-75" transform="translate(1272.265625 0)"/>
     <use xlink:href="#DejaVuSans-Bold-63" transform="translate(1343.457031 0)"/>
     <use xlink:href="#DejaVuSans-Bold-74" transform="translate(1402.734375 0)"/>
     <use xlink:href="#DejaVuSans-Bold-75" transform="translate(1450.537109 0)"/>
     <use xlink:href="#DejaVuSans-Bold-72" transform="translate(1521.728516 0)"/>
     <use xlink:href="#DejaVuSans-Bold-65" transform="translate(1571.044922 0)"/>
     <use xlink:href="#DejaVuSans-Bold-29" transform="translate(1638.867188 0)"/>
    </g>
   </g>
   <g id="legend_1">
    <g id="patch_23">
     <path d="M 769.167188 95.074375 
L 846.2 95.074375 
Q 848.2 95.074375 848.2 93.074375 
L 848.2 50.04 
Q 848.2 48.04 846.2 48.04 
L 769.167188 48.04 
Q 767.167188 48.04 767.167188 50.04 
L 767.167188 93.074375 
Q 767.167188 95.074375 769.167188 95.074375 
z
" style="fill: #2d2d30; opacity: 0.9; stroke: #4a4a3d; stroke-linejoin: miter"/>
    </g>
    <g id="PathCollection_4">
     <g>
      <use xlink:href="#m1e858fc3dc" x="781.167188" y="57.013438" style="fill: #50c878; fill-opacity: 0.7; stroke: #f5f5dc; stroke-opacity: 0.7; stroke-width: 0.5"/>
     </g>
    </g>
    <g id="text_29">
     <!-- Cluster 1 -->
     <g style="fill: #c5c5b0" transform="translate(799.167188 59.638438) scale(0.1 -0.1)">
      <defs>
       <path id="DejaVuSans-43" d="M 4122 4306 
L 4122 3641 
Q 3803 3938 3442 4084 
Q 3081 4231 2675 4231 
Q 1875 4231 1450 3742 
Q 1025 3253 1025 2328 
Q 1025 1406 1450 917 
Q 1875 428 2675 428 
Q 3081 428 3442 575 
Q 3803 722 4122 1019 
L 4122 359 
Q 3791 134 3420 21 
Q 3050 -91 2638 -91 
Q 1578 -91 968 557 
Q 359 1206 359 2328 
Q 359 3453 968 4101 
Q 1578 4750 2638 4750 
Q 3056 4750 3426 4639 
Q 3797 4528 4122 4306 
z
" transform="scale(0.015625)"/>
       <path id="DejaVuSans-6c" d="M 603 4863 
L 1178 4863 
L 1178 0 
L 603 0 
L 603 4863 
z
" transform="scale(0.015625)"/>
       <path id="DejaVuSans-75" d="M 544 1381 
L 544 3500 
L 1119 3500 
L 1119 1403 
Q 1119 906 1312 657 
Q 1506 409 1894 409 
Q 2359 409 2629 706 
Q 2900 1003 2900 1516 
L 2900 3500 
L 3475 3500 
L 3475 0 
L 2900 0 
L 2900 538 
Q 2691 219 2414 64 
Q 2138 -91 1772 -91 
Q 1169 -91 856 284 
Q 544 659 544 1381 
z
M 1991 3584 
L 1991 3584 
z
" transform="scale(0.015625)"/>
       <path id="DejaVuSans-74" d="M 1172 4494 
L 1172 3500 
L 2356 3500 
L 2356 3053 
L 1172 3053 
L 1172 1153 
Q 1172 725 1289 603 
Q 1406 481 1766 481 
L 2356 481 
L 2356 0 
L 1766 0 
Q 1100 0 847 248 
Q 594 497 594 1153 
L 594 3053 
L 172 3053 
L 172 3500 
L 594 3500 
L 594 4494 
L 1172 4494 
z
" transform="scale(0.015625)"/>
       <path id="DejaVuSans-72" d="M 2631 2963 
Q 2534 3019 2420 3045 
Q 2306 3072 2169 3072 
Q 1681 3072 1420 2755 
Q 1159 2438 1159 1844 
L 1159 0 
L 581 0 
L 581 3500 
L 1159 3500 
L 1159 2956 
Q 1341 3275 1631 3429 
Q 1922 3584 2338 3584 
Q 2397 3584 2469 3576 
Q 2541 3569 2628 3553 
L 2631 2963 
z
" transform="scale(0.015625)"/>
      </defs>
      <use xlink:href="#DejaVuSans-43"/>
      <use xlink:href="#DejaVuSans-6c" transform="translate(69.824219 0)"/>
      <use xlink:href="#DejaVuSans-75" transform="translate(97.607422 0)"/>
      <use xlink:href="#DejaVuSans-73" transform="translate(160.986328 0)"/>
      <use xlink:href="#DejaVuSans-74" transform="translate(213.085938 0)"/>
      <use xlink:href="#DejaVuSans-65" transform="translate(252.294922 0)"/>
      <use xlink:href="#DejaVuSans-72" transform="translate(313.818359 0)"/>
      <use xlink:href="#DejaVuSans-20" transform="translate(354.931641 0)"/>
      <use xlink:href="#DejaVuSans-31" transform="translate(386.71875 0)"/>
     </g>
    </g>
    <g id="PathCollection_5">
     <g>
      <use xlink:href="#m7228e58d65" x="781.167188" y="71.691563" style="fill: #cd7f32; fill-opacity: 0.7; stroke: #f5f5dc; stroke-opacity: 0.7; stroke-width: 0.5"/>
     </g>
    </g>
    <g id="text_30">
     <!-- Cluster 2 -->
     <g style="fill: #c5c5b0" transform="translate(799.167188 74.316563) scale(0.1 -0.1)">
      <use xlink:href="#DejaVuSans-43"/>
      <use xlink:href="#DejaVuSans-6c" transform="translate(69.824219 0)"/>
      <use xlink:href="#DejaVuSans-75" transform="translate(97.607422 0)"/>
      <use xlink:href="#DejaVuSans-73" transform="translate(160.986328 0)"/>
      <use xlink:href="#DejaVuSans-74" transform="translate(213.085938 0)"/>
      <use xlink:href="#DejaVuSans-65" transform="translate(252.294922 0)"/>
      <use xlink:href="#DejaVuSans-72" transform="translate(313.818359 0)"/>
      <use xlink:href="#DejaVuSans-20" transform="translate(354.931641 0)"/>
      <use xlink:href="#DejaVuSans-32" transform="translate(386.71875 0)"/>
     </g>
    </g>
    <g id="PathCollection_6">
     <g>
      <use xlink:href="#m443898051e" x="781.167188" y="86.369688" style="fill: #c0c0c0; fill-opacity: 0.7; stroke: #f5f5dc; stroke-opacity: 0.7; stroke-width: 0.5"/>
     </g>
    </g>
    <g id="text_31">
     <!-- Cluster 3 -->
     <g style="fill: #c5c5b0" transform="translate(799.167188 88.994688) scale(0.1 -0.1)">
      <defs>
       <path id="DejaVuSans-33" d="M 2597 2516 
Q 3050 2419 3304 2112 
Q 3559 1806 3559 1356 
Q 3559 666 3084 287 
Q 2609 -91 1734 -91 
Q 1441 -91 1130 -33 
Q 819 25 488 141 
L 488 750 
Q 750 597 1062 519 
Q 1375 441 1716 441 
Q 2309 441 2620 675 
Q 2931 909 2931 1356 
Q 2931 1769 2642 2001 
Q 2353 2234 1838 2234 
L 1294 2234 
L 1294 2753 
L 1863 2753 
Q 2328 2753 2575 2939 
Q 2822 3125 2822 3475 
Q 2822 3834 2567 4026 
Q 2313 4219 1838 4219 
Q 1578 4219 1281 4162 
Q 984 4106 628 3988 
L 628 4550 
Q 988 4650 1302 4700 
Q 1616 4750 1894 4750 
Q 2613 4750 3031 4423 
Q 3450 4097 3450 3541 
Q 3450 3153 3228 2886 
Q 3006 2619 2597 2516 
z
" transform="scale(0.015625)"/>
      </defs>
      <use xlink:href="#DejaVuSans-43"/>
      <use xlink:href="#DejaVuSans-6c" transform="translate(69.824219 0)"/>
      <use xlink:href="#DejaVuSans-75" transform="translate(97.607422 0)"/>
      <use xlink:href="#DejaVuSans-73" transform="translate(160.986328 0)"/>
      <use xlink:href="#DejaVuSans-74" transform="translate(213.085938 0)"/>
      <use xlink:href="#DejaVuSans-65" transform="translate(252.294922 0)"/>
      <use xlink:href="#DejaVuSans-72" transform="translate(313.818359 0)"/>
      <use xlink:href="#DejaVuSans-20" transform="translate(354.931641 0)"/>
      <use xlink:href="#DejaVuSans-33" transform="translate(386.71875 0)"/>
     </g>
    </g>
   </g>
  </g>
 </g>
 <defs>
  <clipPath id="p04b0539ea5">
   <rect x="48.395" y="43.04" width="804.805" height="633.2"/>
  </clipPath>
 </defs>
</svg>
