<?xml version="1.0" encoding="utf-8" standalone="no"?>
<!DOCTYPE svg PUBLIC "-//W3C//DTD SVG 1.1//EN"
  "http://www.w3.org/Graphics/SVG/1.1/DTD/svg11.dtd">
<svg xmlns:xlink="http://www.w3.org/1999/xlink" width="864pt" height="720pt" viewBox="0 0 864 720" xmlns="http://www.w3.org/2000/svg" version="1.1">
 <metadata>
  <rdf:RDF xmlns:dc="http://purl.org/dc/elements/1.1/" xmlns:cc="http://creativecommons.org/ns#" xmlns:rdf="http://www.w3.org/1999/02/22-rdf-syntax-ns#">
   <cc:Work>
    <dc:type rdf:resource="http://purl.org/dc/dcmitype/StillImage"/>
    <dc:date>2026-02-26T10:41:11.659223</dc:date>
    <dc:format>image/svg+xml</dc:format>
    <dc:creator>
     <cc:Agent>
      <dc:title>Matplotlib v3.10.8, https://matplotlib.org/</dc:title>
     </cc:Agent>
    </dc:creator>
   </cc:Work>
  </rdf:RDF>
 </metadata>
 <defs>
  <style type="text/css">*{stroke-linejoin: round; stroke-linecap: butt}</style>
 </defs>
 <g id="figure_1">
  <g id="patch_1">
   <path d="M 0 720 
L 864 720 
L 864 0 
L 0 0 
z
" style="fill: #1a1a1d"/>
  </g>
  <g id="axes_1">
   <g id="patch_2">
    <path d="M 46.415 676.24 
L 832.728222 676.24 
L 832.728222 43.04 
L 46.415 43.04 
z
" style="fill: #1a1a1d"/>
   </g>
   <g id="PathCollection_1">
    <defs>
     <path id="m04aa5168f3" d="M 0 3.872983 
C 1.027127 3.872983 2.012324 3.464901 2.738613 2.738613 
C 3.464901 2.012324 3.872983 1.027127 3.872983 0 
C 3.872983 -1.027127 3.464901 -2.012324 2.738613 -2.738613 
C 2.012324 -3.464901 1.027127 -3.872983 0 -3.872983 
C -1.027127 -3.872983 -2.012324 -3.464901 -2.738613 -2.738613 
C -3.464901 -2.012324 -3.872983 -1.027127 -3.872983 0 
C -3.872983 1.027127 -3.464901 2.012324 -2.738613 2.738613 
C -2.012324 3.464901 -1.027127 3.872983 0 3.872983 
z
" style="stroke: #f5f5dc; stroke-opacity: 0.7; stroke-width: 0.5"/>
    </defs>
    <g clip-path="url(#p19db12966f)">
     <use xlink:href="#m04aa5168f3" x="702.267508" y="624.129625" style="fill: #50c878; fill-opacity: 0.7; stroke: #f5f5dc; stroke-opacity: 0.7; stroke-width: 0.5"/>
     <use xlink:href="#m04aa5168f3" x="693.279303" y="598.933963" style="fill: #50c878; fill-opacity: 0.7; stroke: #f5f5dc; stroke-opacity: 0.7; stroke-width: 0.5"/>
     <use xlink:href="#m04aa5168f3" x="673.311442" y="597.047261" style="fill: #50c878; fill-opacity: 0.7; stroke: #f5f5dc; stroke-opacity: 0.7; stroke-width: 0.5"/>
     <use xlink:href="#m04aa5168f3" x="692.519178" y="609.881222" style="fill: #50c878; fill-opacity: 0.7; stroke: #f5f5dc; stroke-opacity: 0.7; stroke-width: 0.5"/>
     <use xlink:href="#m04aa5168f3" x="710.937418" y="573.233102" style="fill: #50c878; fill-opacity: 0.7; stroke: #f5f5dc; stroke-opacity: 0.7; stroke-width: 0.5"/>
     <use xlink:href="#m04aa5168f3" x="676.942561" y="561.029385" style="fill: #50c878; fill-opacity: 0.7; stroke: #f5f5dc; stroke-opacity: 0.7; stroke-width: 0.5"/>
     <use xlink:href="#m04aa5168f3" x="690.855414" y="647.458182" style="fill: #50c878; fill-opacity: 0.7; stroke: #f5f5dc; stroke-opacity: 0.7; stroke-width: 0.5"/>
     <use xlink:href="#m04aa5168f3" x="678.655607" y="616.385009" style="fill: #50c878; fill-opacity: 0.7; stroke: #f5f5dc; stroke-opacity: 0.7; stroke-width: 0.5"/>
     <use xlink:href="#m04aa5168f3" x="715.234101" y="569.397264" style="fill: #50c878; fill-opacity: 0.7; stroke: #f5f5dc; stroke-opacity: 0.7; stroke-width: 0.5"/>
     <use xlink:href="#m04aa5168f3" x="679.804128" y="542.167879" style="fill: #50c878; fill-opacity: 0.7; stroke: #f5f5dc; stroke-opacity: 0.7; stroke-width: 0.5"/>
     <use xlink:href="#m04aa5168f3" x="685.545863" y="547.719692" style="fill: #50c878; fill-opacity: 0.7; stroke: #f5f5dc; stroke-opacity: 0.7; stroke-width: 0.5"/>
     <use xlink:href="#m04aa5168f3" x="719.971957" y="512.261088" style="fill: #50c878; fill-opacity: 0.7; stroke: #f5f5dc; stroke-opacity: 0.7; stroke-width: 0.5"/>
     <use xlink:href="#m04aa5168f3" x="666.749017" y="603.307859" style="fill: #50c878; fill-opacity: 0.7; stroke: #f5f5dc; stroke-opacity: 0.7; stroke-width: 0.5"/>
     <use xlink:href="#m04aa5168f3" x="687.53149" y="639.820841" style="fill: #50c878; fill-opacity: 0.7; stroke: #f5f5dc; stroke-opacity: 0.7; stroke-width: 0.5"/>
     <use xlink:href="#m04aa5168f3" x="670.405724" y="560.191208" style="fill: #50c878; fill-opacity: 0.7; stroke: #f5f5dc; stroke-opacity: 0.7; stroke-width: 0.5"/>
     <use xlink:href="#m04aa5168f3" x="709.80684" y="626.676796" style="fill: #50c878; fill-opacity: 0.7; stroke: #f5f5dc; stroke-opacity: 0.7; stroke-width: 0.5"/>
     <use xlink:href="#m04aa5168f3" x="670.465561" y="607.425094" style="fill: #50c878; fill-opacity: 0.7; stroke: #f5f5dc; stroke-opacity: 0.7; stroke-width: 0.5"/>
     <use xlink:href="#m04aa5168f3" x="712.85833" y="553.863383" style="fill: #50c878; fill-opacity: 0.7; stroke: #f5f5dc; stroke-opacity: 0.7; stroke-width: 0.5"/>
     <use xlink:href="#m04aa5168f3" x="719.577009" y="558.494559" style="fill: #50c878; fill-opacity: 0.7; stroke: #f5f5dc; stroke-opacity: 0.7; stroke-width: 0.5"/>
     <use xlink:href="#m04aa5168f3" x="679.309123" y="552.267773" style="fill: #50c878; fill-opacity: 0.7; stroke: #f5f5dc; stroke-opacity: 0.7; stroke-width: 0.5"/>
     <use xlink:href="#m04aa5168f3" x="706.414452" y="587.974454" style="fill: #50c878; fill-opacity: 0.7; stroke: #f5f5dc; stroke-opacity: 0.7; stroke-width: 0.5"/>
     <use xlink:href="#m04aa5168f3" x="706.854861" y="551.570746" style="fill: #50c878; fill-opacity: 0.7; stroke: #f5f5dc; stroke-opacity: 0.7; stroke-width: 0.5"/>
     <use xlink:href="#m04aa5168f3" x="699.849225" y="560.210898" style="fill: #50c878; fill-opacity: 0.7; stroke: #f5f5dc; stroke-opacity: 0.7; stroke-width: 0.5"/>
    </g>
   </g>
   <g id="patch_3">
    <path d="M 666.749017 603.307859 
L 690.855414 647.458182 
L 709.80684 626.676796 
L 719.577009 558.494559 
L 719.971957 512.261088 
L 679.804128 542.167879 
L 670.405724 560.191208 
z
" clip-path="url(#p19db12966f)" style="fill: #50c878; opacity: 0.05"/>
   </g>
   <g id="PathCollection_2">
    <defs>
     <path id="m4246df22b0" d="M 0 3.872983 
C 1.027127 3.872983 2.012324 3.464901 2.738613 2.738613 
C 3.464901 2.012324 3.872983 1.027127 3.872983 0 
C 3.872983 -1.027127 3.464901 -2.012324 2.738613 -2.738613 
C 2.012324 -3.464901 1.027127 -3.872983 0 -3.872983 
C -1.027127 -3.872983 -2.012324 -3.464901 -2.738613 -2.738613 
C -3.464901 -2.012324 -3.872983 -1.027127 -3.872983 0 
C -3.872983 1.027127 -3.464901 2.012324 -2.738613 2.738613 
C -2.012324 3.464901 -1.027127 3.872983 0 3.872983 
z
" style="stroke: #f5f5dc; stroke-opacity: 0.7; stroke-width: 0.5"/>
    </defs>
    <g clip-path="url(#p19db12966f)">
     <use xlink:href="#m4246df22b0" x="186.093532" y="207.915575" style="fill: #cd7f32; fill-opacity: 0.7; stroke: #f5f5dc; stroke-opacity: 0.7; stroke-width: 0.5"/>
     <use xlink:href="#m4246df22b0" x="163.171645" y="268.3366" style="fill: #cd7f32; fill-opacity: 0.7; stroke: #f5f5dc; stroke-opacity: 0.7; stroke-width: 0.5"/>
     <use xlink:href="#m4246df22b0" x="179.369876" y="219.378425" style="fill: #cd7f32; fill-opacity: 0.7; stroke: #f5f5dc; stroke-opacity: 0.7; stroke-width: 0.5"/>
     <use xlink:href="#m4246df22b0" x="156.055879" y="265.499305" style="fill: #cd7f32; fill-opacity: 0.7; stroke: #f5f5dc; stroke-opacity: 0.7; stroke-width: 0.5"/>
     <use xlink:href="#m4246df22b0" x="165.945322" y="181.060756" style="fill: #cd7f32; fill-opacity: 0.7; stroke: #f5f5dc; stroke-opacity: 0.7; stroke-width: 0.5"/>
     <use xlink:href="#m4246df22b0" x="184.393789" y="151.129245" style="fill: #cd7f32; fill-opacity: 0.7; stroke: #f5f5dc; stroke-opacity: 0.7; stroke-width: 0.5"/>
     <use xlink:href="#m4246df22b0" x="87.378616" y="145.634203" style="fill: #cd7f32; fill-opacity: 0.7; stroke: #f5f5dc; stroke-opacity: 0.7; stroke-width: 0.5"/>
     <use xlink:href="#m4246df22b0" x="83.634174" y="203.620632" style="fill: #cd7f32; fill-opacity: 0.7; stroke: #f5f5dc; stroke-opacity: 0.7; stroke-width: 0.5"/>
     <use xlink:href="#m4246df22b0" x="130.106988" y="93.89928" style="fill: #cd7f32; fill-opacity: 0.7; stroke: #f5f5dc; stroke-opacity: 0.7; stroke-width: 0.5"/>
     <use xlink:href="#m4246df22b0" x="117.01204" y="293.711462" style="fill: #cd7f32; fill-opacity: 0.7; stroke: #f5f5dc; stroke-opacity: 0.7; stroke-width: 0.5"/>
     <use xlink:href="#m4246df22b0" x="107.351391" y="285.153309" style="fill: #cd7f32; fill-opacity: 0.7; stroke: #f5f5dc; stroke-opacity: 0.7; stroke-width: 0.5"/>
     <use xlink:href="#m4246df22b0" x="110.764162" y="289.305896" style="fill: #cd7f32; fill-opacity: 0.7; stroke: #f5f5dc; stroke-opacity: 0.7; stroke-width: 0.5"/>
     <use xlink:href="#m4246df22b0" x="179.57322" y="140.756061" style="fill: #cd7f32; fill-opacity: 0.7; stroke: #f5f5dc; stroke-opacity: 0.7; stroke-width: 0.5"/>
     <use xlink:href="#m4246df22b0" x="135.518361" y="214.362623" style="fill: #cd7f32; fill-opacity: 0.7; stroke: #f5f5dc; stroke-opacity: 0.7; stroke-width: 0.5"/>
     <use xlink:href="#m4246df22b0" x="145.502019" y="165.364082" style="fill: #cd7f32; fill-opacity: 0.7; stroke: #f5f5dc; stroke-opacity: 0.7; stroke-width: 0.5"/>
     <use xlink:href="#m4246df22b0" x="175.168773" y="165.017806" style="fill: #cd7f32; fill-opacity: 0.7; stroke: #f5f5dc; stroke-opacity: 0.7; stroke-width: 0.5"/>
     <use xlink:href="#m4246df22b0" x="140.244052" y="128.439833" style="fill: #cd7f32; fill-opacity: 0.7; stroke: #f5f5dc; stroke-opacity: 0.7; stroke-width: 0.5"/>
     <use xlink:href="#m4246df22b0" x="128.057356" y="101.831838" style="fill: #cd7f32; fill-opacity: 0.7; stroke: #f5f5dc; stroke-opacity: 0.7; stroke-width: 0.5"/>
     <use xlink:href="#m4246df22b0" x="115.584095" y="118.254829" style="fill: #cd7f32; fill-opacity: 0.7; stroke: #f5f5dc; stroke-opacity: 0.7; stroke-width: 0.5"/>
     <use xlink:href="#m4246df22b0" x="82.15651" y="196.317159" style="fill: #cd7f32; fill-opacity: 0.7; stroke: #f5f5dc; stroke-opacity: 0.7; stroke-width: 0.5"/>
     <use xlink:href="#m4246df22b0" x="96.535615" y="264.074533" style="fill: #cd7f32; fill-opacity: 0.7; stroke: #f5f5dc; stroke-opacity: 0.7; stroke-width: 0.5"/>
     <use xlink:href="#m4246df22b0" x="101.563687" y="253.015016" style="fill: #cd7f32; fill-opacity: 0.7; stroke: #f5f5dc; stroke-opacity: 0.7; stroke-width: 0.5"/>
     <use xlink:href="#m4246df22b0" x="104.877893" y="207.252725" style="fill: #cd7f32; fill-opacity: 0.7; stroke: #f5f5dc; stroke-opacity: 0.7; stroke-width: 0.5"/>
     <use xlink:href="#m4246df22b0" x="82.419846" y="211.253689" style="fill: #cd7f32; fill-opacity: 0.7; stroke: #f5f5dc; stroke-opacity: 0.7; stroke-width: 0.5"/>
     <use xlink:href="#m4246df22b0" x="163.512398" y="118.921361" style="fill: #cd7f32; fill-opacity: 0.7; stroke: #f5f5dc; stroke-opacity: 0.7; stroke-width: 0.5"/>
     <use xlink:href="#m4246df22b0" x="140.892536" y="194.924121" style="fill: #cd7f32; fill-opacity: 0.7; stroke: #f5f5dc; stroke-opacity: 0.7; stroke-width: 0.5"/>
     <use xlink:href="#m4246df22b0" x="106.033713" y="227.812753" style="fill: #cd7f32; fill-opacity: 0.7; stroke: #f5f5dc; stroke-opacity: 0.7; stroke-width: 0.5"/>
     <use xlink:href="#m4246df22b0" x="109.641555" y="277.507242" style="fill: #cd7f32; fill-opacity: 0.7; stroke: #f5f5dc; stroke-opacity: 0.7; stroke-width: 0.5"/>
     <use xlink:href="#m4246df22b0" x="131.487179" y="107.787461" style="fill: #cd7f32; fill-opacity: 0.7; stroke: #f5f5dc; stroke-opacity: 0.7; stroke-width: 0.5"/>
     <use xlink:href="#m4246df22b0" x="154.195168" y="264.728371" style="fill: #cd7f32; fill-opacity: 0.7; stroke: #f5f5dc; stroke-opacity: 0.7; stroke-width: 0.5"/>
     <use xlink:href="#m4246df22b0" x="150.367803" y="215.700191" style="fill: #cd7f32; fill-opacity: 0.7; stroke: #f5f5dc; stroke-opacity: 0.7; stroke-width: 0.5"/>
     <use xlink:href="#m4246df22b0" x="82.867425" y="150.621255" style="fill: #cd7f32; fill-opacity: 0.7; stroke: #f5f5dc; stroke-opacity: 0.7; stroke-width: 0.5"/>
     <use xlink:href="#m4246df22b0" x="91.496078" y="137.970936" style="fill: #cd7f32; fill-opacity: 0.7; stroke: #f5f5dc; stroke-opacity: 0.7; stroke-width: 0.5"/>
     <use xlink:href="#m4246df22b0" x="144.625504" y="104.099326" style="fill: #cd7f32; fill-opacity: 0.7; stroke: #f5f5dc; stroke-opacity: 0.7; stroke-width: 0.5"/>
     <use xlink:href="#m4246df22b0" x="116.336612" y="115.27943" style="fill: #cd7f32; fill-opacity: 0.7; stroke: #f5f5dc; stroke-opacity: 0.7; stroke-width: 0.5"/>
     <use xlink:href="#m4246df22b0" x="106.938462" y="87.391241" style="fill: #cd7f32; fill-opacity: 0.7; stroke: #f5f5dc; stroke-opacity: 0.7; stroke-width: 0.5"/>
     <use xlink:href="#m4246df22b0" x="136.204362" y="127.131904" style="fill: #cd7f32; fill-opacity: 0.7; stroke: #f5f5dc; stroke-opacity: 0.7; stroke-width: 0.5"/>
     <use xlink:href="#m4246df22b0" x="115.669647" y="84.645148" style="fill: #cd7f32; fill-opacity: 0.7; stroke: #f5f5dc; stroke-opacity: 0.7; stroke-width: 0.5"/>
     <use xlink:href="#m4246df22b0" x="119.903763" y="74.104792" style="fill: #cd7f32; fill-opacity: 0.7; stroke: #f5f5dc; stroke-opacity: 0.7; stroke-width: 0.5"/>
     <use xlink:href="#m4246df22b0" x="176.921602" y="199.443039" style="fill: #cd7f32; fill-opacity: 0.7; stroke: #f5f5dc; stroke-opacity: 0.7; stroke-width: 0.5"/>
     <use xlink:href="#m4246df22b0" x="187.907145" y="191.374154" style="fill: #cd7f32; fill-opacity: 0.7; stroke: #f5f5dc; stroke-opacity: 0.7; stroke-width: 0.5"/>
     <use xlink:href="#m4246df22b0" x="108.903743" y="78.562592" style="fill: #cd7f32; fill-opacity: 0.7; stroke: #f5f5dc; stroke-opacity: 0.7; stroke-width: 0.5"/>
     <use xlink:href="#m4246df22b0" x="118.573254" y="253.582158" style="fill: #cd7f32; fill-opacity: 0.7; stroke: #f5f5dc; stroke-opacity: 0.7; stroke-width: 0.5"/>
     <use xlink:href="#m4246df22b0" x="93.698707" y="134.266427" style="fill: #cd7f32; fill-opacity: 0.7; stroke: #f5f5dc; stroke-opacity: 0.7; stroke-width: 0.5"/>
     <use xlink:href="#m4246df22b0" x="124.203676" y="237.513059" style="fill: #cd7f32; fill-opacity: 0.7; stroke: #f5f5dc; stroke-opacity: 0.7; stroke-width: 0.5"/>
     <use xlink:href="#m4246df22b0" x="121.850717" y="71.821818" style="fill: #cd7f32; fill-opacity: 0.7; stroke: #f5f5dc; stroke-opacity: 0.7; stroke-width: 0.5"/>
     <use xlink:href="#m4246df22b0" x="116.575725" y="255.530089" style="fill: #cd7f32; fill-opacity: 0.7; stroke: #f5f5dc; stroke-opacity: 0.7; stroke-width: 0.5"/>
     <use xlink:href="#m4246df22b0" x="97.958173" y="260.072109" style="fill: #cd7f32; fill-opacity: 0.7; stroke: #f5f5dc; stroke-opacity: 0.7; stroke-width: 0.5"/>
     <use xlink:href="#m4246df22b0" x="145.308521" y="281.763819" style="fill: #cd7f32; fill-opacity: 0.7; stroke: #f5f5dc; stroke-opacity: 0.7; stroke-width: 0.5"/>
     <use xlink:href="#m4246df22b0" x="180.939353" y="169.383769" style="fill: #cd7f32; fill-opacity: 0.7; stroke: #f5f5dc; stroke-opacity: 0.7; stroke-width: 0.5"/>
     <use xlink:href="#m4246df22b0" x="88.843614" y="210.775528" style="fill: #cd7f32; fill-opacity: 0.7; stroke: #f5f5dc; stroke-opacity: 0.7; stroke-width: 0.5"/>
     <use xlink:href="#m4246df22b0" x="158.569269" y="284.2179" style="fill: #cd7f32; fill-opacity: 0.7; stroke: #f5f5dc; stroke-opacity: 0.7; stroke-width: 0.5"/>
    </g>
   </g>
   <g id="patch_4">
    <path d="M 82.867425 150.621255 
L 82.15651 196.317159 
L 82.419846 211.253689 
L 96.535615 264.074533 
L 107.351391 285.153309 
L 110.764162 289.305896 
L 117.01204 293.711462 
L 158.569269 284.2179 
L 186.093532 207.915575 
L 187.907145 191.374154 
L 184.393789 151.129245 
L 179.57322 140.756061 
L 163.512398 118.921361 
L 121.850717 71.821818 
L 108.903743 78.562592 
z
" clip-path="url(#p19db12966f)" style="fill: #cd7f32; opacity: 0.05"/>
   </g>
   <g id="PathCollection_3">
    <defs>
     <path id="m39c60560da" d="M 0 3.872983 
C 1.027127 3.872983 2.012324 3.464901 2.738613 2.738613 
C 3.464901 2.012324 3.872983 1.027127 3.872983 0 
C 3.872983 -1.027127 3.464901 -2.012324 2.738613 -2.738613 
C 2.012324 -3.464901 1.027127 -3.872983 0 -3.872983 
C -1.027127 -3.872983 -2.012324 -3.464901 -2.738613 -2.738613 
C -3.464901 -2.012324 -3.872983 -1.027127 -3.872983 0 
C -3.872983 1.027127 -3.464901 2.012324 -2.738613 2.738613 
C -2.012324 3.464901 -1.027127 3.872983 0 3.872983 
z
" style="stroke: #f5f5dc; stroke-opacity: 0.7; stroke-width: 0.5"/>
    </defs>
    <g clip-path="url(#p19db12966f)">
     <use xlink:href="#m39c60560da" x="778.24064" y="471.293892" style="fill: #c0c0c0; fill-opacity: 0.7; stroke: #f5f5dc; stroke-opacity: 0.7; stroke-width: 0.5"/>
     <use xlink:href="#m39c60560da" x="782.251203" y="463.489379" style="fill: #c0c0c0; fill-opacity: 0.7; stroke: #f5f5dc; stroke-opacity: 0.7; stroke-width: 0.5"/>
     <use xlink:href="#m39c60560da" x="781.536575" y="296.980936" style="fill: #c0c0c0; fill-opacity: 0.7; stroke: #f5f5dc; stroke-opacity: 0.7; stroke-width: 0.5"/>
     <use xlink:href="#m39c60560da" x="785.676421" y="284.256329" style="fill: #c0c0c0; fill-opacity: 0.7; stroke: #f5f5dc; stroke-opacity: 0.7; stroke-width: 0.5"/>
     <use xlink:href="#m39c60560da" x="796.986712" y="314.405469" style="fill: #c0c0c0; fill-opacity: 0.7; stroke: #f5f5dc; stroke-opacity: 0.7; stroke-width: 0.5"/>
     <use xlink:href="#m39c60560da" x="787.335053" y="278.765762" style="fill: #c0c0c0; fill-opacity: 0.7; stroke: #f5f5dc; stroke-opacity: 0.7; stroke-width: 0.5"/>
     <use xlink:href="#m39c60560da" x="770.50862" y="277.515238" style="fill: #c0c0c0; fill-opacity: 0.7; stroke: #f5f5dc; stroke-opacity: 0.7; stroke-width: 0.5"/>
     <use xlink:href="#m39c60560da" x="775.032714" y="290.224899" style="fill: #c0c0c0; fill-opacity: 0.7; stroke: #f5f5dc; stroke-opacity: 0.7; stroke-width: 0.5"/>
     <use xlink:href="#m39c60560da" x="773.584205" y="294.456502" style="fill: #c0c0c0; fill-opacity: 0.7; stroke: #f5f5dc; stroke-opacity: 0.7; stroke-width: 0.5"/>
     <use xlink:href="#m39c60560da" x="777.430724" y="444.365483" style="fill: #c0c0c0; fill-opacity: 0.7; stroke: #f5f5dc; stroke-opacity: 0.7; stroke-width: 0.5"/>
     <use xlink:href="#m39c60560da" x="774.642934" y="436.045046" style="fill: #c0c0c0; fill-opacity: 0.7; stroke: #f5f5dc; stroke-opacity: 0.7; stroke-width: 0.5"/>
     <use xlink:href="#m39c60560da" x="794.720861" y="335.322944" style="fill: #c0c0c0; fill-opacity: 0.7; stroke: #f5f5dc; stroke-opacity: 0.7; stroke-width: 0.5"/>
     <use xlink:href="#m39c60560da" x="793.386385" y="323.170207" style="fill: #c0c0c0; fill-opacity: 0.7; stroke: #f5f5dc; stroke-opacity: 0.7; stroke-width: 0.5"/>
     <use xlink:href="#m39c60560da" x="758.163332" y="465.152374" style="fill: #c0c0c0; fill-opacity: 0.7; stroke: #f5f5dc; stroke-opacity: 0.7; stroke-width: 0.5"/>
     <use xlink:href="#m39c60560da" x="774.962212" y="307.244861" style="fill: #c0c0c0; fill-opacity: 0.7; stroke: #f5f5dc; stroke-opacity: 0.7; stroke-width: 0.5"/>
     <use xlink:href="#m39c60560da" x="787.363443" y="273.963717" style="fill: #c0c0c0; fill-opacity: 0.7; stroke: #f5f5dc; stroke-opacity: 0.7; stroke-width: 0.5"/>
     <use xlink:href="#m39c60560da" x="780.813212" y="468.331693" style="fill: #c0c0c0; fill-opacity: 0.7; stroke: #f5f5dc; stroke-opacity: 0.7; stroke-width: 0.5"/>
     <use xlink:href="#m39c60560da" x="781.891123" y="470.435595" style="fill: #c0c0c0; fill-opacity: 0.7; stroke: #f5f5dc; stroke-opacity: 0.7; stroke-width: 0.5"/>
     <use xlink:href="#m39c60560da" x="794.327586" y="328.074434" style="fill: #c0c0c0; fill-opacity: 0.7; stroke: #f5f5dc; stroke-opacity: 0.7; stroke-width: 0.5"/>
    </g>
   </g>
   <g id="patch_5">
    <path d="M 758.163332 465.152374 
L 778.24064 471.293892 
L 781.891123 470.435595 
L 796.986712 314.405469 
L 787.363443 273.963717 
L 770.50862 277.515238 
z
" clip-path="url(#p19db12966f)" style="fill: #c0c0c0; opacity: 0.05"/>
   </g>
   <g id="PathCollection_4">
    <defs>
     <path id="m1cf6d1256a" d="M 0 3.872983 
C 1.027127 3.872983 2.012324 3.464901 2.738613 2.738613 
C 3.464901 2.012324 3.872983 1.027127 3.872983 0 
C 3.872983 -1.027127 3.464901 -2.012324 2.738613 -2.738613 
C 2.012324 -3.464901 1.027127 -3.872983 0 -3.872983 
C -1.027127 -3.872983 -2.012324 -3.464901 -2.738613 -2.738613 
C -3.464901 -2.012324 -3.872983 -1.027127 -3.872983 0 
C -3.872983 1.027127 -3.464901 2.012324 -2.738613 2.738613 
C -2.012324 3.464901 -1.027127 3.872983 0 3.872983 
z
" style="stroke: #f5f5dc; stroke-opacity: 0.7; stroke-width: 0.5"/>
    </defs>
    <g clip-path="url(#p19db12966f)">
     <use xlink:href="#m1cf6d1256a" x="601.548803" y="315.333548" style="fill: #e0115f; fill-opacity: 0.7; stroke: #f5f5dc; stroke-opacity: 0.7; stroke-width: 0.5"/>
     <use xlink:href="#m1cf6d1256a" x="592.39721" y="297.402357" style="fill: #e0115f; fill-opacity: 0.7; stroke: #f5f5dc; stroke-opacity: 0.7; stroke-width: 0.5"/>
     <use xlink:href="#m1cf6d1256a" x="605.04456" y="285.833708" style="fill: #e0115f; fill-opacity: 0.7; stroke: #f5f5dc; stroke-opacity: 0.7; stroke-width: 0.5"/>
     <use xlink:href="#m1cf6d1256a" x="597.385008" y="301.087985" style="fill: #e0115f; fill-opacity: 0.7; stroke: #f5f5dc; stroke-opacity: 0.7; stroke-width: 0.5"/>
     <use xlink:href="#m1cf6d1256a" x="594.825102" y="298.573547" style="fill: #e0115f; fill-opacity: 0.7; stroke: #f5f5dc; stroke-opacity: 0.7; stroke-width: 0.5"/>
     <use xlink:href="#m1cf6d1256a" x="596.361184" y="307.33949" style="fill: #e0115f; fill-opacity: 0.7; stroke: #f5f5dc; stroke-opacity: 0.7; stroke-width: 0.5"/>
     <use xlink:href="#m1cf6d1256a" x="600.954797" y="296.798468" style="fill: #e0115f; fill-opacity: 0.7; stroke: #f5f5dc; stroke-opacity: 0.7; stroke-width: 0.5"/>
     <use xlink:href="#m1cf6d1256a" x="602.759055" y="282.582385" style="fill: #e0115f; fill-opacity: 0.7; stroke: #f5f5dc; stroke-opacity: 0.7; stroke-width: 0.5"/>
    </g>
   </g>
   <g id="patch_6">
    <path d="M 601.548803 315.333548 
L 605.04456 285.833708 
L 602.759055 282.582385 
L 592.39721 297.402357 
L 596.361184 307.33949 
z
" clip-path="url(#p19db12966f)" style="fill: #e0115f; opacity: 0.05"/>
   </g>
   <g id="matplotlib.axis_1">
    <g id="xtick_1">
     <g id="line2d_1">
      <defs>
       <path id="m67902d2865" d="M 0 0 
L 0 3.5 
" style="stroke: #666666; stroke-width: 0.8"/>
      </defs>
      <g>
       <use xlink:href="#m67902d2865" x="85.377594" y="676.24" style="fill: #666666; stroke: #666666; stroke-width: 0.8"/>
      </g>
     </g>
     <g id="text_1">
      <!-- −5.0 -->
      <g style="fill: #666666" transform="translate(73.236187 690.838437) scale(0.1 -0.1)">
       <defs>
        <path id="DejaVuSans-2212" d="M 678 2272 
L 4684 2272 
L 4684 1741 
L 678 1741 
L 678 2272 
z
" transform="scale(0.015625)"/>
        <path id="DejaVuSans-35" d="M 691 4666 
L 3169 4666 
L 3169 4134 
L 1269 4134 
L 1269 2991 
Q 1406 3038 1543 3061 
Q 1681 3084 1819 3084 
Q 2600 3084 3056 2656 
Q 3513 2228 3513 1497 
Q 3513 744 3044 326 
Q 2575 -91 1722 -91 
Q 1428 -91 1123 -41 
Q 819 9 494 109 
L 494 744 
Q 775 591 1075 516 
Q 1375 441 1709 441 
Q 2250 441 2565 725 
Q 2881 1009 2881 1497 
Q 2881 1984 2565 2268 
Q 2250 2553 1709 2553 
Q 1456 2553 1204 2497 
Q 953 2441 691 2322 
L 691 4666 
z
" transform="scale(0.015625)"/>
        <path id="DejaVuSans-2e" d="M 684 794 
L 1344 794 
L 1344 0 
L 684 0 
L 684 794 
z
" transform="scale(0.015625)"/>
        <path id="DejaVuSans-30" d="M 2034 4250 
Q 1547 4250 1301 3770 
Q 1056 3291 1056 2328 
Q 1056 1369 1301 889 
Q 1547 409 2034 409 
Q 2525 409 2770 889 
Q 3016 1369 3016 2328 
Q 3016 3291 2770 3770 
Q 2525 4250 2034 4250 
z
M 2034 4750 
Q 2819 4750 3233 4129 
Q 3647 3509 3647 2328 
Q 3647 1150 3233 529 
Q 2819 -91 2034 -91 
Q 1250 -91 836 529 
Q 422 1150 422 2328 
Q 422 3509 836 4129 
Q 1250 4750 2034 4750 
z
" transform="scale(0.015625)"/>
       </defs>
       <use xlink:href="#DejaVuSans-2212"/>
       <use xlink:href="#DejaVuSans-35" transform="translate(83.789062 0)"/>
       <use xlink:href="#DejaVuSans-2e" transform="translate(147.412109 0)"/>
       <use xlink:href="#DejaVuSans-30" transform="translate(179.199219 0)"/>
      </g>
     </g>
    </g>
    <g id="xtick_2">
     <g id="line2d_2">
      <g>
       <use xlink:href="#m67902d2865" x="180.791333" y="676.24" style="fill: #666666; stroke: #666666; stroke-width: 0.8"/>
      </g>
     </g>
     <g id="text_2">
      <!-- −2.5 -->
      <g style="fill: #666666" transform="translate(168.649927 690.838437) scale(0.1 -0.1)">
       <defs>
        <path id="DejaVuSans-32" d="M 1228 531 
L 3431 531 
L 3431 0 
L 469 0 
L 469 531 
Q 828 903 1448 1529 
Q 2069 2156 2228 2338 
Q 2531 2678 2651 2914 
Q 2772 3150 2772 3378 
Q 2772 3750 2511 3984 
Q 2250 4219 1831 4219 
Q 1534 4219 1204 4116 
Q 875 4013 500 3803 
L 500 4441 
Q 881 4594 1212 4672 
Q 1544 4750 1819 4750 
Q 2544 4750 2975 4387 
Q 3406 4025 3406 3419 
Q 3406 3131 3298 2873 
Q 3191 2616 2906 2266 
Q 2828 2175 2409 1742 
Q 1991 1309 1228 531 
z
" transform="scale(0.015625)"/>
       </defs>
       <use xlink:href="#DejaVuSans-2212"/>
       <use xlink:href="#DejaVuSans-32" transform="translate(83.789062 0)"/>
       <use xlink:href="#DejaVuSans-2e" transform="translate(147.412109 0)"/>
       <use xlink:href="#DejaVuSans-35" transform="translate(179.199219 0)"/>
      </g>
     </g>
    </g>
    <g id="xtick_3">
     <g id="line2d_3">
      <g>
       <use xlink:href="#m67902d2865" x="276.205073" y="676.24" style="fill: #666666; stroke: #666666; stroke-width: 0.8"/>
      </g>
     </g>
     <g id="text_3">
      <!-- 0.0 -->
      <g style="fill: #666666" transform="translate(268.25351 690.838437) scale(0.1 -0.1)">
       <use xlink:href="#DejaVuSans-30"/>
       <use xlink:href="#DejaVuSans-2e" transform="translate(63.623047 0)"/>
       <use xlink:href="#DejaVuSans-30" transform="translate(95.410156 0)"/>
      </g>
     </g>
    </g>
    <g id="xtick_4">
     <g id="line2d_4">
      <g>
       <use xlink:href="#m67902d2865" x="371.618812" y="676.24" style="fill: #666666; stroke: #666666; stroke-width: 0.8"/>
      </g>
     </g>
     <g id="text_4">
      <!-- 2.5 -->
      <g style="fill: #666666" transform="translate(363.66725 690.838437) scale(0.1 -0.1)">
       <use xlink:href="#DejaVuSans-32"/>
       <use xlink:href="#DejaVuSans-2e" transform="translate(63.623047 0)"/>
       <use xlink:href="#DejaVuSans-35" transform="translate(95.410156 0)"/>
      </g>
     </g>
    </g>
    <g id="xtick_5">
     <g id="line2d_5">
      <g>
       <use xlink:href="#m67902d2865" x="467.032552" y="676.24" style="fill: #666666; stroke: #666666; stroke-width: 0.8"/>
      </g>
     </g>
     <g id="text_5">
      <!-- 5.0 -->
      <g style="fill: #666666" transform="translate(459.080989 690.838437) scale(0.1 -0.1)">
       <use xlink:href="#DejaVuSans-35"/>
       <use xlink:href="#DejaVuSans-2e" transform="translate(63.623047 0)"/>
       <use xlink:href="#DejaVuSans-30" transform="translate(95.410156 0)"/>
      </g>
     </g>
    </g>
    <g id="xtick_6">
     <g id="line2d_6">
      <g>
       <use xlink:href="#m67902d2865" x="562.446292" y="676.24" style="fill: #666666; stroke: #666666; stroke-width: 0.8"/>
      </g>
     </g>
     <g id="text_6">
      <!-- 7.5 -->
      <g style="fill: #666666" transform="translate(554.494729 690.838437) scale(0.1 -0.1)">
       <defs>
        <path id="DejaVuSans-37" d="M 525 4666 
L 3525 4666 
L 3525 4397 
L 1831 0 
L 1172 0 
L 2766 4134 
L 525 4134 
L 525 4666 
z
" transform="scale(0.015625)"/>
       </defs>
       <use xlink:href="#DejaVuSans-37"/>
       <use xlink:href="#DejaVuSans-2e" transform="translate(63.623047 0)"/>
       <use xlink:href="#DejaVuSans-35" transform="translate(95.410156 0)"/>
      </g>
     </g>
    </g>
    <g id="xtick_7">
     <g id="line2d_7">
      <g>
       <use xlink:href="#m67902d2865" x="657.860031" y="676.24" style="fill: #666666; stroke: #666666; stroke-width: 0.8"/>
      </g>
     </g>
     <g id="text_7">
      <!-- 10.0 -->
      <g style="fill: #666666" transform="translate(646.727219 690.838437) scale(0.1 -0.1)">
       <defs>
        <path id="DejaVuSans-31" d="M 794 531 
L 1825 531 
L 1825 4091 
L 703 3866 
L 703 4441 
L 1819 4666 
L 2450 4666 
L 2450 531 
L 3481 531 
L 3481 0 
L 794 0 
L 794 531 
z
" transform="scale(0.015625)"/>
       </defs>
       <use xlink:href="#DejaVuSans-31"/>
       <use xlink:href="#DejaVuSans-30" transform="translate(63.623047 0)"/>
       <use xlink:href="#DejaVuSans-2e" transform="translate(127.246094 0)"/>
       <use xlink:href="#DejaVuSans-30" transform="translate(159.033203 0)"/>
      </g>
     </g>
    </g>
    <g id="xtick_8">
     <g id="line2d_8">
      <g>
       <use xlink:href="#m67902d2865" x="753.273771" y="676.24" style="fill: #666666; stroke: #666666; stroke-width: 0.8"/>
      </g>
     </g>
     <g id="text_8">
      <!-- 12.5 -->
      <g style="fill: #666666" transform="translate(742.140958 690.838437) scale(0.1 -0.1)">
       <use xlink:href="#DejaVuSans-31"/>
       <use xlink:href="#DejaVuSans-32" transform="translate(63.623047 0)"/>
       <use xlink:href="#DejaVuSans-2e" transform="translate(127.246094 0)"/>
       <use xlink:href="#DejaVuSans-35" transform="translate(159.033203 0)"/>
      </g>
     </g>
    </g>
    <g id="text_9">
     <!-- UMAP Dimension 1 -->
     <g style="fill: #c5c5b0" transform="translate(382.758173 706.03625) scale(0.12 -0.12)">
      <defs>
       <path id="DejaVuSans-55" d="M 556 4666 
L 1191 4666 
L 1191 1831 
Q 1191 1081 1462 751 
Q 1734 422 2344 422 
Q 2950 422 3222 751 
Q 3494 1081 3494 1831 
L 3494 4666 
L 4128 4666 
L 4128 1753 
Q 4128 841 3676 375 
Q 3225 -91 2344 -91 
Q 1459 -91 1007 375 
Q 556 841 556 1753 
L 556 4666 
z
" transform="scale(0.015625)"/>
       <path id="DejaVuSans-4d" d="M 628 4666 
L 1569 4666 
L 2759 1491 
L 3956 4666 
L 4897 4666 
L 4897 0 
L 4281 0 
L 4281 4097 
L 3078 897 
L 2444 897 
L 1241 4097 
L 1241 0 
L 628 0 
L 628 4666 
z
" transform="scale(0.015625)"/>
       <path id="DejaVuSans-41" d="M 2188 4044 
L 1331 1722 
L 3047 1722 
L 2188 4044 
z
M 1831 4666 
L 2547 4666 
L 4325 0 
L 3669 0 
L 3244 1197 
L 1141 1197 
L 716 0 
L 50 0 
L 1831 4666 
z
" transform="scale(0.015625)"/>
       <path id="DejaVuSans-50" d="M 1259 4147 
L 1259 2394 
L 2053 2394 
Q 2494 2394 2734 2622 
Q 2975 2850 2975 3272 
Q 2975 3691 2734 3919 
Q 2494 4147 2053 4147 
L 1259 4147 
z
M 628 4666 
L 2053 4666 
Q 2838 4666 3239 4311 
Q 3641 3956 3641 3272 
Q 3641 2581 3239 2228 
Q 2838 1875 2053 1875 
L 1259 1875 
L 1259 0 
L 628 0 
L 628 4666 
z
" transform="scale(0.015625)"/>
       <path id="DejaVuSans-20" transform="scale(0.015625)"/>
       <path id="DejaVuSans-44" d="M 1259 4147 
L 1259 519 
L 2022 519 
Q 2988 519 3436 956 
Q 3884 1394 3884 2338 
Q 3884 3275 3436 3711 
Q 2988 4147 2022 4147 
L 1259 4147 
z
M 628 4666 
L 1925 4666 
Q 3281 4666 3915 4102 
Q 4550 3538 4550 2338 
Q 4550 1131 3912 565 
Q 3275 0 1925 0 
L 628 0 
L 628 4666 
z
" transform="scale(0.015625)"/>
       <path id="DejaVuSans-69" d="M 603 3500 
L 1178 3500 
L 1178 0 
L 603 0 
L 603 3500 
z
M 603 4863 
L 1178 4863 
L 1178 4134 
L 603 4134 
L 603 4863 
z
" transform="scale(0.015625)"/>
       <path id="DejaVuSans-6d" d="M 3328 2828 
Q 3544 3216 3844 3400 
Q 4144 3584 4550 3584 
Q 5097 3584 5394 3201 
Q 5691 2819 5691 2113 
L 5691 0 
L 5113 0 
L 5113 2094 
Q 5113 2597 4934 2840 
Q 4756 3084 4391 3084 
Q 3944 3084 3684 2787 
Q 3425 2491 3425 1978 
L 3425 0 
L 2847 0 
L 2847 2094 
Q 2847 2600 2669 2842 
Q 2491 3084 2119 3084 
Q 1678 3084 1418 2786 
Q 1159 2488 1159 1978 
L 1159 0 
L 581 0 
L 581 3500 
L 1159 3500 
L 1159 2956 
Q 1356 3278 1631 3431 
Q 1906 3584 2284 3584 
Q 2666 3584 2933 3390 
Q 3200 3197 3328 2828 
z
" transform="scale(0.015625)"/>
       <path id="DejaVuSans-65" d="M 3597 1894 
L 3597 1613 
L 953 1613 
Q 991 1019 1311 708 
Q 1631 397 2203 397 
Q 2534 397 2845 478 
Q 3156 559 3463 722 
L 3463 178 
Q 3153 47 2828 -22 
Q 2503 -91 2169 -91 
Q 1331 -91 842 396 
Q 353 884 353 1716 
Q 353 2575 817 3079 
Q 1281 3584 2069 3584 
Q 2775 3584 3186 3129 
Q 3597 2675 3597 1894 
z
M 3022 2063 
Q 3016 2534 2758 2815 
Q 2500 3097 2075 3097 
Q 1594 3097 1305 2825 
Q 1016 2553 972 2059 
L 3022 2063 
z
" transform="scale(0.015625)"/>
       <path id="DejaVuSans-6e" d="M 3513 2113 
L 3513 0 
L 2938 0 
L 2938 2094 
Q 2938 2591 2744 2837 
Q 2550 3084 2163 3084 
Q 1697 3084 1428 2787 
Q 1159 2491 1159 1978 
L 1159 0 
L 581 0 
L 581 3500 
L 1159 3500 
L 1159 2956 
Q 1366 3272 1645 3428 
Q 1925 3584 2291 3584 
Q 2894 3584 3203 3211 
Q 3513 2838 3513 2113 
z
" transform="scale(0.015625)"/>
       <path id="DejaVuSans-73" d="M 2834 3397 
L 2834 2853 
Q 2591 2978 2328 3040 
Q 2066 3103 1784 3103 
Q 1356 3103 1142 2972 
Q 928 2841 928 2578 
Q 928 2378 1081 2264 
Q 1234 2150 1697 2047 
L 1894 2003 
Q 2506 1872 2764 1633 
Q 3022 1394 3022 966 
Q 3022 478 2636 193 
Q 2250 -91 1575 -91 
Q 1294 -91 989 -36 
Q 684 19 347 128 
L 347 722 
Q 666 556 975 473 
Q 1284 391 1588 391 
Q 1994 391 2212 530 
Q 2431 669 2431 922 
Q 2431 1156 2273 1281 
Q 2116 1406 1581 1522 
L 1381 1569 
Q 847 1681 609 1914 
Q 372 2147 372 2553 
Q 372 3047 722 3315 
Q 1072 3584 1716 3584 
Q 2034 3584 2315 3537 
Q 2597 3491 2834 3397 
z
" transform="scale(0.015625)"/>
       <path id="DejaVuSans-6f" d="M 1959 3097 
Q 1497 3097 1228 2736 
Q 959 2375 959 1747 
Q 959 1119 1226 758 
Q 1494 397 1959 397 
Q 2419 397 2687 759 
Q 2956 1122 2956 1747 
Q 2956 2369 2687 2733 
Q 2419 3097 1959 3097 
z
M 1959 3584 
Q 2709 3584 3137 3096 
Q 3566 2609 3566 1747 
Q 3566 888 3137 398 
Q 2709 -91 1959 -91 
Q 1206 -91 779 398 
Q 353 888 353 1747 
Q 353 2609 779 3096 
Q 1206 3584 1959 3584 
z
" transform="scale(0.015625)"/>
      </defs>
      <use xlink:href="#DejaVuSans-55"/>
      <use xlink:href="#DejaVuSans-4d" transform="translate(73.193359 0)"/>
      <use xlink:href="#DejaVuSans-41" transform="translate(159.472656 0)"/>
      <use xlink:href="#DejaVuSans-50" transform="translate(227.880859 0)"/>
      <use xlink:href="#DejaVuSans-20" transform="translate(288.183594 0)"/>
      <use xlink:href="#DejaVuSans-44" transform="translate(319.970703 0)"/>
      <use xlink:href="#DejaVuSans-69" transform="translate(396.972656 0)"/>
      <use xlink:href="#DejaVuSans-6d" transform="translate(424.755859 0)"/>
      <use xlink:href="#DejaVuSans-65" transform="translate(522.167969 0)"/>
      <use xlink:href="#DejaVuSans-6e" transform="translate(583.691406 0)"/>
      <use xlink:href="#DejaVuSans-73" transform="translate(647.070312 0)"/>
      <use xlink:href="#DejaVuSans-69" transform="translate(699.169922 0)"/>
      <use xlink:href="#DejaVuSans-6f" transform="translate(726.953125 0)"/>
      <use xlink:href="#DejaVuSans-6e" transform="translate(788.134766 0)"/>
      <use xlink:href="#DejaVuSans-20" transform="translate(851.513672 0)"/>
      <use xlink:href="#DejaVuSans-31" transform="translate(883.300781 0)"/>
     </g>
    </g>
   </g>
   <g id="matplotlib.axis_2">
    <g id="ytick_1">
     <g id="line2d_9">
      <defs>
       <path id="m769a92429b" d="M 0 0 
L -3.5 0 
" style="stroke: #666666; stroke-width: 0.8"/>
      </defs>
      <g>
       <use xlink:href="#m769a92429b" x="46.415" y="673.715521" style="fill: #666666; stroke: #666666; stroke-width: 0.8"/>
      </g>
     </g>
     <g id="text_10">
      <!-- 2 -->
      <g style="fill: #666666" transform="translate(33.0525 677.51474) scale(0.1 -0.1)">
       <use xlink:href="#DejaVuSans-32"/>
      </g>
     </g>
    </g>
    <g id="ytick_2">
     <g id="line2d_10">
      <g>
       <use xlink:href="#m769a92429b" x="46.415" y="540.615443" style="fill: #666666; stroke: #666666; stroke-width: 0.8"/>
      </g>
     </g>
     <g id="text_11">
      <!-- 4 -->
      <g style="fill: #666666" transform="translate(33.0525 544.414661) scale(0.1 -0.1)">
       <defs>
        <path id="DejaVuSans-34" d="M 2419 4116 
L 825 1625 
L 2419 1625 
L 2419 4116 
z
M 2253 4666 
L 3047 4666 
L 3047 1625 
L 3713 1625 
L 3713 1100 
L 3047 1100 
L 3047 0 
L 2419 0 
L 2419 1100 
L 313 1100 
L 313 1709 
L 2253 4666 
z
" transform="scale(0.015625)"/>
       </defs>
       <use xlink:href="#DejaVuSans-34"/>
      </g>
     </g>
    </g>
    <g id="ytick_3">
     <g id="line2d_11">
      <g>
       <use xlink:href="#m769a92429b" x="46.415" y="407.515364" style="fill: #666666; stroke: #666666; stroke-width: 0.8"/>
      </g>
     </g>
     <g id="text_12">
      <!-- 6 -->
      <g style="fill: #666666" transform="translate(33.0525 411.314583) scale(0.1 -0.1)">
       <defs>
        <path id="DejaVuSans-36" d="M 2113 2584 
Q 1688 2584 1439 2293 
Q 1191 2003 1191 1497 
Q 1191 994 1439 701 
Q 1688 409 2113 409 
Q 2538 409 2786 701 
Q 3034 994 3034 1497 
Q 3034 2003 2786 2293 
Q 2538 2584 2113 2584 
z
M 3366 4563 
L 3366 3988 
Q 3128 4100 2886 4159 
Q 2644 4219 2406 4219 
Q 1781 4219 1451 3797 
Q 1122 3375 1075 2522 
Q 1259 2794 1537 2939 
Q 1816 3084 2150 3084 
Q 2853 3084 3261 2657 
Q 3669 2231 3669 1497 
Q 3669 778 3244 343 
Q 2819 -91 2113 -91 
Q 1303 -91 875 529 
Q 447 1150 447 2328 
Q 447 3434 972 4092 
Q 1497 4750 2381 4750 
Q 2619 4750 2861 4703 
Q 3103 4656 3366 4563 
z
" transform="scale(0.015625)"/>
       </defs>
       <use xlink:href="#DejaVuSans-36"/>
      </g>
     </g>
    </g>
    <g id="ytick_4">
     <g id="line2d_12">
      <g>
       <use xlink:href="#m769a92429b" x="46.415" y="274.415285" style="fill: #666666; stroke: #666666; stroke-width: 0.8"/>
      </g>
     </g>
     <g id="text_13">
      <!-- 8 -->
      <g style="fill: #666666" transform="translate(33.0525 278.214504) scale(0.1 -0.1)">
       <defs>
        <path id="DejaVuSans-38" d="M 2034 2216 
Q 1584 2216 1326 1975 
Q 1069 1734 1069 1313 
Q 1069 891 1326 650 
Q 1584 409 2034 409 
Q 2484 409 2743 651 
Q 3003 894 3003 1313 
Q 3003 1734 2745 1975 
Q 2488 2216 2034 2216 
z
M 1403 2484 
Q 997 2584 770 2862 
Q 544 3141 544 3541 
Q 544 4100 942 4425 
Q 1341 4750 2034 4750 
Q 2731 4750 3128 4425 
Q 3525 4100 3525 3541 
Q 3525 3141 3298 2862 
Q 3072 2584 2669 2484 
Q 3125 2378 3379 2068 
Q 3634 1759 3634 1313 
Q 3634 634 3220 271 
Q 2806 -91 2034 -91 
Q 1263 -91 848 271 
Q 434 634 434 1313 
Q 434 1759 690 2068 
Q 947 2378 1403 2484 
z
M 1172 3481 
Q 1172 3119 1398 2916 
Q 1625 2713 2034 2713 
Q 2441 2713 2670 2916 
Q 2900 3119 2900 3481 
Q 2900 3844 2670 4047 
Q 2441 4250 2034 4250 
Q 1625 4250 1398 4047 
Q 1172 3844 1172 3481 
z
" transform="scale(0.015625)"/>
       </defs>
       <use xlink:href="#DejaVuSans-38"/>
      </g>
     </g>
    </g>
    <g id="ytick_5">
     <g id="line2d_13">
      <g>
       <use xlink:href="#m769a92429b" x="46.415" y="141.315206" style="fill: #666666; stroke: #666666; stroke-width: 0.8"/>
      </g>
     </g>
     <g id="text_14">
      <!-- 10 -->
      <g style="fill: #666666" transform="translate(26.69 145.114425) scale(0.1 -0.1)">
       <use xlink:href="#DejaVuSans-31"/>
       <use xlink:href="#DejaVuSans-30" transform="translate(63.623047 0)"/>
      </g>
     </g>
    </g>
    <g id="text_15">
     <!-- UMAP Dimension 2 -->
     <g style="fill: #c5c5b0" transform="translate(20.194375 416.453438) rotate(-90) scale(0.12 -0.12)">
      <use xlink:href="#DejaVuSans-55"/>
      <use xlink:href="#DejaVuSans-4d" transform="translate(73.193359 0)"/>
      <use xlink:href="#DejaVuSans-41" transform="translate(159.472656 0)"/>
      <use xlink:href="#DejaVuSans-50" transform="translate(227.880859 0)"/>
      <use xlink:href="#DejaVuSans-20" transform="translate(288.183594 0)"/>
      <use xlink:href="#DejaVuSans-44" transform="translate(319.970703 0)"/>
      <use xlink:href="#DejaVuSans-69" transform="translate(396.972656 0)"/>
      <use xlink:href="#DejaVuSans-6d" transform="translate(424.755859 0)"/>
      <use xlink:href="#DejaVuSans-65" transform="translate(522.167969 0)"/>
      <use xlink:href="#DejaVuSans-6e" transform="translate(583.691406 0)"/>
      <use xlink:href="#DejaVuSans-73" transform="translate(647.070312 0)"/>
      <use xlink:href="#DejaVuSans-69" transform="translate(699.169922 0)"/>
      <use xlink:href="#DejaVuSans-6f" transform="translate(726.953125 0)"/>
      <use xlink:href="#DejaVuSans-6e" transform="translate(788.134766 0)"/>
      <use xlink:href="#DejaVuSans-20" transform="translate(851.513672 0)"/>
      <use xlink:href="#DejaVuSans-32" transform="translate(883.300781 0)"/>
     </g>
    </g>
   </g>
   <g id="line2d_14">
    <path d="M 690.855414 647.458182 
L 666.749017 603.307859 
" clip-path="url(#p19db12966f)" style="fill: none; stroke-dasharray: 5.55,2.4; stroke-dashoffset: 0; stroke: #50c878; stroke-opacity: 0.3; stroke-width: 1.5"/>
   </g>
   <g id="line2d_15">
    <path d="M 679.804128 542.167879 
L 719.971957 512.261088 
" clip-path="url(#p19db12966f)" style="fill: none; stroke-dasharray: 5.55,2.4; stroke-dashoffset: 0; stroke: #50c878; stroke-opacity: 0.3; stroke-width: 1.5"/>
   </g>
   <g id="line2d_16">
    <path d="M 709.80684 626.676796 
L 690.855414 647.458182 
" clip-path="url(#p19db12966f)" style="fill: none; stroke-dasharray: 5.55,2.4; stroke-dashoffset: 0; stroke: #50c878; stroke-opacity: 0.3; stroke-width: 1.5"/>
   </g>
   <g id="line2d_17">
    <path d="M 670.405724 560.191208 
L 666.749017 603.307859 
" clip-path="url(#p19db12966f)" style="fill: none; stroke-dasharray: 5.55,2.4; stroke-dashoffset: 0; stroke: #50c878; stroke-opacity: 0.3; stroke-width: 1.5"/>
   </g>
   <g id="line2d_18">
    <path d="M 670.405724 560.191208 
L 679.804128 542.167879 
" clip-path="url(#p19db12966f)" style="fill: none; stroke-dasharray: 5.55,2.4; stroke-dashoffset: 0; stroke: #50c878; stroke-opacity: 0.3; stroke-width: 1.5"/>
   </g>
   <g id="line2d_19">
    <path d="M 719.577009 558.494559 
L 719.971957 512.261088 
" clip-path="url(#p19db12966f)" style="fill: none; stroke-dasharray: 5.55,2.4; stroke-dashoffset: 0; stroke: #50c878; stroke-opacity: 0.3; stroke-width: 1.5"/>
   </g>
   <g id="line2d_20">
    <path d="M 719.577009 558.494559 
L 709.80684 626.676796 
" clip-path="url(#p19db12966f)" style="fill: none; stroke-dasharray: 5.55,2.4; stroke-dashoffset: 0; stroke: #50c878; stroke-opacity: 0.3; stroke-width: 1.5"/>
   </g>
   <g id="line2d_21">
    <path d="M 82.867425 150.621255 
L 82.15651 196.317159 
" clip-path="url(#p19db12966f)" style="fill: none; stroke-dasharray: 5.55,2.4; stroke-dashoffset: 0; stroke: #cd7f32; stroke-opacity: 0.3; stroke-width: 1.5"/>
   </g>
   <g id="line2d_22">
    <path d="M 158.569269 284.2179 
L 117.01204 293.711462 
" clip-path="url(#p19db12966f)" style="fill: none; stroke-dasharray: 5.55,2.4; stroke-dashoffset: 0; stroke: #cd7f32; stroke-opacity: 0.3; stroke-width: 1.5"/>
   </g>
   <g id="line2d_23">
    <path d="M 108.903743 78.562592 
L 121.850717 71.821818 
" clip-path="url(#p19db12966f)" style="fill: none; stroke-dasharray: 5.55,2.4; stroke-dashoffset: 0; stroke: #cd7f32; stroke-opacity: 0.3; stroke-width: 1.5"/>
   </g>
   <g id="line2d_24">
    <path d="M 108.903743 78.562592 
L 82.867425 150.621255 
" clip-path="url(#p19db12966f)" style="fill: none; stroke-dasharray: 5.55,2.4; stroke-dashoffset: 0; stroke: #cd7f32; stroke-opacity: 0.3; stroke-width: 1.5"/>
   </g>
   <g id="line2d_25">
    <path d="M 184.393789 151.129245 
L 187.907145 191.374154 
" clip-path="url(#p19db12966f)" style="fill: none; stroke-dasharray: 5.55,2.4; stroke-dashoffset: 0; stroke: #cd7f32; stroke-opacity: 0.3; stroke-width: 1.5"/>
   </g>
   <g id="line2d_26">
    <path d="M 184.393789 151.129245 
L 179.57322 140.756061 
" clip-path="url(#p19db12966f)" style="fill: none; stroke-dasharray: 5.55,2.4; stroke-dashoffset: 0; stroke: #cd7f32; stroke-opacity: 0.3; stroke-width: 1.5"/>
   </g>
   <g id="line2d_27">
    <path d="M 163.512398 118.921361 
L 121.850717 71.821818 
" clip-path="url(#p19db12966f)" style="fill: none; stroke-dasharray: 5.55,2.4; stroke-dashoffset: 0; stroke: #cd7f32; stroke-opacity: 0.3; stroke-width: 1.5"/>
   </g>
   <g id="line2d_28">
    <path d="M 163.512398 118.921361 
L 179.57322 140.756061 
" clip-path="url(#p19db12966f)" style="fill: none; stroke-dasharray: 5.55,2.4; stroke-dashoffset: 0; stroke: #cd7f32; stroke-opacity: 0.3; stroke-width: 1.5"/>
   </g>
   <g id="line2d_29">
    <path d="M 82.419846 211.253689 
L 82.15651 196.317159 
" clip-path="url(#p19db12966f)" style="fill: none; stroke-dasharray: 5.55,2.4; stroke-dashoffset: 0; stroke: #cd7f32; stroke-opacity: 0.3; stroke-width: 1.5"/>
   </g>
   <g id="line2d_30">
    <path d="M 82.419846 211.253689 
L 96.535615 264.074533 
" clip-path="url(#p19db12966f)" style="fill: none; stroke-dasharray: 5.55,2.4; stroke-dashoffset: 0; stroke: #cd7f32; stroke-opacity: 0.3; stroke-width: 1.5"/>
   </g>
   <g id="line2d_31">
    <path d="M 107.351391 285.153309 
L 96.535615 264.074533 
" clip-path="url(#p19db12966f)" style="fill: none; stroke-dasharray: 5.55,2.4; stroke-dashoffset: 0; stroke: #cd7f32; stroke-opacity: 0.3; stroke-width: 1.5"/>
   </g>
   <g id="line2d_32">
    <path d="M 186.093532 207.915575 
L 187.907145 191.374154 
" clip-path="url(#p19db12966f)" style="fill: none; stroke-dasharray: 5.55,2.4; stroke-dashoffset: 0; stroke: #cd7f32; stroke-opacity: 0.3; stroke-width: 1.5"/>
   </g>
   <g id="line2d_33">
    <path d="M 186.093532 207.915575 
L 158.569269 284.2179 
" clip-path="url(#p19db12966f)" style="fill: none; stroke-dasharray: 5.55,2.4; stroke-dashoffset: 0; stroke: #cd7f32; stroke-opacity: 0.3; stroke-width: 1.5"/>
   </g>
   <g id="line2d_34">
    <path d="M 110.764162 289.305896 
L 117.01204 293.711462 
" clip-path="url(#p19db12966f)" style="fill: none; stroke-dasharray: 5.55,2.4; stroke-dashoffset: 0; stroke: #cd7f32; stroke-opacity: 0.3; stroke-width: 1.5"/>
   </g>
   <g id="line2d_35">
    <path d="M 110.764162 289.305896 
L 107.351391 285.153309 
" clip-path="url(#p19db12966f)" style="fill: none; stroke-dasharray: 5.55,2.4; stroke-dashoffset: 0; stroke: #cd7f32; stroke-opacity: 0.3; stroke-width: 1.5"/>
   </g>
   <g id="line2d_36">
    <path d="M 778.24064 471.293892 
L 758.163332 465.152374 
" clip-path="url(#p19db12966f)" style="fill: none; stroke-dasharray: 5.55,2.4; stroke-dashoffset: 0; stroke: #c0c0c0; stroke-opacity: 0.3; stroke-width: 1.5"/>
   </g>
   <g id="line2d_37">
    <path d="M 770.50862 277.515238 
L 758.163332 465.152374 
" clip-path="url(#p19db12966f)" style="fill: none; stroke-dasharray: 5.55,2.4; stroke-dashoffset: 0; stroke: #c0c0c0; stroke-opacity: 0.3; stroke-width: 1.5"/>
   </g>
   <g id="line2d_38">
    <path d="M 781.891123 470.435595 
L 796.986712 314.405469 
" clip-path="url(#p19db12966f)" style="fill: none; stroke-dasharray: 5.55,2.4; stroke-dashoffset: 0; stroke: #c0c0c0; stroke-opacity: 0.3; stroke-width: 1.5"/>
   </g>
   <g id="line2d_39">
    <path d="M 781.891123 470.435595 
L 778.24064 471.293892 
" clip-path="url(#p19db12966f)" style="fill: none; stroke-dasharray: 5.55,2.4; stroke-dashoffset: 0; stroke: #c0c0c0; stroke-opacity: 0.3; stroke-width: 1.5"/>
   </g>
   <g id="line2d_40">
    <path d="M 787.363443 273.963717 
L 796.986712 314.405469 
" clip-path="url(#p19db12966f)" style="fill: none; stroke-dasharray: 5.55,2.4; stroke-dashoffset: 0; stroke: #c0c0c0; stroke-opacity: 0.3; stroke-width: 1.5"/>
   </g>
   <g id="line2d_41">
    <path d="M 787.363443 273.963717 
L 770.50862 277.515238 
" clip-path="url(#p19db12966f)" style="fill: none; stroke-dasharray: 5.55,2.4; stroke-dashoffset: 0; stroke: #c0c0c0; stroke-opacity: 0.3; stroke-width: 1.5"/>
   </g>
   <g id="line2d_42">
    <path d="M 601.548803 315.333548 
L 605.04456 285.833708 
" clip-path="url(#p19db12966f)" style="fill: none; stroke-dasharray: 5.55,2.4; stroke-dashoffset: 0; stroke: #e0115f; stroke-opacity: 0.3; stroke-width: 1.5"/>
   </g>
   <g id="line2d_43">
    <path d="M 602.759055 282.582385 
L 592.39721 297.402357 
" clip-path="url(#p19db12966f)" style="fill: none; stroke-dasharray: 5.55,2.4; stroke-dashoffset: 0; stroke: #e0115f; stroke-opacity: 0.3; stroke-width: 1.5"/>
   </g>
   <g id="line2d_44">
    <path d="M 602.759055 282.582385 
L 605.04456 285.833708 
" clip-path="url(#p19db12966f)" style="fill: none; stroke-dasharray: 5.55,2.4; stroke-dashoffset: 0; stroke: #e0115f; stroke-opacity: 0.3; stroke-width: 1.5"/>
   </g>
   <g id="line2d_45">
    <path d="M 596.361184 307.33949 
L 592.39721 297.402357 
" clip-path="url(#p19db12966f)" style="fill: none; stroke-dasharray: 5.55,2.4; stroke-dashoffset: 0; stroke: #e0115f; stroke-opacity: 0.3; stroke-width: 1.5"/>
   </g>
   <g id="line2d_46">
    <path d="M 596.361184 307.33949 
L 601.548803 315.333548 
" clip-path="url(#p19db12966f)" style="fill: none; stroke-dasharray: 5.55,2.4; stroke-dashoffset: 0; stroke: #e0115f; stroke-opacity: 0.3; stroke-width: 1.5"/>
   </g>
   <g id="patch_7">
    <path d="M 46.415 676.24 
L 46.415 43.04 
" style="fill: none; stroke: #4a4a3d; stroke-width: 0.8; stroke-linejoin: miter; stroke-linecap: square"/>
   </g>
   <g id="patch_8">
    <path d="M 832.728222 676.24 
L 832.728222 43.04 
" style="fill: none; stroke: #4a4a3d; stroke-width: 0.8; stroke-linejoin: miter; stroke-linecap: square"/>
   </g>
   <g id="patch_9">
    <path d="M 46.415 676.24 
L 832.728222 676.24 
" style="fill: none; stroke: #4a4a3d; stroke-width: 0.8; stroke-linejoin: miter; stroke-linecap: square"/>
   </g>
   <g id="patch_10">
    <path d="M 46.415 43.04 
L 832.728222 43.04 
" style="fill: none; stroke: #4a4a3d; stroke-width: 0.8; stroke-linejoin: miter; stroke-linecap: square"/>
   </g>
   <g id="text_16">
    <g id="patch_11">
     <path d="M 781.24064 473.373579 
L 821.626578 473.373579 
Q 824.626578 473.373579 824.626578 470.373579 
L 824.626578 460.695454 
Q 824.626578 457.695454 821.626578 457.695454 
L 781.24064 457.695454 
Q 778.24064 457.695454 778.24064 460.695454 
L 778.24064 470.373579 
Q 778.24064 473.373579 781.24064 473.373579 
z
" style="fill: #c0c0c0; opacity: 0.3"/>
    </g>
    <!-- Martini -->
    <g style="fill: #f5f5dc" transform="translate(781.24064 468.293892) scale(0.1 -0.1)">
     <defs>
      <path id="DejaVuSans-Bold-4d" d="M 588 4666 
L 2119 4666 
L 3181 2169 
L 4250 4666 
L 5778 4666 
L 5778 0 
L 4641 0 
L 4641 3413 
L 3566 897 
L 2803 897 
L 1728 3413 
L 1728 0 
L 588 0 
L 588 4666 
z
" transform="scale(0.015625)"/>
      <path id="DejaVuSans-Bold-61" d="M 2106 1575 
Q 1756 1575 1579 1456 
Q 1403 1338 1403 1106 
Q 1403 894 1545 773 
Q 1688 653 1941 653 
Q 2256 653 2472 879 
Q 2688 1106 2688 1447 
L 2688 1575 
L 2106 1575 
z
M 3816 1997 
L 3816 0 
L 2688 0 
L 2688 519 
Q 2463 200 2181 54 
Q 1900 -91 1497 -91 
Q 953 -91 614 226 
Q 275 544 275 1050 
Q 275 1666 698 1953 
Q 1122 2241 2028 2241 
L 2688 2241 
L 2688 2328 
Q 2688 2594 2478 2717 
Q 2269 2841 1825 2841 
Q 1466 2841 1156 2769 
Q 847 2697 581 2553 
L 581 3406 
Q 941 3494 1303 3539 
Q 1666 3584 2028 3584 
Q 2975 3584 3395 3211 
Q 3816 2838 3816 1997 
z
" transform="scale(0.015625)"/>
      <path id="DejaVuSans-Bold-72" d="M 3138 2547 
Q 2991 2616 2845 2648 
Q 2700 2681 2553 2681 
Q 2122 2681 1889 2404 
Q 1656 2128 1656 1613 
L 1656 0 
L 538 0 
L 538 3500 
L 1656 3500 
L 1656 2925 
Q 1872 3269 2151 3426 
Q 2431 3584 2822 3584 
Q 2878 3584 2943 3579 
Q 3009 3575 3134 3559 
L 3138 2547 
z
" transform="scale(0.015625)"/>
      <path id="DejaVuSans-Bold-74" d="M 1759 4494 
L 1759 3500 
L 2913 3500 
L 2913 2700 
L 1759 2700 
L 1759 1216 
Q 1759 972 1856 886 
Q 1953 800 2241 800 
L 2816 800 
L 2816 0 
L 1856 0 
Q 1194 0 917 276 
Q 641 553 641 1216 
L 641 2700 
L 84 2700 
L 84 3500 
L 641 3500 
L 641 4494 
L 1759 4494 
z
" transform="scale(0.015625)"/>
      <path id="DejaVuSans-Bold-69" d="M 538 3500 
L 1656 3500 
L 1656 0 
L 538 0 
L 538 3500 
z
M 538 4863 
L 1656 4863 
L 1656 3950 
L 538 3950 
L 538 4863 
z
" transform="scale(0.015625)"/>
      <path id="DejaVuSans-Bold-6e" d="M 4056 2131 
L 4056 0 
L 2931 0 
L 2931 347 
L 2931 1631 
Q 2931 2084 2911 2256 
Q 2891 2428 2841 2509 
Q 2775 2619 2662 2680 
Q 2550 2741 2406 2741 
Q 2056 2741 1856 2470 
Q 1656 2200 1656 1722 
L 1656 0 
L 538 0 
L 538 3500 
L 1656 3500 
L 1656 2988 
Q 1909 3294 2193 3439 
Q 2478 3584 2822 3584 
Q 3428 3584 3742 3212 
Q 4056 2841 4056 2131 
z
" transform="scale(0.015625)"/>
     </defs>
     <use xlink:href="#DejaVuSans-Bold-4d"/>
     <use xlink:href="#DejaVuSans-Bold-61" transform="translate(99.511719 0)"/>
     <use xlink:href="#DejaVuSans-Bold-72" transform="translate(166.992188 0)"/>
     <use xlink:href="#DejaVuSans-Bold-74" transform="translate(216.308594 0)"/>
     <use xlink:href="#DejaVuSans-Bold-69" transform="translate(264.111328 0)"/>
     <use xlink:href="#DejaVuSans-Bold-6e" transform="translate(298.388672 0)"/>
     <use xlink:href="#DejaVuSans-Bold-69" transform="translate(369.580078 0)"/>
    </g>
   </g>
   <g id="text_17">
    <g id="patch_12">
     <path d="M 784.536575 299.060623 
L 845.649075 299.060623 
Q 848.649075 299.060623 848.649075 296.060623 
L 848.649075 286.382498 
Q 848.649075 283.382498 845.649075 283.382498 
L 784.536575 283.382498 
Q 781.536575 283.382498 781.536575 286.382498 
L 781.536575 296.060623 
Q 781.536575 299.060623 784.536575 299.060623 
z
" style="fill: #c0c0c0; opacity: 0.3"/>
    </g>
    <!-- Manhattan -->
    <g style="fill: #f5f5dc" transform="translate(784.536575 293.980936) scale(0.1 -0.1)">
     <defs>
      <path id="DejaVuSans-Bold-68" d="M 4056 2131 
L 4056 0 
L 2931 0 
L 2931 347 
L 2931 1625 
Q 2931 2084 2911 2256 
Q 2891 2428 2841 2509 
Q 2775 2619 2662 2680 
Q 2550 2741 2406 2741 
Q 2056 2741 1856 2470 
Q 1656 2200 1656 1722 
L 1656 0 
L 538 0 
L 538 4863 
L 1656 4863 
L 1656 2988 
Q 1909 3294 2193 3439 
Q 2478 3584 2822 3584 
Q 3428 3584 3742 3212 
Q 4056 2841 4056 2131 
z
" transform="scale(0.015625)"/>
     </defs>
     <use xlink:href="#DejaVuSans-Bold-4d"/>
     <use xlink:href="#DejaVuSans-Bold-61" transform="translate(99.511719 0)"/>
     <use xlink:href="#DejaVuSans-Bold-6e" transform="translate(166.992188 0)"/>
     <use xlink:href="#DejaVuSans-Bold-68" transform="translate(238.183594 0)"/>
     <use xlink:href="#DejaVuSans-Bold-61" transform="translate(309.375 0)"/>
     <use xlink:href="#DejaVuSans-Bold-74" transform="translate(376.855469 0)"/>
     <use xlink:href="#DejaVuSans-Bold-74" transform="translate(424.658203 0)"/>
     <use xlink:href="#DejaVuSans-Bold-61" transform="translate(472.460938 0)"/>
     <use xlink:href="#DejaVuSans-Bold-6e" transform="translate(539.941406 0)"/>
    </g>
   </g>
   <g id="text_18">
    <g id="patch_13">
     <path d="M 718.234101 571.555076 
L 762.891913 571.555076 
Q 765.891913 571.555076 765.891913 568.555076 
L 765.891913 558.798826 
Q 765.891913 555.798826 762.891913 555.798826 
L 718.234101 555.798826 
Q 715.234101 555.798826 715.234101 558.798826 
L 715.234101 568.555076 
Q 715.234101 571.555076 718.234101 571.555076 
z
" style="fill: #50c878; opacity: 0.3"/>
    </g>
    <!-- Negroni -->
    <g style="fill: #f5f5dc" transform="translate(718.234101 566.397264) scale(0.1 -0.1)">
     <defs>
      <path id="DejaVuSans-Bold-4e" d="M 588 4666 
L 1931 4666 
L 3628 1466 
L 3628 4666 
L 4769 4666 
L 4769 0 
L 3425 0 
L 1728 3200 
L 1728 0 
L 588 0 
L 588 4666 
z
" transform="scale(0.015625)"/>
      <path id="DejaVuSans-Bold-65" d="M 4031 1759 
L 4031 1441 
L 1416 1441 
Q 1456 1047 1700 850 
Q 1944 653 2381 653 
Q 2734 653 3104 758 
Q 3475 863 3866 1075 
L 3866 213 
Q 3469 63 3072 -14 
Q 2675 -91 2278 -91 
Q 1328 -91 801 392 
Q 275 875 275 1747 
Q 275 2603 792 3093 
Q 1309 3584 2216 3584 
Q 3041 3584 3536 3087 
Q 4031 2591 4031 1759 
z
M 2881 2131 
Q 2881 2450 2695 2645 
Q 2509 2841 2209 2841 
Q 1884 2841 1681 2658 
Q 1478 2475 1428 2131 
L 2881 2131 
z
" transform="scale(0.015625)"/>
      <path id="DejaVuSans-Bold-67" d="M 2919 594 
Q 2688 288 2409 144 
Q 2131 0 1766 0 
Q 1125 0 706 504 
Q 288 1009 288 1791 
Q 288 2575 706 3076 
Q 1125 3578 1766 3578 
Q 2131 3578 2409 3434 
Q 2688 3291 2919 2981 
L 2919 3500 
L 4044 3500 
L 4044 353 
Q 4044 -491 3511 -936 
Q 2978 -1381 1966 -1381 
Q 1638 -1381 1331 -1331 
Q 1025 -1281 716 -1178 
L 716 -306 
Q 1009 -475 1290 -558 
Q 1572 -641 1856 -641 
Q 2406 -641 2662 -400 
Q 2919 -159 2919 353 
L 2919 594 
z
M 2181 2772 
Q 1834 2772 1640 2515 
Q 1447 2259 1447 1791 
Q 1447 1309 1634 1061 
Q 1822 813 2181 813 
Q 2531 813 2725 1069 
Q 2919 1325 2919 1791 
Q 2919 2259 2725 2515 
Q 2531 2772 2181 2772 
z
" transform="scale(0.015625)"/>
      <path id="DejaVuSans-Bold-6f" d="M 2203 2784 
Q 1831 2784 1636 2517 
Q 1441 2250 1441 1747 
Q 1441 1244 1636 976 
Q 1831 709 2203 709 
Q 2569 709 2762 976 
Q 2956 1244 2956 1747 
Q 2956 2250 2762 2517 
Q 2569 2784 2203 2784 
z
M 2203 3584 
Q 3106 3584 3614 3096 
Q 4122 2609 4122 1747 
Q 4122 884 3614 396 
Q 3106 -91 2203 -91 
Q 1297 -91 786 396 
Q 275 884 275 1747 
Q 275 2609 786 3096 
Q 1297 3584 2203 3584 
z
" transform="scale(0.015625)"/>
     </defs>
     <use xlink:href="#DejaVuSans-Bold-4e"/>
     <use xlink:href="#DejaVuSans-Bold-65" transform="translate(83.691406 0)"/>
     <use xlink:href="#DejaVuSans-Bold-67" transform="translate(151.513672 0)"/>
     <use xlink:href="#DejaVuSans-Bold-72" transform="translate(223.095703 0)"/>
     <use xlink:href="#DejaVuSans-Bold-6f" transform="translate(272.412109 0)"/>
     <use xlink:href="#DejaVuSans-Bold-6e" transform="translate(341.113281 0)"/>
     <use xlink:href="#DejaVuSans-Bold-69" transform="translate(412.304688 0)"/>
    </g>
   </g>
   <g id="text_19">
    <g id="patch_14">
     <path d="M 86.634174 205.700319 
L 131.176361 205.700319 
Q 134.176361 205.700319 134.176361 202.700319 
L 134.176361 193.022194 
Q 134.176361 190.022194 131.176361 190.022194 
L 86.634174 190.022194 
Q 83.634174 190.022194 83.634174 193.022194 
L 83.634174 202.700319 
Q 83.634174 205.700319 86.634174 205.700319 
z
" style="fill: #cd7f32; opacity: 0.3"/>
    </g>
    <!-- Daiquiri -->
    <g style="fill: #f5f5dc" transform="translate(86.634174 200.620632) scale(0.1 -0.1)">
     <defs>
      <path id="DejaVuSans-Bold-44" d="M 1791 3756 
L 1791 909 
L 2222 909 
Q 2959 909 3348 1275 
Q 3738 1641 3738 2338 
Q 3738 3031 3350 3393 
Q 2963 3756 2222 3756 
L 1791 3756 
z
M 588 4666 
L 1856 4666 
Q 2919 4666 3439 4514 
Q 3959 4363 4331 4000 
Q 4659 3684 4818 3271 
Q 4978 2859 4978 2338 
Q 4978 1809 4818 1395 
Q 4659 981 4331 666 
Q 3956 303 3431 151 
Q 2906 0 1856 0 
L 588 0 
L 588 4666 
z
" transform="scale(0.015625)"/>
      <path id="DejaVuSans-Bold-71" d="M 2181 2772 
Q 1825 2772 1636 2509 
Q 1447 2247 1447 1747 
Q 1447 1247 1636 984 
Q 1825 722 2181 722 
Q 2541 722 2730 984 
Q 2919 1247 2919 1747 
Q 2919 2247 2730 2509 
Q 2541 2772 2181 2772 
z
M 2919 506 
Q 2688 197 2409 53 
Q 2131 -91 1766 -91 
Q 1119 -91 703 423 
Q 288 938 288 1747 
Q 288 2556 703 3067 
Q 1119 3578 1766 3578 
Q 2131 3578 2409 3434 
Q 2688 3291 2919 2981 
L 2919 3500 
L 4044 3500 
L 4044 -1331 
L 2919 -1331 
L 2919 506 
z
" transform="scale(0.015625)"/>
      <path id="DejaVuSans-Bold-75" d="M 500 1363 
L 500 3500 
L 1625 3500 
L 1625 3150 
Q 1625 2866 1622 2436 
Q 1619 2006 1619 1863 
Q 1619 1441 1641 1255 
Q 1663 1069 1716 984 
Q 1784 875 1895 815 
Q 2006 756 2150 756 
Q 2500 756 2700 1025 
Q 2900 1294 2900 1772 
L 2900 3500 
L 4019 3500 
L 4019 0 
L 2900 0 
L 2900 506 
Q 2647 200 2364 54 
Q 2081 -91 1741 -91 
Q 1134 -91 817 281 
Q 500 653 500 1363 
z
" transform="scale(0.015625)"/>
     </defs>
     <use xlink:href="#DejaVuSans-Bold-44"/>
     <use xlink:href="#DejaVuSans-Bold-61" transform="translate(83.007812 0)"/>
     <use xlink:href="#DejaVuSans-Bold-69" transform="translate(150.488281 0)"/>
     <use xlink:href="#DejaVuSans-Bold-71" transform="translate(184.765625 0)"/>
     <use xlink:href="#DejaVuSans-Bold-75" transform="translate(256.347656 0)"/>
     <use xlink:href="#DejaVuSans-Bold-69" transform="translate(327.539062 0)"/>
     <use xlink:href="#DejaVuSans-Bold-72" transform="translate(361.816406 0)"/>
     <use xlink:href="#DejaVuSans-Bold-69" transform="translate(411.132812 0)"/>
    </g>
   </g>
   <g id="text_20">
    <g id="patch_15">
     <path d="M 604.548803 317.413235 
L 684.537866 317.413235 
Q 687.537866 317.413235 687.537866 314.413235 
L 687.537866 304.73511 
Q 687.537866 301.73511 684.537866 301.73511 
L 604.548803 301.73511 
Q 601.548803 301.73511 601.548803 304.73511 
L 601.548803 314.413235 
Q 601.548803 317.413235 604.548803 317.413235 
z
" style="fill: #e0115f; opacity: 0.3"/>
    </g>
    <!-- Old Fashioned -->
    <g style="fill: #f5f5dc" transform="translate(604.548803 312.333548) scale(0.1 -0.1)">
     <defs>
      <path id="DejaVuSans-Bold-4f" d="M 2719 3878 
Q 2169 3878 1866 3472 
Q 1563 3066 1563 2328 
Q 1563 1594 1866 1187 
Q 2169 781 2719 781 
Q 3272 781 3575 1187 
Q 3878 1594 3878 2328 
Q 3878 3066 3575 3472 
Q 3272 3878 2719 3878 
z
M 2719 4750 
Q 3844 4750 4481 4106 
Q 5119 3463 5119 2328 
Q 5119 1197 4481 553 
Q 3844 -91 2719 -91 
Q 1597 -91 958 553 
Q 319 1197 319 2328 
Q 319 3463 958 4106 
Q 1597 4750 2719 4750 
z
" transform="scale(0.015625)"/>
      <path id="DejaVuSans-Bold-6c" d="M 538 4863 
L 1656 4863 
L 1656 0 
L 538 0 
L 538 4863 
z
" transform="scale(0.015625)"/>
      <path id="DejaVuSans-Bold-64" d="M 2919 2988 
L 2919 4863 
L 4044 4863 
L 4044 0 
L 2919 0 
L 2919 506 
Q 2688 197 2409 53 
Q 2131 -91 1766 -91 
Q 1119 -91 703 423 
Q 288 938 288 1747 
Q 288 2556 703 3070 
Q 1119 3584 1766 3584 
Q 2128 3584 2408 3439 
Q 2688 3294 2919 2988 
z
M 2181 722 
Q 2541 722 2730 984 
Q 2919 1247 2919 1747 
Q 2919 2247 2730 2509 
Q 2541 2772 2181 2772 
Q 1825 2772 1636 2509 
Q 1447 2247 1447 1747 
Q 1447 1247 1636 984 
Q 1825 722 2181 722 
z
" transform="scale(0.015625)"/>
      <path id="DejaVuSans-Bold-20" transform="scale(0.015625)"/>
      <path id="DejaVuSans-Bold-46" d="M 588 4666 
L 3834 4666 
L 3834 3756 
L 1791 3756 
L 1791 2888 
L 3713 2888 
L 3713 1978 
L 1791 1978 
L 1791 0 
L 588 0 
L 588 4666 
z
" transform="scale(0.015625)"/>
      <path id="DejaVuSans-Bold-73" d="M 3272 3391 
L 3272 2541 
Q 2913 2691 2578 2766 
Q 2244 2841 1947 2841 
Q 1628 2841 1473 2761 
Q 1319 2681 1319 2516 
Q 1319 2381 1436 2309 
Q 1553 2238 1856 2203 
L 2053 2175 
Q 2913 2066 3209 1816 
Q 3506 1566 3506 1031 
Q 3506 472 3093 190 
Q 2681 -91 1863 -91 
Q 1516 -91 1145 -36 
Q 775 19 384 128 
L 384 978 
Q 719 816 1070 734 
Q 1422 653 1784 653 
Q 2113 653 2278 743 
Q 2444 834 2444 1013 
Q 2444 1163 2330 1236 
Q 2216 1309 1875 1350 
L 1678 1375 
Q 931 1469 631 1722 
Q 331 1975 331 2491 
Q 331 3047 712 3315 
Q 1094 3584 1881 3584 
Q 2191 3584 2531 3537 
Q 2872 3491 3272 3391 
z
" transform="scale(0.015625)"/>
     </defs>
     <use xlink:href="#DejaVuSans-Bold-4f"/>
     <use xlink:href="#DejaVuSans-Bold-6c" transform="translate(85.009766 0)"/>
     <use xlink:href="#DejaVuSans-Bold-64" transform="translate(119.287109 0)"/>
     <use xlink:href="#DejaVuSans-Bold-20" transform="translate(190.869141 0)"/>
     <use xlink:href="#DejaVuSans-Bold-46" transform="translate(225.683594 0)"/>
     <use xlink:href="#DejaVuSans-Bold-61" transform="translate(288.119141 0)"/>
     <use xlink:href="#DejaVuSans-Bold-73" transform="translate(355.599609 0)"/>
     <use xlink:href="#DejaVuSans-Bold-68" transform="translate(415.121094 0)"/>
     <use xlink:href="#DejaVuSans-Bold-69" transform="translate(486.3125 0)"/>
     <use xlink:href="#DejaVuSans-Bold-6f" transform="translate(520.589844 0)"/>
     <use xlink:href="#DejaVuSans-Bold-6e" transform="translate(589.291016 0)"/>
     <use xlink:href="#DejaVuSans-Bold-65" transform="translate(660.482422 0)"/>
     <use xlink:href="#DejaVuSans-Bold-64" transform="translate(728.304688 0)"/>
    </g>
   </g>
   <g id="text_21">
    <g id="patch_16">
     <path d="M 187.393789 153.287058 
L 242.818789 153.287058 
Q 245.818789 153.287058 245.818789 150.287058 
L 245.818789 140.530808 
Q 245.818789 137.530808 242.818789 137.530808 
L 187.393789 137.530808 
Q 184.393789 137.530808 184.393789 140.530808 
L 184.393789 150.287058 
Q 184.393789 153.287058 187.393789 153.287058 
z
" style="fill: #cd7f32; opacity: 0.3"/>
    </g>
    <!-- Margarita -->
    <g style="fill: #f5f5dc" transform="translate(187.393789 148.129245) scale(0.1 -0.1)">
     <use xlink:href="#DejaVuSans-Bold-4d"/>
     <use xlink:href="#DejaVuSans-Bold-61" transform="translate(99.511719 0)"/>
     <use xlink:href="#DejaVuSans-Bold-72" transform="translate(166.992188 0)"/>
     <use xlink:href="#DejaVuSans-Bold-67" transform="translate(216.308594 0)"/>
     <use xlink:href="#DejaVuSans-Bold-61" transform="translate(287.890625 0)"/>
     <use xlink:href="#DejaVuSans-Bold-72" transform="translate(355.371094 0)"/>
     <use xlink:href="#DejaVuSans-Bold-69" transform="translate(404.6875 0)"/>
     <use xlink:href="#DejaVuSans-Bold-74" transform="translate(438.964844 0)"/>
     <use xlink:href="#DejaVuSans-Bold-61" transform="translate(486.767578 0)"/>
    </g>
   </g>
   <g id="text_22">
    <g id="patch_17">
     <path d="M 91.843614 212.93334 
L 127.171739 212.93334 
Q 130.171739 212.93334 130.171739 209.93334 
L 130.171739 200.17709 
Q 130.171739 197.17709 127.171739 197.17709 
L 91.843614 197.17709 
Q 88.843614 197.17709 88.843614 200.17709 
L 88.843614 209.93334 
Q 88.843614 212.93334 91.843614 212.93334 
z
" style="fill: #cd7f32; opacity: 0.3"/>
    </g>
    <!-- Mojito -->
    <g style="fill: #f5f5dc" transform="translate(91.843614 207.775528) scale(0.1 -0.1)">
     <defs>
      <path id="DejaVuSans-Bold-6a" d="M 538 3500 
L 1656 3500 
L 1656 63 
Q 1656 -641 1318 -1011 
Q 981 -1381 341 -1381 
L -213 -1381 
L -213 -647 
L -19 -647 
Q 300 -647 419 -503 
Q 538 -359 538 63 
L 538 3500 
z
M 538 4863 
L 1656 4863 
L 1656 3950 
L 538 3950 
L 538 4863 
z
" transform="scale(0.015625)"/>
     </defs>
     <use xlink:href="#DejaVuSans-Bold-4d"/>
     <use xlink:href="#DejaVuSans-Bold-6f" transform="translate(99.511719 0)"/>
     <use xlink:href="#DejaVuSans-Bold-6a" transform="translate(168.212891 0)"/>
     <use xlink:href="#DejaVuSans-Bold-69" transform="translate(202.490234 0)"/>
     <use xlink:href="#DejaVuSans-Bold-74" transform="translate(236.767578 0)"/>
     <use xlink:href="#DejaVuSans-Bold-6f" transform="translate(284.570312 0)"/>
    </g>
   </g>
   <g id="text_23">
    <g id="patch_18">
     <path d="M 682.804128 544.247566 
L 755.124441 544.247566 
Q 758.124441 544.247566 758.124441 541.247566 
L 758.124441 531.569441 
Q 758.124441 528.569441 755.124441 528.569441 
L 682.804128 528.569441 
Q 679.804128 528.569441 679.804128 531.569441 
L 679.804128 541.247566 
Q 679.804128 544.247566 682.804128 544.247566 
z
" style="fill: #50c878; opacity: 0.3"/>
    </g>
    <!-- Boulevardier -->
    <g style="fill: #f5f5dc" transform="translate(682.804128 539.167879) scale(0.1 -0.1)">
     <defs>
      <path id="DejaVuSans-Bold-42" d="M 2456 2859 
Q 2741 2859 2887 2984 
Q 3034 3109 3034 3353 
Q 3034 3594 2887 3720 
Q 2741 3847 2456 3847 
L 1791 3847 
L 1791 2859 
L 2456 2859 
z
M 2497 819 
Q 2859 819 3042 972 
Q 3225 1125 3225 1434 
Q 3225 1738 3044 1889 
Q 2863 2041 2497 2041 
L 1791 2041 
L 1791 819 
L 2497 819 
z
M 3616 2497 
Q 4003 2384 4215 2081 
Q 4428 1778 4428 1338 
Q 4428 663 3972 331 
Q 3516 0 2584 0 
L 588 0 
L 588 4666 
L 2394 4666 
Q 3366 4666 3802 4372 
Q 4238 4078 4238 3431 
Q 4238 3091 4078 2852 
Q 3919 2613 3616 2497 
z
" transform="scale(0.015625)"/>
      <path id="DejaVuSans-Bold-76" d="M 97 3500 
L 1216 3500 
L 2088 1081 
L 2956 3500 
L 4078 3500 
L 2700 0 
L 1472 0 
L 97 3500 
z
" transform="scale(0.015625)"/>
     </defs>
     <use xlink:href="#DejaVuSans-Bold-42"/>
     <use xlink:href="#DejaVuSans-Bold-6f" transform="translate(76.220703 0)"/>
     <use xlink:href="#DejaVuSans-Bold-75" transform="translate(144.921875 0)"/>
     <use xlink:href="#DejaVuSans-Bold-6c" transform="translate(216.113281 0)"/>
     <use xlink:href="#DejaVuSans-Bold-65" transform="translate(250.390625 0)"/>
     <use xlink:href="#DejaVuSans-Bold-76" transform="translate(318.212891 0)"/>
     <use xlink:href="#DejaVuSans-Bold-61" transform="translate(383.398438 0)"/>
     <use xlink:href="#DejaVuSans-Bold-72" transform="translate(450.878906 0)"/>
     <use xlink:href="#DejaVuSans-Bold-64" transform="translate(500.195312 0)"/>
     <use xlink:href="#DejaVuSans-Bold-69" transform="translate(571.777344 0)"/>
     <use xlink:href="#DejaVuSans-Bold-65" transform="translate(606.054688 0)"/>
     <use xlink:href="#DejaVuSans-Bold-72" transform="translate(673.876953 0)"/>
    </g>
   </g>
   <g id="text_24">
    <g id="patch_19">
     <path d="M 189.093532 209.995262 
L 246.052907 209.995262 
Q 249.052907 209.995262 249.052907 206.995262 
L 249.052907 197.317137 
Q 249.052907 194.317137 246.052907 194.317137 
L 189.093532 194.317137 
Q 186.093532 194.317137 186.093532 197.317137 
L 186.093532 206.995262 
Q 186.093532 209.995262 189.093532 209.995262 
z
" style="fill: #cd7f32; opacity: 0.3"/>
    </g>
    <!-- Last Word -->
    <g style="fill: #f5f5dc" transform="translate(189.093532 204.915575) scale(0.1 -0.1)">
     <defs>
      <path id="DejaVuSans-Bold-4c" d="M 588 4666 
L 1791 4666 
L 1791 909 
L 3903 909 
L 3903 0 
L 588 0 
L 588 4666 
z
" transform="scale(0.015625)"/>
      <path id="DejaVuSans-Bold-57" d="M 191 4666 
L 1344 4666 
L 2150 1275 
L 2950 4666 
L 4109 4666 
L 4909 1275 
L 5716 4666 
L 6859 4666 
L 5759 0 
L 4372 0 
L 3525 3547 
L 2688 0 
L 1300 0 
L 191 4666 
z
" transform="scale(0.015625)"/>
     </defs>
     <use xlink:href="#DejaVuSans-Bold-4c"/>
     <use xlink:href="#DejaVuSans-Bold-61" transform="translate(63.720703 0)"/>
     <use xlink:href="#DejaVuSans-Bold-73" transform="translate(131.201172 0)"/>
     <use xlink:href="#DejaVuSans-Bold-74" transform="translate(190.722656 0)"/>
     <use xlink:href="#DejaVuSans-Bold-20" transform="translate(238.525391 0)"/>
     <use xlink:href="#DejaVuSans-Bold-57" transform="translate(273.339844 0)"/>
     <use xlink:href="#DejaVuSans-Bold-6f" transform="translate(380.017578 0)"/>
     <use xlink:href="#DejaVuSans-Bold-72" transform="translate(448.71875 0)"/>
     <use xlink:href="#DejaVuSans-Bold-64" transform="translate(498.035156 0)"/>
    </g>
   </g>
   <g id="text_25">
    <g id="patch_20">
     <path d="M 178.168773 167.097493 
L 224.437523 167.097493 
Q 227.437523 167.097493 227.437523 164.097493 
L 227.437523 154.419368 
Q 227.437523 151.419368 224.437523 151.419368 
L 178.168773 151.419368 
Q 175.168773 151.419368 175.168773 154.419368 
L 175.168773 164.097493 
Q 175.168773 167.097493 178.168773 167.097493 
z
" style="fill: #cd7f32; opacity: 0.3"/>
    </g>
    <!-- Aviation -->
    <g style="fill: #f5f5dc" transform="translate(178.168773 162.017806) scale(0.1 -0.1)">
     <defs>
      <path id="DejaVuSans-Bold-41" d="M 3419 850 
L 1538 850 
L 1241 0 
L 31 0 
L 1759 4666 
L 3194 4666 
L 4922 0 
L 3713 0 
L 3419 850 
z
M 1838 1716 
L 3116 1716 
L 2478 3572 
L 1838 1716 
z
" transform="scale(0.015625)"/>
     </defs>
     <use xlink:href="#DejaVuSans-Bold-41"/>
     <use xlink:href="#DejaVuSans-Bold-76" transform="translate(73.767578 0)"/>
     <use xlink:href="#DejaVuSans-Bold-69" transform="translate(138.953125 0)"/>
     <use xlink:href="#DejaVuSans-Bold-61" transform="translate(173.230469 0)"/>
     <use xlink:href="#DejaVuSans-Bold-74" transform="translate(240.710938 0)"/>
     <use xlink:href="#DejaVuSans-Bold-69" transform="translate(288.513672 0)"/>
     <use xlink:href="#DejaVuSans-Bold-6f" transform="translate(322.791016 0)"/>
     <use xlink:href="#DejaVuSans-Bold-6e" transform="translate(391.492188 0)"/>
    </g>
   </g>
   <g id="text_26">
    <g id="patch_21">
     <path d="M 110.351391 287.311122 
L 187.171704 287.311122 
Q 190.171704 287.311122 190.171704 284.311122 
L 190.171704 274.554872 
Q 190.171704 271.554872 187.171704 271.554872 
L 110.351391 271.554872 
Q 107.351391 271.554872 107.351391 274.554872 
L 107.351391 284.311122 
Q 107.351391 287.311122 110.351391 287.311122 
z
" style="fill: #cd7f32; opacity: 0.3"/>
    </g>
    <!-- Whiskey Sour -->
    <g style="fill: #f5f5dc" transform="translate(110.351391 282.153309) scale(0.1 -0.1)">
     <defs>
      <path id="DejaVuSans-Bold-6b" d="M 538 4863 
L 1656 4863 
L 1656 2216 
L 2944 3500 
L 4244 3500 
L 2534 1894 
L 4378 0 
L 3022 0 
L 1656 1459 
L 1656 0 
L 538 0 
L 538 4863 
z
" transform="scale(0.015625)"/>
      <path id="DejaVuSans-Bold-79" d="M 78 3500 
L 1197 3500 
L 2138 1125 
L 2938 3500 
L 4056 3500 
L 2584 -331 
Q 2363 -916 2067 -1148 
Q 1772 -1381 1288 -1381 
L 641 -1381 
L 641 -647 
L 991 -647 
Q 1275 -647 1404 -556 
Q 1534 -466 1606 -231 
L 1638 -134 
L 78 3500 
z
" transform="scale(0.015625)"/>
      <path id="DejaVuSans-Bold-53" d="M 3834 4519 
L 3834 3531 
Q 3450 3703 3084 3790 
Q 2719 3878 2394 3878 
Q 1963 3878 1756 3759 
Q 1550 3641 1550 3391 
Q 1550 3203 1689 3098 
Q 1828 2994 2194 2919 
L 2706 2816 
Q 3484 2659 3812 2340 
Q 4141 2022 4141 1434 
Q 4141 663 3683 286 
Q 3225 -91 2284 -91 
Q 1841 -91 1394 -6 
Q 947 78 500 244 
L 500 1259 
Q 947 1022 1364 901 
Q 1781 781 2169 781 
Q 2563 781 2772 912 
Q 2981 1044 2981 1288 
Q 2981 1506 2839 1625 
Q 2697 1744 2272 1838 
L 1806 1941 
Q 1106 2091 782 2419 
Q 459 2747 459 3303 
Q 459 4000 909 4375 
Q 1359 4750 2203 4750 
Q 2588 4750 2994 4692 
Q 3400 4634 3834 4519 
z
" transform="scale(0.015625)"/>
     </defs>
     <use xlink:href="#DejaVuSans-Bold-57"/>
     <use xlink:href="#DejaVuSans-Bold-68" transform="translate(110.302734 0)"/>
     <use xlink:href="#DejaVuSans-Bold-69" transform="translate(181.494141 0)"/>
     <use xlink:href="#DejaVuSans-Bold-73" transform="translate(215.771484 0)"/>
     <use xlink:href="#DejaVuSans-Bold-6b" transform="translate(275.292969 0)"/>
     <use xlink:href="#DejaVuSans-Bold-65" transform="translate(339.171875 0)"/>
     <use xlink:href="#DejaVuSans-Bold-79" transform="translate(406.994141 0)"/>
     <use xlink:href="#DejaVuSans-Bold-20" transform="translate(472.179688 0)"/>
     <use xlink:href="#DejaVuSans-Bold-53" transform="translate(506.994141 0)"/>
     <use xlink:href="#DejaVuSans-Bold-6f" transform="translate(579.015625 0)"/>
     <use xlink:href="#DejaVuSans-Bold-75" transform="translate(647.716797 0)"/>
     <use xlink:href="#DejaVuSans-Bold-72" transform="translate(718.908203 0)"/>
    </g>
   </g>
   <g id="text_27">
    <g id="patch_22">
     <path d="M 131.057356 103.911526 
L 168.104231 103.911526 
Q 171.104231 103.911526 171.104231 100.911526 
L 171.104231 91.233401 
Q 171.104231 88.233401 168.104231 88.233401 
L 131.057356 88.233401 
Q 128.057356 88.233401 128.057356 91.233401 
L 128.057356 100.911526 
Q 128.057356 103.911526 131.057356 103.911526 
z
" style="fill: #cd7f32; opacity: 0.3"/>
    </g>
    <!-- Gimlet -->
    <g style="fill: #f5f5dc" transform="translate(131.057356 98.831838) scale(0.1 -0.1)">
     <defs>
      <path id="DejaVuSans-Bold-47" d="M 4781 347 
Q 4331 128 3847 18 
Q 3363 -91 2847 -91 
Q 1681 -91 1000 561 
Q 319 1213 319 2328 
Q 319 3456 1012 4103 
Q 1706 4750 2913 4750 
Q 3378 4750 3804 4662 
Q 4231 4575 4609 4403 
L 4609 3438 
Q 4219 3659 3833 3768 
Q 3447 3878 3059 3878 
Q 2341 3878 1952 3476 
Q 1563 3075 1563 2328 
Q 1563 1588 1938 1184 
Q 2313 781 3003 781 
Q 3191 781 3352 804 
Q 3513 828 3641 878 
L 3641 1784 
L 2906 1784 
L 2906 2591 
L 4781 2591 
L 4781 347 
z
" transform="scale(0.015625)"/>
      <path id="DejaVuSans-Bold-6d" d="M 3781 2919 
Q 3994 3244 4286 3414 
Q 4578 3584 4928 3584 
Q 5531 3584 5847 3212 
Q 6163 2841 6163 2131 
L 6163 0 
L 5038 0 
L 5038 1825 
Q 5041 1866 5042 1909 
Q 5044 1953 5044 2034 
Q 5044 2406 4934 2573 
Q 4825 2741 4581 2741 
Q 4263 2741 4089 2478 
Q 3916 2216 3909 1719 
L 3909 0 
L 2784 0 
L 2784 1825 
Q 2784 2406 2684 2573 
Q 2584 2741 2328 2741 
Q 2006 2741 1831 2477 
Q 1656 2213 1656 1722 
L 1656 0 
L 531 0 
L 531 3500 
L 1656 3500 
L 1656 2988 
Q 1863 3284 2130 3434 
Q 2397 3584 2719 3584 
Q 3081 3584 3359 3409 
Q 3638 3234 3781 2919 
z
" transform="scale(0.015625)"/>
     </defs>
     <use xlink:href="#DejaVuSans-Bold-47"/>
     <use xlink:href="#DejaVuSans-Bold-69" transform="translate(82.080078 0)"/>
     <use xlink:href="#DejaVuSans-Bold-6d" transform="translate(116.357422 0)"/>
     <use xlink:href="#DejaVuSans-Bold-6c" transform="translate(220.556641 0)"/>
     <use xlink:href="#DejaVuSans-Bold-65" transform="translate(254.833984 0)"/>
     <use xlink:href="#DejaVuSans-Bold-74" transform="translate(322.65625 0)"/>
    </g>
   </g>
   <g id="text_28">
    <g id="patch_23">
     <path d="M 761.163332 467.232062 
L 834.872707 467.232062 
Q 837.872707 467.232062 837.872707 464.232062 
L 837.872707 454.553937 
Q 837.872707 451.553937 834.872707 451.553937 
L 761.163332 451.553937 
Q 758.163332 451.553937 758.163332 454.553937 
L 758.163332 464.232062 
Q 758.163332 467.232062 761.163332 467.232062 
z
" style="fill: #c0c0c0; opacity: 0.3"/>
    </g>
    <!-- Aperol Spritz -->
    <g style="fill: #f5f5dc" transform="translate(761.163332 462.152374) scale(0.1 -0.1)">
     <defs>
      <path id="DejaVuSans-Bold-70" d="M 1656 506 
L 1656 -1331 
L 538 -1331 
L 538 3500 
L 1656 3500 
L 1656 2988 
Q 1888 3294 2169 3439 
Q 2450 3584 2816 3584 
Q 3463 3584 3878 3070 
Q 4294 2556 4294 1747 
Q 4294 938 3878 423 
Q 3463 -91 2816 -91 
Q 2450 -91 2169 54 
Q 1888 200 1656 506 
z
M 2400 2772 
Q 2041 2772 1848 2508 
Q 1656 2244 1656 1747 
Q 1656 1250 1848 986 
Q 2041 722 2400 722 
Q 2759 722 2948 984 
Q 3138 1247 3138 1747 
Q 3138 2247 2948 2509 
Q 2759 2772 2400 2772 
z
" transform="scale(0.015625)"/>
      <path id="DejaVuSans-Bold-7a" d="M 366 3500 
L 3419 3500 
L 3419 2719 
L 1575 800 
L 3419 800 
L 3419 0 
L 288 0 
L 288 781 
L 2131 2700 
L 366 2700 
L 366 3500 
z
" transform="scale(0.015625)"/>
     </defs>
     <use xlink:href="#DejaVuSans-Bold-41"/>
     <use xlink:href="#DejaVuSans-Bold-70" transform="translate(77.392578 0)"/>
     <use xlink:href="#DejaVuSans-Bold-65" transform="translate(148.974609 0)"/>
     <use xlink:href="#DejaVuSans-Bold-72" transform="translate(216.796875 0)"/>
     <use xlink:href="#DejaVuSans-Bold-6f" transform="translate(266.113281 0)"/>
     <use xlink:href="#DejaVuSans-Bold-6c" transform="translate(334.814453 0)"/>
     <use xlink:href="#DejaVuSans-Bold-20" transform="translate(369.091797 0)"/>
     <use xlink:href="#DejaVuSans-Bold-53" transform="translate(403.90625 0)"/>
     <use xlink:href="#DejaVuSans-Bold-70" transform="translate(475.927734 0)"/>
     <use xlink:href="#DejaVuSans-Bold-72" transform="translate(547.509766 0)"/>
     <use xlink:href="#DejaVuSans-Bold-69" transform="translate(596.826172 0)"/>
     <use xlink:href="#DejaVuSans-Bold-74" transform="translate(631.103516 0)"/>
     <use xlink:href="#DejaVuSans-Bold-7a" transform="translate(678.90625 0)"/>
    </g>
   </g>
   <g id="text_29">
    <!-- Recipe Grammar (ROLE-SLOT) -->
    <g style="fill: #d4af37" transform="translate(304.867861 23.04) scale(0.16 -0.16)">
     <defs>
      <path id="DejaVuSans-Bold-52" d="M 2297 2597 
Q 2675 2597 2839 2737 
Q 3003 2878 3003 3200 
Q 3003 3519 2839 3656 
Q 2675 3794 2297 3794 
L 1791 3794 
L 1791 2597 
L 2297 2597 
z
M 1791 1766 
L 1791 0 
L 588 0 
L 588 4666 
L 2425 4666 
Q 3347 4666 3776 4356 
Q 4206 4047 4206 3378 
Q 4206 2916 3982 2619 
Q 3759 2322 3309 2181 
Q 3556 2125 3751 1926 
Q 3947 1728 4147 1325 
L 4800 0 
L 3519 0 
L 2950 1159 
Q 2778 1509 2601 1637 
Q 2425 1766 2131 1766 
L 1791 1766 
z
" transform="scale(0.015625)"/>
      <path id="DejaVuSans-Bold-63" d="M 3366 3391 
L 3366 2478 
Q 3138 2634 2908 2709 
Q 2678 2784 2431 2784 
Q 1963 2784 1702 2511 
Q 1441 2238 1441 1747 
Q 1441 1256 1702 982 
Q 1963 709 2431 709 
Q 2694 709 2930 787 
Q 3166 866 3366 1019 
L 3366 103 
Q 3103 6 2833 -42 
Q 2563 -91 2291 -91 
Q 1344 -91 809 395 
Q 275 881 275 1747 
Q 275 2613 809 3098 
Q 1344 3584 2291 3584 
Q 2566 3584 2833 3536 
Q 3100 3488 3366 3391 
z
" transform="scale(0.015625)"/>
      <path id="DejaVuSans-Bold-28" d="M 2413 -844 
L 1484 -844 
Q 1006 -72 778 623 
Q 550 1319 550 2003 
Q 550 2688 779 3389 
Q 1009 4091 1484 4856 
L 2413 4856 
Q 2013 4116 1813 3408 
Q 1613 2700 1613 2009 
Q 1613 1319 1811 609 
Q 2009 -100 2413 -844 
z
" transform="scale(0.015625)"/>
      <path id="DejaVuSans-Bold-45" d="M 588 4666 
L 3834 4666 
L 3834 3756 
L 1791 3756 
L 1791 2888 
L 3713 2888 
L 3713 1978 
L 1791 1978 
L 1791 909 
L 3903 909 
L 3903 0 
L 588 0 
L 588 4666 
z
" transform="scale(0.015625)"/>
      <path id="DejaVuSans-Bold-2d" d="M 347 2297 
L 2309 2297 
L 2309 1388 
L 347 1388 
L 347 2297 
z
" transform="scale(0.015625)"/>
      <path id="DejaVuSans-Bold-54" d="M 31 4666 
L 4331 4666 
L 4331 3756 
L 2784 3756 
L 2784 0 
L 1581 0 
L 1581 3756 
L 31 3756 
L 31 4666 
z
" transform="scale(0.015625)"/>
      <path id="DejaVuSans-Bold-29" d="M 513 -844 
Q 913 -100 1113 609 
Q 1313 1319 1313 2009 
Q 1313 2700 1113 3408 
Q 913 4116 513 4856 
L 1441 4856 
Q 1916 4091 2145 3389 
Q 2375 2688 2375 2003 
Q 2375 1319 2147 623 
Q 1919 -72 1441 -844 
L 513 -844 
z
" transform="scale(0.015625)"/>
     </defs>
     <use xlink:href="#DejaVuSans-Bold-52"/>
     <use xlink:href="#DejaVuSans-Bold-65" transform="translate(77.001953 0)"/>
     <use xlink:href="#DejaVuSans-Bold-63" transform="translate(144.824219 0)"/>
     <use xlink:href="#DejaVuSans-Bold-69" transform="translate(204.101562 0)"/>
     <use xlink:href="#DejaVuSans-Bold-70" transform="translate(238.378906 0)"/>
     <use xlink:href="#DejaVuSans-Bold-65" transform="translate(309.960938 0)"/>
     <use xlink:href="#DejaVuSans-Bold-20" transform="translate(377.783203 0)"/>
     <use xlink:href="#DejaVuSans-Bold-47" transform="translate(412.597656 0)"/>
     <use xlink:href="#DejaVuSans-Bold-72" transform="translate(494.677734 0)"/>
     <use xlink:href="#DejaVuSans-Bold-61" transform="translate(543.994141 0)"/>
     <use xlink:href="#DejaVuSans-Bold-6d" transform="translate(611.474609 0)"/>
     <use xlink:href="#DejaVuSans-Bold-6d" transform="translate(715.673828 0)"/>
     <use xlink:href="#DejaVuSans-Bold-61" transform="translate(819.873047 0)"/>
     <use xlink:href="#DejaVuSans-Bold-72" transform="translate(887.353516 0)"/>
     <use xlink:href="#DejaVuSans-Bold-20" transform="translate(936.669922 0)"/>
     <use xlink:href="#DejaVuSans-Bold-28" transform="translate(971.484375 0)"/>
     <use xlink:href="#DejaVuSans-Bold-52" transform="translate(1017.1875 0)"/>
     <use xlink:href="#DejaVuSans-Bold-4f" transform="translate(1094.189453 0)"/>
     <use xlink:href="#DejaVuSans-Bold-4c" transform="translate(1179.199219 0)"/>
     <use xlink:href="#DejaVuSans-Bold-45" transform="translate(1242.919922 0)"/>
     <use xlink:href="#DejaVuSans-Bold-2d" transform="translate(1311.230469 0)"/>
     <use xlink:href="#DejaVuSans-Bold-53" transform="translate(1352.734375 0)"/>
     <use xlink:href="#DejaVuSans-Bold-4c" transform="translate(1424.755859 0)"/>
     <use xlink:href="#DejaVuSans-Bold-4f" transform="translate(1484.851562 0)"/>
     <use xlink:href="#DejaVuSans-Bold-54" transform="translate(1569.861328 0)"/>
     <use xlink:href="#DejaVuSans-Bold-29" transform="translate(1638.074219 0)"/>
    </g>
   </g>
   <g id="legend_1">
    <g id="patch_24">
     <path d="M 748.695409 109.7525 
L 825.728222 109.7525 
Q 827.728222 109.7525 827.728222 107.7525 
L 827.728222 50.04 
Q 827.728222 48.04 825.728222 48.04 
L 748.695409 48.04 
Q 746.695409 48.04 746.695409 50.04 
L 746.695409 107.7525 
Q 746.695409 109.7525 748.695409 109.7525 
z
" style="fill: #2d2d30; opacity: 0.9; stroke: #4a4a3d; stroke-linejoin: miter"/>
    </g>
    <g id="PathCollection_5">
     <g>
      <use xlink:href="#m04aa5168f3" x="760.695409" y="57.013438" style="fill: #50c878; fill-opacity: 0.7; stroke: #f5f5dc; stroke-opacity: 0.7; stroke-width: 0.5"/>
     </g>
    </g>
    <g id="text_30">
     <!-- Cluster 1 -->
     <g style="fill: #c5c5b0" transform="translate(778.695409 59.638438) scale(0.1 -0.1)">
      <defs>
       <path id="DejaVuSans-43" d="M 4122 4306 
L 4122 3641 
Q 3803 3938 3442 4084 
Q 3081 4231 2675 4231 
Q 1875 4231 1450 3742 
Q 1025 3253 1025 2328 
Q 1025 1406 1450 917 
Q 1875 428 2675 428 
Q 3081 428 3442 575 
Q 3803 722 4122 1019 
L 4122 359 
Q 3791 134 3420 21 
Q 3050 -91 2638 -91 
Q 1578 -91 968 557 
Q 359 1206 359 2328 
Q 359 3453 968 4101 
Q 1578 4750 2638 4750 
Q 3056 4750 3426 4639 
Q 3797 4528 4122 4306 
z
" transform="scale(0.015625)"/>
       <path id="DejaVuSans-6c" d="M 603 4863 
L 1178 4863 
L 1178 0 
L 603 0 
L 603 4863 
z
" transform="scale(0.015625)"/>
       <path id="DejaVuSans-75" d="M 544 1381 
L 544 3500 
L 1119 3500 
L 1119 1403 
Q 1119 906 1312 657 
Q 1506 409 1894 409 
Q 2359 409 2629 706 
Q 2900 1003 2900 1516 
L 2900 3500 
L 3475 3500 
L 3475 0 
L 2900 0 
L 2900 538 
Q 2691 219 2414 64 
Q 2138 -91 1772 -91 
Q 1169 -91 856 284 
Q 544 659 544 1381 
z
M 1991 3584 
L 1991 3584 
z
" transform="scale(0.015625)"/>
       <path id="DejaVuSans-74" d="M 1172 4494 
L 1172 3500 
L 2356 3500 
L 2356 3053 
L 1172 3053 
L 1172 1153 
Q 1172 725 1289 603 
Q 1406 481 1766 481 
L 2356 481 
L 2356 0 
L 1766 0 
Q 1100 0 847 248 
Q 594 497 594 1153 
L 594 3053 
L 172 3053 
L 172 3500 
L 594 3500 
L 594 4494 
L 1172 4494 
z
" transform="scale(0.015625)"/>
       <path id="DejaVuSans-72" d="M 2631 2963 
Q 2534 3019 2420 3045 
Q 2306 3072 2169 3072 
Q 1681 3072 1420 2755 
Q 1159 2438 1159 1844 
L 1159 0 
L 581 0 
L 581 3500 
L 1159 3500 
L 1159 2956 
Q 1341 3275 1631 3429 
Q 1922 3584 2338 3584 
Q 2397 3584 2469 3576 
Q 2541 3569 2628 3553 
L 2631 2963 
z
" transform="scale(0.015625)"/>
      </defs>
      <use xlink:href="#DejaVuSans-43"/>
      <use xlink:href="#DejaVuSans-6c" transform="translate(69.824219 0)"/>
      <use xlink:href="#DejaVuSans-75" transform="translate(97.607422 0)"/>
      <use xlink:href="#DejaVuSans-73" transform="translate(160.986328 0)"/>
      <use xlink:href="#DejaVuSans-74" transform="translate(213.085938 0)"/>
      <use xlink:href="#DejaVuSans-65" transform="translate(252.294922 0)"/>
      <use xlink:href="#DejaVuSans-72" transform="translate(313.818359 0)"/>
      <use xlink:href="#DejaVuSans-20" transform="translate(354.931641 0)"/>
      <use xlink:href="#DejaVuSans-31" transform="translate(386.71875 0)"/>
     </g>
    </g>
    <g id="PathCollection_6">
     <g>
      <use xlink:href="#m4246df22b0" x="760.695409" y="71.691563" style="fill: #cd7f32; fill-opacity: 0.7; stroke: #f5f5dc; stroke-opacity: 0.7; stroke-width: 0.5"/>
     </g>
    </g>
    <g id="text_31">
     <!-- Cluster 2 -->
     <g style="fill: #c5c5b0" transform="translate(778.695409 74.316563) scale(0.1 -0.1)">
      <use xlink:href="#DejaVuSans-43"/>
      <use xlink:href="#DejaVuSans-6c" transform="translate(69.824219 0)"/>
      <use xlink:href="#DejaVuSans-75" transform="translate(97.607422 0)"/>
      <use xlink:href="#DejaVuSans-73" transform="translate(160.986328 0)"/>
      <use xlink:href="#DejaVuSans-74" transform="translate(213.085938 0)"/>
      <use xlink:href="#DejaVuSans-65" transform="translate(252.294922 0)"/>
      <use xlink:href="#DejaVuSans-72" transform="translate(313.818359 0)"/>
      <use xlink:href="#DejaVuSans-20" transform="translate(354.931641 0)"/>
      <use xlink:href="#DejaVuSans-32" transform="translate(386.71875 0)"/>
     </g>
    </g>
    <g id="PathCollection_7">
     <g>
      <use xlink:href="#m39c60560da" x="760.695409" y="86.369688" style="fill: #c0c0c0; fill-opacity: 0.7; stroke: #f5f5dc; stroke-opacity: 0.7; stroke-width: 0.5"/>
     </g>
    </g>
    <g id="text_32">
     <!-- Cluster 3 -->
     <g style="fill: #c5c5b0" transform="translate(778.695409 88.994688) scale(0.1 -0.1)">
      <defs>
       <path id="DejaVuSans-33" d="M 2597 2516 
Q 3050 2419 3304 2112 
Q 3559 1806 3559 1356 
Q 3559 666 3084 287 
Q 2609 -91 1734 -91 
Q 1441 -91 1130 -33 
Q 819 25 488 141 
L 488 750 
Q 750 597 1062 519 
Q 1375 441 1716 441 
Q 2309 441 2620 675 
Q 2931 909 2931 1356 
Q 2931 1769 2642 2001 
Q 2353 2234 1838 2234 
L 1294 2234 
L 1294 2753 
L 1863 2753 
Q 2328 2753 2575 2939 
Q 2822 3125 2822 3475 
Q 2822 3834 2567 4026 
Q 2313 4219 1838 4219 
Q 1578 4219 1281 4162 
Q 984 4106 628 3988 
L 628 4550 
Q 988 4650 1302 4700 
Q 1616 4750 1894 4750 
Q 2613 4750 3031 4423 
Q 3450 4097 3450 3541 
Q 3450 3153 3228 2886 
Q 3006 2619 2597 2516 
z
" transform="scale(0.015625)"/>
      </defs>
      <use xlink:href="#DejaVuSans-43"/>
      <use xlink:href="#DejaVuSans-6c" transform="translate(69.824219 0)"/>
      <use xlink:href="#DejaVuSans-75" transform="translate(97.607422 0)"/>
      <use xlink:href="#DejaVuSans-73" transform="translate(160.986328 0)"/>
      <use xlink:href="#DejaVuSans-74" transform="translate(213.085938 0)"/>
      <use xlink:href="#DejaVuSans-65" transform="translate(252.294922 0)"/>
      <use xlink:href="#DejaVuSans-72" transform="translate(313.818359 0)"/>
      <use xlink:href="#DejaVuSans-20" transform="translate(354.931641 0)"/>
      <use xlink:href="#DejaVuSans-33" transform="translate(386.71875 0)"/>
     </g>
    </g>
    <g id="PathCollection_8">
     <g>
      <use xlink:href="#m1cf6d1256a" x="760.695409" y="101.047812" style="fill: #e0115f; fill-opacity: 0.7; stroke: #f5f5dc; stroke-opacity: 0.7; stroke-width: 0.5"/>
     </g>
    </g>
    <g id="text_33">
     <!-- Cluster 4 -->
     <g style="fill: #c5c5b0" transform="translate(778.695409 103.672812) scale(0.1 -0.1)">
      <use xlink:href="#DejaVuSans-43"/>
      <use xlink:href="#DejaVuSans-6c" transform="translate(69.824219 0)"/>
      <use xlink:href="#DejaVuSans-75" transform="translate(97.607422 0)"/>
      <use xlink:href="#DejaVuSans-73" transform="translate(160.986328 0)"/>
      <use xlink:href="#DejaVuSans-74" transform="translate(213.085938 0)"/>
      <use xlink:href="#DejaVuSans-65" transform="translate(252.294922 0)"/>
      <use xlink:href="#DejaVuSans-72" transform="translate(313.818359 0)"/>
      <use xlink:href="#DejaVuSans-20" transform="translate(354.931641 0)"/>
      <use xlink:href="#DejaVuSans-34" transform="translate(386.71875 0)"/>
     </g>
    </g>
   </g>
  </g>
 </g>
 <defs>
  <clipPath id="p19db12966f">
   <rect x="46.415" y="43.04" width="786.313222" height="633.2"/>
  </clipPath>
 </defs>
</svg>
