<?xml version="1.0" encoding="utf-8" standalone="no"?>
<!DOCTYPE svg PUBLIC "-//W3C//DTD SVG 1.1//EN"
  "http://www.w3.org/Graphics/SVG/1.1/DTD/svg11.dtd">
<svg xmlns:xlink="http://www.w3.org/1999/xlink" width="857.033125pt" height="712.441875pt" viewBox="0 0 857.033125 712.441875" xmlns="http://www.w3.org/2000/svg" version="1.1">
 <metadata>
  <rdf:RDF xmlns:dc="http://purl.org/dc/elements/1.1/" xmlns:cc="http://creativecommons.org/ns#" xmlns:rdf="http://www.w3.org/1999/02/22-rdf-syntax-ns#">
   <cc:Work>
    <dc:type rdf:resource="http://purl.org/dc/dcmitype/StillImage"/>
    <dc:date>2026-02-26T15:06:49.849508</dc:date>
    <dc:format>image/svg+xml</dc:format>
    <dc:creator>
     <cc:Agent>
      <dc:title>Matplotlib v3.10.8, https://matplotlib.org/</dc:title>
     </cc:Agent>
    </dc:creator>
   </cc:Work>
  </rdf:RDF>
 </metadata>
 <defs>
  <style type="text/css">*{stroke-linejoin: round; stroke-linecap: butt}</style>
 </defs>
 <g id="figure_1">
  <g id="patch_1">
   <path d="M 0 712.441875 
L 857.033125 712.441875 
L 857.033125 0 
L 0 0 
z
" style="fill: #1a1a1d"/>
  </g>
  <g id="axes_1">
   <g id="patch_2">
    <path d="M 43.588125 673.917812 
L 849.833125 673.917812 
L 849.833125 37.837812 
L 43.588125 37.837812 
z
" style="fill: #1a1a1d"/>
   </g>
   <g id="PathCollection_1">
    <defs>
     <path id="me71274b4c9" d="M 0 4.472136 
C 1.186024 4.472136 2.323632 4.000923 3.162278 3.162278 
C 4.000923 2.323632 4.472136 1.186024 4.472136 0 
C 4.472136 -1.186024 4.000923 -2.323632 3.162278 -3.162278 
C 2.323632 -4.000923 1.186024 -4.472136 0 -4.472136 
C -1.186024 -4.472136 -2.323632 -4.000923 -3.162278 -3.162278 
C -4.000923 -2.323632 -4.472136 -1.186024 -4.472136 0 
C -4.472136 1.186024 -4.000923 2.323632 -3.162278 3.162278 
C -2.323632 4.000923 -1.186024 4.472136 0 4.472136 
z
" style="stroke: #ffffff; stroke-opacity: 0.7; stroke-width: 0.5"/>
    </defs>
    <g clip-path="url(#pe0b3d45a03)">
     <use xlink:href="#me71274b4c9" x="268.087077" y="454.157568" style="fill: #1f77b4; fill-opacity: 0.7; stroke: #ffffff; stroke-opacity: 0.7; stroke-width: 0.5"/>
     <use xlink:href="#me71274b4c9" x="264.872412" y="429.995932" style="fill: #1f77b4; fill-opacity: 0.7; stroke: #ffffff; stroke-opacity: 0.7; stroke-width: 0.5"/>
     <use xlink:href="#me71274b4c9" x="259.919994" y="430.958716" style="fill: #1f77b4; fill-opacity: 0.7; stroke: #ffffff; stroke-opacity: 0.7; stroke-width: 0.5"/>
     <use xlink:href="#me71274b4c9" x="262.400612" y="537.564627" style="fill: #1f77b4; fill-opacity: 0.7; stroke: #ffffff; stroke-opacity: 0.7; stroke-width: 0.5"/>
     <use xlink:href="#me71274b4c9" x="746.602628" y="337.770905" style="fill: #1f77b4; fill-opacity: 0.7; stroke: #ffffff; stroke-opacity: 0.7; stroke-width: 0.5"/>
     <use xlink:href="#me71274b4c9" x="286.74119" y="449.616298" style="fill: #1f77b4; fill-opacity: 0.7; stroke: #ffffff; stroke-opacity: 0.7; stroke-width: 0.5"/>
     <use xlink:href="#me71274b4c9" x="287.127477" y="451.669406" style="fill: #1f77b4; fill-opacity: 0.7; stroke: #ffffff; stroke-opacity: 0.7; stroke-width: 0.5"/>
     <use xlink:href="#me71274b4c9" x="275.295649" y="445.989816" style="fill: #1f77b4; fill-opacity: 0.7; stroke: #ffffff; stroke-opacity: 0.7; stroke-width: 0.5"/>
     <use xlink:href="#me71274b4c9" x="261.504733" y="533.397225" style="fill: #1f77b4; fill-opacity: 0.7; stroke: #ffffff; stroke-opacity: 0.7; stroke-width: 0.5"/>
     <use xlink:href="#me71274b4c9" x="288.41759" y="503.514968" style="fill: #1f77b4; fill-opacity: 0.7; stroke: #ffffff; stroke-opacity: 0.7; stroke-width: 0.5"/>
     <use xlink:href="#me71274b4c9" x="283.007153" y="523.151042" style="fill: #1f77b4; fill-opacity: 0.7; stroke: #ffffff; stroke-opacity: 0.7; stroke-width: 0.5"/>
     <use xlink:href="#me71274b4c9" x="287.894394" y="464.584651" style="fill: #1f77b4; fill-opacity: 0.7; stroke: #ffffff; stroke-opacity: 0.7; stroke-width: 0.5"/>
     <use xlink:href="#me71274b4c9" x="574.731132" y="592.236219" style="fill: #1f77b4; fill-opacity: 0.7; stroke: #ffffff; stroke-opacity: 0.7; stroke-width: 0.5"/>
     <use xlink:href="#me71274b4c9" x="564.236394" y="602.189322" style="fill: #1f77b4; fill-opacity: 0.7; stroke: #ffffff; stroke-opacity: 0.7; stroke-width: 0.5"/>
     <use xlink:href="#me71274b4c9" x="263.524432" y="547.084391" style="fill: #1f77b4; fill-opacity: 0.7; stroke: #ffffff; stroke-opacity: 0.7; stroke-width: 0.5"/>
     <use xlink:href="#me71274b4c9" x="248.391389" y="539.618745" style="fill: #1f77b4; fill-opacity: 0.7; stroke: #ffffff; stroke-opacity: 0.7; stroke-width: 0.5"/>
     <use xlink:href="#me71274b4c9" x="610.035065" y="621.521388" style="fill: #1f77b4; fill-opacity: 0.7; stroke: #ffffff; stroke-opacity: 0.7; stroke-width: 0.5"/>
     <use xlink:href="#me71274b4c9" x="593.055623" y="614.986999" style="fill: #1f77b4; fill-opacity: 0.7; stroke: #ffffff; stroke-opacity: 0.7; stroke-width: 0.5"/>
     <use xlink:href="#me71274b4c9" x="270.135416" y="523.270341" style="fill: #1f77b4; fill-opacity: 0.7; stroke: #ffffff; stroke-opacity: 0.7; stroke-width: 0.5"/>
     <use xlink:href="#me71274b4c9" x="262.664241" y="539.897822" style="fill: #1f77b4; fill-opacity: 0.7; stroke: #ffffff; stroke-opacity: 0.7; stroke-width: 0.5"/>
     <use xlink:href="#me71274b4c9" x="273.065968" y="553.033436" style="fill: #1f77b4; fill-opacity: 0.7; stroke: #ffffff; stroke-opacity: 0.7; stroke-width: 0.5"/>
     <use xlink:href="#me71274b4c9" x="270.787352" y="446.718737" style="fill: #1f77b4; fill-opacity: 0.7; stroke: #ffffff; stroke-opacity: 0.7; stroke-width: 0.5"/>
     <use xlink:href="#me71274b4c9" x="267.657196" y="423.970537" style="fill: #1f77b4; fill-opacity: 0.7; stroke: #ffffff; stroke-opacity: 0.7; stroke-width: 0.5"/>
     <use xlink:href="#me71274b4c9" x="253.965983" y="445.63275" style="fill: #1f77b4; fill-opacity: 0.7; stroke: #ffffff; stroke-opacity: 0.7; stroke-width: 0.5"/>
     <use xlink:href="#me71274b4c9" x="256.566525" y="530.216429" style="fill: #1f77b4; fill-opacity: 0.7; stroke: #ffffff; stroke-opacity: 0.7; stroke-width: 0.5"/>
     <use xlink:href="#me71274b4c9" x="262.556883" y="451.783308" style="fill: #1f77b4; fill-opacity: 0.7; stroke: #ffffff; stroke-opacity: 0.7; stroke-width: 0.5"/>
     <use xlink:href="#me71274b4c9" x="273.421603" y="478.347217" style="fill: #1f77b4; fill-opacity: 0.7; stroke: #ffffff; stroke-opacity: 0.7; stroke-width: 0.5"/>
     <use xlink:href="#me71274b4c9" x="570.900523" y="595.128077" style="fill: #1f77b4; fill-opacity: 0.7; stroke: #ffffff; stroke-opacity: 0.7; stroke-width: 0.5"/>
     <use xlink:href="#me71274b4c9" x="580.510472" y="589.90557" style="fill: #1f77b4; fill-opacity: 0.7; stroke: #ffffff; stroke-opacity: 0.7; stroke-width: 0.5"/>
     <use xlink:href="#me71274b4c9" x="763.195596" y="318.276215" style="fill: #1f77b4; fill-opacity: 0.7; stroke: #ffffff; stroke-opacity: 0.7; stroke-width: 0.5"/>
     <use xlink:href="#me71274b4c9" x="765.818421" y="331.79258" style="fill: #1f77b4; fill-opacity: 0.7; stroke: #ffffff; stroke-opacity: 0.7; stroke-width: 0.5"/>
     <use xlink:href="#me71274b4c9" x="741.653875" y="331.419942" style="fill: #1f77b4; fill-opacity: 0.7; stroke: #ffffff; stroke-opacity: 0.7; stroke-width: 0.5"/>
     <use xlink:href="#me71274b4c9" x="762.124072" y="321.915632" style="fill: #1f77b4; fill-opacity: 0.7; stroke: #ffffff; stroke-opacity: 0.7; stroke-width: 0.5"/>
     <use xlink:href="#me71274b4c9" x="286.147278" y="498.707995" style="fill: #1f77b4; fill-opacity: 0.7; stroke: #ffffff; stroke-opacity: 0.7; stroke-width: 0.5"/>
     <use xlink:href="#me71274b4c9" x="290.249674" y="468.076602" style="fill: #1f77b4; fill-opacity: 0.7; stroke: #ffffff; stroke-opacity: 0.7; stroke-width: 0.5"/>
     <use xlink:href="#me71274b4c9" x="608.744554" y="614.187599" style="fill: #1f77b4; fill-opacity: 0.7; stroke: #ffffff; stroke-opacity: 0.7; stroke-width: 0.5"/>
     <use xlink:href="#me71274b4c9" x="616.190911" y="606.941542" style="fill: #1f77b4; fill-opacity: 0.7; stroke: #ffffff; stroke-opacity: 0.7; stroke-width: 0.5"/>
     <use xlink:href="#me71274b4c9" x="607.259978" y="603.706722" style="fill: #1f77b4; fill-opacity: 0.7; stroke: #ffffff; stroke-opacity: 0.7; stroke-width: 0.5"/>
     <use xlink:href="#me71274b4c9" x="273.983366" y="430.173353" style="fill: #1f77b4; fill-opacity: 0.7; stroke: #ffffff; stroke-opacity: 0.7; stroke-width: 0.5"/>
     <use xlink:href="#me71274b4c9" x="288.667616" y="471.022254" style="fill: #1f77b4; fill-opacity: 0.7; stroke: #ffffff; stroke-opacity: 0.7; stroke-width: 0.5"/>
     <use xlink:href="#me71274b4c9" x="283.913064" y="480.255983" style="fill: #1f77b4; fill-opacity: 0.7; stroke: #ffffff; stroke-opacity: 0.7; stroke-width: 0.5"/>
     <use xlink:href="#me71274b4c9" x="255.448925" y="421.509735" style="fill: #1f77b4; fill-opacity: 0.7; stroke: #ffffff; stroke-opacity: 0.7; stroke-width: 0.5"/>
     <use xlink:href="#me71274b4c9" x="562.976324" y="599.277284" style="fill: #1f77b4; fill-opacity: 0.7; stroke: #ffffff; stroke-opacity: 0.7; stroke-width: 0.5"/>
     <use xlink:href="#me71274b4c9" x="609.197965" y="599.244459" style="fill: #1f77b4; fill-opacity: 0.7; stroke: #ffffff; stroke-opacity: 0.7; stroke-width: 0.5"/>
     <use xlink:href="#me71274b4c9" x="602.946595" y="595.874506" style="fill: #1f77b4; fill-opacity: 0.7; stroke: #ffffff; stroke-opacity: 0.7; stroke-width: 0.5"/>
     <use xlink:href="#me71274b4c9" x="621.060329" y="608.739325" style="fill: #1f77b4; fill-opacity: 0.7; stroke: #ffffff; stroke-opacity: 0.7; stroke-width: 0.5"/>
     <use xlink:href="#me71274b4c9" x="603.752238" y="592.776756" style="fill: #1f77b4; fill-opacity: 0.7; stroke: #ffffff; stroke-opacity: 0.7; stroke-width: 0.5"/>
     <use xlink:href="#me71274b4c9" x="753.924097" y="325.76423" style="fill: #1f77b4; fill-opacity: 0.7; stroke: #ffffff; stroke-opacity: 0.7; stroke-width: 0.5"/>
     <use xlink:href="#me71274b4c9" x="753.05866" y="333.042587" style="fill: #1f77b4; fill-opacity: 0.7; stroke: #ffffff; stroke-opacity: 0.7; stroke-width: 0.5"/>
     <use xlink:href="#me71274b4c9" x="259.408537" y="518.604325" style="fill: #1f77b4; fill-opacity: 0.7; stroke: #ffffff; stroke-opacity: 0.7; stroke-width: 0.5"/>
     <use xlink:href="#me71274b4c9" x="763.324818" y="317.301402" style="fill: #1f77b4; fill-opacity: 0.7; stroke: #ffffff; stroke-opacity: 0.7; stroke-width: 0.5"/>
     <use xlink:href="#me71274b4c9" x="622.453925" y="615.804746" style="fill: #1f77b4; fill-opacity: 0.7; stroke: #ffffff; stroke-opacity: 0.7; stroke-width: 0.5"/>
     <use xlink:href="#me71274b4c9" x="611.300611" y="625.055243" style="fill: #1f77b4; fill-opacity: 0.7; stroke: #ffffff; stroke-opacity: 0.7; stroke-width: 0.5"/>
     <use xlink:href="#me71274b4c9" x="569.153627" y="594.169867" style="fill: #1f77b4; fill-opacity: 0.7; stroke: #ffffff; stroke-opacity: 0.7; stroke-width: 0.5"/>
     <use xlink:href="#me71274b4c9" x="561.586404" y="603.534147" style="fill: #1f77b4; fill-opacity: 0.7; stroke: #ffffff; stroke-opacity: 0.7; stroke-width: 0.5"/>
     <use xlink:href="#me71274b4c9" x="739.82067" y="339.940907" style="fill: #1f77b4; fill-opacity: 0.7; stroke: #ffffff; stroke-opacity: 0.7; stroke-width: 0.5"/>
     <use xlink:href="#me71274b4c9" x="736.801044" y="336.915423" style="fill: #1f77b4; fill-opacity: 0.7; stroke: #ffffff; stroke-opacity: 0.7; stroke-width: 0.5"/>
     <use xlink:href="#me71274b4c9" x="746.749486" y="317.259217" style="fill: #1f77b4; fill-opacity: 0.7; stroke: #ffffff; stroke-opacity: 0.7; stroke-width: 0.5"/>
     <use xlink:href="#me71274b4c9" x="266.374476" y="532.661828" style="fill: #1f77b4; fill-opacity: 0.7; stroke: #ffffff; stroke-opacity: 0.7; stroke-width: 0.5"/>
     <use xlink:href="#me71274b4c9" x="270.227306" y="546.59304" style="fill: #1f77b4; fill-opacity: 0.7; stroke: #ffffff; stroke-opacity: 0.7; stroke-width: 0.5"/>
     <use xlink:href="#me71274b4c9" x="250.704855" y="449.56208" style="fill: #1f77b4; fill-opacity: 0.7; stroke: #ffffff; stroke-opacity: 0.7; stroke-width: 0.5"/>
     <use xlink:href="#me71274b4c9" x="286.001583" y="499.470548" style="fill: #1f77b4; fill-opacity: 0.7; stroke: #ffffff; stroke-opacity: 0.7; stroke-width: 0.5"/>
    </g>
   </g>
   <g id="patch_3">
    <path d="M 218.144538 546.753111 
L 246.520304 562.180006 
L 635.490143 645.005085 
L 648.316454 634.367013 
L 813.185625 307.753022 
L 810.317982 291.088167 
L 791.256349 291.039655 
L 226.260704 410.92775 
L 220.805024 443.187947 
z
" clip-path="url(#pe0b3d45a03)" style="fill: #1f77b4; opacity: 0.05"/>
   </g>
   <g id="PathCollection_2">
    <defs>
     <path id="m511a80f6a5" d="M 0 4.472136 
C 1.186024 4.472136 2.323632 4.000923 3.162278 3.162278 
C 4.000923 2.323632 4.472136 1.186024 4.472136 0 
C 4.472136 -1.186024 4.000923 -2.323632 3.162278 -3.162278 
C 2.323632 -4.000923 1.186024 -4.472136 0 -4.472136 
C -1.186024 -4.472136 -2.323632 -4.000923 -3.162278 -3.162278 
C -4.000923 -2.323632 -4.472136 -1.186024 -4.472136 0 
C -4.472136 1.186024 -4.000923 2.323632 -3.162278 3.162278 
C -2.323632 4.000923 -1.186024 4.472136 0 4.472136 
z
" style="stroke: #ffffff; stroke-opacity: 0.7; stroke-width: 0.5"/>
    </defs>
    <g clip-path="url(#pe0b3d45a03)">
     <use xlink:href="#m511a80f6a5" x="127.577463" y="129.650092" style="fill: #aec7e8; fill-opacity: 0.7; stroke: #ffffff; stroke-opacity: 0.7; stroke-width: 0.5"/>
     <use xlink:href="#m511a80f6a5" x="134.658246" y="154.039846" style="fill: #aec7e8; fill-opacity: 0.7; stroke: #ffffff; stroke-opacity: 0.7; stroke-width: 0.5"/>
     <use xlink:href="#m511a80f6a5" x="130.76933" y="150.440527" style="fill: #aec7e8; fill-opacity: 0.7; stroke: #ffffff; stroke-opacity: 0.7; stroke-width: 0.5"/>
     <use xlink:href="#m511a80f6a5" x="95.844458" y="98.598097" style="fill: #aec7e8; fill-opacity: 0.7; stroke: #ffffff; stroke-opacity: 0.7; stroke-width: 0.5"/>
     <use xlink:href="#m511a80f6a5" x="97.812687" y="96.546865" style="fill: #aec7e8; fill-opacity: 0.7; stroke: #ffffff; stroke-opacity: 0.7; stroke-width: 0.5"/>
     <use xlink:href="#m511a80f6a5" x="93.152622" y="100.325463" style="fill: #aec7e8; fill-opacity: 0.7; stroke: #ffffff; stroke-opacity: 0.7; stroke-width: 0.5"/>
     <use xlink:href="#m511a80f6a5" x="99.349077" y="98.127164" style="fill: #aec7e8; fill-opacity: 0.7; stroke: #ffffff; stroke-opacity: 0.7; stroke-width: 0.5"/>
     <use xlink:href="#m511a80f6a5" x="301.553422" y="84.762253" style="fill: #aec7e8; fill-opacity: 0.7; stroke: #ffffff; stroke-opacity: 0.7; stroke-width: 0.5"/>
     <use xlink:href="#m511a80f6a5" x="306.010401" y="86.723379" style="fill: #aec7e8; fill-opacity: 0.7; stroke: #ffffff; stroke-opacity: 0.7; stroke-width: 0.5"/>
     <use xlink:href="#m511a80f6a5" x="191.433215" y="136.13044" style="fill: #aec7e8; fill-opacity: 0.7; stroke: #ffffff; stroke-opacity: 0.7; stroke-width: 0.5"/>
     <use xlink:href="#m511a80f6a5" x="180.810699" y="94.432953" style="fill: #aec7e8; fill-opacity: 0.7; stroke: #ffffff; stroke-opacity: 0.7; stroke-width: 0.5"/>
     <use xlink:href="#m511a80f6a5" x="187.307069" y="143.754219" style="fill: #aec7e8; fill-opacity: 0.7; stroke: #ffffff; stroke-opacity: 0.7; stroke-width: 0.5"/>
     <use xlink:href="#m511a80f6a5" x="297.959639" y="78.906014" style="fill: #aec7e8; fill-opacity: 0.7; stroke: #ffffff; stroke-opacity: 0.7; stroke-width: 0.5"/>
     <use xlink:href="#m511a80f6a5" x="296.875141" y="78.347147" style="fill: #aec7e8; fill-opacity: 0.7; stroke: #ffffff; stroke-opacity: 0.7; stroke-width: 0.5"/>
     <use xlink:href="#m511a80f6a5" x="111.771854" y="123.429914" style="fill: #aec7e8; fill-opacity: 0.7; stroke: #ffffff; stroke-opacity: 0.7; stroke-width: 0.5"/>
     <use xlink:href="#m511a80f6a5" x="124.989403" y="137.983656" style="fill: #aec7e8; fill-opacity: 0.7; stroke: #ffffff; stroke-opacity: 0.7; stroke-width: 0.5"/>
     <use xlink:href="#m511a80f6a5" x="143.565617" y="147.553167" style="fill: #aec7e8; fill-opacity: 0.7; stroke: #ffffff; stroke-opacity: 0.7; stroke-width: 0.5"/>
     <use xlink:href="#m511a80f6a5" x="128.062729" y="142.006198" style="fill: #aec7e8; fill-opacity: 0.7; stroke: #ffffff; stroke-opacity: 0.7; stroke-width: 0.5"/>
     <use xlink:href="#m511a80f6a5" x="167.148263" y="124.568439" style="fill: #aec7e8; fill-opacity: 0.7; stroke: #ffffff; stroke-opacity: 0.7; stroke-width: 0.5"/>
     <use xlink:href="#m511a80f6a5" x="204.308209" y="130.533828" style="fill: #aec7e8; fill-opacity: 0.7; stroke: #ffffff; stroke-opacity: 0.7; stroke-width: 0.5"/>
     <use xlink:href="#m511a80f6a5" x="183.843478" y="102.171821" style="fill: #aec7e8; fill-opacity: 0.7; stroke: #ffffff; stroke-opacity: 0.7; stroke-width: 0.5"/>
     <use xlink:href="#m511a80f6a5" x="189.957142" y="75.72128" style="fill: #aec7e8; fill-opacity: 0.7; stroke: #ffffff; stroke-opacity: 0.7; stroke-width: 0.5"/>
     <use xlink:href="#m511a80f6a5" x="172.956526" y="81.753625" style="fill: #aec7e8; fill-opacity: 0.7; stroke: #ffffff; stroke-opacity: 0.7; stroke-width: 0.5"/>
     <use xlink:href="#m511a80f6a5" x="209.224164" y="79.58681" style="fill: #aec7e8; fill-opacity: 0.7; stroke: #ffffff; stroke-opacity: 0.7; stroke-width: 0.5"/>
     <use xlink:href="#m511a80f6a5" x="201.26921" y="82.242616" style="fill: #aec7e8; fill-opacity: 0.7; stroke: #ffffff; stroke-opacity: 0.7; stroke-width: 0.5"/>
     <use xlink:href="#m511a80f6a5" x="195.68006" y="136.427305" style="fill: #aec7e8; fill-opacity: 0.7; stroke: #ffffff; stroke-opacity: 0.7; stroke-width: 0.5"/>
     <use xlink:href="#m511a80f6a5" x="205.685511" y="120.811294" style="fill: #aec7e8; fill-opacity: 0.7; stroke: #ffffff; stroke-opacity: 0.7; stroke-width: 0.5"/>
     <use xlink:href="#m511a80f6a5" x="200.714913" y="124.531524" style="fill: #aec7e8; fill-opacity: 0.7; stroke: #ffffff; stroke-opacity: 0.7; stroke-width: 0.5"/>
     <use xlink:href="#m511a80f6a5" x="198.00027" y="132.530273" style="fill: #aec7e8; fill-opacity: 0.7; stroke: #ffffff; stroke-opacity: 0.7; stroke-width: 0.5"/>
     <use xlink:href="#m511a80f6a5" x="195.099563" y="148.997178" style="fill: #aec7e8; fill-opacity: 0.7; stroke: #ffffff; stroke-opacity: 0.7; stroke-width: 0.5"/>
     <use xlink:href="#m511a80f6a5" x="199.643076" y="91.853472" style="fill: #aec7e8; fill-opacity: 0.7; stroke: #ffffff; stroke-opacity: 0.7; stroke-width: 0.5"/>
     <use xlink:href="#m511a80f6a5" x="302.456809" y="83.538679" style="fill: #aec7e8; fill-opacity: 0.7; stroke: #ffffff; stroke-opacity: 0.7; stroke-width: 0.5"/>
     <use xlink:href="#m511a80f6a5" x="110.857911" y="88.366035" style="fill: #aec7e8; fill-opacity: 0.7; stroke: #ffffff; stroke-opacity: 0.7; stroke-width: 0.5"/>
     <use xlink:href="#m511a80f6a5" x="191.514728" y="86.040834" style="fill: #aec7e8; fill-opacity: 0.7; stroke: #ffffff; stroke-opacity: 0.7; stroke-width: 0.5"/>
     <use xlink:href="#m511a80f6a5" x="191.283865" y="110.391263" style="fill: #aec7e8; fill-opacity: 0.7; stroke: #ffffff; stroke-opacity: 0.7; stroke-width: 0.5"/>
     <use xlink:href="#m511a80f6a5" x="177.036135" y="95.699688" style="fill: #aec7e8; fill-opacity: 0.7; stroke: #ffffff; stroke-opacity: 0.7; stroke-width: 0.5"/>
     <use xlink:href="#m511a80f6a5" x="191.347953" y="84.317661" style="fill: #aec7e8; fill-opacity: 0.7; stroke: #ffffff; stroke-opacity: 0.7; stroke-width: 0.5"/>
     <use xlink:href="#m511a80f6a5" x="116.41242" y="83.923987" style="fill: #aec7e8; fill-opacity: 0.7; stroke: #ffffff; stroke-opacity: 0.7; stroke-width: 0.5"/>
     <use xlink:href="#m511a80f6a5" x="104.100436" y="106.602499" style="fill: #aec7e8; fill-opacity: 0.7; stroke: #ffffff; stroke-opacity: 0.7; stroke-width: 0.5"/>
     <use xlink:href="#m511a80f6a5" x="212.593728" y="72.145621" style="fill: #aec7e8; fill-opacity: 0.7; stroke: #ffffff; stroke-opacity: 0.7; stroke-width: 0.5"/>
    </g>
   </g>
   <g id="patch_4">
    <path d="M 80.235625 99.157358 
L 123.494839 156.789682 
L 127.967093 160.928898 
L 197.474606 155.12983 
L 325.02207 83.514962 
L 315.763695 74.524991 
L 314.516522 73.882294 
L 217.592897 66.75054 
L 106.984393 80.29566 
L 85.5947 94.81197 
z
" clip-path="url(#pe0b3d45a03)" style="fill: #aec7e8; opacity: 0.05"/>
   </g>
   <g id="matplotlib.axis_1">
    <g id="xtick_1">
     <g id="line2d_1">
      <path d="M 58.570808 673.917812 
L 58.570808 37.837812 
" clip-path="url(#pe0b3d45a03)" style="fill: none; stroke: #4a4a3d; stroke-opacity: 0.1; stroke-width: 0.8; stroke-linecap: square"/>
     </g>
     <g id="line2d_2">
      <defs>
       <path id="mb524ced1aa" d="M 0 0 
L 0 3.5 
" style="stroke: #666666; stroke-width: 0.8"/>
      </defs>
      <g>
       <use xlink:href="#mb524ced1aa" x="58.570808" y="673.917812" style="fill: #666666; stroke: #666666; stroke-width: 0.8"/>
      </g>
     </g>
     <g id="text_1">
      <!-- −7.5 -->
      <g style="fill: #666666" transform="translate(46.429402 688.51625) scale(0.1 -0.1)">
       <defs>
        <path id="DejaVuSans-2212" d="M 678 2272 
L 4684 2272 
L 4684 1741 
L 678 1741 
L 678 2272 
z
" transform="scale(0.015625)"/>
        <path id="DejaVuSans-37" d="M 525 4666 
L 3525 4666 
L 3525 4397 
L 1831 0 
L 1172 0 
L 2766 4134 
L 525 4134 
L 525 4666 
z
" transform="scale(0.015625)"/>
        <path id="DejaVuSans-2e" d="M 684 794 
L 1344 794 
L 1344 0 
L 684 0 
L 684 794 
z
" transform="scale(0.015625)"/>
        <path id="DejaVuSans-35" d="M 691 4666 
L 3169 4666 
L 3169 4134 
L 1269 4134 
L 1269 2991 
Q 1406 3038 1543 3061 
Q 1681 3084 1819 3084 
Q 2600 3084 3056 2656 
Q 3513 2228 3513 1497 
Q 3513 744 3044 326 
Q 2575 -91 1722 -91 
Q 1428 -91 1123 -41 
Q 819 9 494 109 
L 494 744 
Q 775 591 1075 516 
Q 1375 441 1709 441 
Q 2250 441 2565 725 
Q 2881 1009 2881 1497 
Q 2881 1984 2565 2268 
Q 2250 2553 1709 2553 
Q 1456 2553 1204 2497 
Q 953 2441 691 2322 
L 691 4666 
z
" transform="scale(0.015625)"/>
       </defs>
       <use xlink:href="#DejaVuSans-2212"/>
       <use xlink:href="#DejaVuSans-37" transform="translate(83.789062 0)"/>
       <use xlink:href="#DejaVuSans-2e" transform="translate(147.412109 0)"/>
       <use xlink:href="#DejaVuSans-35" transform="translate(179.199219 0)"/>
      </g>
     </g>
    </g>
    <g id="xtick_2">
     <g id="line2d_3">
      <path d="M 168.376299 673.917812 
L 168.376299 37.837812 
" clip-path="url(#pe0b3d45a03)" style="fill: none; stroke: #4a4a3d; stroke-opacity: 0.1; stroke-width: 0.8; stroke-linecap: square"/>
     </g>
     <g id="line2d_4">
      <g>
       <use xlink:href="#mb524ced1aa" x="168.376299" y="673.917812" style="fill: #666666; stroke: #666666; stroke-width: 0.8"/>
      </g>
     </g>
     <g id="text_2">
      <!-- −5.0 -->
      <g style="fill: #666666" transform="translate(156.234893 688.51625) scale(0.1 -0.1)">
       <defs>
        <path id="DejaVuSans-30" d="M 2034 4250 
Q 1547 4250 1301 3770 
Q 1056 3291 1056 2328 
Q 1056 1369 1301 889 
Q 1547 409 2034 409 
Q 2525 409 2770 889 
Q 3016 1369 3016 2328 
Q 3016 3291 2770 3770 
Q 2525 4250 2034 4250 
z
M 2034 4750 
Q 2819 4750 3233 4129 
Q 3647 3509 3647 2328 
Q 3647 1150 3233 529 
Q 2819 -91 2034 -91 
Q 1250 -91 836 529 
Q 422 1150 422 2328 
Q 422 3509 836 4129 
Q 1250 4750 2034 4750 
z
" transform="scale(0.015625)"/>
       </defs>
       <use xlink:href="#DejaVuSans-2212"/>
       <use xlink:href="#DejaVuSans-35" transform="translate(83.789062 0)"/>
       <use xlink:href="#DejaVuSans-2e" transform="translate(147.412109 0)"/>
       <use xlink:href="#DejaVuSans-30" transform="translate(179.199219 0)"/>
      </g>
     </g>
    </g>
    <g id="xtick_3">
     <g id="line2d_5">
      <path d="M 278.181789 673.917812 
L 278.181789 37.837812 
" clip-path="url(#pe0b3d45a03)" style="fill: none; stroke: #4a4a3d; stroke-opacity: 0.1; stroke-width: 0.8; stroke-linecap: square"/>
     </g>
     <g id="line2d_6">
      <g>
       <use xlink:href="#mb524ced1aa" x="278.181789" y="673.917812" style="fill: #666666; stroke: #666666; stroke-width: 0.8"/>
      </g>
     </g>
     <g id="text_3">
      <!-- −2.5 -->
      <g style="fill: #666666" transform="translate(266.040383 688.51625) scale(0.1 -0.1)">
       <defs>
        <path id="DejaVuSans-32" d="M 1228 531 
L 3431 531 
L 3431 0 
L 469 0 
L 469 531 
Q 828 903 1448 1529 
Q 2069 2156 2228 2338 
Q 2531 2678 2651 2914 
Q 2772 3150 2772 3378 
Q 2772 3750 2511 3984 
Q 2250 4219 1831 4219 
Q 1534 4219 1204 4116 
Q 875 4013 500 3803 
L 500 4441 
Q 881 4594 1212 4672 
Q 1544 4750 1819 4750 
Q 2544 4750 2975 4387 
Q 3406 4025 3406 3419 
Q 3406 3131 3298 2873 
Q 3191 2616 2906 2266 
Q 2828 2175 2409 1742 
Q 1991 1309 1228 531 
z
" transform="scale(0.015625)"/>
       </defs>
       <use xlink:href="#DejaVuSans-2212"/>
       <use xlink:href="#DejaVuSans-32" transform="translate(83.789062 0)"/>
       <use xlink:href="#DejaVuSans-2e" transform="translate(147.412109 0)"/>
       <use xlink:href="#DejaVuSans-35" transform="translate(179.199219 0)"/>
      </g>
     </g>
    </g>
    <g id="xtick_4">
     <g id="line2d_7">
      <path d="M 387.98728 673.917812 
L 387.98728 37.837812 
" clip-path="url(#pe0b3d45a03)" style="fill: none; stroke: #4a4a3d; stroke-opacity: 0.1; stroke-width: 0.8; stroke-linecap: square"/>
     </g>
     <g id="line2d_8">
      <g>
       <use xlink:href="#mb524ced1aa" x="387.98728" y="673.917812" style="fill: #666666; stroke: #666666; stroke-width: 0.8"/>
      </g>
     </g>
     <g id="text_4">
      <!-- 0.0 -->
      <g style="fill: #666666" transform="translate(380.035718 688.51625) scale(0.1 -0.1)">
       <use xlink:href="#DejaVuSans-30"/>
       <use xlink:href="#DejaVuSans-2e" transform="translate(63.623047 0)"/>
       <use xlink:href="#DejaVuSans-30" transform="translate(95.410156 0)"/>
      </g>
     </g>
    </g>
    <g id="xtick_5">
     <g id="line2d_9">
      <path d="M 497.792771 673.917812 
L 497.792771 37.837812 
" clip-path="url(#pe0b3d45a03)" style="fill: none; stroke: #4a4a3d; stroke-opacity: 0.1; stroke-width: 0.8; stroke-linecap: square"/>
     </g>
     <g id="line2d_10">
      <g>
       <use xlink:href="#mb524ced1aa" x="497.792771" y="673.917812" style="fill: #666666; stroke: #666666; stroke-width: 0.8"/>
      </g>
     </g>
     <g id="text_5">
      <!-- 2.5 -->
      <g style="fill: #666666" transform="translate(489.841208 688.51625) scale(0.1 -0.1)">
       <use xlink:href="#DejaVuSans-32"/>
       <use xlink:href="#DejaVuSans-2e" transform="translate(63.623047 0)"/>
       <use xlink:href="#DejaVuSans-35" transform="translate(95.410156 0)"/>
      </g>
     </g>
    </g>
    <g id="xtick_6">
     <g id="line2d_11">
      <path d="M 607.598261 673.917812 
L 607.598261 37.837812 
" clip-path="url(#pe0b3d45a03)" style="fill: none; stroke: #4a4a3d; stroke-opacity: 0.1; stroke-width: 0.8; stroke-linecap: square"/>
     </g>
     <g id="line2d_12">
      <g>
       <use xlink:href="#mb524ced1aa" x="607.598261" y="673.917812" style="fill: #666666; stroke: #666666; stroke-width: 0.8"/>
      </g>
     </g>
     <g id="text_6">
      <!-- 5.0 -->
      <g style="fill: #666666" transform="translate(599.646699 688.51625) scale(0.1 -0.1)">
       <use xlink:href="#DejaVuSans-35"/>
       <use xlink:href="#DejaVuSans-2e" transform="translate(63.623047 0)"/>
       <use xlink:href="#DejaVuSans-30" transform="translate(95.410156 0)"/>
      </g>
     </g>
    </g>
    <g id="xtick_7">
     <g id="line2d_13">
      <path d="M 717.403752 673.917812 
L 717.403752 37.837812 
" clip-path="url(#pe0b3d45a03)" style="fill: none; stroke: #4a4a3d; stroke-opacity: 0.1; stroke-width: 0.8; stroke-linecap: square"/>
     </g>
     <g id="line2d_14">
      <g>
       <use xlink:href="#mb524ced1aa" x="717.403752" y="673.917812" style="fill: #666666; stroke: #666666; stroke-width: 0.8"/>
      </g>
     </g>
     <g id="text_7">
      <!-- 7.5 -->
      <g style="fill: #666666" transform="translate(709.45219 688.51625) scale(0.1 -0.1)">
       <use xlink:href="#DejaVuSans-37"/>
       <use xlink:href="#DejaVuSans-2e" transform="translate(63.623047 0)"/>
       <use xlink:href="#DejaVuSans-35" transform="translate(95.410156 0)"/>
      </g>
     </g>
    </g>
    <g id="xtick_8">
     <g id="line2d_15">
      <path d="M 827.209243 673.917812 
L 827.209243 37.837812 
" clip-path="url(#pe0b3d45a03)" style="fill: none; stroke: #4a4a3d; stroke-opacity: 0.1; stroke-width: 0.8; stroke-linecap: square"/>
     </g>
     <g id="line2d_16">
      <g>
       <use xlink:href="#mb524ced1aa" x="827.209243" y="673.917812" style="fill: #666666; stroke: #666666; stroke-width: 0.8"/>
      </g>
     </g>
     <g id="text_8">
      <!-- 10.0 -->
      <g style="fill: #666666" transform="translate(816.07643 688.51625) scale(0.1 -0.1)">
       <defs>
        <path id="DejaVuSans-31" d="M 794 531 
L 1825 531 
L 1825 4091 
L 703 3866 
L 703 4441 
L 1819 4666 
L 2450 4666 
L 2450 531 
L 3481 531 
L 3481 0 
L 794 0 
L 794 531 
z
" transform="scale(0.015625)"/>
       </defs>
       <use xlink:href="#DejaVuSans-31"/>
       <use xlink:href="#DejaVuSans-30" transform="translate(63.623047 0)"/>
       <use xlink:href="#DejaVuSans-2e" transform="translate(127.246094 0)"/>
       <use xlink:href="#DejaVuSans-30" transform="translate(159.033203 0)"/>
      </g>
     </g>
    </g>
    <g id="text_9">
     <!-- Dimension 1 -->
     <g style="fill: #c5c5b0" transform="translate(412.229062 702.954219) scale(0.11 -0.11)">
      <defs>
       <path id="DejaVuSans-44" d="M 1259 4147 
L 1259 519 
L 2022 519 
Q 2988 519 3436 956 
Q 3884 1394 3884 2338 
Q 3884 3275 3436 3711 
Q 2988 4147 2022 4147 
L 1259 4147 
z
M 628 4666 
L 1925 4666 
Q 3281 4666 3915 4102 
Q 4550 3538 4550 2338 
Q 4550 1131 3912 565 
Q 3275 0 1925 0 
L 628 0 
L 628 4666 
z
" transform="scale(0.015625)"/>
       <path id="DejaVuSans-69" d="M 603 3500 
L 1178 3500 
L 1178 0 
L 603 0 
L 603 3500 
z
M 603 4863 
L 1178 4863 
L 1178 4134 
L 603 4134 
L 603 4863 
z
" transform="scale(0.015625)"/>
       <path id="DejaVuSans-6d" d="M 3328 2828 
Q 3544 3216 3844 3400 
Q 4144 3584 4550 3584 
Q 5097 3584 5394 3201 
Q 5691 2819 5691 2113 
L 5691 0 
L 5113 0 
L 5113 2094 
Q 5113 2597 4934 2840 
Q 4756 3084 4391 3084 
Q 3944 3084 3684 2787 
Q 3425 2491 3425 1978 
L 3425 0 
L 2847 0 
L 2847 2094 
Q 2847 2600 2669 2842 
Q 2491 3084 2119 3084 
Q 1678 3084 1418 2786 
Q 1159 2488 1159 1978 
L 1159 0 
L 581 0 
L 581 3500 
L 1159 3500 
L 1159 2956 
Q 1356 3278 1631 3431 
Q 1906 3584 2284 3584 
Q 2666 3584 2933 3390 
Q 3200 3197 3328 2828 
z
" transform="scale(0.015625)"/>
       <path id="DejaVuSans-65" d="M 3597 1894 
L 3597 1613 
L 953 1613 
Q 991 1019 1311 708 
Q 1631 397 2203 397 
Q 2534 397 2845 478 
Q 3156 559 3463 722 
L 3463 178 
Q 3153 47 2828 -22 
Q 2503 -91 2169 -91 
Q 1331 -91 842 396 
Q 353 884 353 1716 
Q 353 2575 817 3079 
Q 1281 3584 2069 3584 
Q 2775 3584 3186 3129 
Q 3597 2675 3597 1894 
z
M 3022 2063 
Q 3016 2534 2758 2815 
Q 2500 3097 2075 3097 
Q 1594 3097 1305 2825 
Q 1016 2553 972 2059 
L 3022 2063 
z
" transform="scale(0.015625)"/>
       <path id="DejaVuSans-6e" d="M 3513 2113 
L 3513 0 
L 2938 0 
L 2938 2094 
Q 2938 2591 2744 2837 
Q 2550 3084 2163 3084 
Q 1697 3084 1428 2787 
Q 1159 2491 1159 1978 
L 1159 0 
L 581 0 
L 581 3500 
L 1159 3500 
L 1159 2956 
Q 1366 3272 1645 3428 
Q 1925 3584 2291 3584 
Q 2894 3584 3203 3211 
Q 3513 2838 3513 2113 
z
" transform="scale(0.015625)"/>
       <path id="DejaVuSans-73" d="M 2834 3397 
L 2834 2853 
Q 2591 2978 2328 3040 
Q 2066 3103 1784 3103 
Q 1356 3103 1142 2972 
Q 928 2841 928 2578 
Q 928 2378 1081 2264 
Q 1234 2150 1697 2047 
L 1894 2003 
Q 2506 1872 2764 1633 
Q 3022 1394 3022 966 
Q 3022 478 2636 193 
Q 2250 -91 1575 -91 
Q 1294 -91 989 -36 
Q 684 19 347 128 
L 347 722 
Q 666 556 975 473 
Q 1284 391 1588 391 
Q 1994 391 2212 530 
Q 2431 669 2431 922 
Q 2431 1156 2273 1281 
Q 2116 1406 1581 1522 
L 1381 1569 
Q 847 1681 609 1914 
Q 372 2147 372 2553 
Q 372 3047 722 3315 
Q 1072 3584 1716 3584 
Q 2034 3584 2315 3537 
Q 2597 3491 2834 3397 
z
" transform="scale(0.015625)"/>
       <path id="DejaVuSans-6f" d="M 1959 3097 
Q 1497 3097 1228 2736 
Q 959 2375 959 1747 
Q 959 1119 1226 758 
Q 1494 397 1959 397 
Q 2419 397 2687 759 
Q 2956 1122 2956 1747 
Q 2956 2369 2687 2733 
Q 2419 3097 1959 3097 
z
M 1959 3584 
Q 2709 3584 3137 3096 
Q 3566 2609 3566 1747 
Q 3566 888 3137 398 
Q 2709 -91 1959 -91 
Q 1206 -91 779 398 
Q 353 888 353 1747 
Q 353 2609 779 3096 
Q 1206 3584 1959 3584 
z
" transform="scale(0.015625)"/>
       <path id="DejaVuSans-20" transform="scale(0.015625)"/>
      </defs>
      <use xlink:href="#DejaVuSans-44"/>
      <use xlink:href="#DejaVuSans-69" transform="translate(77.001953 0)"/>
      <use xlink:href="#DejaVuSans-6d" transform="translate(104.785156 0)"/>
      <use xlink:href="#DejaVuSans-65" transform="translate(202.197266 0)"/>
      <use xlink:href="#DejaVuSans-6e" transform="translate(263.720703 0)"/>
      <use xlink:href="#DejaVuSans-73" transform="translate(327.099609 0)"/>
      <use xlink:href="#DejaVuSans-69" transform="translate(379.199219 0)"/>
      <use xlink:href="#DejaVuSans-6f" transform="translate(406.982422 0)"/>
      <use xlink:href="#DejaVuSans-6e" transform="translate(468.164062 0)"/>
      <use xlink:href="#DejaVuSans-20" transform="translate(531.542969 0)"/>
      <use xlink:href="#DejaVuSans-31" transform="translate(563.330078 0)"/>
     </g>
    </g>
   </g>
   <g id="matplotlib.axis_2">
    <g id="ytick_1">
     <g id="line2d_17">
      <path d="M 43.588125 616.03092 
L 849.833125 616.03092 
" clip-path="url(#pe0b3d45a03)" style="fill: none; stroke: #4a4a3d; stroke-opacity: 0.1; stroke-width: 0.8; stroke-linecap: square"/>
     </g>
     <g id="line2d_18">
      <defs>
       <path id="mf0092aab82" d="M 0 0 
L -3.5 0 
" style="stroke: #666666; stroke-width: 0.8"/>
      </defs>
      <g>
       <use xlink:href="#mf0092aab82" x="43.588125" y="616.03092" style="fill: #666666; stroke: #666666; stroke-width: 0.8"/>
      </g>
     </g>
     <g id="text_10">
      <!-- −8 -->
      <g style="fill: #666666" transform="translate(21.845938 619.830139) scale(0.1 -0.1)">
       <defs>
        <path id="DejaVuSans-38" d="M 2034 2216 
Q 1584 2216 1326 1975 
Q 1069 1734 1069 1313 
Q 1069 891 1326 650 
Q 1584 409 2034 409 
Q 2484 409 2743 651 
Q 3003 894 3003 1313 
Q 3003 1734 2745 1975 
Q 2488 2216 2034 2216 
z
M 1403 2484 
Q 997 2584 770 2862 
Q 544 3141 544 3541 
Q 544 4100 942 4425 
Q 1341 4750 2034 4750 
Q 2731 4750 3128 4425 
Q 3525 4100 3525 3541 
Q 3525 3141 3298 2862 
Q 3072 2584 2669 2484 
Q 3125 2378 3379 2068 
Q 3634 1759 3634 1313 
Q 3634 634 3220 271 
Q 2806 -91 2034 -91 
Q 1263 -91 848 271 
Q 434 634 434 1313 
Q 434 1759 690 2068 
Q 947 2378 1403 2484 
z
M 1172 3481 
Q 1172 3119 1398 2916 
Q 1625 2713 2034 2713 
Q 2441 2713 2670 2916 
Q 2900 3119 2900 3481 
Q 2900 3844 2670 4047 
Q 2441 4250 2034 4250 
Q 1625 4250 1398 4047 
Q 1172 3844 1172 3481 
z
" transform="scale(0.015625)"/>
       </defs>
       <use xlink:href="#DejaVuSans-2212"/>
       <use xlink:href="#DejaVuSans-38" transform="translate(83.789062 0)"/>
      </g>
     </g>
    </g>
    <g id="ytick_2">
     <g id="line2d_19">
      <path d="M 43.588125 544.843543 
L 849.833125 544.843543 
" clip-path="url(#pe0b3d45a03)" style="fill: none; stroke: #4a4a3d; stroke-opacity: 0.1; stroke-width: 0.8; stroke-linecap: square"/>
     </g>
     <g id="line2d_20">
      <g>
       <use xlink:href="#mf0092aab82" x="43.588125" y="544.843543" style="fill: #666666; stroke: #666666; stroke-width: 0.8"/>
      </g>
     </g>
     <g id="text_11">
      <!-- −6 -->
      <g style="fill: #666666" transform="translate(21.845938 548.642762) scale(0.1 -0.1)">
       <defs>
        <path id="DejaVuSans-36" d="M 2113 2584 
Q 1688 2584 1439 2293 
Q 1191 2003 1191 1497 
Q 1191 994 1439 701 
Q 1688 409 2113 409 
Q 2538 409 2786 701 
Q 3034 994 3034 1497 
Q 3034 2003 2786 2293 
Q 2538 2584 2113 2584 
z
M 3366 4563 
L 3366 3988 
Q 3128 4100 2886 4159 
Q 2644 4219 2406 4219 
Q 1781 4219 1451 3797 
Q 1122 3375 1075 2522 
Q 1259 2794 1537 2939 
Q 1816 3084 2150 3084 
Q 2853 3084 3261 2657 
Q 3669 2231 3669 1497 
Q 3669 778 3244 343 
Q 2819 -91 2113 -91 
Q 1303 -91 875 529 
Q 447 1150 447 2328 
Q 447 3434 972 4092 
Q 1497 4750 2381 4750 
Q 2619 4750 2861 4703 
Q 3103 4656 3366 4563 
z
" transform="scale(0.015625)"/>
       </defs>
       <use xlink:href="#DejaVuSans-2212"/>
       <use xlink:href="#DejaVuSans-36" transform="translate(83.789062 0)"/>
      </g>
     </g>
    </g>
    <g id="ytick_3">
     <g id="line2d_21">
      <path d="M 43.588125 473.656166 
L 849.833125 473.656166 
" clip-path="url(#pe0b3d45a03)" style="fill: none; stroke: #4a4a3d; stroke-opacity: 0.1; stroke-width: 0.8; stroke-linecap: square"/>
     </g>
     <g id="line2d_22">
      <g>
       <use xlink:href="#mf0092aab82" x="43.588125" y="473.656166" style="fill: #666666; stroke: #666666; stroke-width: 0.8"/>
      </g>
     </g>
     <g id="text_12">
      <!-- −4 -->
      <g style="fill: #666666" transform="translate(21.845938 477.455385) scale(0.1 -0.1)">
       <defs>
        <path id="DejaVuSans-34" d="M 2419 4116 
L 825 1625 
L 2419 1625 
L 2419 4116 
z
M 2253 4666 
L 3047 4666 
L 3047 1625 
L 3713 1625 
L 3713 1100 
L 3047 1100 
L 3047 0 
L 2419 0 
L 2419 1100 
L 313 1100 
L 313 1709 
L 2253 4666 
z
" transform="scale(0.015625)"/>
       </defs>
       <use xlink:href="#DejaVuSans-2212"/>
       <use xlink:href="#DejaVuSans-34" transform="translate(83.789062 0)"/>
      </g>
     </g>
    </g>
    <g id="ytick_4">
     <g id="line2d_23">
      <path d="M 43.588125 402.468789 
L 849.833125 402.468789 
" clip-path="url(#pe0b3d45a03)" style="fill: none; stroke: #4a4a3d; stroke-opacity: 0.1; stroke-width: 0.8; stroke-linecap: square"/>
     </g>
     <g id="line2d_24">
      <g>
       <use xlink:href="#mf0092aab82" x="43.588125" y="402.468789" style="fill: #666666; stroke: #666666; stroke-width: 0.8"/>
      </g>
     </g>
     <g id="text_13">
      <!-- −2 -->
      <g style="fill: #666666" transform="translate(21.845938 406.268008) scale(0.1 -0.1)">
       <use xlink:href="#DejaVuSans-2212"/>
       <use xlink:href="#DejaVuSans-32" transform="translate(83.789062 0)"/>
      </g>
     </g>
    </g>
    <g id="ytick_5">
     <g id="line2d_25">
      <path d="M 43.588125 331.281412 
L 849.833125 331.281412 
" clip-path="url(#pe0b3d45a03)" style="fill: none; stroke: #4a4a3d; stroke-opacity: 0.1; stroke-width: 0.8; stroke-linecap: square"/>
     </g>
     <g id="line2d_26">
      <g>
       <use xlink:href="#mf0092aab82" x="43.588125" y="331.281412" style="fill: #666666; stroke: #666666; stroke-width: 0.8"/>
      </g>
     </g>
     <g id="text_14">
      <!-- 0 -->
      <g style="fill: #666666" transform="translate(30.225625 335.08063) scale(0.1 -0.1)">
       <use xlink:href="#DejaVuSans-30"/>
      </g>
     </g>
    </g>
    <g id="ytick_6">
     <g id="line2d_27">
      <path d="M 43.588125 260.094035 
L 849.833125 260.094035 
" clip-path="url(#pe0b3d45a03)" style="fill: none; stroke: #4a4a3d; stroke-opacity: 0.1; stroke-width: 0.8; stroke-linecap: square"/>
     </g>
     <g id="line2d_28">
      <g>
       <use xlink:href="#mf0092aab82" x="43.588125" y="260.094035" style="fill: #666666; stroke: #666666; stroke-width: 0.8"/>
      </g>
     </g>
     <g id="text_15">
      <!-- 2 -->
      <g style="fill: #666666" transform="translate(30.225625 263.893253) scale(0.1 -0.1)">
       <use xlink:href="#DejaVuSans-32"/>
      </g>
     </g>
    </g>
    <g id="ytick_7">
     <g id="line2d_29">
      <path d="M 43.588125 188.906657 
L 849.833125 188.906657 
" clip-path="url(#pe0b3d45a03)" style="fill: none; stroke: #4a4a3d; stroke-opacity: 0.1; stroke-width: 0.8; stroke-linecap: square"/>
     </g>
     <g id="line2d_30">
      <g>
       <use xlink:href="#mf0092aab82" x="43.588125" y="188.906657" style="fill: #666666; stroke: #666666; stroke-width: 0.8"/>
      </g>
     </g>
     <g id="text_16">
      <!-- 4 -->
      <g style="fill: #666666" transform="translate(30.225625 192.705876) scale(0.1 -0.1)">
       <use xlink:href="#DejaVuSans-34"/>
      </g>
     </g>
    </g>
    <g id="ytick_8">
     <g id="line2d_31">
      <path d="M 43.588125 117.71928 
L 849.833125 117.71928 
" clip-path="url(#pe0b3d45a03)" style="fill: none; stroke: #4a4a3d; stroke-opacity: 0.1; stroke-width: 0.8; stroke-linecap: square"/>
     </g>
     <g id="line2d_32">
      <g>
       <use xlink:href="#mf0092aab82" x="43.588125" y="117.71928" style="fill: #666666; stroke: #666666; stroke-width: 0.8"/>
      </g>
     </g>
     <g id="text_17">
      <!-- 6 -->
      <g style="fill: #666666" transform="translate(30.225625 121.518499) scale(0.1 -0.1)">
       <use xlink:href="#DejaVuSans-36"/>
      </g>
     </g>
    </g>
    <g id="ytick_9">
     <g id="line2d_33">
      <path d="M 43.588125 46.531903 
L 849.833125 46.531903 
" clip-path="url(#pe0b3d45a03)" style="fill: none; stroke: #4a4a3d; stroke-opacity: 0.1; stroke-width: 0.8; stroke-linecap: square"/>
     </g>
     <g id="line2d_34">
      <g>
       <use xlink:href="#mf0092aab82" x="43.588125" y="46.531903" style="fill: #666666; stroke: #666666; stroke-width: 0.8"/>
      </g>
     </g>
     <g id="text_18">
      <!-- 8 -->
      <g style="fill: #666666" transform="translate(30.225625 50.331122) scale(0.1 -0.1)">
       <use xlink:href="#DejaVuSans-38"/>
      </g>
     </g>
    </g>
    <g id="text_19">
     <!-- Dimension 2 -->
     <g style="fill: #c5c5b0" transform="translate(15.558281 390.359375) rotate(-90) scale(0.11 -0.11)">
      <use xlink:href="#DejaVuSans-44"/>
      <use xlink:href="#DejaVuSans-69" transform="translate(77.001953 0)"/>
      <use xlink:href="#DejaVuSans-6d" transform="translate(104.785156 0)"/>
      <use xlink:href="#DejaVuSans-65" transform="translate(202.197266 0)"/>
      <use xlink:href="#DejaVuSans-6e" transform="translate(263.720703 0)"/>
      <use xlink:href="#DejaVuSans-73" transform="translate(327.099609 0)"/>
      <use xlink:href="#DejaVuSans-69" transform="translate(379.199219 0)"/>
      <use xlink:href="#DejaVuSans-6f" transform="translate(406.982422 0)"/>
      <use xlink:href="#DejaVuSans-6e" transform="translate(468.164062 0)"/>
      <use xlink:href="#DejaVuSans-20" transform="translate(531.542969 0)"/>
      <use xlink:href="#DejaVuSans-32" transform="translate(563.330078 0)"/>
     </g>
    </g>
   </g>
   <g id="line2d_35">
    <path d="M 246.520304 562.180006 
L 218.144538 546.753111 
" clip-path="url(#pe0b3d45a03)" style="fill: none; stroke: #1f77b4; stroke-opacity: 0.3; stroke-width: 2; stroke-linecap: square"/>
   </g>
   <g id="line2d_36">
    <path d="M 246.520304 562.180006 
L 635.490143 645.005085 
" clip-path="url(#pe0b3d45a03)" style="fill: none; stroke: #1f77b4; stroke-opacity: 0.3; stroke-width: 2; stroke-linecap: square"/>
   </g>
   <g id="line2d_37">
    <path d="M 648.316454 634.367013 
L 813.185625 307.753022 
" clip-path="url(#pe0b3d45a03)" style="fill: none; stroke: #1f77b4; stroke-opacity: 0.3; stroke-width: 2; stroke-linecap: square"/>
   </g>
   <g id="line2d_38">
    <path d="M 648.316454 634.367013 
L 635.490143 645.005085 
" clip-path="url(#pe0b3d45a03)" style="fill: none; stroke: #1f77b4; stroke-opacity: 0.3; stroke-width: 2; stroke-linecap: square"/>
   </g>
   <g id="line2d_39">
    <path d="M 220.805024 443.187947 
L 218.144538 546.753111 
" clip-path="url(#pe0b3d45a03)" style="fill: none; stroke: #1f77b4; stroke-opacity: 0.3; stroke-width: 2; stroke-linecap: square"/>
   </g>
   <g id="line2d_40">
    <path d="M 220.805024 443.187947 
L 226.260704 410.92775 
" clip-path="url(#pe0b3d45a03)" style="fill: none; stroke: #1f77b4; stroke-opacity: 0.3; stroke-width: 2; stroke-linecap: square"/>
   </g>
   <g id="line2d_41">
    <path d="M 791.256349 291.039655 
L 226.260704 410.92775 
" clip-path="url(#pe0b3d45a03)" style="fill: none; stroke: #1f77b4; stroke-opacity: 0.3; stroke-width: 2; stroke-linecap: square"/>
   </g>
   <g id="line2d_42">
    <path d="M 810.317982 291.088167 
L 813.185625 307.753022 
" clip-path="url(#pe0b3d45a03)" style="fill: none; stroke: #1f77b4; stroke-opacity: 0.3; stroke-width: 2; stroke-linecap: square"/>
   </g>
   <g id="line2d_43">
    <path d="M 810.317982 291.088167 
L 791.256349 291.039655 
" clip-path="url(#pe0b3d45a03)" style="fill: none; stroke: #1f77b4; stroke-opacity: 0.3; stroke-width: 2; stroke-linecap: square"/>
   </g>
   <g id="line2d_44">
    <path d="M 123.494839 156.789682 
L 80.235625 99.157358 
" clip-path="url(#pe0b3d45a03)" style="fill: none; stroke: #aec7e8; stroke-opacity: 0.3; stroke-width: 2; stroke-linecap: square"/>
   </g>
   <g id="line2d_45">
    <path d="M 123.494839 156.789682 
L 127.967093 160.928898 
" clip-path="url(#pe0b3d45a03)" style="fill: none; stroke: #aec7e8; stroke-opacity: 0.3; stroke-width: 2; stroke-linecap: square"/>
   </g>
   <g id="line2d_46">
    <path d="M 197.474606 155.12983 
L 325.02207 83.514962 
" clip-path="url(#pe0b3d45a03)" style="fill: none; stroke: #aec7e8; stroke-opacity: 0.3; stroke-width: 2; stroke-linecap: square"/>
   </g>
   <g id="line2d_47">
    <path d="M 197.474606 155.12983 
L 127.967093 160.928898 
" clip-path="url(#pe0b3d45a03)" style="fill: none; stroke: #aec7e8; stroke-opacity: 0.3; stroke-width: 2; stroke-linecap: square"/>
   </g>
   <g id="line2d_48">
    <path d="M 106.984393 80.29566 
L 217.592897 66.75054 
" clip-path="url(#pe0b3d45a03)" style="fill: none; stroke: #aec7e8; stroke-opacity: 0.3; stroke-width: 2; stroke-linecap: square"/>
   </g>
   <g id="line2d_49">
    <path d="M 314.516522 73.882294 
L 217.592897 66.75054 
" clip-path="url(#pe0b3d45a03)" style="fill: none; stroke: #aec7e8; stroke-opacity: 0.3; stroke-width: 2; stroke-linecap: square"/>
   </g>
   <g id="line2d_50">
    <path d="M 85.5947 94.81197 
L 80.235625 99.157358 
" clip-path="url(#pe0b3d45a03)" style="fill: none; stroke: #aec7e8; stroke-opacity: 0.3; stroke-width: 2; stroke-linecap: square"/>
   </g>
   <g id="line2d_51">
    <path d="M 85.5947 94.81197 
L 106.984393 80.29566 
" clip-path="url(#pe0b3d45a03)" style="fill: none; stroke: #aec7e8; stroke-opacity: 0.3; stroke-width: 2; stroke-linecap: square"/>
   </g>
   <g id="line2d_52">
    <path d="M 315.763695 74.524991 
L 325.02207 83.514962 
" clip-path="url(#pe0b3d45a03)" style="fill: none; stroke: #aec7e8; stroke-opacity: 0.3; stroke-width: 2; stroke-linecap: square"/>
   </g>
   <g id="line2d_53">
    <path d="M 315.763695 74.524991 
L 314.516522 73.882294 
" clip-path="url(#pe0b3d45a03)" style="fill: none; stroke: #aec7e8; stroke-opacity: 0.3; stroke-width: 2; stroke-linecap: square"/>
   </g>
   <g id="patch_5">
    <path d="M 43.588125 673.917812 
L 43.588125 37.837812 
" style="fill: none; stroke: #4a4a3d; stroke-width: 0.5; stroke-linejoin: miter; stroke-linecap: square"/>
   </g>
   <g id="patch_6">
    <path d="M 849.833125 673.917812 
L 849.833125 37.837812 
" style="fill: none; stroke: #4a4a3d; stroke-width: 0.5; stroke-linejoin: miter; stroke-linecap: square"/>
   </g>
   <g id="patch_7">
    <path d="M 43.588125 673.917812 
L 849.833125 673.917812 
" style="fill: none; stroke: #4a4a3d; stroke-width: 0.5; stroke-linejoin: miter; stroke-linecap: square"/>
   </g>
   <g id="patch_8">
    <path d="M 43.588125 37.837812 
L 849.833125 37.837812 
" style="fill: none; stroke: #4a4a3d; stroke-width: 0.5; stroke-linejoin: miter; stroke-linecap: square"/>
   </g>
   <g id="text_20">
    <g id="patch_9">
     <path d="M 409.709721 499.934424 
L 490.364408 499.934424 
Q 493.364408 499.934424 493.364408 496.934424 
L 493.364408 487.178174 
Q 493.364408 484.178174 490.364408 484.178174 
L 409.709721 484.178174 
Q 406.709721 484.178174 406.709721 487.178174 
L 406.709721 496.934424 
Q 406.709721 499.934424 409.709721 499.934424 
z
" style="fill: #1a1a1d; opacity: 0.7; stroke: #1f77b4; stroke-linejoin: miter"/>
    </g>
    <!-- Martini Family -->
    <g style="fill: #1f77b4; opacity: 0.8" transform="translate(409.709721 494.776611) scale(0.1 -0.1)">
     <defs>
      <path id="DejaVuSans-Bold-4d" d="M 588 4666 
L 2119 4666 
L 3181 2169 
L 4250 4666 
L 5778 4666 
L 5778 0 
L 4641 0 
L 4641 3413 
L 3566 897 
L 2803 897 
L 1728 3413 
L 1728 0 
L 588 0 
L 588 4666 
z
" transform="scale(0.015625)"/>
      <path id="DejaVuSans-Bold-61" d="M 2106 1575 
Q 1756 1575 1579 1456 
Q 1403 1338 1403 1106 
Q 1403 894 1545 773 
Q 1688 653 1941 653 
Q 2256 653 2472 879 
Q 2688 1106 2688 1447 
L 2688 1575 
L 2106 1575 
z
M 3816 1997 
L 3816 0 
L 2688 0 
L 2688 519 
Q 2463 200 2181 54 
Q 1900 -91 1497 -91 
Q 953 -91 614 226 
Q 275 544 275 1050 
Q 275 1666 698 1953 
Q 1122 2241 2028 2241 
L 2688 2241 
L 2688 2328 
Q 2688 2594 2478 2717 
Q 2269 2841 1825 2841 
Q 1466 2841 1156 2769 
Q 847 2697 581 2553 
L 581 3406 
Q 941 3494 1303 3539 
Q 1666 3584 2028 3584 
Q 2975 3584 3395 3211 
Q 3816 2838 3816 1997 
z
" transform="scale(0.015625)"/>
      <path id="DejaVuSans-Bold-72" d="M 3138 2547 
Q 2991 2616 2845 2648 
Q 2700 2681 2553 2681 
Q 2122 2681 1889 2404 
Q 1656 2128 1656 1613 
L 1656 0 
L 538 0 
L 538 3500 
L 1656 3500 
L 1656 2925 
Q 1872 3269 2151 3426 
Q 2431 3584 2822 3584 
Q 2878 3584 2943 3579 
Q 3009 3575 3134 3559 
L 3138 2547 
z
" transform="scale(0.015625)"/>
      <path id="DejaVuSans-Bold-74" d="M 1759 4494 
L 1759 3500 
L 2913 3500 
L 2913 2700 
L 1759 2700 
L 1759 1216 
Q 1759 972 1856 886 
Q 1953 800 2241 800 
L 2816 800 
L 2816 0 
L 1856 0 
Q 1194 0 917 276 
Q 641 553 641 1216 
L 641 2700 
L 84 2700 
L 84 3500 
L 641 3500 
L 641 4494 
L 1759 4494 
z
" transform="scale(0.015625)"/>
      <path id="DejaVuSans-Bold-69" d="M 538 3500 
L 1656 3500 
L 1656 0 
L 538 0 
L 538 3500 
z
M 538 4863 
L 1656 4863 
L 1656 3950 
L 538 3950 
L 538 4863 
z
" transform="scale(0.015625)"/>
      <path id="DejaVuSans-Bold-6e" d="M 4056 2131 
L 4056 0 
L 2931 0 
L 2931 347 
L 2931 1631 
Q 2931 2084 2911 2256 
Q 2891 2428 2841 2509 
Q 2775 2619 2662 2680 
Q 2550 2741 2406 2741 
Q 2056 2741 1856 2470 
Q 1656 2200 1656 1722 
L 1656 0 
L 538 0 
L 538 3500 
L 1656 3500 
L 1656 2988 
Q 1909 3294 2193 3439 
Q 2478 3584 2822 3584 
Q 3428 3584 3742 3212 
Q 4056 2841 4056 2131 
z
" transform="scale(0.015625)"/>
      <path id="DejaVuSans-Bold-20" transform="scale(0.015625)"/>
      <path id="DejaVuSans-Bold-46" d="M 588 4666 
L 3834 4666 
L 3834 3756 
L 1791 3756 
L 1791 2888 
L 3713 2888 
L 3713 1978 
L 1791 1978 
L 1791 0 
L 588 0 
L 588 4666 
z
" transform="scale(0.015625)"/>
      <path id="DejaVuSans-Bold-6d" d="M 3781 2919 
Q 3994 3244 4286 3414 
Q 4578 3584 4928 3584 
Q 5531 3584 5847 3212 
Q 6163 2841 6163 2131 
L 6163 0 
L 5038 0 
L 5038 1825 
Q 5041 1866 5042 1909 
Q 5044 1953 5044 2034 
Q 5044 2406 4934 2573 
Q 4825 2741 4581 2741 
Q 4263 2741 4089 2478 
Q 3916 2216 3909 1719 
L 3909 0 
L 2784 0 
L 2784 1825 
Q 2784 2406 2684 2573 
Q 2584 2741 2328 2741 
Q 2006 2741 1831 2477 
Q 1656 2213 1656 1722 
L 1656 0 
L 531 0 
L 531 3500 
L 1656 3500 
L 1656 2988 
Q 1863 3284 2130 3434 
Q 2397 3584 2719 3584 
Q 3081 3584 3359 3409 
Q 3638 3234 3781 2919 
z
" transform="scale(0.015625)"/>
      <path id="DejaVuSans-Bold-6c" d="M 538 4863 
L 1656 4863 
L 1656 0 
L 538 0 
L 538 4863 
z
" transform="scale(0.015625)"/>
      <path id="DejaVuSans-Bold-79" d="M 78 3500 
L 1197 3500 
L 2138 1125 
L 2938 3500 
L 4056 3500 
L 2584 -331 
Q 2363 -916 2067 -1148 
Q 1772 -1381 1288 -1381 
L 641 -1381 
L 641 -647 
L 991 -647 
Q 1275 -647 1404 -556 
Q 1534 -466 1606 -231 
L 1638 -134 
L 78 3500 
z
" transform="scale(0.015625)"/>
     </defs>
     <use xlink:href="#DejaVuSans-Bold-4d"/>
     <use xlink:href="#DejaVuSans-Bold-61" transform="translate(99.511719 0)"/>
     <use xlink:href="#DejaVuSans-Bold-72" transform="translate(166.992188 0)"/>
     <use xlink:href="#DejaVuSans-Bold-74" transform="translate(216.308594 0)"/>
     <use xlink:href="#DejaVuSans-Bold-69" transform="translate(264.111328 0)"/>
     <use xlink:href="#DejaVuSans-Bold-6e" transform="translate(298.388672 0)"/>
     <use xlink:href="#DejaVuSans-Bold-69" transform="translate(369.580078 0)"/>
     <use xlink:href="#DejaVuSans-Bold-20" transform="translate(403.857422 0)"/>
     <use xlink:href="#DejaVuSans-Bold-46" transform="translate(438.671875 0)"/>
     <use xlink:href="#DejaVuSans-Bold-61" transform="translate(501.107422 0)"/>
     <use xlink:href="#DejaVuSans-Bold-6d" transform="translate(568.587891 0)"/>
     <use xlink:href="#DejaVuSans-Bold-69" transform="translate(672.787109 0)"/>
     <use xlink:href="#DejaVuSans-Bold-6c" transform="translate(707.064453 0)"/>
     <use xlink:href="#DejaVuSans-Bold-79" transform="translate(741.341797 0)"/>
    </g>
   </g>
   <g id="text_21">
    <g id="patch_10">
     <path d="M 122.058905 115.951891 
L 236.472967 115.951891 
Q 239.472967 115.951891 239.472967 112.951891 
L 239.472967 103.273766 
Q 239.472967 100.273766 236.472967 100.273766 
L 122.058905 100.273766 
Q 119.058905 100.273766 119.058905 103.273766 
L 119.058905 112.951891 
Q 119.058905 115.951891 122.058905 115.951891 
z
" style="fill: #1a1a1d; opacity: 0.7; stroke: #aec7e8; stroke-linejoin: miter"/>
    </g>
    <!-- Chartreuse Complex -->
    <g style="fill: #aec7e8; opacity: 0.8" transform="translate(122.058905 110.872203) scale(0.1 -0.1)">
     <defs>
      <path id="DejaVuSans-Bold-43" d="M 4288 256 
Q 3956 84 3597 -3 
Q 3238 -91 2847 -91 
Q 1681 -91 1000 561 
Q 319 1213 319 2328 
Q 319 3447 1000 4098 
Q 1681 4750 2847 4750 
Q 3238 4750 3597 4662 
Q 3956 4575 4288 4403 
L 4288 3438 
Q 3953 3666 3628 3772 
Q 3303 3878 2944 3878 
Q 2300 3878 1931 3465 
Q 1563 3053 1563 2328 
Q 1563 1606 1931 1193 
Q 2300 781 2944 781 
Q 3303 781 3628 887 
Q 3953 994 4288 1222 
L 4288 256 
z
" transform="scale(0.015625)"/>
      <path id="DejaVuSans-Bold-68" d="M 4056 2131 
L 4056 0 
L 2931 0 
L 2931 347 
L 2931 1625 
Q 2931 2084 2911 2256 
Q 2891 2428 2841 2509 
Q 2775 2619 2662 2680 
Q 2550 2741 2406 2741 
Q 2056 2741 1856 2470 
Q 1656 2200 1656 1722 
L 1656 0 
L 538 0 
L 538 4863 
L 1656 4863 
L 1656 2988 
Q 1909 3294 2193 3439 
Q 2478 3584 2822 3584 
Q 3428 3584 3742 3212 
Q 4056 2841 4056 2131 
z
" transform="scale(0.015625)"/>
      <path id="DejaVuSans-Bold-65" d="M 4031 1759 
L 4031 1441 
L 1416 1441 
Q 1456 1047 1700 850 
Q 1944 653 2381 653 
Q 2734 653 3104 758 
Q 3475 863 3866 1075 
L 3866 213 
Q 3469 63 3072 -14 
Q 2675 -91 2278 -91 
Q 1328 -91 801 392 
Q 275 875 275 1747 
Q 275 2603 792 3093 
Q 1309 3584 2216 3584 
Q 3041 3584 3536 3087 
Q 4031 2591 4031 1759 
z
M 2881 2131 
Q 2881 2450 2695 2645 
Q 2509 2841 2209 2841 
Q 1884 2841 1681 2658 
Q 1478 2475 1428 2131 
L 2881 2131 
z
" transform="scale(0.015625)"/>
      <path id="DejaVuSans-Bold-75" d="M 500 1363 
L 500 3500 
L 1625 3500 
L 1625 3150 
Q 1625 2866 1622 2436 
Q 1619 2006 1619 1863 
Q 1619 1441 1641 1255 
Q 1663 1069 1716 984 
Q 1784 875 1895 815 
Q 2006 756 2150 756 
Q 2500 756 2700 1025 
Q 2900 1294 2900 1772 
L 2900 3500 
L 4019 3500 
L 4019 0 
L 2900 0 
L 2900 506 
Q 2647 200 2364 54 
Q 2081 -91 1741 -91 
Q 1134 -91 817 281 
Q 500 653 500 1363 
z
" transform="scale(0.015625)"/>
      <path id="DejaVuSans-Bold-73" d="M 3272 3391 
L 3272 2541 
Q 2913 2691 2578 2766 
Q 2244 2841 1947 2841 
Q 1628 2841 1473 2761 
Q 1319 2681 1319 2516 
Q 1319 2381 1436 2309 
Q 1553 2238 1856 2203 
L 2053 2175 
Q 2913 2066 3209 1816 
Q 3506 1566 3506 1031 
Q 3506 472 3093 190 
Q 2681 -91 1863 -91 
Q 1516 -91 1145 -36 
Q 775 19 384 128 
L 384 978 
Q 719 816 1070 734 
Q 1422 653 1784 653 
Q 2113 653 2278 743 
Q 2444 834 2444 1013 
Q 2444 1163 2330 1236 
Q 2216 1309 1875 1350 
L 1678 1375 
Q 931 1469 631 1722 
Q 331 1975 331 2491 
Q 331 3047 712 3315 
Q 1094 3584 1881 3584 
Q 2191 3584 2531 3537 
Q 2872 3491 3272 3391 
z
" transform="scale(0.015625)"/>
      <path id="DejaVuSans-Bold-6f" d="M 2203 2784 
Q 1831 2784 1636 2517 
Q 1441 2250 1441 1747 
Q 1441 1244 1636 976 
Q 1831 709 2203 709 
Q 2569 709 2762 976 
Q 2956 1244 2956 1747 
Q 2956 2250 2762 2517 
Q 2569 2784 2203 2784 
z
M 2203 3584 
Q 3106 3584 3614 3096 
Q 4122 2609 4122 1747 
Q 4122 884 3614 396 
Q 3106 -91 2203 -91 
Q 1297 -91 786 396 
Q 275 884 275 1747 
Q 275 2609 786 3096 
Q 1297 3584 2203 3584 
z
" transform="scale(0.015625)"/>
      <path id="DejaVuSans-Bold-70" d="M 1656 506 
L 1656 -1331 
L 538 -1331 
L 538 3500 
L 1656 3500 
L 1656 2988 
Q 1888 3294 2169 3439 
Q 2450 3584 2816 3584 
Q 3463 3584 3878 3070 
Q 4294 2556 4294 1747 
Q 4294 938 3878 423 
Q 3463 -91 2816 -91 
Q 2450 -91 2169 54 
Q 1888 200 1656 506 
z
M 2400 2772 
Q 2041 2772 1848 2508 
Q 1656 2244 1656 1747 
Q 1656 1250 1848 986 
Q 2041 722 2400 722 
Q 2759 722 2948 984 
Q 3138 1247 3138 1747 
Q 3138 2247 2948 2509 
Q 2759 2772 2400 2772 
z
" transform="scale(0.015625)"/>
      <path id="DejaVuSans-Bold-78" d="M 1422 1791 
L 159 3500 
L 1344 3500 
L 2059 2463 
L 2784 3500 
L 3969 3500 
L 2706 1797 
L 4031 0 
L 2847 0 
L 2059 1106 
L 1281 0 
L 97 0 
L 1422 1791 
z
" transform="scale(0.015625)"/>
     </defs>
     <use xlink:href="#DejaVuSans-Bold-43"/>
     <use xlink:href="#DejaVuSans-Bold-68" transform="translate(73.388672 0)"/>
     <use xlink:href="#DejaVuSans-Bold-61" transform="translate(144.580078 0)"/>
     <use xlink:href="#DejaVuSans-Bold-72" transform="translate(212.060547 0)"/>
     <use xlink:href="#DejaVuSans-Bold-74" transform="translate(261.376953 0)"/>
     <use xlink:href="#DejaVuSans-Bold-72" transform="translate(309.179688 0)"/>
     <use xlink:href="#DejaVuSans-Bold-65" transform="translate(358.496094 0)"/>
     <use xlink:href="#DejaVuSans-Bold-75" transform="translate(426.318359 0)"/>
     <use xlink:href="#DejaVuSans-Bold-73" transform="translate(497.509766 0)"/>
     <use xlink:href="#DejaVuSans-Bold-65" transform="translate(557.03125 0)"/>
     <use xlink:href="#DejaVuSans-Bold-20" transform="translate(624.853516 0)"/>
     <use xlink:href="#DejaVuSans-Bold-43" transform="translate(659.667969 0)"/>
     <use xlink:href="#DejaVuSans-Bold-6f" transform="translate(733.056641 0)"/>
     <use xlink:href="#DejaVuSans-Bold-6d" transform="translate(801.757812 0)"/>
     <use xlink:href="#DejaVuSans-Bold-70" transform="translate(905.957031 0)"/>
     <use xlink:href="#DejaVuSans-Bold-6c" transform="translate(977.539062 0)"/>
     <use xlink:href="#DejaVuSans-Bold-65" transform="translate(1011.816406 0)"/>
     <use xlink:href="#DejaVuSans-Bold-78" transform="translate(1079.638672 0)"/>
    </g>
   </g>
   <g id="text_22">
    <!-- Martini -->
    <g style="fill: #ffffff; opacity: 0.8" transform="translate(267.872412 426.995932) scale(0.08 -0.08)">
     <defs>
      <path id="DejaVuSans-4d" d="M 628 4666 
L 1569 4666 
L 2759 1491 
L 3956 4666 
L 4897 4666 
L 4897 0 
L 4281 0 
L 4281 4097 
L 3078 897 
L 2444 897 
L 1241 4097 
L 1241 0 
L 628 0 
L 628 4666 
z
" transform="scale(0.015625)"/>
      <path id="DejaVuSans-61" d="M 2194 1759 
Q 1497 1759 1228 1600 
Q 959 1441 959 1056 
Q 959 750 1161 570 
Q 1363 391 1709 391 
Q 2188 391 2477 730 
Q 2766 1069 2766 1631 
L 2766 1759 
L 2194 1759 
z
M 3341 1997 
L 3341 0 
L 2766 0 
L 2766 531 
Q 2569 213 2275 61 
Q 1981 -91 1556 -91 
Q 1019 -91 701 211 
Q 384 513 384 1019 
Q 384 1609 779 1909 
Q 1175 2209 1959 2209 
L 2766 2209 
L 2766 2266 
Q 2766 2663 2505 2880 
Q 2244 3097 1772 3097 
Q 1472 3097 1187 3025 
Q 903 2953 641 2809 
L 641 3341 
Q 956 3463 1253 3523 
Q 1550 3584 1831 3584 
Q 2591 3584 2966 3190 
Q 3341 2797 3341 1997 
z
" transform="scale(0.015625)"/>
      <path id="DejaVuSans-72" d="M 2631 2963 
Q 2534 3019 2420 3045 
Q 2306 3072 2169 3072 
Q 1681 3072 1420 2755 
Q 1159 2438 1159 1844 
L 1159 0 
L 581 0 
L 581 3500 
L 1159 3500 
L 1159 2956 
Q 1341 3275 1631 3429 
Q 1922 3584 2338 3584 
Q 2397 3584 2469 3576 
Q 2541 3569 2628 3553 
L 2631 2963 
z
" transform="scale(0.015625)"/>
      <path id="DejaVuSans-74" d="M 1172 4494 
L 1172 3500 
L 2356 3500 
L 2356 3053 
L 1172 3053 
L 1172 1153 
Q 1172 725 1289 603 
Q 1406 481 1766 481 
L 2356 481 
L 2356 0 
L 1766 0 
Q 1100 0 847 248 
Q 594 497 594 1153 
L 594 3053 
L 172 3053 
L 172 3500 
L 594 3500 
L 594 4494 
L 1172 4494 
z
" transform="scale(0.015625)"/>
     </defs>
     <use xlink:href="#DejaVuSans-4d"/>
     <use xlink:href="#DejaVuSans-61" transform="translate(86.279297 0)"/>
     <use xlink:href="#DejaVuSans-72" transform="translate(147.558594 0)"/>
     <use xlink:href="#DejaVuSans-74" transform="translate(188.671875 0)"/>
     <use xlink:href="#DejaVuSans-69" transform="translate(227.880859 0)"/>
     <use xlink:href="#DejaVuSans-6e" transform="translate(255.664062 0)"/>
     <use xlink:href="#DejaVuSans-69" transform="translate(319.042969 0)"/>
    </g>
   </g>
   <g id="text_23">
    <!-- Manhattan -->
    <g style="fill: #ffffff; opacity: 0.8" transform="translate(265.400612 534.564627) scale(0.08 -0.08)">
     <defs>
      <path id="DejaVuSans-68" d="M 3513 2113 
L 3513 0 
L 2938 0 
L 2938 2094 
Q 2938 2591 2744 2837 
Q 2550 3084 2163 3084 
Q 1697 3084 1428 2787 
Q 1159 2491 1159 1978 
L 1159 0 
L 581 0 
L 581 4863 
L 1159 4863 
L 1159 2956 
Q 1366 3272 1645 3428 
Q 1925 3584 2291 3584 
Q 2894 3584 3203 3211 
Q 3513 2838 3513 2113 
z
" transform="scale(0.015625)"/>
     </defs>
     <use xlink:href="#DejaVuSans-4d"/>
     <use xlink:href="#DejaVuSans-61" transform="translate(86.279297 0)"/>
     <use xlink:href="#DejaVuSans-6e" transform="translate(147.558594 0)"/>
     <use xlink:href="#DejaVuSans-68" transform="translate(210.9375 0)"/>
     <use xlink:href="#DejaVuSans-61" transform="translate(274.316406 0)"/>
     <use xlink:href="#DejaVuSans-74" transform="translate(335.595703 0)"/>
     <use xlink:href="#DejaVuSans-74" transform="translate(374.804688 0)"/>
     <use xlink:href="#DejaVuSans-61" transform="translate(414.013672 0)"/>
     <use xlink:href="#DejaVuSans-6e" transform="translate(475.292969 0)"/>
    </g>
   </g>
   <g id="text_24">
    <!-- Old Fashioned -->
    <g style="fill: #ffffff; opacity: 0.8" transform="translate(749.602628 334.770905) scale(0.08 -0.08)">
     <defs>
      <path id="DejaVuSans-4f" d="M 2522 4238 
Q 1834 4238 1429 3725 
Q 1025 3213 1025 2328 
Q 1025 1447 1429 934 
Q 1834 422 2522 422 
Q 3209 422 3611 934 
Q 4013 1447 4013 2328 
Q 4013 3213 3611 3725 
Q 3209 4238 2522 4238 
z
M 2522 4750 
Q 3503 4750 4090 4092 
Q 4678 3434 4678 2328 
Q 4678 1225 4090 567 
Q 3503 -91 2522 -91 
Q 1538 -91 948 565 
Q 359 1222 359 2328 
Q 359 3434 948 4092 
Q 1538 4750 2522 4750 
z
" transform="scale(0.015625)"/>
      <path id="DejaVuSans-6c" d="M 603 4863 
L 1178 4863 
L 1178 0 
L 603 0 
L 603 4863 
z
" transform="scale(0.015625)"/>
      <path id="DejaVuSans-64" d="M 2906 2969 
L 2906 4863 
L 3481 4863 
L 3481 0 
L 2906 0 
L 2906 525 
Q 2725 213 2448 61 
Q 2172 -91 1784 -91 
Q 1150 -91 751 415 
Q 353 922 353 1747 
Q 353 2572 751 3078 
Q 1150 3584 1784 3584 
Q 2172 3584 2448 3432 
Q 2725 3281 2906 2969 
z
M 947 1747 
Q 947 1113 1208 752 
Q 1469 391 1925 391 
Q 2381 391 2643 752 
Q 2906 1113 2906 1747 
Q 2906 2381 2643 2742 
Q 2381 3103 1925 3103 
Q 1469 3103 1208 2742 
Q 947 2381 947 1747 
z
" transform="scale(0.015625)"/>
      <path id="DejaVuSans-46" d="M 628 4666 
L 3309 4666 
L 3309 4134 
L 1259 4134 
L 1259 2759 
L 3109 2759 
L 3109 2228 
L 1259 2228 
L 1259 0 
L 628 0 
L 628 4666 
z
" transform="scale(0.015625)"/>
     </defs>
     <use xlink:href="#DejaVuSans-4f"/>
     <use xlink:href="#DejaVuSans-6c" transform="translate(78.710938 0)"/>
     <use xlink:href="#DejaVuSans-64" transform="translate(106.494141 0)"/>
     <use xlink:href="#DejaVuSans-20" transform="translate(169.970703 0)"/>
     <use xlink:href="#DejaVuSans-46" transform="translate(201.757812 0)"/>
     <use xlink:href="#DejaVuSans-61" transform="translate(250.152344 0)"/>
     <use xlink:href="#DejaVuSans-73" transform="translate(311.431641 0)"/>
     <use xlink:href="#DejaVuSans-68" transform="translate(363.53125 0)"/>
     <use xlink:href="#DejaVuSans-69" transform="translate(426.910156 0)"/>
     <use xlink:href="#DejaVuSans-6f" transform="translate(454.693359 0)"/>
     <use xlink:href="#DejaVuSans-6e" transform="translate(515.875 0)"/>
     <use xlink:href="#DejaVuSans-65" transform="translate(579.253906 0)"/>
     <use xlink:href="#DejaVuSans-64" transform="translate(640.777344 0)"/>
    </g>
   </g>
   <g id="text_25">
    <!-- Last Word -->
    <g style="fill: #ffffff; opacity: 0.8" transform="translate(98.844458 95.598097) scale(0.08 -0.08)">
     <defs>
      <path id="DejaVuSans-4c" d="M 628 4666 
L 1259 4666 
L 1259 531 
L 3531 531 
L 3531 0 
L 628 0 
L 628 4666 
z
" transform="scale(0.015625)"/>
      <path id="DejaVuSans-57" d="M 213 4666 
L 850 4666 
L 1831 722 
L 2809 4666 
L 3519 4666 
L 4500 722 
L 5478 4666 
L 6119 4666 
L 4947 0 
L 4153 0 
L 3169 4050 
L 2175 0 
L 1381 0 
L 213 4666 
z
" transform="scale(0.015625)"/>
     </defs>
     <use xlink:href="#DejaVuSans-4c"/>
     <use xlink:href="#DejaVuSans-61" transform="translate(55.712891 0)"/>
     <use xlink:href="#DejaVuSans-73" transform="translate(116.992188 0)"/>
     <use xlink:href="#DejaVuSans-74" transform="translate(169.091797 0)"/>
     <use xlink:href="#DejaVuSans-20" transform="translate(208.300781 0)"/>
     <use xlink:href="#DejaVuSans-57" transform="translate(240.087891 0)"/>
     <use xlink:href="#DejaVuSans-6f" transform="translate(333.089844 0)"/>
     <use xlink:href="#DejaVuSans-72" transform="translate(394.271484 0)"/>
     <use xlink:href="#DejaVuSans-64" transform="translate(433.634766 0)"/>
    </g>
   </g>
   <g id="text_26">
    <!-- Paper Plane -->
    <g style="fill: #ffffff; opacity: 0.8" transform="translate(102.349077 95.127164) scale(0.08 -0.08)">
     <defs>
      <path id="DejaVuSans-50" d="M 1259 4147 
L 1259 2394 
L 2053 2394 
Q 2494 2394 2734 2622 
Q 2975 2850 2975 3272 
Q 2975 3691 2734 3919 
Q 2494 4147 2053 4147 
L 1259 4147 
z
M 628 4666 
L 2053 4666 
Q 2838 4666 3239 4311 
Q 3641 3956 3641 3272 
Q 3641 2581 3239 2228 
Q 2838 1875 2053 1875 
L 1259 1875 
L 1259 0 
L 628 0 
L 628 4666 
z
" transform="scale(0.015625)"/>
      <path id="DejaVuSans-70" d="M 1159 525 
L 1159 -1331 
L 581 -1331 
L 581 3500 
L 1159 3500 
L 1159 2969 
Q 1341 3281 1617 3432 
Q 1894 3584 2278 3584 
Q 2916 3584 3314 3078 
Q 3713 2572 3713 1747 
Q 3713 922 3314 415 
Q 2916 -91 2278 -91 
Q 1894 -91 1617 61 
Q 1341 213 1159 525 
z
M 3116 1747 
Q 3116 2381 2855 2742 
Q 2594 3103 2138 3103 
Q 1681 3103 1420 2742 
Q 1159 2381 1159 1747 
Q 1159 1113 1420 752 
Q 1681 391 2138 391 
Q 2594 391 2855 752 
Q 3116 1113 3116 1747 
z
" transform="scale(0.015625)"/>
     </defs>
     <use xlink:href="#DejaVuSans-50"/>
     <use xlink:href="#DejaVuSans-61" transform="translate(55.802734 0)"/>
     <use xlink:href="#DejaVuSans-70" transform="translate(117.082031 0)"/>
     <use xlink:href="#DejaVuSans-65" transform="translate(180.558594 0)"/>
     <use xlink:href="#DejaVuSans-72" transform="translate(242.082031 0)"/>
     <use xlink:href="#DejaVuSans-20" transform="translate(283.195312 0)"/>
     <use xlink:href="#DejaVuSans-50" transform="translate(314.982422 0)"/>
     <use xlink:href="#DejaVuSans-6c" transform="translate(375.285156 0)"/>
     <use xlink:href="#DejaVuSans-61" transform="translate(403.068359 0)"/>
     <use xlink:href="#DejaVuSans-6e" transform="translate(464.347656 0)"/>
     <use xlink:href="#DejaVuSans-65" transform="translate(527.726562 0)"/>
    </g>
   </g>
   <g id="text_27">
    <!-- Margarita -->
    <g style="fill: #ffffff; opacity: 0.8" transform="translate(304.553422 81.762253) scale(0.08 -0.08)">
     <defs>
      <path id="DejaVuSans-67" d="M 2906 1791 
Q 2906 2416 2648 2759 
Q 2391 3103 1925 3103 
Q 1463 3103 1205 2759 
Q 947 2416 947 1791 
Q 947 1169 1205 825 
Q 1463 481 1925 481 
Q 2391 481 2648 825 
Q 2906 1169 2906 1791 
z
M 3481 434 
Q 3481 -459 3084 -895 
Q 2688 -1331 1869 -1331 
Q 1566 -1331 1297 -1286 
Q 1028 -1241 775 -1147 
L 775 -588 
Q 1028 -725 1275 -790 
Q 1522 -856 1778 -856 
Q 2344 -856 2625 -561 
Q 2906 -266 2906 331 
L 2906 616 
Q 2728 306 2450 153 
Q 2172 0 1784 0 
Q 1141 0 747 490 
Q 353 981 353 1791 
Q 353 2603 747 3093 
Q 1141 3584 1784 3584 
Q 2172 3584 2450 3431 
Q 2728 3278 2906 2969 
L 2906 3500 
L 3481 3500 
L 3481 434 
z
" transform="scale(0.015625)"/>
     </defs>
     <use xlink:href="#DejaVuSans-4d"/>
     <use xlink:href="#DejaVuSans-61" transform="translate(86.279297 0)"/>
     <use xlink:href="#DejaVuSans-72" transform="translate(147.558594 0)"/>
     <use xlink:href="#DejaVuSans-67" transform="translate(186.921875 0)"/>
     <use xlink:href="#DejaVuSans-61" transform="translate(250.398438 0)"/>
     <use xlink:href="#DejaVuSans-72" transform="translate(311.677734 0)"/>
     <use xlink:href="#DejaVuSans-69" transform="translate(352.791016 0)"/>
     <use xlink:href="#DejaVuSans-74" transform="translate(380.574219 0)"/>
     <use xlink:href="#DejaVuSans-61" transform="translate(419.783203 0)"/>
    </g>
   </g>
   <g id="text_28">
    <!-- Daiquiri -->
    <g style="fill: #ffffff; opacity: 0.8" transform="translate(194.433215 133.13044) scale(0.08 -0.08)">
     <defs>
      <path id="DejaVuSans-71" d="M 947 1747 
Q 947 1113 1208 752 
Q 1469 391 1925 391 
Q 2381 391 2643 752 
Q 2906 1113 2906 1747 
Q 2906 2381 2643 2742 
Q 2381 3103 1925 3103 
Q 1469 3103 1208 2742 
Q 947 2381 947 1747 
z
M 2906 525 
Q 2725 213 2448 61 
Q 2172 -91 1784 -91 
Q 1150 -91 751 415 
Q 353 922 353 1747 
Q 353 2572 751 3078 
Q 1150 3584 1784 3584 
Q 2172 3584 2448 3432 
Q 2725 3281 2906 2969 
L 2906 3500 
L 3481 3500 
L 3481 -1331 
L 2906 -1331 
L 2906 525 
z
" transform="scale(0.015625)"/>
      <path id="DejaVuSans-75" d="M 544 1381 
L 544 3500 
L 1119 3500 
L 1119 1403 
Q 1119 906 1312 657 
Q 1506 409 1894 409 
Q 2359 409 2629 706 
Q 2900 1003 2900 1516 
L 2900 3500 
L 3475 3500 
L 3475 0 
L 2900 0 
L 2900 538 
Q 2691 219 2414 64 
Q 2138 -91 1772 -91 
Q 1169 -91 856 284 
Q 544 659 544 1381 
z
M 1991 3584 
L 1991 3584 
z
" transform="scale(0.015625)"/>
     </defs>
     <use xlink:href="#DejaVuSans-44"/>
     <use xlink:href="#DejaVuSans-61" transform="translate(77.001953 0)"/>
     <use xlink:href="#DejaVuSans-69" transform="translate(138.28125 0)"/>
     <use xlink:href="#DejaVuSans-71" transform="translate(166.064453 0)"/>
     <use xlink:href="#DejaVuSans-75" transform="translate(229.541016 0)"/>
     <use xlink:href="#DejaVuSans-69" transform="translate(292.919922 0)"/>
     <use xlink:href="#DejaVuSans-72" transform="translate(320.703125 0)"/>
     <use xlink:href="#DejaVuSans-69" transform="translate(361.816406 0)"/>
    </g>
   </g>
   <g id="text_29">
    <!-- Whiskey Sour -->
    <g style="fill: #ffffff; opacity: 0.8" transform="translate(300.959639 75.906014) scale(0.08 -0.08)">
     <defs>
      <path id="DejaVuSans-6b" d="M 581 4863 
L 1159 4863 
L 1159 1991 
L 2875 3500 
L 3609 3500 
L 1753 1863 
L 3688 0 
L 2938 0 
L 1159 1709 
L 1159 0 
L 581 0 
L 581 4863 
z
" transform="scale(0.015625)"/>
      <path id="DejaVuSans-79" d="M 2059 -325 
Q 1816 -950 1584 -1140 
Q 1353 -1331 966 -1331 
L 506 -1331 
L 506 -850 
L 844 -850 
Q 1081 -850 1212 -737 
Q 1344 -625 1503 -206 
L 1606 56 
L 191 3500 
L 800 3500 
L 1894 763 
L 2988 3500 
L 3597 3500 
L 2059 -325 
z
" transform="scale(0.015625)"/>
      <path id="DejaVuSans-53" d="M 3425 4513 
L 3425 3897 
Q 3066 4069 2747 4153 
Q 2428 4238 2131 4238 
Q 1616 4238 1336 4038 
Q 1056 3838 1056 3469 
Q 1056 3159 1242 3001 
Q 1428 2844 1947 2747 
L 2328 2669 
Q 3034 2534 3370 2195 
Q 3706 1856 3706 1288 
Q 3706 609 3251 259 
Q 2797 -91 1919 -91 
Q 1588 -91 1214 -16 
Q 841 59 441 206 
L 441 856 
Q 825 641 1194 531 
Q 1563 422 1919 422 
Q 2459 422 2753 634 
Q 3047 847 3047 1241 
Q 3047 1584 2836 1778 
Q 2625 1972 2144 2069 
L 1759 2144 
Q 1053 2284 737 2584 
Q 422 2884 422 3419 
Q 422 4038 858 4394 
Q 1294 4750 2059 4750 
Q 2388 4750 2728 4690 
Q 3069 4631 3425 4513 
z
" transform="scale(0.015625)"/>
     </defs>
     <use xlink:href="#DejaVuSans-57"/>
     <use xlink:href="#DejaVuSans-68" transform="translate(98.876953 0)"/>
     <use xlink:href="#DejaVuSans-69" transform="translate(162.255859 0)"/>
     <use xlink:href="#DejaVuSans-73" transform="translate(190.039062 0)"/>
     <use xlink:href="#DejaVuSans-6b" transform="translate(242.138672 0)"/>
     <use xlink:href="#DejaVuSans-65" transform="translate(296.423828 0)"/>
     <use xlink:href="#DejaVuSans-79" transform="translate(357.947266 0)"/>
     <use xlink:href="#DejaVuSans-20" transform="translate(417.126953 0)"/>
     <use xlink:href="#DejaVuSans-53" transform="translate(448.914062 0)"/>
     <use xlink:href="#DejaVuSans-6f" transform="translate(512.390625 0)"/>
     <use xlink:href="#DejaVuSans-75" transform="translate(573.572266 0)"/>
     <use xlink:href="#DejaVuSans-72" transform="translate(636.951172 0)"/>
    </g>
   </g>
   <g id="text_30">
    <!-- Negroni -->
    <g style="fill: #ffffff; opacity: 0.8" transform="translate(577.731132 589.236219) scale(0.08 -0.08)">
     <defs>
      <path id="DejaVuSans-4e" d="M 628 4666 
L 1478 4666 
L 3547 763 
L 3547 4666 
L 4159 4666 
L 4159 0 
L 3309 0 
L 1241 3903 
L 1241 0 
L 628 0 
L 628 4666 
z
" transform="scale(0.015625)"/>
     </defs>
     <use xlink:href="#DejaVuSans-4e"/>
     <use xlink:href="#DejaVuSans-65" transform="translate(74.804688 0)"/>
     <use xlink:href="#DejaVuSans-67" transform="translate(136.328125 0)"/>
     <use xlink:href="#DejaVuSans-72" transform="translate(199.804688 0)"/>
     <use xlink:href="#DejaVuSans-6f" transform="translate(238.667969 0)"/>
     <use xlink:href="#DejaVuSans-6e" transform="translate(299.849609 0)"/>
     <use xlink:href="#DejaVuSans-69" transform="translate(363.228516 0)"/>
    </g>
   </g>
   <g id="text_31">
    <!-- Boulevardier -->
    <g style="fill: #ffffff; opacity: 0.8" transform="translate(299.875141 75.347147) scale(0.08 -0.08)">
     <defs>
      <path id="DejaVuSans-42" d="M 1259 2228 
L 1259 519 
L 2272 519 
Q 2781 519 3026 730 
Q 3272 941 3272 1375 
Q 3272 1813 3026 2020 
Q 2781 2228 2272 2228 
L 1259 2228 
z
M 1259 4147 
L 1259 2741 
L 2194 2741 
Q 2656 2741 2882 2914 
Q 3109 3088 3109 3444 
Q 3109 3797 2882 3972 
Q 2656 4147 2194 4147 
L 1259 4147 
z
M 628 4666 
L 2241 4666 
Q 2963 4666 3353 4366 
Q 3744 4066 3744 3513 
Q 3744 3084 3544 2831 
Q 3344 2578 2956 2516 
Q 3422 2416 3680 2098 
Q 3938 1781 3938 1306 
Q 3938 681 3513 340 
Q 3088 0 2303 0 
L 628 0 
L 628 4666 
z
" transform="scale(0.015625)"/>
      <path id="DejaVuSans-76" d="M 191 3500 
L 800 3500 
L 1894 563 
L 2988 3500 
L 3597 3500 
L 2284 0 
L 1503 0 
L 191 3500 
z
" transform="scale(0.015625)"/>
     </defs>
     <use xlink:href="#DejaVuSans-42"/>
     <use xlink:href="#DejaVuSans-6f" transform="translate(68.603516 0)"/>
     <use xlink:href="#DejaVuSans-75" transform="translate(129.785156 0)"/>
     <use xlink:href="#DejaVuSans-6c" transform="translate(193.164062 0)"/>
     <use xlink:href="#DejaVuSans-65" transform="translate(220.947266 0)"/>
     <use xlink:href="#DejaVuSans-76" transform="translate(282.470703 0)"/>
     <use xlink:href="#DejaVuSans-61" transform="translate(341.650391 0)"/>
     <use xlink:href="#DejaVuSans-72" transform="translate(402.929688 0)"/>
     <use xlink:href="#DejaVuSans-64" transform="translate(442.292969 0)"/>
     <use xlink:href="#DejaVuSans-69" transform="translate(505.769531 0)"/>
     <use xlink:href="#DejaVuSans-65" transform="translate(533.552734 0)"/>
     <use xlink:href="#DejaVuSans-72" transform="translate(595.076172 0)"/>
    </g>
   </g>
   <g id="text_32">
    <!-- Penicillin -->
    <g style="fill: #ffffff; opacity: 0.8" transform="translate(596.055623 611.986999) scale(0.08 -0.08)">
     <defs>
      <path id="DejaVuSans-63" d="M 3122 3366 
L 3122 2828 
Q 2878 2963 2633 3030 
Q 2388 3097 2138 3097 
Q 1578 3097 1268 2742 
Q 959 2388 959 1747 
Q 959 1106 1268 751 
Q 1578 397 2138 397 
Q 2388 397 2633 464 
Q 2878 531 3122 666 
L 3122 134 
Q 2881 22 2623 -34 
Q 2366 -91 2075 -91 
Q 1284 -91 818 406 
Q 353 903 353 1747 
Q 353 2603 823 3093 
Q 1294 3584 2113 3584 
Q 2378 3584 2631 3529 
Q 2884 3475 3122 3366 
z
" transform="scale(0.015625)"/>
     </defs>
     <use xlink:href="#DejaVuSans-50"/>
     <use xlink:href="#DejaVuSans-65" transform="translate(56.677734 0)"/>
     <use xlink:href="#DejaVuSans-6e" transform="translate(118.201172 0)"/>
     <use xlink:href="#DejaVuSans-69" transform="translate(181.580078 0)"/>
     <use xlink:href="#DejaVuSans-63" transform="translate(209.363281 0)"/>
     <use xlink:href="#DejaVuSans-69" transform="translate(264.34375 0)"/>
     <use xlink:href="#DejaVuSans-6c" transform="translate(292.126953 0)"/>
     <use xlink:href="#DejaVuSans-6c" transform="translate(319.910156 0)"/>
     <use xlink:href="#DejaVuSans-69" transform="translate(347.693359 0)"/>
     <use xlink:href="#DejaVuSans-6e" transform="translate(375.476562 0)"/>
    </g>
   </g>
   <g id="text_33">
    <!-- Aviation -->
    <g style="fill: #ffffff; opacity: 0.8" transform="translate(192.957142 72.72128) scale(0.08 -0.08)">
     <defs>
      <path id="DejaVuSans-41" d="M 2188 4044 
L 1331 1722 
L 3047 1722 
L 2188 4044 
z
M 1831 4666 
L 2547 4666 
L 4325 0 
L 3669 0 
L 3244 1197 
L 1141 1197 
L 716 0 
L 50 0 
L 1831 4666 
z
" transform="scale(0.015625)"/>
     </defs>
     <use xlink:href="#DejaVuSans-41"/>
     <use xlink:href="#DejaVuSans-76" transform="translate(62.533203 0)"/>
     <use xlink:href="#DejaVuSans-69" transform="translate(121.712891 0)"/>
     <use xlink:href="#DejaVuSans-61" transform="translate(149.496094 0)"/>
     <use xlink:href="#DejaVuSans-74" transform="translate(210.775391 0)"/>
     <use xlink:href="#DejaVuSans-69" transform="translate(249.984375 0)"/>
     <use xlink:href="#DejaVuSans-6f" transform="translate(277.767578 0)"/>
     <use xlink:href="#DejaVuSans-6e" transform="translate(338.949219 0)"/>
    </g>
   </g>
   <g id="text_34">
    <!-- Mai Tai -->
    <g style="fill: #ffffff; opacity: 0.8" transform="translate(624.060329 605.739325) scale(0.08 -0.08)">
     <defs>
      <path id="DejaVuSans-54" d="M -19 4666 
L 3928 4666 
L 3928 4134 
L 2272 4134 
L 2272 0 
L 1638 0 
L 1638 4134 
L -19 4134 
L -19 4666 
z
" transform="scale(0.015625)"/>
     </defs>
     <use xlink:href="#DejaVuSans-4d"/>
     <use xlink:href="#DejaVuSans-61" transform="translate(86.279297 0)"/>
     <use xlink:href="#DejaVuSans-69" transform="translate(147.558594 0)"/>
     <use xlink:href="#DejaVuSans-20" transform="translate(175.341797 0)"/>
     <use xlink:href="#DejaVuSans-54" transform="translate(207.128906 0)"/>
     <use xlink:href="#DejaVuSans-61" transform="translate(251.712891 0)"/>
     <use xlink:href="#DejaVuSans-69" transform="translate(312.992188 0)"/>
    </g>
   </g>
   <g id="text_35">
    <!-- Mojito -->
    <g style="fill: #ffffff; opacity: 0.8" transform="translate(625.453925 612.804746) scale(0.08 -0.08)">
     <defs>
      <path id="DejaVuSans-6a" d="M 603 3500 
L 1178 3500 
L 1178 -63 
Q 1178 -731 923 -1031 
Q 669 -1331 103 -1331 
L -116 -1331 
L -116 -844 
L 38 -844 
Q 366 -844 484 -692 
Q 603 -541 603 -63 
L 603 3500 
z
M 603 4863 
L 1178 4863 
L 1178 4134 
L 603 4134 
L 603 4863 
z
" transform="scale(0.015625)"/>
     </defs>
     <use xlink:href="#DejaVuSans-4d"/>
     <use xlink:href="#DejaVuSans-6f" transform="translate(86.279297 0)"/>
     <use xlink:href="#DejaVuSans-6a" transform="translate(147.460938 0)"/>
     <use xlink:href="#DejaVuSans-69" transform="translate(175.244141 0)"/>
     <use xlink:href="#DejaVuSans-74" transform="translate(203.027344 0)"/>
     <use xlink:href="#DejaVuSans-6f" transform="translate(242.236328 0)"/>
    </g>
   </g>
   <g id="text_36">
    <!-- Aperol Spritz -->
    <g style="fill: #ffffff; opacity: 0.8" transform="translate(572.153627 591.169867) scale(0.08 -0.08)">
     <defs>
      <path id="DejaVuSans-7a" d="M 353 3500 
L 3084 3500 
L 3084 2975 
L 922 459 
L 3084 459 
L 3084 0 
L 275 0 
L 275 525 
L 2438 3041 
L 353 3041 
L 353 3500 
z
" transform="scale(0.015625)"/>
     </defs>
     <use xlink:href="#DejaVuSans-41"/>
     <use xlink:href="#DejaVuSans-70" transform="translate(68.408203 0)"/>
     <use xlink:href="#DejaVuSans-65" transform="translate(131.884766 0)"/>
     <use xlink:href="#DejaVuSans-72" transform="translate(193.408203 0)"/>
     <use xlink:href="#DejaVuSans-6f" transform="translate(232.271484 0)"/>
     <use xlink:href="#DejaVuSans-6c" transform="translate(293.453125 0)"/>
     <use xlink:href="#DejaVuSans-20" transform="translate(321.236328 0)"/>
     <use xlink:href="#DejaVuSans-53" transform="translate(353.023438 0)"/>
     <use xlink:href="#DejaVuSans-70" transform="translate(416.5 0)"/>
     <use xlink:href="#DejaVuSans-72" transform="translate(479.976562 0)"/>
     <use xlink:href="#DejaVuSans-69" transform="translate(521.089844 0)"/>
     <use xlink:href="#DejaVuSans-74" transform="translate(548.873047 0)"/>
     <use xlink:href="#DejaVuSans-7a" transform="translate(588.082031 0)"/>
    </g>
   </g>
   <g id="text_37">
    <!-- blend_struct_a030 - KMeans k=2 (silhouette: 0.653) -->
    <g style="fill: #d4af37" transform="translate(242.022969 17.837812) scale(0.14 -0.14)">
     <defs>
      <path id="DejaVuSans-Bold-62" d="M 2400 722 
Q 2759 722 2948 984 
Q 3138 1247 3138 1747 
Q 3138 2247 2948 2509 
Q 2759 2772 2400 2772 
Q 2041 2772 1848 2508 
Q 1656 2244 1656 1747 
Q 1656 1250 1848 986 
Q 2041 722 2400 722 
z
M 1656 2988 
Q 1888 3294 2169 3439 
Q 2450 3584 2816 3584 
Q 3463 3584 3878 3070 
Q 4294 2556 4294 1747 
Q 4294 938 3878 423 
Q 3463 -91 2816 -91 
Q 2450 -91 2169 54 
Q 1888 200 1656 506 
L 1656 0 
L 538 0 
L 538 4863 
L 1656 4863 
L 1656 2988 
z
" transform="scale(0.015625)"/>
      <path id="DejaVuSans-Bold-64" d="M 2919 2988 
L 2919 4863 
L 4044 4863 
L 4044 0 
L 2919 0 
L 2919 506 
Q 2688 197 2409 53 
Q 2131 -91 1766 -91 
Q 1119 -91 703 423 
Q 288 938 288 1747 
Q 288 2556 703 3070 
Q 1119 3584 1766 3584 
Q 2128 3584 2408 3439 
Q 2688 3294 2919 2988 
z
M 2181 722 
Q 2541 722 2730 984 
Q 2919 1247 2919 1747 
Q 2919 2247 2730 2509 
Q 2541 2772 2181 2772 
Q 1825 2772 1636 2509 
Q 1447 2247 1447 1747 
Q 1447 1247 1636 984 
Q 1825 722 2181 722 
z
" transform="scale(0.015625)"/>
      <path id="DejaVuSans-Bold-5f" d="M 3200 -916 
L 3200 -1509 
L 0 -1509 
L 0 -916 
L 3200 -916 
z
" transform="scale(0.015625)"/>
      <path id="DejaVuSans-Bold-63" d="M 3366 3391 
L 3366 2478 
Q 3138 2634 2908 2709 
Q 2678 2784 2431 2784 
Q 1963 2784 1702 2511 
Q 1441 2238 1441 1747 
Q 1441 1256 1702 982 
Q 1963 709 2431 709 
Q 2694 709 2930 787 
Q 3166 866 3366 1019 
L 3366 103 
Q 3103 6 2833 -42 
Q 2563 -91 2291 -91 
Q 1344 -91 809 395 
Q 275 881 275 1747 
Q 275 2613 809 3098 
Q 1344 3584 2291 3584 
Q 2566 3584 2833 3536 
Q 3100 3488 3366 3391 
z
" transform="scale(0.015625)"/>
      <path id="DejaVuSans-Bold-30" d="M 2944 2338 
Q 2944 3213 2780 3570 
Q 2616 3928 2228 3928 
Q 1841 3928 1675 3570 
Q 1509 3213 1509 2338 
Q 1509 1453 1675 1090 
Q 1841 728 2228 728 
Q 2613 728 2778 1090 
Q 2944 1453 2944 2338 
z
M 4147 2328 
Q 4147 1169 3647 539 
Q 3147 -91 2228 -91 
Q 1306 -91 806 539 
Q 306 1169 306 2328 
Q 306 3491 806 4120 
Q 1306 4750 2228 4750 
Q 3147 4750 3647 4120 
Q 4147 3491 4147 2328 
z
" transform="scale(0.015625)"/>
      <path id="DejaVuSans-Bold-33" d="M 2981 2516 
Q 3453 2394 3698 2092 
Q 3944 1791 3944 1325 
Q 3944 631 3412 270 
Q 2881 -91 1863 -91 
Q 1503 -91 1142 -33 
Q 781 25 428 141 
L 428 1069 
Q 766 900 1098 814 
Q 1431 728 1753 728 
Q 2231 728 2486 893 
Q 2741 1059 2741 1369 
Q 2741 1688 2480 1852 
Q 2219 2016 1709 2016 
L 1228 2016 
L 1228 2791 
L 1734 2791 
Q 2188 2791 2409 2933 
Q 2631 3075 2631 3366 
Q 2631 3634 2415 3781 
Q 2200 3928 1806 3928 
Q 1516 3928 1219 3862 
Q 922 3797 628 3669 
L 628 4550 
Q 984 4650 1334 4700 
Q 1684 4750 2022 4750 
Q 2931 4750 3382 4451 
Q 3834 4153 3834 3553 
Q 3834 3144 3618 2883 
Q 3403 2622 2981 2516 
z
" transform="scale(0.015625)"/>
      <path id="DejaVuSans-Bold-2d" d="M 347 2297 
L 2309 2297 
L 2309 1388 
L 347 1388 
L 347 2297 
z
" transform="scale(0.015625)"/>
      <path id="DejaVuSans-Bold-4b" d="M 588 4666 
L 1791 4666 
L 1791 2963 
L 3525 4666 
L 4922 4666 
L 2675 2456 
L 5153 0 
L 3647 0 
L 1791 1838 
L 1791 0 
L 588 0 
L 588 4666 
z
" transform="scale(0.015625)"/>
      <path id="DejaVuSans-Bold-6b" d="M 538 4863 
L 1656 4863 
L 1656 2216 
L 2944 3500 
L 4244 3500 
L 2534 1894 
L 4378 0 
L 3022 0 
L 1656 1459 
L 1656 0 
L 538 0 
L 538 4863 
z
" transform="scale(0.015625)"/>
      <path id="DejaVuSans-Bold-3d" d="M 678 3084 
L 4684 3084 
L 4684 2350 
L 678 2350 
L 678 3084 
z
M 678 1663 
L 4684 1663 
L 4684 922 
L 678 922 
L 678 1663 
z
" transform="scale(0.015625)"/>
      <path id="DejaVuSans-Bold-32" d="M 1844 884 
L 3897 884 
L 3897 0 
L 506 0 
L 506 884 
L 2209 2388 
Q 2438 2594 2547 2791 
Q 2656 2988 2656 3200 
Q 2656 3528 2436 3728 
Q 2216 3928 1850 3928 
Q 1569 3928 1234 3808 
Q 900 3688 519 3450 
L 519 4475 
Q 925 4609 1322 4679 
Q 1719 4750 2100 4750 
Q 2938 4750 3402 4381 
Q 3866 4013 3866 3353 
Q 3866 2972 3669 2642 
Q 3472 2313 2841 1759 
L 1844 884 
z
" transform="scale(0.015625)"/>
      <path id="DejaVuSans-Bold-28" d="M 2413 -844 
L 1484 -844 
Q 1006 -72 778 623 
Q 550 1319 550 2003 
Q 550 2688 779 3389 
Q 1009 4091 1484 4856 
L 2413 4856 
Q 2013 4116 1813 3408 
Q 1613 2700 1613 2009 
Q 1613 1319 1811 609 
Q 2009 -100 2413 -844 
z
" transform="scale(0.015625)"/>
      <path id="DejaVuSans-Bold-3a" d="M 716 3500 
L 1844 3500 
L 1844 2291 
L 716 2291 
L 716 3500 
z
M 716 1209 
L 1844 1209 
L 1844 0 
L 716 0 
L 716 1209 
z
" transform="scale(0.015625)"/>
      <path id="DejaVuSans-Bold-2e" d="M 653 1209 
L 1778 1209 
L 1778 0 
L 653 0 
L 653 1209 
z
" transform="scale(0.015625)"/>
      <path id="DejaVuSans-Bold-36" d="M 2316 2303 
Q 2000 2303 1842 2098 
Q 1684 1894 1684 1484 
Q 1684 1075 1842 870 
Q 2000 666 2316 666 
Q 2634 666 2792 870 
Q 2950 1075 2950 1484 
Q 2950 1894 2792 2098 
Q 2634 2303 2316 2303 
z
M 3803 4544 
L 3803 3681 
Q 3506 3822 3243 3889 
Q 2981 3956 2731 3956 
Q 2194 3956 1894 3657 
Q 1594 3359 1544 2772 
Q 1750 2925 1990 3001 
Q 2231 3078 2516 3078 
Q 3231 3078 3670 2659 
Q 4109 2241 4109 1563 
Q 4109 813 3618 361 
Q 3128 -91 2303 -91 
Q 1394 -91 895 523 
Q 397 1138 397 2266 
Q 397 3422 980 4083 
Q 1563 4744 2578 4744 
Q 2900 4744 3203 4694 
Q 3506 4644 3803 4544 
z
" transform="scale(0.015625)"/>
      <path id="DejaVuSans-Bold-35" d="M 678 4666 
L 3669 4666 
L 3669 3781 
L 1638 3781 
L 1638 3059 
Q 1775 3097 1914 3117 
Q 2053 3138 2203 3138 
Q 3056 3138 3531 2711 
Q 4006 2284 4006 1522 
Q 4006 766 3489 337 
Q 2972 -91 2053 -91 
Q 1656 -91 1267 -14 
Q 878 63 494 219 
L 494 1166 
Q 875 947 1217 837 
Q 1559 728 1863 728 
Q 2300 728 2551 942 
Q 2803 1156 2803 1522 
Q 2803 1891 2551 2103 
Q 2300 2316 1863 2316 
Q 1603 2316 1309 2248 
Q 1016 2181 678 2041 
L 678 4666 
z
" transform="scale(0.015625)"/>
      <path id="DejaVuSans-Bold-29" d="M 513 -844 
Q 913 -100 1113 609 
Q 1313 1319 1313 2009 
Q 1313 2700 1113 3408 
Q 913 4116 513 4856 
L 1441 4856 
Q 1916 4091 2145 3389 
Q 2375 2688 2375 2003 
Q 2375 1319 2147 623 
Q 1919 -72 1441 -844 
L 513 -844 
z
" transform="scale(0.015625)"/>
     </defs>
     <use xlink:href="#DejaVuSans-Bold-62"/>
     <use xlink:href="#DejaVuSans-Bold-6c" transform="translate(71.582031 0)"/>
     <use xlink:href="#DejaVuSans-Bold-65" transform="translate(105.859375 0)"/>
     <use xlink:href="#DejaVuSans-Bold-6e" transform="translate(173.681641 0)"/>
     <use xlink:href="#DejaVuSans-Bold-64" transform="translate(244.873047 0)"/>
     <use xlink:href="#DejaVuSans-Bold-5f" transform="translate(316.455078 0)"/>
     <use xlink:href="#DejaVuSans-Bold-73" transform="translate(366.455078 0)"/>
     <use xlink:href="#DejaVuSans-Bold-74" transform="translate(425.976562 0)"/>
     <use xlink:href="#DejaVuSans-Bold-72" transform="translate(473.779297 0)"/>
     <use xlink:href="#DejaVuSans-Bold-75" transform="translate(523.095703 0)"/>
     <use xlink:href="#DejaVuSans-Bold-63" transform="translate(594.287109 0)"/>
     <use xlink:href="#DejaVuSans-Bold-74" transform="translate(653.564453 0)"/>
     <use xlink:href="#DejaVuSans-Bold-5f" transform="translate(701.367188 0)"/>
     <use xlink:href="#DejaVuSans-Bold-61" transform="translate(751.367188 0)"/>
     <use xlink:href="#DejaVuSans-Bold-30" transform="translate(818.847656 0)"/>
     <use xlink:href="#DejaVuSans-Bold-33" transform="translate(888.427734 0)"/>
     <use xlink:href="#DejaVuSans-Bold-30" transform="translate(958.007812 0)"/>
     <use xlink:href="#DejaVuSans-Bold-20" transform="translate(1027.587891 0)"/>
     <use xlink:href="#DejaVuSans-Bold-2d" transform="translate(1062.402344 0)"/>
     <use xlink:href="#DejaVuSans-Bold-20" transform="translate(1103.90625 0)"/>
     <use xlink:href="#DejaVuSans-Bold-4b" transform="translate(1138.720703 0)"/>
     <use xlink:href="#DejaVuSans-Bold-4d" transform="translate(1216.210938 0)"/>
     <use xlink:href="#DejaVuSans-Bold-65" transform="translate(1315.722656 0)"/>
     <use xlink:href="#DejaVuSans-Bold-61" transform="translate(1383.544922 0)"/>
     <use xlink:href="#DejaVuSans-Bold-6e" transform="translate(1451.025391 0)"/>
     <use xlink:href="#DejaVuSans-Bold-73" transform="translate(1522.216797 0)"/>
     <use xlink:href="#DejaVuSans-Bold-20" transform="translate(1581.738281 0)"/>
     <use xlink:href="#DejaVuSans-Bold-6b" transform="translate(1616.552734 0)"/>
     <use xlink:href="#DejaVuSans-Bold-3d" transform="translate(1683.056641 0)"/>
     <use xlink:href="#DejaVuSans-Bold-32" transform="translate(1766.845703 0)"/>
     <use xlink:href="#DejaVuSans-Bold-20" transform="translate(1836.425781 0)"/>
     <use xlink:href="#DejaVuSans-Bold-28" transform="translate(1871.240234 0)"/>
     <use xlink:href="#DejaVuSans-Bold-73" transform="translate(1916.943359 0)"/>
     <use xlink:href="#DejaVuSans-Bold-69" transform="translate(1976.464844 0)"/>
     <use xlink:href="#DejaVuSans-Bold-6c" transform="translate(2010.742188 0)"/>
     <use xlink:href="#DejaVuSans-Bold-68" transform="translate(2045.019531 0)"/>
     <use xlink:href="#DejaVuSans-Bold-6f" transform="translate(2116.210938 0)"/>
     <use xlink:href="#DejaVuSans-Bold-75" transform="translate(2184.912109 0)"/>
     <use xlink:href="#DejaVuSans-Bold-65" transform="translate(2256.103516 0)"/>
     <use xlink:href="#DejaVuSans-Bold-74" transform="translate(2323.925781 0)"/>
     <use xlink:href="#DejaVuSans-Bold-74" transform="translate(2371.728516 0)"/>
     <use xlink:href="#DejaVuSans-Bold-65" transform="translate(2419.53125 0)"/>
     <use xlink:href="#DejaVuSans-Bold-3a" transform="translate(2487.353516 0)"/>
     <use xlink:href="#DejaVuSans-Bold-20" transform="translate(2527.34375 0)"/>
     <use xlink:href="#DejaVuSans-Bold-30" transform="translate(2562.158203 0)"/>
     <use xlink:href="#DejaVuSans-Bold-2e" transform="translate(2631.738281 0)"/>
     <use xlink:href="#DejaVuSans-Bold-36" transform="translate(2669.726562 0)"/>
     <use xlink:href="#DejaVuSans-Bold-35" transform="translate(2739.306641 0)"/>
     <use xlink:href="#DejaVuSans-Bold-33" transform="translate(2808.886719 0)"/>
     <use xlink:href="#DejaVuSans-Bold-29" transform="translate(2878.466797 0)"/>
    </g>
   </g>
  </g>
 </g>
 <defs>
  <clipPath id="pe0b3d45a03">
   <rect x="43.588125" y="37.837812" width="806.245" height="636.08"/>
  </clipPath>
 </defs>
</svg>
