<?xml version="1.0" encoding="utf-8" standalone="no"?>
<!DOCTYPE svg PUBLIC "-//W3C//DTD SVG 1.1//EN"
  "http://www.w3.org/Graphics/SVG/1.1/DTD/svg11.dtd">
<svg xmlns:xlink="http://www.w3.org/1999/xlink" width="857.033125pt" height="712.441875pt" viewBox="0 0 857.033125 712.441875" xmlns="http://www.w3.org/2000/svg" version="1.1">
 <metadata>
  <rdf:RDF xmlns:dc="http://purl.org/dc/elements/1.1/" xmlns:cc="http://creativecommons.org/ns#" xmlns:rdf="http://www.w3.org/1999/02/22-rdf-syntax-ns#">
   <cc:Work>
    <dc:type rdf:resource="http://purl.org/dc/dcmitype/StillImage"/>
    <dc:date>2026-02-26T15:07:02.314496</dc:date>
    <dc:format>image/svg+xml</dc:format>
    <dc:creator>
     <cc:Agent>
      <dc:title>Matplotlib v3.10.8, https://matplotlib.org/</dc:title>
     </cc:Agent>
    </dc:creator>
   </cc:Work>
  </rdf:RDF>
 </metadata>
 <defs>
  <style type="text/css">*{stroke-linejoin: round; stroke-linecap: butt}</style>
 </defs>
 <g id="figure_1">
  <g id="patch_1">
   <path d="M 0 712.441875 
L 857.033125 712.441875 
L 857.033125 0 
L 0 0 
z
" style="fill: #1a1a1d"/>
  </g>
  <g id="axes_1">
   <g id="patch_2">
    <path d="M 43.588125 673.917812 
L 849.833125 673.917812 
L 849.833125 37.837812 
L 43.588125 37.837812 
z
" style="fill: #1a1a1d"/>
   </g>
   <g id="PathCollection_1">
    <defs>
     <path id="m3c8b6c8cf4" d="M 0 4.472136 
C 1.186024 4.472136 2.323632 4.000923 3.162278 3.162278 
C 4.000923 2.323632 4.472136 1.186024 4.472136 0 
C 4.472136 -1.186024 4.000923 -2.323632 3.162278 -3.162278 
C 2.323632 -4.000923 1.186024 -4.472136 0 -4.472136 
C -1.186024 -4.472136 -2.323632 -4.000923 -3.162278 -3.162278 
C -4.000923 -2.323632 -4.472136 -1.186024 -4.472136 0 
C -4.472136 1.186024 -4.000923 2.323632 -3.162278 3.162278 
C -2.323632 4.000923 -1.186024 4.472136 0 4.472136 
z
" style="stroke: #ffffff; stroke-opacity: 0.7; stroke-width: 0.5"/>
    </defs>
    <g clip-path="url(#pf45e68bd2a)">
     <use xlink:href="#m3c8b6c8cf4" x="177.517324" y="216.109346" style="fill: #1f77b4; fill-opacity: 0.7; stroke: #ffffff; stroke-opacity: 0.7; stroke-width: 0.5"/>
     <use xlink:href="#m3c8b6c8cf4" x="114.671353" y="105.136348" style="fill: #1f77b4; fill-opacity: 0.7; stroke: #ffffff; stroke-opacity: 0.7; stroke-width: 0.5"/>
     <use xlink:href="#m3c8b6c8cf4" x="118.444887" y="99.742437" style="fill: #1f77b4; fill-opacity: 0.7; stroke: #ffffff; stroke-opacity: 0.7; stroke-width: 0.5"/>
     <use xlink:href="#m3c8b6c8cf4" x="153.62173" y="213.959888" style="fill: #1f77b4; fill-opacity: 0.7; stroke: #ffffff; stroke-opacity: 0.7; stroke-width: 0.5"/>
     <use xlink:href="#m3c8b6c8cf4" x="230.835569" y="229.741469" style="fill: #1f77b4; fill-opacity: 0.7; stroke: #ffffff; stroke-opacity: 0.7; stroke-width: 0.5"/>
     <use xlink:href="#m3c8b6c8cf4" x="119.684258" y="175.062759" style="fill: #1f77b4; fill-opacity: 0.7; stroke: #ffffff; stroke-opacity: 0.7; stroke-width: 0.5"/>
     <use xlink:href="#m3c8b6c8cf4" x="115.9588" y="226.832914" style="fill: #1f77b4; fill-opacity: 0.7; stroke: #ffffff; stroke-opacity: 0.7; stroke-width: 0.5"/>
     <use xlink:href="#m3c8b6c8cf4" x="124.409357" y="256.096904" style="fill: #1f77b4; fill-opacity: 0.7; stroke: #ffffff; stroke-opacity: 0.7; stroke-width: 0.5"/>
     <use xlink:href="#m3c8b6c8cf4" x="206.989527" y="296.879352" style="fill: #1f77b4; fill-opacity: 0.7; stroke: #ffffff; stroke-opacity: 0.7; stroke-width: 0.5"/>
     <use xlink:href="#m3c8b6c8cf4" x="137.410481" y="269.431958" style="fill: #1f77b4; fill-opacity: 0.7; stroke: #ffffff; stroke-opacity: 0.7; stroke-width: 0.5"/>
     <use xlink:href="#m3c8b6c8cf4" x="116.356336" y="147.20394" style="fill: #1f77b4; fill-opacity: 0.7; stroke: #ffffff; stroke-opacity: 0.7; stroke-width: 0.5"/>
     <use xlink:href="#m3c8b6c8cf4" x="151.330901" y="94.011047" style="fill: #1f77b4; fill-opacity: 0.7; stroke: #ffffff; stroke-opacity: 0.7; stroke-width: 0.5"/>
     <use xlink:href="#m3c8b6c8cf4" x="117.987732" y="151.459848" style="fill: #1f77b4; fill-opacity: 0.7; stroke: #ffffff; stroke-opacity: 0.7; stroke-width: 0.5"/>
     <use xlink:href="#m3c8b6c8cf4" x="127.159178" y="194.011579" style="fill: #1f77b4; fill-opacity: 0.7; stroke: #ffffff; stroke-opacity: 0.7; stroke-width: 0.5"/>
     <use xlink:href="#m3c8b6c8cf4" x="172.121839" y="267.838704" style="fill: #1f77b4; fill-opacity: 0.7; stroke: #ffffff; stroke-opacity: 0.7; stroke-width: 0.5"/>
     <use xlink:href="#m3c8b6c8cf4" x="145.855135" y="267.178232" style="fill: #1f77b4; fill-opacity: 0.7; stroke: #ffffff; stroke-opacity: 0.7; stroke-width: 0.5"/>
     <use xlink:href="#m3c8b6c8cf4" x="91.15329" y="216.621087" style="fill: #1f77b4; fill-opacity: 0.7; stroke: #ffffff; stroke-opacity: 0.7; stroke-width: 0.5"/>
     <use xlink:href="#m3c8b6c8cf4" x="185.526991" y="253.386221" style="fill: #1f77b4; fill-opacity: 0.7; stroke: #ffffff; stroke-opacity: 0.7; stroke-width: 0.5"/>
     <use xlink:href="#m3c8b6c8cf4" x="267.037928" y="236.035212" style="fill: #1f77b4; fill-opacity: 0.7; stroke: #ffffff; stroke-opacity: 0.7; stroke-width: 0.5"/>
     <use xlink:href="#m3c8b6c8cf4" x="225.366788" y="249.052558" style="fill: #1f77b4; fill-opacity: 0.7; stroke: #ffffff; stroke-opacity: 0.7; stroke-width: 0.5"/>
     <use xlink:href="#m3c8b6c8cf4" x="136.660536" y="195.248523" style="fill: #1f77b4; fill-opacity: 0.7; stroke: #ffffff; stroke-opacity: 0.7; stroke-width: 0.5"/>
     <use xlink:href="#m3c8b6c8cf4" x="327.439428" y="282.837491" style="fill: #1f77b4; fill-opacity: 0.7; stroke: #ffffff; stroke-opacity: 0.7; stroke-width: 0.5"/>
     <use xlink:href="#m3c8b6c8cf4" x="282.735647" y="240.405911" style="fill: #1f77b4; fill-opacity: 0.7; stroke: #ffffff; stroke-opacity: 0.7; stroke-width: 0.5"/>
     <use xlink:href="#m3c8b6c8cf4" x="130.953503" y="122.537936" style="fill: #1f77b4; fill-opacity: 0.7; stroke: #ffffff; stroke-opacity: 0.7; stroke-width: 0.5"/>
     <use xlink:href="#m3c8b6c8cf4" x="121.214515" y="104.068062" style="fill: #1f77b4; fill-opacity: 0.7; stroke: #ffffff; stroke-opacity: 0.7; stroke-width: 0.5"/>
    </g>
   </g>
   <g id="patch_3">
    <path d="M 351.964684 294.597776 
L 149.439878 77.447365 
L 111.620962 84.038465 
L 107.281398 90.241461 
L 80.235625 218.448911 
L 118.480103 263.846101 
L 133.431395 279.181413 
L 213.447298 310.745916 
z
" clip-path="url(#pf45e68bd2a)" style="fill: #1f77b4; opacity: 0.05"/>
   </g>
   <g id="PathCollection_2">
    <defs>
     <path id="m74c098c713" d="M 0 4.472136 
C 1.186024 4.472136 2.323632 4.000923 3.162278 3.162278 
C 4.000923 2.323632 4.472136 1.186024 4.472136 0 
C 4.472136 -1.186024 4.000923 -2.323632 3.162278 -3.162278 
C 2.323632 -4.000923 1.186024 -4.472136 0 -4.472136 
C -1.186024 -4.472136 -2.323632 -4.000923 -3.162278 -3.162278 
C -4.000923 -2.323632 -4.472136 -1.186024 -4.472136 0 
C -4.472136 1.186024 -4.000923 2.323632 -3.162278 3.162278 
C -2.323632 4.000923 -1.186024 4.472136 0 4.472136 
z
" style="stroke: #ffffff; stroke-opacity: 0.7; stroke-width: 0.5"/>
    </defs>
    <g clip-path="url(#pf45e68bd2a)">
     <use xlink:href="#m74c098c713" x="570.893169" y="295.160653" style="fill: #aec7e8; fill-opacity: 0.7; stroke: #ffffff; stroke-opacity: 0.7; stroke-width: 0.5"/>
     <use xlink:href="#m74c098c713" x="792.187913" y="268.430954" style="fill: #aec7e8; fill-opacity: 0.7; stroke: #ffffff; stroke-opacity: 0.7; stroke-width: 0.5"/>
     <use xlink:href="#m74c098c713" x="777.998078" y="344.114149" style="fill: #aec7e8; fill-opacity: 0.7; stroke: #ffffff; stroke-opacity: 0.7; stroke-width: 0.5"/>
     <use xlink:href="#m74c098c713" x="740.660453" y="243.553106" style="fill: #aec7e8; fill-opacity: 0.7; stroke: #ffffff; stroke-opacity: 0.7; stroke-width: 0.5"/>
     <use xlink:href="#m74c098c713" x="716.466797" y="382.586495" style="fill: #aec7e8; fill-opacity: 0.7; stroke: #ffffff; stroke-opacity: 0.7; stroke-width: 0.5"/>
     <use xlink:href="#m74c098c713" x="701.591087" y="396.930081" style="fill: #aec7e8; fill-opacity: 0.7; stroke: #ffffff; stroke-opacity: 0.7; stroke-width: 0.5"/>
     <use xlink:href="#m74c098c713" x="780.014111" y="261.027017" style="fill: #aec7e8; fill-opacity: 0.7; stroke: #ffffff; stroke-opacity: 0.7; stroke-width: 0.5"/>
     <use xlink:href="#m74c098c713" x="801.141013" y="266.038811" style="fill: #aec7e8; fill-opacity: 0.7; stroke: #ffffff; stroke-opacity: 0.7; stroke-width: 0.5"/>
     <use xlink:href="#m74c098c713" x="781.740103" y="321.938336" style="fill: #aec7e8; fill-opacity: 0.7; stroke: #ffffff; stroke-opacity: 0.7; stroke-width: 0.5"/>
     <use xlink:href="#m74c098c713" x="745.865951" y="351.149201" style="fill: #aec7e8; fill-opacity: 0.7; stroke: #ffffff; stroke-opacity: 0.7; stroke-width: 0.5"/>
     <use xlink:href="#m74c098c713" x="721.369637" y="333.5478" style="fill: #aec7e8; fill-opacity: 0.7; stroke: #ffffff; stroke-opacity: 0.7; stroke-width: 0.5"/>
     <use xlink:href="#m74c098c713" x="764.642002" y="348.423183" style="fill: #aec7e8; fill-opacity: 0.7; stroke: #ffffff; stroke-opacity: 0.7; stroke-width: 0.5"/>
     <use xlink:href="#m74c098c713" x="613.096319" y="422.067238" style="fill: #aec7e8; fill-opacity: 0.7; stroke: #ffffff; stroke-opacity: 0.7; stroke-width: 0.5"/>
     <use xlink:href="#m74c098c713" x="706.464701" y="376.572222" style="fill: #aec7e8; fill-opacity: 0.7; stroke: #ffffff; stroke-opacity: 0.7; stroke-width: 0.5"/>
     <use xlink:href="#m74c098c713" x="731.013631" y="381.113474" style="fill: #aec7e8; fill-opacity: 0.7; stroke: #ffffff; stroke-opacity: 0.7; stroke-width: 0.5"/>
     <use xlink:href="#m74c098c713" x="643.61575" y="433.816651" style="fill: #aec7e8; fill-opacity: 0.7; stroke: #ffffff; stroke-opacity: 0.7; stroke-width: 0.5"/>
     <use xlink:href="#m74c098c713" x="683.903573" y="408.819065" style="fill: #aec7e8; fill-opacity: 0.7; stroke: #ffffff; stroke-opacity: 0.7; stroke-width: 0.5"/>
     <use xlink:href="#m74c098c713" x="793.252468" y="268.537073" style="fill: #aec7e8; fill-opacity: 0.7; stroke: #ffffff; stroke-opacity: 0.7; stroke-width: 0.5"/>
     <use xlink:href="#m74c098c713" x="630.111681" y="428.5709" style="fill: #aec7e8; fill-opacity: 0.7; stroke: #ffffff; stroke-opacity: 0.7; stroke-width: 0.5"/>
    </g>
   </g>
   <g id="patch_4">
    <path d="M 743.632981 228.514522 
L 548.400605 287.863201 
L 596.934227 433.805773 
L 632.031572 447.317598 
L 732.539135 386.708945 
L 786.571249 344.159721 
L 813.185625 254.373082 
z
" clip-path="url(#pf45e68bd2a)" style="fill: #aec7e8; opacity: 0.05"/>
   </g>
   <g id="PathCollection_3">
    <defs>
     <path id="m9a712ec6c0" d="M 0 4.472136 
C 1.186024 4.472136 2.323632 4.000923 3.162278 3.162278 
C 4.000923 2.323632 4.472136 1.186024 4.472136 0 
C 4.472136 -1.186024 4.000923 -2.323632 3.162278 -3.162278 
C 2.323632 -4.000923 1.186024 -4.472136 0 -4.472136 
C -1.186024 -4.472136 -2.323632 -4.000923 -3.162278 -3.162278 
C -4.000923 -2.323632 -4.472136 -1.186024 -4.472136 0 
C -4.472136 1.186024 -4.000923 2.323632 -3.162278 3.162278 
C -2.323632 4.000923 -1.186024 4.472136 0 4.472136 
z
" style="stroke: #ffffff; stroke-opacity: 0.7; stroke-width: 0.5"/>
    </defs>
    <g clip-path="url(#pf45e68bd2a)">
     <use xlink:href="#m9a712ec6c0" x="512.283988" y="208.816368" style="fill: #ff7f0e; fill-opacity: 0.7; stroke: #ffffff; stroke-opacity: 0.7; stroke-width: 0.5"/>
     <use xlink:href="#m9a712ec6c0" x="487.648337" y="254.478156" style="fill: #ff7f0e; fill-opacity: 0.7; stroke: #ffffff; stroke-opacity: 0.7; stroke-width: 0.5"/>
     <use xlink:href="#m9a712ec6c0" x="553.831117" y="214.370676" style="fill: #ff7f0e; fill-opacity: 0.7; stroke: #ffffff; stroke-opacity: 0.7; stroke-width: 0.5"/>
     <use xlink:href="#m9a712ec6c0" x="574.899167" y="134.913658" style="fill: #ff7f0e; fill-opacity: 0.7; stroke: #ffffff; stroke-opacity: 0.7; stroke-width: 0.5"/>
     <use xlink:href="#m9a712ec6c0" x="614.48238" y="115.368526" style="fill: #ff7f0e; fill-opacity: 0.7; stroke: #ffffff; stroke-opacity: 0.7; stroke-width: 0.5"/>
     <use xlink:href="#m9a712ec6c0" x="607.047682" y="109.296357" style="fill: #ff7f0e; fill-opacity: 0.7; stroke: #ffffff; stroke-opacity: 0.7; stroke-width: 0.5"/>
     <use xlink:href="#m9a712ec6c0" x="490.68201" y="89.954622" style="fill: #ff7f0e; fill-opacity: 0.7; stroke: #ffffff; stroke-opacity: 0.7; stroke-width: 0.5"/>
     <use xlink:href="#m9a712ec6c0" x="558.130117" y="183.579432" style="fill: #ff7f0e; fill-opacity: 0.7; stroke: #ffffff; stroke-opacity: 0.7; stroke-width: 0.5"/>
     <use xlink:href="#m9a712ec6c0" x="535.509344" y="107.35475" style="fill: #ff7f0e; fill-opacity: 0.7; stroke: #ffffff; stroke-opacity: 0.7; stroke-width: 0.5"/>
     <use xlink:href="#m9a712ec6c0" x="421.448028" y="103.973303" style="fill: #ff7f0e; fill-opacity: 0.7; stroke: #ffffff; stroke-opacity: 0.7; stroke-width: 0.5"/>
     <use xlink:href="#m9a712ec6c0" x="479.992079" y="113.584708" style="fill: #ff7f0e; fill-opacity: 0.7; stroke: #ffffff; stroke-opacity: 0.7; stroke-width: 0.5"/>
     <use xlink:href="#m9a712ec6c0" x="517.368073" y="85.644895" style="fill: #ff7f0e; fill-opacity: 0.7; stroke: #ffffff; stroke-opacity: 0.7; stroke-width: 0.5"/>
     <use xlink:href="#m9a712ec6c0" x="522.636545" y="77.741103" style="fill: #ff7f0e; fill-opacity: 0.7; stroke: #ffffff; stroke-opacity: 0.7; stroke-width: 0.5"/>
     <use xlink:href="#m9a712ec6c0" x="510.473288" y="143.113326" style="fill: #ff7f0e; fill-opacity: 0.7; stroke: #ffffff; stroke-opacity: 0.7; stroke-width: 0.5"/>
     <use xlink:href="#m9a712ec6c0" x="485.294297" y="77.050458" style="fill: #ff7f0e; fill-opacity: 0.7; stroke: #ffffff; stroke-opacity: 0.7; stroke-width: 0.5"/>
     <use xlink:href="#m9a712ec6c0" x="627.569802" y="200.911133" style="fill: #ff7f0e; fill-opacity: 0.7; stroke: #ffffff; stroke-opacity: 0.7; stroke-width: 0.5"/>
     <use xlink:href="#m9a712ec6c0" x="611.463693" y="88.124377" style="fill: #ff7f0e; fill-opacity: 0.7; stroke: #ffffff; stroke-opacity: 0.7; stroke-width: 0.5"/>
     <use xlink:href="#m9a712ec6c0" x="463.12176" y="232.330536" style="fill: #ff7f0e; fill-opacity: 0.7; stroke: #ffffff; stroke-opacity: 0.7; stroke-width: 0.5"/>
     <use xlink:href="#m9a712ec6c0" x="476.663321" y="95.983988" style="fill: #ff7f0e; fill-opacity: 0.7; stroke: #ffffff; stroke-opacity: 0.7; stroke-width: 0.5"/>
     <use xlink:href="#m9a712ec6c0" x="450.005232" y="84.964635" style="fill: #ff7f0e; fill-opacity: 0.7; stroke: #ffffff; stroke-opacity: 0.7; stroke-width: 0.5"/>
     <use xlink:href="#m9a712ec6c0" x="547.332063" y="160.099794" style="fill: #ff7f0e; fill-opacity: 0.7; stroke: #ffffff; stroke-opacity: 0.7; stroke-width: 0.5"/>
     <use xlink:href="#m9a712ec6c0" x="519.555139" y="82.696408" style="fill: #ff7f0e; fill-opacity: 0.7; stroke: #ffffff; stroke-opacity: 0.7; stroke-width: 0.5"/>
     <use xlink:href="#m9a712ec6c0" x="631.167427" y="216.391465" style="fill: #ff7f0e; fill-opacity: 0.7; stroke: #ffffff; stroke-opacity: 0.7; stroke-width: 0.5"/>
     <use xlink:href="#m9a712ec6c0" x="624.073374" y="106.645912" style="fill: #ff7f0e; fill-opacity: 0.7; stroke: #ffffff; stroke-opacity: 0.7; stroke-width: 0.5"/>
     <use xlink:href="#m9a712ec6c0" x="493.173737" y="219.089347" style="fill: #ff7f0e; fill-opacity: 0.7; stroke: #ffffff; stroke-opacity: 0.7; stroke-width: 0.5"/>
     <use xlink:href="#m9a712ec6c0" x="525.478223" y="163.429383" style="fill: #ff7f0e; fill-opacity: 0.7; stroke: #ffffff; stroke-opacity: 0.7; stroke-width: 0.5"/>
     <use xlink:href="#m9a712ec6c0" x="454.054994" y="264.440387" style="fill: #ff7f0e; fill-opacity: 0.7; stroke: #ffffff; stroke-opacity: 0.7; stroke-width: 0.5"/>
    </g>
   </g>
   <g id="patch_5">
    <path d="M 405.246426 97.711811 
L 442.744436 282.248958 
L 646.423734 226.992698 
L 638.265573 100.785312 
L 623.764441 79.485546 
L 521.61322 67.544781 
L 478.669635 66.75054 
L 438.08721 75.851843 
z
" clip-path="url(#pf45e68bd2a)" style="fill: #ff7f0e; opacity: 0.05"/>
   </g>
   <g id="PathCollection_4">
    <defs>
     <path id="m1454502f27" d="M 0 4.472136 
C 1.186024 4.472136 2.323632 4.000923 3.162278 3.162278 
C 4.000923 2.323632 4.472136 1.186024 4.472136 0 
C 4.472136 -1.186024 4.000923 -2.323632 3.162278 -3.162278 
C 2.323632 -4.000923 1.186024 -4.472136 0 -4.472136 
C -1.186024 -4.472136 -2.323632 -4.000923 -3.162278 -3.162278 
C -4.000923 -2.323632 -4.472136 -1.186024 -4.472136 0 
C -4.472136 1.186024 -4.000923 2.323632 -3.162278 3.162278 
C -2.323632 4.000923 -1.186024 4.472136 0 4.472136 
z
" style="stroke: #ffffff; stroke-opacity: 0.7; stroke-width: 0.5"/>
    </defs>
    <g clip-path="url(#pf45e68bd2a)">
     <use xlink:href="#m1454502f27" x="268.930106" y="525.847079" style="fill: #ffbb78; fill-opacity: 0.7; stroke: #ffffff; stroke-opacity: 0.7; stroke-width: 0.5"/>
     <use xlink:href="#m1454502f27" x="369.974934" y="600.257363" style="fill: #ffbb78; fill-opacity: 0.7; stroke: #ffffff; stroke-opacity: 0.7; stroke-width: 0.5"/>
     <use xlink:href="#m1454502f27" x="320.290617" y="506.341058" style="fill: #ffbb78; fill-opacity: 0.7; stroke: #ffffff; stroke-opacity: 0.7; stroke-width: 0.5"/>
     <use xlink:href="#m1454502f27" x="303.861744" y="513.907107" style="fill: #ffbb78; fill-opacity: 0.7; stroke: #ffffff; stroke-opacity: 0.7; stroke-width: 0.5"/>
     <use xlink:href="#m1454502f27" x="498.180952" y="444.836447" style="fill: #ffbb78; fill-opacity: 0.7; stroke: #ffffff; stroke-opacity: 0.7; stroke-width: 0.5"/>
     <use xlink:href="#m1454502f27" x="243.870569" y="541.904734" style="fill: #ffbb78; fill-opacity: 0.7; stroke: #ffffff; stroke-opacity: 0.7; stroke-width: 0.5"/>
     <use xlink:href="#m1454502f27" x="426.690494" y="463.085403" style="fill: #ffbb78; fill-opacity: 0.7; stroke: #ffffff; stroke-opacity: 0.7; stroke-width: 0.5"/>
     <use xlink:href="#m1454502f27" x="475.630064" y="619.37252" style="fill: #ffbb78; fill-opacity: 0.7; stroke: #ffffff; stroke-opacity: 0.7; stroke-width: 0.5"/>
     <use xlink:href="#m1454502f27" x="497.370288" y="612.517163" style="fill: #ffbb78; fill-opacity: 0.7; stroke: #ffffff; stroke-opacity: 0.7; stroke-width: 0.5"/>
     <use xlink:href="#m1454502f27" x="332.450004" y="465.219727" style="fill: #ffbb78; fill-opacity: 0.7; stroke: #ffffff; stroke-opacity: 0.7; stroke-width: 0.5"/>
     <use xlink:href="#m1454502f27" x="318.476424" y="588.261103" style="fill: #ffbb78; fill-opacity: 0.7; stroke: #ffffff; stroke-opacity: 0.7; stroke-width: 0.5"/>
     <use xlink:href="#m1454502f27" x="349.29399" y="526.58881" style="fill: #ffbb78; fill-opacity: 0.7; stroke: #ffffff; stroke-opacity: 0.7; stroke-width: 0.5"/>
     <use xlink:href="#m1454502f27" x="361.609774" y="477.139733" style="fill: #ffbb78; fill-opacity: 0.7; stroke: #ffffff; stroke-opacity: 0.7; stroke-width: 0.5"/>
     <use xlink:href="#m1454502f27" x="361.50329" y="541.316346" style="fill: #ffbb78; fill-opacity: 0.7; stroke: #ffffff; stroke-opacity: 0.7; stroke-width: 0.5"/>
     <use xlink:href="#m1454502f27" x="496.587827" y="630.998472" style="fill: #ffbb78; fill-opacity: 0.7; stroke: #ffffff; stroke-opacity: 0.7; stroke-width: 0.5"/>
     <use xlink:href="#m1454502f27" x="270.240182" y="507.331614" style="fill: #ffbb78; fill-opacity: 0.7; stroke: #ffffff; stroke-opacity: 0.7; stroke-width: 0.5"/>
     <use xlink:href="#m1454502f27" x="336.558961" y="524.239638" style="fill: #ffbb78; fill-opacity: 0.7; stroke: #ffffff; stroke-opacity: 0.7; stroke-width: 0.5"/>
     <use xlink:href="#m1454502f27" x="268.603867" y="568.783316" style="fill: #ffbb78; fill-opacity: 0.7; stroke: #ffffff; stroke-opacity: 0.7; stroke-width: 0.5"/>
     <use xlink:href="#m1454502f27" x="280.832975" y="578.387339" style="fill: #ffbb78; fill-opacity: 0.7; stroke: #ffffff; stroke-opacity: 0.7; stroke-width: 0.5"/>
     <use xlink:href="#m1454502f27" x="237.563987" y="539.097566" style="fill: #ffbb78; fill-opacity: 0.7; stroke: #ffffff; stroke-opacity: 0.7; stroke-width: 0.5"/>
     <use xlink:href="#m1454502f27" x="349.312224" y="479.806567" style="fill: #ffbb78; fill-opacity: 0.7; stroke: #ffffff; stroke-opacity: 0.7; stroke-width: 0.5"/>
     <use xlink:href="#m1454502f27" x="531.732367" y="462.724216" style="fill: #ffbb78; fill-opacity: 0.7; stroke: #ffffff; stroke-opacity: 0.7; stroke-width: 0.5"/>
     <use xlink:href="#m1454502f27" x="497.771152" y="436.492721" style="fill: #ffbb78; fill-opacity: 0.7; stroke: #ffffff; stroke-opacity: 0.7; stroke-width: 0.5"/>
     <use xlink:href="#m1454502f27" x="514.506538" y="619.333704" style="fill: #ffbb78; fill-opacity: 0.7; stroke: #ffffff; stroke-opacity: 0.7; stroke-width: 0.5"/>
     <use xlink:href="#m1454502f27" x="508.277482" y="611.112086" style="fill: #ffbb78; fill-opacity: 0.7; stroke: #ffffff; stroke-opacity: 0.7; stroke-width: 0.5"/>
     <use xlink:href="#m1454502f27" x="399.500888" y="593.841546" style="fill: #ffbb78; fill-opacity: 0.7; stroke: #ffffff; stroke-opacity: 0.7; stroke-width: 0.5"/>
     <use xlink:href="#m1454502f27" x="368.907046" y="557.96567" style="fill: #ffbb78; fill-opacity: 0.7; stroke: #ffffff; stroke-opacity: 0.7; stroke-width: 0.5"/>
     <use xlink:href="#m1454502f27" x="381.669525" y="606.208835" style="fill: #ffbb78; fill-opacity: 0.7; stroke: #ffffff; stroke-opacity: 0.7; stroke-width: 0.5"/>
     <use xlink:href="#m1454502f27" x="239.270548" y="527.403613" style="fill: #ffbb78; fill-opacity: 0.7; stroke: #ffffff; stroke-opacity: 0.7; stroke-width: 0.5"/>
     <use xlink:href="#m1454502f27" x="209.327711" y="542.915403" style="fill: #ffbb78; fill-opacity: 0.7; stroke: #ffffff; stroke-opacity: 0.7; stroke-width: 0.5"/>
     <use xlink:href="#m1454502f27" x="512.674391" y="453.015591" style="fill: #ffbb78; fill-opacity: 0.7; stroke: #ffffff; stroke-opacity: 0.7; stroke-width: 0.5"/>
    </g>
   </g>
   <g id="patch_6">
    <path d="M 326.520065 454.359528 
L 184.929427 543.709556 
L 267.160481 584.502283 
L 383.122513 616.497003 
L 515.278561 645.005085 
L 535.885079 631.590603 
L 555.694782 451.489691 
L 516.639384 421.323472 
z
" clip-path="url(#pf45e68bd2a)" style="fill: #ffbb78; opacity: 0.05"/>
   </g>
   <g id="matplotlib.axis_1">
    <g id="xtick_1">
     <g id="line2d_1">
      <path d="M 60.91786 673.917812 
L 60.91786 37.837812 
" clip-path="url(#pf45e68bd2a)" style="fill: none; stroke: #4a4a3d; stroke-opacity: 0.1; stroke-width: 0.8; stroke-linecap: square"/>
     </g>
     <g id="line2d_2">
      <defs>
       <path id="m0da48da312" d="M 0 0 
L 0 3.5 
" style="stroke: #666666; stroke-width: 0.8"/>
      </defs>
      <g>
       <use xlink:href="#m0da48da312" x="60.91786" y="673.917812" style="fill: #666666; stroke: #666666; stroke-width: 0.8"/>
      </g>
     </g>
     <g id="text_1">
      <!-- −5 -->
      <g style="fill: #666666" transform="translate(53.546766 688.51625) scale(0.1 -0.1)">
       <defs>
        <path id="DejaVuSans-2212" d="M 678 2272 
L 4684 2272 
L 4684 1741 
L 678 1741 
L 678 2272 
z
" transform="scale(0.015625)"/>
        <path id="DejaVuSans-35" d="M 691 4666 
L 3169 4666 
L 3169 4134 
L 1269 4134 
L 1269 2991 
Q 1406 3038 1543 3061 
Q 1681 3084 1819 3084 
Q 2600 3084 3056 2656 
Q 3513 2228 3513 1497 
Q 3513 744 3044 326 
Q 2575 -91 1722 -91 
Q 1428 -91 1123 -41 
Q 819 9 494 109 
L 494 744 
Q 775 591 1075 516 
Q 1375 441 1709 441 
Q 2250 441 2565 725 
Q 2881 1009 2881 1497 
Q 2881 1984 2565 2268 
Q 2250 2553 1709 2553 
Q 1456 2553 1204 2497 
Q 953 2441 691 2322 
L 691 4666 
z
" transform="scale(0.015625)"/>
       </defs>
       <use xlink:href="#DejaVuSans-2212"/>
       <use xlink:href="#DejaVuSans-35" transform="translate(83.789062 0)"/>
      </g>
     </g>
    </g>
    <g id="xtick_2">
     <g id="line2d_3">
      <path d="M 198.468036 673.917812 
L 198.468036 37.837812 
" clip-path="url(#pf45e68bd2a)" style="fill: none; stroke: #4a4a3d; stroke-opacity: 0.1; stroke-width: 0.8; stroke-linecap: square"/>
     </g>
     <g id="line2d_4">
      <g>
       <use xlink:href="#m0da48da312" x="198.468036" y="673.917812" style="fill: #666666; stroke: #666666; stroke-width: 0.8"/>
      </g>
     </g>
     <g id="text_2">
      <!-- −4 -->
      <g style="fill: #666666" transform="translate(191.096942 688.51625) scale(0.1 -0.1)">
       <defs>
        <path id="DejaVuSans-34" d="M 2419 4116 
L 825 1625 
L 2419 1625 
L 2419 4116 
z
M 2253 4666 
L 3047 4666 
L 3047 1625 
L 3713 1625 
L 3713 1100 
L 3047 1100 
L 3047 0 
L 2419 0 
L 2419 1100 
L 313 1100 
L 313 1709 
L 2253 4666 
z
" transform="scale(0.015625)"/>
       </defs>
       <use xlink:href="#DejaVuSans-2212"/>
       <use xlink:href="#DejaVuSans-34" transform="translate(83.789062 0)"/>
      </g>
     </g>
    </g>
    <g id="xtick_3">
     <g id="line2d_5">
      <path d="M 336.018212 673.917812 
L 336.018212 37.837812 
" clip-path="url(#pf45e68bd2a)" style="fill: none; stroke: #4a4a3d; stroke-opacity: 0.1; stroke-width: 0.8; stroke-linecap: square"/>
     </g>
     <g id="line2d_6">
      <g>
       <use xlink:href="#m0da48da312" x="336.018212" y="673.917812" style="fill: #666666; stroke: #666666; stroke-width: 0.8"/>
      </g>
     </g>
     <g id="text_3">
      <!-- −3 -->
      <g style="fill: #666666" transform="translate(328.647118 688.51625) scale(0.1 -0.1)">
       <defs>
        <path id="DejaVuSans-33" d="M 2597 2516 
Q 3050 2419 3304 2112 
Q 3559 1806 3559 1356 
Q 3559 666 3084 287 
Q 2609 -91 1734 -91 
Q 1441 -91 1130 -33 
Q 819 25 488 141 
L 488 750 
Q 750 597 1062 519 
Q 1375 441 1716 441 
Q 2309 441 2620 675 
Q 2931 909 2931 1356 
Q 2931 1769 2642 2001 
Q 2353 2234 1838 2234 
L 1294 2234 
L 1294 2753 
L 1863 2753 
Q 2328 2753 2575 2939 
Q 2822 3125 2822 3475 
Q 2822 3834 2567 4026 
Q 2313 4219 1838 4219 
Q 1578 4219 1281 4162 
Q 984 4106 628 3988 
L 628 4550 
Q 988 4650 1302 4700 
Q 1616 4750 1894 4750 
Q 2613 4750 3031 4423 
Q 3450 4097 3450 3541 
Q 3450 3153 3228 2886 
Q 3006 2619 2597 2516 
z
" transform="scale(0.015625)"/>
       </defs>
       <use xlink:href="#DejaVuSans-2212"/>
       <use xlink:href="#DejaVuSans-33" transform="translate(83.789062 0)"/>
      </g>
     </g>
    </g>
    <g id="xtick_4">
     <g id="line2d_7">
      <path d="M 473.568388 673.917812 
L 473.568388 37.837812 
" clip-path="url(#pf45e68bd2a)" style="fill: none; stroke: #4a4a3d; stroke-opacity: 0.1; stroke-width: 0.8; stroke-linecap: square"/>
     </g>
     <g id="line2d_8">
      <g>
       <use xlink:href="#m0da48da312" x="473.568388" y="673.917812" style="fill: #666666; stroke: #666666; stroke-width: 0.8"/>
      </g>
     </g>
     <g id="text_4">
      <!-- −2 -->
      <g style="fill: #666666" transform="translate(466.197294 688.51625) scale(0.1 -0.1)">
       <defs>
        <path id="DejaVuSans-32" d="M 1228 531 
L 3431 531 
L 3431 0 
L 469 0 
L 469 531 
Q 828 903 1448 1529 
Q 2069 2156 2228 2338 
Q 2531 2678 2651 2914 
Q 2772 3150 2772 3378 
Q 2772 3750 2511 3984 
Q 2250 4219 1831 4219 
Q 1534 4219 1204 4116 
Q 875 4013 500 3803 
L 500 4441 
Q 881 4594 1212 4672 
Q 1544 4750 1819 4750 
Q 2544 4750 2975 4387 
Q 3406 4025 3406 3419 
Q 3406 3131 3298 2873 
Q 3191 2616 2906 2266 
Q 2828 2175 2409 1742 
Q 1991 1309 1228 531 
z
" transform="scale(0.015625)"/>
       </defs>
       <use xlink:href="#DejaVuSans-2212"/>
       <use xlink:href="#DejaVuSans-32" transform="translate(83.789062 0)"/>
      </g>
     </g>
    </g>
    <g id="xtick_5">
     <g id="line2d_9">
      <path d="M 611.118564 673.917812 
L 611.118564 37.837812 
" clip-path="url(#pf45e68bd2a)" style="fill: none; stroke: #4a4a3d; stroke-opacity: 0.1; stroke-width: 0.8; stroke-linecap: square"/>
     </g>
     <g id="line2d_10">
      <g>
       <use xlink:href="#m0da48da312" x="611.118564" y="673.917812" style="fill: #666666; stroke: #666666; stroke-width: 0.8"/>
      </g>
     </g>
     <g id="text_5">
      <!-- −1 -->
      <g style="fill: #666666" transform="translate(603.74747 688.51625) scale(0.1 -0.1)">
       <defs>
        <path id="DejaVuSans-31" d="M 794 531 
L 1825 531 
L 1825 4091 
L 703 3866 
L 703 4441 
L 1819 4666 
L 2450 4666 
L 2450 531 
L 3481 531 
L 3481 0 
L 794 0 
L 794 531 
z
" transform="scale(0.015625)"/>
       </defs>
       <use xlink:href="#DejaVuSans-2212"/>
       <use xlink:href="#DejaVuSans-31" transform="translate(83.789062 0)"/>
      </g>
     </g>
    </g>
    <g id="xtick_6">
     <g id="line2d_11">
      <path d="M 748.66874 673.917812 
L 748.66874 37.837812 
" clip-path="url(#pf45e68bd2a)" style="fill: none; stroke: #4a4a3d; stroke-opacity: 0.1; stroke-width: 0.8; stroke-linecap: square"/>
     </g>
     <g id="line2d_12">
      <g>
       <use xlink:href="#m0da48da312" x="748.66874" y="673.917812" style="fill: #666666; stroke: #666666; stroke-width: 0.8"/>
      </g>
     </g>
     <g id="text_6">
      <!-- 0 -->
      <g style="fill: #666666" transform="translate(745.48749 688.51625) scale(0.1 -0.1)">
       <defs>
        <path id="DejaVuSans-30" d="M 2034 4250 
Q 1547 4250 1301 3770 
Q 1056 3291 1056 2328 
Q 1056 1369 1301 889 
Q 1547 409 2034 409 
Q 2525 409 2770 889 
Q 3016 1369 3016 2328 
Q 3016 3291 2770 3770 
Q 2525 4250 2034 4250 
z
M 2034 4750 
Q 2819 4750 3233 4129 
Q 3647 3509 3647 2328 
Q 3647 1150 3233 529 
Q 2819 -91 2034 -91 
Q 1250 -91 836 529 
Q 422 1150 422 2328 
Q 422 3509 836 4129 
Q 1250 4750 2034 4750 
z
" transform="scale(0.015625)"/>
       </defs>
       <use xlink:href="#DejaVuSans-30"/>
      </g>
     </g>
    </g>
    <g id="text_7">
     <!-- Dimension 1 -->
     <g style="fill: #c5c5b0" transform="translate(412.229062 702.954219) scale(0.11 -0.11)">
      <defs>
       <path id="DejaVuSans-44" d="M 1259 4147 
L 1259 519 
L 2022 519 
Q 2988 519 3436 956 
Q 3884 1394 3884 2338 
Q 3884 3275 3436 3711 
Q 2988 4147 2022 4147 
L 1259 4147 
z
M 628 4666 
L 1925 4666 
Q 3281 4666 3915 4102 
Q 4550 3538 4550 2338 
Q 4550 1131 3912 565 
Q 3275 0 1925 0 
L 628 0 
L 628 4666 
z
" transform="scale(0.015625)"/>
       <path id="DejaVuSans-69" d="M 603 3500 
L 1178 3500 
L 1178 0 
L 603 0 
L 603 3500 
z
M 603 4863 
L 1178 4863 
L 1178 4134 
L 603 4134 
L 603 4863 
z
" transform="scale(0.015625)"/>
       <path id="DejaVuSans-6d" d="M 3328 2828 
Q 3544 3216 3844 3400 
Q 4144 3584 4550 3584 
Q 5097 3584 5394 3201 
Q 5691 2819 5691 2113 
L 5691 0 
L 5113 0 
L 5113 2094 
Q 5113 2597 4934 2840 
Q 4756 3084 4391 3084 
Q 3944 3084 3684 2787 
Q 3425 2491 3425 1978 
L 3425 0 
L 2847 0 
L 2847 2094 
Q 2847 2600 2669 2842 
Q 2491 3084 2119 3084 
Q 1678 3084 1418 2786 
Q 1159 2488 1159 1978 
L 1159 0 
L 581 0 
L 581 3500 
L 1159 3500 
L 1159 2956 
Q 1356 3278 1631 3431 
Q 1906 3584 2284 3584 
Q 2666 3584 2933 3390 
Q 3200 3197 3328 2828 
z
" transform="scale(0.015625)"/>
       <path id="DejaVuSans-65" d="M 3597 1894 
L 3597 1613 
L 953 1613 
Q 991 1019 1311 708 
Q 1631 397 2203 397 
Q 2534 397 2845 478 
Q 3156 559 3463 722 
L 3463 178 
Q 3153 47 2828 -22 
Q 2503 -91 2169 -91 
Q 1331 -91 842 396 
Q 353 884 353 1716 
Q 353 2575 817 3079 
Q 1281 3584 2069 3584 
Q 2775 3584 3186 3129 
Q 3597 2675 3597 1894 
z
M 3022 2063 
Q 3016 2534 2758 2815 
Q 2500 3097 2075 3097 
Q 1594 3097 1305 2825 
Q 1016 2553 972 2059 
L 3022 2063 
z
" transform="scale(0.015625)"/>
       <path id="DejaVuSans-6e" d="M 3513 2113 
L 3513 0 
L 2938 0 
L 2938 2094 
Q 2938 2591 2744 2837 
Q 2550 3084 2163 3084 
Q 1697 3084 1428 2787 
Q 1159 2491 1159 1978 
L 1159 0 
L 581 0 
L 581 3500 
L 1159 3500 
L 1159 2956 
Q 1366 3272 1645 3428 
Q 1925 3584 2291 3584 
Q 2894 3584 3203 3211 
Q 3513 2838 3513 2113 
z
" transform="scale(0.015625)"/>
       <path id="DejaVuSans-73" d="M 2834 3397 
L 2834 2853 
Q 2591 2978 2328 3040 
Q 2066 3103 1784 3103 
Q 1356 3103 1142 2972 
Q 928 2841 928 2578 
Q 928 2378 1081 2264 
Q 1234 2150 1697 2047 
L 1894 2003 
Q 2506 1872 2764 1633 
Q 3022 1394 3022 966 
Q 3022 478 2636 193 
Q 2250 -91 1575 -91 
Q 1294 -91 989 -36 
Q 684 19 347 128 
L 347 722 
Q 666 556 975 473 
Q 1284 391 1588 391 
Q 1994 391 2212 530 
Q 2431 669 2431 922 
Q 2431 1156 2273 1281 
Q 2116 1406 1581 1522 
L 1381 1569 
Q 847 1681 609 1914 
Q 372 2147 372 2553 
Q 372 3047 722 3315 
Q 1072 3584 1716 3584 
Q 2034 3584 2315 3537 
Q 2597 3491 2834 3397 
z
" transform="scale(0.015625)"/>
       <path id="DejaVuSans-6f" d="M 1959 3097 
Q 1497 3097 1228 2736 
Q 959 2375 959 1747 
Q 959 1119 1226 758 
Q 1494 397 1959 397 
Q 2419 397 2687 759 
Q 2956 1122 2956 1747 
Q 2956 2369 2687 2733 
Q 2419 3097 1959 3097 
z
M 1959 3584 
Q 2709 3584 3137 3096 
Q 3566 2609 3566 1747 
Q 3566 888 3137 398 
Q 2709 -91 1959 -91 
Q 1206 -91 779 398 
Q 353 888 353 1747 
Q 353 2609 779 3096 
Q 1206 3584 1959 3584 
z
" transform="scale(0.015625)"/>
       <path id="DejaVuSans-20" transform="scale(0.015625)"/>
      </defs>
      <use xlink:href="#DejaVuSans-44"/>
      <use xlink:href="#DejaVuSans-69" transform="translate(77.001953 0)"/>
      <use xlink:href="#DejaVuSans-6d" transform="translate(104.785156 0)"/>
      <use xlink:href="#DejaVuSans-65" transform="translate(202.197266 0)"/>
      <use xlink:href="#DejaVuSans-6e" transform="translate(263.720703 0)"/>
      <use xlink:href="#DejaVuSans-73" transform="translate(327.099609 0)"/>
      <use xlink:href="#DejaVuSans-69" transform="translate(379.199219 0)"/>
      <use xlink:href="#DejaVuSans-6f" transform="translate(406.982422 0)"/>
      <use xlink:href="#DejaVuSans-6e" transform="translate(468.164062 0)"/>
      <use xlink:href="#DejaVuSans-20" transform="translate(531.542969 0)"/>
      <use xlink:href="#DejaVuSans-31" transform="translate(563.330078 0)"/>
     </g>
    </g>
   </g>
   <g id="matplotlib.axis_2">
    <g id="ytick_1">
     <g id="line2d_13">
      <path d="M 43.588125 563.751675 
L 849.833125 563.751675 
" clip-path="url(#pf45e68bd2a)" style="fill: none; stroke: #4a4a3d; stroke-opacity: 0.1; stroke-width: 0.8; stroke-linecap: square"/>
     </g>
     <g id="line2d_14">
      <defs>
       <path id="m093c4304f0" d="M 0 0 
L -3.5 0 
" style="stroke: #666666; stroke-width: 0.8"/>
      </defs>
      <g>
       <use xlink:href="#m093c4304f0" x="43.588125" y="563.751675" style="fill: #666666; stroke: #666666; stroke-width: 0.8"/>
      </g>
     </g>
     <g id="text_8">
      <!-- −4 -->
      <g style="fill: #666666" transform="translate(21.845938 567.550894) scale(0.1 -0.1)">
       <use xlink:href="#DejaVuSans-2212"/>
       <use xlink:href="#DejaVuSans-34" transform="translate(83.789062 0)"/>
      </g>
     </g>
    </g>
    <g id="ytick_2">
     <g id="line2d_15">
      <path d="M 43.588125 426.131234 
L 849.833125 426.131234 
" clip-path="url(#pf45e68bd2a)" style="fill: none; stroke: #4a4a3d; stroke-opacity: 0.1; stroke-width: 0.8; stroke-linecap: square"/>
     </g>
     <g id="line2d_16">
      <g>
       <use xlink:href="#m093c4304f0" x="43.588125" y="426.131234" style="fill: #666666; stroke: #666666; stroke-width: 0.8"/>
      </g>
     </g>
     <g id="text_9">
      <!-- −2 -->
      <g style="fill: #666666" transform="translate(21.845938 429.930453) scale(0.1 -0.1)">
       <use xlink:href="#DejaVuSans-2212"/>
       <use xlink:href="#DejaVuSans-32" transform="translate(83.789062 0)"/>
      </g>
     </g>
    </g>
    <g id="ytick_3">
     <g id="line2d_17">
      <path d="M 43.588125 288.510793 
L 849.833125 288.510793 
" clip-path="url(#pf45e68bd2a)" style="fill: none; stroke: #4a4a3d; stroke-opacity: 0.1; stroke-width: 0.8; stroke-linecap: square"/>
     </g>
     <g id="line2d_18">
      <g>
       <use xlink:href="#m093c4304f0" x="43.588125" y="288.510793" style="fill: #666666; stroke: #666666; stroke-width: 0.8"/>
      </g>
     </g>
     <g id="text_10">
      <!-- 0 -->
      <g style="fill: #666666" transform="translate(30.225625 292.310011) scale(0.1 -0.1)">
       <use xlink:href="#DejaVuSans-30"/>
      </g>
     </g>
    </g>
    <g id="ytick_4">
     <g id="line2d_19">
      <path d="M 43.588125 150.890351 
L 849.833125 150.890351 
" clip-path="url(#pf45e68bd2a)" style="fill: none; stroke: #4a4a3d; stroke-opacity: 0.1; stroke-width: 0.8; stroke-linecap: square"/>
     </g>
     <g id="line2d_20">
      <g>
       <use xlink:href="#m093c4304f0" x="43.588125" y="150.890351" style="fill: #666666; stroke: #666666; stroke-width: 0.8"/>
      </g>
     </g>
     <g id="text_11">
      <!-- 2 -->
      <g style="fill: #666666" transform="translate(30.225625 154.68957) scale(0.1 -0.1)">
       <use xlink:href="#DejaVuSans-32"/>
      </g>
     </g>
    </g>
    <g id="text_12">
     <!-- Dimension 2 -->
     <g style="fill: #c5c5b0" transform="translate(15.558281 390.359375) rotate(-90) scale(0.11 -0.11)">
      <use xlink:href="#DejaVuSans-44"/>
      <use xlink:href="#DejaVuSans-69" transform="translate(77.001953 0)"/>
      <use xlink:href="#DejaVuSans-6d" transform="translate(104.785156 0)"/>
      <use xlink:href="#DejaVuSans-65" transform="translate(202.197266 0)"/>
      <use xlink:href="#DejaVuSans-6e" transform="translate(263.720703 0)"/>
      <use xlink:href="#DejaVuSans-73" transform="translate(327.099609 0)"/>
      <use xlink:href="#DejaVuSans-69" transform="translate(379.199219 0)"/>
      <use xlink:href="#DejaVuSans-6f" transform="translate(406.982422 0)"/>
      <use xlink:href="#DejaVuSans-6e" transform="translate(468.164062 0)"/>
      <use xlink:href="#DejaVuSans-20" transform="translate(531.542969 0)"/>
      <use xlink:href="#DejaVuSans-32" transform="translate(563.330078 0)"/>
     </g>
    </g>
   </g>
   <g id="line2d_21">
    <path d="M 149.439878 77.447365 
L 351.964684 294.597776 
" clip-path="url(#pf45e68bd2a)" style="fill: none; stroke: #1f77b4; stroke-opacity: 0.3; stroke-width: 2; stroke-linecap: square"/>
   </g>
   <g id="line2d_22">
    <path d="M 213.447298 310.745916 
L 351.964684 294.597776 
" clip-path="url(#pf45e68bd2a)" style="fill: none; stroke: #1f77b4; stroke-opacity: 0.3; stroke-width: 2; stroke-linecap: square"/>
   </g>
   <g id="line2d_23">
    <path d="M 107.281398 90.241461 
L 80.235625 218.448911 
" clip-path="url(#pf45e68bd2a)" style="fill: none; stroke: #1f77b4; stroke-opacity: 0.3; stroke-width: 2; stroke-linecap: square"/>
   </g>
   <g id="line2d_24">
    <path d="M 133.431395 279.181413 
L 213.447298 310.745916 
" clip-path="url(#pf45e68bd2a)" style="fill: none; stroke: #1f77b4; stroke-opacity: 0.3; stroke-width: 2; stroke-linecap: square"/>
   </g>
   <g id="line2d_25">
    <path d="M 111.620962 84.038465 
L 149.439878 77.447365 
" clip-path="url(#pf45e68bd2a)" style="fill: none; stroke: #1f77b4; stroke-opacity: 0.3; stroke-width: 2; stroke-linecap: square"/>
   </g>
   <g id="line2d_26">
    <path d="M 111.620962 84.038465 
L 107.281398 90.241461 
" clip-path="url(#pf45e68bd2a)" style="fill: none; stroke: #1f77b4; stroke-opacity: 0.3; stroke-width: 2; stroke-linecap: square"/>
   </g>
   <g id="line2d_27">
    <path d="M 118.480103 263.846101 
L 80.235625 218.448911 
" clip-path="url(#pf45e68bd2a)" style="fill: none; stroke: #1f77b4; stroke-opacity: 0.3; stroke-width: 2; stroke-linecap: square"/>
   </g>
   <g id="line2d_28">
    <path d="M 118.480103 263.846101 
L 133.431395 279.181413 
" clip-path="url(#pf45e68bd2a)" style="fill: none; stroke: #1f77b4; stroke-opacity: 0.3; stroke-width: 2; stroke-linecap: square"/>
   </g>
   <g id="line2d_29">
    <path d="M 743.632981 228.514522 
L 548.400605 287.863201 
" clip-path="url(#pf45e68bd2a)" style="fill: none; stroke: #aec7e8; stroke-opacity: 0.3; stroke-width: 2; stroke-linecap: square"/>
   </g>
   <g id="line2d_30">
    <path d="M 743.632981 228.514522 
L 813.185625 254.373082 
" clip-path="url(#pf45e68bd2a)" style="fill: none; stroke: #aec7e8; stroke-opacity: 0.3; stroke-width: 2; stroke-linecap: square"/>
   </g>
   <g id="line2d_31">
    <path d="M 596.934227 433.805773 
L 548.400605 287.863201 
" clip-path="url(#pf45e68bd2a)" style="fill: none; stroke: #aec7e8; stroke-opacity: 0.3; stroke-width: 2; stroke-linecap: square"/>
   </g>
   <g id="line2d_32">
    <path d="M 596.934227 433.805773 
L 632.031572 447.317598 
" clip-path="url(#pf45e68bd2a)" style="fill: none; stroke: #aec7e8; stroke-opacity: 0.3; stroke-width: 2; stroke-linecap: square"/>
   </g>
   <g id="line2d_33">
    <path d="M 786.571249 344.159721 
L 813.185625 254.373082 
" clip-path="url(#pf45e68bd2a)" style="fill: none; stroke: #aec7e8; stroke-opacity: 0.3; stroke-width: 2; stroke-linecap: square"/>
   </g>
   <g id="line2d_34">
    <path d="M 732.539135 386.708945 
L 632.031572 447.317598 
" clip-path="url(#pf45e68bd2a)" style="fill: none; stroke: #aec7e8; stroke-opacity: 0.3; stroke-width: 2; stroke-linecap: square"/>
   </g>
   <g id="line2d_35">
    <path d="M 732.539135 386.708945 
L 786.571249 344.159721 
" clip-path="url(#pf45e68bd2a)" style="fill: none; stroke: #aec7e8; stroke-opacity: 0.3; stroke-width: 2; stroke-linecap: square"/>
   </g>
   <g id="line2d_36">
    <path d="M 442.744436 282.248958 
L 405.246426 97.711811 
" clip-path="url(#pf45e68bd2a)" style="fill: none; stroke: #ff7f0e; stroke-opacity: 0.3; stroke-width: 2; stroke-linecap: square"/>
   </g>
   <g id="line2d_37">
    <path d="M 442.744436 282.248958 
L 646.423734 226.992698 
" clip-path="url(#pf45e68bd2a)" style="fill: none; stroke: #ff7f0e; stroke-opacity: 0.3; stroke-width: 2; stroke-linecap: square"/>
   </g>
   <g id="line2d_38">
    <path d="M 638.265573 100.785312 
L 646.423734 226.992698 
" clip-path="url(#pf45e68bd2a)" style="fill: none; stroke: #ff7f0e; stroke-opacity: 0.3; stroke-width: 2; stroke-linecap: square"/>
   </g>
   <g id="line2d_39">
    <path d="M 638.265573 100.785312 
L 623.764441 79.485546 
" clip-path="url(#pf45e68bd2a)" style="fill: none; stroke: #ff7f0e; stroke-opacity: 0.3; stroke-width: 2; stroke-linecap: square"/>
   </g>
   <g id="line2d_40">
    <path d="M 438.08721 75.851843 
L 405.246426 97.711811 
" clip-path="url(#pf45e68bd2a)" style="fill: none; stroke: #ff7f0e; stroke-opacity: 0.3; stroke-width: 2; stroke-linecap: square"/>
   </g>
   <g id="line2d_41">
    <path d="M 438.08721 75.851843 
L 478.669635 66.75054 
" clip-path="url(#pf45e68bd2a)" style="fill: none; stroke: #ff7f0e; stroke-opacity: 0.3; stroke-width: 2; stroke-linecap: square"/>
   </g>
   <g id="line2d_42">
    <path d="M 521.61322 67.544781 
L 623.764441 79.485546 
" clip-path="url(#pf45e68bd2a)" style="fill: none; stroke: #ff7f0e; stroke-opacity: 0.3; stroke-width: 2; stroke-linecap: square"/>
   </g>
   <g id="line2d_43">
    <path d="M 521.61322 67.544781 
L 478.669635 66.75054 
" clip-path="url(#pf45e68bd2a)" style="fill: none; stroke: #ff7f0e; stroke-opacity: 0.3; stroke-width: 2; stroke-linecap: square"/>
   </g>
   <g id="line2d_44">
    <path d="M 326.520065 454.359528 
L 184.929427 543.709556 
" clip-path="url(#pf45e68bd2a)" style="fill: none; stroke: #ffbb78; stroke-opacity: 0.3; stroke-width: 2; stroke-linecap: square"/>
   </g>
   <g id="line2d_45">
    <path d="M 267.160481 584.502283 
L 184.929427 543.709556 
" clip-path="url(#pf45e68bd2a)" style="fill: none; stroke: #ffbb78; stroke-opacity: 0.3; stroke-width: 2; stroke-linecap: square"/>
   </g>
   <g id="line2d_46">
    <path d="M 535.885079 631.590603 
L 555.694782 451.489691 
" clip-path="url(#pf45e68bd2a)" style="fill: none; stroke: #ffbb78; stroke-opacity: 0.3; stroke-width: 2; stroke-linecap: square"/>
   </g>
   <g id="line2d_47">
    <path d="M 535.885079 631.590603 
L 515.278561 645.005085 
" clip-path="url(#pf45e68bd2a)" style="fill: none; stroke: #ffbb78; stroke-opacity: 0.3; stroke-width: 2; stroke-linecap: square"/>
   </g>
   <g id="line2d_48">
    <path d="M 516.639384 421.323472 
L 555.694782 451.489691 
" clip-path="url(#pf45e68bd2a)" style="fill: none; stroke: #ffbb78; stroke-opacity: 0.3; stroke-width: 2; stroke-linecap: square"/>
   </g>
   <g id="line2d_49">
    <path d="M 516.639384 421.323472 
L 326.520065 454.359528 
" clip-path="url(#pf45e68bd2a)" style="fill: none; stroke: #ffbb78; stroke-opacity: 0.3; stroke-width: 2; stroke-linecap: square"/>
   </g>
   <g id="line2d_50">
    <path d="M 383.122513 616.497003 
L 515.278561 645.005085 
" clip-path="url(#pf45e68bd2a)" style="fill: none; stroke: #ffbb78; stroke-opacity: 0.3; stroke-width: 2; stroke-linecap: square"/>
   </g>
   <g id="line2d_51">
    <path d="M 383.122513 616.497003 
L 267.160481 584.502283 
" clip-path="url(#pf45e68bd2a)" style="fill: none; stroke: #ffbb78; stroke-opacity: 0.3; stroke-width: 2; stroke-linecap: square"/>
   </g>
   <g id="patch_7">
    <path d="M 43.588125 673.917812 
L 43.588125 37.837812 
" style="fill: none; stroke: #4a4a3d; stroke-width: 0.5; stroke-linejoin: miter; stroke-linecap: square"/>
   </g>
   <g id="patch_8">
    <path d="M 849.833125 673.917812 
L 849.833125 37.837812 
" style="fill: none; stroke: #4a4a3d; stroke-width: 0.5; stroke-linejoin: miter; stroke-linecap: square"/>
   </g>
   <g id="patch_9">
    <path d="M 43.588125 673.917812 
L 849.833125 673.917812 
" style="fill: none; stroke: #4a4a3d; stroke-width: 0.5; stroke-linejoin: miter; stroke-linecap: square"/>
   </g>
   <g id="patch_10">
    <path d="M 43.588125 37.837812 
L 849.833125 37.837812 
" style="fill: none; stroke: #4a4a3d; stroke-width: 0.5; stroke-linejoin: miter; stroke-linecap: square"/>
   </g>
   <g id="text_13">
    <g id="patch_11">
     <path d="M 123.610378 212.313714 
L 204.265065 212.313714 
Q 207.265065 212.313714 207.265065 209.313714 
L 207.265065 199.557464 
Q 207.265065 196.557464 204.265065 196.557464 
L 123.610378 196.557464 
Q 120.610378 196.557464 120.610378 199.557464 
L 120.610378 209.313714 
Q 120.610378 212.313714 123.610378 212.313714 
z
" style="fill: #1a1a1d; opacity: 0.7; stroke: #1f77b4; stroke-linejoin: miter"/>
    </g>
    <!-- Martini Family -->
    <g style="fill: #1f77b4; opacity: 0.8" transform="translate(123.610378 207.155901) scale(0.1 -0.1)">
     <defs>
      <path id="DejaVuSans-Bold-4d" d="M 588 4666 
L 2119 4666 
L 3181 2169 
L 4250 4666 
L 5778 4666 
L 5778 0 
L 4641 0 
L 4641 3413 
L 3566 897 
L 2803 897 
L 1728 3413 
L 1728 0 
L 588 0 
L 588 4666 
z
" transform="scale(0.015625)"/>
      <path id="DejaVuSans-Bold-61" d="M 2106 1575 
Q 1756 1575 1579 1456 
Q 1403 1338 1403 1106 
Q 1403 894 1545 773 
Q 1688 653 1941 653 
Q 2256 653 2472 879 
Q 2688 1106 2688 1447 
L 2688 1575 
L 2106 1575 
z
M 3816 1997 
L 3816 0 
L 2688 0 
L 2688 519 
Q 2463 200 2181 54 
Q 1900 -91 1497 -91 
Q 953 -91 614 226 
Q 275 544 275 1050 
Q 275 1666 698 1953 
Q 1122 2241 2028 2241 
L 2688 2241 
L 2688 2328 
Q 2688 2594 2478 2717 
Q 2269 2841 1825 2841 
Q 1466 2841 1156 2769 
Q 847 2697 581 2553 
L 581 3406 
Q 941 3494 1303 3539 
Q 1666 3584 2028 3584 
Q 2975 3584 3395 3211 
Q 3816 2838 3816 1997 
z
" transform="scale(0.015625)"/>
      <path id="DejaVuSans-Bold-72" d="M 3138 2547 
Q 2991 2616 2845 2648 
Q 2700 2681 2553 2681 
Q 2122 2681 1889 2404 
Q 1656 2128 1656 1613 
L 1656 0 
L 538 0 
L 538 3500 
L 1656 3500 
L 1656 2925 
Q 1872 3269 2151 3426 
Q 2431 3584 2822 3584 
Q 2878 3584 2943 3579 
Q 3009 3575 3134 3559 
L 3138 2547 
z
" transform="scale(0.015625)"/>
      <path id="DejaVuSans-Bold-74" d="M 1759 4494 
L 1759 3500 
L 2913 3500 
L 2913 2700 
L 1759 2700 
L 1759 1216 
Q 1759 972 1856 886 
Q 1953 800 2241 800 
L 2816 800 
L 2816 0 
L 1856 0 
Q 1194 0 917 276 
Q 641 553 641 1216 
L 641 2700 
L 84 2700 
L 84 3500 
L 641 3500 
L 641 4494 
L 1759 4494 
z
" transform="scale(0.015625)"/>
      <path id="DejaVuSans-Bold-69" d="M 538 3500 
L 1656 3500 
L 1656 0 
L 538 0 
L 538 3500 
z
M 538 4863 
L 1656 4863 
L 1656 3950 
L 538 3950 
L 538 4863 
z
" transform="scale(0.015625)"/>
      <path id="DejaVuSans-Bold-6e" d="M 4056 2131 
L 4056 0 
L 2931 0 
L 2931 347 
L 2931 1631 
Q 2931 2084 2911 2256 
Q 2891 2428 2841 2509 
Q 2775 2619 2662 2680 
Q 2550 2741 2406 2741 
Q 2056 2741 1856 2470 
Q 1656 2200 1656 1722 
L 1656 0 
L 538 0 
L 538 3500 
L 1656 3500 
L 1656 2988 
Q 1909 3294 2193 3439 
Q 2478 3584 2822 3584 
Q 3428 3584 3742 3212 
Q 4056 2841 4056 2131 
z
" transform="scale(0.015625)"/>
      <path id="DejaVuSans-Bold-20" transform="scale(0.015625)"/>
      <path id="DejaVuSans-Bold-46" d="M 588 4666 
L 3834 4666 
L 3834 3756 
L 1791 3756 
L 1791 2888 
L 3713 2888 
L 3713 1978 
L 1791 1978 
L 1791 0 
L 588 0 
L 588 4666 
z
" transform="scale(0.015625)"/>
      <path id="DejaVuSans-Bold-6d" d="M 3781 2919 
Q 3994 3244 4286 3414 
Q 4578 3584 4928 3584 
Q 5531 3584 5847 3212 
Q 6163 2841 6163 2131 
L 6163 0 
L 5038 0 
L 5038 1825 
Q 5041 1866 5042 1909 
Q 5044 1953 5044 2034 
Q 5044 2406 4934 2573 
Q 4825 2741 4581 2741 
Q 4263 2741 4089 2478 
Q 3916 2216 3909 1719 
L 3909 0 
L 2784 0 
L 2784 1825 
Q 2784 2406 2684 2573 
Q 2584 2741 2328 2741 
Q 2006 2741 1831 2477 
Q 1656 2213 1656 1722 
L 1656 0 
L 531 0 
L 531 3500 
L 1656 3500 
L 1656 2988 
Q 1863 3284 2130 3434 
Q 2397 3584 2719 3584 
Q 3081 3584 3359 3409 
Q 3638 3234 3781 2919 
z
" transform="scale(0.015625)"/>
      <path id="DejaVuSans-Bold-6c" d="M 538 4863 
L 1656 4863 
L 1656 0 
L 538 0 
L 538 4863 
z
" transform="scale(0.015625)"/>
      <path id="DejaVuSans-Bold-79" d="M 78 3500 
L 1197 3500 
L 2138 1125 
L 2938 3500 
L 4056 3500 
L 2584 -331 
Q 2363 -916 2067 -1148 
Q 1772 -1381 1288 -1381 
L 641 -1381 
L 641 -647 
L 991 -647 
Q 1275 -647 1404 -556 
Q 1534 -466 1606 -231 
L 1638 -134 
L 78 3500 
z
" transform="scale(0.015625)"/>
     </defs>
     <use xlink:href="#DejaVuSans-Bold-4d"/>
     <use xlink:href="#DejaVuSans-Bold-61" transform="translate(99.511719 0)"/>
     <use xlink:href="#DejaVuSans-Bold-72" transform="translate(166.992188 0)"/>
     <use xlink:href="#DejaVuSans-Bold-74" transform="translate(216.308594 0)"/>
     <use xlink:href="#DejaVuSans-Bold-69" transform="translate(264.111328 0)"/>
     <use xlink:href="#DejaVuSans-Bold-6e" transform="translate(298.388672 0)"/>
     <use xlink:href="#DejaVuSans-Bold-69" transform="translate(369.580078 0)"/>
     <use xlink:href="#DejaVuSans-Bold-20" transform="translate(403.857422 0)"/>
     <use xlink:href="#DejaVuSans-Bold-46" transform="translate(438.671875 0)"/>
     <use xlink:href="#DejaVuSans-Bold-61" transform="translate(501.107422 0)"/>
     <use xlink:href="#DejaVuSans-Bold-6d" transform="translate(568.587891 0)"/>
     <use xlink:href="#DejaVuSans-Bold-69" transform="translate(672.787109 0)"/>
     <use xlink:href="#DejaVuSans-Bold-6c" transform="translate(707.064453 0)"/>
     <use xlink:href="#DejaVuSans-Bold-79" transform="translate(741.341797 0)"/>
    </g>
   </g>
   <g id="text_14">
    <g id="patch_12">
     <path d="M 674.694383 351.6494 
L 766.992821 351.6494 
Q 769.992821 351.6494 769.992821 348.6494 
L 769.992821 338.971275 
Q 769.992821 335.971275 766.992821 335.971275 
L 674.694383 335.971275 
Q 671.694383 335.971275 671.694383 338.971275 
L 671.694383 348.6494 
Q 671.694383 351.6494 674.694383 351.6494 
z
" style="fill: #1a1a1d; opacity: 0.7; stroke: #aec7e8; stroke-linejoin: miter"/>
    </g>
    <!-- Daiquiri &amp; Sours -->
    <g style="fill: #aec7e8; opacity: 0.8" transform="translate(674.694383 346.569712) scale(0.1 -0.1)">
     <defs>
      <path id="DejaVuSans-Bold-44" d="M 1791 3756 
L 1791 909 
L 2222 909 
Q 2959 909 3348 1275 
Q 3738 1641 3738 2338 
Q 3738 3031 3350 3393 
Q 2963 3756 2222 3756 
L 1791 3756 
z
M 588 4666 
L 1856 4666 
Q 2919 4666 3439 4514 
Q 3959 4363 4331 4000 
Q 4659 3684 4818 3271 
Q 4978 2859 4978 2338 
Q 4978 1809 4818 1395 
Q 4659 981 4331 666 
Q 3956 303 3431 151 
Q 2906 0 1856 0 
L 588 0 
L 588 4666 
z
" transform="scale(0.015625)"/>
      <path id="DejaVuSans-Bold-71" d="M 2181 2772 
Q 1825 2772 1636 2509 
Q 1447 2247 1447 1747 
Q 1447 1247 1636 984 
Q 1825 722 2181 722 
Q 2541 722 2730 984 
Q 2919 1247 2919 1747 
Q 2919 2247 2730 2509 
Q 2541 2772 2181 2772 
z
M 2919 506 
Q 2688 197 2409 53 
Q 2131 -91 1766 -91 
Q 1119 -91 703 423 
Q 288 938 288 1747 
Q 288 2556 703 3067 
Q 1119 3578 1766 3578 
Q 2131 3578 2409 3434 
Q 2688 3291 2919 2981 
L 2919 3500 
L 4044 3500 
L 4044 -1331 
L 2919 -1331 
L 2919 506 
z
" transform="scale(0.015625)"/>
      <path id="DejaVuSans-Bold-75" d="M 500 1363 
L 500 3500 
L 1625 3500 
L 1625 3150 
Q 1625 2866 1622 2436 
Q 1619 2006 1619 1863 
Q 1619 1441 1641 1255 
Q 1663 1069 1716 984 
Q 1784 875 1895 815 
Q 2006 756 2150 756 
Q 2500 756 2700 1025 
Q 2900 1294 2900 1772 
L 2900 3500 
L 4019 3500 
L 4019 0 
L 2900 0 
L 2900 506 
Q 2647 200 2364 54 
Q 2081 -91 1741 -91 
Q 1134 -91 817 281 
Q 500 653 500 1363 
z
" transform="scale(0.015625)"/>
      <path id="DejaVuSans-Bold-26" d="M 2497 3097 
L 3775 1691 
Q 3941 1909 4027 2181 
Q 4113 2453 4128 2797 
L 5100 2797 
Q 5053 2228 4879 1784 
Q 4706 1341 4397 1006 
L 5313 0 
L 3988 0 
L 3681 341 
Q 3353 122 2990 15 
Q 2628 -91 2222 -91 
Q 1400 -91 892 342 
Q 384 775 384 1459 
Q 384 1916 607 2267 
Q 831 2619 1338 2950 
Q 1206 3116 1143 3281 
Q 1081 3447 1081 3628 
Q 1081 4138 1478 4444 
Q 1875 4750 2534 4750 
Q 2819 4750 3126 4704 
Q 3434 4659 3769 4569 
L 3769 3700 
Q 3475 3850 3212 3922 
Q 2950 3994 2700 3994 
Q 2459 3994 2326 3901 
Q 2194 3809 2194 3641 
Q 2194 3534 2270 3398 
Q 2347 3263 2497 3097 
z
M 1875 2322 
Q 1672 2175 1569 1989 
Q 1466 1803 1466 1581 
Q 1466 1222 1731 969 
Q 1997 716 2369 716 
Q 2578 716 2759 780 
Q 2941 844 3097 972 
L 1875 2322 
z
" transform="scale(0.015625)"/>
      <path id="DejaVuSans-Bold-53" d="M 3834 4519 
L 3834 3531 
Q 3450 3703 3084 3790 
Q 2719 3878 2394 3878 
Q 1963 3878 1756 3759 
Q 1550 3641 1550 3391 
Q 1550 3203 1689 3098 
Q 1828 2994 2194 2919 
L 2706 2816 
Q 3484 2659 3812 2340 
Q 4141 2022 4141 1434 
Q 4141 663 3683 286 
Q 3225 -91 2284 -91 
Q 1841 -91 1394 -6 
Q 947 78 500 244 
L 500 1259 
Q 947 1022 1364 901 
Q 1781 781 2169 781 
Q 2563 781 2772 912 
Q 2981 1044 2981 1288 
Q 2981 1506 2839 1625 
Q 2697 1744 2272 1838 
L 1806 1941 
Q 1106 2091 782 2419 
Q 459 2747 459 3303 
Q 459 4000 909 4375 
Q 1359 4750 2203 4750 
Q 2588 4750 2994 4692 
Q 3400 4634 3834 4519 
z
" transform="scale(0.015625)"/>
      <path id="DejaVuSans-Bold-6f" d="M 2203 2784 
Q 1831 2784 1636 2517 
Q 1441 2250 1441 1747 
Q 1441 1244 1636 976 
Q 1831 709 2203 709 
Q 2569 709 2762 976 
Q 2956 1244 2956 1747 
Q 2956 2250 2762 2517 
Q 2569 2784 2203 2784 
z
M 2203 3584 
Q 3106 3584 3614 3096 
Q 4122 2609 4122 1747 
Q 4122 884 3614 396 
Q 3106 -91 2203 -91 
Q 1297 -91 786 396 
Q 275 884 275 1747 
Q 275 2609 786 3096 
Q 1297 3584 2203 3584 
z
" transform="scale(0.015625)"/>
      <path id="DejaVuSans-Bold-73" d="M 3272 3391 
L 3272 2541 
Q 2913 2691 2578 2766 
Q 2244 2841 1947 2841 
Q 1628 2841 1473 2761 
Q 1319 2681 1319 2516 
Q 1319 2381 1436 2309 
Q 1553 2238 1856 2203 
L 2053 2175 
Q 2913 2066 3209 1816 
Q 3506 1566 3506 1031 
Q 3506 472 3093 190 
Q 2681 -91 1863 -91 
Q 1516 -91 1145 -36 
Q 775 19 384 128 
L 384 978 
Q 719 816 1070 734 
Q 1422 653 1784 653 
Q 2113 653 2278 743 
Q 2444 834 2444 1013 
Q 2444 1163 2330 1236 
Q 2216 1309 1875 1350 
L 1678 1375 
Q 931 1469 631 1722 
Q 331 1975 331 2491 
Q 331 3047 712 3315 
Q 1094 3584 1881 3584 
Q 2191 3584 2531 3537 
Q 2872 3491 3272 3391 
z
" transform="scale(0.015625)"/>
     </defs>
     <use xlink:href="#DejaVuSans-Bold-44"/>
     <use xlink:href="#DejaVuSans-Bold-61" transform="translate(83.007812 0)"/>
     <use xlink:href="#DejaVuSans-Bold-69" transform="translate(150.488281 0)"/>
     <use xlink:href="#DejaVuSans-Bold-71" transform="translate(184.765625 0)"/>
     <use xlink:href="#DejaVuSans-Bold-75" transform="translate(256.347656 0)"/>
     <use xlink:href="#DejaVuSans-Bold-69" transform="translate(327.539062 0)"/>
     <use xlink:href="#DejaVuSans-Bold-72" transform="translate(361.816406 0)"/>
     <use xlink:href="#DejaVuSans-Bold-69" transform="translate(411.132812 0)"/>
     <use xlink:href="#DejaVuSans-Bold-20" transform="translate(445.410156 0)"/>
     <use xlink:href="#DejaVuSans-Bold-26" transform="translate(480.224609 0)"/>
     <use xlink:href="#DejaVuSans-Bold-20" transform="translate(567.431641 0)"/>
     <use xlink:href="#DejaVuSans-Bold-53" transform="translate(602.246094 0)"/>
     <use xlink:href="#DejaVuSans-Bold-6f" transform="translate(674.267578 0)"/>
     <use xlink:href="#DejaVuSans-Bold-75" transform="translate(742.96875 0)"/>
     <use xlink:href="#DejaVuSans-Bold-72" transform="translate(814.160156 0)"/>
     <use xlink:href="#DejaVuSans-Bold-73" transform="translate(863.476562 0)"/>
    </g>
   </g>
   <g id="text_15">
    <g id="patch_13">
     <path d="M 477.130587 153.594707 
L 581.786837 153.594707 
Q 584.786837 153.594707 584.786837 150.594707 
L 584.786837 140.838457 
Q 584.786837 137.838457 581.786837 137.838457 
L 477.130587 137.838457 
Q 474.130587 137.838457 474.130587 140.838457 
L 474.130587 150.594707 
Q 474.130587 153.594707 477.130587 153.594707 
z
" style="fill: #1a1a1d; opacity: 0.7; stroke: #ff7f0e; stroke-linejoin: miter"/>
    </g>
    <!-- Margarita &amp; Citrus -->
    <g style="fill: #ff7f0e; opacity: 0.8" transform="translate(477.130587 148.436894) scale(0.1 -0.1)">
     <defs>
      <path id="DejaVuSans-Bold-67" d="M 2919 594 
Q 2688 288 2409 144 
Q 2131 0 1766 0 
Q 1125 0 706 504 
Q 288 1009 288 1791 
Q 288 2575 706 3076 
Q 1125 3578 1766 3578 
Q 2131 3578 2409 3434 
Q 2688 3291 2919 2981 
L 2919 3500 
L 4044 3500 
L 4044 353 
Q 4044 -491 3511 -936 
Q 2978 -1381 1966 -1381 
Q 1638 -1381 1331 -1331 
Q 1025 -1281 716 -1178 
L 716 -306 
Q 1009 -475 1290 -558 
Q 1572 -641 1856 -641 
Q 2406 -641 2662 -400 
Q 2919 -159 2919 353 
L 2919 594 
z
M 2181 2772 
Q 1834 2772 1640 2515 
Q 1447 2259 1447 1791 
Q 1447 1309 1634 1061 
Q 1822 813 2181 813 
Q 2531 813 2725 1069 
Q 2919 1325 2919 1791 
Q 2919 2259 2725 2515 
Q 2531 2772 2181 2772 
z
" transform="scale(0.015625)"/>
      <path id="DejaVuSans-Bold-43" d="M 4288 256 
Q 3956 84 3597 -3 
Q 3238 -91 2847 -91 
Q 1681 -91 1000 561 
Q 319 1213 319 2328 
Q 319 3447 1000 4098 
Q 1681 4750 2847 4750 
Q 3238 4750 3597 4662 
Q 3956 4575 4288 4403 
L 4288 3438 
Q 3953 3666 3628 3772 
Q 3303 3878 2944 3878 
Q 2300 3878 1931 3465 
Q 1563 3053 1563 2328 
Q 1563 1606 1931 1193 
Q 2300 781 2944 781 
Q 3303 781 3628 887 
Q 3953 994 4288 1222 
L 4288 256 
z
" transform="scale(0.015625)"/>
     </defs>
     <use xlink:href="#DejaVuSans-Bold-4d"/>
     <use xlink:href="#DejaVuSans-Bold-61" transform="translate(99.511719 0)"/>
     <use xlink:href="#DejaVuSans-Bold-72" transform="translate(166.992188 0)"/>
     <use xlink:href="#DejaVuSans-Bold-67" transform="translate(216.308594 0)"/>
     <use xlink:href="#DejaVuSans-Bold-61" transform="translate(287.890625 0)"/>
     <use xlink:href="#DejaVuSans-Bold-72" transform="translate(355.371094 0)"/>
     <use xlink:href="#DejaVuSans-Bold-69" transform="translate(404.6875 0)"/>
     <use xlink:href="#DejaVuSans-Bold-74" transform="translate(438.964844 0)"/>
     <use xlink:href="#DejaVuSans-Bold-61" transform="translate(486.767578 0)"/>
     <use xlink:href="#DejaVuSans-Bold-20" transform="translate(554.248047 0)"/>
     <use xlink:href="#DejaVuSans-Bold-26" transform="translate(589.0625 0)"/>
     <use xlink:href="#DejaVuSans-Bold-20" transform="translate(676.269531 0)"/>
     <use xlink:href="#DejaVuSans-Bold-43" transform="translate(711.083984 0)"/>
     <use xlink:href="#DejaVuSans-Bold-69" transform="translate(784.472656 0)"/>
     <use xlink:href="#DejaVuSans-Bold-74" transform="translate(818.75 0)"/>
     <use xlink:href="#DejaVuSans-Bold-72" transform="translate(866.552734 0)"/>
     <use xlink:href="#DejaVuSans-Bold-75" transform="translate(915.869141 0)"/>
     <use xlink:href="#DejaVuSans-Bold-73" transform="translate(987.060547 0)"/>
    </g>
   </g>
   <g id="text_16">
    <g id="patch_14">
     <path d="M 315.350902 545.499173 
L 428.614964 545.499173 
Q 431.614964 545.499173 431.614964 542.499173 
L 431.614964 532.742923 
Q 431.614964 529.742923 428.614964 529.742923 
L 315.350902 529.742923 
Q 312.350902 529.742923 312.350902 532.742923 
L 312.350902 542.499173 
Q 312.350902 545.499173 315.350902 545.499173 
z
" style="fill: #1a1a1d; opacity: 0.7; stroke: #ffbb78; stroke-linejoin: miter"/>
    </g>
    <!-- Manhattan Territory -->
    <g style="fill: #ffbb78; opacity: 0.8" transform="translate(315.350902 540.341361) scale(0.1 -0.1)">
     <defs>
      <path id="DejaVuSans-Bold-68" d="M 4056 2131 
L 4056 0 
L 2931 0 
L 2931 347 
L 2931 1625 
Q 2931 2084 2911 2256 
Q 2891 2428 2841 2509 
Q 2775 2619 2662 2680 
Q 2550 2741 2406 2741 
Q 2056 2741 1856 2470 
Q 1656 2200 1656 1722 
L 1656 0 
L 538 0 
L 538 4863 
L 1656 4863 
L 1656 2988 
Q 1909 3294 2193 3439 
Q 2478 3584 2822 3584 
Q 3428 3584 3742 3212 
Q 4056 2841 4056 2131 
z
" transform="scale(0.015625)"/>
      <path id="DejaVuSans-Bold-54" d="M 31 4666 
L 4331 4666 
L 4331 3756 
L 2784 3756 
L 2784 0 
L 1581 0 
L 1581 3756 
L 31 3756 
L 31 4666 
z
" transform="scale(0.015625)"/>
      <path id="DejaVuSans-Bold-65" d="M 4031 1759 
L 4031 1441 
L 1416 1441 
Q 1456 1047 1700 850 
Q 1944 653 2381 653 
Q 2734 653 3104 758 
Q 3475 863 3866 1075 
L 3866 213 
Q 3469 63 3072 -14 
Q 2675 -91 2278 -91 
Q 1328 -91 801 392 
Q 275 875 275 1747 
Q 275 2603 792 3093 
Q 1309 3584 2216 3584 
Q 3041 3584 3536 3087 
Q 4031 2591 4031 1759 
z
M 2881 2131 
Q 2881 2450 2695 2645 
Q 2509 2841 2209 2841 
Q 1884 2841 1681 2658 
Q 1478 2475 1428 2131 
L 2881 2131 
z
" transform="scale(0.015625)"/>
     </defs>
     <use xlink:href="#DejaVuSans-Bold-4d"/>
     <use xlink:href="#DejaVuSans-Bold-61" transform="translate(99.511719 0)"/>
     <use xlink:href="#DejaVuSans-Bold-6e" transform="translate(166.992188 0)"/>
     <use xlink:href="#DejaVuSans-Bold-68" transform="translate(238.183594 0)"/>
     <use xlink:href="#DejaVuSans-Bold-61" transform="translate(309.375 0)"/>
     <use xlink:href="#DejaVuSans-Bold-74" transform="translate(376.855469 0)"/>
     <use xlink:href="#DejaVuSans-Bold-74" transform="translate(424.658203 0)"/>
     <use xlink:href="#DejaVuSans-Bold-61" transform="translate(472.460938 0)"/>
     <use xlink:href="#DejaVuSans-Bold-6e" transform="translate(539.941406 0)"/>
     <use xlink:href="#DejaVuSans-Bold-20" transform="translate(611.132812 0)"/>
     <use xlink:href="#DejaVuSans-Bold-54" transform="translate(645.947266 0)"/>
     <use xlink:href="#DejaVuSans-Bold-65" transform="translate(700.910156 0)"/>
     <use xlink:href="#DejaVuSans-Bold-72" transform="translate(768.732422 0)"/>
     <use xlink:href="#DejaVuSans-Bold-72" transform="translate(818.048828 0)"/>
     <use xlink:href="#DejaVuSans-Bold-69" transform="translate(867.365234 0)"/>
     <use xlink:href="#DejaVuSans-Bold-74" transform="translate(901.642578 0)"/>
     <use xlink:href="#DejaVuSans-Bold-6f" transform="translate(949.445312 0)"/>
     <use xlink:href="#DejaVuSans-Bold-72" transform="translate(1018.146484 0)"/>
     <use xlink:href="#DejaVuSans-Bold-79" transform="translate(1067.462891 0)"/>
    </g>
   </g>
   <g id="text_17">
    <!-- Martini -->
    <g style="fill: #ffffff; opacity: 0.8" transform="translate(117.671353 102.136348) scale(0.08 -0.08)">
     <defs>
      <path id="DejaVuSans-4d" d="M 628 4666 
L 1569 4666 
L 2759 1491 
L 3956 4666 
L 4897 4666 
L 4897 0 
L 4281 0 
L 4281 4097 
L 3078 897 
L 2444 897 
L 1241 4097 
L 1241 0 
L 628 0 
L 628 4666 
z
" transform="scale(0.015625)"/>
      <path id="DejaVuSans-61" d="M 2194 1759 
Q 1497 1759 1228 1600 
Q 959 1441 959 1056 
Q 959 750 1161 570 
Q 1363 391 1709 391 
Q 2188 391 2477 730 
Q 2766 1069 2766 1631 
L 2766 1759 
L 2194 1759 
z
M 3341 1997 
L 3341 0 
L 2766 0 
L 2766 531 
Q 2569 213 2275 61 
Q 1981 -91 1556 -91 
Q 1019 -91 701 211 
Q 384 513 384 1019 
Q 384 1609 779 1909 
Q 1175 2209 1959 2209 
L 2766 2209 
L 2766 2266 
Q 2766 2663 2505 2880 
Q 2244 3097 1772 3097 
Q 1472 3097 1187 3025 
Q 903 2953 641 2809 
L 641 3341 
Q 956 3463 1253 3523 
Q 1550 3584 1831 3584 
Q 2591 3584 2966 3190 
Q 3341 2797 3341 1997 
z
" transform="scale(0.015625)"/>
      <path id="DejaVuSans-72" d="M 2631 2963 
Q 2534 3019 2420 3045 
Q 2306 3072 2169 3072 
Q 1681 3072 1420 2755 
Q 1159 2438 1159 1844 
L 1159 0 
L 581 0 
L 581 3500 
L 1159 3500 
L 1159 2956 
Q 1341 3275 1631 3429 
Q 1922 3584 2338 3584 
Q 2397 3584 2469 3576 
Q 2541 3569 2628 3553 
L 2631 2963 
z
" transform="scale(0.015625)"/>
      <path id="DejaVuSans-74" d="M 1172 4494 
L 1172 3500 
L 2356 3500 
L 2356 3053 
L 1172 3053 
L 1172 1153 
Q 1172 725 1289 603 
Q 1406 481 1766 481 
L 2356 481 
L 2356 0 
L 1766 0 
Q 1100 0 847 248 
Q 594 497 594 1153 
L 594 3053 
L 172 3053 
L 172 3500 
L 594 3500 
L 594 4494 
L 1172 4494 
z
" transform="scale(0.015625)"/>
     </defs>
     <use xlink:href="#DejaVuSans-4d"/>
     <use xlink:href="#DejaVuSans-61" transform="translate(86.279297 0)"/>
     <use xlink:href="#DejaVuSans-72" transform="translate(147.558594 0)"/>
     <use xlink:href="#DejaVuSans-74" transform="translate(188.671875 0)"/>
     <use xlink:href="#DejaVuSans-69" transform="translate(227.880859 0)"/>
     <use xlink:href="#DejaVuSans-6e" transform="translate(255.664062 0)"/>
     <use xlink:href="#DejaVuSans-69" transform="translate(319.042969 0)"/>
    </g>
   </g>
   <g id="text_18">
    <!-- Manhattan -->
    <g style="fill: #ffffff; opacity: 0.8" transform="translate(271.930106 522.847079) scale(0.08 -0.08)">
     <defs>
      <path id="DejaVuSans-68" d="M 3513 2113 
L 3513 0 
L 2938 0 
L 2938 2094 
Q 2938 2591 2744 2837 
Q 2550 3084 2163 3084 
Q 1697 3084 1428 2787 
Q 1159 2491 1159 1978 
L 1159 0 
L 581 0 
L 581 4863 
L 1159 4863 
L 1159 2956 
Q 1366 3272 1645 3428 
Q 1925 3584 2291 3584 
Q 2894 3584 3203 3211 
Q 3513 2838 3513 2113 
z
" transform="scale(0.015625)"/>
     </defs>
     <use xlink:href="#DejaVuSans-4d"/>
     <use xlink:href="#DejaVuSans-61" transform="translate(86.279297 0)"/>
     <use xlink:href="#DejaVuSans-6e" transform="translate(147.558594 0)"/>
     <use xlink:href="#DejaVuSans-68" transform="translate(210.9375 0)"/>
     <use xlink:href="#DejaVuSans-61" transform="translate(274.316406 0)"/>
     <use xlink:href="#DejaVuSans-74" transform="translate(335.595703 0)"/>
     <use xlink:href="#DejaVuSans-74" transform="translate(374.804688 0)"/>
     <use xlink:href="#DejaVuSans-61" transform="translate(414.013672 0)"/>
     <use xlink:href="#DejaVuSans-6e" transform="translate(475.292969 0)"/>
    </g>
   </g>
   <g id="text_19">
    <!-- Old Fashioned -->
    <g style="fill: #ffffff; opacity: 0.8" transform="translate(372.974934 597.257363) scale(0.08 -0.08)">
     <defs>
      <path id="DejaVuSans-4f" d="M 2522 4238 
Q 1834 4238 1429 3725 
Q 1025 3213 1025 2328 
Q 1025 1447 1429 934 
Q 1834 422 2522 422 
Q 3209 422 3611 934 
Q 4013 1447 4013 2328 
Q 4013 3213 3611 3725 
Q 3209 4238 2522 4238 
z
M 2522 4750 
Q 3503 4750 4090 4092 
Q 4678 3434 4678 2328 
Q 4678 1225 4090 567 
Q 3503 -91 2522 -91 
Q 1538 -91 948 565 
Q 359 1222 359 2328 
Q 359 3434 948 4092 
Q 1538 4750 2522 4750 
z
" transform="scale(0.015625)"/>
      <path id="DejaVuSans-6c" d="M 603 4863 
L 1178 4863 
L 1178 0 
L 603 0 
L 603 4863 
z
" transform="scale(0.015625)"/>
      <path id="DejaVuSans-64" d="M 2906 2969 
L 2906 4863 
L 3481 4863 
L 3481 0 
L 2906 0 
L 2906 525 
Q 2725 213 2448 61 
Q 2172 -91 1784 -91 
Q 1150 -91 751 415 
Q 353 922 353 1747 
Q 353 2572 751 3078 
Q 1150 3584 1784 3584 
Q 2172 3584 2448 3432 
Q 2725 3281 2906 2969 
z
M 947 1747 
Q 947 1113 1208 752 
Q 1469 391 1925 391 
Q 2381 391 2643 752 
Q 2906 1113 2906 1747 
Q 2906 2381 2643 2742 
Q 2381 3103 1925 3103 
Q 1469 3103 1208 2742 
Q 947 2381 947 1747 
z
" transform="scale(0.015625)"/>
      <path id="DejaVuSans-46" d="M 628 4666 
L 3309 4666 
L 3309 4134 
L 1259 4134 
L 1259 2759 
L 3109 2759 
L 3109 2228 
L 1259 2228 
L 1259 0 
L 628 0 
L 628 4666 
z
" transform="scale(0.015625)"/>
     </defs>
     <use xlink:href="#DejaVuSans-4f"/>
     <use xlink:href="#DejaVuSans-6c" transform="translate(78.710938 0)"/>
     <use xlink:href="#DejaVuSans-64" transform="translate(106.494141 0)"/>
     <use xlink:href="#DejaVuSans-20" transform="translate(169.970703 0)"/>
     <use xlink:href="#DejaVuSans-46" transform="translate(201.757812 0)"/>
     <use xlink:href="#DejaVuSans-61" transform="translate(250.152344 0)"/>
     <use xlink:href="#DejaVuSans-73" transform="translate(311.431641 0)"/>
     <use xlink:href="#DejaVuSans-68" transform="translate(363.53125 0)"/>
     <use xlink:href="#DejaVuSans-69" transform="translate(426.910156 0)"/>
     <use xlink:href="#DejaVuSans-6f" transform="translate(454.693359 0)"/>
     <use xlink:href="#DejaVuSans-6e" transform="translate(515.875 0)"/>
     <use xlink:href="#DejaVuSans-65" transform="translate(579.253906 0)"/>
     <use xlink:href="#DejaVuSans-64" transform="translate(640.777344 0)"/>
    </g>
   </g>
   <g id="text_20">
    <!-- Last Word -->
    <g style="fill: #ffffff; opacity: 0.8" transform="translate(515.283988 205.816368) scale(0.08 -0.08)">
     <defs>
      <path id="DejaVuSans-4c" d="M 628 4666 
L 1259 4666 
L 1259 531 
L 3531 531 
L 3531 0 
L 628 0 
L 628 4666 
z
" transform="scale(0.015625)"/>
      <path id="DejaVuSans-57" d="M 213 4666 
L 850 4666 
L 1831 722 
L 2809 4666 
L 3519 4666 
L 4500 722 
L 5478 4666 
L 6119 4666 
L 4947 0 
L 4153 0 
L 3169 4050 
L 2175 0 
L 1381 0 
L 213 4666 
z
" transform="scale(0.015625)"/>
     </defs>
     <use xlink:href="#DejaVuSans-4c"/>
     <use xlink:href="#DejaVuSans-61" transform="translate(55.712891 0)"/>
     <use xlink:href="#DejaVuSans-73" transform="translate(116.992188 0)"/>
     <use xlink:href="#DejaVuSans-74" transform="translate(169.091797 0)"/>
     <use xlink:href="#DejaVuSans-20" transform="translate(208.300781 0)"/>
     <use xlink:href="#DejaVuSans-57" transform="translate(240.087891 0)"/>
     <use xlink:href="#DejaVuSans-6f" transform="translate(333.089844 0)"/>
     <use xlink:href="#DejaVuSans-72" transform="translate(394.271484 0)"/>
     <use xlink:href="#DejaVuSans-64" transform="translate(433.634766 0)"/>
    </g>
   </g>
   <g id="text_21">
    <!-- Paper Plane -->
    <g style="fill: #ffffff; opacity: 0.8" transform="translate(573.893169 292.160653) scale(0.08 -0.08)">
     <defs>
      <path id="DejaVuSans-50" d="M 1259 4147 
L 1259 2394 
L 2053 2394 
Q 2494 2394 2734 2622 
Q 2975 2850 2975 3272 
Q 2975 3691 2734 3919 
Q 2494 4147 2053 4147 
L 1259 4147 
z
M 628 4666 
L 2053 4666 
Q 2838 4666 3239 4311 
Q 3641 3956 3641 3272 
Q 3641 2581 3239 2228 
Q 2838 1875 2053 1875 
L 1259 1875 
L 1259 0 
L 628 0 
L 628 4666 
z
" transform="scale(0.015625)"/>
      <path id="DejaVuSans-70" d="M 1159 525 
L 1159 -1331 
L 581 -1331 
L 581 3500 
L 1159 3500 
L 1159 2969 
Q 1341 3281 1617 3432 
Q 1894 3584 2278 3584 
Q 2916 3584 3314 3078 
Q 3713 2572 3713 1747 
Q 3713 922 3314 415 
Q 2916 -91 2278 -91 
Q 1894 -91 1617 61 
Q 1341 213 1159 525 
z
M 3116 1747 
Q 3116 2381 2855 2742 
Q 2594 3103 2138 3103 
Q 1681 3103 1420 2742 
Q 1159 2381 1159 1747 
Q 1159 1113 1420 752 
Q 1681 391 2138 391 
Q 2594 391 2855 752 
Q 3116 1113 3116 1747 
z
" transform="scale(0.015625)"/>
     </defs>
     <use xlink:href="#DejaVuSans-50"/>
     <use xlink:href="#DejaVuSans-61" transform="translate(55.802734 0)"/>
     <use xlink:href="#DejaVuSans-70" transform="translate(117.082031 0)"/>
     <use xlink:href="#DejaVuSans-65" transform="translate(180.558594 0)"/>
     <use xlink:href="#DejaVuSans-72" transform="translate(242.082031 0)"/>
     <use xlink:href="#DejaVuSans-20" transform="translate(283.195312 0)"/>
     <use xlink:href="#DejaVuSans-50" transform="translate(314.982422 0)"/>
     <use xlink:href="#DejaVuSans-6c" transform="translate(375.285156 0)"/>
     <use xlink:href="#DejaVuSans-61" transform="translate(403.068359 0)"/>
     <use xlink:href="#DejaVuSans-6e" transform="translate(464.347656 0)"/>
     <use xlink:href="#DejaVuSans-65" transform="translate(527.726562 0)"/>
    </g>
   </g>
   <g id="text_22">
    <!-- Margarita -->
    <g style="fill: #ffffff; opacity: 0.8" transform="translate(617.48238 112.368526) scale(0.08 -0.08)">
     <defs>
      <path id="DejaVuSans-67" d="M 2906 1791 
Q 2906 2416 2648 2759 
Q 2391 3103 1925 3103 
Q 1463 3103 1205 2759 
Q 947 2416 947 1791 
Q 947 1169 1205 825 
Q 1463 481 1925 481 
Q 2391 481 2648 825 
Q 2906 1169 2906 1791 
z
M 3481 434 
Q 3481 -459 3084 -895 
Q 2688 -1331 1869 -1331 
Q 1566 -1331 1297 -1286 
Q 1028 -1241 775 -1147 
L 775 -588 
Q 1028 -725 1275 -790 
Q 1522 -856 1778 -856 
Q 2344 -856 2625 -561 
Q 2906 -266 2906 331 
L 2906 616 
Q 2728 306 2450 153 
Q 2172 0 1784 0 
Q 1141 0 747 490 
Q 353 981 353 1791 
Q 353 2603 747 3093 
Q 1141 3584 1784 3584 
Q 2172 3584 2450 3431 
Q 2728 3278 2906 2969 
L 2906 3500 
L 3481 3500 
L 3481 434 
z
" transform="scale(0.015625)"/>
     </defs>
     <use xlink:href="#DejaVuSans-4d"/>
     <use xlink:href="#DejaVuSans-61" transform="translate(86.279297 0)"/>
     <use xlink:href="#DejaVuSans-72" transform="translate(147.558594 0)"/>
     <use xlink:href="#DejaVuSans-67" transform="translate(186.921875 0)"/>
     <use xlink:href="#DejaVuSans-61" transform="translate(250.398438 0)"/>
     <use xlink:href="#DejaVuSans-72" transform="translate(311.677734 0)"/>
     <use xlink:href="#DejaVuSans-69" transform="translate(352.791016 0)"/>
     <use xlink:href="#DejaVuSans-74" transform="translate(380.574219 0)"/>
     <use xlink:href="#DejaVuSans-61" transform="translate(419.783203 0)"/>
    </g>
   </g>
   <g id="text_23">
    <!-- Daiquiri -->
    <g style="fill: #ffffff; opacity: 0.8" transform="translate(795.187913 265.430954) scale(0.08 -0.08)">
     <defs>
      <path id="DejaVuSans-71" d="M 947 1747 
Q 947 1113 1208 752 
Q 1469 391 1925 391 
Q 2381 391 2643 752 
Q 2906 1113 2906 1747 
Q 2906 2381 2643 2742 
Q 2381 3103 1925 3103 
Q 1469 3103 1208 2742 
Q 947 2381 947 1747 
z
M 2906 525 
Q 2725 213 2448 61 
Q 2172 -91 1784 -91 
Q 1150 -91 751 415 
Q 353 922 353 1747 
Q 353 2572 751 3078 
Q 1150 3584 1784 3584 
Q 2172 3584 2448 3432 
Q 2725 3281 2906 2969 
L 2906 3500 
L 3481 3500 
L 3481 -1331 
L 2906 -1331 
L 2906 525 
z
" transform="scale(0.015625)"/>
      <path id="DejaVuSans-75" d="M 544 1381 
L 544 3500 
L 1119 3500 
L 1119 1403 
Q 1119 906 1312 657 
Q 1506 409 1894 409 
Q 2359 409 2629 706 
Q 2900 1003 2900 1516 
L 2900 3500 
L 3475 3500 
L 3475 0 
L 2900 0 
L 2900 538 
Q 2691 219 2414 64 
Q 2138 -91 1772 -91 
Q 1169 -91 856 284 
Q 544 659 544 1381 
z
M 1991 3584 
L 1991 3584 
z
" transform="scale(0.015625)"/>
     </defs>
     <use xlink:href="#DejaVuSans-44"/>
     <use xlink:href="#DejaVuSans-61" transform="translate(77.001953 0)"/>
     <use xlink:href="#DejaVuSans-69" transform="translate(138.28125 0)"/>
     <use xlink:href="#DejaVuSans-71" transform="translate(166.064453 0)"/>
     <use xlink:href="#DejaVuSans-75" transform="translate(229.541016 0)"/>
     <use xlink:href="#DejaVuSans-69" transform="translate(292.919922 0)"/>
     <use xlink:href="#DejaVuSans-72" transform="translate(320.703125 0)"/>
     <use xlink:href="#DejaVuSans-69" transform="translate(361.816406 0)"/>
    </g>
   </g>
   <g id="text_24">
    <!-- Whiskey Sour -->
    <g style="fill: #ffffff; opacity: 0.8" transform="translate(500.370288 609.517163) scale(0.08 -0.08)">
     <defs>
      <path id="DejaVuSans-6b" d="M 581 4863 
L 1159 4863 
L 1159 1991 
L 2875 3500 
L 3609 3500 
L 1753 1863 
L 3688 0 
L 2938 0 
L 1159 1709 
L 1159 0 
L 581 0 
L 581 4863 
z
" transform="scale(0.015625)"/>
      <path id="DejaVuSans-79" d="M 2059 -325 
Q 1816 -950 1584 -1140 
Q 1353 -1331 966 -1331 
L 506 -1331 
L 506 -850 
L 844 -850 
Q 1081 -850 1212 -737 
Q 1344 -625 1503 -206 
L 1606 56 
L 191 3500 
L 800 3500 
L 1894 763 
L 2988 3500 
L 3597 3500 
L 2059 -325 
z
" transform="scale(0.015625)"/>
      <path id="DejaVuSans-53" d="M 3425 4513 
L 3425 3897 
Q 3066 4069 2747 4153 
Q 2428 4238 2131 4238 
Q 1616 4238 1336 4038 
Q 1056 3838 1056 3469 
Q 1056 3159 1242 3001 
Q 1428 2844 1947 2747 
L 2328 2669 
Q 3034 2534 3370 2195 
Q 3706 1856 3706 1288 
Q 3706 609 3251 259 
Q 2797 -91 1919 -91 
Q 1588 -91 1214 -16 
Q 841 59 441 206 
L 441 856 
Q 825 641 1194 531 
Q 1563 422 1919 422 
Q 2459 422 2753 634 
Q 3047 847 3047 1241 
Q 3047 1584 2836 1778 
Q 2625 1972 2144 2069 
L 1759 2144 
Q 1053 2284 737 2584 
Q 422 2884 422 3419 
Q 422 4038 858 4394 
Q 1294 4750 2059 4750 
Q 2388 4750 2728 4690 
Q 3069 4631 3425 4513 
z
" transform="scale(0.015625)"/>
     </defs>
     <use xlink:href="#DejaVuSans-57"/>
     <use xlink:href="#DejaVuSans-68" transform="translate(98.876953 0)"/>
     <use xlink:href="#DejaVuSans-69" transform="translate(162.255859 0)"/>
     <use xlink:href="#DejaVuSans-73" transform="translate(190.039062 0)"/>
     <use xlink:href="#DejaVuSans-6b" transform="translate(242.138672 0)"/>
     <use xlink:href="#DejaVuSans-65" transform="translate(296.423828 0)"/>
     <use xlink:href="#DejaVuSans-79" transform="translate(357.947266 0)"/>
     <use xlink:href="#DejaVuSans-20" transform="translate(417.126953 0)"/>
     <use xlink:href="#DejaVuSans-53" transform="translate(448.914062 0)"/>
     <use xlink:href="#DejaVuSans-6f" transform="translate(512.390625 0)"/>
     <use xlink:href="#DejaVuSans-75" transform="translate(573.572266 0)"/>
     <use xlink:href="#DejaVuSans-72" transform="translate(636.951172 0)"/>
    </g>
   </g>
   <g id="text_25">
    <!-- Negroni -->
    <g style="fill: #ffffff; opacity: 0.8" transform="translate(127.409357 253.096904) scale(0.08 -0.08)">
     <defs>
      <path id="DejaVuSans-4e" d="M 628 4666 
L 1478 4666 
L 3547 763 
L 3547 4666 
L 4159 4666 
L 4159 0 
L 3309 0 
L 1241 3903 
L 1241 0 
L 628 0 
L 628 4666 
z
" transform="scale(0.015625)"/>
     </defs>
     <use xlink:href="#DejaVuSans-4e"/>
     <use xlink:href="#DejaVuSans-65" transform="translate(74.804688 0)"/>
     <use xlink:href="#DejaVuSans-67" transform="translate(136.328125 0)"/>
     <use xlink:href="#DejaVuSans-72" transform="translate(199.804688 0)"/>
     <use xlink:href="#DejaVuSans-6f" transform="translate(238.667969 0)"/>
     <use xlink:href="#DejaVuSans-6e" transform="translate(299.849609 0)"/>
     <use xlink:href="#DejaVuSans-69" transform="translate(363.228516 0)"/>
    </g>
   </g>
   <g id="text_26">
    <!-- Boulevardier -->
    <g style="fill: #ffffff; opacity: 0.8" transform="translate(335.450004 462.219727) scale(0.08 -0.08)">
     <defs>
      <path id="DejaVuSans-42" d="M 1259 2228 
L 1259 519 
L 2272 519 
Q 2781 519 3026 730 
Q 3272 941 3272 1375 
Q 3272 1813 3026 2020 
Q 2781 2228 2272 2228 
L 1259 2228 
z
M 1259 4147 
L 1259 2741 
L 2194 2741 
Q 2656 2741 2882 2914 
Q 3109 3088 3109 3444 
Q 3109 3797 2882 3972 
Q 2656 4147 2194 4147 
L 1259 4147 
z
M 628 4666 
L 2241 4666 
Q 2963 4666 3353 4366 
Q 3744 4066 3744 3513 
Q 3744 3084 3544 2831 
Q 3344 2578 2956 2516 
Q 3422 2416 3680 2098 
Q 3938 1781 3938 1306 
Q 3938 681 3513 340 
Q 3088 0 2303 0 
L 628 0 
L 628 4666 
z
" transform="scale(0.015625)"/>
      <path id="DejaVuSans-76" d="M 191 3500 
L 800 3500 
L 1894 563 
L 2988 3500 
L 3597 3500 
L 2284 0 
L 1503 0 
L 191 3500 
z
" transform="scale(0.015625)"/>
     </defs>
     <use xlink:href="#DejaVuSans-42"/>
     <use xlink:href="#DejaVuSans-6f" transform="translate(68.603516 0)"/>
     <use xlink:href="#DejaVuSans-75" transform="translate(129.785156 0)"/>
     <use xlink:href="#DejaVuSans-6c" transform="translate(193.164062 0)"/>
     <use xlink:href="#DejaVuSans-65" transform="translate(220.947266 0)"/>
     <use xlink:href="#DejaVuSans-76" transform="translate(282.470703 0)"/>
     <use xlink:href="#DejaVuSans-61" transform="translate(341.650391 0)"/>
     <use xlink:href="#DejaVuSans-72" transform="translate(402.929688 0)"/>
     <use xlink:href="#DejaVuSans-64" transform="translate(442.292969 0)"/>
     <use xlink:href="#DejaVuSans-69" transform="translate(505.769531 0)"/>
     <use xlink:href="#DejaVuSans-65" transform="translate(533.552734 0)"/>
     <use xlink:href="#DejaVuSans-72" transform="translate(595.076172 0)"/>
    </g>
   </g>
   <g id="text_27">
    <!-- Penicillin -->
    <g style="fill: #ffffff; opacity: 0.8" transform="translate(499.587827 627.998472) scale(0.08 -0.08)">
     <defs>
      <path id="DejaVuSans-63" d="M 3122 3366 
L 3122 2828 
Q 2878 2963 2633 3030 
Q 2388 3097 2138 3097 
Q 1578 3097 1268 2742 
Q 959 2388 959 1747 
Q 959 1106 1268 751 
Q 1578 397 2138 397 
Q 2388 397 2633 464 
Q 2878 531 3122 666 
L 3122 134 
Q 2881 22 2623 -34 
Q 2366 -91 2075 -91 
Q 1284 -91 818 406 
Q 353 903 353 1747 
Q 353 2603 823 3093 
Q 1294 3584 2113 3584 
Q 2378 3584 2631 3529 
Q 2884 3475 3122 3366 
z
" transform="scale(0.015625)"/>
     </defs>
     <use xlink:href="#DejaVuSans-50"/>
     <use xlink:href="#DejaVuSans-65" transform="translate(56.677734 0)"/>
     <use xlink:href="#DejaVuSans-6e" transform="translate(118.201172 0)"/>
     <use xlink:href="#DejaVuSans-69" transform="translate(181.580078 0)"/>
     <use xlink:href="#DejaVuSans-63" transform="translate(209.363281 0)"/>
     <use xlink:href="#DejaVuSans-69" transform="translate(264.34375 0)"/>
     <use xlink:href="#DejaVuSans-6c" transform="translate(292.126953 0)"/>
     <use xlink:href="#DejaVuSans-6c" transform="translate(319.910156 0)"/>
     <use xlink:href="#DejaVuSans-69" transform="translate(347.693359 0)"/>
     <use xlink:href="#DejaVuSans-6e" transform="translate(375.476562 0)"/>
    </g>
   </g>
   <g id="text_28">
    <!-- Aviation -->
    <g style="fill: #ffffff; opacity: 0.8" transform="translate(424.448028 100.973303) scale(0.08 -0.08)">
     <defs>
      <path id="DejaVuSans-41" d="M 2188 4044 
L 1331 1722 
L 3047 1722 
L 2188 4044 
z
M 1831 4666 
L 2547 4666 
L 4325 0 
L 3669 0 
L 3244 1197 
L 1141 1197 
L 716 0 
L 50 0 
L 1831 4666 
z
" transform="scale(0.015625)"/>
     </defs>
     <use xlink:href="#DejaVuSans-41"/>
     <use xlink:href="#DejaVuSans-76" transform="translate(62.533203 0)"/>
     <use xlink:href="#DejaVuSans-69" transform="translate(121.712891 0)"/>
     <use xlink:href="#DejaVuSans-61" transform="translate(149.496094 0)"/>
     <use xlink:href="#DejaVuSans-74" transform="translate(210.775391 0)"/>
     <use xlink:href="#DejaVuSans-69" transform="translate(249.984375 0)"/>
     <use xlink:href="#DejaVuSans-6f" transform="translate(277.767578 0)"/>
     <use xlink:href="#DejaVuSans-6e" transform="translate(338.949219 0)"/>
    </g>
   </g>
   <g id="text_29">
    <!-- Mai Tai -->
    <g style="fill: #ffffff; opacity: 0.8" transform="translate(734.013631 378.113474) scale(0.08 -0.08)">
     <defs>
      <path id="DejaVuSans-54" d="M -19 4666 
L 3928 4666 
L 3928 4134 
L 2272 4134 
L 2272 0 
L 1638 0 
L 1638 4134 
L -19 4134 
L -19 4666 
z
" transform="scale(0.015625)"/>
     </defs>
     <use xlink:href="#DejaVuSans-4d"/>
     <use xlink:href="#DejaVuSans-61" transform="translate(86.279297 0)"/>
     <use xlink:href="#DejaVuSans-69" transform="translate(147.558594 0)"/>
     <use xlink:href="#DejaVuSans-20" transform="translate(175.341797 0)"/>
     <use xlink:href="#DejaVuSans-54" transform="translate(207.128906 0)"/>
     <use xlink:href="#DejaVuSans-61" transform="translate(251.712891 0)"/>
     <use xlink:href="#DejaVuSans-69" transform="translate(312.992188 0)"/>
    </g>
   </g>
   <g id="text_30">
    <!-- Mojito -->
    <g style="fill: #ffffff; opacity: 0.8" transform="translate(796.252468 265.537073) scale(0.08 -0.08)">
     <defs>
      <path id="DejaVuSans-6a" d="M 603 3500 
L 1178 3500 
L 1178 -63 
Q 1178 -731 923 -1031 
Q 669 -1331 103 -1331 
L -116 -1331 
L -116 -844 
L 38 -844 
Q 366 -844 484 -692 
Q 603 -541 603 -63 
L 603 3500 
z
M 603 4863 
L 1178 4863 
L 1178 4134 
L 603 4134 
L 603 4863 
z
" transform="scale(0.015625)"/>
     </defs>
     <use xlink:href="#DejaVuSans-4d"/>
     <use xlink:href="#DejaVuSans-6f" transform="translate(86.279297 0)"/>
     <use xlink:href="#DejaVuSans-6a" transform="translate(147.460938 0)"/>
     <use xlink:href="#DejaVuSans-69" transform="translate(175.244141 0)"/>
     <use xlink:href="#DejaVuSans-74" transform="translate(203.027344 0)"/>
     <use xlink:href="#DejaVuSans-6f" transform="translate(242.236328 0)"/>
    </g>
   </g>
   <g id="text_31">
    <!-- Aperol Spritz -->
    <g style="fill: #ffffff; opacity: 0.8" transform="translate(457.054994 261.440387) scale(0.08 -0.08)">
     <defs>
      <path id="DejaVuSans-7a" d="M 353 3500 
L 3084 3500 
L 3084 2975 
L 922 459 
L 3084 459 
L 3084 0 
L 275 0 
L 275 525 
L 2438 3041 
L 353 3041 
L 353 3500 
z
" transform="scale(0.015625)"/>
     </defs>
     <use xlink:href="#DejaVuSans-41"/>
     <use xlink:href="#DejaVuSans-70" transform="translate(68.408203 0)"/>
     <use xlink:href="#DejaVuSans-65" transform="translate(131.884766 0)"/>
     <use xlink:href="#DejaVuSans-72" transform="translate(193.408203 0)"/>
     <use xlink:href="#DejaVuSans-6f" transform="translate(232.271484 0)"/>
     <use xlink:href="#DejaVuSans-6c" transform="translate(293.453125 0)"/>
     <use xlink:href="#DejaVuSans-20" transform="translate(321.236328 0)"/>
     <use xlink:href="#DejaVuSans-53" transform="translate(353.023438 0)"/>
     <use xlink:href="#DejaVuSans-70" transform="translate(416.5 0)"/>
     <use xlink:href="#DejaVuSans-72" transform="translate(479.976562 0)"/>
     <use xlink:href="#DejaVuSans-69" transform="translate(521.089844 0)"/>
     <use xlink:href="#DejaVuSans-74" transform="translate(548.873047 0)"/>
     <use xlink:href="#DejaVuSans-7a" transform="translate(588.082031 0)"/>
    </g>
   </g>
   <g id="text_32">
    <!-- blend_struct_a100 - KMeans k=4 (silhouette: 0.582) -->
    <g style="fill: #d4af37" transform="translate(242.022969 17.837812) scale(0.14 -0.14)">
     <defs>
      <path id="DejaVuSans-Bold-62" d="M 2400 722 
Q 2759 722 2948 984 
Q 3138 1247 3138 1747 
Q 3138 2247 2948 2509 
Q 2759 2772 2400 2772 
Q 2041 2772 1848 2508 
Q 1656 2244 1656 1747 
Q 1656 1250 1848 986 
Q 2041 722 2400 722 
z
M 1656 2988 
Q 1888 3294 2169 3439 
Q 2450 3584 2816 3584 
Q 3463 3584 3878 3070 
Q 4294 2556 4294 1747 
Q 4294 938 3878 423 
Q 3463 -91 2816 -91 
Q 2450 -91 2169 54 
Q 1888 200 1656 506 
L 1656 0 
L 538 0 
L 538 4863 
L 1656 4863 
L 1656 2988 
z
" transform="scale(0.015625)"/>
      <path id="DejaVuSans-Bold-64" d="M 2919 2988 
L 2919 4863 
L 4044 4863 
L 4044 0 
L 2919 0 
L 2919 506 
Q 2688 197 2409 53 
Q 2131 -91 1766 -91 
Q 1119 -91 703 423 
Q 288 938 288 1747 
Q 288 2556 703 3070 
Q 1119 3584 1766 3584 
Q 2128 3584 2408 3439 
Q 2688 3294 2919 2988 
z
M 2181 722 
Q 2541 722 2730 984 
Q 2919 1247 2919 1747 
Q 2919 2247 2730 2509 
Q 2541 2772 2181 2772 
Q 1825 2772 1636 2509 
Q 1447 2247 1447 1747 
Q 1447 1247 1636 984 
Q 1825 722 2181 722 
z
" transform="scale(0.015625)"/>
      <path id="DejaVuSans-Bold-5f" d="M 3200 -916 
L 3200 -1509 
L 0 -1509 
L 0 -916 
L 3200 -916 
z
" transform="scale(0.015625)"/>
      <path id="DejaVuSans-Bold-63" d="M 3366 3391 
L 3366 2478 
Q 3138 2634 2908 2709 
Q 2678 2784 2431 2784 
Q 1963 2784 1702 2511 
Q 1441 2238 1441 1747 
Q 1441 1256 1702 982 
Q 1963 709 2431 709 
Q 2694 709 2930 787 
Q 3166 866 3366 1019 
L 3366 103 
Q 3103 6 2833 -42 
Q 2563 -91 2291 -91 
Q 1344 -91 809 395 
Q 275 881 275 1747 
Q 275 2613 809 3098 
Q 1344 3584 2291 3584 
Q 2566 3584 2833 3536 
Q 3100 3488 3366 3391 
z
" transform="scale(0.015625)"/>
      <path id="DejaVuSans-Bold-31" d="M 750 831 
L 1813 831 
L 1813 3847 
L 722 3622 
L 722 4441 
L 1806 4666 
L 2950 4666 
L 2950 831 
L 4013 831 
L 4013 0 
L 750 0 
L 750 831 
z
" transform="scale(0.015625)"/>
      <path id="DejaVuSans-Bold-30" d="M 2944 2338 
Q 2944 3213 2780 3570 
Q 2616 3928 2228 3928 
Q 1841 3928 1675 3570 
Q 1509 3213 1509 2338 
Q 1509 1453 1675 1090 
Q 1841 728 2228 728 
Q 2613 728 2778 1090 
Q 2944 1453 2944 2338 
z
M 4147 2328 
Q 4147 1169 3647 539 
Q 3147 -91 2228 -91 
Q 1306 -91 806 539 
Q 306 1169 306 2328 
Q 306 3491 806 4120 
Q 1306 4750 2228 4750 
Q 3147 4750 3647 4120 
Q 4147 3491 4147 2328 
z
" transform="scale(0.015625)"/>
      <path id="DejaVuSans-Bold-2d" d="M 347 2297 
L 2309 2297 
L 2309 1388 
L 347 1388 
L 347 2297 
z
" transform="scale(0.015625)"/>
      <path id="DejaVuSans-Bold-4b" d="M 588 4666 
L 1791 4666 
L 1791 2963 
L 3525 4666 
L 4922 4666 
L 2675 2456 
L 5153 0 
L 3647 0 
L 1791 1838 
L 1791 0 
L 588 0 
L 588 4666 
z
" transform="scale(0.015625)"/>
      <path id="DejaVuSans-Bold-6b" d="M 538 4863 
L 1656 4863 
L 1656 2216 
L 2944 3500 
L 4244 3500 
L 2534 1894 
L 4378 0 
L 3022 0 
L 1656 1459 
L 1656 0 
L 538 0 
L 538 4863 
z
" transform="scale(0.015625)"/>
      <path id="DejaVuSans-Bold-3d" d="M 678 3084 
L 4684 3084 
L 4684 2350 
L 678 2350 
L 678 3084 
z
M 678 1663 
L 4684 1663 
L 4684 922 
L 678 922 
L 678 1663 
z
" transform="scale(0.015625)"/>
      <path id="DejaVuSans-Bold-34" d="M 2356 3675 
L 1038 1722 
L 2356 1722 
L 2356 3675 
z
M 2156 4666 
L 3494 4666 
L 3494 1722 
L 4159 1722 
L 4159 850 
L 3494 850 
L 3494 0 
L 2356 0 
L 2356 850 
L 288 850 
L 288 1881 
L 2156 4666 
z
" transform="scale(0.015625)"/>
      <path id="DejaVuSans-Bold-28" d="M 2413 -844 
L 1484 -844 
Q 1006 -72 778 623 
Q 550 1319 550 2003 
Q 550 2688 779 3389 
Q 1009 4091 1484 4856 
L 2413 4856 
Q 2013 4116 1813 3408 
Q 1613 2700 1613 2009 
Q 1613 1319 1811 609 
Q 2009 -100 2413 -844 
z
" transform="scale(0.015625)"/>
      <path id="DejaVuSans-Bold-3a" d="M 716 3500 
L 1844 3500 
L 1844 2291 
L 716 2291 
L 716 3500 
z
M 716 1209 
L 1844 1209 
L 1844 0 
L 716 0 
L 716 1209 
z
" transform="scale(0.015625)"/>
      <path id="DejaVuSans-Bold-2e" d="M 653 1209 
L 1778 1209 
L 1778 0 
L 653 0 
L 653 1209 
z
" transform="scale(0.015625)"/>
      <path id="DejaVuSans-Bold-35" d="M 678 4666 
L 3669 4666 
L 3669 3781 
L 1638 3781 
L 1638 3059 
Q 1775 3097 1914 3117 
Q 2053 3138 2203 3138 
Q 3056 3138 3531 2711 
Q 4006 2284 4006 1522 
Q 4006 766 3489 337 
Q 2972 -91 2053 -91 
Q 1656 -91 1267 -14 
Q 878 63 494 219 
L 494 1166 
Q 875 947 1217 837 
Q 1559 728 1863 728 
Q 2300 728 2551 942 
Q 2803 1156 2803 1522 
Q 2803 1891 2551 2103 
Q 2300 2316 1863 2316 
Q 1603 2316 1309 2248 
Q 1016 2181 678 2041 
L 678 4666 
z
" transform="scale(0.015625)"/>
      <path id="DejaVuSans-Bold-38" d="M 2228 2088 
Q 1891 2088 1709 1903 
Q 1528 1719 1528 1375 
Q 1528 1031 1709 848 
Q 1891 666 2228 666 
Q 2563 666 2741 848 
Q 2919 1031 2919 1375 
Q 2919 1722 2741 1905 
Q 2563 2088 2228 2088 
z
M 1350 2484 
Q 925 2613 709 2878 
Q 494 3144 494 3541 
Q 494 4131 934 4440 
Q 1375 4750 2228 4750 
Q 3075 4750 3515 4442 
Q 3956 4134 3956 3541 
Q 3956 3144 3739 2878 
Q 3522 2613 3097 2484 
Q 3572 2353 3814 2058 
Q 4056 1763 4056 1313 
Q 4056 619 3595 264 
Q 3134 -91 2228 -91 
Q 1319 -91 855 264 
Q 391 619 391 1313 
Q 391 1763 633 2058 
Q 875 2353 1350 2484 
z
M 1631 3419 
Q 1631 3141 1786 2991 
Q 1941 2841 2228 2841 
Q 2509 2841 2662 2991 
Q 2816 3141 2816 3419 
Q 2816 3697 2662 3845 
Q 2509 3994 2228 3994 
Q 1941 3994 1786 3844 
Q 1631 3694 1631 3419 
z
" transform="scale(0.015625)"/>
      <path id="DejaVuSans-Bold-32" d="M 1844 884 
L 3897 884 
L 3897 0 
L 506 0 
L 506 884 
L 2209 2388 
Q 2438 2594 2547 2791 
Q 2656 2988 2656 3200 
Q 2656 3528 2436 3728 
Q 2216 3928 1850 3928 
Q 1569 3928 1234 3808 
Q 900 3688 519 3450 
L 519 4475 
Q 925 4609 1322 4679 
Q 1719 4750 2100 4750 
Q 2938 4750 3402 4381 
Q 3866 4013 3866 3353 
Q 3866 2972 3669 2642 
Q 3472 2313 2841 1759 
L 1844 884 
z
" transform="scale(0.015625)"/>
      <path id="DejaVuSans-Bold-29" d="M 513 -844 
Q 913 -100 1113 609 
Q 1313 1319 1313 2009 
Q 1313 2700 1113 3408 
Q 913 4116 513 4856 
L 1441 4856 
Q 1916 4091 2145 3389 
Q 2375 2688 2375 2003 
Q 2375 1319 2147 623 
Q 1919 -72 1441 -844 
L 513 -844 
z
" transform="scale(0.015625)"/>
     </defs>
     <use xlink:href="#DejaVuSans-Bold-62"/>
     <use xlink:href="#DejaVuSans-Bold-6c" transform="translate(71.582031 0)"/>
     <use xlink:href="#DejaVuSans-Bold-65" transform="translate(105.859375 0)"/>
     <use xlink:href="#DejaVuSans-Bold-6e" transform="translate(173.681641 0)"/>
     <use xlink:href="#DejaVuSans-Bold-64" transform="translate(244.873047 0)"/>
     <use xlink:href="#DejaVuSans-Bold-5f" transform="translate(316.455078 0)"/>
     <use xlink:href="#DejaVuSans-Bold-73" transform="translate(366.455078 0)"/>
     <use xlink:href="#DejaVuSans-Bold-74" transform="translate(425.976562 0)"/>
     <use xlink:href="#DejaVuSans-Bold-72" transform="translate(473.779297 0)"/>
     <use xlink:href="#DejaVuSans-Bold-75" transform="translate(523.095703 0)"/>
     <use xlink:href="#DejaVuSans-Bold-63" transform="translate(594.287109 0)"/>
     <use xlink:href="#DejaVuSans-Bold-74" transform="translate(653.564453 0)"/>
     <use xlink:href="#DejaVuSans-Bold-5f" transform="translate(701.367188 0)"/>
     <use xlink:href="#DejaVuSans-Bold-61" transform="translate(751.367188 0)"/>
     <use xlink:href="#DejaVuSans-Bold-31" transform="translate(818.847656 0)"/>
     <use xlink:href="#DejaVuSans-Bold-30" transform="translate(888.427734 0)"/>
     <use xlink:href="#DejaVuSans-Bold-30" transform="translate(958.007812 0)"/>
     <use xlink:href="#DejaVuSans-Bold-20" transform="translate(1027.587891 0)"/>
     <use xlink:href="#DejaVuSans-Bold-2d" transform="translate(1062.402344 0)"/>
     <use xlink:href="#DejaVuSans-Bold-20" transform="translate(1103.90625 0)"/>
     <use xlink:href="#DejaVuSans-Bold-4b" transform="translate(1138.720703 0)"/>
     <use xlink:href="#DejaVuSans-Bold-4d" transform="translate(1216.210938 0)"/>
     <use xlink:href="#DejaVuSans-Bold-65" transform="translate(1315.722656 0)"/>
     <use xlink:href="#DejaVuSans-Bold-61" transform="translate(1383.544922 0)"/>
     <use xlink:href="#DejaVuSans-Bold-6e" transform="translate(1451.025391 0)"/>
     <use xlink:href="#DejaVuSans-Bold-73" transform="translate(1522.216797 0)"/>
     <use xlink:href="#DejaVuSans-Bold-20" transform="translate(1581.738281 0)"/>
     <use xlink:href="#DejaVuSans-Bold-6b" transform="translate(1616.552734 0)"/>
     <use xlink:href="#DejaVuSans-Bold-3d" transform="translate(1683.056641 0)"/>
     <use xlink:href="#DejaVuSans-Bold-34" transform="translate(1766.845703 0)"/>
     <use xlink:href="#DejaVuSans-Bold-20" transform="translate(1836.425781 0)"/>
     <use xlink:href="#DejaVuSans-Bold-28" transform="translate(1871.240234 0)"/>
     <use xlink:href="#DejaVuSans-Bold-73" transform="translate(1916.943359 0)"/>
     <use xlink:href="#DejaVuSans-Bold-69" transform="translate(1976.464844 0)"/>
     <use xlink:href="#DejaVuSans-Bold-6c" transform="translate(2010.742188 0)"/>
     <use xlink:href="#DejaVuSans-Bold-68" transform="translate(2045.019531 0)"/>
     <use xlink:href="#DejaVuSans-Bold-6f" transform="translate(2116.210938 0)"/>
     <use xlink:href="#DejaVuSans-Bold-75" transform="translate(2184.912109 0)"/>
     <use xlink:href="#DejaVuSans-Bold-65" transform="translate(2256.103516 0)"/>
     <use xlink:href="#DejaVuSans-Bold-74" transform="translate(2323.925781 0)"/>
     <use xlink:href="#DejaVuSans-Bold-74" transform="translate(2371.728516 0)"/>
     <use xlink:href="#DejaVuSans-Bold-65" transform="translate(2419.53125 0)"/>
     <use xlink:href="#DejaVuSans-Bold-3a" transform="translate(2487.353516 0)"/>
     <use xlink:href="#DejaVuSans-Bold-20" transform="translate(2527.34375 0)"/>
     <use xlink:href="#DejaVuSans-Bold-30" transform="translate(2562.158203 0)"/>
     <use xlink:href="#DejaVuSans-Bold-2e" transform="translate(2631.738281 0)"/>
     <use xlink:href="#DejaVuSans-Bold-35" transform="translate(2669.726562 0)"/>
     <use xlink:href="#DejaVuSans-Bold-38" transform="translate(2739.306641 0)"/>
     <use xlink:href="#DejaVuSans-Bold-32" transform="translate(2808.886719 0)"/>
     <use xlink:href="#DejaVuSans-Bold-29" transform="translate(2878.466797 0)"/>
    </g>
   </g>
  </g>
 </g>
 <defs>
  <clipPath id="pf45e68bd2a">
   <rect x="43.588125" y="37.837812" width="806.245" height="636.08"/>
  </clipPath>
 </defs>
</svg>
