<?xml version="1.0" encoding="utf-8" standalone="no"?>
<!DOCTYPE svg PUBLIC "-//W3C//DTD SVG 1.1//EN"
  "http://www.w3.org/Graphics/SVG/1.1/DTD/svg11.dtd">
<svg xmlns:xlink="http://www.w3.org/1999/xlink" width="857.033125pt" height="712.441875pt" viewBox="0 0 857.033125 712.441875" xmlns="http://www.w3.org/2000/svg" version="1.1">
 <metadata>
  <rdf:RDF xmlns:dc="http://purl.org/dc/elements/1.1/" xmlns:cc="http://creativecommons.org/ns#" xmlns:rdf="http://www.w3.org/1999/02/22-rdf-syntax-ns#">
   <cc:Work>
    <dc:type rdf:resource="http://purl.org/dc/dcmitype/StillImage"/>
    <dc:date>2026-02-26T15:14:32.143045</dc:date>
    <dc:format>image/svg+xml</dc:format>
    <dc:creator>
     <cc:Agent>
      <dc:title>Matplotlib v3.10.8, https://matplotlib.org/</dc:title>
     </cc:Agent>
    </dc:creator>
   </cc:Work>
  </rdf:RDF>
 </metadata>
 <defs>
  <style type="text/css">*{stroke-linejoin: round; stroke-linecap: butt}</style>
 </defs>
 <g id="figure_1">
  <g id="patch_1">
   <path d="M 0 712.441875 
L 857.033125 712.441875 
L 857.033125 0 
L 0 0 
z
" style="fill: #1a1a1d"/>
  </g>
  <g id="axes_1">
   <g id="patch_2">
    <path d="M 43.588125 673.917812 
L 849.833125 673.917812 
L 849.833125 37.837812 
L 43.588125 37.837812 
z
" style="fill: #1a1a1d"/>
   </g>
   <g id="PathCollection_1">
    <defs>
     <path id="mbd47b44d01" d="M 0 4.472136 
C 1.186024 4.472136 2.323632 4.000923 3.162278 3.162278 
C 4.000923 2.323632 4.472136 1.186024 4.472136 0 
C 4.472136 -1.186024 4.000923 -2.323632 3.162278 -3.162278 
C 2.323632 -4.000923 1.186024 -4.472136 0 -4.472136 
C -1.186024 -4.472136 -2.323632 -4.000923 -3.162278 -3.162278 
C -4.000923 -2.323632 -4.472136 -1.186024 -4.472136 0 
C -4.472136 1.186024 -4.000923 2.323632 -3.162278 3.162278 
C -2.323632 4.000923 -1.186024 4.472136 0 4.472136 
z
" style="stroke: #ffffff; stroke-opacity: 0.7; stroke-width: 0.5"/>
    </defs>
    <g clip-path="url(#pd86d6581ae)">
     <use xlink:href="#mbd47b44d01" x="680.718094" y="350.690775" style="fill: #1f77b4; fill-opacity: 0.7; stroke: #ffffff; stroke-opacity: 0.7; stroke-width: 0.5"/>
     <use xlink:href="#mbd47b44d01" x="704.979116" y="406.005676" style="fill: #1f77b4; fill-opacity: 0.7; stroke: #ffffff; stroke-opacity: 0.7; stroke-width: 0.5"/>
     <use xlink:href="#mbd47b44d01" x="660.601745" y="151.91231" style="fill: #1f77b4; fill-opacity: 0.7; stroke: #ffffff; stroke-opacity: 0.7; stroke-width: 0.5"/>
     <use xlink:href="#mbd47b44d01" x="569.178523" y="130.093204" style="fill: #1f77b4; fill-opacity: 0.7; stroke: #ffffff; stroke-opacity: 0.7; stroke-width: 0.5"/>
     <use xlink:href="#mbd47b44d01" x="564.681086" y="153.49254" style="fill: #1f77b4; fill-opacity: 0.7; stroke: #ffffff; stroke-opacity: 0.7; stroke-width: 0.5"/>
     <use xlink:href="#mbd47b44d01" x="693.663206" y="372.609361" style="fill: #1f77b4; fill-opacity: 0.7; stroke: #ffffff; stroke-opacity: 0.7; stroke-width: 0.5"/>
     <use xlink:href="#mbd47b44d01" x="662.918308" y="108.378508" style="fill: #1f77b4; fill-opacity: 0.7; stroke: #ffffff; stroke-opacity: 0.7; stroke-width: 0.5"/>
     <use xlink:href="#mbd47b44d01" x="762.1633" y="253.329951" style="fill: #1f77b4; fill-opacity: 0.7; stroke: #ffffff; stroke-opacity: 0.7; stroke-width: 0.5"/>
     <use xlink:href="#mbd47b44d01" x="675.622043" y="362.515989" style="fill: #1f77b4; fill-opacity: 0.7; stroke: #ffffff; stroke-opacity: 0.7; stroke-width: 0.5"/>
     <use xlink:href="#mbd47b44d01" x="618.766677" y="304.199729" style="fill: #1f77b4; fill-opacity: 0.7; stroke: #ffffff; stroke-opacity: 0.7; stroke-width: 0.5"/>
     <use xlink:href="#mbd47b44d01" x="587.842607" y="304.847269" style="fill: #1f77b4; fill-opacity: 0.7; stroke: #ffffff; stroke-opacity: 0.7; stroke-width: 0.5"/>
     <use xlink:href="#mbd47b44d01" x="691.653033" y="94.324585" style="fill: #1f77b4; fill-opacity: 0.7; stroke: #ffffff; stroke-opacity: 0.7; stroke-width: 0.5"/>
     <use xlink:href="#mbd47b44d01" x="576.40904" y="319.559754" style="fill: #1f77b4; fill-opacity: 0.7; stroke: #ffffff; stroke-opacity: 0.7; stroke-width: 0.5"/>
     <use xlink:href="#mbd47b44d01" x="608.960345" y="158.478932" style="fill: #1f77b4; fill-opacity: 0.7; stroke: #ffffff; stroke-opacity: 0.7; stroke-width: 0.5"/>
     <use xlink:href="#mbd47b44d01" x="779.785849" y="242.307405" style="fill: #1f77b4; fill-opacity: 0.7; stroke: #ffffff; stroke-opacity: 0.7; stroke-width: 0.5"/>
     <use xlink:href="#mbd47b44d01" x="680.736905" y="115.62667" style="fill: #1f77b4; fill-opacity: 0.7; stroke: #ffffff; stroke-opacity: 0.7; stroke-width: 0.5"/>
     <use xlink:href="#mbd47b44d01" x="774.41459" y="134.130311" style="fill: #1f77b4; fill-opacity: 0.7; stroke: #ffffff; stroke-opacity: 0.7; stroke-width: 0.5"/>
     <use xlink:href="#mbd47b44d01" x="708.223181" y="383.141018" style="fill: #1f77b4; fill-opacity: 0.7; stroke: #ffffff; stroke-opacity: 0.7; stroke-width: 0.5"/>
     <use xlink:href="#mbd47b44d01" x="581.37236" y="228.296141" style="fill: #1f77b4; fill-opacity: 0.7; stroke: #ffffff; stroke-opacity: 0.7; stroke-width: 0.5"/>
     <use xlink:href="#mbd47b44d01" x="642.704507" y="350.704051" style="fill: #1f77b4; fill-opacity: 0.7; stroke: #ffffff; stroke-opacity: 0.7; stroke-width: 0.5"/>
     <use xlink:href="#mbd47b44d01" x="751.228421" y="244.432701" style="fill: #1f77b4; fill-opacity: 0.7; stroke: #ffffff; stroke-opacity: 0.7; stroke-width: 0.5"/>
     <use xlink:href="#mbd47b44d01" x="631.022093" y="127.237991" style="fill: #1f77b4; fill-opacity: 0.7; stroke: #ffffff; stroke-opacity: 0.7; stroke-width: 0.5"/>
     <use xlink:href="#mbd47b44d01" x="689.196047" y="339.978381" style="fill: #1f77b4; fill-opacity: 0.7; stroke: #ffffff; stroke-opacity: 0.7; stroke-width: 0.5"/>
     <use xlink:href="#mbd47b44d01" x="641.677439" y="129.966276" style="fill: #1f77b4; fill-opacity: 0.7; stroke: #ffffff; stroke-opacity: 0.7; stroke-width: 0.5"/>
     <use xlink:href="#mbd47b44d01" x="561.11175" y="216.775857" style="fill: #1f77b4; fill-opacity: 0.7; stroke: #ffffff; stroke-opacity: 0.7; stroke-width: 0.5"/>
     <use xlink:href="#mbd47b44d01" x="766.964397" y="153.935177" style="fill: #1f77b4; fill-opacity: 0.7; stroke: #ffffff; stroke-opacity: 0.7; stroke-width: 0.5"/>
     <use xlink:href="#mbd47b44d01" x="724.128122" y="104.755609" style="fill: #1f77b4; fill-opacity: 0.7; stroke: #ffffff; stroke-opacity: 0.7; stroke-width: 0.5"/>
     <use xlink:href="#mbd47b44d01" x="744.045487" y="142.010925" style="fill: #1f77b4; fill-opacity: 0.7; stroke: #ffffff; stroke-opacity: 0.7; stroke-width: 0.5"/>
     <use xlink:href="#mbd47b44d01" x="576.08321" y="224.738095" style="fill: #1f77b4; fill-opacity: 0.7; stroke: #ffffff; stroke-opacity: 0.7; stroke-width: 0.5"/>
     <use xlink:href="#mbd47b44d01" x="794.302342" y="233.380351" style="fill: #1f77b4; fill-opacity: 0.7; stroke: #ffffff; stroke-opacity: 0.7; stroke-width: 0.5"/>
     <use xlink:href="#mbd47b44d01" x="659.147949" y="104.56139" style="fill: #1f77b4; fill-opacity: 0.7; stroke: #ffffff; stroke-opacity: 0.7; stroke-width: 0.5"/>
     <use xlink:href="#mbd47b44d01" x="647.456394" y="336.405914" style="fill: #1f77b4; fill-opacity: 0.7; stroke: #ffffff; stroke-opacity: 0.7; stroke-width: 0.5"/>
     <use xlink:href="#mbd47b44d01" x="676.791487" y="150.80217" style="fill: #1f77b4; fill-opacity: 0.7; stroke: #ffffff; stroke-opacity: 0.7; stroke-width: 0.5"/>
     <use xlink:href="#mbd47b44d01" x="649.554471" y="134.88251" style="fill: #1f77b4; fill-opacity: 0.7; stroke: #ffffff; stroke-opacity: 0.7; stroke-width: 0.5"/>
     <use xlink:href="#mbd47b44d01" x="603.958433" y="104.467207" style="fill: #1f77b4; fill-opacity: 0.7; stroke: #ffffff; stroke-opacity: 0.7; stroke-width: 0.5"/>
     <use xlink:href="#mbd47b44d01" x="560.930258" y="228.810738" style="fill: #1f77b4; fill-opacity: 0.7; stroke: #ffffff; stroke-opacity: 0.7; stroke-width: 0.5"/>
     <use xlink:href="#mbd47b44d01" x="684.098604" y="327.116089" style="fill: #1f77b4; fill-opacity: 0.7; stroke: #ffffff; stroke-opacity: 0.7; stroke-width: 0.5"/>
     <use xlink:href="#mbd47b44d01" x="629.341194" y="85.996132" style="fill: #1f77b4; fill-opacity: 0.7; stroke: #ffffff; stroke-opacity: 0.7; stroke-width: 0.5"/>
     <use xlink:href="#mbd47b44d01" x="757.765488" y="101.268416" style="fill: #1f77b4; fill-opacity: 0.7; stroke: #ffffff; stroke-opacity: 0.7; stroke-width: 0.5"/>
     <use xlink:href="#mbd47b44d01" x="666.769216" y="87.178262" style="fill: #1f77b4; fill-opacity: 0.7; stroke: #ffffff; stroke-opacity: 0.7; stroke-width: 0.5"/>
     <use xlink:href="#mbd47b44d01" x="696.885145" y="392.224523" style="fill: #1f77b4; fill-opacity: 0.7; stroke: #ffffff; stroke-opacity: 0.7; stroke-width: 0.5"/>
     <use xlink:href="#mbd47b44d01" x="713.334145" y="102.348589" style="fill: #1f77b4; fill-opacity: 0.7; stroke: #ffffff; stroke-opacity: 0.7; stroke-width: 0.5"/>
     <use xlink:href="#mbd47b44d01" x="581.748605" y="190.800016" style="fill: #1f77b4; fill-opacity: 0.7; stroke: #ffffff; stroke-opacity: 0.7; stroke-width: 0.5"/>
     <use xlink:href="#mbd47b44d01" x="777.271451" y="240.486188" style="fill: #1f77b4; fill-opacity: 0.7; stroke: #ffffff; stroke-opacity: 0.7; stroke-width: 0.5"/>
    </g>
   </g>
   <g id="patch_3">
    <path d="M 710.463915 434.761515 
L 813.185625 236.242391 
L 790.31471 122.104845 
L 771.168243 84.313665 
L 666.52253 68.109988 
L 623.480305 66.75054 
L 594.29013 87.992275 
L 554.293233 117.462172 
L 549.121181 144.371409 
L 545.016444 217.147222 
L 544.807729 230.987337 
L 562.608328 335.348704 
z
" clip-path="url(#pd86d6581ae)" style="fill: #1f77b4; opacity: 0.05"/>
   </g>
   <g id="PathCollection_2">
    <defs>
     <path id="m4b5cc82757" d="M 0 4.472136 
C 1.186024 4.472136 2.323632 4.000923 3.162278 3.162278 
C 4.000923 2.323632 4.472136 1.186024 4.472136 0 
C 4.472136 -1.186024 4.000923 -2.323632 3.162278 -3.162278 
C 2.323632 -4.000923 1.186024 -4.472136 0 -4.472136 
C -1.186024 -4.472136 -2.323632 -4.000923 -3.162278 -3.162278 
C -4.000923 -2.323632 -4.472136 -1.186024 -4.472136 0 
C -4.472136 1.186024 -4.000923 2.323632 -3.162278 3.162278 
C -2.323632 4.000923 -1.186024 4.472136 0 4.472136 
z
" style="stroke: #ffffff; stroke-opacity: 0.7; stroke-width: 0.5"/>
    </defs>
    <g clip-path="url(#pd86d6581ae)">
     <use xlink:href="#m4b5cc82757" x="439.502503" y="465.095831" style="fill: #aec7e8; fill-opacity: 0.7; stroke: #ffffff; stroke-opacity: 0.7; stroke-width: 0.5"/>
     <use xlink:href="#m4b5cc82757" x="424.383959" y="604.261845" style="fill: #aec7e8; fill-opacity: 0.7; stroke: #ffffff; stroke-opacity: 0.7; stroke-width: 0.5"/>
     <use xlink:href="#m4b5cc82757" x="433.173389" y="583.922987" style="fill: #aec7e8; fill-opacity: 0.7; stroke: #ffffff; stroke-opacity: 0.7; stroke-width: 0.5"/>
     <use xlink:href="#m4b5cc82757" x="475.146509" y="608.599796" style="fill: #aec7e8; fill-opacity: 0.7; stroke: #ffffff; stroke-opacity: 0.7; stroke-width: 0.5"/>
     <use xlink:href="#m4b5cc82757" x="522.288978" y="566.425498" style="fill: #aec7e8; fill-opacity: 0.7; stroke: #ffffff; stroke-opacity: 0.7; stroke-width: 0.5"/>
     <use xlink:href="#m4b5cc82757" x="709.920197" y="465.064395" style="fill: #aec7e8; fill-opacity: 0.7; stroke: #ffffff; stroke-opacity: 0.7; stroke-width: 0.5"/>
     <use xlink:href="#m4b5cc82757" x="478.261613" y="491.897204" style="fill: #aec7e8; fill-opacity: 0.7; stroke: #ffffff; stroke-opacity: 0.7; stroke-width: 0.5"/>
     <use xlink:href="#m4b5cc82757" x="493.039414" y="587.814097" style="fill: #aec7e8; fill-opacity: 0.7; stroke: #ffffff; stroke-opacity: 0.7; stroke-width: 0.5"/>
     <use xlink:href="#m4b5cc82757" x="559.276569" y="588.045589" style="fill: #aec7e8; fill-opacity: 0.7; stroke: #ffffff; stroke-opacity: 0.7; stroke-width: 0.5"/>
     <use xlink:href="#m4b5cc82757" x="715.460228" y="471.623523" style="fill: #aec7e8; fill-opacity: 0.7; stroke: #ffffff; stroke-opacity: 0.7; stroke-width: 0.5"/>
     <use xlink:href="#m4b5cc82757" x="553.571887" y="514.11167" style="fill: #aec7e8; fill-opacity: 0.7; stroke: #ffffff; stroke-opacity: 0.7; stroke-width: 0.5"/>
     <use xlink:href="#m4b5cc82757" x="616.144471" y="529.947153" style="fill: #aec7e8; fill-opacity: 0.7; stroke: #ffffff; stroke-opacity: 0.7; stroke-width: 0.5"/>
     <use xlink:href="#m4b5cc82757" x="469.341763" y="456.168214" style="fill: #aec7e8; fill-opacity: 0.7; stroke: #ffffff; stroke-opacity: 0.7; stroke-width: 0.5"/>
     <use xlink:href="#m4b5cc82757" x="443.261729" y="612.61295" style="fill: #aec7e8; fill-opacity: 0.7; stroke: #ffffff; stroke-opacity: 0.7; stroke-width: 0.5"/>
     <use xlink:href="#m4b5cc82757" x="437.590657" y="505.669942" style="fill: #aec7e8; fill-opacity: 0.7; stroke: #ffffff; stroke-opacity: 0.7; stroke-width: 0.5"/>
     <use xlink:href="#m4b5cc82757" x="476.410401" y="628.332614" style="fill: #aec7e8; fill-opacity: 0.7; stroke: #ffffff; stroke-opacity: 0.7; stroke-width: 0.5"/>
     <use xlink:href="#m4b5cc82757" x="462.611459" y="621.167539" style="fill: #aec7e8; fill-opacity: 0.7; stroke: #ffffff; stroke-opacity: 0.7; stroke-width: 0.5"/>
     <use xlink:href="#m4b5cc82757" x="696.899" y="477.537374" style="fill: #aec7e8; fill-opacity: 0.7; stroke: #ffffff; stroke-opacity: 0.7; stroke-width: 0.5"/>
     <use xlink:href="#m4b5cc82757" x="481.754901" y="502.144674" style="fill: #aec7e8; fill-opacity: 0.7; stroke: #ffffff; stroke-opacity: 0.7; stroke-width: 0.5"/>
     <use xlink:href="#m4b5cc82757" x="569.12419" y="612.175115" style="fill: #aec7e8; fill-opacity: 0.7; stroke: #ffffff; stroke-opacity: 0.7; stroke-width: 0.5"/>
     <use xlink:href="#m4b5cc82757" x="541.975666" y="522.366109" style="fill: #aec7e8; fill-opacity: 0.7; stroke: #ffffff; stroke-opacity: 0.7; stroke-width: 0.5"/>
     <use xlink:href="#m4b5cc82757" x="729.117205" y="481.781166" style="fill: #aec7e8; fill-opacity: 0.7; stroke: #ffffff; stroke-opacity: 0.7; stroke-width: 0.5"/>
     <use xlink:href="#m4b5cc82757" x="517.52185" y="510.65035" style="fill: #aec7e8; fill-opacity: 0.7; stroke: #ffffff; stroke-opacity: 0.7; stroke-width: 0.5"/>
     <use xlink:href="#m4b5cc82757" x="565.169147" y="613.684863" style="fill: #aec7e8; fill-opacity: 0.7; stroke: #ffffff; stroke-opacity: 0.7; stroke-width: 0.5"/>
     <use xlink:href="#m4b5cc82757" x="543.599914" y="421.367784" style="fill: #aec7e8; fill-opacity: 0.7; stroke: #ffffff; stroke-opacity: 0.7; stroke-width: 0.5"/>
     <use xlink:href="#m4b5cc82757" x="573.968133" y="553.503649" style="fill: #aec7e8; fill-opacity: 0.7; stroke: #ffffff; stroke-opacity: 0.7; stroke-width: 0.5"/>
     <use xlink:href="#m4b5cc82757" x="679.440075" y="498.512703" style="fill: #aec7e8; fill-opacity: 0.7; stroke: #ffffff; stroke-opacity: 0.7; stroke-width: 0.5"/>
     <use xlink:href="#m4b5cc82757" x="421.474095" y="601.429993" style="fill: #aec7e8; fill-opacity: 0.7; stroke: #ffffff; stroke-opacity: 0.7; stroke-width: 0.5"/>
     <use xlink:href="#m4b5cc82757" x="513.405053" y="554.436688" style="fill: #aec7e8; fill-opacity: 0.7; stroke: #ffffff; stroke-opacity: 0.7; stroke-width: 0.5"/>
     <use xlink:href="#m4b5cc82757" x="445.935043" y="612.630061" style="fill: #aec7e8; fill-opacity: 0.7; stroke: #ffffff; stroke-opacity: 0.7; stroke-width: 0.5"/>
     <use xlink:href="#m4b5cc82757" x="535.128877" y="632.466076" style="fill: #aec7e8; fill-opacity: 0.7; stroke: #ffffff; stroke-opacity: 0.7; stroke-width: 0.5"/>
     <use xlink:href="#m4b5cc82757" x="536.876085" y="621.795307" style="fill: #aec7e8; fill-opacity: 0.7; stroke: #ffffff; stroke-opacity: 0.7; stroke-width: 0.5"/>
     <use xlink:href="#m4b5cc82757" x="529.571552" y="595.555682" style="fill: #aec7e8; fill-opacity: 0.7; stroke: #ffffff; stroke-opacity: 0.7; stroke-width: 0.5"/>
    </g>
   </g>
   <g id="patch_4">
    <path d="M 425.471758 452.529304 
L 404.739089 609.313589 
L 408.085433 612.57022 
L 467.915841 640.251604 
L 535.442088 645.005085 
L 574.536698 621.67048 
L 758.528665 471.717439 
L 736.452106 452.493152 
L 545.18378 402.242049 
z
" clip-path="url(#pd86d6581ae)" style="fill: #aec7e8; opacity: 0.05"/>
   </g>
   <g id="PathCollection_3">
    <defs>
     <path id="m31e82dad3d" d="M 0 4.472136 
C 1.186024 4.472136 2.323632 4.000923 3.162278 3.162278 
C 4.000923 2.323632 4.472136 1.186024 4.472136 0 
C 4.472136 -1.186024 4.000923 -2.323632 3.162278 -3.162278 
C 2.323632 -4.000923 1.186024 -4.472136 0 -4.472136 
C -1.186024 -4.472136 -2.323632 -4.000923 -3.162278 -3.162278 
C -4.000923 -2.323632 -4.472136 -1.186024 -4.472136 0 
C -4.472136 1.186024 -4.000923 2.323632 -3.162278 3.162278 
C -2.323632 4.000923 -1.186024 4.472136 0 4.472136 
z
" style="stroke: #ffffff; stroke-opacity: 0.7; stroke-width: 0.5"/>
    </defs>
    <g clip-path="url(#pd86d6581ae)">
     <use xlink:href="#m31e82dad3d" x="194.84048" y="435.354441" style="fill: #ff7f0e; fill-opacity: 0.7; stroke: #ffffff; stroke-opacity: 0.7; stroke-width: 0.5"/>
     <use xlink:href="#m31e82dad3d" x="130.04971" y="515.908029" style="fill: #ff7f0e; fill-opacity: 0.7; stroke: #ffffff; stroke-opacity: 0.7; stroke-width: 0.5"/>
     <use xlink:href="#m31e82dad3d" x="162.496596" y="428.700547" style="fill: #ff7f0e; fill-opacity: 0.7; stroke: #ffffff; stroke-opacity: 0.7; stroke-width: 0.5"/>
     <use xlink:href="#m31e82dad3d" x="246.636173" y="476.824504" style="fill: #ff7f0e; fill-opacity: 0.7; stroke: #ffffff; stroke-opacity: 0.7; stroke-width: 0.5"/>
     <use xlink:href="#m31e82dad3d" x="141.920071" y="558.39619" style="fill: #ff7f0e; fill-opacity: 0.7; stroke: #ffffff; stroke-opacity: 0.7; stroke-width: 0.5"/>
     <use xlink:href="#m31e82dad3d" x="207.236961" y="492.328309" style="fill: #ff7f0e; fill-opacity: 0.7; stroke: #ffffff; stroke-opacity: 0.7; stroke-width: 0.5"/>
     <use xlink:href="#m31e82dad3d" x="99.725603" y="528.735653" style="fill: #ff7f0e; fill-opacity: 0.7; stroke: #ffffff; stroke-opacity: 0.7; stroke-width: 0.5"/>
     <use xlink:href="#m31e82dad3d" x="207.866241" y="472.831923" style="fill: #ff7f0e; fill-opacity: 0.7; stroke: #ffffff; stroke-opacity: 0.7; stroke-width: 0.5"/>
     <use xlink:href="#m31e82dad3d" x="281.629144" y="484.904561" style="fill: #ff7f0e; fill-opacity: 0.7; stroke: #ffffff; stroke-opacity: 0.7; stroke-width: 0.5"/>
     <use xlink:href="#m31e82dad3d" x="203.523122" y="427.75783" style="fill: #ff7f0e; fill-opacity: 0.7; stroke: #ffffff; stroke-opacity: 0.7; stroke-width: 0.5"/>
     <use xlink:href="#m31e82dad3d" x="272.030296" y="462.84131" style="fill: #ff7f0e; fill-opacity: 0.7; stroke: #ffffff; stroke-opacity: 0.7; stroke-width: 0.5"/>
     <use xlink:href="#m31e82dad3d" x="116.152878" y="544.710225" style="fill: #ff7f0e; fill-opacity: 0.7; stroke: #ffffff; stroke-opacity: 0.7; stroke-width: 0.5"/>
     <use xlink:href="#m31e82dad3d" x="94.977946" y="545.972478" style="fill: #ff7f0e; fill-opacity: 0.7; stroke: #ffffff; stroke-opacity: 0.7; stroke-width: 0.5"/>
     <use xlink:href="#m31e82dad3d" x="155.098101" y="437.69481" style="fill: #ff7f0e; fill-opacity: 0.7; stroke: #ffffff; stroke-opacity: 0.7; stroke-width: 0.5"/>
     <use xlink:href="#m31e82dad3d" x="168.022673" y="443.864363" style="fill: #ff7f0e; fill-opacity: 0.7; stroke: #ffffff; stroke-opacity: 0.7; stroke-width: 0.5"/>
     <use xlink:href="#m31e82dad3d" x="262.2545" y="436.460857" style="fill: #ff7f0e; fill-opacity: 0.7; stroke: #ffffff; stroke-opacity: 0.7; stroke-width: 0.5"/>
     <use xlink:href="#m31e82dad3d" x="207.170837" y="404.308262" style="fill: #ff7f0e; fill-opacity: 0.7; stroke: #ffffff; stroke-opacity: 0.7; stroke-width: 0.5"/>
     <use xlink:href="#m31e82dad3d" x="255.856071" y="443.978898" style="fill: #ff7f0e; fill-opacity: 0.7; stroke: #ffffff; stroke-opacity: 0.7; stroke-width: 0.5"/>
     <use xlink:href="#m31e82dad3d" x="270.801827" y="426.557707" style="fill: #ff7f0e; fill-opacity: 0.7; stroke: #ffffff; stroke-opacity: 0.7; stroke-width: 0.5"/>
     <use xlink:href="#m31e82dad3d" x="287.115277" y="451.044349" style="fill: #ff7f0e; fill-opacity: 0.7; stroke: #ffffff; stroke-opacity: 0.7; stroke-width: 0.5"/>
     <use xlink:href="#m31e82dad3d" x="336.429228" y="418.766097" style="fill: #ff7f0e; fill-opacity: 0.7; stroke: #ffffff; stroke-opacity: 0.7; stroke-width: 0.5"/>
     <use xlink:href="#m31e82dad3d" x="113.33629" y="509.633009" style="fill: #ff7f0e; fill-opacity: 0.7; stroke: #ffffff; stroke-opacity: 0.7; stroke-width: 0.5"/>
     <use xlink:href="#m31e82dad3d" x="148.407991" y="498.995518" style="fill: #ff7f0e; fill-opacity: 0.7; stroke: #ffffff; stroke-opacity: 0.7; stroke-width: 0.5"/>
     <use xlink:href="#m31e82dad3d" x="126.183008" y="541.039119" style="fill: #ff7f0e; fill-opacity: 0.7; stroke: #ffffff; stroke-opacity: 0.7; stroke-width: 0.5"/>
     <use xlink:href="#m31e82dad3d" x="141.741153" y="473.54961" style="fill: #ff7f0e; fill-opacity: 0.7; stroke: #ffffff; stroke-opacity: 0.7; stroke-width: 0.5"/>
    </g>
   </g>
   <g id="patch_5">
    <path d="M 357.9046 410.41406 
L 209.257449 393.78755 
L 157.882073 421.838677 
L 149.373803 432.18208 
L 85.69543 536.879049 
L 80.235625 556.701398 
L 134.219069 570.988667 
L 294.884503 486.473293 
z
" clip-path="url(#pd86d6581ae)" style="fill: #ff7f0e; opacity: 0.05"/>
   </g>
   <g id="matplotlib.axis_1">
    <g id="xtick_1">
     <g id="line2d_1">
      <path d="M 150.849664 673.917812 
L 150.849664 37.837812 
" clip-path="url(#pd86d6581ae)" style="fill: none; stroke: #4a4a3d; stroke-opacity: 0.1; stroke-width: 0.8; stroke-linecap: square"/>
     </g>
     <g id="line2d_2">
      <defs>
       <path id="m88dfd4008d" d="M 0 0 
L 0 3.5 
" style="stroke: #666666; stroke-width: 0.8"/>
      </defs>
      <g>
       <use xlink:href="#m88dfd4008d" x="150.849664" y="673.917812" style="fill: #666666; stroke: #666666; stroke-width: 0.8"/>
      </g>
     </g>
     <g id="text_1">
      <!-- −4 -->
      <g style="fill: #666666" transform="translate(143.47857 688.51625) scale(0.1 -0.1)">
       <defs>
        <path id="DejaVuSans-2212" d="M 678 2272 
L 4684 2272 
L 4684 1741 
L 678 1741 
L 678 2272 
z
" transform="scale(0.015625)"/>
        <path id="DejaVuSans-34" d="M 2419 4116 
L 825 1625 
L 2419 1625 
L 2419 4116 
z
M 2253 4666 
L 3047 4666 
L 3047 1625 
L 3713 1625 
L 3713 1100 
L 3047 1100 
L 3047 0 
L 2419 0 
L 2419 1100 
L 313 1100 
L 313 1709 
L 2253 4666 
z
" transform="scale(0.015625)"/>
       </defs>
       <use xlink:href="#DejaVuSans-2212"/>
       <use xlink:href="#DejaVuSans-34" transform="translate(83.789062 0)"/>
      </g>
     </g>
    </g>
    <g id="xtick_2">
     <g id="line2d_3">
      <path d="M 282.045161 673.917812 
L 282.045161 37.837812 
" clip-path="url(#pd86d6581ae)" style="fill: none; stroke: #4a4a3d; stroke-opacity: 0.1; stroke-width: 0.8; stroke-linecap: square"/>
     </g>
     <g id="line2d_4">
      <g>
       <use xlink:href="#m88dfd4008d" x="282.045161" y="673.917812" style="fill: #666666; stroke: #666666; stroke-width: 0.8"/>
      </g>
     </g>
     <g id="text_2">
      <!-- −3 -->
      <g style="fill: #666666" transform="translate(274.674067 688.51625) scale(0.1 -0.1)">
       <defs>
        <path id="DejaVuSans-33" d="M 2597 2516 
Q 3050 2419 3304 2112 
Q 3559 1806 3559 1356 
Q 3559 666 3084 287 
Q 2609 -91 1734 -91 
Q 1441 -91 1130 -33 
Q 819 25 488 141 
L 488 750 
Q 750 597 1062 519 
Q 1375 441 1716 441 
Q 2309 441 2620 675 
Q 2931 909 2931 1356 
Q 2931 1769 2642 2001 
Q 2353 2234 1838 2234 
L 1294 2234 
L 1294 2753 
L 1863 2753 
Q 2328 2753 2575 2939 
Q 2822 3125 2822 3475 
Q 2822 3834 2567 4026 
Q 2313 4219 1838 4219 
Q 1578 4219 1281 4162 
Q 984 4106 628 3988 
L 628 4550 
Q 988 4650 1302 4700 
Q 1616 4750 1894 4750 
Q 2613 4750 3031 4423 
Q 3450 4097 3450 3541 
Q 3450 3153 3228 2886 
Q 3006 2619 2597 2516 
z
" transform="scale(0.015625)"/>
       </defs>
       <use xlink:href="#DejaVuSans-2212"/>
       <use xlink:href="#DejaVuSans-33" transform="translate(83.789062 0)"/>
      </g>
     </g>
    </g>
    <g id="xtick_3">
     <g id="line2d_5">
      <path d="M 413.240657 673.917812 
L 413.240657 37.837812 
" clip-path="url(#pd86d6581ae)" style="fill: none; stroke: #4a4a3d; stroke-opacity: 0.1; stroke-width: 0.8; stroke-linecap: square"/>
     </g>
     <g id="line2d_6">
      <g>
       <use xlink:href="#m88dfd4008d" x="413.240657" y="673.917812" style="fill: #666666; stroke: #666666; stroke-width: 0.8"/>
      </g>
     </g>
     <g id="text_3">
      <!-- −2 -->
      <g style="fill: #666666" transform="translate(405.869564 688.51625) scale(0.1 -0.1)">
       <defs>
        <path id="DejaVuSans-32" d="M 1228 531 
L 3431 531 
L 3431 0 
L 469 0 
L 469 531 
Q 828 903 1448 1529 
Q 2069 2156 2228 2338 
Q 2531 2678 2651 2914 
Q 2772 3150 2772 3378 
Q 2772 3750 2511 3984 
Q 2250 4219 1831 4219 
Q 1534 4219 1204 4116 
Q 875 4013 500 3803 
L 500 4441 
Q 881 4594 1212 4672 
Q 1544 4750 1819 4750 
Q 2544 4750 2975 4387 
Q 3406 4025 3406 3419 
Q 3406 3131 3298 2873 
Q 3191 2616 2906 2266 
Q 2828 2175 2409 1742 
Q 1991 1309 1228 531 
z
" transform="scale(0.015625)"/>
       </defs>
       <use xlink:href="#DejaVuSans-2212"/>
       <use xlink:href="#DejaVuSans-32" transform="translate(83.789062 0)"/>
      </g>
     </g>
    </g>
    <g id="xtick_4">
     <g id="line2d_7">
      <path d="M 544.436154 673.917812 
L 544.436154 37.837812 
" clip-path="url(#pd86d6581ae)" style="fill: none; stroke: #4a4a3d; stroke-opacity: 0.1; stroke-width: 0.8; stroke-linecap: square"/>
     </g>
     <g id="line2d_8">
      <g>
       <use xlink:href="#m88dfd4008d" x="544.436154" y="673.917812" style="fill: #666666; stroke: #666666; stroke-width: 0.8"/>
      </g>
     </g>
     <g id="text_4">
      <!-- −1 -->
      <g style="fill: #666666" transform="translate(537.06506 688.51625) scale(0.1 -0.1)">
       <defs>
        <path id="DejaVuSans-31" d="M 794 531 
L 1825 531 
L 1825 4091 
L 703 3866 
L 703 4441 
L 1819 4666 
L 2450 4666 
L 2450 531 
L 3481 531 
L 3481 0 
L 794 0 
L 794 531 
z
" transform="scale(0.015625)"/>
       </defs>
       <use xlink:href="#DejaVuSans-2212"/>
       <use xlink:href="#DejaVuSans-31" transform="translate(83.789062 0)"/>
      </g>
     </g>
    </g>
    <g id="xtick_5">
     <g id="line2d_9">
      <path d="M 675.631651 673.917812 
L 675.631651 37.837812 
" clip-path="url(#pd86d6581ae)" style="fill: none; stroke: #4a4a3d; stroke-opacity: 0.1; stroke-width: 0.8; stroke-linecap: square"/>
     </g>
     <g id="line2d_10">
      <g>
       <use xlink:href="#m88dfd4008d" x="675.631651" y="673.917812" style="fill: #666666; stroke: #666666; stroke-width: 0.8"/>
      </g>
     </g>
     <g id="text_5">
      <!-- 0 -->
      <g style="fill: #666666" transform="translate(672.450401 688.51625) scale(0.1 -0.1)">
       <defs>
        <path id="DejaVuSans-30" d="M 2034 4250 
Q 1547 4250 1301 3770 
Q 1056 3291 1056 2328 
Q 1056 1369 1301 889 
Q 1547 409 2034 409 
Q 2525 409 2770 889 
Q 3016 1369 3016 2328 
Q 3016 3291 2770 3770 
Q 2525 4250 2034 4250 
z
M 2034 4750 
Q 2819 4750 3233 4129 
Q 3647 3509 3647 2328 
Q 3647 1150 3233 529 
Q 2819 -91 2034 -91 
Q 1250 -91 836 529 
Q 422 1150 422 2328 
Q 422 3509 836 4129 
Q 1250 4750 2034 4750 
z
" transform="scale(0.015625)"/>
       </defs>
       <use xlink:href="#DejaVuSans-30"/>
      </g>
     </g>
    </g>
    <g id="xtick_6">
     <g id="line2d_11">
      <path d="M 806.827147 673.917812 
L 806.827147 37.837812 
" clip-path="url(#pd86d6581ae)" style="fill: none; stroke: #4a4a3d; stroke-opacity: 0.1; stroke-width: 0.8; stroke-linecap: square"/>
     </g>
     <g id="line2d_12">
      <g>
       <use xlink:href="#m88dfd4008d" x="806.827147" y="673.917812" style="fill: #666666; stroke: #666666; stroke-width: 0.8"/>
      </g>
     </g>
     <g id="text_6">
      <!-- 1 -->
      <g style="fill: #666666" transform="translate(803.645897 688.51625) scale(0.1 -0.1)">
       <use xlink:href="#DejaVuSans-31"/>
      </g>
     </g>
    </g>
    <g id="text_7">
     <!-- Dimension 1 -->
     <g style="fill: #c5c5b0" transform="translate(412.229062 702.954219) scale(0.11 -0.11)">
      <defs>
       <path id="DejaVuSans-44" d="M 1259 4147 
L 1259 519 
L 2022 519 
Q 2988 519 3436 956 
Q 3884 1394 3884 2338 
Q 3884 3275 3436 3711 
Q 2988 4147 2022 4147 
L 1259 4147 
z
M 628 4666 
L 1925 4666 
Q 3281 4666 3915 4102 
Q 4550 3538 4550 2338 
Q 4550 1131 3912 565 
Q 3275 0 1925 0 
L 628 0 
L 628 4666 
z
" transform="scale(0.015625)"/>
       <path id="DejaVuSans-69" d="M 603 3500 
L 1178 3500 
L 1178 0 
L 603 0 
L 603 3500 
z
M 603 4863 
L 1178 4863 
L 1178 4134 
L 603 4134 
L 603 4863 
z
" transform="scale(0.015625)"/>
       <path id="DejaVuSans-6d" d="M 3328 2828 
Q 3544 3216 3844 3400 
Q 4144 3584 4550 3584 
Q 5097 3584 5394 3201 
Q 5691 2819 5691 2113 
L 5691 0 
L 5113 0 
L 5113 2094 
Q 5113 2597 4934 2840 
Q 4756 3084 4391 3084 
Q 3944 3084 3684 2787 
Q 3425 2491 3425 1978 
L 3425 0 
L 2847 0 
L 2847 2094 
Q 2847 2600 2669 2842 
Q 2491 3084 2119 3084 
Q 1678 3084 1418 2786 
Q 1159 2488 1159 1978 
L 1159 0 
L 581 0 
L 581 3500 
L 1159 3500 
L 1159 2956 
Q 1356 3278 1631 3431 
Q 1906 3584 2284 3584 
Q 2666 3584 2933 3390 
Q 3200 3197 3328 2828 
z
" transform="scale(0.015625)"/>
       <path id="DejaVuSans-65" d="M 3597 1894 
L 3597 1613 
L 953 1613 
Q 991 1019 1311 708 
Q 1631 397 2203 397 
Q 2534 397 2845 478 
Q 3156 559 3463 722 
L 3463 178 
Q 3153 47 2828 -22 
Q 2503 -91 2169 -91 
Q 1331 -91 842 396 
Q 353 884 353 1716 
Q 353 2575 817 3079 
Q 1281 3584 2069 3584 
Q 2775 3584 3186 3129 
Q 3597 2675 3597 1894 
z
M 3022 2063 
Q 3016 2534 2758 2815 
Q 2500 3097 2075 3097 
Q 1594 3097 1305 2825 
Q 1016 2553 972 2059 
L 3022 2063 
z
" transform="scale(0.015625)"/>
       <path id="DejaVuSans-6e" d="M 3513 2113 
L 3513 0 
L 2938 0 
L 2938 2094 
Q 2938 2591 2744 2837 
Q 2550 3084 2163 3084 
Q 1697 3084 1428 2787 
Q 1159 2491 1159 1978 
L 1159 0 
L 581 0 
L 581 3500 
L 1159 3500 
L 1159 2956 
Q 1366 3272 1645 3428 
Q 1925 3584 2291 3584 
Q 2894 3584 3203 3211 
Q 3513 2838 3513 2113 
z
" transform="scale(0.015625)"/>
       <path id="DejaVuSans-73" d="M 2834 3397 
L 2834 2853 
Q 2591 2978 2328 3040 
Q 2066 3103 1784 3103 
Q 1356 3103 1142 2972 
Q 928 2841 928 2578 
Q 928 2378 1081 2264 
Q 1234 2150 1697 2047 
L 1894 2003 
Q 2506 1872 2764 1633 
Q 3022 1394 3022 966 
Q 3022 478 2636 193 
Q 2250 -91 1575 -91 
Q 1294 -91 989 -36 
Q 684 19 347 128 
L 347 722 
Q 666 556 975 473 
Q 1284 391 1588 391 
Q 1994 391 2212 530 
Q 2431 669 2431 922 
Q 2431 1156 2273 1281 
Q 2116 1406 1581 1522 
L 1381 1569 
Q 847 1681 609 1914 
Q 372 2147 372 2553 
Q 372 3047 722 3315 
Q 1072 3584 1716 3584 
Q 2034 3584 2315 3537 
Q 2597 3491 2834 3397 
z
" transform="scale(0.015625)"/>
       <path id="DejaVuSans-6f" d="M 1959 3097 
Q 1497 3097 1228 2736 
Q 959 2375 959 1747 
Q 959 1119 1226 758 
Q 1494 397 1959 397 
Q 2419 397 2687 759 
Q 2956 1122 2956 1747 
Q 2956 2369 2687 2733 
Q 2419 3097 1959 3097 
z
M 1959 3584 
Q 2709 3584 3137 3096 
Q 3566 2609 3566 1747 
Q 3566 888 3137 398 
Q 2709 -91 1959 -91 
Q 1206 -91 779 398 
Q 353 888 353 1747 
Q 353 2609 779 3096 
Q 1206 3584 1959 3584 
z
" transform="scale(0.015625)"/>
       <path id="DejaVuSans-20" transform="scale(0.015625)"/>
      </defs>
      <use xlink:href="#DejaVuSans-44"/>
      <use xlink:href="#DejaVuSans-69" transform="translate(77.001953 0)"/>
      <use xlink:href="#DejaVuSans-6d" transform="translate(104.785156 0)"/>
      <use xlink:href="#DejaVuSans-65" transform="translate(202.197266 0)"/>
      <use xlink:href="#DejaVuSans-6e" transform="translate(263.720703 0)"/>
      <use xlink:href="#DejaVuSans-73" transform="translate(327.099609 0)"/>
      <use xlink:href="#DejaVuSans-69" transform="translate(379.199219 0)"/>
      <use xlink:href="#DejaVuSans-6f" transform="translate(406.982422 0)"/>
      <use xlink:href="#DejaVuSans-6e" transform="translate(468.164062 0)"/>
      <use xlink:href="#DejaVuSans-20" transform="translate(531.542969 0)"/>
      <use xlink:href="#DejaVuSans-31" transform="translate(563.330078 0)"/>
     </g>
    </g>
   </g>
   <g id="matplotlib.axis_2">
    <g id="ytick_1">
     <g id="line2d_13">
      <path d="M 43.588125 592.768188 
L 849.833125 592.768188 
" clip-path="url(#pd86d6581ae)" style="fill: none; stroke: #4a4a3d; stroke-opacity: 0.1; stroke-width: 0.8; stroke-linecap: square"/>
     </g>
     <g id="line2d_14">
      <defs>
       <path id="m9a39081e82" d="M 0 0 
L -3.5 0 
" style="stroke: #666666; stroke-width: 0.8"/>
      </defs>
      <g>
       <use xlink:href="#m9a39081e82" x="43.588125" y="592.768188" style="fill: #666666; stroke: #666666; stroke-width: 0.8"/>
      </g>
     </g>
     <g id="text_8">
      <!-- −2 -->
      <g style="fill: #666666" transform="translate(21.845938 596.567406) scale(0.1 -0.1)">
       <use xlink:href="#DejaVuSans-2212"/>
       <use xlink:href="#DejaVuSans-32" transform="translate(83.789062 0)"/>
      </g>
     </g>
    </g>
    <g id="ytick_2">
     <g id="line2d_15">
      <path d="M 43.588125 468.816064 
L 849.833125 468.816064 
" clip-path="url(#pd86d6581ae)" style="fill: none; stroke: #4a4a3d; stroke-opacity: 0.1; stroke-width: 0.8; stroke-linecap: square"/>
     </g>
     <g id="line2d_16">
      <g>
       <use xlink:href="#m9a39081e82" x="43.588125" y="468.816064" style="fill: #666666; stroke: #666666; stroke-width: 0.8"/>
      </g>
     </g>
     <g id="text_9">
      <!-- 0 -->
      <g style="fill: #666666" transform="translate(30.225625 472.615282) scale(0.1 -0.1)">
       <use xlink:href="#DejaVuSans-30"/>
      </g>
     </g>
    </g>
    <g id="ytick_3">
     <g id="line2d_17">
      <path d="M 43.588125 344.86394 
L 849.833125 344.86394 
" clip-path="url(#pd86d6581ae)" style="fill: none; stroke: #4a4a3d; stroke-opacity: 0.1; stroke-width: 0.8; stroke-linecap: square"/>
     </g>
     <g id="line2d_18">
      <g>
       <use xlink:href="#m9a39081e82" x="43.588125" y="344.86394" style="fill: #666666; stroke: #666666; stroke-width: 0.8"/>
      </g>
     </g>
     <g id="text_10">
      <!-- 2 -->
      <g style="fill: #666666" transform="translate(30.225625 348.663159) scale(0.1 -0.1)">
       <use xlink:href="#DejaVuSans-32"/>
      </g>
     </g>
    </g>
    <g id="ytick_4">
     <g id="line2d_19">
      <path d="M 43.588125 220.911816 
L 849.833125 220.911816 
" clip-path="url(#pd86d6581ae)" style="fill: none; stroke: #4a4a3d; stroke-opacity: 0.1; stroke-width: 0.8; stroke-linecap: square"/>
     </g>
     <g id="line2d_20">
      <g>
       <use xlink:href="#m9a39081e82" x="43.588125" y="220.911816" style="fill: #666666; stroke: #666666; stroke-width: 0.8"/>
      </g>
     </g>
     <g id="text_11">
      <!-- 4 -->
      <g style="fill: #666666" transform="translate(30.225625 224.711035) scale(0.1 -0.1)">
       <use xlink:href="#DejaVuSans-34"/>
      </g>
     </g>
    </g>
    <g id="ytick_5">
     <g id="line2d_21">
      <path d="M 43.588125 96.959692 
L 849.833125 96.959692 
" clip-path="url(#pd86d6581ae)" style="fill: none; stroke: #4a4a3d; stroke-opacity: 0.1; stroke-width: 0.8; stroke-linecap: square"/>
     </g>
     <g id="line2d_22">
      <g>
       <use xlink:href="#m9a39081e82" x="43.588125" y="96.959692" style="fill: #666666; stroke: #666666; stroke-width: 0.8"/>
      </g>
     </g>
     <g id="text_12">
      <!-- 6 -->
      <g style="fill: #666666" transform="translate(30.225625 100.758911) scale(0.1 -0.1)">
       <defs>
        <path id="DejaVuSans-36" d="M 2113 2584 
Q 1688 2584 1439 2293 
Q 1191 2003 1191 1497 
Q 1191 994 1439 701 
Q 1688 409 2113 409 
Q 2538 409 2786 701 
Q 3034 994 3034 1497 
Q 3034 2003 2786 2293 
Q 2538 2584 2113 2584 
z
M 3366 4563 
L 3366 3988 
Q 3128 4100 2886 4159 
Q 2644 4219 2406 4219 
Q 1781 4219 1451 3797 
Q 1122 3375 1075 2522 
Q 1259 2794 1537 2939 
Q 1816 3084 2150 3084 
Q 2853 3084 3261 2657 
Q 3669 2231 3669 1497 
Q 3669 778 3244 343 
Q 2819 -91 2113 -91 
Q 1303 -91 875 529 
Q 447 1150 447 2328 
Q 447 3434 972 4092 
Q 1497 4750 2381 4750 
Q 2619 4750 2861 4703 
Q 3103 4656 3366 4563 
z
" transform="scale(0.015625)"/>
       </defs>
       <use xlink:href="#DejaVuSans-36"/>
      </g>
     </g>
    </g>
    <g id="text_13">
     <!-- Dimension 2 -->
     <g style="fill: #c5c5b0" transform="translate(15.558281 390.359375) rotate(-90) scale(0.11 -0.11)">
      <use xlink:href="#DejaVuSans-44"/>
      <use xlink:href="#DejaVuSans-69" transform="translate(77.001953 0)"/>
      <use xlink:href="#DejaVuSans-6d" transform="translate(104.785156 0)"/>
      <use xlink:href="#DejaVuSans-65" transform="translate(202.197266 0)"/>
      <use xlink:href="#DejaVuSans-6e" transform="translate(263.720703 0)"/>
      <use xlink:href="#DejaVuSans-73" transform="translate(327.099609 0)"/>
      <use xlink:href="#DejaVuSans-69" transform="translate(379.199219 0)"/>
      <use xlink:href="#DejaVuSans-6f" transform="translate(406.982422 0)"/>
      <use xlink:href="#DejaVuSans-6e" transform="translate(468.164062 0)"/>
      <use xlink:href="#DejaVuSans-20" transform="translate(531.542969 0)"/>
      <use xlink:href="#DejaVuSans-32" transform="translate(563.330078 0)"/>
     </g>
    </g>
   </g>
   <g id="line2d_23">
    <path d="M 710.463915 434.761515 
L 813.185625 236.242391 
" clip-path="url(#pd86d6581ae)" style="fill: none; stroke: #1f77b4; stroke-opacity: 0.3; stroke-width: 2; stroke-linecap: square"/>
   </g>
   <g id="line2d_24">
    <path d="M 562.608328 335.348704 
L 544.807729 230.987337 
" clip-path="url(#pd86d6581ae)" style="fill: none; stroke: #1f77b4; stroke-opacity: 0.3; stroke-width: 2; stroke-linecap: square"/>
   </g>
   <g id="line2d_25">
    <path d="M 562.608328 335.348704 
L 710.463915 434.761515 
" clip-path="url(#pd86d6581ae)" style="fill: none; stroke: #1f77b4; stroke-opacity: 0.3; stroke-width: 2; stroke-linecap: square"/>
   </g>
   <g id="line2d_26">
    <path d="M 549.121181 144.371409 
L 554.293233 117.462172 
" clip-path="url(#pd86d6581ae)" style="fill: none; stroke: #1f77b4; stroke-opacity: 0.3; stroke-width: 2; stroke-linecap: square"/>
   </g>
   <g id="line2d_27">
    <path d="M 594.29013 87.992275 
L 623.480305 66.75054 
" clip-path="url(#pd86d6581ae)" style="fill: none; stroke: #1f77b4; stroke-opacity: 0.3; stroke-width: 2; stroke-linecap: square"/>
   </g>
   <g id="line2d_28">
    <path d="M 594.29013 87.992275 
L 554.293233 117.462172 
" clip-path="url(#pd86d6581ae)" style="fill: none; stroke: #1f77b4; stroke-opacity: 0.3; stroke-width: 2; stroke-linecap: square"/>
   </g>
   <g id="line2d_29">
    <path d="M 790.31471 122.104845 
L 813.185625 236.242391 
" clip-path="url(#pd86d6581ae)" style="fill: none; stroke: #1f77b4; stroke-opacity: 0.3; stroke-width: 2; stroke-linecap: square"/>
   </g>
   <g id="line2d_30">
    <path d="M 790.31471 122.104845 
L 771.168243 84.313665 
" clip-path="url(#pd86d6581ae)" style="fill: none; stroke: #1f77b4; stroke-opacity: 0.3; stroke-width: 2; stroke-linecap: square"/>
   </g>
   <g id="line2d_31">
    <path d="M 666.52253 68.109988 
L 623.480305 66.75054 
" clip-path="url(#pd86d6581ae)" style="fill: none; stroke: #1f77b4; stroke-opacity: 0.3; stroke-width: 2; stroke-linecap: square"/>
   </g>
   <g id="line2d_32">
    <path d="M 666.52253 68.109988 
L 771.168243 84.313665 
" clip-path="url(#pd86d6581ae)" style="fill: none; stroke: #1f77b4; stroke-opacity: 0.3; stroke-width: 2; stroke-linecap: square"/>
   </g>
   <g id="line2d_33">
    <path d="M 545.016444 217.147222 
L 544.807729 230.987337 
" clip-path="url(#pd86d6581ae)" style="fill: none; stroke: #1f77b4; stroke-opacity: 0.3; stroke-width: 2; stroke-linecap: square"/>
   </g>
   <g id="line2d_34">
    <path d="M 545.016444 217.147222 
L 549.121181 144.371409 
" clip-path="url(#pd86d6581ae)" style="fill: none; stroke: #1f77b4; stroke-opacity: 0.3; stroke-width: 2; stroke-linecap: square"/>
   </g>
   <g id="line2d_35">
    <path d="M 425.471758 452.529304 
L 404.739089 609.313589 
" clip-path="url(#pd86d6581ae)" style="fill: none; stroke: #aec7e8; stroke-opacity: 0.3; stroke-width: 2; stroke-linecap: square"/>
   </g>
   <g id="line2d_36">
    <path d="M 425.471758 452.529304 
L 545.18378 402.242049 
" clip-path="url(#pd86d6581ae)" style="fill: none; stroke: #aec7e8; stroke-opacity: 0.3; stroke-width: 2; stroke-linecap: square"/>
   </g>
   <g id="line2d_37">
    <path d="M 736.452106 452.493152 
L 758.528665 471.717439 
" clip-path="url(#pd86d6581ae)" style="fill: none; stroke: #aec7e8; stroke-opacity: 0.3; stroke-width: 2; stroke-linecap: square"/>
   </g>
   <g id="line2d_38">
    <path d="M 736.452106 452.493152 
L 545.18378 402.242049 
" clip-path="url(#pd86d6581ae)" style="fill: none; stroke: #aec7e8; stroke-opacity: 0.3; stroke-width: 2; stroke-linecap: square"/>
   </g>
   <g id="line2d_39">
    <path d="M 467.915841 640.251604 
L 535.442088 645.005085 
" clip-path="url(#pd86d6581ae)" style="fill: none; stroke: #aec7e8; stroke-opacity: 0.3; stroke-width: 2; stroke-linecap: square"/>
   </g>
   <g id="line2d_40">
    <path d="M 574.536698 621.67048 
L 758.528665 471.717439 
" clip-path="url(#pd86d6581ae)" style="fill: none; stroke: #aec7e8; stroke-opacity: 0.3; stroke-width: 2; stroke-linecap: square"/>
   </g>
   <g id="line2d_41">
    <path d="M 574.536698 621.67048 
L 535.442088 645.005085 
" clip-path="url(#pd86d6581ae)" style="fill: none; stroke: #aec7e8; stroke-opacity: 0.3; stroke-width: 2; stroke-linecap: square"/>
   </g>
   <g id="line2d_42">
    <path d="M 408.085433 612.57022 
L 404.739089 609.313589 
" clip-path="url(#pd86d6581ae)" style="fill: none; stroke: #aec7e8; stroke-opacity: 0.3; stroke-width: 2; stroke-linecap: square"/>
   </g>
   <g id="line2d_43">
    <path d="M 408.085433 612.57022 
L 467.915841 640.251604 
" clip-path="url(#pd86d6581ae)" style="fill: none; stroke: #aec7e8; stroke-opacity: 0.3; stroke-width: 2; stroke-linecap: square"/>
   </g>
   <g id="line2d_44">
    <path d="M 209.257449 393.78755 
L 357.9046 410.41406 
" clip-path="url(#pd86d6581ae)" style="fill: none; stroke: #ff7f0e; stroke-opacity: 0.3; stroke-width: 2; stroke-linecap: square"/>
   </g>
   <g id="line2d_45">
    <path d="M 294.884503 486.473293 
L 357.9046 410.41406 
" clip-path="url(#pd86d6581ae)" style="fill: none; stroke: #ff7f0e; stroke-opacity: 0.3; stroke-width: 2; stroke-linecap: square"/>
   </g>
   <g id="line2d_46">
    <path d="M 134.219069 570.988667 
L 80.235625 556.701398 
" clip-path="url(#pd86d6581ae)" style="fill: none; stroke: #ff7f0e; stroke-opacity: 0.3; stroke-width: 2; stroke-linecap: square"/>
   </g>
   <g id="line2d_47">
    <path d="M 134.219069 570.988667 
L 294.884503 486.473293 
" clip-path="url(#pd86d6581ae)" style="fill: none; stroke: #ff7f0e; stroke-opacity: 0.3; stroke-width: 2; stroke-linecap: square"/>
   </g>
   <g id="line2d_48">
    <path d="M 85.69543 536.879049 
L 80.235625 556.701398 
" clip-path="url(#pd86d6581ae)" style="fill: none; stroke: #ff7f0e; stroke-opacity: 0.3; stroke-width: 2; stroke-linecap: square"/>
   </g>
   <g id="line2d_49">
    <path d="M 85.69543 536.879049 
L 149.373803 432.18208 
" clip-path="url(#pd86d6581ae)" style="fill: none; stroke: #ff7f0e; stroke-opacity: 0.3; stroke-width: 2; stroke-linecap: square"/>
   </g>
   <g id="line2d_50">
    <path d="M 157.882073 421.838677 
L 209.257449 393.78755 
" clip-path="url(#pd86d6581ae)" style="fill: none; stroke: #ff7f0e; stroke-opacity: 0.3; stroke-width: 2; stroke-linecap: square"/>
   </g>
   <g id="line2d_51">
    <path d="M 157.882073 421.838677 
L 149.373803 432.18208 
" clip-path="url(#pd86d6581ae)" style="fill: none; stroke: #ff7f0e; stroke-opacity: 0.3; stroke-width: 2; stroke-linecap: square"/>
   </g>
   <g id="patch_6">
    <path d="M 43.588125 673.917812 
L 43.588125 37.837812 
" style="fill: none; stroke: #4a4a3d; stroke-width: 0.5; stroke-linejoin: miter; stroke-linecap: square"/>
   </g>
   <g id="patch_7">
    <path d="M 849.833125 673.917812 
L 849.833125 37.837812 
" style="fill: none; stroke: #4a4a3d; stroke-width: 0.5; stroke-linejoin: miter; stroke-linecap: square"/>
   </g>
   <g id="patch_8">
    <path d="M 43.588125 673.917812 
L 849.833125 673.917812 
" style="fill: none; stroke: #4a4a3d; stroke-width: 0.5; stroke-linejoin: miter; stroke-linecap: square"/>
   </g>
   <g id="patch_9">
    <path d="M 43.588125 37.837812 
L 849.833125 37.837812 
" style="fill: none; stroke: #4a4a3d; stroke-width: 0.5; stroke-linejoin: miter; stroke-linecap: square"/>
   </g>
   <g id="text_14">
    <g id="patch_10">
     <path d="M 598.2966 222.178209 
L 738.530975 222.178209 
Q 741.530975 222.178209 741.530975 219.178209 
L 741.530975 209.421959 
Q 741.530975 206.421959 738.530975 206.421959 
L 598.2966 206.421959 
Q 595.2966 206.421959 595.2966 209.421959 
L 595.2966 219.178209 
Q 595.2966 222.178209 598.2966 222.178209 
z
" style="fill: #1a1a1d; opacity: 0.7; stroke: #1f77b4; stroke-linejoin: miter"/>
    </g>
    <!-- Whiskey-Based Cocktails -->
    <g style="fill: #1f77b4; opacity: 0.8" transform="translate(598.2966 217.020396) scale(0.1 -0.1)">
     <defs>
      <path id="DejaVuSans-Bold-57" d="M 191 4666 
L 1344 4666 
L 2150 1275 
L 2950 4666 
L 4109 4666 
L 4909 1275 
L 5716 4666 
L 6859 4666 
L 5759 0 
L 4372 0 
L 3525 3547 
L 2688 0 
L 1300 0 
L 191 4666 
z
" transform="scale(0.015625)"/>
      <path id="DejaVuSans-Bold-68" d="M 4056 2131 
L 4056 0 
L 2931 0 
L 2931 347 
L 2931 1625 
Q 2931 2084 2911 2256 
Q 2891 2428 2841 2509 
Q 2775 2619 2662 2680 
Q 2550 2741 2406 2741 
Q 2056 2741 1856 2470 
Q 1656 2200 1656 1722 
L 1656 0 
L 538 0 
L 538 4863 
L 1656 4863 
L 1656 2988 
Q 1909 3294 2193 3439 
Q 2478 3584 2822 3584 
Q 3428 3584 3742 3212 
Q 4056 2841 4056 2131 
z
" transform="scale(0.015625)"/>
      <path id="DejaVuSans-Bold-69" d="M 538 3500 
L 1656 3500 
L 1656 0 
L 538 0 
L 538 3500 
z
M 538 4863 
L 1656 4863 
L 1656 3950 
L 538 3950 
L 538 4863 
z
" transform="scale(0.015625)"/>
      <path id="DejaVuSans-Bold-73" d="M 3272 3391 
L 3272 2541 
Q 2913 2691 2578 2766 
Q 2244 2841 1947 2841 
Q 1628 2841 1473 2761 
Q 1319 2681 1319 2516 
Q 1319 2381 1436 2309 
Q 1553 2238 1856 2203 
L 2053 2175 
Q 2913 2066 3209 1816 
Q 3506 1566 3506 1031 
Q 3506 472 3093 190 
Q 2681 -91 1863 -91 
Q 1516 -91 1145 -36 
Q 775 19 384 128 
L 384 978 
Q 719 816 1070 734 
Q 1422 653 1784 653 
Q 2113 653 2278 743 
Q 2444 834 2444 1013 
Q 2444 1163 2330 1236 
Q 2216 1309 1875 1350 
L 1678 1375 
Q 931 1469 631 1722 
Q 331 1975 331 2491 
Q 331 3047 712 3315 
Q 1094 3584 1881 3584 
Q 2191 3584 2531 3537 
Q 2872 3491 3272 3391 
z
" transform="scale(0.015625)"/>
      <path id="DejaVuSans-Bold-6b" d="M 538 4863 
L 1656 4863 
L 1656 2216 
L 2944 3500 
L 4244 3500 
L 2534 1894 
L 4378 0 
L 3022 0 
L 1656 1459 
L 1656 0 
L 538 0 
L 538 4863 
z
" transform="scale(0.015625)"/>
      <path id="DejaVuSans-Bold-65" d="M 4031 1759 
L 4031 1441 
L 1416 1441 
Q 1456 1047 1700 850 
Q 1944 653 2381 653 
Q 2734 653 3104 758 
Q 3475 863 3866 1075 
L 3866 213 
Q 3469 63 3072 -14 
Q 2675 -91 2278 -91 
Q 1328 -91 801 392 
Q 275 875 275 1747 
Q 275 2603 792 3093 
Q 1309 3584 2216 3584 
Q 3041 3584 3536 3087 
Q 4031 2591 4031 1759 
z
M 2881 2131 
Q 2881 2450 2695 2645 
Q 2509 2841 2209 2841 
Q 1884 2841 1681 2658 
Q 1478 2475 1428 2131 
L 2881 2131 
z
" transform="scale(0.015625)"/>
      <path id="DejaVuSans-Bold-79" d="M 78 3500 
L 1197 3500 
L 2138 1125 
L 2938 3500 
L 4056 3500 
L 2584 -331 
Q 2363 -916 2067 -1148 
Q 1772 -1381 1288 -1381 
L 641 -1381 
L 641 -647 
L 991 -647 
Q 1275 -647 1404 -556 
Q 1534 -466 1606 -231 
L 1638 -134 
L 78 3500 
z
" transform="scale(0.015625)"/>
      <path id="DejaVuSans-Bold-2d" d="M 347 2297 
L 2309 2297 
L 2309 1388 
L 347 1388 
L 347 2297 
z
" transform="scale(0.015625)"/>
      <path id="DejaVuSans-Bold-42" d="M 2456 2859 
Q 2741 2859 2887 2984 
Q 3034 3109 3034 3353 
Q 3034 3594 2887 3720 
Q 2741 3847 2456 3847 
L 1791 3847 
L 1791 2859 
L 2456 2859 
z
M 2497 819 
Q 2859 819 3042 972 
Q 3225 1125 3225 1434 
Q 3225 1738 3044 1889 
Q 2863 2041 2497 2041 
L 1791 2041 
L 1791 819 
L 2497 819 
z
M 3616 2497 
Q 4003 2384 4215 2081 
Q 4428 1778 4428 1338 
Q 4428 663 3972 331 
Q 3516 0 2584 0 
L 588 0 
L 588 4666 
L 2394 4666 
Q 3366 4666 3802 4372 
Q 4238 4078 4238 3431 
Q 4238 3091 4078 2852 
Q 3919 2613 3616 2497 
z
" transform="scale(0.015625)"/>
      <path id="DejaVuSans-Bold-61" d="M 2106 1575 
Q 1756 1575 1579 1456 
Q 1403 1338 1403 1106 
Q 1403 894 1545 773 
Q 1688 653 1941 653 
Q 2256 653 2472 879 
Q 2688 1106 2688 1447 
L 2688 1575 
L 2106 1575 
z
M 3816 1997 
L 3816 0 
L 2688 0 
L 2688 519 
Q 2463 200 2181 54 
Q 1900 -91 1497 -91 
Q 953 -91 614 226 
Q 275 544 275 1050 
Q 275 1666 698 1953 
Q 1122 2241 2028 2241 
L 2688 2241 
L 2688 2328 
Q 2688 2594 2478 2717 
Q 2269 2841 1825 2841 
Q 1466 2841 1156 2769 
Q 847 2697 581 2553 
L 581 3406 
Q 941 3494 1303 3539 
Q 1666 3584 2028 3584 
Q 2975 3584 3395 3211 
Q 3816 2838 3816 1997 
z
" transform="scale(0.015625)"/>
      <path id="DejaVuSans-Bold-64" d="M 2919 2988 
L 2919 4863 
L 4044 4863 
L 4044 0 
L 2919 0 
L 2919 506 
Q 2688 197 2409 53 
Q 2131 -91 1766 -91 
Q 1119 -91 703 423 
Q 288 938 288 1747 
Q 288 2556 703 3070 
Q 1119 3584 1766 3584 
Q 2128 3584 2408 3439 
Q 2688 3294 2919 2988 
z
M 2181 722 
Q 2541 722 2730 984 
Q 2919 1247 2919 1747 
Q 2919 2247 2730 2509 
Q 2541 2772 2181 2772 
Q 1825 2772 1636 2509 
Q 1447 2247 1447 1747 
Q 1447 1247 1636 984 
Q 1825 722 2181 722 
z
" transform="scale(0.015625)"/>
      <path id="DejaVuSans-Bold-20" transform="scale(0.015625)"/>
      <path id="DejaVuSans-Bold-43" d="M 4288 256 
Q 3956 84 3597 -3 
Q 3238 -91 2847 -91 
Q 1681 -91 1000 561 
Q 319 1213 319 2328 
Q 319 3447 1000 4098 
Q 1681 4750 2847 4750 
Q 3238 4750 3597 4662 
Q 3956 4575 4288 4403 
L 4288 3438 
Q 3953 3666 3628 3772 
Q 3303 3878 2944 3878 
Q 2300 3878 1931 3465 
Q 1563 3053 1563 2328 
Q 1563 1606 1931 1193 
Q 2300 781 2944 781 
Q 3303 781 3628 887 
Q 3953 994 4288 1222 
L 4288 256 
z
" transform="scale(0.015625)"/>
      <path id="DejaVuSans-Bold-6f" d="M 2203 2784 
Q 1831 2784 1636 2517 
Q 1441 2250 1441 1747 
Q 1441 1244 1636 976 
Q 1831 709 2203 709 
Q 2569 709 2762 976 
Q 2956 1244 2956 1747 
Q 2956 2250 2762 2517 
Q 2569 2784 2203 2784 
z
M 2203 3584 
Q 3106 3584 3614 3096 
Q 4122 2609 4122 1747 
Q 4122 884 3614 396 
Q 3106 -91 2203 -91 
Q 1297 -91 786 396 
Q 275 884 275 1747 
Q 275 2609 786 3096 
Q 1297 3584 2203 3584 
z
" transform="scale(0.015625)"/>
      <path id="DejaVuSans-Bold-63" d="M 3366 3391 
L 3366 2478 
Q 3138 2634 2908 2709 
Q 2678 2784 2431 2784 
Q 1963 2784 1702 2511 
Q 1441 2238 1441 1747 
Q 1441 1256 1702 982 
Q 1963 709 2431 709 
Q 2694 709 2930 787 
Q 3166 866 3366 1019 
L 3366 103 
Q 3103 6 2833 -42 
Q 2563 -91 2291 -91 
Q 1344 -91 809 395 
Q 275 881 275 1747 
Q 275 2613 809 3098 
Q 1344 3584 2291 3584 
Q 2566 3584 2833 3536 
Q 3100 3488 3366 3391 
z
" transform="scale(0.015625)"/>
      <path id="DejaVuSans-Bold-74" d="M 1759 4494 
L 1759 3500 
L 2913 3500 
L 2913 2700 
L 1759 2700 
L 1759 1216 
Q 1759 972 1856 886 
Q 1953 800 2241 800 
L 2816 800 
L 2816 0 
L 1856 0 
Q 1194 0 917 276 
Q 641 553 641 1216 
L 641 2700 
L 84 2700 
L 84 3500 
L 641 3500 
L 641 4494 
L 1759 4494 
z
" transform="scale(0.015625)"/>
      <path id="DejaVuSans-Bold-6c" d="M 538 4863 
L 1656 4863 
L 1656 0 
L 538 0 
L 538 4863 
z
" transform="scale(0.015625)"/>
     </defs>
     <use xlink:href="#DejaVuSans-Bold-57"/>
     <use xlink:href="#DejaVuSans-Bold-68" transform="translate(110.302734 0)"/>
     <use xlink:href="#DejaVuSans-Bold-69" transform="translate(181.494141 0)"/>
     <use xlink:href="#DejaVuSans-Bold-73" transform="translate(215.771484 0)"/>
     <use xlink:href="#DejaVuSans-Bold-6b" transform="translate(275.292969 0)"/>
     <use xlink:href="#DejaVuSans-Bold-65" transform="translate(339.171875 0)"/>
     <use xlink:href="#DejaVuSans-Bold-79" transform="translate(406.994141 0)"/>
     <use xlink:href="#DejaVuSans-Bold-2d" transform="translate(472.179688 0)"/>
     <use xlink:href="#DejaVuSans-Bold-42" transform="translate(513.683594 0)"/>
     <use xlink:href="#DejaVuSans-Bold-61" transform="translate(589.904297 0)"/>
     <use xlink:href="#DejaVuSans-Bold-73" transform="translate(657.384766 0)"/>
     <use xlink:href="#DejaVuSans-Bold-65" transform="translate(716.90625 0)"/>
     <use xlink:href="#DejaVuSans-Bold-64" transform="translate(784.728516 0)"/>
     <use xlink:href="#DejaVuSans-Bold-20" transform="translate(856.310547 0)"/>
     <use xlink:href="#DejaVuSans-Bold-43" transform="translate(891.125 0)"/>
     <use xlink:href="#DejaVuSans-Bold-6f" transform="translate(964.513672 0)"/>
     <use xlink:href="#DejaVuSans-Bold-63" transform="translate(1033.214844 0)"/>
     <use xlink:href="#DejaVuSans-Bold-6b" transform="translate(1092.492188 0)"/>
     <use xlink:href="#DejaVuSans-Bold-74" transform="translate(1158.996094 0)"/>
     <use xlink:href="#DejaVuSans-Bold-61" transform="translate(1206.798828 0)"/>
     <use xlink:href="#DejaVuSans-Bold-69" transform="translate(1274.279297 0)"/>
     <use xlink:href="#DejaVuSans-Bold-6c" transform="translate(1308.556641 0)"/>
     <use xlink:href="#DejaVuSans-Bold-73" transform="translate(1342.833984 0)"/>
    </g>
   </g>
   <g id="text_15">
    <g id="patch_11">
     <path d="M 477.118147 556.711742 
L 588.96346 556.711742 
Q 591.96346 556.711742 591.96346 553.711742 
L 591.96346 544.033617 
Q 591.96346 541.033617 588.96346 541.033617 
L 477.118147 541.033617 
Q 474.118147 541.033617 474.118147 544.033617 
L 474.118147 553.711742 
Q 474.118147 556.711742 477.118147 556.711742 
z
" style="fill: #1a1a1d; opacity: 0.7; stroke: #aec7e8; stroke-linejoin: miter"/>
    </g>
    <!-- Floral Sophisticates -->
    <g style="fill: #aec7e8; opacity: 0.8" transform="translate(477.118147 551.632055) scale(0.1 -0.1)">
     <defs>
      <path id="DejaVuSans-Bold-46" d="M 588 4666 
L 3834 4666 
L 3834 3756 
L 1791 3756 
L 1791 2888 
L 3713 2888 
L 3713 1978 
L 1791 1978 
L 1791 0 
L 588 0 
L 588 4666 
z
" transform="scale(0.015625)"/>
      <path id="DejaVuSans-Bold-72" d="M 3138 2547 
Q 2991 2616 2845 2648 
Q 2700 2681 2553 2681 
Q 2122 2681 1889 2404 
Q 1656 2128 1656 1613 
L 1656 0 
L 538 0 
L 538 3500 
L 1656 3500 
L 1656 2925 
Q 1872 3269 2151 3426 
Q 2431 3584 2822 3584 
Q 2878 3584 2943 3579 
Q 3009 3575 3134 3559 
L 3138 2547 
z
" transform="scale(0.015625)"/>
      <path id="DejaVuSans-Bold-53" d="M 3834 4519 
L 3834 3531 
Q 3450 3703 3084 3790 
Q 2719 3878 2394 3878 
Q 1963 3878 1756 3759 
Q 1550 3641 1550 3391 
Q 1550 3203 1689 3098 
Q 1828 2994 2194 2919 
L 2706 2816 
Q 3484 2659 3812 2340 
Q 4141 2022 4141 1434 
Q 4141 663 3683 286 
Q 3225 -91 2284 -91 
Q 1841 -91 1394 -6 
Q 947 78 500 244 
L 500 1259 
Q 947 1022 1364 901 
Q 1781 781 2169 781 
Q 2563 781 2772 912 
Q 2981 1044 2981 1288 
Q 2981 1506 2839 1625 
Q 2697 1744 2272 1838 
L 1806 1941 
Q 1106 2091 782 2419 
Q 459 2747 459 3303 
Q 459 4000 909 4375 
Q 1359 4750 2203 4750 
Q 2588 4750 2994 4692 
Q 3400 4634 3834 4519 
z
" transform="scale(0.015625)"/>
      <path id="DejaVuSans-Bold-70" d="M 1656 506 
L 1656 -1331 
L 538 -1331 
L 538 3500 
L 1656 3500 
L 1656 2988 
Q 1888 3294 2169 3439 
Q 2450 3584 2816 3584 
Q 3463 3584 3878 3070 
Q 4294 2556 4294 1747 
Q 4294 938 3878 423 
Q 3463 -91 2816 -91 
Q 2450 -91 2169 54 
Q 1888 200 1656 506 
z
M 2400 2772 
Q 2041 2772 1848 2508 
Q 1656 2244 1656 1747 
Q 1656 1250 1848 986 
Q 2041 722 2400 722 
Q 2759 722 2948 984 
Q 3138 1247 3138 1747 
Q 3138 2247 2948 2509 
Q 2759 2772 2400 2772 
z
" transform="scale(0.015625)"/>
     </defs>
     <use xlink:href="#DejaVuSans-Bold-46"/>
     <use xlink:href="#DejaVuSans-Bold-6c" transform="translate(68.310547 0)"/>
     <use xlink:href="#DejaVuSans-Bold-6f" transform="translate(102.587891 0)"/>
     <use xlink:href="#DejaVuSans-Bold-72" transform="translate(171.289062 0)"/>
     <use xlink:href="#DejaVuSans-Bold-61" transform="translate(220.605469 0)"/>
     <use xlink:href="#DejaVuSans-Bold-6c" transform="translate(288.085938 0)"/>
     <use xlink:href="#DejaVuSans-Bold-20" transform="translate(322.363281 0)"/>
     <use xlink:href="#DejaVuSans-Bold-53" transform="translate(357.177734 0)"/>
     <use xlink:href="#DejaVuSans-Bold-6f" transform="translate(429.199219 0)"/>
     <use xlink:href="#DejaVuSans-Bold-70" transform="translate(497.900391 0)"/>
     <use xlink:href="#DejaVuSans-Bold-68" transform="translate(569.482422 0)"/>
     <use xlink:href="#DejaVuSans-Bold-69" transform="translate(640.673828 0)"/>
     <use xlink:href="#DejaVuSans-Bold-73" transform="translate(674.951172 0)"/>
     <use xlink:href="#DejaVuSans-Bold-74" transform="translate(734.472656 0)"/>
     <use xlink:href="#DejaVuSans-Bold-69" transform="translate(782.275391 0)"/>
     <use xlink:href="#DejaVuSans-Bold-63" transform="translate(816.552734 0)"/>
     <use xlink:href="#DejaVuSans-Bold-61" transform="translate(875.830078 0)"/>
     <use xlink:href="#DejaVuSans-Bold-74" transform="translate(943.310547 0)"/>
     <use xlink:href="#DejaVuSans-Bold-65" transform="translate(991.113281 0)"/>
     <use xlink:href="#DejaVuSans-Bold-73" transform="translate(1058.935547 0)"/>
    </g>
   </g>
   <g id="text_16">
    <g id="patch_12">
     <path d="M 137.37415 482.285406 
L 249.146025 482.285406 
Q 252.146025 482.285406 252.146025 479.285406 
L 252.146025 469.607281 
Q 252.146025 466.607281 249.146025 466.607281 
L 137.37415 466.607281 
Q 134.37415 466.607281 134.37415 469.607281 
L 134.37415 479.285406 
Q 134.37415 482.285406 137.37415 482.285406 
z
" style="fill: #1a1a1d; opacity: 0.7; stroke: #ff7f0e; stroke-linejoin: miter"/>
    </g>
    <!-- Gin-Based Cocktails -->
    <g style="fill: #ff7f0e; opacity: 0.8" transform="translate(137.37415 477.205719) scale(0.1 -0.1)">
     <defs>
      <path id="DejaVuSans-Bold-47" d="M 4781 347 
Q 4331 128 3847 18 
Q 3363 -91 2847 -91 
Q 1681 -91 1000 561 
Q 319 1213 319 2328 
Q 319 3456 1012 4103 
Q 1706 4750 2913 4750 
Q 3378 4750 3804 4662 
Q 4231 4575 4609 4403 
L 4609 3438 
Q 4219 3659 3833 3768 
Q 3447 3878 3059 3878 
Q 2341 3878 1952 3476 
Q 1563 3075 1563 2328 
Q 1563 1588 1938 1184 
Q 2313 781 3003 781 
Q 3191 781 3352 804 
Q 3513 828 3641 878 
L 3641 1784 
L 2906 1784 
L 2906 2591 
L 4781 2591 
L 4781 347 
z
" transform="scale(0.015625)"/>
      <path id="DejaVuSans-Bold-6e" d="M 4056 2131 
L 4056 0 
L 2931 0 
L 2931 347 
L 2931 1631 
Q 2931 2084 2911 2256 
Q 2891 2428 2841 2509 
Q 2775 2619 2662 2680 
Q 2550 2741 2406 2741 
Q 2056 2741 1856 2470 
Q 1656 2200 1656 1722 
L 1656 0 
L 538 0 
L 538 3500 
L 1656 3500 
L 1656 2988 
Q 1909 3294 2193 3439 
Q 2478 3584 2822 3584 
Q 3428 3584 3742 3212 
Q 4056 2841 4056 2131 
z
" transform="scale(0.015625)"/>
     </defs>
     <use xlink:href="#DejaVuSans-Bold-47"/>
     <use xlink:href="#DejaVuSans-Bold-69" transform="translate(82.080078 0)"/>
     <use xlink:href="#DejaVuSans-Bold-6e" transform="translate(116.357422 0)"/>
     <use xlink:href="#DejaVuSans-Bold-2d" transform="translate(187.548828 0)"/>
     <use xlink:href="#DejaVuSans-Bold-42" transform="translate(229.052734 0)"/>
     <use xlink:href="#DejaVuSans-Bold-61" transform="translate(305.273438 0)"/>
     <use xlink:href="#DejaVuSans-Bold-73" transform="translate(372.753906 0)"/>
     <use xlink:href="#DejaVuSans-Bold-65" transform="translate(432.275391 0)"/>
     <use xlink:href="#DejaVuSans-Bold-64" transform="translate(500.097656 0)"/>
     <use xlink:href="#DejaVuSans-Bold-20" transform="translate(571.679688 0)"/>
     <use xlink:href="#DejaVuSans-Bold-43" transform="translate(606.494141 0)"/>
     <use xlink:href="#DejaVuSans-Bold-6f" transform="translate(679.882812 0)"/>
     <use xlink:href="#DejaVuSans-Bold-63" transform="translate(748.583984 0)"/>
     <use xlink:href="#DejaVuSans-Bold-6b" transform="translate(807.861328 0)"/>
     <use xlink:href="#DejaVuSans-Bold-74" transform="translate(874.365234 0)"/>
     <use xlink:href="#DejaVuSans-Bold-61" transform="translate(922.167969 0)"/>
     <use xlink:href="#DejaVuSans-Bold-69" transform="translate(989.648438 0)"/>
     <use xlink:href="#DejaVuSans-Bold-6c" transform="translate(1023.925781 0)"/>
     <use xlink:href="#DejaVuSans-Bold-73" transform="translate(1058.203125 0)"/>
    </g>
   </g>
   <g id="text_17">
    <!-- Aperol Spritz -->
    <g style="fill: #ffffff; opacity: 0.8" transform="translate(442.502503 462.095831) scale(0.08 -0.08)">
     <defs>
      <path id="DejaVuSans-41" d="M 2188 4044 
L 1331 1722 
L 3047 1722 
L 2188 4044 
z
M 1831 4666 
L 2547 4666 
L 4325 0 
L 3669 0 
L 3244 1197 
L 1141 1197 
L 716 0 
L 50 0 
L 1831 4666 
z
" transform="scale(0.015625)"/>
      <path id="DejaVuSans-70" d="M 1159 525 
L 1159 -1331 
L 581 -1331 
L 581 3500 
L 1159 3500 
L 1159 2969 
Q 1341 3281 1617 3432 
Q 1894 3584 2278 3584 
Q 2916 3584 3314 3078 
Q 3713 2572 3713 1747 
Q 3713 922 3314 415 
Q 2916 -91 2278 -91 
Q 1894 -91 1617 61 
Q 1341 213 1159 525 
z
M 3116 1747 
Q 3116 2381 2855 2742 
Q 2594 3103 2138 3103 
Q 1681 3103 1420 2742 
Q 1159 2381 1159 1747 
Q 1159 1113 1420 752 
Q 1681 391 2138 391 
Q 2594 391 2855 752 
Q 3116 1113 3116 1747 
z
" transform="scale(0.015625)"/>
      <path id="DejaVuSans-72" d="M 2631 2963 
Q 2534 3019 2420 3045 
Q 2306 3072 2169 3072 
Q 1681 3072 1420 2755 
Q 1159 2438 1159 1844 
L 1159 0 
L 581 0 
L 581 3500 
L 1159 3500 
L 1159 2956 
Q 1341 3275 1631 3429 
Q 1922 3584 2338 3584 
Q 2397 3584 2469 3576 
Q 2541 3569 2628 3553 
L 2631 2963 
z
" transform="scale(0.015625)"/>
      <path id="DejaVuSans-6c" d="M 603 4863 
L 1178 4863 
L 1178 0 
L 603 0 
L 603 4863 
z
" transform="scale(0.015625)"/>
      <path id="DejaVuSans-53" d="M 3425 4513 
L 3425 3897 
Q 3066 4069 2747 4153 
Q 2428 4238 2131 4238 
Q 1616 4238 1336 4038 
Q 1056 3838 1056 3469 
Q 1056 3159 1242 3001 
Q 1428 2844 1947 2747 
L 2328 2669 
Q 3034 2534 3370 2195 
Q 3706 1856 3706 1288 
Q 3706 609 3251 259 
Q 2797 -91 1919 -91 
Q 1588 -91 1214 -16 
Q 841 59 441 206 
L 441 856 
Q 825 641 1194 531 
Q 1563 422 1919 422 
Q 2459 422 2753 634 
Q 3047 847 3047 1241 
Q 3047 1584 2836 1778 
Q 2625 1972 2144 2069 
L 1759 2144 
Q 1053 2284 737 2584 
Q 422 2884 422 3419 
Q 422 4038 858 4394 
Q 1294 4750 2059 4750 
Q 2388 4750 2728 4690 
Q 3069 4631 3425 4513 
z
" transform="scale(0.015625)"/>
      <path id="DejaVuSans-74" d="M 1172 4494 
L 1172 3500 
L 2356 3500 
L 2356 3053 
L 1172 3053 
L 1172 1153 
Q 1172 725 1289 603 
Q 1406 481 1766 481 
L 2356 481 
L 2356 0 
L 1766 0 
Q 1100 0 847 248 
Q 594 497 594 1153 
L 594 3053 
L 172 3053 
L 172 3500 
L 594 3500 
L 594 4494 
L 1172 4494 
z
" transform="scale(0.015625)"/>
      <path id="DejaVuSans-7a" d="M 353 3500 
L 3084 3500 
L 3084 2975 
L 922 459 
L 3084 459 
L 3084 0 
L 275 0 
L 275 525 
L 2438 3041 
L 353 3041 
L 353 3500 
z
" transform="scale(0.015625)"/>
     </defs>
     <use xlink:href="#DejaVuSans-41"/>
     <use xlink:href="#DejaVuSans-70" transform="translate(68.408203 0)"/>
     <use xlink:href="#DejaVuSans-65" transform="translate(131.884766 0)"/>
     <use xlink:href="#DejaVuSans-72" transform="translate(193.408203 0)"/>
     <use xlink:href="#DejaVuSans-6f" transform="translate(232.271484 0)"/>
     <use xlink:href="#DejaVuSans-6c" transform="translate(293.453125 0)"/>
     <use xlink:href="#DejaVuSans-20" transform="translate(321.236328 0)"/>
     <use xlink:href="#DejaVuSans-53" transform="translate(353.023438 0)"/>
     <use xlink:href="#DejaVuSans-70" transform="translate(416.5 0)"/>
     <use xlink:href="#DejaVuSans-72" transform="translate(479.976562 0)"/>
     <use xlink:href="#DejaVuSans-69" transform="translate(521.089844 0)"/>
     <use xlink:href="#DejaVuSans-74" transform="translate(548.873047 0)"/>
     <use xlink:href="#DejaVuSans-7a" transform="translate(588.082031 0)"/>
    </g>
   </g>
   <g id="text_18">
    <!-- Aviation -->
    <g style="fill: #ffffff; opacity: 0.8" transform="translate(436.173389 580.922987) scale(0.08 -0.08)">
     <defs>
      <path id="DejaVuSans-76" d="M 191 3500 
L 800 3500 
L 1894 563 
L 2988 3500 
L 3597 3500 
L 2284 0 
L 1503 0 
L 191 3500 
z
" transform="scale(0.015625)"/>
      <path id="DejaVuSans-61" d="M 2194 1759 
Q 1497 1759 1228 1600 
Q 959 1441 959 1056 
Q 959 750 1161 570 
Q 1363 391 1709 391 
Q 2188 391 2477 730 
Q 2766 1069 2766 1631 
L 2766 1759 
L 2194 1759 
z
M 3341 1997 
L 3341 0 
L 2766 0 
L 2766 531 
Q 2569 213 2275 61 
Q 1981 -91 1556 -91 
Q 1019 -91 701 211 
Q 384 513 384 1019 
Q 384 1609 779 1909 
Q 1175 2209 1959 2209 
L 2766 2209 
L 2766 2266 
Q 2766 2663 2505 2880 
Q 2244 3097 1772 3097 
Q 1472 3097 1187 3025 
Q 903 2953 641 2809 
L 641 3341 
Q 956 3463 1253 3523 
Q 1550 3584 1831 3584 
Q 2591 3584 2966 3190 
Q 3341 2797 3341 1997 
z
" transform="scale(0.015625)"/>
     </defs>
     <use xlink:href="#DejaVuSans-41"/>
     <use xlink:href="#DejaVuSans-76" transform="translate(62.533203 0)"/>
     <use xlink:href="#DejaVuSans-69" transform="translate(121.712891 0)"/>
     <use xlink:href="#DejaVuSans-61" transform="translate(149.496094 0)"/>
     <use xlink:href="#DejaVuSans-74" transform="translate(210.775391 0)"/>
     <use xlink:href="#DejaVuSans-69" transform="translate(249.984375 0)"/>
     <use xlink:href="#DejaVuSans-6f" transform="translate(277.767578 0)"/>
     <use xlink:href="#DejaVuSans-6e" transform="translate(338.949219 0)"/>
    </g>
   </g>
   <g id="text_19">
    <!-- Boulevardier -->
    <g style="fill: #ffffff; opacity: 0.8" transform="translate(567.681086 150.49254) scale(0.08 -0.08)">
     <defs>
      <path id="DejaVuSans-42" d="M 1259 2228 
L 1259 519 
L 2272 519 
Q 2781 519 3026 730 
Q 3272 941 3272 1375 
Q 3272 1813 3026 2020 
Q 2781 2228 2272 2228 
L 1259 2228 
z
M 1259 4147 
L 1259 2741 
L 2194 2741 
Q 2656 2741 2882 2914 
Q 3109 3088 3109 3444 
Q 3109 3797 2882 3972 
Q 2656 4147 2194 4147 
L 1259 4147 
z
M 628 4666 
L 2241 4666 
Q 2963 4666 3353 4366 
Q 3744 4066 3744 3513 
Q 3744 3084 3544 2831 
Q 3344 2578 2956 2516 
Q 3422 2416 3680 2098 
Q 3938 1781 3938 1306 
Q 3938 681 3513 340 
Q 3088 0 2303 0 
L 628 0 
L 628 4666 
z
" transform="scale(0.015625)"/>
      <path id="DejaVuSans-75" d="M 544 1381 
L 544 3500 
L 1119 3500 
L 1119 1403 
Q 1119 906 1312 657 
Q 1506 409 1894 409 
Q 2359 409 2629 706 
Q 2900 1003 2900 1516 
L 2900 3500 
L 3475 3500 
L 3475 0 
L 2900 0 
L 2900 538 
Q 2691 219 2414 64 
Q 2138 -91 1772 -91 
Q 1169 -91 856 284 
Q 544 659 544 1381 
z
M 1991 3584 
L 1991 3584 
z
" transform="scale(0.015625)"/>
      <path id="DejaVuSans-64" d="M 2906 2969 
L 2906 4863 
L 3481 4863 
L 3481 0 
L 2906 0 
L 2906 525 
Q 2725 213 2448 61 
Q 2172 -91 1784 -91 
Q 1150 -91 751 415 
Q 353 922 353 1747 
Q 353 2572 751 3078 
Q 1150 3584 1784 3584 
Q 2172 3584 2448 3432 
Q 2725 3281 2906 2969 
z
M 947 1747 
Q 947 1113 1208 752 
Q 1469 391 1925 391 
Q 2381 391 2643 752 
Q 2906 1113 2906 1747 
Q 2906 2381 2643 2742 
Q 2381 3103 1925 3103 
Q 1469 3103 1208 2742 
Q 947 2381 947 1747 
z
" transform="scale(0.015625)"/>
     </defs>
     <use xlink:href="#DejaVuSans-42"/>
     <use xlink:href="#DejaVuSans-6f" transform="translate(68.603516 0)"/>
     <use xlink:href="#DejaVuSans-75" transform="translate(129.785156 0)"/>
     <use xlink:href="#DejaVuSans-6c" transform="translate(193.164062 0)"/>
     <use xlink:href="#DejaVuSans-65" transform="translate(220.947266 0)"/>
     <use xlink:href="#DejaVuSans-76" transform="translate(282.470703 0)"/>
     <use xlink:href="#DejaVuSans-61" transform="translate(341.650391 0)"/>
     <use xlink:href="#DejaVuSans-72" transform="translate(402.929688 0)"/>
     <use xlink:href="#DejaVuSans-64" transform="translate(442.292969 0)"/>
     <use xlink:href="#DejaVuSans-69" transform="translate(505.769531 0)"/>
     <use xlink:href="#DejaVuSans-65" transform="translate(533.552734 0)"/>
     <use xlink:href="#DejaVuSans-72" transform="translate(595.076172 0)"/>
    </g>
   </g>
   <g id="text_20">
    <!-- Daiquiri -->
    <g style="fill: #ffffff; opacity: 0.8" transform="translate(718.460228 468.623523) scale(0.08 -0.08)">
     <defs>
      <path id="DejaVuSans-71" d="M 947 1747 
Q 947 1113 1208 752 
Q 1469 391 1925 391 
Q 2381 391 2643 752 
Q 2906 1113 2906 1747 
Q 2906 2381 2643 2742 
Q 2381 3103 1925 3103 
Q 1469 3103 1208 2742 
Q 947 2381 947 1747 
z
M 2906 525 
Q 2725 213 2448 61 
Q 2172 -91 1784 -91 
Q 1150 -91 751 415 
Q 353 922 353 1747 
Q 353 2572 751 3078 
Q 1150 3584 1784 3584 
Q 2172 3584 2448 3432 
Q 2725 3281 2906 2969 
L 2906 3500 
L 3481 3500 
L 3481 -1331 
L 2906 -1331 
L 2906 525 
z
" transform="scale(0.015625)"/>
     </defs>
     <use xlink:href="#DejaVuSans-44"/>
     <use xlink:href="#DejaVuSans-61" transform="translate(77.001953 0)"/>
     <use xlink:href="#DejaVuSans-69" transform="translate(138.28125 0)"/>
     <use xlink:href="#DejaVuSans-71" transform="translate(166.064453 0)"/>
     <use xlink:href="#DejaVuSans-75" transform="translate(229.541016 0)"/>
     <use xlink:href="#DejaVuSans-69" transform="translate(292.919922 0)"/>
     <use xlink:href="#DejaVuSans-72" transform="translate(320.703125 0)"/>
     <use xlink:href="#DejaVuSans-69" transform="translate(361.816406 0)"/>
    </g>
   </g>
   <g id="text_21">
    <!-- Last Word -->
    <g style="fill: #ffffff; opacity: 0.8" transform="translate(484.754901 499.144674) scale(0.08 -0.08)">
     <defs>
      <path id="DejaVuSans-4c" d="M 628 4666 
L 1259 4666 
L 1259 531 
L 3531 531 
L 3531 0 
L 628 0 
L 628 4666 
z
" transform="scale(0.015625)"/>
      <path id="DejaVuSans-57" d="M 213 4666 
L 850 4666 
L 1831 722 
L 2809 4666 
L 3519 4666 
L 4500 722 
L 5478 4666 
L 6119 4666 
L 4947 0 
L 4153 0 
L 3169 4050 
L 2175 0 
L 1381 0 
L 213 4666 
z
" transform="scale(0.015625)"/>
     </defs>
     <use xlink:href="#DejaVuSans-4c"/>
     <use xlink:href="#DejaVuSans-61" transform="translate(55.712891 0)"/>
     <use xlink:href="#DejaVuSans-73" transform="translate(116.992188 0)"/>
     <use xlink:href="#DejaVuSans-74" transform="translate(169.091797 0)"/>
     <use xlink:href="#DejaVuSans-20" transform="translate(208.300781 0)"/>
     <use xlink:href="#DejaVuSans-57" transform="translate(240.087891 0)"/>
     <use xlink:href="#DejaVuSans-6f" transform="translate(333.089844 0)"/>
     <use xlink:href="#DejaVuSans-72" transform="translate(394.271484 0)"/>
     <use xlink:href="#DejaVuSans-64" transform="translate(433.634766 0)"/>
    </g>
   </g>
   <g id="text_22">
    <!-- Mai Tai -->
    <g style="fill: #ffffff; opacity: 0.8" transform="translate(692.196047 336.978381) scale(0.08 -0.08)">
     <defs>
      <path id="DejaVuSans-4d" d="M 628 4666 
L 1569 4666 
L 2759 1491 
L 3956 4666 
L 4897 4666 
L 4897 0 
L 4281 0 
L 4281 4097 
L 3078 897 
L 2444 897 
L 1241 4097 
L 1241 0 
L 628 0 
L 628 4666 
z
" transform="scale(0.015625)"/>
      <path id="DejaVuSans-54" d="M -19 4666 
L 3928 4666 
L 3928 4134 
L 2272 4134 
L 2272 0 
L 1638 0 
L 1638 4134 
L -19 4134 
L -19 4666 
z
" transform="scale(0.015625)"/>
     </defs>
     <use xlink:href="#DejaVuSans-4d"/>
     <use xlink:href="#DejaVuSans-61" transform="translate(86.279297 0)"/>
     <use xlink:href="#DejaVuSans-69" transform="translate(147.558594 0)"/>
     <use xlink:href="#DejaVuSans-20" transform="translate(175.341797 0)"/>
     <use xlink:href="#DejaVuSans-54" transform="translate(207.128906 0)"/>
     <use xlink:href="#DejaVuSans-61" transform="translate(251.712891 0)"/>
     <use xlink:href="#DejaVuSans-69" transform="translate(312.992188 0)"/>
    </g>
   </g>
   <g id="text_23">
    <!-- Manhattan -->
    <g style="fill: #ffffff; opacity: 0.8" transform="translate(644.677439 126.966276) scale(0.08 -0.08)">
     <defs>
      <path id="DejaVuSans-68" d="M 3513 2113 
L 3513 0 
L 2938 0 
L 2938 2094 
Q 2938 2591 2744 2837 
Q 2550 3084 2163 3084 
Q 1697 3084 1428 2787 
Q 1159 2491 1159 1978 
L 1159 0 
L 581 0 
L 581 4863 
L 1159 4863 
L 1159 2956 
Q 1366 3272 1645 3428 
Q 1925 3584 2291 3584 
Q 2894 3584 3203 3211 
Q 3513 2838 3513 2113 
z
" transform="scale(0.015625)"/>
     </defs>
     <use xlink:href="#DejaVuSans-4d"/>
     <use xlink:href="#DejaVuSans-61" transform="translate(86.279297 0)"/>
     <use xlink:href="#DejaVuSans-6e" transform="translate(147.558594 0)"/>
     <use xlink:href="#DejaVuSans-68" transform="translate(210.9375 0)"/>
     <use xlink:href="#DejaVuSans-61" transform="translate(274.316406 0)"/>
     <use xlink:href="#DejaVuSans-74" transform="translate(335.595703 0)"/>
     <use xlink:href="#DejaVuSans-74" transform="translate(374.804688 0)"/>
     <use xlink:href="#DejaVuSans-61" transform="translate(414.013672 0)"/>
     <use xlink:href="#DejaVuSans-6e" transform="translate(475.292969 0)"/>
    </g>
   </g>
   <g id="text_24">
    <!-- Margarita -->
    <g style="fill: #ffffff; opacity: 0.8" transform="translate(572.12419 609.175115) scale(0.08 -0.08)">
     <defs>
      <path id="DejaVuSans-67" d="M 2906 1791 
Q 2906 2416 2648 2759 
Q 2391 3103 1925 3103 
Q 1463 3103 1205 2759 
Q 947 2416 947 1791 
Q 947 1169 1205 825 
Q 1463 481 1925 481 
Q 2391 481 2648 825 
Q 2906 1169 2906 1791 
z
M 3481 434 
Q 3481 -459 3084 -895 
Q 2688 -1331 1869 -1331 
Q 1566 -1331 1297 -1286 
Q 1028 -1241 775 -1147 
L 775 -588 
Q 1028 -725 1275 -790 
Q 1522 -856 1778 -856 
Q 2344 -856 2625 -561 
Q 2906 -266 2906 331 
L 2906 616 
Q 2728 306 2450 153 
Q 2172 0 1784 0 
Q 1141 0 747 490 
Q 353 981 353 1791 
Q 353 2603 747 3093 
Q 1141 3584 1784 3584 
Q 2172 3584 2450 3431 
Q 2728 3278 2906 2969 
L 2906 3500 
L 3481 3500 
L 3481 434 
z
" transform="scale(0.015625)"/>
     </defs>
     <use xlink:href="#DejaVuSans-4d"/>
     <use xlink:href="#DejaVuSans-61" transform="translate(86.279297 0)"/>
     <use xlink:href="#DejaVuSans-72" transform="translate(147.558594 0)"/>
     <use xlink:href="#DejaVuSans-67" transform="translate(186.921875 0)"/>
     <use xlink:href="#DejaVuSans-61" transform="translate(250.398438 0)"/>
     <use xlink:href="#DejaVuSans-72" transform="translate(311.677734 0)"/>
     <use xlink:href="#DejaVuSans-69" transform="translate(352.791016 0)"/>
     <use xlink:href="#DejaVuSans-74" transform="translate(380.574219 0)"/>
     <use xlink:href="#DejaVuSans-61" transform="translate(419.783203 0)"/>
    </g>
   </g>
   <g id="text_25">
    <!-- Martini -->
    <g style="fill: #ffffff; opacity: 0.8" transform="translate(119.152878 541.710225) scale(0.08 -0.08)">
     <use xlink:href="#DejaVuSans-4d"/>
     <use xlink:href="#DejaVuSans-61" transform="translate(86.279297 0)"/>
     <use xlink:href="#DejaVuSans-72" transform="translate(147.558594 0)"/>
     <use xlink:href="#DejaVuSans-74" transform="translate(188.671875 0)"/>
     <use xlink:href="#DejaVuSans-69" transform="translate(227.880859 0)"/>
     <use xlink:href="#DejaVuSans-6e" transform="translate(255.664062 0)"/>
     <use xlink:href="#DejaVuSans-69" transform="translate(319.042969 0)"/>
    </g>
   </g>
   <g id="text_26">
    <!-- Mojito -->
    <g style="fill: #ffffff; opacity: 0.8" transform="translate(732.117205 478.781166) scale(0.08 -0.08)">
     <defs>
      <path id="DejaVuSans-6a" d="M 603 3500 
L 1178 3500 
L 1178 -63 
Q 1178 -731 923 -1031 
Q 669 -1331 103 -1331 
L -116 -1331 
L -116 -844 
L 38 -844 
Q 366 -844 484 -692 
Q 603 -541 603 -63 
L 603 3500 
z
M 603 4863 
L 1178 4863 
L 1178 4134 
L 603 4134 
L 603 4863 
z
" transform="scale(0.015625)"/>
     </defs>
     <use xlink:href="#DejaVuSans-4d"/>
     <use xlink:href="#DejaVuSans-6f" transform="translate(86.279297 0)"/>
     <use xlink:href="#DejaVuSans-6a" transform="translate(147.460938 0)"/>
     <use xlink:href="#DejaVuSans-69" transform="translate(175.244141 0)"/>
     <use xlink:href="#DejaVuSans-74" transform="translate(203.027344 0)"/>
     <use xlink:href="#DejaVuSans-6f" transform="translate(242.236328 0)"/>
    </g>
   </g>
   <g id="text_27">
    <!-- Negroni -->
    <g style="fill: #ffffff; opacity: 0.8" transform="translate(171.022673 440.864363) scale(0.08 -0.08)">
     <defs>
      <path id="DejaVuSans-4e" d="M 628 4666 
L 1478 4666 
L 3547 763 
L 3547 4666 
L 4159 4666 
L 4159 0 
L 3309 0 
L 1241 3903 
L 1241 0 
L 628 0 
L 628 4666 
z
" transform="scale(0.015625)"/>
     </defs>
     <use xlink:href="#DejaVuSans-4e"/>
     <use xlink:href="#DejaVuSans-65" transform="translate(74.804688 0)"/>
     <use xlink:href="#DejaVuSans-67" transform="translate(136.328125 0)"/>
     <use xlink:href="#DejaVuSans-72" transform="translate(199.804688 0)"/>
     <use xlink:href="#DejaVuSans-6f" transform="translate(238.667969 0)"/>
     <use xlink:href="#DejaVuSans-6e" transform="translate(299.849609 0)"/>
     <use xlink:href="#DejaVuSans-69" transform="translate(363.228516 0)"/>
    </g>
   </g>
   <g id="text_28">
    <!-- Old Fashioned -->
    <g style="fill: #ffffff; opacity: 0.8" transform="translate(747.045487 139.010925) scale(0.08 -0.08)">
     <defs>
      <path id="DejaVuSans-4f" d="M 2522 4238 
Q 1834 4238 1429 3725 
Q 1025 3213 1025 2328 
Q 1025 1447 1429 934 
Q 1834 422 2522 422 
Q 3209 422 3611 934 
Q 4013 1447 4013 2328 
Q 4013 3213 3611 3725 
Q 3209 4238 2522 4238 
z
M 2522 4750 
Q 3503 4750 4090 4092 
Q 4678 3434 4678 2328 
Q 4678 1225 4090 567 
Q 3503 -91 2522 -91 
Q 1538 -91 948 565 
Q 359 1222 359 2328 
Q 359 3434 948 4092 
Q 1538 4750 2522 4750 
z
" transform="scale(0.015625)"/>
      <path id="DejaVuSans-46" d="M 628 4666 
L 3309 4666 
L 3309 4134 
L 1259 4134 
L 1259 2759 
L 3109 2759 
L 3109 2228 
L 1259 2228 
L 1259 0 
L 628 0 
L 628 4666 
z
" transform="scale(0.015625)"/>
     </defs>
     <use xlink:href="#DejaVuSans-4f"/>
     <use xlink:href="#DejaVuSans-6c" transform="translate(78.710938 0)"/>
     <use xlink:href="#DejaVuSans-64" transform="translate(106.494141 0)"/>
     <use xlink:href="#DejaVuSans-20" transform="translate(169.970703 0)"/>
     <use xlink:href="#DejaVuSans-46" transform="translate(201.757812 0)"/>
     <use xlink:href="#DejaVuSans-61" transform="translate(250.152344 0)"/>
     <use xlink:href="#DejaVuSans-73" transform="translate(311.431641 0)"/>
     <use xlink:href="#DejaVuSans-68" transform="translate(363.53125 0)"/>
     <use xlink:href="#DejaVuSans-69" transform="translate(426.910156 0)"/>
     <use xlink:href="#DejaVuSans-6f" transform="translate(454.693359 0)"/>
     <use xlink:href="#DejaVuSans-6e" transform="translate(515.875 0)"/>
     <use xlink:href="#DejaVuSans-65" transform="translate(579.253906 0)"/>
     <use xlink:href="#DejaVuSans-64" transform="translate(640.777344 0)"/>
    </g>
   </g>
   <g id="text_29">
    <!-- Paper Plane -->
    <g style="fill: #ffffff; opacity: 0.8" transform="translate(546.599914 418.367784) scale(0.08 -0.08)">
     <defs>
      <path id="DejaVuSans-50" d="M 1259 4147 
L 1259 2394 
L 2053 2394 
Q 2494 2394 2734 2622 
Q 2975 2850 2975 3272 
Q 2975 3691 2734 3919 
Q 2494 4147 2053 4147 
L 1259 4147 
z
M 628 4666 
L 2053 4666 
Q 2838 4666 3239 4311 
Q 3641 3956 3641 3272 
Q 3641 2581 3239 2228 
Q 2838 1875 2053 1875 
L 1259 1875 
L 1259 0 
L 628 0 
L 628 4666 
z
" transform="scale(0.015625)"/>
     </defs>
     <use xlink:href="#DejaVuSans-50"/>
     <use xlink:href="#DejaVuSans-61" transform="translate(55.802734 0)"/>
     <use xlink:href="#DejaVuSans-70" transform="translate(117.082031 0)"/>
     <use xlink:href="#DejaVuSans-65" transform="translate(180.558594 0)"/>
     <use xlink:href="#DejaVuSans-72" transform="translate(242.082031 0)"/>
     <use xlink:href="#DejaVuSans-20" transform="translate(283.195312 0)"/>
     <use xlink:href="#DejaVuSans-50" transform="translate(314.982422 0)"/>
     <use xlink:href="#DejaVuSans-6c" transform="translate(375.285156 0)"/>
     <use xlink:href="#DejaVuSans-61" transform="translate(403.068359 0)"/>
     <use xlink:href="#DejaVuSans-6e" transform="translate(464.347656 0)"/>
     <use xlink:href="#DejaVuSans-65" transform="translate(527.726562 0)"/>
    </g>
   </g>
   <g id="text_30">
    <!-- Penicillin -->
    <g style="fill: #ffffff; opacity: 0.8" transform="translate(797.302342 230.380351) scale(0.08 -0.08)">
     <defs>
      <path id="DejaVuSans-63" d="M 3122 3366 
L 3122 2828 
Q 2878 2963 2633 3030 
Q 2388 3097 2138 3097 
Q 1578 3097 1268 2742 
Q 959 2388 959 1747 
Q 959 1106 1268 751 
Q 1578 397 2138 397 
Q 2388 397 2633 464 
Q 2878 531 3122 666 
L 3122 134 
Q 2881 22 2623 -34 
Q 2366 -91 2075 -91 
Q 1284 -91 818 406 
Q 353 903 353 1747 
Q 353 2603 823 3093 
Q 1294 3584 2113 3584 
Q 2378 3584 2631 3529 
Q 2884 3475 3122 3366 
z
" transform="scale(0.015625)"/>
     </defs>
     <use xlink:href="#DejaVuSans-50"/>
     <use xlink:href="#DejaVuSans-65" transform="translate(56.677734 0)"/>
     <use xlink:href="#DejaVuSans-6e" transform="translate(118.201172 0)"/>
     <use xlink:href="#DejaVuSans-69" transform="translate(181.580078 0)"/>
     <use xlink:href="#DejaVuSans-63" transform="translate(209.363281 0)"/>
     <use xlink:href="#DejaVuSans-69" transform="translate(264.34375 0)"/>
     <use xlink:href="#DejaVuSans-6c" transform="translate(292.126953 0)"/>
     <use xlink:href="#DejaVuSans-6c" transform="translate(319.910156 0)"/>
     <use xlink:href="#DejaVuSans-69" transform="translate(347.693359 0)"/>
     <use xlink:href="#DejaVuSans-6e" transform="translate(375.476562 0)"/>
    </g>
   </g>
   <g id="text_31">
    <!-- Whiskey Sour -->
    <g style="fill: #ffffff; opacity: 0.8" transform="translate(780.271451 237.486188) scale(0.08 -0.08)">
     <defs>
      <path id="DejaVuSans-6b" d="M 581 4863 
L 1159 4863 
L 1159 1991 
L 2875 3500 
L 3609 3500 
L 1753 1863 
L 3688 0 
L 2938 0 
L 1159 1709 
L 1159 0 
L 581 0 
L 581 4863 
z
" transform="scale(0.015625)"/>
      <path id="DejaVuSans-79" d="M 2059 -325 
Q 1816 -950 1584 -1140 
Q 1353 -1331 966 -1331 
L 506 -1331 
L 506 -850 
L 844 -850 
Q 1081 -850 1212 -737 
Q 1344 -625 1503 -206 
L 1606 56 
L 191 3500 
L 800 3500 
L 1894 763 
L 2988 3500 
L 3597 3500 
L 2059 -325 
z
" transform="scale(0.015625)"/>
     </defs>
     <use xlink:href="#DejaVuSans-57"/>
     <use xlink:href="#DejaVuSans-68" transform="translate(98.876953 0)"/>
     <use xlink:href="#DejaVuSans-69" transform="translate(162.255859 0)"/>
     <use xlink:href="#DejaVuSans-73" transform="translate(190.039062 0)"/>
     <use xlink:href="#DejaVuSans-6b" transform="translate(242.138672 0)"/>
     <use xlink:href="#DejaVuSans-65" transform="translate(296.423828 0)"/>
     <use xlink:href="#DejaVuSans-79" transform="translate(357.947266 0)"/>
     <use xlink:href="#DejaVuSans-20" transform="translate(417.126953 0)"/>
     <use xlink:href="#DejaVuSans-53" transform="translate(448.914062 0)"/>
     <use xlink:href="#DejaVuSans-6f" transform="translate(512.390625 0)"/>
     <use xlink:href="#DejaVuSans-75" transform="translate(573.572266 0)"/>
     <use xlink:href="#DejaVuSans-72" transform="translate(636.951172 0)"/>
    </g>
   </g>
   <g id="text_32">
    <!-- tau_115.478 - Hierarchical ward (3 clusters) -->
    <g style="fill: #d4af37" transform="translate(273.414688 17.837812) scale(0.14 -0.14)">
     <defs>
      <path id="DejaVuSans-Bold-75" d="M 500 1363 
L 500 3500 
L 1625 3500 
L 1625 3150 
Q 1625 2866 1622 2436 
Q 1619 2006 1619 1863 
Q 1619 1441 1641 1255 
Q 1663 1069 1716 984 
Q 1784 875 1895 815 
Q 2006 756 2150 756 
Q 2500 756 2700 1025 
Q 2900 1294 2900 1772 
L 2900 3500 
L 4019 3500 
L 4019 0 
L 2900 0 
L 2900 506 
Q 2647 200 2364 54 
Q 2081 -91 1741 -91 
Q 1134 -91 817 281 
Q 500 653 500 1363 
z
" transform="scale(0.015625)"/>
      <path id="DejaVuSans-Bold-5f" d="M 3200 -916 
L 3200 -1509 
L 0 -1509 
L 0 -916 
L 3200 -916 
z
" transform="scale(0.015625)"/>
      <path id="DejaVuSans-Bold-31" d="M 750 831 
L 1813 831 
L 1813 3847 
L 722 3622 
L 722 4441 
L 1806 4666 
L 2950 4666 
L 2950 831 
L 4013 831 
L 4013 0 
L 750 0 
L 750 831 
z
" transform="scale(0.015625)"/>
      <path id="DejaVuSans-Bold-35" d="M 678 4666 
L 3669 4666 
L 3669 3781 
L 1638 3781 
L 1638 3059 
Q 1775 3097 1914 3117 
Q 2053 3138 2203 3138 
Q 3056 3138 3531 2711 
Q 4006 2284 4006 1522 
Q 4006 766 3489 337 
Q 2972 -91 2053 -91 
Q 1656 -91 1267 -14 
Q 878 63 494 219 
L 494 1166 
Q 875 947 1217 837 
Q 1559 728 1863 728 
Q 2300 728 2551 942 
Q 2803 1156 2803 1522 
Q 2803 1891 2551 2103 
Q 2300 2316 1863 2316 
Q 1603 2316 1309 2248 
Q 1016 2181 678 2041 
L 678 4666 
z
" transform="scale(0.015625)"/>
      <path id="DejaVuSans-Bold-2e" d="M 653 1209 
L 1778 1209 
L 1778 0 
L 653 0 
L 653 1209 
z
" transform="scale(0.015625)"/>
      <path id="DejaVuSans-Bold-34" d="M 2356 3675 
L 1038 1722 
L 2356 1722 
L 2356 3675 
z
M 2156 4666 
L 3494 4666 
L 3494 1722 
L 4159 1722 
L 4159 850 
L 3494 850 
L 3494 0 
L 2356 0 
L 2356 850 
L 288 850 
L 288 1881 
L 2156 4666 
z
" transform="scale(0.015625)"/>
      <path id="DejaVuSans-Bold-37" d="M 428 4666 
L 3944 4666 
L 3944 3988 
L 2125 0 
L 953 0 
L 2675 3781 
L 428 3781 
L 428 4666 
z
" transform="scale(0.015625)"/>
      <path id="DejaVuSans-Bold-38" d="M 2228 2088 
Q 1891 2088 1709 1903 
Q 1528 1719 1528 1375 
Q 1528 1031 1709 848 
Q 1891 666 2228 666 
Q 2563 666 2741 848 
Q 2919 1031 2919 1375 
Q 2919 1722 2741 1905 
Q 2563 2088 2228 2088 
z
M 1350 2484 
Q 925 2613 709 2878 
Q 494 3144 494 3541 
Q 494 4131 934 4440 
Q 1375 4750 2228 4750 
Q 3075 4750 3515 4442 
Q 3956 4134 3956 3541 
Q 3956 3144 3739 2878 
Q 3522 2613 3097 2484 
Q 3572 2353 3814 2058 
Q 4056 1763 4056 1313 
Q 4056 619 3595 264 
Q 3134 -91 2228 -91 
Q 1319 -91 855 264 
Q 391 619 391 1313 
Q 391 1763 633 2058 
Q 875 2353 1350 2484 
z
M 1631 3419 
Q 1631 3141 1786 2991 
Q 1941 2841 2228 2841 
Q 2509 2841 2662 2991 
Q 2816 3141 2816 3419 
Q 2816 3697 2662 3845 
Q 2509 3994 2228 3994 
Q 1941 3994 1786 3844 
Q 1631 3694 1631 3419 
z
" transform="scale(0.015625)"/>
      <path id="DejaVuSans-Bold-48" d="M 588 4666 
L 1791 4666 
L 1791 2888 
L 3566 2888 
L 3566 4666 
L 4769 4666 
L 4769 0 
L 3566 0 
L 3566 1978 
L 1791 1978 
L 1791 0 
L 588 0 
L 588 4666 
z
" transform="scale(0.015625)"/>
      <path id="DejaVuSans-Bold-77" d="M 225 3500 
L 1313 3500 
L 1900 1088 
L 2491 3500 
L 3425 3500 
L 4013 1113 
L 4603 3500 
L 5691 3500 
L 4769 0 
L 3547 0 
L 2956 2406 
L 2369 0 
L 1147 0 
L 225 3500 
z
" transform="scale(0.015625)"/>
      <path id="DejaVuSans-Bold-28" d="M 2413 -844 
L 1484 -844 
Q 1006 -72 778 623 
Q 550 1319 550 2003 
Q 550 2688 779 3389 
Q 1009 4091 1484 4856 
L 2413 4856 
Q 2013 4116 1813 3408 
Q 1613 2700 1613 2009 
Q 1613 1319 1811 609 
Q 2009 -100 2413 -844 
z
" transform="scale(0.015625)"/>
      <path id="DejaVuSans-Bold-33" d="M 2981 2516 
Q 3453 2394 3698 2092 
Q 3944 1791 3944 1325 
Q 3944 631 3412 270 
Q 2881 -91 1863 -91 
Q 1503 -91 1142 -33 
Q 781 25 428 141 
L 428 1069 
Q 766 900 1098 814 
Q 1431 728 1753 728 
Q 2231 728 2486 893 
Q 2741 1059 2741 1369 
Q 2741 1688 2480 1852 
Q 2219 2016 1709 2016 
L 1228 2016 
L 1228 2791 
L 1734 2791 
Q 2188 2791 2409 2933 
Q 2631 3075 2631 3366 
Q 2631 3634 2415 3781 
Q 2200 3928 1806 3928 
Q 1516 3928 1219 3862 
Q 922 3797 628 3669 
L 628 4550 
Q 984 4650 1334 4700 
Q 1684 4750 2022 4750 
Q 2931 4750 3382 4451 
Q 3834 4153 3834 3553 
Q 3834 3144 3618 2883 
Q 3403 2622 2981 2516 
z
" transform="scale(0.015625)"/>
      <path id="DejaVuSans-Bold-29" d="M 513 -844 
Q 913 -100 1113 609 
Q 1313 1319 1313 2009 
Q 1313 2700 1113 3408 
Q 913 4116 513 4856 
L 1441 4856 
Q 1916 4091 2145 3389 
Q 2375 2688 2375 2003 
Q 2375 1319 2147 623 
Q 1919 -72 1441 -844 
L 513 -844 
z
" transform="scale(0.015625)"/>
     </defs>
     <use xlink:href="#DejaVuSans-Bold-74"/>
     <use xlink:href="#DejaVuSans-Bold-61" transform="translate(47.802734 0)"/>
     <use xlink:href="#DejaVuSans-Bold-75" transform="translate(115.283203 0)"/>
     <use xlink:href="#DejaVuSans-Bold-5f" transform="translate(186.474609 0)"/>
     <use xlink:href="#DejaVuSans-Bold-31" transform="translate(236.474609 0)"/>
     <use xlink:href="#DejaVuSans-Bold-31" transform="translate(306.054688 0)"/>
     <use xlink:href="#DejaVuSans-Bold-35" transform="translate(375.634766 0)"/>
     <use xlink:href="#DejaVuSans-Bold-2e" transform="translate(445.214844 0)"/>
     <use xlink:href="#DejaVuSans-Bold-34" transform="translate(483.203125 0)"/>
     <use xlink:href="#DejaVuSans-Bold-37" transform="translate(552.783203 0)"/>
     <use xlink:href="#DejaVuSans-Bold-38" transform="translate(622.363281 0)"/>
     <use xlink:href="#DejaVuSans-Bold-20" transform="translate(691.943359 0)"/>
     <use xlink:href="#DejaVuSans-Bold-2d" transform="translate(726.757812 0)"/>
     <use xlink:href="#DejaVuSans-Bold-20" transform="translate(768.261719 0)"/>
     <use xlink:href="#DejaVuSans-Bold-48" transform="translate(803.076172 0)"/>
     <use xlink:href="#DejaVuSans-Bold-69" transform="translate(886.767578 0)"/>
     <use xlink:href="#DejaVuSans-Bold-65" transform="translate(921.044922 0)"/>
     <use xlink:href="#DejaVuSans-Bold-72" transform="translate(988.867188 0)"/>
     <use xlink:href="#DejaVuSans-Bold-61" transform="translate(1038.183594 0)"/>
     <use xlink:href="#DejaVuSans-Bold-72" transform="translate(1105.664062 0)"/>
     <use xlink:href="#DejaVuSans-Bold-63" transform="translate(1154.980469 0)"/>
     <use xlink:href="#DejaVuSans-Bold-68" transform="translate(1214.257812 0)"/>
     <use xlink:href="#DejaVuSans-Bold-69" transform="translate(1285.449219 0)"/>
     <use xlink:href="#DejaVuSans-Bold-63" transform="translate(1319.726562 0)"/>
     <use xlink:href="#DejaVuSans-Bold-61" transform="translate(1379.003906 0)"/>
     <use xlink:href="#DejaVuSans-Bold-6c" transform="translate(1446.484375 0)"/>
     <use xlink:href="#DejaVuSans-Bold-20" transform="translate(1480.761719 0)"/>
     <use xlink:href="#DejaVuSans-Bold-77" transform="translate(1515.576172 0)"/>
     <use xlink:href="#DejaVuSans-Bold-61" transform="translate(1607.958984 0)"/>
     <use xlink:href="#DejaVuSans-Bold-72" transform="translate(1675.439453 0)"/>
     <use xlink:href="#DejaVuSans-Bold-64" transform="translate(1724.755859 0)"/>
     <use xlink:href="#DejaVuSans-Bold-20" transform="translate(1796.337891 0)"/>
     <use xlink:href="#DejaVuSans-Bold-28" transform="translate(1831.152344 0)"/>
     <use xlink:href="#DejaVuSans-Bold-33" transform="translate(1876.855469 0)"/>
     <use xlink:href="#DejaVuSans-Bold-20" transform="translate(1946.435547 0)"/>
     <use xlink:href="#DejaVuSans-Bold-63" transform="translate(1981.25 0)"/>
     <use xlink:href="#DejaVuSans-Bold-6c" transform="translate(2040.527344 0)"/>
     <use xlink:href="#DejaVuSans-Bold-75" transform="translate(2074.804688 0)"/>
     <use xlink:href="#DejaVuSans-Bold-73" transform="translate(2145.996094 0)"/>
     <use xlink:href="#DejaVuSans-Bold-74" transform="translate(2205.517578 0)"/>
     <use xlink:href="#DejaVuSans-Bold-65" transform="translate(2253.320312 0)"/>
     <use xlink:href="#DejaVuSans-Bold-72" transform="translate(2321.142578 0)"/>
     <use xlink:href="#DejaVuSans-Bold-73" transform="translate(2370.458984 0)"/>
     <use xlink:href="#DejaVuSans-Bold-29" transform="translate(2429.980469 0)"/>
    </g>
   </g>
  </g>
 </g>
 <defs>
  <clipPath id="pd86d6581ae">
   <rect x="43.588125" y="37.837812" width="806.245" height="636.08"/>
  </clipPath>
 </defs>
</svg>
